<svg width="42" height="42" viewBox="0 0 42 42" fill="none" xmlns="http://www.w3.org/2000/svg">
<path fill-rule="evenodd" clip-rule="evenodd" d="M1 21C1 9.95431 9.95431 1 21 1C32.0457 1 41 9.95431 41 21C41 32.0457 32.0457 41 21 41C9.95431 41 1 32.0457 1 21Z" fill="white" stroke="#E7E7E7"/>
<g opacity="0.2">
<path d="M2.35456 23.8469C2.33556 28.6634 6.09137 33.2251 9.98404 35.6656C14.561 38.5357 20.898 38.5167 25.9501 37.1291C30.7779 35.8024 34.8568 32.6054 37.2897 28.249C39.7607 23.8241 40.7566 17.6164 38.6659 12.8836C38.624 12.7886 38.6012 12.9824 38.6164 13.0205C40.5704 18.7264 39.3425 25.2725 35.811 30.1231C33.2108 33.7003 29.1737 35.9697 24.9503 37.0265C20.6281 38.1099 15.614 37.8856 11.516 36.1256C6.99231 34.183 2.51422 28.9219 2.4458 23.8469C2.442 23.7177 2.35456 23.7215 2.35456 23.8469Z" fill="#404040"/>
<path d="M8.44119 34.3389C8.39937 34.8521 8.22071 35.4224 8.32334 35.9317C8.33475 35.9888 8.37276 35.9774 8.38797 35.9317C8.44879 35.7037 8.44499 35.4604 8.4754 35.2247C8.50961 34.9396 8.53622 34.6507 8.52482 34.3656C8.51722 34.2781 8.44879 34.2211 8.44119 34.3389Z" fill="#404040"/>
<path d="M9.43309 34.9129C9.29243 35.4641 9.07195 36.0762 9.06055 36.6464C9.06055 36.6768 9.09096 36.8289 9.14418 36.7566C9.27343 36.5704 9.28863 36.3005 9.33425 36.0838C9.40648 35.7492 9.4787 35.4147 9.55853 35.0802C9.58134 34.9814 9.48631 34.7 9.43309 34.9129Z" fill="#404040"/>
<path d="M10.4557 35.5173C10.2162 36.0115 9.93493 36.7756 10.0908 37.3306C10.1022 37.3686 10.1402 37.4066 10.1592 37.3496C10.239 37.1291 10.2276 36.882 10.2657 36.6501C10.3189 36.3346 10.4215 36.0343 10.5584 35.7454C10.5964 35.6694 10.5356 35.3576 10.4557 35.5173Z" fill="#404040"/>
<path d="M11.5977 35.8976C11.3468 36.3804 10.9857 36.943 10.9629 37.498C10.9629 37.5246 10.9819 37.7147 11.0427 37.6348C11.172 37.4562 11.2138 37.2091 11.2936 37.0038C11.4115 36.7035 11.5559 36.4108 11.7004 36.1219C11.7384 36.0458 11.6776 35.7417 11.5977 35.8976Z" fill="#404040"/>
<path d="M12.497 36.5019C12.3753 36.6844 12.2765 36.8745 12.1815 37.0722C12.0598 37.3231 11.9116 37.5816 11.8621 37.8591C11.8583 37.8819 11.8545 38.0605 11.9192 38.0225C12.0864 37.9199 12.1549 37.6424 12.2271 37.4713C12.3297 37.2356 12.44 37.0075 12.5768 36.7909C12.6224 36.7148 12.5692 36.3917 12.497 36.5019Z" fill="#404040"/>
<path d="M13.6103 36.7529C13.3632 37.2471 12.9831 37.9009 13.1275 38.4749C13.1389 38.5206 13.1807 38.5548 13.2036 38.4939C13.2872 38.2697 13.31 38.0264 13.3898 37.7983C13.4849 37.536 13.6141 37.2889 13.7396 37.038C13.789 36.943 13.7091 36.5552 13.6103 36.7529Z" fill="#404040"/>
<path d="M14.8769 36.7528C14.5766 37.4827 14.1356 38.2468 14.1318 39.0565C14.1318 39.1021 14.1775 39.2351 14.2193 39.1401C14.3675 38.8284 14.436 38.4824 14.5538 38.1593C14.6906 37.7868 14.8579 37.4218 15.0062 37.0493C15.0518 36.9429 14.9605 36.5437 14.8769 36.7528Z" fill="#404040"/>
<path d="M15.9102 37.3575C15.5186 37.8935 15.1423 38.6576 15.2753 39.338C15.2905 39.4102 15.3438 39.4673 15.3704 39.3646C15.4464 39.0833 15.4692 38.7944 15.5642 38.5131C15.6631 38.2204 15.8265 37.9543 16.0052 37.7034C16.0698 37.616 16.0014 37.232 15.9102 37.3575Z" fill="#404040"/>
<path d="M17.1715 37.4752C16.8066 37.9694 16.358 38.6651 16.4036 39.3075C16.4074 39.3417 16.4302 39.49 16.491 39.4216C16.6431 39.2505 16.6659 38.9502 16.7495 38.7335C16.8788 38.4142 17.0651 38.1215 17.2703 37.8402C17.3426 37.7489 17.2741 37.3422 17.1715 37.4752Z" fill="#404040"/>
<path d="M18.5637 37.0798C18.0505 37.8667 17.5335 38.8474 17.5411 39.813C17.5411 39.8662 17.6019 40.0373 17.6513 39.9118C17.8148 39.5089 17.8832 39.0717 18.0429 38.6612C18.2063 38.243 18.4268 37.8515 18.6701 37.4751C18.7385 37.3725 18.6587 36.9353 18.5637 37.0798Z" fill="#404040"/>
<path d="M19.6941 37.1368C19.2797 37.9731 18.797 39.0109 18.9528 39.9727C18.9642 40.0373 19.0174 40.0867 19.0402 39.9955C19.1429 39.5507 19.1695 39.1021 19.3025 38.6612C19.4318 38.2316 19.6257 37.8249 19.8233 37.4219C19.8728 37.3231 19.7929 36.9391 19.6941 37.1368Z" fill="#404040"/>
<path d="M21.2219 37.6615C20.8304 38.456 20.435 39.3987 20.3362 40.2883C20.3324 40.3149 20.3742 40.5278 20.4236 40.4365C20.6289 40.0754 20.7011 39.6268 20.8228 39.2353C20.9634 38.7829 21.1345 38.3419 21.336 37.9162C21.3778 37.8249 21.3093 37.4866 21.2219 37.6615Z" fill="#404040"/>
<path d="M22.4792 37.2584C22.0877 38.1632 21.5821 39.1858 21.6011 40.1931C21.6011 40.2388 21.6619 40.406 21.7037 40.2882C21.852 39.87 21.9128 39.4214 22.0459 38.9957C22.2017 38.5015 22.4108 38.0263 22.6123 37.5511C22.6579 37.4485 22.5667 37.0532 22.4792 37.2584Z" fill="#404040"/>
<path d="M23.6356 36.9619C23.1642 37.8134 22.7461 38.8512 22.8753 39.8472C22.8867 39.9194 22.9552 39.9803 22.9742 39.8738C23.1376 38.9615 23.2821 38.1632 23.7383 37.3421C23.7991 37.2356 23.7117 36.8213 23.6356 36.9619Z" fill="#404040"/>
<path d="M24.5065 37.4409C24.2442 38.4255 23.75 39.3986 23.636 40.4174C23.6322 40.463 23.674 40.6379 23.7234 40.5277C24.1492 39.6419 24.3963 38.5737 24.6396 37.6234C24.67 37.5093 24.5673 37.2128 24.5065 37.4409Z" fill="#404040"/>
<path d="M25.6512 37.1405C25.3775 38.0528 24.9214 38.9804 24.9023 39.9422C24.9023 39.984 24.9556 40.1322 24.9936 40.0258C25.2939 39.1629 25.5334 38.2581 25.7881 37.38C25.8185 37.285 25.7082 36.9466 25.6512 37.1405Z" fill="#404040"/>
<path d="M26.543 37.0227C26.1704 37.783 25.8853 38.6878 25.7903 39.5317C25.7865 39.5545 25.8245 39.7484 25.8701 39.6647C26.0298 39.3682 26.0906 39.0375 26.1704 38.7144C26.2959 38.224 26.4441 37.745 26.6608 37.285C26.7026 37.1938 26.6304 36.8403 26.543 37.0227Z" fill="#404040"/>
<path d="M27.8361 36.1179C27.6878 37.1101 27.0302 38.0338 27.0606 39.0526C27.0606 39.0906 27.1062 39.2199 27.1404 39.1287C27.3343 38.6497 27.4179 38.1061 27.5662 37.6119C27.7144 37.1291 27.8209 36.6539 27.8969 36.1559C27.9083 36.0913 27.8513 36.0191 27.8361 36.1179Z" fill="#404040"/>
<path d="M29.5739 35.6696C29.3116 36.6466 28.7946 37.6349 28.7109 38.6461C28.7109 38.6651 28.7413 38.8438 28.7832 38.7678C29.0227 38.3382 29.1101 37.8212 29.2621 37.3574C29.4256 36.8594 29.5815 36.3614 29.7107 35.8521C29.7411 35.738 29.6347 35.4377 29.5739 35.6696Z" fill="#404040"/>
<path d="M30.8472 34.9813C30.4443 35.9089 29.9425 37.0341 30.1059 38.0719C30.1173 38.1403 30.1744 38.1935 30.1934 38.0985C30.2884 37.6918 30.3188 37.2698 30.4139 36.863C30.5431 36.3156 30.7598 35.791 30.9727 35.274C31.0145 35.1714 30.9308 34.7799 30.8472 34.9813Z" fill="#404040"/>
<path d="M31.7891 33.8447C31.4736 34.8863 31.0631 36.0534 31.1125 37.152C31.1125 37.19 31.1657 37.3344 31.1999 37.2318C31.352 36.7832 31.3748 36.2966 31.4584 35.8291C31.5762 35.1752 31.7017 34.5214 31.8043 33.8637L31.7891 33.8447Z" fill="#404040"/>
<path d="M35.5864 30.8035C35.3507 32.096 34.8565 33.396 34.7805 34.7113C34.7767 34.7532 34.8299 34.9622 34.8755 34.8368C35.3279 33.6089 35.537 32.1302 35.6054 30.8225L35.5864 30.8035Z" fill="#404040"/>
<path d="M36.9242 28.4922C36.7417 30.066 36.1715 31.6588 36.3121 33.2554C36.3197 33.3618 36.3919 33.3504 36.4072 33.2516C36.6162 31.6968 36.9242 30.1382 37.0572 28.5758C37.0686 28.439 36.9508 28.2717 36.9242 28.4922Z" fill="#404040"/>
<path d="M37.6811 27.0973C37.5442 28.7471 37.2705 30.4007 37.1945 32.0505C37.1907 32.119 37.2515 32.2938 37.2933 32.1456C37.7229 30.568 37.7077 28.8117 37.8217 27.1847C37.8331 27.0365 37.7001 26.8616 37.6811 27.0973Z" fill="#404040"/>
<path d="M38.9348 24.8086C38.7941 26.4242 38.4482 28.055 38.4634 29.6782C38.4634 29.7428 38.5242 29.8493 38.547 29.7314C38.8663 28.1615 38.969 26.5078 39.0944 24.915C39.1134 24.7364 38.9614 24.5197 38.9348 24.8086Z" fill="#404040"/>
<path d="M40.2734 19.8211C39.6994 20.4711 39.7032 21.5774 39.6424 22.3947C39.5359 23.7556 39.5169 25.1507 39.6082 26.5116C39.6158 26.6067 39.688 26.6789 39.6956 26.542C39.7488 25.7247 39.7222 24.8998 39.7298 24.0787C39.7412 22.9269 39.5816 20.9919 40.3076 20.0074C40.3342 19.9693 40.3 19.7907 40.2734 19.8211Z" fill="#404040"/>
</g>
<path fill-rule="evenodd" clip-rule="evenodd" d="M22.9404 31.2374V21.9057H25.5163L25.8577 18.6899H22.9404L22.9447 17.0804C22.9447 16.2417 23.0244 15.7923 24.2291 15.7923H25.8395V12.5762H23.2631C20.1686 12.5762 19.0793 14.1362 19.0793 16.7596V18.6903H17.1504V21.906H19.0793V31.2374H22.9404Z" fill="#A6A6A6"/>
</svg>
