<svg width="31" height="31" viewBox="0 0 31 31" fill="none" xmlns="http://www.w3.org/2000/svg">
<path d="M13.8122 7.5149C14.3507 6.97346 14.9912 6.54421 15.6967 6.252C16.4022 5.95978 17.1586 5.8104 17.9223 5.8125C18.0048 5.8125 18.086 5.79139 18.1581 5.75118C18.2303 5.71097 18.2909 5.653 18.3343 5.58276C18.3777 5.51253 18.4024 5.43236 18.4061 5.34988C18.4098 5.2674 18.3924 5.18534 18.3555 5.11149L16.7685 1.9375H22.951L21.3641 5.11149C21.3271 5.18534 21.3097 5.2674 21.3134 5.34988C21.3171 5.43236 21.3418 5.51253 21.3852 5.58276C21.4286 5.653 21.4893 5.71097 21.5614 5.75118C21.6335 5.79139 21.7147 5.8125 21.7973 5.8125C23.3383 5.81423 24.8157 6.42717 25.9054 7.51685C26.9951 8.60653 27.608 10.084 27.6098 11.625V21.3125C27.6098 21.3761 27.6223 21.4391 27.6466 21.4979C27.671 21.5566 27.7066 21.61 27.7516 21.655L28.8033 22.7067C28.9273 22.8306 29.0117 22.9884 29.0459 23.1602C29.0801 23.332 29.0625 23.5101 28.9955 23.672C28.9285 23.8339 28.8149 23.9722 28.6692 24.0695C28.5236 24.1669 28.3523 24.2188 28.1771 24.2188H16.4691V25.1875H28.1771C28.5439 25.1875 28.9024 25.0788 29.2074 24.875C29.5124 24.6712 29.7501 24.3816 29.8905 24.0427C30.0308 23.7038 30.0675 23.3309 29.996 22.9712C29.9244 22.6115 29.7477 22.281 29.4884 22.0217L28.5785 21.1118V11.625C28.5765 9.95903 27.9622 8.35191 26.8524 7.10938C25.7427 5.86684 24.2149 5.07558 22.5597 4.88613L24.168 1.66958C24.2049 1.59574 24.2223 1.5137 24.2185 1.43124C24.2148 1.34879 24.1901 1.26865 24.1467 1.19844C24.1033 1.12823 24.0427 1.07028 23.9706 1.03008C23.8985 0.989879 23.8173 0.968768 23.7348 0.96875H15.9848C15.9022 0.968753 15.821 0.989861 15.7489 1.03007C15.6768 1.07028 15.6161 1.12825 15.5727 1.19849C15.5293 1.26873 15.5046 1.34889 15.5009 1.43137C15.4972 1.51385 15.5146 1.59591 15.5516 1.66976L17.1594 4.88613C15.6328 5.0549 14.21 5.74071 13.127 6.82969L13.8122 7.5149Z" fill="#525252"/>
<path d="M15.7701 8.40391C16.4064 7.97663 17.1557 7.74894 17.9221 7.75V6.78125C16.9635 6.78005 16.0263 7.06497 15.2305 7.59955L15.7701 8.40391Z" fill="#018B44"/>
<path d="M19.375 10.1719V11.1406H19.1705C18.6552 11.1406 18.1559 11.3201 17.7586 11.6483C17.3612 11.9764 17.0906 12.4327 16.9931 12.9387C16.8957 13.4447 16.9775 13.9689 17.2246 14.4211C17.4717 14.8733 17.8686 15.2254 18.347 15.4167L21.0121 16.4827C21.2815 16.5905 21.505 16.7888 21.6441 17.0434C21.7832 17.2981 21.8293 17.5932 21.7744 17.8782C21.7195 18.1631 21.5671 18.4201 21.3433 18.6048C21.1196 18.7896 20.8385 18.8906 20.5483 18.8906H19.1705C18.8394 18.8903 18.5221 18.7586 18.288 18.5245C18.0539 18.2904 17.9222 17.9731 17.9219 17.642V16.9531H16.9531V17.642C16.9538 18.2299 17.1876 18.7935 17.6033 19.2092C18.019 19.6249 18.5826 19.8587 19.1705 19.8594H19.375V20.8281H20.3438V19.8594H20.5483C21.0636 19.8594 21.5628 19.6799 21.9602 19.3517C22.3575 19.0236 22.6282 18.5673 22.7256 18.0613C22.823 17.5553 22.7412 17.0311 22.4941 16.5789C22.2471 16.1267 21.8502 15.7746 21.3717 15.5833L18.7067 14.5173C18.4373 14.4095 18.2138 14.2112 18.0747 13.9566C17.9355 13.7019 17.8895 13.4068 17.9443 13.1218C17.9992 12.8369 18.1516 12.5799 18.3754 12.3952C18.5992 12.2104 18.8803 12.1094 19.1705 12.1094H20.5483C20.8793 12.1097 21.1967 12.2414 21.4308 12.4755C21.6648 12.7096 21.7965 13.0269 21.7969 13.358V14.0469H22.7656V13.358C22.765 12.7701 22.5311 12.2065 22.1154 11.7908C21.6997 11.3751 21.1361 11.1413 20.5483 11.1406H20.3438V10.1719H19.375Z" fill="#018B44"/>
<path d="M2.90625 30.0317H13.5625C14.0762 30.0311 14.5687 29.8268 14.9319 29.4636C15.2951 29.1004 15.4994 28.6079 15.5 28.0942V10.1723C15.4994 9.65867 15.2951 9.16619 14.9319 8.80297C14.5687 8.43974 14.0762 8.23542 13.5625 8.23485H9.6875V1.4536C9.6875 1.37103 9.66639 1.28984 9.62618 1.21772C9.58597 1.14561 9.528 1.08497 9.45776 1.04157C9.38752 0.998165 9.30736 0.973435 9.22488 0.969727C9.1424 0.966019 9.06034 0.983457 8.98649 1.02038L8.23438 1.39644L7.48226 1.02038C7.415 0.986749 7.34083 0.969238 7.26562 0.969238C7.19042 0.969238 7.11625 0.986749 7.04899 1.02038L6.29688 1.39644L5.54476 1.02038C5.4775 0.986749 5.40333 0.969238 5.32812 0.969238C5.25292 0.969238 5.17875 0.986749 5.11149 1.02038L4.35938 1.39644L3.60726 1.02038C3.53341 0.983457 3.45135 0.966019 3.36887 0.969727C3.28639 0.973435 3.20623 0.998165 3.13599 1.04157C3.06575 1.08497 3.00778 1.14561 2.96757 1.21772C2.92736 1.28984 2.90625 1.37103 2.90625 1.4536V8.23485C2.39257 8.23542 1.90009 8.43974 1.53687 8.80297C1.17364 9.16619 0.969327 9.65867 0.96875 10.1723V28.0942C0.969327 28.6079 1.17364 29.1004 1.53687 29.4636C1.90009 29.8268 2.39257 30.0311 2.90625 30.0317ZM3.875 2.23732L4.14274 2.37118C4.21 2.40482 4.28417 2.42233 4.35938 2.42233C4.43458 2.42233 4.50875 2.40482 4.57601 2.37118L5.32812 1.99513L6.08024 2.37118C6.1475 2.40482 6.22167 2.42233 6.29688 2.42233C6.37208 2.42233 6.44625 2.40482 6.51351 2.37118L7.26562 1.99513L8.01774 2.37118C8.085 2.40482 8.15917 2.42233 8.23438 2.42233C8.30958 2.42233 8.38375 2.40482 8.45101 2.37118L8.71875 2.23732V9.2036H3.875V2.23732ZM1.9375 10.1723C1.9378 9.91551 2.03997 9.66928 2.22158 9.48767C2.40319 9.30606 2.64942 9.2039 2.90625 9.2036V9.68797C2.90625 9.81644 2.95728 9.93964 3.04812 10.0305C3.13896 10.1213 3.26216 10.1723 3.39062 10.1723H9.20312C9.33159 10.1723 9.45479 10.1213 9.54563 10.0305C9.63647 9.93964 9.6875 9.81644 9.6875 9.68797V9.2036H13.5625C13.8193 9.2039 14.0656 9.30606 14.2472 9.48767C14.4288 9.66928 14.5309 9.91551 14.5312 10.1723V28.0942C14.5309 28.3511 14.4288 28.5973 14.2472 28.7789C14.0656 28.9605 13.8193 29.0627 13.5625 29.063H2.90625C2.64942 29.0627 2.40319 28.9605 2.22158 28.7789C2.03997 28.5973 1.9378 28.3511 1.9375 28.0942V10.1723Z" fill="#525252"/>
<path d="M3.39062 15.9844H13.0781C13.2066 15.9844 13.3298 15.9333 13.4206 15.8425C13.5115 15.7517 13.5625 15.6285 13.5625 15.5V11.625C13.5625 11.4965 13.5115 11.3733 13.4206 11.2825C13.3298 11.1917 13.2066 11.1406 13.0781 11.1406H3.39062C3.26216 11.1406 3.13896 11.1917 3.04812 11.2825C2.95728 11.3733 2.90625 11.4965 2.90625 11.625V15.5C2.90625 15.6285 2.95728 15.7517 3.04812 15.8425C3.13896 15.9333 3.26216 15.9844 3.39062 15.9844ZM3.875 12.1094H12.5938V15.0156H3.875V12.1094Z" fill="#018B44"/>
<path d="M10.6562 13.0781H11.625V14.0469H10.6562V13.0781Z" fill="#018B44"/>
<path d="M8.71875 13.0781H9.6875V14.0469H8.71875V13.0781Z" fill="#018B44"/>
<path d="M6.78125 13.0781H7.75V14.0469H6.78125V13.0781Z" fill="#018B44"/>
<path d="M4.84375 5.32812H7.75V6.29688H4.84375V5.32812Z" fill="#525252"/>
<path d="M4.84375 3.39062H7.75V4.35938H4.84375V3.39062Z" fill="#525252"/>
<path d="M4.84375 7.26562H7.75V8.23438H4.84375V7.26562Z" fill="#525252"/>
<rect x="3.25215" y="18.0144" width="2.35238" height="1.61429" rx="0.7" stroke="#525252" stroke-width="0.6"/>
<rect x="6.94258" y="18.0144" width="2.35238" height="1.61429" rx="0.7" stroke="#525252" stroke-width="0.6"/>
<rect x="3.25215" y="21.7048" width="2.35238" height="2.35238" rx="0.7" stroke="#525252" stroke-width="0.6"/>
<rect x="6.94258" y="21.7048" width="2.35238" height="2.35238" rx="0.7" stroke="#525252" stroke-width="0.6"/>
<rect x="3.25215" y="26.1335" width="2.35238" height="1.61429" rx="0.7" stroke="#525252" stroke-width="0.6"/>
<rect x="6.94258" y="26.1335" width="2.35238" height="1.61429" rx="0.7" stroke="#525252" stroke-width="0.6"/>
<rect x="10.633" y="18.0144" width="2.35238" height="1.61429" rx="0.7" stroke="#525252" stroke-width="0.6"/>
<rect x="10.633" y="21.7048" width="2.35238" height="6.04286" rx="0.7" stroke="#525252" stroke-width="0.6"/>
</svg>
