<svg width="129" height="43" viewBox="0 0 129 43" fill="none" xmlns="http://www.w3.org/2000/svg">
<path d="M0.5 21.5C0.5 9.90202 9.90202 0.5 21.5 0.5H107.5C119.098 0.5 128.5 9.90202 128.5 21.5C128.5 33.098 119.098 42.5 107.5 42.5H21.5C9.90202 42.5 0.5 33.098 0.5 21.5Z" fill="white" stroke="#E7E7E7"/>
<g opacity="0.2">
<path d="M123.563 30.0631C120.777 34.9581 115.975 39.7896 110.314 41.087C108.821 41.4293 107.183 41.6065 105.525 41.5786L105.318 41.3626C107.63 41.4112 109.917 41.0349 111.828 40.2721C116.281 38.495 120.263 34.8541 122.725 30.745C125.132 26.7314 126.475 21.9375 125.733 17.2418C124.73 10.8702 120.688 4.96095 114.865 2.1089C114.824 2.09156 114.694 1.92686 114.798 1.96731C119.985 3.9756 123.947 9.45143 125.432 14.6932C126.894 19.8541 126.224 25.3848 123.563 30.0631Z" fill="#404040"/>
<path d="M108.133 41.2513C108.491 41.6732 108.789 42.2425 109.254 42.5517C109.306 42.5863 109.326 42.5488 109.303 42.5025C109.176 42.2829 108.988 42.1009 108.832 41.8986C108.641 41.6559 108.442 41.416 108.216 41.208C108.144 41.1473 108.049 41.156 108.133 41.2513Z" fill="#404040"/>
<path d="M109.322 40.9343C109.634 41.4602 109.932 42.093 110.357 42.5351C110.38 42.5583 110.519 42.6507 110.504 42.5554C110.461 42.3155 110.267 42.0988 110.137 41.8994C109.938 41.5902 109.738 41.2811 109.545 40.9661C109.487 40.8736 109.201 40.732 109.322 40.9343Z" fill="#404040"/>
<path d="M110.56 40.6157C110.753 41.1734 111.12 41.968 111.661 42.2714C111.698 42.2916 111.756 42.2916 111.727 42.2339C111.62 42.0056 111.424 41.8264 111.276 41.6213C111.077 41.341 110.927 41.0347 110.811 40.711C110.782 40.6243 110.499 40.4336 110.56 40.6157Z" fill="#404040"/>
<path d="M111.716 40.0374C111.892 40.5951 112.046 41.2972 112.45 41.7365C112.47 41.7567 112.629 41.8867 112.615 41.7798C112.577 41.5457 112.421 41.3261 112.326 41.1094C112.187 40.7915 112.075 40.4592 111.965 40.1298C111.936 40.0431 111.658 39.8582 111.716 40.0374Z" fill="#404040"/>
<path d="M112.86 39.8127C112.906 40.0439 112.975 40.2635 113.053 40.486C113.151 40.7692 113.235 41.0784 113.409 41.3269C113.423 41.3471 113.556 41.4858 113.576 41.4078C113.625 41.2026 113.466 40.9397 113.391 40.7547C113.29 40.4975 113.201 40.2404 113.14 39.9716C113.117 39.8792 112.831 39.674 112.86 39.8127Z" fill="#404040"/>
<path d="M113.896 39.1576C114.084 39.7211 114.292 40.507 114.838 40.8336C114.882 40.8596 114.939 40.8538 114.91 40.7902C114.804 40.5562 114.636 40.3539 114.523 40.1198C114.396 39.8482 114.307 39.5621 114.211 39.2761C114.176 39.1662 113.821 38.9322 113.896 39.1576Z" fill="#404040"/>
<path d="M114.859 38.1946C115.186 38.9777 115.431 39.8937 116.044 40.5121C116.079 40.5468 116.214 40.6132 116.174 40.5092C116.05 40.1596 115.839 39.8446 115.683 39.5094C115.504 39.1222 115.353 38.7176 115.183 38.3218C115.137 38.2062 114.764 37.9721 114.859 38.1946Z" fill="#404040"/>
<path d="M116.104 37.8684C116.214 38.5735 116.509 39.4404 117.127 39.8565C117.194 39.8998 117.278 39.9027 117.22 39.8045C117.064 39.5329 116.861 39.2959 116.72 39.0098C116.572 38.7122 116.494 38.3857 116.44 38.0592C116.422 37.9436 116.078 37.7037 116.104 37.8684Z" fill="#404040"/>
<path d="M117.153 36.999C117.251 37.6521 117.439 38.5218 117.962 38.9755C117.991 38.9986 118.121 39.094 118.115 38.9957C118.101 38.7501 117.89 38.5045 117.789 38.2762C117.644 37.9352 117.563 37.5711 117.505 37.2013C117.491 37.077 117.13 36.8198 117.153 36.999Z" fill="#404040"/>
<path d="M117.911 35.6402C118.119 36.6284 118.471 37.7669 119.211 38.4951C119.251 38.5356 119.428 38.6194 119.37 38.4865C119.188 38.0559 118.907 37.6716 118.717 37.2381C118.523 36.796 118.393 36.3308 118.292 35.8598C118.266 35.7298 117.873 35.4581 117.911 35.6402Z" fill="#404040"/>
<path d="M118.813 34.8248C119.133 35.7755 119.555 36.9314 120.405 37.544C120.463 37.5844 120.541 37.5815 120.489 37.4948C120.229 37.0787 119.908 36.7175 119.674 36.2812C119.446 35.8564 119.284 35.3999 119.128 34.9433C119.09 34.8306 118.738 34.5994 118.813 34.8248Z" fill="#404040"/>
<path d="M120.373 34.0622C120.679 34.9637 121.095 35.9809 121.696 36.7322C121.714 36.7553 121.907 36.8853 121.876 36.7784C121.757 36.3479 121.471 35.952 121.266 35.5619C121.029 35.1111 120.824 34.6459 120.653 34.1691C120.616 34.0679 120.306 33.8628 120.373 34.0622Z" fill="#404040"/>
<path d="M121.022 32.7998C121.413 33.7852 121.806 34.9468 122.586 35.6981C122.62 35.7328 122.794 35.8137 122.736 35.6923C122.531 35.2618 122.236 34.8746 122.014 34.4498C121.756 33.9557 121.554 33.4355 121.346 32.9212C121.303 32.8085 120.933 32.5773 121.022 32.7998Z" fill="#404040"/>
<path d="M121.676 31.6955C121.965 32.7011 122.436 33.8078 123.291 34.4666C123.355 34.5129 123.453 34.5071 123.387 34.4117C122.817 33.594 122.32 32.8773 122.043 31.9064C122.008 31.7793 121.627 31.5308 121.676 31.6955Z" fill="#404040"/>
<path d="M122.702 31.398C123.251 32.3458 123.615 33.4612 124.303 34.3223C124.334 34.3599 124.499 34.461 124.453 34.3396C124.103 33.3427 123.479 32.3429 122.942 31.4356C122.878 31.3258 122.575 31.1784 122.702 31.398Z" fill="#404040"/>
<path d="M123.344 30.2993C123.829 31.2009 124.188 32.2527 124.904 32.9982C124.936 33.03 125.089 33.1022 125.037 32.9924C124.61 32.1082 124.104 31.2384 123.63 30.3773C123.581 30.282 123.24 30.1086 123.344 30.2993Z" fill="#404040"/>
<path d="M123.932 29.5316C124.227 30.3927 124.698 31.2971 125.267 32.0108C125.282 32.0311 125.458 32.1496 125.429 32.0513C125.325 31.7045 125.12 31.4069 124.935 31.1006C124.658 30.6325 124.406 30.1557 124.221 29.6414C124.184 29.5402 123.86 29.3264 123.932 29.5316Z" fill="#404040"/>
<path d="M124.227 27.8614C124.869 28.7282 125.071 29.9303 125.868 30.6816C125.897 30.7105 126.03 30.7741 125.987 30.6787C125.77 30.1673 125.42 29.6905 125.158 29.2021C124.903 28.7225 124.623 28.2803 124.302 27.844C124.262 27.7862 124.163 27.7747 124.227 27.8614Z" fill="#404040"/>
<path d="M125.208 26.1993C125.751 27.1413 126.109 28.2856 126.814 29.1178C126.829 29.1323 126.988 29.245 126.962 29.1554C126.817 28.6468 126.491 28.1874 126.254 27.7192C125.999 27.2164 125.739 26.7194 125.45 26.234C125.387 26.1242 125.077 25.9768 125.208 26.1993Z" fill="#404040"/>
<path d="M125.652 24.7085C126.051 25.7198 126.525 26.9566 127.438 27.6212C127.499 27.6646 127.583 27.6617 127.525 27.575C127.288 27.1935 126.99 26.8497 126.753 26.4682C126.435 25.9539 126.201 25.3904 125.97 24.8356C125.924 24.7258 125.563 24.4917 125.652 24.7085Z" fill="#404040"/>
<path d="M125.504 23.1283C126.056 24.1599 126.631 25.3591 127.504 26.1566C127.533 26.1855 127.683 26.2548 127.631 26.1508C127.406 25.6943 127.053 25.307 126.761 24.888C126.354 24.3015 125.952 23.7091 125.53 23.1312L125.504 23.1283Z" fill="#404040"/>
<path d="M126.079 17.9297C126.883 19.0914 127.495 20.4553 128.437 21.5129C128.466 21.5475 128.666 21.666 128.605 21.536C128.015 20.2588 127.05 18.9758 126.108 17.9297H126.079Z" fill="#404040"/>
<path d="M125.339 15.1562C126.397 16.4912 127.174 18.1353 128.495 19.2421C128.581 19.3172 128.628 19.2536 128.564 19.1669C127.541 17.8262 126.59 16.4074 125.504 15.1186C125.408 15.0059 125.192 14.9683 125.339 15.1562Z" fill="#404040"/>
<path d="M124.854 13.5205C126.004 14.8786 127.053 16.3437 128.249 17.6556C128.298 17.7105 128.477 17.7972 128.397 17.6527C127.524 16.127 126.177 14.8035 125.027 13.4801C124.923 13.3587 124.689 13.3269 124.854 13.5205Z" fill="#404040"/>
<path d="M124.068 10.8277C125.189 12.1627 126.165 13.6653 127.411 14.8876C127.46 14.9368 127.587 14.9714 127.515 14.8645C126.564 13.4284 125.385 12.0934 124.27 10.7873C124.148 10.637 123.868 10.5879 124.068 10.8277Z" fill="#404040"/>
<path d="M121.294 6.01933C121.351 6.94979 122.195 7.78778 122.77 8.45528C123.724 9.57067 124.77 10.6456 125.874 11.6107C125.952 11.6772 126.061 11.6772 125.963 11.5674C125.382 10.9057 124.735 10.2989 124.117 9.66892C123.25 8.7847 121.658 7.43524 121.461 6.13491C121.453 6.08579 121.291 5.97598 121.294 6.01933Z" fill="#404040"/>
</g>
<path fill-rule="evenodd" clip-rule="evenodd" d="M34.4064 16.165C34.4064 16.165 32.9524 13.9955 30.6786 13.9955C29.7527 13.9955 29.0654 14.289 28.4456 14.5537C27.9366 14.7711 27.4732 14.969 26.9604 14.969C26.3214 14.969 25.8283 14.7512 25.3086 14.5217C24.7295 14.2659 24.1172 13.9955 23.2331 13.9955C21.3228 13.9955 18.2754 15.6923 18.2754 19.9297C18.2754 24.009 21.2853 29.025 23.6154 29.025C24.1843 29.025 24.6055 28.8539 25.0552 28.6712C25.5706 28.4619 26.1235 28.2373 26.9792 28.2373C27.9673 28.2373 28.453 28.4632 28.9041 28.673C29.2955 28.8551 29.6609 29.025 30.3059 29.025C32.7754 29.025 34.9747 23.8791 34.9747 23.8791C34.9747 23.8791 32.1883 22.9892 32.1883 19.9297C32.1883 17.3519 34.4064 16.165 34.4064 16.165ZM30.2875 9.67505C30.6226 11.7519 28.7123 14.3206 26.4294 14.2371C26.0938 11.5944 28.5541 9.81446 30.2875 9.67505ZM48.263 16.3309L46.4755 21.1823H50.0506L48.2926 16.3309H48.263ZM47.5246 15.0781L43.4176 25.48H44.8506L46.0325 22.3478H50.494L51.6463 25.48H53.1975L49.0758 15.0781H47.5246ZM54.0688 17.948V28.3499H55.3246V24.4747H55.3541C55.492 24.6981 55.6619 24.885 55.8638 25.0356C56.0657 25.1861 56.2799 25.3051 56.5064 25.3925C56.733 25.4799 56.9619 25.5431 57.1934 25.5819C57.4248 25.6208 57.6341 25.6402 57.8213 25.6402C58.4023 25.6402 58.912 25.5382 59.3503 25.3342C59.7886 25.1303 60.153 24.8511 60.4435 24.4966C60.7341 24.1421 60.9507 23.7269 61.0935 23.2509C61.2363 22.775 61.3077 22.27 61.3077 21.7358C61.3077 21.2016 61.2339 20.6966 61.0861 20.2207C60.9384 19.7448 60.7193 19.3247 60.4287 18.9605C60.1382 18.5963 59.7738 18.3074 59.3355 18.0937C58.8972 17.88 58.3826 17.7732 57.7917 17.7732C57.2599 17.7732 56.7724 17.8679 56.3292 18.0573C55.886 18.2467 55.5609 18.5502 55.3541 18.9678H55.3246V17.948H54.0688ZM59.9782 21.6491C59.9782 22.0181 59.9388 22.3775 59.86 22.7271C59.7812 23.0768 59.6532 23.3876 59.4759 23.6595C59.2986 23.9315 59.0647 24.15 58.7742 24.3151C58.4836 24.4802 58.1217 24.5628 57.6883 24.5628C57.255 24.5628 56.8857 24.4827 56.5803 24.3224C56.275 24.1621 56.0264 23.9509 55.8343 23.6887C55.6422 23.4264 55.5019 23.1229 55.4133 22.7781C55.3246 22.4333 55.2803 22.0764 55.2803 21.7073C55.2803 21.3577 55.3222 21.0129 55.4059 20.673C55.4896 20.333 55.625 20.0295 55.8121 19.7624C55.9993 19.4954 56.2406 19.2793 56.536 19.1142C56.8315 18.949 57.191 18.8665 57.6145 18.8665C58.0183 18.8665 58.3704 18.9442 58.6708 19.0996C58.9712 19.255 59.2174 19.4638 59.4094 19.726C59.6015 19.9883 59.7443 20.2869 59.8379 20.622C59.9314 20.9571 59.9782 21.2994 59.9782 21.6491ZM62.8295 17.948V28.3499H64.0852V24.4747H64.1148C64.2526 24.6981 64.4225 24.885 64.6244 25.0356C64.8263 25.1861 65.0406 25.3051 65.2671 25.3925C65.4936 25.4799 65.7226 25.5431 65.954 25.5819C66.1855 25.6208 66.3948 25.6402 66.5819 25.6402C67.163 25.6402 67.6727 25.5382 68.1109 25.3342C68.5492 25.1303 68.9136 24.8511 69.2042 24.4966C69.4947 24.1421 69.7114 23.7269 69.8542 23.2509C69.997 22.775 70.0684 22.27 70.0684 21.7358C70.0684 21.2016 69.9945 20.6966 69.8468 20.2207C69.6991 19.7448 69.4799 19.3247 69.1894 18.9605C68.8988 18.5963 68.5344 18.3074 68.0962 18.0937C67.6579 17.88 67.1433 17.7732 66.5523 17.7732C66.0205 17.7732 65.533 17.8679 65.0898 18.0573C64.6466 18.2467 64.3216 18.5502 64.1148 18.9678H64.0852V17.948H62.8295ZM68.7388 21.6491C68.7388 22.0181 68.6994 22.3775 68.6207 22.7271C68.5419 23.0768 68.4138 23.3876 68.2366 23.6595C68.0593 23.9315 67.8254 24.15 67.5348 24.3151C67.2443 24.4802 66.8823 24.5628 66.449 24.5628C66.0156 24.5628 65.6463 24.4827 65.341 24.3224C65.0357 24.1621 64.787 23.9509 64.5949 23.6887C64.4029 23.4264 64.2625 23.1229 64.1739 22.7781C64.0853 22.4333 64.0409 22.0764 64.0409 21.7073C64.0409 21.3577 64.0828 21.0129 64.1665 20.673C64.2502 20.333 64.3857 20.0295 64.5728 19.7624C64.7599 19.4954 65.0012 19.2793 65.2967 19.1142C65.5921 18.949 65.9516 18.8665 66.3751 18.8665C66.7789 18.8665 67.131 18.9442 67.4314 19.0996C67.7318 19.255 67.978 19.4638 68.1701 19.726C68.3621 19.9883 68.5049 20.2869 68.5985 20.622C68.6921 20.9571 68.7388 21.2994 68.7388 21.6491ZM81.961 18.123H83.2906C83.2709 17.55 83.1601 17.0571 82.9582 16.6443C82.7563 16.2315 82.4805 15.8892 82.1309 15.6172C81.7812 15.3453 81.375 15.1462 80.9121 15.0199C80.4492 14.8937 79.9469 14.8305 79.4052 14.8305C78.9226 14.8305 78.4523 14.8912 77.9943 15.0126C77.5364 15.134 77.1276 15.3186 76.7682 15.5662C76.4087 15.8139 76.1206 16.1295 75.9039 16.5132C75.6872 16.8968 75.5789 17.3509 75.5789 17.8753C75.5789 18.3513 75.6749 18.747 75.867 19.0627C76.059 19.3783 76.3151 19.6357 76.6352 19.8348C76.9553 20.0339 77.3172 20.1942 77.721 20.3156C78.1248 20.437 78.536 20.5438 78.9546 20.6361C79.3732 20.7283 79.7844 20.8182 80.1882 20.9056C80.592 20.993 80.9539 21.1071 81.274 21.248C81.5941 21.3888 81.8502 21.5709 82.0422 21.7943C82.2343 22.0177 82.3303 22.309 82.3303 22.6684C82.3303 23.0472 82.2515 23.358 82.0939 23.6008C81.9363 23.8436 81.7295 24.0354 81.4734 24.1762C81.2174 24.3171 80.9293 24.4166 80.6092 24.4749C80.2891 24.5332 79.9715 24.5623 79.6563 24.5623C79.2624 24.5623 78.8783 24.5137 78.504 24.4166C78.1298 24.3195 77.8023 24.1689 77.5216 23.965C77.2409 23.761 77.0144 23.5012 76.842 23.1856C76.6697 22.8699 76.5835 22.4936 76.5835 22.0565H75.2539C75.2539 22.6878 75.3696 23.2341 75.6011 23.6955C75.8325 24.1568 76.1477 24.5356 76.5466 24.8318C76.9454 25.128 77.4083 25.349 77.9352 25.4947C78.4622 25.6404 79.0211 25.7132 79.612 25.7132C80.0946 25.7132 80.5797 25.6574 81.0672 25.5457C81.5547 25.434 81.9954 25.2543 82.3894 25.0066C82.7833 24.759 83.1059 24.4385 83.357 24.0451C83.6082 23.6518 83.7338 23.1783 83.7338 22.6247C83.7338 22.1099 83.6377 21.6826 83.4457 21.3427C83.2536 21.0027 82.9976 20.7211 82.6775 20.4977C82.3574 20.2743 81.9954 20.097 81.5916 19.9659C81.1878 19.8348 80.7766 19.7207 80.3581 19.6236C79.9395 19.5264 79.5283 19.4366 79.1245 19.3541C78.7207 19.2715 78.3587 19.1671 78.0387 19.0408C77.7186 18.9146 77.4625 18.7519 77.2705 18.5528C77.0784 18.3537 76.9824 18.0939 76.9824 17.7734C76.9824 17.4334 77.0489 17.1493 77.1818 16.9211C77.3148 16.6929 77.4921 16.5108 77.7136 16.3748C77.9352 16.2388 78.1889 16.1417 78.4745 16.0834C78.7601 16.0251 79.0506 15.996 79.3461 15.996C80.0749 15.996 80.6732 16.1635 81.141 16.4986C81.6089 16.8337 81.8822 17.3752 81.961 18.123ZM86.9692 17.9481V15.69H85.7135V17.9481H84.4134V19.0408H85.7135V23.8338C85.7135 24.1835 85.7479 24.4651 85.8169 24.6788C85.8858 24.8925 85.9917 25.0576 86.1345 25.1741C86.2773 25.2907 86.4644 25.3708 86.6959 25.4145C86.9273 25.4582 87.2056 25.4801 87.5306 25.4801H88.4909V24.3874H87.9147C87.7177 24.3874 87.5577 24.3801 87.4346 24.3656C87.3114 24.351 87.2154 24.3194 87.1465 24.2709C87.0775 24.2223 87.0308 24.1543 87.0061 24.0669C86.9815 23.9795 86.9692 23.863 86.9692 23.7173V19.0408H88.4909V17.9481H86.9692ZM90.7951 21.7219C90.7951 21.2654 90.8567 20.8599 90.9798 20.5054C91.1029 20.1509 91.2728 19.8523 91.4895 19.6095C91.7061 19.3667 91.9597 19.1821 92.2503 19.0559C92.5408 18.9296 92.8486 18.8665 93.1736 18.8665C93.4986 18.8665 93.8064 18.9296 94.0969 19.0559C94.3874 19.1821 94.641 19.3667 94.8577 19.6095C95.0744 19.8523 95.2443 20.1509 95.3674 20.5054C95.4905 20.8599 95.552 21.2654 95.552 21.7219C95.552 22.1784 95.4905 22.5839 95.3674 22.9384C95.2443 23.2929 95.0744 23.5891 94.8577 23.8271C94.641 24.065 94.3874 24.2471 94.0969 24.3734C93.8064 24.4996 93.4986 24.5628 93.1736 24.5628C92.8486 24.5628 92.5408 24.4996 92.2503 24.3734C91.9597 24.2471 91.7061 24.065 91.4895 23.8271C91.2728 23.5891 91.1029 23.2929 90.9798 22.9384C90.8567 22.5839 90.7951 22.1784 90.7951 21.7219ZM89.4659 21.7213C89.4659 22.2749 89.5447 22.7896 89.7023 23.2655C89.8598 23.7414 90.0962 24.1566 90.4114 24.5111C90.7265 24.8656 91.1156 25.1424 91.5785 25.3415C92.0414 25.5406 92.5732 25.6402 93.174 25.6402C93.7846 25.6402 94.3189 25.5406 94.7769 25.3415C95.2348 25.1424 95.6214 24.8656 95.9366 24.5111C96.2517 24.1566 96.4881 23.7414 96.6457 23.2655C96.8033 22.7896 96.8821 22.2749 96.8821 21.7213C96.8821 21.1676 96.8033 20.6505 96.6457 20.1697C96.4881 19.6889 96.2517 19.2713 95.9366 18.9168C95.6214 18.5623 95.2348 18.2831 94.7769 18.0791C94.3189 17.8752 93.7846 17.7732 93.174 17.7732C92.5732 17.7732 92.0414 17.8752 91.5785 18.0791C91.1156 18.2831 90.7265 18.5623 90.4114 18.9168C90.0962 19.2713 89.8598 19.6889 89.7023 20.1697C89.5447 20.6505 89.4659 21.1676 89.4659 21.7213ZM98.3151 17.9482V25.4801H99.5709V22.1293C99.5709 21.6437 99.6201 21.2139 99.7186 20.84C99.8171 20.4661 99.9747 20.148 100.191 19.8858C100.408 19.6235 100.694 19.4244 101.048 19.2885C101.403 19.1525 101.831 19.0845 102.333 19.0845V17.7733C101.654 17.7539 101.093 17.8899 100.649 18.1813C100.206 18.4726 99.8319 18.9242 99.5266 19.5361H99.497V17.9482H98.3151ZM108.317 20.9935H103.929C103.949 20.7021 104.013 20.4277 104.121 20.1704C104.229 19.913 104.377 19.6872 104.564 19.4929C104.751 19.2987 104.975 19.1457 105.236 19.034C105.497 18.9223 105.79 18.8665 106.115 18.8665C106.431 18.8665 106.719 18.9223 106.98 19.034C107.241 19.1457 107.467 19.2963 107.659 19.4856C107.851 19.675 108.004 19.9008 108.117 20.1631C108.23 20.4253 108.297 20.7021 108.317 20.9935ZM109.527 23.0907H108.287C108.178 23.586 107.954 23.9551 107.614 24.1979C107.275 24.4407 106.839 24.5621 106.307 24.5621C105.893 24.5621 105.534 24.4941 105.228 24.3582C104.923 24.2222 104.672 24.0401 104.475 23.8118C104.278 23.5836 104.135 23.3214 104.047 23.0251C103.958 22.7289 103.919 22.4157 103.928 22.0855H109.646C109.665 21.629 109.624 21.1482 109.52 20.6432C109.417 20.1381 109.23 19.672 108.959 19.2446C108.688 18.8173 108.328 18.4652 107.88 18.1884C107.432 17.9116 106.868 17.7732 106.189 17.7732C105.667 17.7732 105.187 17.8703 104.748 18.0646C104.31 18.2588 103.931 18.5307 103.611 18.8804C103.291 19.23 103.042 19.6428 102.865 20.1187C102.687 20.5946 102.599 21.1191 102.599 21.6921C102.619 22.2651 102.705 22.7945 102.857 23.2801C103.01 23.7657 103.239 24.1833 103.544 24.533C103.85 24.8826 104.226 25.1546 104.674 25.3488C105.123 25.5431 105.652 25.6402 106.263 25.6402C107.129 25.6402 107.848 25.4265 108.419 24.9992C108.991 24.5718 109.36 23.9357 109.527 23.0907Z" fill="#A6A6A6"/>
</svg>
