<svg width="60" height="60" viewBox="0 0 60 60" fill="none" xmlns="http://www.w3.org/2000/svg">
<path d="M1.39071 37.6041C1.87896 39.9637 2.70813 41.6467 5.3093 42.084C8.60917 42.6409 12.17 42.0758 15.5077 42.3233C16.64 42.4058 20.386 42.975 20.7353 41.2755C20.8027 40.9413 20.6511 40.4999 20.4744 40.2277C20.1124 39.679 19.6915 39.1716 19.3211 38.6271C18.0331 36.7419 18.0079 34.5267 18.2604 32.3651C18.2688 32.295 18.1973 32.1135 18.172 32.2661C17.8606 34.1802 17.8437 35.9416 18.5382 37.7732C18.8792 38.6725 19.5147 39.4233 20.1166 40.1617C21.8297 42.2614 17.8774 42.1995 16.9514 42.1789C14.2408 42.1211 11.526 41.9561 8.81541 41.8819C7.44327 41.8447 6.08797 41.919 4.72846 41.688C2.56924 41.3209 1.87054 39.3325 1.46227 37.4927C1.4328 37.3648 1.37809 37.5463 1.39071 37.6041Z" fill="#474747"/>
<path d="M18.8119 32.6538C20.2514 35.789 22.9326 37.2782 26.245 38.0537C31.0181 39.1716 36.1446 39.4026 41.0187 38.9984C48.477 38.3796 57.6443 34.8691 58.7302 26.594C58.7428 26.4991 58.6544 26.165 58.6123 26.4042C57.1602 34.7123 48.6033 37.8598 41.006 38.656C36.8518 39.0932 32.6385 38.7756 28.5221 38.1733C24.5025 37.5876 20.6723 36.3665 18.8582 32.5012C18.8203 32.4105 18.7909 32.6085 18.8119 32.6538Z" fill="#474747"/>
<path d="M3.06587 40.7268C2.97327 41.1765 2.72073 41.6014 2.70389 42.0675C2.70389 42.0799 2.71231 42.2284 2.7544 42.1954C2.88909 42.0881 2.93118 41.8406 2.97748 41.688C3.06166 41.424 3.129 41.16 3.16688 40.8836C3.17951 40.8011 3.10796 40.5288 3.06587 40.7268Z" fill="#474747"/>
<path d="M3.49125 41.127C3.35656 41.6343 3.08297 42.1252 3.01563 42.645C3.01142 42.6698 3.00721 42.8678 3.07455 42.8306C3.24291 42.744 3.30184 42.4635 3.36497 42.3026C3.46599 42.0304 3.55438 41.7498 3.62593 41.4693C3.6554 41.358 3.65961 41.2342 3.61752 41.127C3.58384 41.0403 3.5165 41.0321 3.49125 41.127Z" fill="#474747"/>
<path d="M4.05489 41.8076C3.85707 42.315 3.55823 42.8018 3.51614 43.3545C3.51614 43.3752 3.53297 43.536 3.57506 43.47C3.69712 43.2927 3.76868 43.0782 3.85707 42.8801C3.9665 42.6285 4.08435 42.3851 4.18116 42.1294C4.22325 42.0345 4.14328 41.589 4.05489 41.8076Z" fill="#474747"/>
<path d="M4.699 42.0138C4.36649 42.612 4.11395 43.272 3.95401 43.932C3.94559 43.9609 3.96664 44.1878 4.02135 44.1053C4.36649 43.5979 4.50118 42.9585 4.79581 42.4181C4.85053 42.315 4.77056 41.8777 4.699 42.0138Z" fill="#474747"/>
<path d="M5.4944 41.9272C5.17031 42.6821 4.77466 43.437 4.57684 44.2332C4.56842 44.2662 4.58526 44.5055 4.6526 44.4188C5.11138 43.8083 5.33867 42.9503 5.62909 42.2572C5.66697 42.1582 5.59121 41.7045 5.4944 41.9272Z" fill="#474747"/>
<path d="M6.18907 42.1211C5.86498 42.9173 5.4062 43.6969 5.19995 44.5343C5.19154 44.5715 5.221 44.8437 5.28414 44.7447C5.73029 44.0599 6.0165 43.1895 6.31534 42.4387C6.34901 42.3397 6.27325 41.9066 6.18907 42.1211Z" fill="#474747"/>
<path d="M7.02645 42.117C6.56766 43.1153 5.97419 44.0929 5.70903 45.1613C5.70061 45.1902 5.73007 45.4047 5.77216 45.3263C6.28566 44.4106 6.6771 43.3958 7.10221 42.4346C7.14009 42.3562 7.07274 42.0138 7.02645 42.117Z" fill="#474747"/>
<path d="M7.95268 42.0262C7.54861 43.0823 6.80783 44.0475 6.58475 45.1613C6.58054 45.1902 6.61 45.4212 6.6563 45.3387C7.15297 44.3528 7.67068 43.3215 8.05791 42.2902C8.08316 42.2077 8.02002 41.8488 7.95268 42.0262Z" fill="#474747"/>
<path d="M8.78173 42.249C8.08725 43.7464 7.15705 45.1944 6.97186 46.8609C6.96765 46.8857 7.00132 47.0218 7.02658 46.9434C7.47273 45.4089 8.2051 44.0104 8.85749 42.5543C8.89117 42.4759 8.82803 42.1459 8.78173 42.249Z" fill="#474747"/>
<path d="M9.62348 41.8983C9.13944 44.1919 7.72942 46.1184 6.95496 48.313C6.93813 48.3625 6.97601 48.6512 7.03073 48.5522C7.08965 48.4491 7.14437 48.3501 7.2033 48.247L7.17383 48.0943C7.68312 47.6282 8.3271 45.9039 8.73117 45.0046C9.17732 44.0104 9.493 43.0039 9.6361 41.9272L9.62348 41.8983Z" fill="#474747"/>
<path d="M10.7472 41.7044C10.3263 43.4411 9.02992 44.8272 8.65111 46.5721C8.6469 46.601 8.68058 46.8196 8.71846 46.7413C9.46766 45.1201 10.4357 43.5071 10.7725 41.7416C10.7767 41.7251 10.7598 41.6549 10.7472 41.7044Z" fill="#474747"/>
<path d="M11.6859 42.0716C11.3745 43.7052 10.1202 44.9427 9.60248 46.4979C9.59406 46.5268 9.60669 46.7413 9.65719 46.6712C10.5706 45.314 11.4923 43.7464 11.7154 42.117C11.7154 42.0922 11.6944 42.018 11.6859 42.0716Z" fill="#474747"/>
<path d="M12.7507 41.9726C12.0983 43.3174 11.0755 44.5426 10.7893 46.0318C10.7851 46.0524 10.8062 46.2298 10.8398 46.1638C11.568 44.8726 12.2372 43.4536 12.7802 42.0757C12.7886 42.0551 12.7676 41.9355 12.7507 41.9726Z" fill="#474747"/>
<path d="M13.441 42.2366C13.1717 42.8389 12.8939 43.404 12.5529 43.9733C12.2373 44.5013 11.9258 45.0087 11.7953 45.611C11.7911 45.6316 11.7995 45.776 11.8416 45.7265C12.2415 45.2109 12.5445 44.5673 12.8602 43.9981C13.159 43.4618 13.4074 42.9049 13.4705 42.2902L13.441 42.2366Z" fill="#474747"/>
<path d="M14.5395 41.9891C14.0765 43.173 13.2642 44.2249 12.9191 45.4542C12.9106 45.4831 12.9191 45.7017 12.9738 45.6316C13.7019 44.6416 14.1733 43.3421 14.6195 42.2036C14.6448 42.1376 14.5942 41.8447 14.5395 41.9891Z" fill="#474747"/>
<path d="M15.2844 42.2655C14.8256 43.3257 14.2321 44.3322 13.7986 45.3965C13.7902 45.4171 13.7902 45.611 13.8407 45.5739C14.2532 45.248 14.4763 44.687 14.6993 44.2291C14.9561 43.7052 15.1707 43.1648 15.3938 42.6244C15.4275 42.5377 15.3391 42.1376 15.2844 42.2655Z" fill="#474747"/>
<path d="M16.097 42.3067C15.634 43.3752 14.9774 44.3941 14.6786 45.5244C14.6702 45.5491 14.6786 45.743 14.7249 45.677C15.352 44.819 15.7813 43.7093 16.1938 42.7399C16.2443 42.6285 16.1559 42.1706 16.097 42.3067Z" fill="#474747"/>
<path d="M16.9683 42.4965C16.5768 43.4783 15.9286 44.3899 15.6172 45.3924C15.6087 45.413 15.613 45.611 15.6593 45.5697C16.0423 45.2232 16.2485 44.6292 16.4716 44.1754C16.6947 43.7217 16.8967 43.2597 17.0777 42.7935C17.1114 42.711 17.0482 42.3026 16.9683 42.4965Z" fill="#474747"/>
<path d="M18.336 41.9767C17.932 43.0534 17.2922 44.0145 16.8671 45.0747C16.8545 45.1036 16.8755 45.3305 16.9176 45.2851C17.6416 44.4683 18.1003 43.3421 18.4707 42.3356C18.5044 42.2325 18.4244 41.7374 18.336 41.9767Z" fill="#474747"/>
<path d="M18.9845 42.5212C18.6015 43.2101 18.2101 43.9114 17.9281 44.6457C17.9155 44.6746 17.9365 44.8973 17.9744 44.8519C18.4542 44.2868 18.7152 43.5401 19.0687 42.8925C19.1192 42.8059 19.0519 42.4016 18.9845 42.5212Z" fill="#474747"/>
<path d="M20.8069 40.8918C20.1292 42.5047 19.0475 44.0187 18.6056 45.7182C18.5929 45.7636 18.6182 46.1019 18.6855 45.9905C19.5779 44.5261 20.3018 42.7894 20.8911 41.1805C20.9163 41.1145 20.849 40.7887 20.8069 40.8918Z" fill="#474747"/>
<path d="M21.476 38.8664C21.3203 39.6914 20.9247 40.4215 20.6216 41.1971C20.609 41.2301 20.6342 41.4776 20.6721 41.4322C21.1982 40.7846 21.4592 39.8647 21.5897 39.0602C21.6065 38.9612 21.5223 38.6147 21.476 38.8664Z" fill="#474747"/>
<path d="M18.6646 33.8873C18.6183 34.6587 18.0963 35.2981 17.928 36.0365C17.9196 36.0695 17.928 36.3541 17.9911 36.2634C18.4162 35.6446 18.7487 34.7164 18.7656 33.9698C18.7656 33.8502 18.6772 33.6645 18.6646 33.8873Z" fill="#474747"/>
<path d="M19.0305 35.1124C18.8326 35.8055 18.5043 36.4655 18.357 37.1709C18.3486 37.2039 18.3696 37.4597 18.4286 37.3689C18.799 36.8285 18.9715 36.0653 19.1483 35.4424C19.1778 35.3476 19.0936 34.8897 19.0305 35.1124Z" fill="#474747"/>
<path d="M19.4264 35.9581C19.1486 36.5645 18.8203 37.1957 18.673 37.8474C18.6688 37.8681 18.6941 38.1073 18.7319 38.0578C18.8792 37.8722 18.955 37.637 19.0434 37.4225C19.1949 37.0513 19.3464 36.6841 19.5106 36.3211C19.5443 36.2304 19.4769 35.8467 19.4264 35.9581Z" fill="#474747"/>
<path d="M20.0998 37.1544C19.902 37.6576 19.6116 38.1238 19.4853 38.6477C19.4769 38.6765 19.4979 38.9117 19.5526 38.8333C19.8346 38.4249 20.0282 37.9134 20.2092 37.4555C20.2429 37.3689 20.1798 36.9564 20.0998 37.1544Z" fill="#474747"/>
<path d="M20.3606 37.5999C20.0912 38.1692 19.6914 38.7715 19.6661 39.415C19.6661 39.4439 19.683 39.6749 19.7461 39.5882C19.8892 39.3944 19.9439 39.1097 20.0365 38.8911C20.167 38.59 20.3143 38.2971 20.449 37.9959C20.4911 37.9011 20.4911 37.7814 20.4701 37.6783C20.4616 37.6412 20.4069 37.5009 20.3606 37.5999Z" fill="#474747"/>
<path d="M20.988 37.9547C20.6681 38.6395 20.3104 39.3655 20.1715 40.1121C20.1673 40.1328 20.1925 40.4009 20.2388 40.3432C20.3988 40.141 20.4703 39.8935 20.5587 39.6542C20.7186 39.2211 20.8912 38.7962 21.0806 38.3713C21.1227 38.2723 21.0469 37.8309 20.988 37.9547Z" fill="#474747"/>
<path d="M22.4274 39.1427C21.7918 41.2919 20.6427 43.2514 20.003 45.3965C19.9946 45.4254 20.0156 45.6316 20.0535 45.5615C21.0847 43.6433 21.9433 41.4899 22.52 39.3944C22.5368 39.3242 22.4779 38.9736 22.4274 39.1427Z" fill="#474747"/>
<path d="M23.1093 39.613C22.8778 41.5188 21.7834 43.0823 21.0553 44.819C21.0385 44.8602 21.0595 45.1366 21.1226 45.0458C22.217 43.5897 23.0462 41.5518 23.2187 39.7491C23.2271 39.6543 23.1345 39.4026 23.1093 39.613Z" fill="#474747"/>
<path d="M24.0561 40.1081C23.2269 41.7004 22.2167 43.2762 21.8043 45.0376C21.7958 45.0665 21.8295 45.2934 21.8716 45.215C22.6503 43.664 23.3574 42.0716 24.1445 40.5206C24.1992 40.4174 24.1192 39.9802 24.0561 40.1081Z" fill="#474747"/>
<path d="M24.4937 40.5948C23.774 42.1087 22.8564 43.668 22.6207 45.3429C22.6165 45.38 22.6418 45.6192 22.6965 45.4955C23.3278 43.9981 23.8961 42.4882 24.5863 41.0114C24.6326 40.9124 24.5527 40.471 24.4937 40.5948Z" fill="#474747"/>
<path d="M25.4326 40.3597C24.7844 41.9355 23.8163 43.4783 23.4964 45.1614C23.4922 45.1861 23.5175 45.4171 23.5638 45.3388C24.3635 43.9156 24.9401 42.2449 25.5378 40.7268C25.5715 40.6361 25.4873 40.2359 25.4326 40.3597Z" fill="#474747"/>
<path d="M26.1859 40.9743C25.6513 42.1624 24.8053 43.4288 24.738 44.7571C24.738 44.7777 24.7674 45.0211 24.8179 44.9262C25.1041 44.3858 25.222 43.7299 25.4661 43.1648C25.7229 42.5625 26.0175 41.9767 26.2742 41.3744C26.3163 41.2754 26.2406 40.8464 26.1859 40.9743Z" fill="#474747"/>
<path d="M26.7288 41.7251C26.3878 42.6656 25.6934 43.6433 25.7523 44.6746C25.7523 44.6911 25.7775 44.8479 25.8196 44.7819C26.0427 44.4147 26.11 43.9073 26.2784 43.5072C26.4762 43.0369 26.6951 42.579 26.8635 42.1005C26.8971 41.9891 26.8172 41.4776 26.7288 41.7251Z" fill="#474747"/>
<path d="M27.937 41.5766C27.7307 41.985 27.5455 42.4016 27.3645 42.8224C27.2046 43.1895 27.0152 43.536 26.9394 43.9321C26.9352 43.9486 26.931 44.159 26.9857 44.1383C27.2635 44.0311 27.3603 43.536 27.4655 43.2844C27.6465 42.8554 27.8233 42.4223 28.0296 42.0015C28.0801 41.8984 28.0043 41.4487 27.937 41.5766Z" fill="#474747"/>
<path d="M28.7954 41.721C28.5849 42.4717 28.1388 43.1111 27.8905 43.8454C27.882 43.8702 27.8778 44.1053 27.9368 44.0641C28.223 43.8619 28.3661 43.5195 28.5134 43.2184C28.686 42.8595 28.8249 42.4841 28.9259 42.1005C28.9553 41.9932 28.8669 41.4693 28.7954 41.721Z" fill="#474747"/>
<path d="M19.9565 34.6216C19.7545 35.0341 19.5104 35.4631 19.443 35.9169C19.443 35.9292 19.4515 36.0654 19.4809 36.0159C19.5777 35.8509 19.624 35.657 19.6872 35.4755C19.7756 35.2156 19.8808 34.9557 19.9818 34.6999L19.9565 34.6216Z" fill="#474747"/>
<path d="M20.4576 34.7618C20.3145 35.2527 20.0157 35.591 19.7673 36.0241L19.7884 36.1355C20.1714 35.855 20.3692 35.2486 20.4787 34.8113L20.4576 34.7618Z" fill="#474747"/>
<path d="M21.1394 35.1702C20.9332 35.69 20.4786 36.0819 20.3144 36.614C20.306 36.6388 20.2934 36.8203 20.3565 36.7914C20.5796 36.6841 20.6975 36.3459 20.8027 36.1437C20.95 35.8591 21.0552 35.558 21.1773 35.261C21.1857 35.2403 21.1647 35.1083 21.1394 35.1702Z" fill="#474747"/>
<path d="M21.4883 35.7353C21.4757 35.6899 21.2695 36.0035 21.2652 36.0076C21.1348 36.2303 21.0169 36.4572 20.8991 36.6841C20.7181 37.043 20.4529 37.4761 20.4992 37.8928L20.5413 37.9794L20.5539 37.9835L20.5708 37.9753C20.7223 37.8103 20.7896 37.5628 20.878 37.3606C21.0169 37.0347 21.16 36.713 21.3031 36.3871C21.3578 36.2551 21.5809 35.8591 21.4967 35.6982L21.4883 35.7353Z" fill="#474747"/>
<path d="M21.9306 35.9663C21.5349 36.8244 21.0846 37.6741 20.8026 38.5734C20.7942 38.6023 20.8068 38.8127 20.8531 38.7467C21.354 38.0124 21.6528 37.1173 22.0106 36.3087C22.0442 36.2262 21.9811 35.8591 21.9306 35.9663Z" fill="#474747"/>
<path d="M22.684 36.449C22.221 37.3442 21.7033 38.2517 21.5055 39.2417C21.5013 39.2665 21.5223 39.4892 21.5686 39.4109C22.0274 38.5941 22.3557 37.6948 22.7766 36.8533C22.8229 36.7543 22.7472 36.3211 22.684 36.449Z" fill="#474747"/>
<path d="M23.4377 36.9811C23.143 37.7154 22.7432 38.4373 22.5496 39.2046C22.5411 39.2376 22.558 39.5099 22.6127 39.4191C23.0168 38.7673 23.2693 37.9629 23.5387 37.2493C23.5639 37.175 23.5092 36.8037 23.4377 36.9811Z" fill="#474747"/>
<path d="M24.3931 37.3276C24.0816 38.066 23.6102 38.7591 23.3535 39.514C23.3408 39.547 23.3451 39.8399 23.4124 39.7821C23.6734 39.5594 23.8165 39.1881 23.9638 38.887C24.1532 38.5116 24.3258 38.1279 24.4815 37.736C24.5236 37.6412 24.4436 37.2039 24.3931 37.3276Z" fill="#474747"/>
<path d="M24.9062 37.4308C24.6831 38.1651 24.1991 38.788 23.9676 39.514C23.955 39.547 23.9718 39.844 24.0265 39.7863C24.2622 39.5388 24.3969 39.2005 24.5484 38.8994C24.7378 38.524 24.8978 38.1362 25.0114 37.732C25.0367 37.6495 24.9693 37.2246 24.9062 37.4308Z" fill="#474747"/>
<path d="M25.6262 37.7938C25.3148 38.3879 24.9107 38.9406 24.6834 39.5759C24.6708 39.6089 24.6961 39.8647 24.7381 39.8152C25.1296 39.3366 25.4326 38.755 25.7188 38.2064C25.7694 38.1115 25.7609 37.9795 25.7399 37.8763C25.7273 37.8351 25.6768 37.699 25.6262 37.7938Z" fill="#474747"/>
<path d="M26.2702 37.8639C25.8451 38.7426 25.3232 39.5511 25.0286 40.4875C25.0202 40.5164 25.037 40.7103 25.0749 40.6443C25.58 39.8234 25.8914 38.9034 26.3081 38.0413C26.3292 38 26.2955 37.8103 26.2702 37.8639Z" fill="#474747"/>
<path d="M26.9141 38.0496C26.4679 38.8829 25.9039 39.6914 25.7271 40.6361C25.7229 40.6608 25.744 40.8877 25.7903 40.8093C26.249 40.0585 26.6026 39.2005 26.994 38.4167C27.0361 38.326 26.973 37.9341 26.9141 38.0496Z" fill="#474747"/>
<path d="M27.5115 38.2187C27.0443 39.0726 26.434 40.0007 26.3078 40.9743C26.3078 40.9867 26.3204 41.1558 26.3498 41.1187C26.615 40.7887 26.7413 40.3308 26.9181 39.9512C27.1664 39.4191 27.3979 38.8952 27.5452 38.3259C27.5452 38.3094 27.5326 38.1733 27.5115 38.2187Z" fill="#474747"/>
<path d="M28.2737 38.4374C27.9706 39.2583 27.4319 39.9513 27.213 40.8176C27.2088 40.8423 27.2256 41.028 27.2551 40.9661C27.6718 40.1576 27.9959 39.3449 28.2905 38.491L28.2737 38.4374Z" fill="#474747"/>
<path d="M28.8922 38.425C29.0185 39.448 28.0504 40.4875 27.7305 41.4157C27.7221 41.4363 27.7263 41.6302 27.7726 41.5931C28.223 41.2012 28.4839 40.5082 28.686 39.9719C28.8754 39.4645 29.0269 38.9489 28.9048 38.4085L28.8922 38.425Z" fill="#474747"/>
<path d="M29.8394 38.4579C29.3175 39.3737 28.7282 40.3514 28.4799 41.3827C28.4715 41.4116 28.4925 41.6385 28.5472 41.5601C29.1407 40.702 29.5826 39.5594 29.8689 38.5611C29.8731 38.5404 29.8604 38.4167 29.8394 38.4579Z" fill="#474747"/>
<path d="M30.3991 38.8787C29.9613 39.7863 29.3931 40.6567 29.1574 41.6426C29.149 41.6715 29.1532 41.8942 29.2079 41.8241C29.4941 41.4446 29.6415 40.9496 29.8267 40.5164C30.0329 40.0379 30.2181 39.547 30.4412 39.0809C30.4664 39.0272 30.4285 38.8169 30.3991 38.8787Z" fill="#474747"/>
<path d="M31.2241 38.755C30.6853 39.58 30.1887 40.5494 30.054 41.5312C30.0498 41.5518 30.0582 41.7375 30.1045 41.6715C30.3276 41.3827 30.4328 40.9784 30.5675 40.6484C30.7737 40.1451 31.0262 39.6625 31.3167 39.2005C31.3882 39.0974 31.3167 38.6188 31.2241 38.755Z" fill="#474747"/>
<path d="M32.0324 38.8003C31.5568 39.7285 30.9928 40.6732 30.8076 41.7086C30.8034 41.7333 30.8244 41.9561 30.8707 41.8777C31.3463 41.0403 31.6915 40.1122 32.1292 39.25C32.1881 39.1386 32.104 38.6642 32.0324 38.8003Z" fill="#474747"/>
<path d="M32.8445 38.9117C32.4363 39.7945 31.9438 40.6691 31.6239 41.589C31.6155 41.6137 31.6239 41.8447 31.6702 41.7994C32.2974 41.1806 32.5836 40.1122 32.9329 39.3243C32.9792 39.2252 32.9035 38.788 32.8445 38.9117Z" fill="#474747"/>
<path d="M33.7453 38.9488C33.3454 39.7326 32.9077 40.5164 32.672 41.3662C32.6635 41.3951 32.6762 41.6054 32.7183 41.5394C33.1728 40.8753 33.4759 40.0915 33.8379 39.3779C33.8926 39.2747 33.8126 38.8168 33.7453 38.9488Z" fill="#474747"/>
<path d="M34.4988 38.9736C34.0442 39.8151 33.5307 40.6608 33.3708 41.6137C33.3666 41.6385 33.3876 41.8653 33.4339 41.787C33.8464 41.0238 34.1873 40.2153 34.5998 39.448C34.663 39.3325 34.5788 38.8292 34.4988 38.9736Z" fill="#474747"/>
<path d="M35.4962 38.7344C35.0543 39.6336 34.5029 40.5412 34.2209 41.5023C34.2125 41.5353 34.2293 41.8612 34.284 41.7994C34.5492 41.5023 34.6965 41.1063 34.8691 40.7516C35.1132 40.24 35.3573 39.7285 35.5973 39.217C35.6562 39.1015 35.5678 38.59 35.4962 38.7344Z" fill="#474747"/>
<path d="M36.2665 39.1015C35.7867 39.9389 35.2311 40.8217 34.9912 41.7622C34.9828 41.7911 34.9996 42.051 35.0417 42.0015C35.3068 41.6756 35.45 41.2466 35.6351 40.8712C35.8666 40.4092 36.1023 39.9554 36.3507 39.5057C36.4012 39.4109 36.3338 38.9818 36.2665 39.1015Z" fill="#474747"/>
<path d="M37.1592 38.8746C36.8056 39.6873 36.2711 40.4587 36.0227 41.3126C36.0101 41.3497 36.0312 41.6921 36.0901 41.6261C36.351 41.3415 36.4984 40.9454 36.6709 40.6031C36.8814 40.1947 37.0792 39.7821 37.2602 39.3573C37.3107 39.2417 37.2181 38.7385 37.1592 38.8746Z" fill="#474747"/>
<path d="M37.8366 39.2995C37.4326 40.1122 36.8265 40.9249 36.696 41.8365C36.6918 41.8654 36.7086 42.1253 36.7633 42.0345C36.9864 41.6839 37.1085 41.2508 37.2937 40.8795C37.4957 40.4752 37.7188 40.0875 37.9166 39.6791C37.9587 39.5883 37.8913 39.184 37.8366 39.2995Z" fill="#474747"/>
<path d="M38.7668 39.1304C38.5016 39.8976 38.0344 40.5865 37.7819 41.358C37.7692 41.3951 37.7819 41.7333 37.8492 41.6715C38.1102 41.424 38.2449 41.0444 38.3964 40.7268C38.59 40.3225 38.7499 39.8976 38.8846 39.4727C38.9141 39.382 38.8425 38.9035 38.7668 39.1304Z" fill="#474747"/>
<path d="M39.7095 38.7385C39.4907 39.5883 38.973 40.3102 38.7415 41.1558C38.7331 41.1888 38.7583 41.4405 38.792 41.3951C39.2844 40.7351 39.6422 39.9141 39.8358 39.1221C39.8611 39.019 39.7769 38.4868 39.7095 38.7385Z" fill="#474747"/>
<path d="M40.7744 38.6147C40.3535 39.3325 39.962 40.0503 39.6968 40.8382C39.6842 40.8753 39.7053 41.1187 39.7474 41.0444C40.1514 40.4009 40.4839 39.7161 40.8627 39.0602C40.9217 38.9612 40.8501 38.491 40.7744 38.6147Z" fill="#474747"/>
<path d="M41.574 38.722C41.271 39.3201 40.9132 39.9224 40.728 40.5701C40.7154 40.6072 40.7407 40.9289 40.787 40.8753C40.9764 40.6608 41.09 40.3803 41.2163 40.1245C41.3678 39.8234 41.5193 39.5264 41.6708 39.2294C41.7298 39.1139 41.7172 38.9447 41.6919 38.8251C41.6877 38.7797 41.633 38.6065 41.574 38.722Z" fill="#474747"/>
<path d="M42.2815 38.5652C42.0248 39.3737 41.6123 40.1369 41.3976 40.9537C41.3892 40.9867 41.406 41.2754 41.4523 41.2259C41.7091 40.9289 41.8311 40.5205 41.97 40.1616C42.13 39.7533 42.2689 39.3366 42.3952 38.92C42.4246 38.8292 42.3573 38.3342 42.2815 38.5652Z" fill="#474747"/>
<path d="M43.144 38.4745C42.782 39.4686 42.2054 40.4298 42.0117 41.4735C42.0075 41.5023 42.0244 41.7333 42.0791 41.655C42.319 41.2961 42.4453 40.8588 42.601 40.4587C42.8283 39.8894 43.0472 39.3201 43.2408 38.7385C43.266 38.6642 43.2113 38.2971 43.144 38.4745Z" fill="#474747"/>
<path d="M44.0406 38.2145C43.7123 39.316 43.1356 40.3143 42.7779 41.3992C42.7695 41.428 42.7905 41.6549 42.8242 41.6096C43.4808 40.7515 43.8554 39.5511 44.1458 38.5239C44.1711 38.4456 44.1037 38.0124 44.0406 38.2145Z" fill="#474747"/>
<path d="M44.7644 38.5859C44.3645 39.5883 43.8258 40.5494 43.5438 41.5972C43.5354 41.6261 43.5522 41.8489 43.5943 41.7787C44.1204 40.9042 44.495 39.9059 44.8654 38.9613C44.9033 38.8705 44.8107 38.4621 44.7644 38.5859Z" fill="#474747"/>
<path d="M45.5811 38.6725C45.2275 39.4562 44.8487 40.2565 44.6761 41.0981C44.6719 41.1269 44.7056 41.3703 44.7435 41.2878C45.0844 40.5453 45.3285 39.7574 45.6568 39.0107C45.6863 38.9241 45.6232 38.5734 45.5811 38.6725Z" fill="#474747"/>
<path d="M46.6124 37.7195C46.0484 38.9571 45.6022 40.2689 45.2487 41.5766C45.2402 41.6137 45.2655 41.886 45.3118 41.7993C45.9053 40.6525 46.1746 39.3614 46.7092 38.1898C46.7597 38.0743 46.6713 37.5834 46.6124 37.7195Z" fill="#474747"/>
<path d="M47.3236 37.7732C46.8269 39.2995 46.0188 40.7474 45.6736 42.315C45.6694 42.3439 45.6989 42.5501 45.7326 42.4759C46.3892 41.0568 46.9448 39.5305 47.4162 38.0413C47.4414 37.9671 47.3825 37.5958 47.3236 37.7732Z" fill="#474747"/>
<path d="M48.2751 37.2122C47.8079 39.0685 46.52 40.7144 46.4695 42.6656C46.4695 42.7316 46.52 42.942 46.5578 42.7729C46.9661 40.9372 47.9468 39.316 48.3677 37.4885C48.3845 37.4143 48.3214 37.0265 48.2751 37.2122Z" fill="#474747"/>
<path d="M49.1843 37.2493C48.3846 39.1592 47.3407 41.1146 47.0966 43.1937C47.0924 43.2308 47.1261 43.4824 47.1724 43.3545C47.8164 41.4157 48.4982 39.5305 49.2685 37.637C49.3021 37.538 49.2306 37.1379 49.1843 37.2493Z" fill="#474747"/>
<path d="M50.1649 36.5728C49.403 38.9241 48.0688 41.2713 47.9425 43.7794C47.9425 43.8166 47.9888 44.0682 48.0267 43.9238C48.6622 41.5353 49.5335 39.2706 50.2785 36.9152C50.308 36.8244 50.2364 36.3459 50.1649 36.5728Z" fill="#474747"/>
<path d="M51.3096 35.8962C50.6109 38.6064 49.2009 41.1063 48.6916 43.8619C48.6789 43.9197 48.7379 44.2662 48.7926 44.0888C49.6302 41.4528 50.7666 38.887 51.4064 36.1973C51.4274 36.119 51.3601 35.6982 51.3096 35.8962Z" fill="#474747"/>
<path d="M52.3113 35.4961C51.9956 37.2411 51.1748 38.8086 50.4804 40.4257C50.0005 41.5395 49.8027 42.7523 49.4071 43.8991C49.3818 43.9692 49.4407 44.3611 49.4997 44.2374C50.1731 42.8183 50.4214 41.2342 51.0486 39.7822C51.6294 38.4332 52.1724 37.1214 52.3997 35.6652C52.4165 35.5869 52.3492 35.2775 52.3113 35.4961Z" fill="#474747"/>
<path d="M51.4275 40.7021C50.8509 42.1954 50.1859 43.7258 49.8491 45.2892C49.8449 45.3181 49.866 45.545 49.9123 45.4666C50.6909 44.1259 50.9603 42.4057 51.4949 40.9537C51.5159 40.8918 51.457 40.6195 51.4275 40.7021Z" fill="#474747"/>
<path d="M53.2203 35.1908C52.6605 36.8698 51.6503 38.4332 51.2673 40.1575C51.2589 40.1905 51.2968 40.4628 51.3431 40.3679C52.1007 38.7962 52.7657 37.0719 53.3003 35.4136C53.3171 35.3517 53.2708 35.0464 53.2203 35.1908Z" fill="#474747"/>
<path d="M54.2264 34.4029C53.5319 36.0571 52.6859 37.7443 52.4754 39.5388C52.4712 39.5635 52.4923 39.7285 52.5217 39.6419C53.0942 37.9836 53.6329 36.3418 54.2895 34.7082C54.319 34.6381 54.2601 34.3163 54.2264 34.4029Z" fill="#474747"/>
<path d="M55.1144 32.9756C54.4662 35.0671 53.7591 37.1833 53.2287 39.3037C53.2203 39.3367 53.2414 39.5842 53.2834 39.5058C54.2936 37.6247 54.643 35.2899 55.2028 33.2479C55.2196 33.1819 55.1691 32.7983 55.1144 32.9756Z" fill="#474747"/>
<path d="M56.1751 32.035C55.4469 34.1183 54.5504 36.2633 54.2221 38.4538C54.2179 38.4786 54.2474 38.6972 54.2768 38.6229C55.0934 36.6016 55.5564 34.3823 56.2424 32.3114C56.2635 32.2413 56.2045 31.9484 56.1751 32.035Z" fill="#474747"/>
<path d="M57.2147 30.6284C56.6213 33.2809 55.6111 35.9416 54.824 38.5528C54.8114 38.5941 54.8409 38.9571 54.8956 38.8911C55.4975 38.161 55.5059 36.8079 55.7668 35.9169C56.2719 34.2008 56.9664 32.5837 57.2863 30.814C57.2947 30.7728 57.2484 30.4881 57.2147 30.6284Z" fill="#474747"/>
<path d="M58.2502 29.3042C58.0355 32.4187 55.7668 35.0093 55.7374 38.1403C55.7374 38.2063 55.7921 38.3466 55.8131 38.2063C56.213 35.1331 58.1702 32.5094 58.3385 29.3867C58.3428 29.2671 58.267 29.0814 58.2502 29.3042Z" fill="#474747"/>
<path d="M57.8043 33.285C57.253 34.7535 56.5837 36.2469 56.2723 37.7855C56.2681 37.8144 56.2891 38.0166 56.3144 37.9588C56.9205 36.5067 57.4887 34.9392 57.8296 33.4005C57.838 33.3757 57.8212 33.2437 57.8043 33.285Z" fill="#474747"/>
<path d="M19.1148 19.9978C21.7581 15.1301 30.416 15.3859 35.1722 15.1507C41.7803 14.8207 48.3717 15.5385 54.5673 17.7743C54.6599 17.8073 54.7315 16.8792 54.5757 16.7596C52.4207 15.1177 49.1082 14.8991 46.4986 14.5443C42.4496 13.9957 38.4258 13.8802 34.343 14.1153C29.0313 14.4247 21.5561 14.3381 19.0938 19.9029L19.1148 19.9978Z" fill="#474747"/>
<path d="M55.1484 17.5805C55.7798 18.6448 56.731 19.3749 57.375 20.4475C58.3347 22.048 58.3304 24.09 58.4188 25.8844C58.5114 27.8398 58.482 29.7869 58.221 31.7257C57.9937 33.4253 57.2698 34.9639 57.013 36.647C57.0046 36.7006 56.992 37.34 57.1435 37.2864C58.3936 36.8326 58.5661 33.8089 58.7387 32.6662C59.0796 30.4263 59.0249 28.1244 58.9197 25.8721C58.8397 24.1271 58.7135 22.4069 58.221 20.7197C57.8885 19.5771 56.6174 16.9865 55.1568 17.4278C55.119 17.4402 55.1316 17.5557 55.1484 17.5805Z" fill="#474747"/>
<path d="M19.3886 19.5069C17.7597 22.3162 17.6502 26.066 17.8186 29.2052C17.9533 31.7257 18.4542 36.6594 20.786 38.2517C21.0427 38.425 20.9964 37.4184 20.9459 37.3029C19.8137 34.6876 18.6688 32.4847 18.3405 29.5847C17.9701 26.3135 18.6225 23.1371 19.5275 20.0102C19.5485 19.9236 19.498 19.3172 19.3886 19.5069Z" fill="#474747"/>
<path d="M20.5377 38.1156C26.3251 43.9692 37.4032 42.909 44.79 41.6302C45.1225 41.5725 44.9921 40.2978 44.7564 40.3391C36.6708 41.8489 27.5163 42.3068 20.5924 37.2906C20.4325 37.175 20.3946 37.9712 20.5377 38.1156Z" fill="#474747"/>
<path d="M44.1584 41.2672C45.5852 42.2944 46.9279 43.305 48.2411 44.4931C48.7883 44.9881 50.7918 47.0589 51.4568 45.8956C51.541 45.7471 51.5788 45.2109 51.4063 45.1036C51.0191 44.852 50.535 44.885 50.1057 44.6498C49.3691 44.2456 48.7125 43.6598 48.0685 43.1318C47.2646 42.4718 45.3958 40.4257 44.1668 40.8547C44.0658 40.8918 44.0868 41.2177 44.1584 41.2672Z" fill="#474747"/>
<path d="M50.9898 46.2669C51.0614 45.578 51.0529 44.8891 51.0277 44.1961C50.9856 43.0616 50.8804 41.721 51.8148 40.8299C52.2483 40.4174 53.1869 40.306 53.7678 40.1823C55.847 39.7285 57.0045 38.4992 57.5348 36.5356C57.5517 36.4779 57.5054 36.0365 57.4549 36.1066C56.5794 37.2617 55.6155 38.1692 54.2476 38.7467C53.3426 39.1262 51.8106 39.151 51.2886 40.1575C50.3542 41.9767 50.632 44.2868 50.9183 46.2339C50.9225 46.304 50.9772 46.3865 50.9898 46.2669Z" fill="#474747"/>
<path d="M2.1313 30.2158C2.12709 30.1581 2.12709 30.1045 2.12288 30.0467C2.12288 30.0096 2.09763 29.9766 2.09342 30.0343C2.08921 30.088 2.08921 30.1416 2.085 30.1952C2.08079 30.2777 2.13551 30.319 2.1313 30.2158Z" fill="#474747"/>
<path d="M2.72504 28.9082C3.9667 27.485 6.87512 27.3942 8.64712 27.155C11.7618 26.7342 14.9648 26.2516 18.0921 26.7631C18.2731 26.792 18.3531 25.6328 18.0627 25.5874C14.7881 25.0553 11.4503 25.6204 8.20096 26.0948C5.97018 26.4207 3.99616 26.693 2.69137 28.673C2.65769 28.7184 2.69557 28.9371 2.72504 28.9082Z" fill="#474747"/>
<path d="M3.44891 27.7243C1.27706 29.9642 0.910873 33.318 1.0161 36.2799C1.11291 39.0974 1.97154 43.5979 4.56429 45.3016C4.80842 45.4625 4.80842 44.3033 4.68636 44.1342C3.05326 41.9148 1.91683 39.9513 1.52118 37.1709C1.07923 34.0811 1.82844 30.913 3.53309 28.2977C3.60043 28.1945 3.52046 27.65 3.44891 27.7243Z" fill="#474747"/>
<path d="M4.3791 44.8396C4.92207 45.6688 5.94906 45.6852 6.84979 45.809C7.06866 45.8379 7.1318 44.5797 6.81612 44.555C6.06271 44.4931 5.1241 44.5385 4.44645 44.1631C4.2865 44.0682 4.31597 44.7447 4.3791 44.8396Z" fill="#474747"/>
<path d="M11.3029 45.9988C15.394 46.2257 19.22 46.3659 23.2817 45.7224C25.9082 45.3057 29.2038 45.6729 29.4395 42.3645C29.4816 41.7787 29.0733 40.8836 29.027 41.9602C28.9386 44.0352 26.2196 44.1631 24.7465 44.3652C23.2481 44.5673 21.7623 44.852 20.2639 45.0582C17.2713 45.4708 14.2618 44.819 11.2818 45.2274C11.1177 45.248 11.1387 45.9864 11.3029 45.9988Z" fill="#474747"/>
<path d="M6.06715 45.5945C6.42492 45.6605 6.82478 45.7265 7.04785 46.0483C7.22884 46.3082 7.0689 46.7413 7.00997 47.0218C6.85424 47.7479 6.59749 48.4945 6.76164 49.2412C6.77006 49.2907 6.85845 49.6784 6.99314 49.5423C7.24147 49.2865 7.23726 48.6389 7.30039 48.3047C7.40562 47.7313 7.47717 47.1662 7.48559 46.5846C7.49822 45.7059 7.22042 44.4477 6.05453 44.9551C5.91563 45.0087 5.91142 45.5656 6.06715 45.5945Z" fill="#474747"/>
<path d="M6.7233 49.9672C7.33361 48.808 8.06177 47.7808 9.22766 47.1126C10.3346 46.4814 11.7657 46.6134 12.7843 45.8791C12.8853 45.8049 12.8685 45.3759 12.7506 45.3264C11.6478 44.8685 10.1073 45.5079 9.11823 46.0606C7.85132 46.7702 7.13579 48.0572 6.59703 49.3278C6.53811 49.468 6.62229 50.1569 6.7233 49.9672Z" fill="#474747"/>
<path d="M8.03647 34.6339C6.6475 33.5531 5.90671 35.558 5.95722 36.6346C5.99089 37.3359 6.20976 38.0867 6.90425 38.4085C7.82181 38.8292 8.84039 38.359 9.44649 37.6618C10.4104 36.5439 9.70324 33.8955 8.08277 33.7759C7.69133 33.747 7.23255 33.9986 7.14837 34.3823C7.09786 34.6009 7.05156 34.7989 7.09365 35.0217C7.161 35.3847 7.40091 35.3146 7.65345 35.1949C8.44054 34.8196 9.22762 35.4218 9.5475 36.1066C10.1283 37.34 6.92108 37.9258 6.31498 36.7831C6.09191 36.3582 6.37391 35.7766 6.62645 35.426C6.96317 34.9598 7.45984 34.6999 8.03226 34.8938C8.07014 34.8979 8.07856 34.6628 8.03647 34.6339Z" fill="#474747"/>
<path d="M16.0256 34.6917C15.6426 34.2915 15.1039 33.8336 14.502 34.0069C14.0222 34.1471 13.7149 34.6133 13.555 35.0506C13.1888 36.0736 13.3192 37.6618 14.4262 38.1857C15.7226 38.7962 17.2968 37.6205 17.3852 36.3087C17.4272 35.6858 17.3136 34.9639 16.9264 34.4524C16.4676 33.8501 15.4995 33.2932 14.9481 34.0853C14.8555 34.2214 14.8345 34.6339 14.965 34.7535C15.5627 35.3104 17.2168 34.9639 17.1873 36.2303C17.1579 37.604 15.2343 37.439 14.3883 37.0265C13.6686 36.6759 13.5423 36.0488 13.9422 35.4259C14.4136 34.6917 15.3312 34.6834 16.0004 35.1537C16.0677 35.2032 16.1014 34.77 16.0256 34.6917Z" fill="#474747"/>
<path d="M29.8521 28.2935C29.3513 26.7631 27.3857 26.9776 26.4849 27.9841C25.4874 29.0938 26.1103 30.8676 27.3604 31.4699C28.5558 32.0433 29.6712 31.0285 30.0037 29.9395C30.172 29.3867 30.1468 28.7019 29.9279 28.1698C29.6964 27.6046 28.9725 26.7053 28.2822 27.0189C28.097 27.1055 28.1475 27.7201 28.2738 27.8439C28.8672 28.4255 30.2604 28.5658 29.7259 29.6796C29.3471 30.4634 28.4 30.7274 27.5835 30.517C27.0574 30.3809 26.5649 29.9601 26.3292 29.4857C26.1524 29.1351 26.9311 28.5617 27.1836 28.4008C27.5919 28.1409 28.1096 28.0048 28.5936 28.0048C28.8041 28.0048 29.0356 28.0419 29.2376 28.0831C29.4902 28.1327 29.6164 28.4255 29.8437 28.4585L29.8521 28.2935Z" fill="#474747"/>
<path d="M39.722 27.4149C37.8027 25.7029 35.1721 28.9453 36.8473 30.5912C37.3439 31.078 38.2278 31.177 38.8802 31.111C39.5495 31.045 40.063 30.5087 40.3197 29.9271C40.5554 29.3949 40.526 28.7885 40.3913 28.2358C40.2566 27.6912 39.621 26.7012 38.9939 27.1715C38.8887 27.2499 38.9392 27.6087 39.0065 27.6995C39.3306 28.1409 39.8862 28.3059 40.1766 28.772C40.4544 29.2217 40.0293 29.7868 39.5958 29.9518C38.754 30.2736 37.5081 30.2406 36.8262 29.593C36.5484 29.3289 36.6116 29.2506 36.801 28.8917C36.9693 28.574 37.2556 28.31 37.546 28.1038C38.211 27.6294 39.0486 27.617 39.6884 28.1326C39.7599 28.1904 39.8609 27.5427 39.722 27.4149Z" fill="#474747"/>
<path d="M50.27 27.6211C49.7607 27.0023 49.1714 26.4578 48.3423 27.0106C47.7488 27.4066 47.4752 27.947 47.4457 28.64C47.3868 29.9848 48.3002 31.507 49.8617 31.2183C51.1455 30.979 51.478 29.036 51.276 28.013C51.1581 27.4148 50.9939 26.9198 50.4173 26.6228C49.6849 26.2392 48.881 26.4784 48.2665 26.9198C48.1739 26.9858 48.195 27.4231 48.3002 27.4726C48.759 27.6912 49.0578 27.7284 49.5671 27.7284C49.9459 27.7284 50.3037 27.7284 50.6446 27.9222C51.2044 28.2358 51.1455 28.9494 50.914 29.4609C50.7119 29.9188 50.3037 30.088 49.8323 30.1828C48.9778 30.352 47.9845 29.6342 47.7235 28.8628C47.5931 28.4791 48.4896 27.9264 48.7337 27.8026C49.142 27.5964 49.9122 27.5097 50.2616 27.7655L50.27 27.6211Z" fill="#474747"/>
</svg>
