<svg width="176" height="182" viewBox="0 0 176 182" fill="none" xmlns="http://www.w3.org/2000/svg">
<g filter="url(#filter0_d)">
<circle cx="82.4684" cy="91.52" r="70.4" fill="#F8F5D3"/>
</g>
<circle cx="88" cy="88" r="87.5" fill="white" stroke="#E3EAE5"/>
<mask id="mask0" mask-type="alpha" maskUnits="userSpaceOnUse" x="0" y="0" width="176" height="176">
<path d="M172.497 65.359C185.002 112.026 157.308 159.993 110.641 172.497C63.9744 185.002 16.0069 157.308 3.50258 110.641C-9.00171 63.9744 18.6924 16.0069 65.359 3.50258C112.026 -9.00171 159.993 18.6924 172.497 65.359Z" fill="white" stroke="#E3EAE5"/>
</mask>
<g mask="url(#mask0)">
<path d="M56.0175 165.492C56.4111 167.641 56.3047 170.175 57.2882 172.15C57.398 172.371 57.5418 172.283 57.554 172.079C57.5528 171.077 57.2691 170.084 57.1344 169.085C56.9609 167.879 56.7519 166.665 56.3908 165.509C56.2632 165.159 55.9189 165 56.0175 165.492Z" fill="#E3EAE5"/>
<path d="M60.7311 166.755C60.7601 169.169 60.5277 171.92 61.1093 174.27C61.1428 174.394 61.4354 174.984 61.5747 174.63C61.9011 173.724 61.6661 172.601 61.615 171.663C61.5434 170.212 61.4718 168.762 61.4314 167.303C61.4163 166.873 60.7154 165.824 60.7311 166.755Z" fill="#E3EAE5"/>
<path d="M65.6033 168.109C65.1629 170.398 64.8479 173.839 66.1007 175.943C66.1895 176.086 66.3877 176.2 66.403 175.945C66.4884 174.954 66.1692 173.954 66.07 172.961C65.9411 171.61 66.0323 170.266 66.2768 168.931C66.3494 168.578 65.7557 167.367 65.6033 168.109Z" fill="#E3EAE5"/>
<path d="M70.7505 169.766C70.2766 171.639 69.4742 173.889 69.8951 175.785C69.9193 175.875 70.1609 176.498 70.3096 176.17C70.6173 175.441 70.545 174.566 70.649 173.796C70.8048 172.667 71.0643 171.539 71.3273 170.423C71.3965 170.13 70.8993 169.162 70.7505 169.766Z" fill="#E3EAE5"/>
<path d="M75.0838 169.903C74.7846 170.785 74.5875 171.672 74.4145 172.587C74.1907 173.749 73.8658 174.971 73.9683 176.163C73.9778 176.261 74.1591 176.997 74.383 176.771C74.9579 176.166 74.9335 174.954 75.042 174.173C75.2044 173.094 75.4065 172.038 75.7306 171C75.8344 170.638 75.2594 169.372 75.0838 169.903Z" fill="#E3EAE5"/>
<path d="M80.0757 170.544C79.5829 172.603 78.7204 175.385 79.8533 177.322C79.943 177.477 80.1418 177.557 80.1724 177.311C80.2834 176.407 80.1354 175.497 80.2276 174.582C80.3465 173.527 80.6154 172.491 80.8656 171.445C80.9679 171.047 80.2729 169.72 80.0757 170.544Z" fill="#E3EAE5"/>
<path d="M85.7081 170.394C85.1089 173.09 83.9611 176.05 84.651 178.679C84.6908 178.827 84.9943 179.208 85.0835 178.854C85.4216 177.681 85.4016 176.484 85.6048 175.308C85.843 173.95 86.213 172.584 86.4981 171.213C86.593 170.818 85.8699 169.625 85.7081 170.394Z" fill="#E3EAE5"/>
<path d="M90.0659 169.66C89.0462 172.287 88.3403 175.832 89.6375 178.475C89.7797 178.755 90.0614 178.93 90.0577 178.48C90.0604 177.243 89.8358 176.034 89.9167 174.777C90.0006 173.468 90.3797 172.198 90.838 170.973C91.0075 170.544 90.3029 169.045 90.0659 169.66Z" fill="#E3EAE5"/>
<path d="M95.3857 168.757C94.4294 171.184 93.3511 174.528 94.2467 177.111C94.3001 177.247 94.5573 177.83 94.732 177.483C95.1689 176.614 94.9318 175.358 95.0369 174.378C95.2166 172.928 95.6602 171.523 96.1945 170.145C96.391 169.691 95.6613 168.099 95.3857 168.757Z" fill="#E3EAE5"/>
<path d="M101.324 168.026C99.8329 170.895 98.4792 174.336 99.2711 177.157C99.313 177.313 99.6979 177.747 99.8024 177.326C100.157 175.965 100.094 174.609 100.428 173.231C100.77 171.826 101.369 170.437 102.073 169.067C102.274 168.691 101.601 167.498 101.324 168.026Z" fill="#E3EAE5"/>
<path d="M106.087 167.232C105.101 170.359 104.007 174.205 105.474 177.106C105.577 177.3 105.838 177.4 105.853 177.083C105.894 175.549 105.618 174.087 105.786 172.532C105.949 171.018 106.397 169.506 106.864 168.001C106.982 167.631 106.324 166.492 106.087 167.232Z" fill="#E3EAE5"/>
<path d="M112.244 165.074C111.509 168.761 110.922 173.059 111.496 176.814C111.509 176.927 111.916 177.754 112.019 177.326C112.465 175.62 112.268 173.702 112.336 171.963C112.416 169.955 112.634 167.959 112.994 165.993C113.065 165.573 112.411 164.261 112.244 165.074Z" fill="#E3EAE5"/>
<path d="M117.363 163.477C116.636 167.192 115.555 171.461 116.616 175.097C116.661 175.263 117.074 175.804 117.131 175.33C117.333 173.649 117.145 171.953 117.277 170.261C117.435 168.296 117.831 166.341 118.196 164.394C118.283 163.971 117.522 162.636 117.363 163.477Z" fill="#E3EAE5"/>
<path d="M121.843 161.191C120.717 164.73 119.987 168.871 121.468 172.263C121.584 172.507 121.924 172.647 121.9 172.249C121.702 168.832 121.535 165.842 122.628 162.427C122.777 161.983 122.022 160.609 121.843 161.191Z" fill="#E3EAE5"/>
<path d="M125.509 160.563C125.516 164.887 124.555 169.419 125.209 173.72C125.244 173.911 125.609 174.582 125.69 174.076C126.465 169.978 126.304 165.328 126.258 161.165C126.257 160.664 125.508 159.561 125.509 160.563Z" fill="#E3EAE5"/>
<path d="M129.887 158.075C129.767 162.115 128.913 166.418 129.895 170.381C129.941 170.552 130.323 171.102 130.362 170.624C130.646 166.757 130.634 162.785 130.714 158.906C130.735 158.483 129.908 157.217 129.887 158.075Z" fill="#E3EAE5"/>
<path d="M133.43 156.611C132.735 160.137 132.56 164.158 133.099 167.722C133.108 167.819 133.478 168.572 133.574 168.179C133.904 166.789 133.789 165.366 133.762 163.954C133.737 161.806 133.819 159.68 134.203 157.557C134.275 157.137 133.588 155.767 133.43 156.611Z" fill="#E3EAE5"/>
<path d="M137.749 151.483C138.233 155.712 136.546 160.221 137.794 164.364C137.836 164.52 138.166 164.999 138.206 164.588C138.475 162.411 138.22 160.091 138.285 157.903C138.363 155.761 138.277 153.697 138.041 151.572C138.017 151.294 137.703 151.061 137.749 151.483Z" fill="#E3EAE5"/>
<path d="M141.704 150.926C142.188 155.156 140.501 159.665 141.749 163.807C141.791 163.963 142.121 164.443 142.161 164.031C142.431 161.855 142.175 159.535 142.241 157.346C142.318 155.205 142.232 153.14 141.996 151.015C141.972 150.738 141.658 150.504 141.704 150.926Z" fill="#E3EAE5"/>
<path d="M144.402 147.736C144.399 152.028 143.362 156.647 144.133 160.884C144.154 160.962 144.476 161.661 144.564 161.303C145.075 159.28 144.865 157.064 144.98 154.996C145.103 152.776 145.195 150.563 145.166 148.333C145.165 147.832 144.396 146.718 144.402 147.736Z" fill="#E3EAE5"/>
<path d="M148.88 143.517C148.245 147.761 147.421 152.925 149.237 156.999C149.359 157.267 149.653 157.423 149.626 157.012C149.569 155.241 149.229 153.478 149.171 151.706C149.1 149.32 149.413 146.932 149.719 144.579C149.777 144.112 149.002 142.599 148.88 143.517Z" fill="#E3EAE5"/>
<path d="M151.503 137.823C151.354 142.439 150.951 147.673 152.365 152.122C152.407 152.278 152.785 152.812 152.813 152.353C152.944 150.348 152.501 148.328 152.33 146.32C152.094 143.51 151.89 140.692 151.587 137.884L151.503 137.823Z" fill="#E3EAE5"/>
<path d="M157.366 131.09C157.216 135.706 156.814 140.941 158.228 145.39C158.27 145.546 158.648 146.079 158.675 145.621C158.806 143.615 158.364 141.596 158.193 139.587C157.957 136.778 157.752 133.96 157.449 131.151L157.366 131.09Z" fill="#E3EAE5"/>
<path d="M163.773 121.186C164.228 126.743 163.628 132.615 164.765 138.09C164.795 138.265 165.245 139.064 165.294 138.499C165.801 132.97 165.032 126.679 163.872 121.243L163.773 121.186Z" fill="#E3EAE5"/>
<path d="M166.729 110.243C167.713 116.894 167.123 124.049 169.461 130.439C169.61 130.867 169.894 130.741 169.848 130.319C168.994 123.716 168.543 116.99 167.368 110.439C167.264 109.866 166.595 109.31 166.729 110.243Z" fill="#E3EAE5"/>
<path d="M168.302 103.693C169.558 110.606 170.254 117.685 171.76 124.531C171.82 124.816 172.263 125.466 172.271 124.812C172.299 117.874 170.301 110.691 168.977 103.897C168.861 103.277 168.121 102.706 168.302 103.693Z" fill="#E3EAE5"/>
<path d="M170.941 92.9351C172.143 99.7119 172.517 106.776 174.369 113.413C174.44 113.678 174.808 114.048 174.772 113.54C174.355 106.754 172.954 99.8626 171.715 93.196C171.596 92.4428 170.732 91.7216 170.941 92.9351Z" fill="#E3EAE5"/>
<path d="M170.946 71.0221C169.302 74.317 170.537 78.8472 171.187 82.2641C172.249 87.9594 173.709 93.6988 175.584 99.177C175.72 99.5582 176.096 99.7749 175.977 99.2056C175.295 95.797 174.276 92.445 173.403 89.0709C172.18 84.3371 169.391 76.5812 171.292 71.748C171.36 71.563 171.022 70.8682 170.946 71.0221Z" fill="#E3EAE5"/>
</g>
<defs>
<filter id="filter0_d" x="4.06836" y="21.12" width="156.8" height="160.8" filterUnits="userSpaceOnUse" color-interpolation-filters="sRGB">
<feFlood flood-opacity="0" result="BackgroundImageFix"/>
<feColorMatrix in="SourceAlpha" type="matrix" values="0 0 0 0 0 0 0 0 0 0 0 0 0 0 0 0 0 0 127 0"/>
<feOffset dy="12"/>
<feGaussianBlur stdDeviation="4"/>
<feColorMatrix type="matrix" values="0 0 0 0 0.563319 0 0 0 0 0.563319 0 0 0 0 0.563319 0 0 0 0.06 0"/>
<feBlend mode="normal" in2="BackgroundImageFix" result="effect1_dropShadow"/>
<feBlend mode="normal" in="SourceGraphic" in2="effect1_dropShadow" result="shape"/>
</filter>
</defs>
</svg>
