<svg width="120" height="105" viewBox="0 0 120 105" fill="none" xmlns="http://www.w3.org/2000/svg">
<path d="M0.0175113 94.4919C0.411106 96.6413 0.304664 99.1749 1.28822 101.15C1.39797 101.371 1.54175 101.283 1.55402 101.079C1.55282 100.077 1.26906 99.0844 1.13439 98.0849C0.960896 96.8786 0.751939 95.6652 0.390818 94.5091C0.263188 94.159 -0.0810928 94.0005 0.0175113 94.4919Z" fill="#E3EAE5"/>
<path d="M4.73112 95.7551C4.76008 98.1689 4.52774 100.92 5.10926 103.27C5.14277 103.394 5.43544 103.984 5.57473 103.63C5.90106 102.724 5.66614 101.601 5.61497 100.663C5.54336 99.2123 5.47176 97.7618 5.43143 96.3029C5.41631 95.8727 4.7154 94.824 4.73112 95.7551Z" fill="#E3EAE5"/>
<path d="M9.60327 97.1092C9.16287 99.3979 8.84794 102.839 10.1007 104.943C10.1895 105.086 10.3877 105.2 10.403 104.945C10.4884 103.954 10.1692 102.954 10.07 101.961C9.94114 100.61 10.0323 99.2659 10.2768 97.9314C10.3494 97.578 9.75565 96.367 9.60327 97.1092Z" fill="#E3EAE5"/>
<path d="M14.7505 98.7656C14.2766 100.639 13.4742 102.889 13.8951 104.785C13.9193 104.875 14.1609 105.498 14.3096 105.17C14.6173 104.441 14.545 103.566 14.649 102.796C14.8048 101.667 15.0643 100.539 15.3273 99.4232C15.3965 99.1296 14.8993 98.1619 14.7505 98.7656Z" fill="#E3EAE5"/>
<path d="M19.0838 98.9032C18.7846 99.7847 18.5875 100.672 18.4145 101.587C18.1907 102.749 17.8658 103.971 17.9683 105.163C17.9778 105.261 18.1591 105.997 18.383 105.771C18.9579 105.166 18.9335 103.954 19.042 103.173C19.2044 102.094 19.4065 101.038 19.7306 99.9997C19.8344 99.638 19.2594 98.372 19.0838 98.9032Z" fill="#E3EAE5"/>
<path d="M24.0757 99.5435C23.5829 101.603 22.7204 104.385 23.8533 106.322C23.943 106.477 24.1418 106.557 24.1724 106.311C24.2834 105.407 24.1354 104.497 24.2276 103.582C24.3465 102.527 24.6154 101.491 24.8656 100.445C24.9679 100.047 24.2729 98.7195 24.0757 99.5435Z" fill="#E3EAE5"/>
<path d="M29.7081 99.3942C29.1089 102.09 27.9611 105.05 28.651 107.679C28.6908 107.827 28.9943 108.208 29.0835 107.854C29.4216 106.681 29.4016 105.484 29.6048 104.308C29.843 102.95 30.213 101.584 30.4981 100.213C30.593 99.8182 29.8699 98.6247 29.7081 99.3942Z" fill="#E3EAE5"/>
<path d="M34.0659 98.6599C33.0462 101.287 32.3403 104.832 33.6375 107.475C33.7797 107.755 34.0614 107.93 34.0577 107.48C34.0604 106.243 33.8358 105.034 33.9167 103.777C34.0006 102.468 34.3797 101.198 34.838 99.9734C35.0075 99.5441 34.3029 98.0455 34.0659 98.6599Z" fill="#E3EAE5"/>
<path d="M39.3857 97.7573C38.4294 100.184 37.3511 103.528 38.2467 106.111C38.3001 106.247 38.5573 106.83 38.732 106.483C39.1689 105.614 38.9318 104.358 39.0369 103.378C39.2166 101.928 39.6602 100.523 40.1945 99.1446C40.391 98.6913 39.6613 97.0992 39.3857 97.7573Z" fill="#E3EAE5"/>
<path d="M45.3238 97.0256C43.8329 99.8949 42.4792 103.336 43.2711 106.157C43.313 106.313 43.6979 106.747 43.8024 106.326C44.1573 104.965 44.0943 103.609 44.4276 102.231C44.7705 100.826 45.3689 99.437 46.0731 98.0671C46.2736 97.6912 45.6009 96.498 45.3238 97.0256Z" fill="#E3EAE5"/>
<path d="M50.0873 96.2324C49.1013 99.3592 48.007 103.205 49.4742 106.106C49.5766 106.3 49.838 106.4 49.8534 106.083C49.8935 104.549 49.6177 103.087 49.7862 101.532C49.9488 100.018 50.3968 98.5057 50.8638 97.0013C50.9821 96.6312 50.324 95.4923 50.0873 96.2324Z" fill="#E3EAE5"/>
<path d="M56.2438 94.074C55.5089 97.7607 54.9218 102.059 55.4956 105.814C55.5093 105.927 55.9159 106.754 56.0186 106.326C56.465 104.62 56.2677 102.702 56.3365 100.963C56.4164 98.9546 56.6341 96.9592 56.9935 94.9928C57.065 94.5729 56.4107 93.2612 56.2438 94.074Z" fill="#E3EAE5"/>
<path d="M61.363 92.4772C60.6358 96.1923 59.5546 100.461 60.6162 104.097C60.6608 104.263 61.0742 104.804 61.1312 104.33C61.3327 102.649 61.145 100.953 61.2766 99.2611C61.4352 97.2955 61.8312 95.3405 62.196 93.3939C62.2834 92.9711 61.5222 91.6358 61.363 92.4772Z" fill="#E3EAE5"/>
<path d="M65.8432 90.1914C64.7167 93.7302 63.9867 97.8714 65.4684 101.263C65.5842 101.507 65.9237 101.647 65.9003 101.249C65.7024 97.8324 65.535 94.8415 66.628 91.4273C66.7766 90.9829 66.0218 89.6089 65.8432 90.1914Z" fill="#E3EAE5"/>
<path d="M69.5093 89.5631C69.5156 93.8869 68.5555 98.4187 69.2092 102.72C69.2438 102.911 69.6086 103.582 69.6903 103.076C70.4653 98.9775 70.3044 94.3276 70.2577 90.1649C70.2571 89.6641 69.5081 88.5614 69.5093 89.5631Z" fill="#E3EAE5"/>
<path d="M73.8874 87.0746C73.7671 91.1149 72.9131 95.4179 73.8949 99.381C73.941 99.5524 74.3233 100.102 74.3623 99.6236C74.6465 95.7566 74.6344 91.7851 74.7142 87.9059C74.7346 87.483 73.9083 86.2173 73.8874 87.0746Z" fill="#E3EAE5"/>
<path d="M77.4295 85.611C76.7352 89.1366 76.5596 93.1582 77.0988 96.7218C77.1083 96.8195 77.4783 97.5724 77.5738 97.1795C77.9037 95.7887 77.7894 94.3663 77.7616 92.9542C77.7371 90.8063 77.819 88.6802 78.2033 86.5568C78.2748 86.1369 77.5881 84.7671 77.4295 85.611Z" fill="#E3EAE5"/>
<path d="M81.749 80.4828C82.2327 84.7125 80.5458 89.2212 81.7937 93.3638C81.8356 93.5196 82.1657 93.9993 82.2058 93.5877C82.4754 91.4115 82.2202 89.0914 82.2854 86.9029C82.3631 84.7612 82.2772 82.6965 82.0411 80.5718C82.0168 80.2944 81.7027 80.0609 81.749 80.4828Z" fill="#E3EAE5"/>
<path d="M85.7043 79.9261C86.188 84.1558 84.5011 88.6646 85.7489 92.8071C85.7908 92.9629 86.1209 93.4426 86.1611 93.0311C86.4306 90.8548 86.1755 88.5347 86.2406 86.3462C86.3183 84.2045 86.2324 82.1399 85.9963 80.0151C85.972 79.7377 85.6579 79.5043 85.7043 79.9261Z" fill="#E3EAE5"/>
<path d="M88.4015 76.7356C88.3994 81.0283 87.3622 85.6474 88.1327 89.8841C88.1536 89.962 88.4756 90.6609 88.5638 90.3034C89.0754 88.2796 88.8653 86.0644 88.9796 83.9964C89.1031 81.7756 89.1953 79.5632 89.1655 77.3333C89.1649 76.8324 88.3961 75.7183 88.4015 76.7356Z" fill="#E3EAE5"/>
<path d="M92.88 72.5169C92.2449 76.7615 91.4211 81.9249 93.2371 85.9992C93.3594 86.2672 93.6526 86.4227 93.6261 86.0123C93.5687 84.2406 93.2287 82.4776 93.1713 80.706C93.0997 78.3202 93.4127 75.9319 93.7185 73.5789C93.7774 73.1123 93.0019 71.5992 92.88 72.5169Z" fill="#E3EAE5"/>
<path d="M95.5035 66.8228C95.3536 71.4388 94.9512 76.6734 96.3652 81.1223C96.4071 81.2781 96.7852 81.8117 96.8128 81.3535C96.9439 79.3478 96.5014 77.3282 96.3301 75.3198C96.0942 72.5103 95.8896 69.6924 95.587 66.884L95.5035 66.8228Z" fill="#E3EAE5"/>
<path d="M101.366 60.0903C101.216 64.7063 100.814 69.9408 102.228 74.3897C102.27 74.5456 102.648 75.0792 102.675 74.6209C102.806 72.6153 102.364 70.5957 102.193 68.5873C101.957 65.7778 101.752 62.9599 101.449 60.1515L101.366 60.0903Z" fill="#E3EAE5"/>
<path d="M107.773 50.1862C108.228 55.7429 107.628 61.6147 108.765 67.0896C108.795 67.2652 109.245 68.0637 109.294 67.4994C109.801 61.9696 109.032 55.6786 107.872 50.2432L107.773 50.1862Z" fill="#E3EAE5"/>
<path d="M110.729 39.2426C111.713 45.8939 111.123 53.0491 113.461 59.439C113.61 59.8669 113.894 59.7409 113.848 59.319C112.994 52.7164 112.543 45.9896 111.368 39.4393C111.264 38.8658 110.595 38.3096 110.729 39.2426Z" fill="#E3EAE5"/>
<path d="M112.302 32.6932C113.558 39.6061 114.254 46.6849 115.76 53.5309C115.82 53.8156 116.263 54.4656 116.271 53.8119C116.299 46.8736 114.301 39.6915 112.977 32.8971C112.861 32.2769 112.121 31.7063 112.302 32.6932Z" fill="#E3EAE5"/>
<path d="M114.941 21.9351C116.143 28.7119 116.517 35.7765 118.369 42.4133C118.44 42.6782 118.808 43.0477 118.772 42.5396C118.355 35.7535 116.954 28.8626 115.715 22.196C115.596 21.4428 114.732 20.7216 114.941 21.9351Z" fill="#E3EAE5"/>
<path d="M114.946 0.0220686C113.302 3.31703 114.537 7.84721 115.187 11.2641C116.249 16.9594 117.709 22.6988 119.584 28.177C119.72 28.5582 120.096 28.7749 119.977 28.2056C119.295 24.797 118.276 21.445 117.403 18.0709C116.18 13.3371 113.391 5.58119 115.292 0.748009C115.36 0.562963 115.022 -0.131813 114.946 0.0220686Z" fill="#E3EAE5"/>
</svg>
