<svg width="141" height="43" viewBox="0 0 141 43" fill="none" xmlns="http://www.w3.org/2000/svg">
<path d="M0.5 21.5C0.5 9.90202 9.90202 0.5 21.5 0.5H119.5C131.098 0.5 140.5 9.90202 140.5 21.5C140.5 33.098 131.098 42.5 119.5 42.5H21.5C9.90202 42.5 0.5 33.098 0.5 21.5Z" fill="white" stroke="#E7E7E7"/>
<g opacity="0.2">
<path d="M135.556 30.0629C132.767 34.9579 127.958 39.7893 122.291 41.0868C120.796 41.429 119.156 41.6063 117.496 41.5783L117.289 41.3623C119.604 41.411 121.893 41.0347 123.807 40.2719C128.265 38.4948 132.252 34.8538 134.717 30.7448C137.127 26.7311 138.472 21.9372 137.729 17.2416C136.725 10.87 132.677 4.96071 126.847 2.10866C126.807 2.09132 126.677 1.92661 126.781 1.96707C131.974 3.97535 135.941 9.45119 137.428 14.693C138.892 19.8538 138.221 25.3846 135.556 30.0629Z" fill="#404040"/>
<path d="M120.107 41.2511C120.466 41.673 120.764 42.2422 121.229 42.5514C121.281 42.5861 121.302 42.5485 121.279 42.5023C121.151 42.2827 120.963 42.1006 120.807 41.8984C120.616 41.6556 120.416 41.4158 120.191 41.2077C120.118 41.1471 120.023 41.1557 120.107 41.2511Z" fill="#404040"/>
<path d="M121.298 40.9341C121.61 41.46 121.908 42.0928 122.334 42.5349C122.357 42.558 122.496 42.6505 122.481 42.5551C122.438 42.3153 122.244 42.0986 122.114 41.8992C121.914 41.59 121.715 41.2808 121.521 40.9658C121.463 40.8734 121.176 40.7318 121.298 40.9341Z" fill="#404040"/>
<path d="M122.537 40.6154C122.731 41.1731 123.098 41.9678 123.639 42.2712C123.677 42.2914 123.735 42.2914 123.706 42.2336C123.599 42.0053 123.402 41.8262 123.254 41.621C123.055 41.3407 122.904 41.0344 122.789 40.7108C122.76 40.6241 122.476 40.4334 122.537 40.6154Z" fill="#404040"/>
<path d="M123.695 40.0371C123.871 40.5948 124.025 41.297 124.43 41.7362C124.45 41.7564 124.609 41.8865 124.595 41.7796C124.557 41.5455 124.401 41.3259 124.305 41.1092C124.166 40.7913 124.054 40.459 123.944 40.1296C123.915 40.0429 123.637 39.858 123.695 40.0371Z" fill="#404040"/>
<path d="M124.84 39.8125C124.886 40.0436 124.955 40.2632 125.033 40.4857C125.132 40.7689 125.216 41.0781 125.389 41.3266C125.404 41.3469 125.537 41.4856 125.557 41.4075C125.606 41.2024 125.447 40.9394 125.372 40.7545C125.271 40.4973 125.181 40.2401 125.12 39.9714C125.097 39.8789 124.811 39.6738 124.84 39.8125Z" fill="#404040"/>
<path d="M125.878 39.1573C126.066 39.7208 126.274 40.5068 126.821 40.8333C126.864 40.8593 126.922 40.8535 126.893 40.79C126.786 40.5559 126.618 40.3536 126.505 40.1196C126.378 39.848 126.288 39.5619 126.193 39.2758C126.158 39.166 125.802 38.9319 125.878 39.1573Z" fill="#404040"/>
<path d="M126.842 38.1944C127.169 38.9775 127.415 39.8935 128.028 40.5119C128.063 40.5465 128.199 40.613 128.158 40.509C128.034 40.1593 127.823 39.8444 127.666 39.5092C127.487 39.1219 127.336 38.7174 127.166 38.3215C127.119 38.2059 126.746 37.9719 126.842 38.1944Z" fill="#404040"/>
<path d="M128.088 37.8682C128.198 38.5733 128.494 39.4402 129.113 39.8563C129.179 39.8996 129.263 39.9025 129.205 39.8042C129.049 39.5326 128.846 39.2957 128.705 39.0096C128.557 38.712 128.479 38.3854 128.424 38.0589C128.407 37.9433 128.062 37.7035 128.088 37.8682Z" fill="#404040"/>
<path d="M129.138 36.9987C129.237 37.6518 129.425 38.5216 129.948 38.9753C129.977 38.9984 130.108 39.0937 130.102 38.9955C130.087 38.7499 129.876 38.5042 129.775 38.276C129.63 37.935 129.549 37.5709 129.491 37.201C129.477 37.0768 129.115 36.8196 129.138 36.9987Z" fill="#404040"/>
<path d="M129.897 35.6399C130.105 36.6282 130.458 37.7667 131.199 38.4949C131.239 38.5353 131.416 38.6191 131.358 38.4862C131.176 38.0557 130.895 37.6713 130.704 37.2379C130.51 36.7958 130.38 36.3306 130.279 35.8596C130.253 35.7295 129.859 35.4579 129.897 35.6399Z" fill="#404040"/>
<path d="M130.8 34.8246C131.121 35.7753 131.544 36.9311 132.394 37.5437C132.452 37.5842 132.53 37.5813 132.478 37.4946C132.218 37.0785 131.897 36.7173 131.662 36.281C131.434 35.8562 131.272 35.3996 131.116 34.9431C131.078 34.8304 130.725 34.5992 130.8 34.8246Z" fill="#404040"/>
<path d="M132.362 34.0619C132.669 34.9635 133.086 35.9806 133.687 36.7319C133.705 36.7551 133.899 36.8851 133.867 36.7782C133.748 36.3476 133.462 35.9517 133.256 35.5616C133.019 35.1109 132.814 34.6456 132.643 34.1688C132.605 34.0677 132.296 33.8625 132.362 34.0619Z" fill="#404040"/>
<path d="M133.013 32.7996C133.403 33.7849 133.797 34.9466 134.578 35.6979C134.613 35.7325 134.786 35.8134 134.728 35.6921C134.523 35.2615 134.228 34.8743 134.005 34.4495C133.748 33.9554 133.545 33.4353 133.337 32.9209C133.293 32.8082 132.923 32.5771 133.013 32.7996Z" fill="#404040"/>
<path d="M133.667 31.6952C133.956 32.7008 134.428 33.8076 135.284 34.4664C135.348 34.5126 135.446 34.5069 135.38 34.4115C134.81 33.5937 134.312 32.8771 134.034 31.9062C134 31.779 133.618 31.5305 133.667 31.6952Z" fill="#404040"/>
<path d="M134.694 31.3977C135.244 32.3455 135.608 33.4609 136.297 34.322C136.329 34.3596 136.494 34.4607 136.447 34.3394C136.097 33.3425 135.472 32.3427 134.934 31.4353C134.871 31.3255 134.567 31.1781 134.694 31.3977Z" fill="#404040"/>
<path d="M135.337 30.299C135.823 31.2006 136.182 32.2524 136.899 32.998C136.931 33.0297 137.084 33.102 137.032 32.9922C136.604 32.1079 136.098 31.2382 135.623 30.3771C135.574 30.2817 135.233 30.1083 135.337 30.299Z" fill="#404040"/>
<path d="M135.926 29.5313C136.221 30.3924 136.693 31.2969 137.263 32.0106C137.277 32.0308 137.454 32.1493 137.425 32.0511C137.321 31.7043 137.115 31.4067 136.93 31.1004C136.652 30.6323 136.401 30.1555 136.216 29.6411C136.178 29.54 135.854 29.3261 135.926 29.5313Z" fill="#404040"/>
<path d="M136.221 27.8611C136.864 28.728 137.066 29.9301 137.865 30.6814C137.894 30.7103 138.027 30.7738 137.983 30.6785C137.766 30.167 137.416 29.6902 137.153 29.2019C136.898 28.7222 136.618 28.2801 136.296 27.8438C136.256 27.786 136.158 27.7744 136.221 27.8611Z" fill="#404040"/>
<path d="M137.203 26.199C137.747 27.1411 138.106 28.2854 138.812 29.1176C138.826 29.132 138.985 29.2447 138.959 29.1551C138.814 28.6466 138.488 28.1871 138.25 27.719C137.996 27.2162 137.735 26.7192 137.446 26.2337C137.382 26.1239 137.073 25.9765 137.203 26.199Z" fill="#404040"/>
<path d="M137.648 24.7082C138.048 25.7196 138.522 26.9563 139.436 27.621C139.497 27.6643 139.581 27.6614 139.523 27.5747C139.286 27.1933 138.988 26.8494 138.751 26.468C138.432 25.9536 138.198 25.3902 137.966 24.8354C137.92 24.7256 137.559 24.4915 137.648 24.7082Z" fill="#404040"/>
<path d="M137.5 23.128C138.053 24.1596 138.628 25.3588 139.502 26.1563C139.531 26.1852 139.682 26.2546 139.63 26.1506C139.404 25.694 139.051 25.3068 138.759 24.8878C138.351 24.3012 137.949 23.7088 137.526 23.1309L137.5 23.128Z" fill="#404040"/>
<path d="M138.076 17.9295C138.88 19.0911 139.494 20.455 140.437 21.5126C140.466 21.5473 140.665 21.6658 140.605 21.5357C140.014 20.2585 139.048 18.9755 138.105 17.9295H138.076Z" fill="#404040"/>
<path d="M137.335 15.1559C138.394 16.4909 139.172 18.1351 140.494 19.2418C140.581 19.317 140.627 19.2534 140.564 19.1667C139.539 17.8259 138.587 16.4071 137.5 15.1183C137.404 15.0056 137.187 14.9681 137.335 15.1559Z" fill="#404040"/>
<path d="M136.849 13.5203C138 14.8784 139.051 16.3434 140.248 17.6553C140.298 17.7102 140.477 17.7969 140.396 17.6524C139.522 16.1267 138.174 14.8033 137.022 13.4798C136.918 13.3585 136.684 13.3267 136.849 13.5203Z" fill="#404040"/>
<path d="M136.062 10.8275C137.184 12.1625 138.162 13.6651 139.409 14.8874C139.458 14.9365 139.585 14.9712 139.513 14.8643C138.561 13.4281 137.381 12.0931 136.264 10.787C136.143 10.6368 135.862 10.5876 136.062 10.8275Z" fill="#404040"/>
<path d="M133.284 6.01908C133.342 6.94954 134.187 7.78753 134.763 8.45503C135.717 9.57043 136.765 10.6454 137.87 11.6105C137.948 11.677 138.058 11.677 137.96 11.5672C137.378 10.9054 136.73 10.2986 136.111 9.66868C135.243 8.78445 133.649 7.435 133.452 6.13467C133.443 6.08555 133.281 5.97574 133.284 6.01908Z" fill="#404040"/>
</g>
<path fill-rule="evenodd" clip-rule="evenodd" d="M80.223 24.6695C80.223 25.3278 80.3376 25.4303 80.8808 25.482C81.0211 25.4989 81.1612 25.5112 81.3008 25.5234C81.4429 25.5358 81.5845 25.5482 81.7253 25.5654L81.114 25.9385H78.201L78.2637 25.8553L78.3 25.8074L78.3024 25.8042C78.595 25.4179 78.6487 25.3471 78.6487 25.0411L78.6423 14.5868H77.356L78.5943 13.9751H80.9582C80.4459 14.2794 80.2926 14.4647 80.2269 15.0578L80.223 24.6695ZM88.348 24.8008L87.5574 25.5657C87.4968 25.5998 87.4362 25.6359 87.3758 25.6718C87.2543 25.744 87.1326 25.8164 87.0117 25.873C86.4626 26.1286 85.9042 26.1929 85.408 26.1929C84.88 26.1929 84.0522 26.1578 83.2077 25.5315C82.0345 24.6843 81.5217 23.2279 81.5217 21.9589C81.5217 19.3313 83.6079 18.0427 85.3096 18.0427C85.9042 18.0427 86.515 18.1954 87.0117 18.5173C87.8281 19.0708 88.0462 19.7882 88.1656 20.1811L88.1697 20.1946L84.2839 21.8042L83.0113 21.9056C83.4232 24.0601 84.8447 25.3131 86.4156 25.3131C87.2003 25.3131 87.7827 25.0504 88.3172 24.7797C88.3172 24.7797 88.4244 24.7225 88.348 24.8008ZM86.0035 20.5152C86.3189 20.3977 86.483 20.2962 86.483 20.0602C86.483 19.3832 85.736 18.6013 84.8445 18.6013C84.1842 18.6013 82.9445 19.1286 82.9445 20.9596C82.9445 21.1475 82.9589 21.3433 82.9735 21.5419C82.9811 21.6455 82.9887 21.7498 82.9944 21.8541L86.0035 20.5152ZM75.7053 18.8742C76.0849 19.1941 76.877 19.8731 76.877 21.1607C76.877 22.4157 76.1868 23.0073 75.4908 23.5673L75.4611 23.5978C75.2548 23.81 75.0274 24.0438 75.0274 24.3964C75.0274 24.7645 75.2679 24.9672 75.4468 25.118L75.457 25.1266L76.0541 25.5992C76.78 26.2274 77.4418 26.8034 77.4418 27.9736C77.4418 29.5676 75.937 31.1751 73.0935 31.1751C70.6982 31.1751 69.5403 30.0055 69.5403 28.7515C69.5403 28.1413 69.8366 27.277 70.8143 26.6849C71.8255 26.0511 73.1906 25.9591 73.941 25.9085L73.9708 25.9065L73.9363 25.8609C73.7131 25.5669 73.4736 25.2513 73.4736 24.752C73.4736 24.4949 73.5411 24.3308 73.6135 24.1545L73.6238 24.1295L73.6392 24.0916L73.6277 24.0927C73.4507 24.1099 73.2727 24.1272 73.1107 24.1272C71.3576 24.1272 70.3666 22.7863 70.3666 21.4651C70.3666 20.6856 70.7134 19.8209 71.4257 19.1941C72.3681 18.3986 73.4918 18.2615 74.3847 18.2615H77.791L76.732 18.8742H75.7053ZM74.1537 26.3797C74.3173 26.3797 74.3986 26.3797 74.5343 26.3978C75.7883 27.3143 76.3335 27.7703 76.3335 28.6346C76.3335 29.6847 75.491 30.4646 73.9039 30.4646C72.1375 30.4646 70.9957 29.5984 70.9957 28.3971C70.9957 27.1933 72.0533 26.788 72.4192 26.6509C73.1109 26.4129 74.0038 26.3797 74.1537 26.3797ZM75.4246 21.9392C75.4246 22.246 75.3913 22.7864 75.0093 23.1776C74.7477 23.4458 74.3019 23.6522 73.8875 23.6522C72.4675 23.6522 71.8219 21.7699 71.8219 20.635C71.8219 20.1945 71.9057 19.7365 72.1854 19.3835C72.4489 19.0425 72.9132 18.822 73.3419 18.822C74.7158 18.822 75.4246 20.7203 75.4246 21.9392ZM65.4565 26.1575C62.829 26.1575 61.4232 24.0599 61.4232 22.1605C61.4232 19.9413 63.1905 18.0425 65.7043 18.0425C68.1344 18.0425 69.6563 19.993 69.6563 22.041C69.6563 24.0413 68.152 26.1575 65.4565 26.1575ZM68.0204 22.9072C68.0204 23.5671 67.9234 24.244 67.5237 24.7864C67.1431 25.3278 66.4833 25.6487 65.8367 25.6487C63.8333 25.6487 63.026 22.8871 63.026 21.2127C63.026 20.4815 63.1411 19.7363 63.7867 19.1432C64.1825 18.7866 64.7316 18.5682 65.2768 18.5682C67.3268 18.5682 68.0204 21.4146 68.0204 22.9072ZM56.6594 26.1573C54.0314 26.1573 52.628 24.0596 52.628 22.1602C52.628 19.941 54.3958 18.0422 56.9087 18.0422C59.3373 18.0422 60.8577 19.9928 60.8577 22.0407C60.8577 24.041 59.3554 26.1573 56.6594 26.1573ZM59.2228 22.9069C59.2228 23.5668 59.1238 24.2437 58.7271 24.7861C58.3455 25.3275 57.6866 25.6484 57.0415 25.6484C55.0415 25.6484 54.2309 22.8868 54.2309 21.2125C54.2309 20.4813 54.3455 19.736 54.9921 19.1429C55.3888 18.7863 55.9321 18.5679 56.4792 18.5679C58.5272 18.5679 59.2228 21.4143 59.2228 22.9069ZM51.5773 25.5687L49.3613 26.089C48.4634 26.2341 47.6572 26.3617 46.8034 26.3617C42.5291 26.3617 40.9004 23.136 40.9004 20.6115C40.9004 17.5285 43.208 14.6699 47.16 14.6699C47.9961 14.6699 48.8004 14.796 49.5332 15.0009C50.6412 15.32 51.1866 15.7099 51.5291 15.9548L51.5773 15.9892L50.29 17.2427L49.7473 17.3673L50.1342 16.735L50.1308 16.7316C49.6059 16.206 48.6427 15.2414 46.8181 15.2414C44.3733 15.2414 42.5291 17.1468 42.5291 19.9285C42.5291 22.9161 44.6349 25.7264 48.0123 25.7264C49.0047 25.7264 49.5156 25.522 49.9795 25.3311V22.7699L47.6395 22.899L48.8798 22.216H52.1636L51.762 22.6122C51.6537 22.7066 51.639 22.7388 51.6086 22.8653C51.5925 23.01 51.5773 23.47 51.5773 23.6317V25.5687ZM93.1119 24.8721V29.1885H92.2757V18.2049H93.1119V19.4559C93.6565 18.6473 94.6519 18.0065 95.8079 18.0065C97.8814 18.0065 99.2779 19.6191 99.2779 22.1718C99.2779 24.7074 97.8814 26.3536 95.8079 26.3536C94.7165 26.3536 93.7388 25.7766 93.1119 24.8721ZM95.6668 18.7803C97.4013 18.7803 98.3795 20.2477 98.3795 22.1717C98.3795 24.0986 97.4013 25.5786 95.6668 25.5786C94.5897 25.5786 93.5595 24.6791 93.1118 23.9208V20.4049C93.5595 19.6481 94.5897 18.7803 95.6668 18.7803ZM100.419 15.1726H101.255V26.1563H100.419V15.1726ZM110.637 28.4793C110.816 28.5611 111.121 28.6114 111.315 28.6114C111.826 28.6114 112.182 28.3969 112.502 27.6396L113.112 26.2229L109.818 18.2058H110.751L113.576 25.1532L116.374 18.2058H117.32L113.303 27.9053C112.886 28.9046 112.23 29.3852 111.33 29.3852C111.059 29.3852 110.703 29.336 110.494 29.2702L110.637 28.4793ZM108.195 26.1329C108.139 25.8572 108.097 25.6141 108.066 25.4113C108.041 25.2089 108.026 25.002 108.026 24.7915C107.74 25.2229 107.334 25.582 106.815 25.8647C106.296 26.1495 105.802 26.2891 105.126 26.2891C104.311 26.2891 103.679 26.0837 103.228 25.6669C102.778 25.2505 102.552 24.6866 102.552 23.973C102.552 23.2603 102.88 22.6818 103.533 22.2394C104.186 21.7949 105.031 21.5739 106.076 21.5739H108.026V20.5861C108.026 20.0171 107.837 19.5697 107.459 19.2452C107.08 18.9203 106.548 18.7561 105.859 18.7561C105.228 18.7561 104.717 18.9063 104.327 19.1985C103.941 19.4968 103.747 19.8665 103.747 20.3119H102.891L102.874 20.2692C102.843 19.6686 103.111 19.1418 103.68 18.6868C104.248 18.2323 104.991 18.0038 105.905 18.0038C106.817 18.0038 107.554 18.2288 108.11 18.6778C108.666 19.1222 108.945 19.7645 108.945 20.6042V24.5264C108.945 24.8081 108.958 25.0803 108.992 25.3455C109.027 25.6111 109.084 25.8763 109.159 26.1329H108.195ZM106.971 25.0235C106.449 25.3454 105.939 25.5082 105.228 25.5082C104.684 25.5082 104.257 25.3706 103.944 25.0928C103.633 24.8181 103.476 24.4555 103.476 24.0021C103.476 23.5214 103.723 23.1081 104.212 22.7666C104.699 22.4241 105.319 22.2544 106.067 22.2544H108.026V23.7811C107.842 24.2863 107.489 24.7036 106.971 25.0235Z" fill="#A6A6A6"/>
<path fill-rule="evenodd" clip-rule="evenodd" d="M20.8731 29.0251C20.6175 28.953 20.4512 28.6874 20.4512 28.2762V14.706C20.4512 14.3253 20.592 14.0685 20.8153 13.9751L27.1853 21.5376L20.8731 29.0251ZM21.7502 28.7369L29.4175 24.1875L27.55 21.9704L21.7502 28.7369ZM29.4702 18.8271L21.9097 14.34L27.561 21.0919L29.4702 18.8271ZM29.9829 19.1318L32.9447 20.8896C33.5055 21.2224 33.5106 21.7589 32.9447 22.0947L29.908 23.8965L27.9273 21.5301L29.9829 19.1318Z" fill="#A6A6A6"/>
</svg>
