<svg width="144" height="44" viewBox="0 0 144 44" fill="none" xmlns="http://www.w3.org/2000/svg">
<path d="M0.5 22C0.5 10.1259 10.1259 0.5 22 0.5H122C133.874 0.5 143.5 10.1259 143.5 22C143.5 33.8741 133.874 43.5 122 43.5H22C10.1259 43.5 0.5 33.8741 0.5 22Z" fill="white" stroke="#E7E7E7"/>
<g opacity="0.2">
<path d="M138.441 30.7625C135.592 35.7714 130.682 40.7152 124.893 42.0428C123.367 42.393 121.692 42.5744 119.997 42.5458L119.785 42.3248C122.149 42.3746 124.487 41.9895 126.441 41.209C130.995 39.3905 135.066 35.6649 137.584 31.4603C140.045 27.3533 141.419 22.448 140.66 17.6431C139.635 11.1233 135.501 5.07662 129.547 2.15824C129.506 2.1405 129.373 1.97196 129.479 2.01336C134.783 4.06835 138.834 9.67153 140.353 15.0352C141.848 20.3161 141.162 25.9754 138.441 30.7625Z" fill="#404040"/>
<path d="M122.663 42.2109C123.029 42.6426 123.334 43.2251 123.809 43.5415C123.862 43.577 123.883 43.5386 123.86 43.4913C123.73 43.2665 123.537 43.0803 123.378 42.8733C123.183 42.6249 122.979 42.3795 122.749 42.1666C122.675 42.1045 122.577 42.1134 122.663 42.2109Z" fill="#404040"/>
<path d="M123.879 41.8866C124.198 42.4247 124.503 43.0722 124.937 43.5246C124.961 43.5483 125.103 43.6429 125.088 43.5453C125.044 43.2999 124.846 43.0782 124.713 42.8741C124.509 42.5578 124.305 42.2414 124.107 41.9191C124.048 41.8245 123.755 41.6796 123.879 41.8866Z" fill="#404040"/>
<path d="M125.145 41.5605C125.343 42.1312 125.718 42.9443 126.27 43.2548C126.309 43.2755 126.368 43.2755 126.338 43.2163C126.229 42.9827 126.028 42.7994 125.877 42.5895C125.674 42.3027 125.52 41.9893 125.402 41.6581C125.372 41.5694 125.083 41.3742 125.145 41.5605Z" fill="#404040"/>
<path d="M126.327 40.9688C126.507 41.5394 126.664 42.2579 127.078 42.7074C127.098 42.7281 127.261 42.8611 127.246 42.7517C127.208 42.5122 127.048 42.2875 126.951 42.0657C126.809 41.7405 126.694 41.4005 126.581 41.0634C126.552 40.9747 126.268 40.7854 126.327 40.9688Z" fill="#404040"/>
<path d="M127.496 40.7389C127.544 40.9754 127.615 41.2001 127.694 41.4278C127.795 41.7176 127.881 42.034 128.058 42.2883C128.073 42.3089 128.208 42.4509 128.229 42.371C128.279 42.1611 128.117 41.892 128.04 41.7028C127.937 41.4396 127.845 41.1765 127.783 40.9015C127.759 40.8069 127.467 40.597 127.496 40.7389Z" fill="#404040"/>
<path d="M128.556 40.0685C128.748 40.6451 128.961 41.4493 129.52 41.7835C129.564 41.8101 129.623 41.8042 129.593 41.7391C129.484 41.4996 129.313 41.2926 129.198 41.0531C129.068 40.7752 128.976 40.4825 128.878 40.1897C128.843 40.0774 128.48 39.8379 128.556 40.0685Z" fill="#404040"/>
<path d="M129.541 39.0832C129.875 39.8845 130.126 40.8218 130.753 41.4545C130.788 41.49 130.927 41.558 130.886 41.4516C130.758 41.0938 130.543 40.7715 130.383 40.4285C130.2 40.0323 130.046 39.6184 129.872 39.2133C129.825 39.095 129.444 38.8555 129.541 39.0832Z" fill="#404040"/>
<path d="M130.814 38.7494C130.927 39.4709 131.228 40.3579 131.86 40.7837C131.928 40.828 132.014 40.831 131.955 40.7305C131.795 40.4525 131.588 40.2101 131.444 39.9173C131.293 39.6128 131.213 39.2787 131.157 38.9445C131.139 38.8263 130.788 38.5809 130.814 38.7494Z" fill="#404040"/>
<path d="M131.887 37.8597C131.987 38.528 132.179 39.418 132.714 39.8822C132.743 39.9058 132.876 40.0034 132.87 39.9029C132.856 39.6516 132.64 39.4002 132.537 39.1666C132.389 38.8177 132.306 38.4452 132.247 38.0667C132.232 37.9396 131.863 37.6764 131.887 37.8597Z" fill="#404040"/>
<path d="M132.661 36.4693C132.874 37.4806 133.234 38.6455 133.991 39.3907C134.032 39.4321 134.213 39.5178 134.153 39.3818C133.967 38.9412 133.681 38.548 133.486 38.1044C133.288 37.6521 133.155 37.176 133.051 36.694C133.025 36.561 132.623 36.283 132.661 36.4693Z" fill="#404040"/>
<path d="M133.584 35.635C133.912 36.6078 134.343 37.7905 135.212 38.4174C135.271 38.4588 135.351 38.4558 135.298 38.3671C135.032 37.9413 134.704 37.5717 134.464 37.1252C134.231 36.6906 134.065 36.2234 133.906 35.7562C133.867 35.6409 133.507 35.4044 133.584 35.635Z" fill="#404040"/>
<path d="M135.179 34.8546C135.492 35.7771 135.918 36.8179 136.532 37.5867C136.55 37.6104 136.748 37.7434 136.716 37.634C136.594 37.1935 136.302 36.7884 136.092 36.3892C135.85 35.9279 135.64 35.4519 135.466 34.964C135.427 34.8605 135.111 34.6506 135.179 34.8546Z" fill="#404040"/>
<path d="M135.843 33.5629C136.242 34.5712 136.644 35.7598 137.442 36.5286C137.477 36.5641 137.655 36.6469 137.595 36.5227C137.386 36.0821 137.084 35.6859 136.857 35.2512C136.594 34.7456 136.387 34.2134 136.174 33.6871C136.13 33.5718 135.752 33.3352 135.843 33.5629Z" fill="#404040"/>
<path d="M136.512 32.4329C136.807 33.4619 137.289 34.5943 138.163 35.2685C138.228 35.3158 138.329 35.3099 138.261 35.2123C137.679 34.3755 137.17 33.6422 136.887 32.6487C136.851 32.5186 136.461 32.2644 136.512 32.4329Z" fill="#404040"/>
<path d="M137.561 32.1285C138.122 33.0983 138.494 34.2396 139.198 35.1208C139.23 35.1592 139.398 35.2627 139.351 35.1385C138.994 34.1184 138.355 33.0954 137.806 32.1669C137.741 32.0546 137.431 31.9038 137.561 32.1285Z" fill="#404040"/>
<path d="M138.217 31.0042C138.713 31.9267 139.08 33.003 139.813 33.7659C139.845 33.7984 140.002 33.8723 139.949 33.76C139.511 32.8552 138.994 31.9652 138.51 31.0841C138.459 30.9865 138.111 30.8091 138.217 31.0042Z" fill="#404040"/>
<path d="M138.819 30.2186C139.12 31.0998 139.602 32.0252 140.184 32.7556C140.199 32.7763 140.379 32.8975 140.349 32.797C140.243 32.4422 140.033 32.1376 139.844 31.8242C139.56 31.3452 139.303 30.8573 139.114 30.331C139.076 30.2275 138.745 30.0087 138.819 30.2186Z" fill="#404040"/>
<path d="M139.12 28.5096C139.776 29.3966 139.983 30.6267 140.798 31.3954C140.828 31.425 140.964 31.4901 140.92 31.3925C140.698 30.8691 140.34 30.3813 140.072 29.8815C139.812 29.3907 139.525 28.9383 139.197 28.4918C139.156 28.4327 139.055 28.4209 139.12 28.5096Z" fill="#404040"/>
<path d="M140.123 26.8089C140.678 27.7728 141.045 28.9437 141.766 29.7953C141.78 29.81 141.943 29.9254 141.916 29.8337C141.769 29.3133 141.435 28.8432 141.192 28.3642C140.932 27.8497 140.666 27.3411 140.371 26.8444C140.306 26.732 139.99 26.5812 140.123 26.8089Z" fill="#404040"/>
<path d="M140.578 25.2834C140.985 26.3183 141.47 27.5838 142.404 28.2639C142.466 28.3082 142.551 28.3052 142.492 28.2165C142.25 27.8262 141.946 27.4744 141.703 27.0841C141.378 26.5578 141.139 25.9812 140.903 25.4135C140.855 25.3011 140.486 25.0616 140.578 25.2834Z" fill="#404040"/>
<path d="M140.426 23.6664C140.991 24.722 141.579 25.9491 142.471 26.7652C142.5 26.7947 142.654 26.8657 142.601 26.7593C142.37 26.2921 142.01 25.8959 141.712 25.4671C141.295 24.8669 140.884 24.2608 140.453 23.6694L140.426 23.6664Z" fill="#404040"/>
<path d="M141.014 18.347C141.836 19.5356 142.462 20.9313 143.425 22.0135C143.455 22.0489 143.659 22.1702 143.597 22.0371C142.994 20.7302 142.007 19.4174 141.044 18.347H141.014Z" fill="#404040"/>
<path d="M140.257 15.5089C141.339 16.875 142.134 18.5574 143.484 19.6899C143.573 19.7667 143.62 19.7017 143.555 19.613C142.509 18.241 141.537 16.7892 140.426 15.4705C140.328 15.3552 140.107 15.3167 140.257 15.5089Z" fill="#404040"/>
<path d="M139.761 13.8353C140.937 15.225 142.01 16.7241 143.233 18.0665C143.283 18.1226 143.466 18.2113 143.384 18.0635C142.491 16.5023 141.114 15.1481 139.938 13.7939C139.832 13.6697 139.593 13.6371 139.761 13.8353Z" fill="#404040"/>
<path d="M138.957 11.0798C140.103 12.4459 141.102 13.9834 142.376 15.2342C142.426 15.2844 142.556 15.3199 142.482 15.2105C141.51 13.741 140.304 12.3749 139.164 11.0384C139.04 10.8847 138.753 10.8344 138.957 11.0798Z" fill="#404040"/>
<path d="M136.121 6.15961C136.18 7.1117 137.042 7.96918 137.63 8.65221C138.606 9.79354 139.675 10.8935 140.804 11.8811C140.884 11.9491 140.996 11.9491 140.895 11.8367C140.302 11.1596 139.64 10.5387 139.007 9.89407C138.121 8.98929 136.493 7.60845 136.292 6.27788C136.283 6.22761 136.118 6.11526 136.121 6.15961Z" fill="#404040"/>
</g>
<path fill-rule="evenodd" clip-rule="evenodd" d="M81.9298 25.2431C81.9298 25.9168 82.0468 26.0216 82.6016 26.0746C82.7449 26.0919 82.8879 26.1044 83.0305 26.1169C83.1756 26.1296 83.3202 26.1422 83.4641 26.1599L82.8397 26.5417H79.8647L79.9288 26.4565L79.9658 26.4075L79.9683 26.4042C80.2672 26.009 80.3219 25.9365 80.3219 25.6234L80.3154 14.926H79.0018L80.2664 14.3H82.6806C82.1574 14.6115 82.0008 14.8011 81.9338 15.408L81.9298 25.2431ZM90.2277 25.3775L89.4202 26.1602C89.3583 26.1951 89.2964 26.232 89.2347 26.2688C89.1107 26.3427 88.9864 26.4167 88.863 26.4747C88.3022 26.7362 87.7319 26.802 87.2251 26.802C86.6858 26.802 85.8404 26.766 84.978 26.1252C83.7799 25.2583 83.2561 23.7681 83.2561 22.4695C83.2561 19.7809 85.3867 18.4622 87.1246 18.4622C87.7319 18.4622 88.3557 18.6185 88.863 18.9479C89.6967 19.5143 89.9194 20.2484 90.0413 20.6504L90.0456 20.6642L86.077 22.3112L84.7774 22.415C85.1981 24.6196 86.6498 25.9017 88.2541 25.9017C89.0556 25.9017 89.6504 25.6329 90.1961 25.3559C90.1961 25.3559 90.3057 25.2974 90.2277 25.3775ZM87.8332 20.9922C88.1554 20.872 88.323 20.7682 88.323 20.5267C88.323 19.834 87.5601 19.0338 86.6496 19.0338C85.9753 19.0338 84.7091 19.5734 84.7091 21.447C84.7091 21.6392 84.7238 21.8396 84.7387 22.0429C84.7465 22.1488 84.7543 22.2555 84.7602 22.3622L87.8332 20.9922ZM77.316 19.3131C77.7037 19.6404 78.5126 20.3352 78.5126 21.6528C78.5126 22.937 77.8077 23.5423 77.0969 24.1153L77.0665 24.1466C76.8558 24.3637 76.6236 24.6029 76.6236 24.9637C76.6236 25.3404 76.8693 25.5478 77.0519 25.7021L77.0623 25.7109L77.6722 26.1944C78.4135 26.8373 79.0894 27.4267 79.0894 28.6241C79.0894 30.2551 77.5526 31.9 74.6486 31.9C72.2024 31.9 71.0198 30.7032 71.0198 29.4201C71.0198 28.7957 71.3224 27.9113 72.3209 27.3055C73.3536 26.6569 74.7477 26.5628 75.5141 26.511L75.5446 26.5089L75.5093 26.4623C75.2814 26.1614 75.0368 25.8385 75.0368 25.3275C75.0368 25.0645 75.1057 24.8966 75.1797 24.7162L75.1901 24.6906L75.2059 24.6518L75.1941 24.6529C75.0134 24.6705 74.8316 24.6883 74.6661 24.6883C72.8757 24.6883 71.8637 23.3162 71.8637 21.9642C71.8637 21.1667 72.2179 20.2818 72.9452 19.6404C73.9077 18.8264 75.0553 18.6862 75.9673 18.6862H79.4461L78.3645 19.3131H77.316ZM75.7313 26.9932C75.8984 26.9932 75.9815 26.9932 76.12 27.0117C77.4007 27.9495 77.9575 28.4161 77.9575 29.3005C77.9575 30.375 77.097 31.1731 75.4762 31.1731C73.6723 31.1731 72.5062 30.2866 72.5062 29.0574C72.5062 27.8257 73.5862 27.411 73.9599 27.2707C74.6663 27.0271 75.5783 26.9932 75.7313 26.9932ZM77.0293 22.4493C77.0293 22.7633 76.9953 23.3162 76.6051 23.7166C76.338 23.991 75.8827 24.2022 75.4595 24.2022C74.0093 24.2022 73.3499 22.2762 73.3499 21.1148C73.3499 20.6641 73.4355 20.1955 73.7211 19.8342C73.9902 19.4853 74.4645 19.2597 74.9022 19.2597C76.3054 19.2597 77.0293 21.2021 77.0293 22.4493ZM66.8491 26.7658C64.1657 26.7658 62.73 24.6193 62.73 22.6758C62.73 20.405 64.5349 18.462 67.1022 18.462C69.584 18.462 71.1383 20.4579 71.1383 22.5535C71.1383 24.6003 69.602 26.7658 66.8491 26.7658ZM69.4675 23.4398C69.4675 24.1151 69.3685 24.8078 68.9603 25.3628C68.5716 25.9167 67.8977 26.2451 67.2374 26.2451C65.1913 26.2451 64.3669 23.4193 64.3669 21.706C64.3669 20.9578 64.4845 20.1952 65.1438 19.5883C65.548 19.2235 66.1088 18.9999 66.6656 18.9999C68.7592 18.9999 69.4675 21.9126 69.4675 23.4398ZM57.8648 26.7655C55.1809 26.7655 53.7477 24.619 53.7477 22.6756C53.7477 20.4047 55.5531 18.4617 58.1194 18.4617C60.5997 18.4617 62.1525 20.4576 62.1525 22.5532C62.1525 24.6 60.6182 26.7655 57.8648 26.7655ZM60.4827 23.4396C60.4827 24.1148 60.3817 24.8075 59.9765 25.3625C59.5868 25.9164 58.9139 26.2448 58.2551 26.2448C56.2125 26.2448 55.3846 23.419 55.3846 21.7057C55.3846 20.9575 55.5017 20.1949 56.162 19.588C56.5672 19.2232 57.122 18.9996 57.6808 18.9996C59.7724 18.9996 60.4827 21.9123 60.4827 23.4396ZM52.6746 26.1633L50.4114 26.6956C49.4945 26.8441 48.671 26.9747 47.7991 26.9747C43.4339 26.9747 41.7705 23.674 41.7705 21.0908C41.7705 17.936 44.1272 15.011 48.1633 15.011C49.0172 15.011 49.8386 15.14 50.587 15.3497C51.7186 15.6762 52.2756 16.0752 52.6254 16.3258L52.6746 16.361L51.3599 17.6437L50.8056 17.7711L51.2008 17.1241L51.1973 17.1206C50.6613 16.5828 49.6775 15.5958 47.8141 15.5958C45.3173 15.5958 43.4339 17.5455 43.4339 20.3919C43.4339 23.4489 45.5845 26.3246 49.0337 26.3246C50.0472 26.3246 50.569 26.1155 51.0427 25.9202V23.2994L48.653 23.4315L49.9197 22.7326H53.2734L52.8632 23.1381C52.7526 23.2347 52.7376 23.2675 52.7066 23.397C52.6901 23.545 52.6746 24.0158 52.6746 24.1812V26.1633ZM95.0929 25.4505V29.8673H94.2389V18.6282H95.0929V19.9083C95.6491 19.081 96.6657 18.4252 97.8463 18.4252C99.9638 18.4252 101.39 20.0753 101.39 22.6874C101.39 25.2819 99.9638 26.9664 97.8463 26.9664C96.7317 26.9664 95.7332 26.376 95.0929 25.4505ZM97.7022 19.217C99.4736 19.217 100.473 20.7186 100.473 22.6872C100.473 24.659 99.4736 26.1734 97.7022 26.1734C96.6021 26.1734 95.5501 25.253 95.0928 24.4771V20.8794C95.5501 20.105 96.6021 19.217 97.7022 19.217ZM102.556 15.5255H103.409V26.7645H102.556V15.5255ZM112.991 29.1415C113.174 29.2253 113.486 29.2767 113.683 29.2767C114.205 29.2767 114.569 29.0573 114.896 28.2823L115.519 26.8327L112.155 18.6291H113.107L115.993 25.7381L118.85 18.6291H119.816L115.714 28.5542C115.288 29.5768 114.618 30.0686 113.698 30.0686C113.422 30.0686 113.058 30.0182 112.845 29.9509L112.991 29.1415ZM110.497 26.7406C110.44 26.4585 110.397 26.2098 110.366 26.0022C110.34 25.7951 110.325 25.5834 110.325 25.368C110.032 25.8095 109.617 26.1769 109.087 26.4662C108.557 26.7576 108.053 26.9004 107.363 26.9004C106.531 26.9004 105.885 26.6902 105.424 26.2637C104.965 25.8377 104.734 25.2606 104.734 24.5304C104.734 23.8012 105.068 23.2092 105.736 22.7565C106.403 22.3017 107.265 22.0756 108.333 22.0756H110.325V21.0648C110.325 20.4826 110.131 20.0247 109.746 19.6928C109.359 19.3603 108.815 19.1922 108.111 19.1922C107.467 19.1922 106.945 19.3459 106.547 19.645C106.153 19.9502 105.954 20.3284 105.954 20.7842H105.08L105.062 20.7406C105.031 20.126 105.304 19.5869 105.886 19.1213C106.466 18.6563 107.224 18.4224 108.158 18.4224C109.089 18.4224 109.843 18.6527 110.411 19.1121C110.978 19.5669 111.262 20.2241 111.262 21.0833V25.0967C111.262 25.385 111.276 25.6635 111.311 25.9348C111.347 26.2067 111.405 26.478 111.481 26.7406H110.497ZM109.247 25.6054C108.714 25.9348 108.193 26.1013 107.467 26.1013C106.911 26.1013 106.475 25.9605 106.156 25.6763C105.837 25.3952 105.677 25.0242 105.677 24.5602C105.677 24.0684 105.93 23.6455 106.429 23.296C106.927 22.9456 107.559 22.7719 108.324 22.7719H110.325V24.3341C110.136 24.851 109.776 25.2781 109.247 25.6054Z" fill="#A6A6A6"/>
<path fill-rule="evenodd" clip-rule="evenodd" d="M21.3167 29.7C21.0557 29.6263 20.8857 29.3544 20.8857 28.9338V15.048C20.8857 14.6583 21.0296 14.3956 21.2577 14.3L27.7631 22.0384L21.3167 29.7ZM22.2124 29.4052L30.0429 24.75L28.1357 22.4813L22.2124 29.4052ZM30.0967 19.2649L22.3753 14.6735L28.1468 21.5823L30.0967 19.2649ZM30.6203 19.5767L33.6451 21.3754C34.2178 21.7159 34.223 22.2649 33.6451 22.6085L30.5438 24.4522L28.5209 22.0307L30.6203 19.5767Z" fill="#A6A6A6"/>
</svg>
