<svg width="38" height="40" viewBox="0 0 38 40" fill="none" xmlns="http://www.w3.org/2000/svg">
<g filter="url(#filter0_d)">
<path d="M29.0967 20.1866C29.0902 20.2226 29.0856 20.2592 29.0833 20.2964C28.8519 24.1447 25.5424 27.1594 21.5494 27.1594C19.5082 27.1594 17.5959 26.3838 16.1647 24.9755C16.1627 24.9736 16.1608 24.9714 16.1585 24.9695L9.21305 18.2576C9.01526 18.0664 8.90625 17.8122 8.90625 17.5419C8.90625 17.2716 9.01526 17.0174 9.21305 16.8262C9.41737 16.6288 9.68533 16.5304 9.95362 16.5304C10.2219 16.5304 10.4902 16.6291 10.6942 16.8262L13.3754 19.4173C13.648 19.6807 14.0576 19.7592 14.4133 19.617C14.7694 19.4744 15.0015 19.1388 15.0015 18.7666V5.85337C15.0015 5.29509 15.4715 4.84122 16.0488 4.84122C16.6265 4.84122 17.0962 5.29541 17.0962 5.85337V10.6852V14.5505C17.0962 15.059 17.5228 15.4709 18.0486 15.4709C18.5744 15.4709 19.001 15.0587 19.001 14.5505V10.6852C19.001 10.1269 19.471 9.67301 20.0483 9.67301C20.626 9.67301 21.0957 10.1272 21.0957 10.6852V12.618V14.5508C21.0957 15.0593 21.5223 15.4712 22.0481 15.4712C22.5739 15.4712 23.0005 15.059 23.0005 14.5508V12.618C23.0005 12.0597 23.4705 11.6058 24.0479 11.6058C24.6256 11.6058 25.0952 12.06 25.0952 12.618V14.5508V15.5173C25.0952 16.0257 25.5218 16.4376 26.0476 16.4376C26.5737 16.4376 27 16.0254 27 15.5173V14.5508C27 13.9929 27.47 13.5387 28.0474 13.5387C28.6247 13.5387 29.0947 13.9929 29.0947 14.5508V20.1866H29.0967Z" fill="white"/>
<path d="M28.0475 11.6972C27.6444 11.6972 27.2603 11.7754 26.9101 11.9173C26.5863 10.6815 25.4257 9.76431 24.0474 9.76431C23.6443 9.76431 23.2601 9.84254 22.9099 9.98447C22.5861 8.74869 21.4255 7.83147 20.0475 7.83147C19.6787 7.83147 19.3256 7.89708 19.0002 8.01694V5.85321C19.0002 4.27994 17.6757 3 16.0477 3C14.4197 3 13.0952 4.27994 13.0952 5.85321V16.5444L12.04 15.5247C10.8889 14.4122 9.01575 14.4122 7.86459 15.5247C7.3068 16.0637 7 16.78 7 17.542C7 18.3041 7.30713 19.0207 7.86459 19.5594L14.8068 26.2682C16.5986 28.0298 18.9923 29 21.5476 29C26.4897 29 30.5956 25.3119 30.9716 20.5725C30.9902 20.5006 31 20.4259 31 20.3486V14.5504C31 12.9771 29.6755 11.6972 28.0475 11.6972ZM29.0949 20.1865C29.0884 20.2224 29.0838 20.259 29.0815 20.2962C28.8501 24.1446 25.5406 27.1593 21.5476 27.1593C19.5064 27.1593 17.5941 26.3837 16.1629 24.9754C16.1609 24.9735 16.159 24.9712 16.1567 24.9694L9.21125 18.2574C9.01346 18.0663 8.90445 17.812 8.90445 17.5417C8.90445 17.2714 9.01346 17.0172 9.21125 16.8261C9.41557 16.6286 9.68353 16.5302 9.95182 16.5302C10.2201 16.5302 10.4884 16.6289 10.6924 16.8261L13.3736 19.4172C13.6462 19.6805 14.0558 19.7591 14.4115 19.6168C14.7676 19.4743 14.9997 19.1387 14.9997 18.7665V5.85321C14.9997 5.29493 15.4697 4.84106 16.047 4.84106C16.6247 4.84106 17.0944 5.29525 17.0944 5.85321V10.685V14.5504C17.0944 15.0588 17.521 15.4707 18.0468 15.4707C18.5726 15.4707 18.9992 15.0585 18.9992 14.5504V10.685C18.9992 10.1267 19.4692 9.67285 20.0466 9.67285C20.6243 9.67285 21.0939 10.127 21.0939 10.685V12.6178V14.5507C21.0939 15.0591 21.5205 15.4711 22.0463 15.4711C22.5721 15.4711 22.9987 15.0588 22.9987 14.5507V12.6178C22.9987 12.0596 23.4687 11.6057 24.0461 11.6057C24.6238 11.6057 25.0934 12.0599 25.0934 12.6178V14.5507V15.5171C25.0934 16.0255 25.52 16.4375 26.0458 16.4375C26.5719 16.4375 26.9982 16.0252 26.9982 15.5171V14.5507C26.9982 13.9927 27.4682 13.5385 28.0456 13.5385C28.6229 13.5385 29.0929 13.9927 29.0929 14.5507V20.1865H29.0949Z" fill="black"/>
</g>
<defs>
<filter id="filter0_d" x="0" y="0" width="38" height="40" filterUnits="userSpaceOnUse" color-interpolation-filters="sRGB">
<feFlood flood-opacity="0" result="BackgroundImageFix"/>
<feColorMatrix in="SourceAlpha" type="matrix" values="0 0 0 0 0 0 0 0 0 0 0 0 0 0 0 0 0 0 127 0"/>
<feOffset dy="4"/>
<feGaussianBlur stdDeviation="3.5"/>
<feColorMatrix type="matrix" values="0 0 0 0 0 0 0 0 0 0 0 0 0 0 0 0 0 0 0.15 0"/>
<feBlend mode="normal" in2="BackgroundImageFix" result="effect1_dropShadow"/>
<feBlend mode="normal" in="SourceGraphic" in2="effect1_dropShadow" result="shape"/>
</filter>
</defs>
</svg>
