<svg width="60" height="60" viewBox="0 0 60 60" fill="none" xmlns="http://www.w3.org/2000/svg">
<path d="M29.8457 19.5613C31.6141 18.9334 33.0707 17.3731 34.6913 16.4344C36.5627 15.3483 38.7556 14.8998 40.8906 15.2906C43.0095 15.6783 44.7459 17.2674 45.8777 19.0071C47.5497 21.5766 47.0963 24.1973 46.569 27.0038C46.5561 27.0711 46.5626 27.6927 46.7619 27.5421C48.3053 26.3727 47.8809 23.0535 47.5851 21.426C47.1638 19.0968 45.8905 16.9791 44.0417 15.5053C39.4244 11.8177 33.1511 15.627 29.7974 19.2025C29.7396 19.2634 29.7106 19.6094 29.8457 19.5613Z" fill="#474747"/>
<path d="M45.2059 29.9098C43.7975 30.7075 42.685 32.4408 41.5274 33.591C40.2477 34.8629 38.8972 36.0643 37.55 37.2658C36.1931 38.4704 34.8298 39.6654 33.4922 40.8925C32.1288 42.1452 30.5468 43.4267 29.6112 45.0383C29.5243 45.1888 29.4568 46.182 29.8137 45.9706C31.296 45.0895 32.4536 43.4748 33.7012 42.2926C35.1577 40.9085 36.6593 39.5757 38.1448 38.2237C40.5725 36.0131 43.9197 33.4308 45.3313 30.4032C45.3666 30.3263 45.3763 29.8137 45.2059 29.9098Z" fill="#474747"/>
<path d="M29.9736 18.6923C28.5041 18.3976 27.6778 17.4525 26.6874 16.4144C25.6617 15.3379 24.263 14.7356 22.8579 14.3255C20.1119 13.5182 17.4367 14.4857 15.2727 16.1838C13.3821 17.6671 12.0316 19.8361 11.5461 22.1749C11.1731 23.9755 11.4528 27.0672 13.1313 28.1949C13.4367 28.3999 13.3757 27.4068 13.3242 27.2914C12.7969 26.0868 12.0734 25.1064 11.9898 23.7384C11.9094 22.4216 12.5268 21.0952 13.1827 19.9931C14.2695 18.1669 16.0637 16.7668 17.9962 15.9242C20.3531 14.8926 23.0058 15.4244 25.1826 16.6291C26.7582 17.5005 27.9575 19.9995 29.9961 19.5862C30.2469 19.5318 30.2212 18.7436 29.9736 18.6923Z" fill="#474747"/>
<path d="M14.4953 30.6787C15.8523 32.2517 17.2413 33.8857 18.7493 35.3178C19.8651 36.3783 20.9262 37.49 21.9969 38.5985C22.6175 39.2393 23.1962 39.989 24.0612 40.2933C24.5853 40.476 25.0097 41.3794 25.3088 41.7959C25.7846 42.4591 26.4502 43.0326 27.0258 43.6093C27.5821 44.17 28.7139 45.6534 29.582 45.6982C29.6978 45.7046 29.7717 45.5604 29.8103 45.4771C30.119 44.8107 29.7685 44.3238 29.2219 43.9489C27.7557 42.9397 26.7268 41.3955 25.2702 40.3959C24.4953 39.864 24.1287 39.297 23.566 38.5633C22.6528 37.3747 21.2734 36.311 20.1963 35.2537C19.1802 34.2541 18.1159 33.3122 17.1288 32.2774C16.3603 31.4732 15.5693 30.5473 14.5918 29.9994C14.3828 29.8809 14.4053 30.5729 14.4953 30.6787Z" fill="#474747"/>
<path d="M9.18965 29.3748C12.3247 29.8874 15.6398 29.4997 18.8069 29.5574C19.9773 29.5798 20.5079 27.7344 20.9902 26.7829C21.7458 25.2931 22.4435 23.7969 23.3599 22.3936C23.5496 22.1021 23.331 20.843 23.0673 21.2434C22.3503 22.3392 21.7619 23.4925 21.1928 24.6683C20.7265 25.6295 19.7715 28.7596 18.315 28.4649C16.9838 28.1958 15.4854 28.372 14.1414 28.42C12.4983 28.4809 10.7941 28.3143 9.17036 28.5706C8.9292 28.6122 8.95171 29.3363 9.18965 29.3748Z" fill="#474747"/>
<path d="M23.2219 22.134C23.3923 22.134 23.3827 21.5093 23.2058 21.5093C23.0322 21.5093 23.0418 22.134 23.2219 22.134Z" fill="#474747"/>
<path d="M23.0935 21.7431C23.0002 22.4127 23.2446 23.0567 23.5179 23.659C24.1545 25.0623 24.952 26.4079 25.6272 27.7951C27.2124 31.063 28.9391 34.3726 30.9133 37.4258C30.9905 37.5444 31.132 37.5251 31.2059 37.4194C33.6303 33.8375 34.9133 29.6213 37.0065 25.8568C37.1994 25.5108 36.9229 24.1556 36.6689 24.6105C35.6689 26.4207 34.894 28.3302 33.9937 30.1852C33.0065 32.226 32.2863 34.4943 30.8844 36.3013C31.0194 36.375 31.1513 36.4519 31.2863 36.5255C30.2445 33.6197 28.2767 30.9989 26.8265 28.2853C26.0966 26.9237 25.4278 25.5268 24.7044 24.1588C24.3732 23.534 23.3443 22.5184 23.3346 21.8136C23.3314 21.5477 23.1417 21.3971 23.0935 21.7431Z" fill="#474747"/>
<path d="M36.6008 25.3121C36.7938 26.1451 37.1217 26.9813 37.4208 27.7823C37.6137 28.2917 37.9513 29.4451 38.5622 29.5925C38.977 29.6918 38.7744 28.4327 38.6748 28.2725C39.0188 28.8107 38.4593 28.013 38.35 27.8624C38.0735 27.4843 37.9095 27.007 37.7391 26.5745C37.5204 26.0234 37.3179 24.9789 36.797 24.6169C36.5494 24.4471 36.5815 25.2353 36.6008 25.3121Z" fill="#474747"/>
<path d="M38.5247 29.2274C40.2128 29.7912 42.4025 29.7144 44.1806 29.8778C45.4024 29.9899 46.6082 29.8617 47.8268 29.8073C49.0391 29.7528 49.9587 30.2622 50.9136 29.3523C51.0069 29.2658 51.068 28.7404 50.8654 28.75C49.8333 28.7981 48.8268 28.6186 47.7979 28.6571C46.5728 28.7019 45.3831 28.8557 44.1516 28.7724C42.4571 28.6603 40.1259 27.933 38.5054 28.561C38.3575 28.6219 38.3703 29.1761 38.5247 29.2274Z" fill="#474747"/>
<path d="M17.2223 16.1557C19.9779 14.3551 22.8396 18.3535 24.2865 20.2405C24.8749 21.0062 25.9746 22.1724 27.0807 21.6406C28.7109 20.8589 30.2157 19.305 31.4569 18.0203L31.4408 17.8985C30.0549 18.991 28.4022 20.9838 26.6402 21.3875C25.1418 21.7303 23.8331 19.2634 23.0068 18.3311C21.7045 16.8669 19.1997 14.3775 17.2158 16.1012L17.2223 16.1557Z" fill="#474747"/>
<path d="M18.2095 33.3956C20.8365 36.8782 25.0969 42.6867 30.2641 40.8381C32.6049 40.0019 34.3766 38.2494 36.0454 36.4777C37.9843 34.4144 40.563 32.4441 41.9264 29.9419C41.9714 29.8554 41.9071 29.4998 41.8396 29.6183C40.6016 31.8033 38.5148 33.402 36.83 35.241C35.1805 37.0384 33.5181 38.8646 31.3509 40.0468C25.8558 43.0456 21.2352 36.9871 18.2449 33.2514C18.1999 33.1938 18.1838 33.3572 18.2095 33.3956Z" fill="#474747"/>
<path d="M42.6556 28.8428C44.633 28.0771 45.334 24.3222 45.4915 22.5089C45.6652 20.5257 45.1893 16.8092 43.0157 15.9602C42.9546 15.9378 42.9675 16.1396 42.9932 16.1685C44.5655 18.1549 45.4465 19.7279 45.3308 22.3935C45.2761 23.6654 44.9224 24.9149 44.4305 26.0811C43.9899 27.1288 43.2311 27.8721 42.6523 28.8204L42.6556 28.8428Z" fill="#474747"/>
<path d="M20.3724 14.6243C20.2728 14.4641 20.1441 14.6435 20.0605 14.746L20.0638 14.7813C20.1249 14.7332 20.2856 14.5602 20.366 14.6563L20.3724 14.6243Z" fill="#474747"/>
<path d="M20.7525 14.5377C20.4792 15.0567 20.0355 15.5918 19.9551 16.1877L19.9872 16.2934C20.1512 16.1236 20.2123 15.8193 20.3088 15.6046C20.4599 15.2714 20.611 14.9446 20.7718 14.6146L20.7525 14.5377Z" fill="#474747"/>
<path d="M21.7076 14.5377C21.505 14.951 21.2638 15.3387 21.0934 15.768C21.013 15.973 20.8394 16.444 21.0098 16.649C21.0356 16.6779 21.0484 16.6362 21.0516 16.6138C21.1867 15.9186 21.4728 15.2682 21.7301 14.6082L21.7076 14.5377Z" fill="#474747"/>
<path d="M22.8393 14.8613C22.3248 15.438 21.8136 16.2774 21.7686 17.0624C21.7686 17.0816 21.7814 17.245 21.8232 17.1809C22.0258 16.8765 22.103 16.4664 22.2605 16.1332C22.447 15.7424 22.6753 15.3739 22.8586 14.9799L22.8393 14.8613Z" fill="#474747"/>
<path d="M23.514 15.3996C23.0252 16.2903 22.3178 17.2002 22.1957 18.235C22.1924 18.2575 22.2117 18.5074 22.2632 18.4209C22.4947 18.014 22.6137 17.5366 22.8227 17.1137C23.0638 16.6267 23.3339 16.1557 23.5718 15.6624C23.5976 15.6015 23.559 15.3163 23.514 15.3996Z" fill="#474747"/>
<path d="M24.5715 15.925C23.8127 16.7067 23.1149 17.8473 23.0635 18.9622C23.0635 18.9782 23.0956 19.1897 23.131 19.1064C23.3271 18.6418 23.43 18.1516 23.6423 17.6903C23.8931 17.1456 24.2307 16.6458 24.5972 16.1749C24.639 16.1236 24.6069 15.8897 24.5715 15.925Z" fill="#474747"/>
<path d="M25.2508 16.6875C24.8199 17.6967 24.2315 18.7123 23.9453 19.7696C23.9357 19.8016 23.9485 20.0547 24.0032 19.9714C24.299 19.5357 24.4598 18.9878 24.6656 18.5073C24.8842 17.9946 25.0996 17.4852 25.3119 16.9694C25.3408 16.8989 25.2861 16.601 25.2508 16.6875Z" fill="#474747"/>
<path d="M26.0297 17.1136C25.4605 18.1581 24.8528 19.43 24.8882 20.6442C24.8882 20.6763 24.9332 20.8365 24.9654 20.7308C25.2837 19.571 25.5281 18.4977 26.0972 17.4148C26.1358 17.3411 26.0843 17.0175 26.0297 17.1136Z" fill="#474747"/>
<path d="M26.898 17.7126C26.2678 18.7955 25.6343 20.0418 25.4928 21.2977C25.4864 21.3425 25.5282 21.5668 25.5797 21.4354C25.7919 20.9068 25.9108 20.3365 26.1134 19.7983C26.3449 19.1831 26.6472 18.5968 26.9687 18.0266C27.0105 17.9529 26.9559 17.6101 26.898 17.7126Z" fill="#474747"/>
<path d="M27.7715 18.1647C27.1413 19.0681 26.4982 20.2856 26.5432 21.423C26.5432 21.455 26.585 21.6088 26.6172 21.5063C26.7683 21.0193 26.8359 20.5131 27.0095 20.0293C27.2121 19.4686 27.5014 18.9368 27.8326 18.4402C27.8744 18.3793 27.8326 18.0782 27.7715 18.1647Z" fill="#474747"/>
<path d="M28.3761 18.8341C27.9581 19.5934 27.5369 20.4873 27.4115 21.3491C27.4083 21.378 27.4275 21.6439 27.4854 21.5478C27.6623 21.253 27.7234 20.8846 27.8327 20.561C27.9967 20.074 28.2057 19.6095 28.4468 19.1577C28.4886 19.0776 28.4308 18.7316 28.3761 18.8341Z" fill="#474747"/>
<path d="M29.1538 19.1417C28.9609 19.7504 28.5268 20.3175 28.4561 20.9582C28.4561 20.971 28.4753 21.1569 28.5107 21.112C28.6908 20.8845 28.7583 20.5449 28.8773 20.279C29.0123 19.9811 29.1377 19.6863 29.231 19.3755C29.2535 19.3051 29.202 18.9847 29.1538 19.1417Z" fill="#474747"/>
<path d="M26.4914 40.8317C26.5203 41.1681 26.2631 41.4692 26.1956 41.7896C26.1891 41.8216 26.1345 42.126 26.2406 42.0812L26.2374 41.9979L26.2341 41.9882L26.2824 41.8921C26.3402 41.7608 26.3917 41.6326 26.4367 41.4949C26.5042 41.2866 26.546 41.0367 26.4978 40.8188L26.4914 40.8317Z" fill="#474747"/>
<path d="M28.3212 40.726C27.6685 41.2257 27.3083 42.0876 27.3115 42.911C27.3115 42.9334 27.3533 43.1224 27.3984 43.0359C27.4852 42.8725 27.572 42.7187 27.7199 42.6034L27.7103 42.5233C27.5688 42.5874 27.4884 42.7059 27.3501 42.77C27.3694 42.8501 27.3919 42.9334 27.4112 43.0135C27.6427 42.2446 27.7392 41.3699 28.3276 40.7612L28.3212 40.726Z" fill="#474747"/>
<path d="M29.2796 40.5657C28.9291 41.3826 28.5176 42.206 28.2828 43.0647C28.2732 43.1031 28.2893 43.3979 28.3568 43.2953C28.4307 43.1768 28.5111 43.0647 28.5979 42.9589L28.5787 42.85C28.4951 42.9173 28.405 42.9782 28.3053 43.0262C28.3214 43.1159 28.3375 43.2056 28.3568 43.2953C28.823 42.4752 28.9645 41.4531 29.2828 40.5721L29.2796 40.5657Z" fill="#474747"/>
<path d="M30.4953 40.287C29.55 41.341 29.0291 43.0967 29.1449 44.5032C29.1481 44.5385 29.177 44.6378 29.222 44.5801C29.4021 44.3526 29.3088 44.4776 29.4664 44.1668C29.476 44.1476 29.4696 44.0419 29.4439 44.0771C29.3731 44.1828 29.2831 44.2693 29.177 44.343C29.1995 44.3975 29.222 44.4488 29.2445 44.5032C29.4407 43.0102 29.7397 41.6518 30.5018 40.3286L30.4953 40.287Z" fill="#474747"/>
<path d="M32.0513 39.5629C31.0739 40.7547 30.5337 42.3791 30.4404 43.9073C30.4404 43.9233 30.4629 44.154 30.5176 44.0931C30.5851 44.0162 30.7009 43.8849 30.7684 43.84C30.7941 43.824 30.7973 43.6991 30.7588 43.7023C30.3665 43.7407 30.9099 43.6862 30.4951 43.792C30.5144 43.8689 30.5337 43.9457 30.5498 44.0194C30.8777 42.4816 31.1993 41.0046 32.0739 39.6654C32.0931 39.643 32.0803 39.5245 32.0513 39.5629Z" fill="#474747"/>
<path d="M32.8971 38.8646C32.5917 39.5342 32.3023 40.2134 32.074 40.9151C31.9743 41.2194 31.6914 41.9275 31.9582 42.219C32.0032 42.2703 32.0161 42.1517 32.0161 42.1261C32 41.6231 32.238 41.0785 32.3987 40.6139C32.5724 40.1109 32.7717 39.6143 32.9807 39.1273C33.0097 39.06 32.9421 38.7653 32.8971 38.8646Z" fill="#474747"/>
<path d="M34.1064 37.5125C33.9102 38.086 33.7269 38.6627 33.5404 39.2362C33.3765 39.7424 33.1482 40.2486 33.071 40.7772C33.0678 40.7997 33.0742 40.9823 33.1289 40.9182C33.4311 40.5626 33.5115 39.941 33.6466 39.5021C33.8266 38.9126 34.0067 38.3231 34.1932 37.7368C34.2157 37.6631 34.1578 37.3588 34.1064 37.5125Z" fill="#474747"/>
<path d="M35.2439 37.0288C34.7905 38.0251 34.3147 39.1689 34.2793 40.2742C34.2793 40.3095 34.3179 40.5145 34.3597 40.3928C34.5269 39.9218 34.588 39.4092 34.7295 38.9254C34.8838 38.384 35.0928 37.8585 35.3211 37.3459C35.3532 37.2658 35.2889 36.9262 35.2439 37.0288Z" fill="#474747"/>
<path d="M36.7206 35.5485C36.1547 36.782 35.6305 38.2044 35.5694 39.5725C35.5662 39.6173 35.6338 39.8833 35.6756 39.7263C36.0357 38.4223 36.2479 37.1344 36.8009 35.8817C36.8363 35.7984 36.7688 35.4395 36.7206 35.5485Z" fill="#474747"/>
<path d="M37.9281 34.2092C37.5551 35.558 37.1307 36.9517 37.0374 38.355C37.031 38.4511 37.1178 38.7138 37.1661 38.4928C37.4555 37.1439 37.6773 35.7919 38.0214 34.4495C38.0407 34.379 37.9731 34.0426 37.9281 34.2092Z" fill="#474747"/>
<path d="M39.3155 32.5496C38.965 33.7062 38.576 34.9878 38.5342 36.1988C38.5342 36.2372 38.5792 36.4775 38.6242 36.3398C38.9972 35.2088 39.0776 33.9689 39.4184 32.8188C39.4441 32.7387 39.3734 32.367 39.3155 32.5496Z" fill="#474747"/>
<path d="M40.3565 30.9542C40.1604 32.271 39.7874 33.5813 39.6652 34.9013C39.662 34.943 39.707 35.1608 39.752 35.0327C40.1797 33.8152 40.2986 32.3991 40.4626 31.1208C40.4755 31.0343 40.3919 30.7363 40.3565 30.9542Z" fill="#474747"/>
<path d="M41.3946 30.2525C41.1856 31.518 40.684 32.8187 40.7965 34.1131C40.803 34.1964 40.8737 34.2701 40.893 34.1451C41.0698 32.9053 41.3271 31.6814 41.5136 30.4415C41.5264 30.3422 41.4364 30.0122 41.3946 30.2525Z" fill="#474747"/>
<path d="M42.3533 29.8169C42.1443 31.1048 41.7198 32.4472 41.842 33.7608C41.8484 33.8409 41.9192 33.9146 41.9353 33.7928C42.1089 32.5305 42.2889 31.2682 42.469 30.0027C42.4819 29.9098 42.3918 29.5798 42.3533 29.8169Z" fill="#474747"/>
<path d="M43.8675 26.7636C43.5717 28.4937 43.1119 30.3391 43.2469 32.1044C43.2533 32.1845 43.3016 32.1749 43.3112 32.1044C43.5138 30.3519 43.8096 28.5738 43.9093 26.8117C43.9125 26.7764 43.8803 26.6899 43.8675 26.7636Z" fill="#474747"/>
<path d="M45.5052 19.6895C45.5438 22.5666 45.1901 25.4885 44.785 28.3335C44.6564 29.2434 44.2287 30.4192 44.4699 31.3387C44.4892 31.4091 44.5213 31.3643 44.5278 31.3162C45.0165 27.462 45.6628 23.579 45.576 19.6831C45.576 19.555 45.502 19.5582 45.5052 19.6895Z" fill="#474747"/>
<path d="M46.3977 19.4205C46.2434 22.4674 45.7032 25.7801 46.0215 28.8142C46.0312 28.9103 46.0858 28.9007 46.0987 28.811C46.4749 25.7866 46.5328 22.477 46.417 19.427C46.4202 19.4013 46.401 19.3821 46.3977 19.4205Z" fill="#474747"/>
<path d="M47.1825 21.5958C47.1665 22.6883 47.0571 23.7808 46.9992 24.8733C46.996 24.9182 47.0282 24.9823 47.0378 24.9022C47.16 23.8 47.205 22.7043 47.2018 21.5958C47.2018 21.5638 47.1825 21.5638 47.1825 21.5958Z" fill="#474747"/>
</svg>
