<svg width="32" height="32" viewBox="0 0 32 32" fill="none" xmlns="http://www.w3.org/2000/svg">
<path fill-rule="evenodd" clip-rule="evenodd" d="M26.1818 0H5.81818C2.60509 0 0 2.49183 0 5.56522V24.615V32L7.27273 23.6522H26.1818C29.3949 23.6522 32 21.1603 32 18.087V5.56522C32 2.49183 29.3949 0 26.1818 0Z" fill="white"/>
<path d="M13 9.5C13 10.3284 12.3284 11 11.5 11C10.6716 11 10 10.3284 10 9.5C10 8.67157 10.6716 8 11.5 8C12.3284 8 13 8.67157 13 9.5Z" fill="#36AB4D"/>
<path d="M22 9.5C22 10.3284 21.3284 11 20.5 11C19.6716 11 19 10.3284 19 9.5C19 8.67157 19.6716 8 20.5 8C21.3284 8 22 8.67157 22 9.5Z" fill="#36AB4D"/>
<path d="M16 19C19.3137 19 22 17.2091 22 15H10C10 17.2091 12.6863 19 16 19Z" fill="#36AB4D"/>
</svg>
