<svg width="42" height="42" viewBox="0 0 42 42" fill="none" xmlns="http://www.w3.org/2000/svg">
<path fill-rule="evenodd" clip-rule="evenodd" d="M1 21C1 9.95431 9.95431 1 21 1C32.0457 1 41 9.95431 41 21C41 32.0457 32.0457 41 21 41C9.95431 41 1 32.0457 1 21Z" fill="white" stroke="#E7E7E7"/>
<g opacity="0.2">
<path d="M2.35456 23.4026C2.33556 28.1824 6.09137 32.7095 9.98404 35.1315C14.561 37.9798 20.898 37.9609 25.9501 36.5839C30.7779 35.2673 34.8568 32.0946 37.2897 27.7712C39.7607 23.38 40.7566 17.2194 38.6659 12.5226C38.624 12.4283 38.6012 12.6207 38.6164 12.6584C40.5704 18.321 39.3425 24.8173 35.811 29.6311C33.2108 33.1811 29.1737 35.4333 24.9503 36.4821C20.6281 37.5572 15.614 37.3347 11.516 35.588C6.99231 33.6602 2.51422 28.439 2.4458 23.4026C2.442 23.2743 2.35456 23.2781 2.35456 23.4026Z" fill="#404040"/>
<path d="M8.44119 33.815C8.39937 34.3243 8.22071 34.8902 8.32334 35.3957C8.33475 35.4523 8.37276 35.441 8.38797 35.3957C8.44879 35.1694 8.44499 34.9279 8.4754 34.694C8.50961 34.4111 8.53622 34.1244 8.52482 33.8414C8.51722 33.7546 8.44879 33.6981 8.44119 33.815Z" fill="#404040"/>
<path d="M9.43309 34.385C9.29243 34.932 9.07195 35.5394 9.06055 36.1053C9.06055 36.1355 9.09096 36.2864 9.14418 36.2147C9.27343 36.0298 9.28863 35.762 9.33425 35.5469C9.40648 35.215 9.4787 34.883 9.55853 34.551C9.58134 34.4529 9.48631 34.1737 9.43309 34.385Z" fill="#404040"/>
<path d="M10.4557 34.9847C10.2162 35.4752 9.93493 36.2334 10.0908 36.7842C10.1022 36.822 10.1402 36.8597 10.1592 36.8031C10.239 36.5843 10.2276 36.3391 10.2657 36.109C10.3189 35.7958 10.4215 35.4978 10.5584 35.2111C10.5964 35.1356 10.5356 34.8263 10.4557 34.9847Z" fill="#404040"/>
<path d="M11.5977 35.3621C11.3468 35.8412 10.9857 36.3995 10.9629 36.9503C10.9629 36.9768 10.9819 37.1654 11.0427 37.0862C11.172 36.9088 11.2138 36.6636 11.2936 36.4599C11.4115 36.1619 11.5559 35.8714 11.7004 35.5847C11.7384 35.5092 11.6776 35.2074 11.5977 35.3621Z" fill="#404040"/>
<path d="M12.497 35.9615C12.3753 36.1426 12.2765 36.3312 12.1815 36.5274C12.0598 36.7764 11.9116 37.0329 11.8621 37.3083C11.8583 37.3309 11.8545 37.5082 11.9192 37.4705C12.0864 37.3687 12.1549 37.0933 12.2271 36.9235C12.3297 36.6896 12.44 36.4632 12.5768 36.2482C12.6224 36.1728 12.5692 35.8521 12.497 35.9615Z" fill="#404040"/>
<path d="M13.6103 36.2105C13.3632 36.7009 12.9831 37.3498 13.1275 37.9194C13.1389 37.9647 13.1807 37.9987 13.2036 37.9383C13.2872 37.7157 13.31 37.4743 13.3898 37.2479C13.4849 36.9876 13.6141 36.7424 13.7396 36.4934C13.789 36.3991 13.7091 36.0143 13.6103 36.2105Z" fill="#404040"/>
<path d="M14.8769 36.2108C14.5766 36.9352 14.1356 37.6934 14.1318 38.497C14.1318 38.5423 14.1775 38.6743 14.2193 38.58C14.3675 38.2706 14.436 37.9273 14.5538 37.6067C14.6906 37.237 14.8579 36.8748 15.0062 36.5051C15.0518 36.3995 14.9605 36.0033 14.8769 36.2108Z" fill="#404040"/>
<path d="M15.9102 36.8106C15.5186 37.3426 15.1423 38.1009 15.2753 38.7762C15.2905 38.8478 15.3438 38.9044 15.3704 38.8026C15.4464 38.5234 15.4692 38.2367 15.5642 37.9575C15.6631 37.667 15.8265 37.4029 16.0052 37.154C16.0698 37.0672 16.0014 36.6862 15.9102 36.8106Z" fill="#404040"/>
<path d="M17.1715 36.9277C16.8066 37.4181 16.358 38.1085 16.4036 38.746C16.4074 38.78 16.4302 38.9271 16.491 38.8592C16.6431 38.6894 16.6659 38.3914 16.7495 38.1764C16.8788 37.8595 17.0651 37.569 17.2703 37.2898C17.3426 37.1993 17.2741 36.7956 17.1715 36.9277Z" fill="#404040"/>
<path d="M18.5637 36.5351C18.0505 37.316 17.5335 38.2894 17.5411 39.2476C17.5411 39.3004 17.6019 39.4702 17.6513 39.3457C17.8148 38.9458 17.8832 38.5119 18.0429 38.1045C18.2063 37.6895 18.4268 37.3009 18.6701 36.9275C18.7385 36.8256 18.6587 36.3918 18.5637 36.5351Z" fill="#404040"/>
<path d="M19.6941 36.5917C19.2797 37.4217 18.797 38.4516 18.9528 39.406C18.9642 39.4702 19.0174 39.5192 19.0402 39.4287C19.1429 38.9873 19.1695 38.5421 19.3025 38.1045C19.4318 37.6782 19.6257 37.2745 19.8233 36.8746C19.8728 36.7766 19.7929 36.3955 19.6941 36.5917Z" fill="#404040"/>
<path d="M21.2219 37.1123C20.8304 37.9007 20.435 38.8363 20.3362 39.7191C20.3324 39.7455 20.3742 39.9568 20.4236 39.8662C20.6289 39.5078 20.7011 39.0627 20.8228 38.6741C20.9634 38.2252 21.1345 37.7876 21.336 37.365C21.3778 37.2745 21.3093 36.9387 21.2219 37.1123Z" fill="#404040"/>
<path d="M22.4792 36.7123C22.0877 37.6102 21.5821 38.625 21.6011 39.6247C21.6011 39.67 21.6619 39.836 21.7037 39.7191C21.852 39.3041 21.9128 38.8589 22.0459 38.4364C22.2017 37.946 22.4108 37.4744 22.6123 37.0028C22.6579 36.901 22.5667 36.5086 22.4792 36.7123Z" fill="#404040"/>
<path d="M23.6356 36.4182C23.1642 37.2633 22.7461 38.2932 22.8753 39.2816C22.8867 39.3533 22.9552 39.4137 22.9742 39.308C23.1376 38.4026 23.2821 37.6104 23.7383 36.7955C23.7991 36.6899 23.7117 36.2787 23.6356 36.4182Z" fill="#404040"/>
<path d="M24.5065 36.8936C24.2442 37.8707 23.75 38.8365 23.636 39.8475C23.6322 39.8928 23.674 40.0663 23.7234 39.9569C24.1492 39.0779 24.3963 38.0179 24.6396 37.0747C24.67 36.9615 24.5673 36.6673 24.5065 36.8936Z" fill="#404040"/>
<path d="M25.6512 36.5954C25.3775 37.5008 24.9214 38.4213 24.9023 39.3757C24.9023 39.4172 24.9556 39.5644 24.9936 39.4587C25.2939 38.6024 25.5334 37.7045 25.7881 36.833C25.8185 36.7387 25.7082 36.403 25.6512 36.5954Z" fill="#404040"/>
<path d="M26.543 36.4786C26.1704 37.2332 25.8853 38.131 25.7903 38.9685C25.7865 38.9912 25.8245 39.1836 25.8701 39.1006C26.0298 38.8063 26.0906 38.4781 26.1704 38.1574C26.2959 37.6708 26.4441 37.1954 26.6608 36.739C26.7026 36.6484 26.6304 36.2976 26.543 36.4786Z" fill="#404040"/>
<path d="M27.8361 35.5807C27.6878 36.5653 27.0302 37.482 27.0606 38.4931C27.0606 38.5308 27.1062 38.6591 27.1404 38.5685C27.3343 38.0932 27.4179 37.5537 27.5662 37.0633C27.7144 36.5842 27.8209 36.1126 27.8969 35.6184C27.9083 35.5543 27.8513 35.4826 27.8361 35.5807Z" fill="#404040"/>
<path d="M29.5739 35.1357C29.3116 36.1053 28.7946 37.0861 28.7109 38.0896C28.7109 38.1085 28.7413 38.2858 28.7832 38.2104C29.0227 37.7841 29.1101 37.271 29.2621 36.8107C29.4256 36.3165 29.5815 35.8223 29.7107 35.3168C29.7411 35.2036 29.6347 34.9056 29.5739 35.1357Z" fill="#404040"/>
<path d="M30.8472 34.4528C30.4443 35.3733 29.9425 36.49 30.1059 37.5199C30.1173 37.5878 30.1744 37.6406 30.1934 37.5463C30.2884 37.1427 30.3188 36.7239 30.4139 36.3202C30.5431 35.777 30.7598 35.2564 30.9727 34.7433C31.0145 34.6415 30.9308 34.2529 30.8472 34.4528Z" fill="#404040"/>
<path d="M31.7891 33.3247C31.4736 34.3584 31.0631 35.5166 31.1125 36.6068C31.1125 36.6446 31.1657 36.7879 31.1999 36.6861C31.352 36.2409 31.3748 35.758 31.4584 35.294C31.5762 34.6451 31.7017 33.9962 31.8043 33.3436L31.7891 33.3247Z" fill="#404040"/>
<path d="M35.5864 30.3066C35.3507 31.5893 34.8565 32.8795 34.7805 34.1848C34.7767 34.2263 34.8299 34.4338 34.8755 34.3093C35.3279 33.0908 35.537 31.6233 35.6054 30.3255L35.5864 30.3066Z" fill="#404040"/>
<path d="M36.9242 28.0129C36.7417 29.5747 36.1715 31.1554 36.3121 32.7399C36.3197 32.8455 36.3919 32.8342 36.4072 32.7361C36.6162 31.1931 36.9242 29.6464 37.0572 28.0959C37.0686 27.96 36.9508 27.7941 36.9242 28.0129Z" fill="#404040"/>
<path d="M37.6811 26.6284C37.5442 28.2657 37.2705 29.9067 37.1945 31.544C37.1907 31.6119 37.2515 31.7855 37.2933 31.6383C37.7229 30.0727 37.7077 28.3298 37.8217 26.7152C37.8331 26.568 37.7001 26.3945 37.6811 26.6284Z" fill="#404040"/>
<path d="M38.9348 24.3573C38.7941 25.9607 38.4482 27.5791 38.4634 29.19C38.4634 29.2541 38.5242 29.3597 38.547 29.2428C38.8663 27.6847 38.969 26.0437 39.0944 24.463C39.1134 24.2856 38.9614 24.0706 38.9348 24.3573Z" fill="#404040"/>
<path d="M40.2734 19.4077C39.6994 20.0528 39.7032 21.1507 39.6424 21.9618C39.5359 23.3123 39.5169 24.6969 39.6082 26.0474C39.6158 26.1417 39.688 26.2134 39.6956 26.0776C39.7488 25.2665 39.7222 24.4479 39.7298 23.633C39.7412 22.4899 39.5816 20.5697 40.3076 19.5926C40.3342 19.5549 40.3 19.3776 40.2734 19.4077Z" fill="#404040"/>
</g>
<path d="M26.0357 15.1716C25.4296 15.1716 24.9379 15.6628 24.9379 16.269C24.9379 16.8751 25.4296 17.3668 26.0357 17.3668C26.6417 17.3668 27.1334 16.8751 27.1334 16.269C27.1334 15.6629 26.6417 15.1713 26.0357 15.1716Z" fill="#A6A6A6"/>
<path fill-rule="evenodd" clip-rule="evenodd" d="M17.3806 12.0594C18.3561 12.015 18.6677 12.0042 21.1497 12.0042C23.6349 12.0042 23.9456 12.015 24.9214 12.0594C25.8952 12.104 26.5604 12.2582 27.1435 12.4844C27.7458 12.7179 28.2546 13.0304 28.7635 13.5393C29.2723 14.0477 29.5849 14.5581 29.8193 15.1598C30.0442 15.7415 30.1986 16.4062 30.2443 17.3801C30.2881 18.3558 30.2996 18.6676 30.2996 21.152C30.2996 23.6365 30.2881 23.9475 30.2443 24.9233C30.1986 25.8968 30.0442 26.5617 29.8193 27.1436C29.5849 27.7451 29.2723 28.2554 28.7635 28.7639C28.2552 29.2727 27.7456 29.5861 27.1441 29.8197C26.562 30.046 25.8966 30.2001 24.9227 30.2447C23.9469 30.2891 23.6361 30.3 21.1515 30.3C18.6672 30.3 18.3556 30.2891 17.3798 30.2447C16.4061 30.2001 15.7412 30.046 15.1591 29.8197C14.5579 29.5861 14.0475 29.2727 13.5392 28.7639C13.0306 28.2554 12.718 27.7451 12.4841 27.1434C12.2582 26.5617 12.104 25.8969 12.0592 24.9231C12.0149 23.9473 12.0039 23.6365 12.0039 21.152C12.0039 18.6676 12.0154 18.3557 12.059 17.3799C12.1028 16.4064 12.2572 15.7415 12.484 15.1596C12.7184 14.5581 13.031 14.0477 13.5398 13.5393C14.0483 13.0306 14.5587 12.7181 15.1603 12.4844C15.742 12.2582 16.4068 12.104 17.3806 12.0594ZM20.8386 13.6526L21.1526 13.6527C23.595 13.6527 23.8845 13.6615 24.849 13.7053C25.741 13.7461 26.2251 13.8951 26.5475 14.0203C26.9744 14.1861 27.2788 14.3843 27.5988 14.7045C27.9189 15.0247 28.1171 15.3296 28.2834 15.7565C28.4086 16.0786 28.5578 16.5627 28.5984 17.4546C28.6422 18.4189 28.6518 18.7086 28.6518 21.15C28.6518 23.5914 28.6422 23.881 28.5984 24.8454C28.5576 25.7373 28.4086 26.2213 28.2834 26.5434C28.1176 26.9704 27.9189 27.2743 27.5988 27.5943C27.2786 27.9145 26.9746 28.1127 26.5475 28.2785C26.2255 28.4043 25.741 28.553 24.849 28.5937C23.8847 28.6376 23.595 28.6471 21.1526 28.6471C18.7099 28.6471 18.4204 28.6376 17.456 28.5937C16.5641 28.5525 16.0801 28.4035 15.7574 28.2783C15.3305 28.1125 15.0256 27.9143 14.7054 27.5942C14.3852 27.274 14.187 26.9698 14.0208 26.5427C13.8956 26.2206 13.7463 25.7365 13.7058 24.8446C13.662 23.8803 13.6532 23.5906 13.6532 21.1477C13.6532 18.7048 13.662 18.4167 13.7058 17.4523C13.7466 16.5604 13.8956 16.0763 14.0208 15.7538C14.1866 15.327 14.3852 15.022 14.7054 14.7018C15.0256 14.3817 15.3305 14.1835 15.7574 14.0173C16.0798 13.8915 16.5641 13.7429 17.456 13.7019C18.2999 13.6637 18.627 13.6523 20.3319 13.6504V13.6527C20.4886 13.6525 20.657 13.6525 20.8386 13.6526Z" fill="#A6A6A6"/>
<path fill-rule="evenodd" clip-rule="evenodd" d="M16.4547 21.1521C16.4547 18.5577 18.5582 16.4543 21.1526 16.4543C23.7467 16.4543 25.8496 18.5577 25.8496 21.1521C25.8496 23.7465 23.747 25.849 21.1526 25.849C18.5582 25.849 16.4547 23.7465 16.4547 21.1521ZM24.2019 21.152C24.2019 19.4679 22.8366 18.1027 21.1526 18.1027C19.4684 18.1027 18.1033 19.4679 18.1033 21.152C18.1033 22.8361 19.4684 24.2013 21.1526 24.2013C22.8366 24.2013 24.2019 22.8361 24.2019 21.152Z" fill="#A6A6A6"/>
</svg>
