<svg width="132" height="44" viewBox="0 0 132 44" fill="none" xmlns="http://www.w3.org/2000/svg">
<path d="M0.5 22C0.5 10.1259 10.1259 0.5 22 0.5H110C121.874 0.5 131.5 10.1259 131.5 22C131.5 33.8741 121.874 43.5 110 43.5H22C10.1259 43.5 0.5 33.8741 0.5 22Z" fill="white" stroke="#E7E7E7"/>
<g opacity="0.2">
<path d="M126.436 30.7625C123.586 35.7714 118.672 40.7152 112.879 42.0428C111.352 42.393 109.676 42.5744 107.979 42.5458L107.768 42.3248C110.133 42.3746 112.473 41.9895 114.429 41.209C118.985 39.3905 123.06 35.6649 125.579 31.4603C128.042 27.3533 129.417 22.448 128.657 17.6431C127.631 11.1233 123.494 5.07662 117.536 2.15824C117.495 2.1405 117.362 1.97196 117.468 2.01336C122.776 4.06835 126.829 9.67153 128.349 15.0352C129.845 20.3161 129.159 25.9754 126.436 30.7625Z" fill="#404040"/>
<path d="M110.647 42.2109C111.014 42.6426 111.318 43.2251 111.795 43.5415C111.848 43.577 111.868 43.5386 111.845 43.4913C111.715 43.2665 111.522 43.0803 111.363 42.8733C111.168 42.6249 110.964 42.3795 110.733 42.1666C110.659 42.1045 110.562 42.1134 110.647 42.2109Z" fill="#404040"/>
<path d="M111.865 41.8866C112.184 42.4247 112.489 43.0722 112.923 43.5246C112.947 43.5483 113.089 43.6429 113.074 43.5453C113.03 43.2999 112.832 43.0782 112.698 42.8741C112.494 42.5578 112.29 42.2414 112.092 41.9191C112.033 41.8245 111.74 41.6796 111.865 41.8866Z" fill="#404040"/>
<path d="M113.131 41.5605C113.329 42.1312 113.704 42.9443 114.257 43.2548C114.296 43.2755 114.355 43.2755 114.325 43.2163C114.216 42.9827 114.015 42.7994 113.864 42.5895C113.66 42.3027 113.506 41.9893 113.388 41.6581C113.359 41.5694 113.069 41.3742 113.131 41.5605Z" fill="#404040"/>
<path d="M114.314 40.9688C114.495 41.5394 114.651 42.2579 115.065 42.7074C115.086 42.7281 115.249 42.8611 115.234 42.7517C115.195 42.5122 115.036 42.2875 114.938 42.0657C114.796 41.7405 114.681 41.4005 114.569 41.0634C114.539 40.9747 114.255 40.7854 114.314 40.9688Z" fill="#404040"/>
<path d="M115.484 40.7389C115.531 40.9754 115.602 41.2001 115.682 41.4278C115.783 41.7176 115.869 42.034 116.046 42.2883C116.061 42.3089 116.197 42.4509 116.217 42.371C116.268 42.1611 116.105 41.892 116.028 41.7028C115.925 41.4396 115.833 41.1765 115.771 40.9015C115.747 40.8069 115.455 40.597 115.484 40.7389Z" fill="#404040"/>
<path d="M116.545 40.0685C116.737 40.6451 116.95 41.4493 117.509 41.7835C117.553 41.8101 117.612 41.8042 117.583 41.7391C117.473 41.4996 117.302 41.2926 117.187 41.0531C117.056 40.7752 116.965 40.4825 116.867 40.1897C116.832 40.0774 116.468 39.8379 116.545 40.0685Z" fill="#404040"/>
<path d="M117.53 39.0832C117.864 39.8845 118.116 40.8218 118.743 41.4545C118.778 41.49 118.917 41.558 118.876 41.4516C118.748 41.0938 118.533 40.7715 118.373 40.4285C118.19 40.0323 118.036 39.6184 117.861 39.2133C117.814 39.095 117.433 38.8555 117.53 39.0832Z" fill="#404040"/>
<path d="M118.804 38.7494C118.917 39.4709 119.218 40.3579 119.851 40.7837C119.919 40.828 120.005 40.831 119.946 40.7305C119.786 40.4525 119.579 40.2101 119.434 39.9173C119.283 39.6128 119.204 39.2787 119.147 38.9445C119.13 38.8263 118.778 38.5809 118.804 38.7494Z" fill="#404040"/>
<path d="M119.877 37.8597C119.978 38.528 120.17 39.418 120.705 39.8822C120.735 39.9058 120.868 40.0034 120.862 39.9029C120.847 39.6516 120.631 39.4002 120.528 39.1666C120.38 38.8177 120.297 38.4452 120.238 38.0667C120.223 37.9396 119.854 37.6764 119.877 37.8597Z" fill="#404040"/>
<path d="M120.653 36.4693C120.866 37.4806 121.226 38.6455 121.983 39.3907C122.025 39.4321 122.205 39.5178 122.146 39.3818C121.96 38.9412 121.673 38.548 121.478 38.1044C121.279 37.6521 121.146 37.176 121.043 36.694C121.016 36.561 120.614 36.283 120.653 36.4693Z" fill="#404040"/>
<path d="M121.576 35.635C121.904 36.6078 122.336 37.7905 123.205 38.4174C123.264 38.4588 123.344 38.4558 123.291 38.3671C123.025 37.9413 122.696 37.5717 122.457 37.1252C122.223 36.6906 122.058 36.2234 121.898 35.7562C121.86 35.6409 121.499 35.4044 121.576 35.635Z" fill="#404040"/>
<path d="M123.172 34.8546C123.486 35.7771 123.911 36.8179 124.527 37.5867C124.544 37.6104 124.742 37.7434 124.71 37.634C124.589 37.1935 124.296 36.7884 124.086 36.3892C123.843 35.9279 123.634 35.4519 123.459 34.964C123.421 34.8605 123.104 34.6506 123.172 34.8546Z" fill="#404040"/>
<path d="M123.837 33.5629C124.236 34.5712 124.638 35.7598 125.437 36.5286C125.472 36.5641 125.649 36.6469 125.59 36.5227C125.38 36.0821 125.079 35.6859 124.851 35.2512C124.588 34.7456 124.381 34.2134 124.168 33.6871C124.124 33.5718 123.745 33.3352 123.837 33.5629Z" fill="#404040"/>
<path d="M124.506 32.4329C124.801 33.4619 125.283 34.5943 126.158 35.2685C126.223 35.3158 126.324 35.3099 126.256 35.2123C125.674 34.3755 125.165 33.6422 124.881 32.6487C124.846 32.5186 124.455 32.2644 124.506 32.4329Z" fill="#404040"/>
<path d="M125.555 32.1285C126.117 33.0983 126.49 34.2396 127.193 35.1208C127.226 35.1592 127.394 35.2627 127.347 35.1385C126.989 34.1184 126.351 33.0954 125.801 32.1669C125.736 32.0546 125.425 31.9038 125.555 32.1285Z" fill="#404040"/>
<path d="M126.212 31.0042C126.709 31.9267 127.076 33.003 127.809 33.7659C127.841 33.7984 127.998 33.8723 127.945 33.76C127.507 32.8552 126.99 31.9652 126.505 31.0841C126.455 30.9865 126.106 30.8091 126.212 31.0042Z" fill="#404040"/>
<path d="M126.814 30.2186C127.116 31.0998 127.598 32.0252 128.181 32.7556C128.195 32.7763 128.376 32.8975 128.346 32.797C128.24 32.4422 128.03 32.1376 127.84 31.8242C127.557 31.3452 127.299 30.8573 127.11 30.331C127.072 30.2275 126.741 30.0087 126.814 30.2186Z" fill="#404040"/>
<path d="M127.116 28.5096C127.772 29.3966 127.979 30.6267 128.795 31.3954C128.825 31.425 128.961 31.4901 128.917 31.3925C128.695 30.8691 128.337 30.3813 128.068 29.8815C127.808 29.3907 127.521 28.9383 127.193 28.4918C127.151 28.4327 127.051 28.4209 127.116 28.5096Z" fill="#404040"/>
<path d="M128.119 26.8089C128.675 27.7728 129.042 28.9437 129.763 29.7953C129.778 29.81 129.941 29.9254 129.914 29.8337C129.766 29.3133 129.432 28.8432 129.19 28.3642C128.929 27.8497 128.663 27.3411 128.368 26.8444C128.303 26.732 127.986 26.5812 128.119 26.8089Z" fill="#404040"/>
<path d="M128.574 25.2834C128.982 26.3183 129.467 27.5838 130.402 28.2639C130.464 28.3082 130.55 28.3052 130.49 28.2165C130.248 27.8262 129.943 27.4744 129.701 27.0841C129.376 26.5578 129.136 25.9812 128.9 25.4135C128.852 25.3011 128.483 25.0616 128.574 25.2834Z" fill="#404040"/>
<path d="M128.423 23.6664C128.988 24.722 129.576 25.9491 130.469 26.7652C130.499 26.7947 130.652 26.8657 130.599 26.7593C130.369 26.2921 130.008 25.8959 129.709 25.4671C129.292 24.8669 128.881 24.2608 128.45 23.6694L128.423 23.6664Z" fill="#404040"/>
<path d="M129.011 18.347C129.833 19.5356 130.46 20.9313 131.424 22.0135C131.454 22.0489 131.658 22.1702 131.596 22.0371C130.993 20.7302 130.005 19.4174 129.041 18.347H129.011Z" fill="#404040"/>
<path d="M128.254 15.5089C129.336 16.875 130.132 18.5574 131.483 19.6899C131.572 19.7667 131.619 19.7017 131.554 19.613C130.507 18.241 129.534 16.7892 128.422 15.4705C128.325 15.3552 128.103 15.3167 128.254 15.5089Z" fill="#404040"/>
<path d="M127.757 13.8353C128.934 15.225 130.008 16.7241 131.232 18.0665C131.282 18.1226 131.465 18.2113 131.383 18.0635C130.49 16.5023 129.112 15.1481 127.935 13.7939C127.828 13.6697 127.589 13.6371 127.757 13.8353Z" fill="#404040"/>
<path d="M126.953 11.0798C128.1 12.4459 129.099 13.9834 130.374 15.2342C130.424 15.2844 130.554 15.3199 130.48 15.2105C129.507 13.741 128.301 12.3749 127.16 11.0384C127.036 10.8847 126.749 10.8344 126.953 11.0798Z" fill="#404040"/>
<path d="M124.114 6.15961C124.173 7.1117 125.037 7.96918 125.625 8.65221C126.601 9.79354 127.671 10.8935 128.801 11.8811C128.881 11.9491 128.993 11.9491 128.893 11.8367C128.298 11.1596 127.636 10.5387 127.003 9.89407C126.116 8.98929 124.487 7.60845 124.286 6.27788C124.277 6.22761 124.111 6.11526 124.114 6.15961Z" fill="#404040"/>
</g>
<path fill-rule="evenodd" clip-rule="evenodd" d="M35.2063 16.5408C35.2063 16.5408 33.7185 14.3208 31.3918 14.3208C30.4444 14.3208 29.7411 14.6212 29.1069 14.892C28.5861 15.1144 28.1119 15.317 27.5872 15.317C26.9333 15.317 26.4288 15.0941 25.8969 14.8592C25.3044 14.5975 24.6779 14.3208 23.7732 14.3208C21.8185 14.3208 18.7002 16.0571 18.7002 20.393C18.7002 24.5672 21.7801 29.6999 24.1643 29.6999C24.7465 29.6999 25.1775 29.5248 25.6377 29.3378C26.165 29.1236 26.7308 28.8938 27.6064 28.8938C28.6175 28.8938 29.1145 29.1249 29.5761 29.3397C29.9766 29.526 30.3505 29.6999 31.0105 29.6999C33.5374 29.6999 35.7878 24.4343 35.7878 24.4343C35.7878 24.4343 32.9367 23.5236 32.9367 20.393C32.9367 17.7553 35.2063 16.5408 35.2063 16.5408ZM30.9916 9.8999C31.3346 12.0251 29.3798 14.6535 27.0438 14.568C26.7004 11.8639 29.218 10.0426 30.9916 9.8999ZM49.3852 16.7106L47.5561 21.6747H51.2144L49.4154 16.7106H49.3852ZM48.6296 15.4286L44.4271 26.0724H45.8935L47.1028 22.8674H51.6681L52.8472 26.0724H54.4345L50.2169 15.4286H48.6296ZM55.3261 18.3653V29.0091H56.611V25.0437H56.6412C56.7823 25.2723 56.9562 25.4636 57.1627 25.6177C57.3693 25.7717 57.5885 25.8934 57.8203 25.9829C58.0521 26.0723 58.2864 26.1369 58.5233 26.1767C58.7601 26.2164 58.9743 26.2363 59.1657 26.2363C59.7603 26.2363 60.2819 26.132 60.7303 25.9233C61.1788 25.7146 61.5517 25.4288 61.849 25.0661C62.1463 24.7033 62.368 24.2785 62.5141 23.7915C62.6602 23.3045 62.7333 22.7878 62.7333 22.2412C62.7333 21.6946 62.6577 21.1778 62.5065 20.6908C62.3554 20.2038 62.1311 19.774 61.8339 19.4013C61.5366 19.0286 61.1637 18.733 60.7152 18.5143C60.2667 18.2957 59.7402 18.1864 59.1355 18.1864C58.5913 18.1864 58.0924 18.2833 57.6389 18.4771C57.1854 18.6709 56.8529 18.9814 56.6412 19.4088H56.611V18.3653H55.3261ZM61.3728 22.1524C61.3728 22.53 61.3325 22.8978 61.2519 23.2555C61.1713 23.6133 61.0403 23.9313 60.8589 24.2096C60.6775 24.4879 60.4381 24.7115 60.1408 24.8804C59.8435 25.0494 59.4732 25.1339 59.0297 25.1339C58.5863 25.1339 58.2084 25.0519 57.896 24.8879C57.5835 24.7239 57.3291 24.5077 57.1326 24.2394C56.936 23.9711 56.7924 23.6605 56.7017 23.3077C56.611 22.9549 56.5657 22.5897 56.5657 22.212C56.5657 21.8542 56.6085 21.5014 56.6942 21.1536C56.7798 20.8058 56.9184 20.4952 57.1099 20.2219C57.3014 19.9486 57.5483 19.7275 57.8506 19.5585C58.153 19.3896 58.5208 19.3051 58.9541 19.3051C59.3673 19.3051 59.7276 19.3846 60.035 19.5436C60.3424 19.7026 60.5943 19.9163 60.7908 20.1846C60.9874 20.453 61.1335 20.7586 61.2292 21.1014C61.325 21.4443 61.3728 21.7946 61.3728 22.1524ZM64.2904 18.3653V29.0091H65.5754V25.0437H65.6056C65.7467 25.2723 65.9205 25.4636 66.1271 25.6177C66.3337 25.7717 66.5529 25.8934 66.7847 25.9829C67.0165 26.0723 67.2508 26.1369 67.4876 26.1767C67.7245 26.2164 67.9386 26.2363 68.1301 26.2363C68.7247 26.2363 69.2462 26.132 69.6947 25.9233C70.1432 25.7146 70.516 25.4288 70.8133 25.0661C71.1106 24.7033 71.3324 24.2785 71.4785 23.7915C71.6246 23.3045 71.6977 22.7878 71.6977 22.2412C71.6977 21.6946 71.6221 21.1778 71.4709 20.6908C71.3198 20.2038 71.0955 19.774 70.7982 19.4013C70.5009 19.0286 70.1281 18.733 69.6796 18.5143C69.2311 18.2957 68.7046 18.1864 68.0999 18.1864C67.5557 18.1864 67.0568 18.2833 66.6033 18.4771C66.1498 18.6709 65.8172 18.9814 65.6056 19.4088H65.5754V18.3653H64.2904ZM70.3372 22.1524C70.3372 22.53 70.2969 22.8978 70.2163 23.2555C70.1357 23.6133 70.0046 23.9313 69.8232 24.2096C69.6418 24.4879 69.4025 24.7115 69.1052 24.8804C68.8079 25.0494 68.4375 25.1339 67.9941 25.1339C67.5507 25.1339 67.1728 25.0519 66.8603 24.8879C66.5479 24.7239 66.2935 24.5077 66.0969 24.2394C65.9004 23.9711 65.7568 23.6605 65.6661 23.3077C65.5754 22.9549 65.5301 22.5897 65.5301 22.212C65.5301 21.8542 65.5729 21.5014 65.6586 21.1536C65.7442 20.8058 65.8828 20.4952 66.0743 20.2219C66.2657 19.9486 66.5127 19.7275 66.815 19.5585C67.1173 19.3896 67.4852 19.3051 67.9185 19.3051C68.3317 19.3051 68.692 19.3846 68.9994 19.5436C69.3068 19.7026 69.5587 19.9163 69.7552 20.1846C69.9517 20.453 70.0979 20.7586 70.1936 21.1014C70.2893 21.4443 70.3372 21.7946 70.3372 22.1524ZM83.8668 18.5443H85.2273C85.2072 17.958 85.0938 17.4536 84.8872 17.0312C84.6806 16.6089 84.3984 16.2585 84.0407 15.9803C83.6829 15.702 83.2672 15.4983 82.7935 15.3691C82.3199 15.2399 81.8059 15.1753 81.2516 15.1753C80.7578 15.1753 80.2766 15.2374 79.808 15.3616C79.3393 15.4858 78.9211 15.6747 78.5533 15.9281C78.1854 16.1815 77.8906 16.5045 77.6689 16.8971C77.4472 17.2896 77.3364 17.7542 77.3364 18.2909C77.3364 18.7779 77.4346 19.1829 77.6311 19.5058C77.8277 19.8288 78.0897 20.0922 78.4172 20.2959C78.7447 20.4997 79.1151 20.6637 79.5283 20.7879C79.9415 20.9121 80.3622 21.0214 80.7906 21.1158C81.2189 21.2103 81.6396 21.3022 82.0528 21.3916C82.466 21.4811 82.8364 21.5978 83.1639 21.7419C83.4914 21.8861 83.7535 22.0724 83.95 22.301C84.1465 22.5296 84.2448 22.8277 84.2448 23.1954C84.2448 23.583 84.1641 23.901 84.0029 24.1495C83.8416 24.3979 83.63 24.5942 83.368 24.7383C83.1059 24.8824 82.8112 24.9843 82.4836 25.0439C82.1561 25.1035 81.8311 25.1334 81.5086 25.1334C81.1055 25.1334 80.7124 25.0837 80.3295 24.9843C79.9465 24.8849 79.6114 24.7309 79.3242 24.5222C79.037 24.3135 78.8052 24.0476 78.6288 23.7246C78.4525 23.4016 78.3643 23.0165 78.3643 22.5693H77.0038C77.0038 23.2153 77.1222 23.7743 77.359 24.2464C77.5959 24.7184 77.9184 25.106 78.3265 25.4092C78.7347 25.7123 79.2083 25.9384 79.7475 26.0874C80.2867 26.2365 80.8586 26.311 81.4632 26.311C81.9571 26.311 82.4534 26.2539 82.9523 26.1396C83.4511 26.0253 83.9021 25.8415 84.3052 25.588C84.7083 25.3346 85.0384 25.0067 85.2954 24.6042C85.5524 24.2017 85.6808 23.7172 85.6808 23.1507C85.6808 22.624 85.5826 22.1867 85.3861 21.8388C85.1896 21.491 84.9275 21.2028 84.6 20.9742C84.2725 20.7456 83.9021 20.5643 83.4889 20.4301C83.0757 20.2959 82.655 20.1792 82.2267 20.0798C81.7983 19.9804 81.3776 19.8885 80.9644 19.804C80.5512 19.7195 80.1808 19.6127 79.8533 19.4835C79.5258 19.3543 79.2638 19.1878 79.0672 18.9841C78.8707 18.7804 78.7725 18.5145 78.7725 18.1866C78.7725 17.8387 78.8405 17.548 78.9765 17.3145C79.1126 17.0809 79.294 16.8946 79.5207 16.7554C79.7475 16.6163 80.007 16.5169 80.2993 16.4573C80.5915 16.3977 80.8888 16.3679 81.1912 16.3679C81.9369 16.3679 82.5491 16.5393 83.0278 16.8822C83.5065 17.225 83.7862 17.7791 83.8668 18.5443ZM88.9915 18.3654V16.0548H87.7066V18.3654H86.3763V19.4834H87.7066V24.388C87.7066 24.7457 87.7419 25.0339 87.8124 25.2526C87.883 25.4712 87.9913 25.6402 88.1374 25.7594C88.2836 25.8787 88.475 25.9607 88.7119 26.0054C88.9487 26.0501 89.2334 26.0725 89.566 26.0725H90.5486V24.9544H89.959C89.7575 24.9544 89.5937 24.947 89.4677 24.9321C89.3417 24.9172 89.2435 24.8849 89.1729 24.8352C89.1024 24.7855 89.0545 24.7159 89.0293 24.6265C89.0041 24.537 88.9915 24.4178 88.9915 24.2687V19.4834H90.5486V18.3654H88.9915ZM92.9064 22.2269C92.9064 21.7598 92.9694 21.3449 93.0954 20.9822C93.2214 20.6194 93.3952 20.3138 93.6169 20.0654C93.8386 19.8169 94.0981 19.6281 94.3954 19.4989C94.6927 19.3697 95.0076 19.3051 95.3402 19.3051C95.6728 19.3051 95.9877 19.3697 96.285 19.4989C96.5823 19.6281 96.8418 19.8169 97.0635 20.0654C97.2852 20.3138 97.459 20.6194 97.585 20.9822C97.711 21.3449 97.774 21.7598 97.774 22.2269C97.774 22.694 97.711 23.1089 97.585 23.4717C97.459 23.8344 97.2852 24.1375 97.0635 24.381C96.8418 24.6245 96.5823 24.8109 96.285 24.9401C95.9877 25.0693 95.6728 25.1339 95.3402 25.1339C95.0076 25.1339 94.6927 25.0693 94.3954 24.9401C94.0981 24.8109 93.8386 24.6245 93.6169 24.381C93.3952 24.1375 93.2214 23.8344 93.0954 23.4717C92.9694 23.1089 92.9064 22.694 92.9064 22.2269ZM91.5463 22.2262C91.5463 22.7927 91.6269 23.3195 91.7881 23.8064C91.9494 24.2934 92.1913 24.7183 92.5138 25.081C92.8363 25.4437 93.2343 25.727 93.708 25.9307C94.1816 26.1345 94.7259 26.2363 95.3406 26.2363C95.9654 26.2363 96.5122 26.1345 96.9808 25.9307C97.4494 25.727 97.845 25.4437 98.1675 25.081C98.49 24.7183 98.7318 24.2934 98.8931 23.8064C99.0543 23.3195 99.1349 22.7927 99.1349 22.2262C99.1349 21.6598 99.0543 21.1306 98.8931 20.6386C98.7318 20.1467 98.49 19.7193 98.1675 19.3566C97.845 18.9938 97.4494 18.7081 96.9808 18.4994C96.5122 18.2907 95.9654 18.1864 95.3406 18.1864C94.7259 18.1864 94.1816 18.2907 93.708 18.4994C93.2343 18.7081 92.8363 18.9938 92.5138 19.3566C92.1913 19.7193 91.9494 20.1467 91.7881 20.6386C91.6269 21.1306 91.5463 21.6598 91.5463 22.2262ZM100.601 18.3654V26.0725H101.886V22.6438C101.886 22.1469 101.937 21.7071 102.037 21.3245C102.138 20.9419 102.299 20.6164 102.521 20.3481C102.743 20.0797 103.035 19.876 103.398 19.7369C103.761 19.5977 104.199 19.5282 104.713 19.5282V18.1865C104.018 18.1666 103.443 18.3058 102.99 18.6039C102.536 18.9021 102.153 19.3642 101.841 19.9903H101.811V18.3654H100.601ZM110.835 21.4816H106.346C106.366 21.1834 106.431 20.9027 106.542 20.6393C106.653 20.3759 106.804 20.1449 106.996 19.9461C107.187 19.7473 107.416 19.5908 107.684 19.4765C107.951 19.3622 108.25 19.3051 108.583 19.3051C108.905 19.3051 109.2 19.3622 109.467 19.4765C109.734 19.5908 109.966 19.7449 110.163 19.9387C110.359 20.1325 110.515 20.3635 110.631 20.6318C110.747 20.9002 110.815 21.1834 110.835 21.4816ZM112.074 23.6275H110.805C110.694 24.1344 110.464 24.512 110.117 24.7605C109.769 25.009 109.323 25.1332 108.779 25.1332C108.356 25.1332 107.988 25.0636 107.675 24.9245C107.363 24.7853 107.106 24.599 106.904 24.3655C106.703 24.1319 106.557 23.8636 106.466 23.5605C106.375 23.2573 106.335 22.9368 106.345 22.5989H112.195C112.216 22.1318 112.173 21.6399 112.067 21.1231C111.961 20.6063 111.77 20.1293 111.492 19.692C111.215 19.2547 110.847 18.8945 110.389 18.6112C109.93 18.328 109.353 18.1864 108.658 18.1864C108.124 18.1864 107.633 18.2857 107.184 18.4845C106.736 18.6833 106.348 18.9615 106.02 19.3193C105.693 19.6771 105.438 20.0995 105.257 20.5864C105.075 21.0734 104.985 21.6101 104.985 22.1964C105.005 22.7828 105.093 23.3244 105.249 23.8213C105.405 24.3182 105.64 24.7456 105.952 25.1034C106.265 25.4611 106.65 25.7394 107.109 25.9382C107.567 26.1369 108.109 26.2363 108.734 26.2363C109.62 26.2363 110.356 26.0177 110.941 25.5804C111.525 25.1431 111.903 24.4922 112.074 23.6275Z" fill="#A6A6A6"/>
</svg>
