<svg width="39" height="40" viewBox="0 0 39 40" fill="none" xmlns="http://www.w3.org/2000/svg">
<path d="M38.9557 27.0255L38.6729 24.6309C38.2917 20.6268 36.8176 16.8046 34.4115 13.5815C32.3219 10.9182 29.5538 8.86652 26.3979 7.64194V0.721924L23.9089 1.00476C19.8684 1.36673 16.0091 2.84906 12.7653 5.28498C10.1195 7.40154 8.09903 10.1976 6.92001 13.374H0L0.282834 15.7687C0.644803 19.8092 2.12714 23.6685 4.56306 26.9124C6.67961 29.5581 9.4757 31.5786 12.6521 32.7576V39.6776L15.0845 39.3948C19.1233 39.0393 22.9827 37.5635 26.2282 35.1334C28.8705 33.0058 30.8898 30.2048 32.0734 27.0255H38.9557ZM23.5318 31.7583C21.5967 33.2326 19.3537 34.251 16.9701 34.7375V20.5015H12.6521V28.0437C10.8222 27.1409 9.20804 25.8547 7.91936 24.2726C6.44604 22.3251 5.43385 20.0686 4.95903 17.6731H19.195V13.374H11.6528C12.5513 11.5467 13.8384 9.93787 15.4239 8.66014C17.3601 7.17579 19.6116 6.15647 22.0045 5.68095V20.1055H26.3979V12.337C28.2278 13.2398 29.842 14.526 31.1306 16.1081C32.5445 18.0796 33.504 20.3399 33.9401 22.7264H19.8927V27.0255H27.3407C26.4429 28.8587 25.1559 30.4738 23.5695 31.7583" fill="#008C3C"/>
</svg>
