<svg width="60" height="60" viewBox="0 0 60 60" fill="none" xmlns="http://www.w3.org/2000/svg">
<path d="M18.0067 7.51821C22.8757 3.90183 27.5049 2.20977 33.5689 3.40891C40.2116 4.71706 45.4571 9.30981 47.0754 15.9975C48.1292 20.3485 46.5532 24.4057 44.1586 27.9794C42.7849 30.0317 41.2137 31.9039 40.9032 34.4538C40.508 37.6815 41.5618 42.4734 37.5489 43.4308C35.6389 43.8858 33.5172 43.2507 31.7013 44.0327C31.4943 44.1228 31.5272 44.8005 31.7671 44.8337C33.8418 45.0991 36.6739 45.0991 38.6356 44.3029C40.8985 43.3834 41.2889 40.7102 41.3548 38.4968C41.4301 35.762 41.5665 33.5011 43.1472 31.1597C44.3139 29.425 45.4994 27.8704 46.4215 25.9745C47.6964 23.3582 48.2374 20.4955 47.9034 17.5948C47.1507 11.073 43.293 5.6413 37.0549 3.35677C30.0265 0.764167 23.3321 1.81638 17.9596 7.12482C17.889 7.19591 17.9267 7.57983 18.0067 7.51821Z" fill="#474747"/>
<path d="M17.4095 7.75989C14.0317 10.4283 12.9544 14.9832 13.0015 19.1019C13.0579 23.9554 15.7065 26.8513 17.8517 30.9322C19.7288 34.5059 18.2187 38.7621 19.5312 42.516C19.9923 43.8431 20.8344 44.7104 22.2645 44.7294C25.1342 44.7626 27.9945 44.7768 30.8689 44.8668C31.25 44.8763 31.2312 43.5919 30.8407 43.6061C28.6672 43.7056 26.475 43.7009 24.3062 43.8573C21.6435 44.0469 20.2604 43.0373 19.7523 40.4163C19.1925 37.5393 19.8041 34.5865 19.0608 31.7284C18.1246 28.1358 15.0432 25.5669 13.9094 22.0453C12.2488 16.8885 14.6715 12.3574 17.4989 8.30022C17.5601 8.2149 17.5271 7.66984 17.4095 7.75989Z" fill="#474747"/>
<path d="M21.0882 44.5066C20.2931 45.137 20.105 47.3362 21.5774 47.3647C23.2475 47.3978 25.2751 46.6727 26.8699 46.1797C28.5165 45.6726 30.2242 45.8385 31.7861 45.0233C31.8472 44.9901 31.8425 44.7152 31.7626 44.7152C30.1489 44.6583 28.4083 45.2176 26.8511 45.6347C25.835 45.9048 24.8611 46.1987 23.8732 46.5684C23.4592 46.7248 20.2414 47.0661 21.234 45.3313C21.3093 45.2081 21.2999 44.3407 21.0882 44.5066Z" fill="#474747"/>
<path d="M22.1655 46.9048C20.4436 46.7816 20.1567 49.0377 21.5068 49.7724C22.9464 50.5544 25.8208 49.36 27.2557 48.995C29.2598 48.4832 31.6308 48.6159 33.442 47.6158C33.5502 47.5589 33.5455 47.0802 33.4044 47.0707C31.405 46.9191 29.2221 47.8101 27.2369 48.1514C26.216 48.3267 25.1904 48.7344 24.1837 48.9856C23.6756 49.0946 23.1581 49.1941 22.6453 49.2794C20.9188 49.5922 21.3516 47.9334 22.1984 47.303C22.2643 47.2556 22.2784 46.9143 22.1655 46.9048Z" fill="#474747"/>
<path d="M38.3723 44.7341C38.9792 44.6772 39.6755 45.0232 39.0027 45.6394C38.5558 46.047 37.8031 46.1323 37.2338 46.2224C36.1471 46.393 35.0557 46.4167 34.2089 47.2177C34.1524 47.2698 34.1242 47.6443 34.2371 47.6348C35.2392 47.5495 36.2836 47.2698 37.2527 46.9949C37.7843 46.8433 39.1909 46.5115 39.492 46.0043C40.0424 45.0706 39.6002 43.6819 38.3582 44.0516C38.1936 44.099 38.2218 44.7483 38.3723 44.7341Z" fill="#474747"/>
<path d="M21.8225 49.3506C20.7546 49.8672 20.3312 51.1943 21.2909 52.0901C22.1095 52.8485 23.3514 52.4977 24.2782 52.2228C25.5108 51.8531 26.7857 51.6446 28.0229 51.2938C28.2299 51.237 28.15 50.5355 28.0041 50.5734C26.7574 50.9099 25.4825 51.0948 24.2594 51.5261C23.5961 51.7583 22.9704 51.9574 22.2647 51.91C21.9966 51.8721 21.7519 51.7773 21.5308 51.6256C20.5852 51.0663 21.5026 50.3033 21.9072 50.0378C22.053 49.9336 22.0013 49.2653 21.8225 49.3506Z" fill="#474747"/>
<path d="M28.8694 50.8815C30.8453 51.2275 32.8118 49.9809 34.7876 49.8103C36.1237 49.6918 37.2716 49.8293 38.5606 49.3269C39.8402 48.8292 40.4282 46.2034 38.5606 46.3219C38.3442 46.3361 38.3818 47.1087 38.5418 47.194C40.7152 48.3884 35.992 48.8813 35.3145 48.924C32.8964 49.0757 31.1087 49.8103 28.86 50.5687C28.7848 50.5924 28.7848 50.8673 28.8694 50.8815Z" fill="#474747"/>
<path d="M21.9584 52.1138C20.3448 52.4551 20.9658 54.6827 22.0666 55.2562C23.2098 55.8534 26.5453 54.422 27.6979 54.0903C30.0736 53.4077 32.5387 53.0001 34.9239 52.3555C35.0838 52.3129 35.0697 51.7109 34.9098 51.7062C32.8869 51.6683 30.4876 52.6067 28.5117 53.1234C27.4673 53.3983 26.4183 53.5168 25.3786 53.8343C24.8987 53.9907 24.4189 54.1471 23.939 54.2988C23.7414 54.3509 23.5391 54.3983 23.3415 54.4505C22.3536 54.7301 21.9114 54.1471 22.0055 52.6921C22.1184 52.6352 22.0902 52.0854 21.9584 52.1138Z" fill="#474747"/>
<path d="M38.1941 49.2889C38.5564 49.5828 39.055 49.6681 39.3373 50.0378C39.5866 50.3648 38.2788 50.8388 38.0859 50.8767C37.6061 50.9762 37.1121 50.9336 36.6322 51.0189C36.2088 51.0947 35.569 51.1421 35.3009 51.4881C35.2303 51.5782 35.2021 51.8768 35.3103 51.9526C35.602 52.1469 35.9078 51.9905 36.2465 52.0332C36.7498 52.0948 37.2062 52.0711 37.7096 52.0095C38.434 51.9147 39.2009 51.7014 39.6007 51.0521C40.25 49.9951 39.0127 47.5494 38.1941 49.2747V49.2889Z" fill="#474747"/>
<path d="M25.3506 54.9813C27.8346 55.2941 30.4267 55.2088 32.9248 55.1519C34.1761 55.1235 35.4134 55.0145 36.6648 55.0714C37.314 55.0998 38.2737 55.1709 38.8571 54.8154C40.3719 53.8864 40.3201 51.2844 38.1514 51.2986C37.9632 51.2986 37.9962 52.0143 38.1702 52.0759C39.017 52.2086 39.3698 52.8248 39.2287 53.9338C38.6877 54.3889 37.8644 54.3888 37.2058 54.4125C36.0814 54.4552 34.943 54.4315 33.8139 54.4505C32.3414 54.4789 30.8689 54.531 29.3964 54.4979C27.9475 54.4647 26.729 54.2277 25.3506 54.7917C25.3036 54.8154 25.2989 54.9766 25.3506 54.9813Z" fill="#474747"/>
<path d="M25.346 55.1283C27.0443 56.1046 28.5168 57.6308 30.5115 57.9721C32.1675 58.2564 34.7079 56.299 35.7899 55.3178C35.8557 55.2562 35.884 54.8344 35.7569 54.8439C33.9222 54.9813 32.7179 56.6781 30.9067 56.991C28.9449 57.3275 27.3219 55.1425 25.346 55.0572V55.1283Z" fill="#474747"/>
<path d="M26.8607 44.1226C27.0912 40.7385 26.8889 37.3733 26.9454 33.9892C26.9924 31.2307 25.5105 29.7614 24.8895 27.1878C24.4614 25.4199 24.3721 23.1306 25.7928 21.7893C27.5428 20.1399 28.7613 22.5903 29.1141 23.9695C29.3305 24.8085 29.3917 25.728 29.2506 26.5811C29.0577 28.2637 28.3802 28.1926 27.2182 26.3773C27.2323 25.818 27.3453 25.2824 27.5711 24.78C28.065 23.4576 28.9777 22.1637 30.1585 21.3959C31.6592 20.4195 32.4402 22.4197 32.7554 23.505C32.9812 24.2918 33.0847 25.126 33.1458 25.9412C33.2117 26.8276 32.4966 29.3349 31.5793 27.6333C30.008 24.7089 34.289 18.8791 36.0673 23.1875C37.2575 26.074 35.8509 28.0125 33.9926 29.9368C33.4469 30.5008 33.047 31.4298 33.0094 32.2166C32.84 35.8946 33.3999 39.5773 33.0988 43.2742C33.0376 44.0326 33.7574 44.862 33.8327 43.7103C34.035 40.6342 33.9032 37.5061 33.6915 34.4347C33.5363 32.1739 34.6183 31.0269 35.992 29.5861C36.66 28.8846 36.8529 27.9035 36.9941 26.984C37.3939 24.3819 36.2037 17.9786 32.586 21.121C30.5443 22.8936 29.7022 26.728 31.4475 29.041C32.1438 29.9652 33.0376 29.5861 33.414 28.5054C33.9127 27.074 33.7292 25.3867 33.4187 23.9316C33.127 22.5618 32.793 20.8366 31.5416 20.0309C30.1679 19.1493 28.5402 21.4291 27.9333 22.3343C27.11 23.5619 25.3694 29.7235 28.4038 29.4581C29.5328 29.3585 29.768 27.0361 29.848 26.2493C29.9892 24.7942 29.6316 22.8841 28.9542 21.595C28.1826 20.1257 27.0912 19.5853 25.6328 20.5333C24.1745 21.4765 24.0992 23.8605 24.1274 25.3914C24.1651 27.3063 24.692 29.1121 25.6422 30.7568C26.729 32.6289 26.3432 35.0462 26.3997 37.1269C26.4561 39.364 26.4702 41.6059 26.3856 43.843C26.362 44.317 26.8089 44.881 26.8607 44.1226Z" fill="#474747"/>
<path d="M19.3666 36.2833C20.8767 41.2742 25.4447 41.6818 29.9751 41.2837C35.2723 40.8192 40.0849 39.4778 41.7127 33.795C41.7268 33.7571 41.6845 33.5864 41.6468 33.6765C39.6192 38.8996 35.7192 40.3642 30.5255 40.9614C25.9952 41.4827 21.0179 41.35 19.4325 36.1743C19.3995 36.0558 19.3525 36.2264 19.3666 36.2833Z" fill="#474747"/>
<path d="M19.8276 37.9042C19.8323 38.6152 19.536 39.3498 19.376 40.0371C19.2772 40.4447 19.089 41.0324 19.2584 41.4448L19.3196 41.4922C19.4654 41.3215 19.4372 40.9566 19.4748 40.7433C19.5501 40.2836 19.6771 39.8333 19.7759 39.3783C19.8418 39.0607 20.1475 38.1412 19.8465 37.8616L19.8276 37.9042Z" fill="#474747"/>
<path d="M21.2017 38.6247C20.8253 39.8191 20.3878 41.1035 20.3267 42.3643C20.3267 42.388 20.369 42.6723 20.4161 42.5633C20.5901 42.1462 20.6607 41.6865 20.7548 41.2504C20.9288 40.4826 21.1311 39.7195 21.3052 38.9517C21.3334 38.8664 21.2723 38.4019 21.2017 38.6247Z" fill="#474747"/>
<path d="M22.1798 39.8143C21.827 40.9566 21.2624 42.1794 21.3142 43.3975C21.3142 43.4449 21.3612 43.6677 21.413 43.5207C21.5823 43.0231 21.6247 42.478 21.7611 41.9661C21.9211 41.3642 22.128 40.7717 22.3021 40.1745C22.3303 40.0702 22.2504 39.5726 22.1798 39.8143Z" fill="#474747"/>
<path d="M23.9347 40.0893C23.3137 41.2268 22.6974 42.6819 22.8244 44.009C22.8385 44.1417 22.9232 44.2554 22.9562 44.0611C23.1679 42.8146 23.436 41.6865 24.0288 40.5585C24.0852 40.4495 24.01 39.9518 23.9347 40.0893Z" fill="#474747"/>
<path d="M25.6797 40.4163C25.1011 41.7007 24.3672 43.3217 24.5742 44.7673C24.5836 44.8242 24.6494 45.0185 24.6871 44.8574C24.8188 44.2839 24.8423 43.6962 24.9787 43.1179C25.1622 42.3453 25.4586 41.6012 25.7738 40.876C25.8208 40.7718 25.7362 40.2836 25.6797 40.4163Z" fill="#474747"/>
<path d="M27.3077 40.6248C26.7432 41.6818 26.3574 43.0136 26.3104 44.2175C26.3104 44.2459 26.3527 44.5872 26.4092 44.4545C26.5974 44.0232 26.6303 43.5207 26.7291 43.061C26.8749 42.3832 27.0866 41.7291 27.4018 41.113C27.4677 41.004 27.3877 40.4826 27.3077 40.6248Z" fill="#474747"/>
<path d="M28.9451 40.8476C28.4888 41.8666 27.9054 43.0136 27.9478 44.1606C27.9478 44.1796 28.0042 44.4687 28.0512 44.3407C28.1971 43.9426 28.2347 43.5113 28.3523 43.1036C28.5264 42.4922 28.7898 41.9045 29.0439 41.3263C29.0909 41.2125 29.0063 40.7101 28.9451 40.8476Z" fill="#474747"/>
<path d="M31.0098 40.3926C30.6146 41.1177 30.2994 41.8713 30.1018 42.6771C29.9842 43.1605 29.8384 43.8383 30.0548 44.3123C30.0783 44.3644 30.1112 44.3123 30.1159 44.2838C30.2335 43.7625 30.2241 43.2316 30.3653 42.7055C30.5346 42.0799 30.8075 41.4827 31.1086 40.9092C31.1791 40.7907 31.0945 40.2409 31.0098 40.3926Z" fill="#474747"/>
<path d="M32.7556 40.2883C32.1958 41.4353 31.6783 42.7766 31.5466 44.0516C31.5419 44.0895 31.5701 44.4924 31.6454 44.355C31.8853 43.9094 31.9512 43.3549 32.0876 42.8667C32.2852 42.1557 32.5392 41.4637 32.8544 40.7955C32.9109 40.677 32.8262 40.1461 32.7556 40.2883Z" fill="#474747"/>
<path d="M34.6136 39.985C34.0584 41.2173 33.4516 42.606 33.301 43.9568C33.2963 43.99 33.3245 44.3312 33.3857 44.2175C33.6444 43.7198 33.7338 43.1131 33.8985 42.5776C34.1243 41.8476 34.4019 41.1367 34.7029 40.44C34.75 40.3309 34.67 39.857 34.6136 39.985Z" fill="#474747"/>
<path d="M36.0347 39.6769C35.4654 41.023 34.7645 42.516 34.7127 43.9995C34.7127 44.0232 34.7551 44.336 34.8021 44.2175C35.0279 43.6487 35.0985 43.0231 35.2726 42.4354C35.5031 41.6344 35.8089 40.8571 36.1194 40.0845C36.1523 39.9897 36.0817 39.5631 36.0347 39.6769Z" fill="#474747"/>
<path d="M37.7608 38.7195C37.2763 40.3831 36.3777 41.9661 36.1049 43.6866C36.0907 43.772 36.1566 44.3075 36.246 44.0374C36.7964 42.3927 37.4174 40.7433 37.869 39.0702C37.8972 38.9754 37.8267 38.492 37.7608 38.7195Z" fill="#474747"/>
<path d="M40.1743 36.7051C39.2523 39.037 37.9538 41.44 37.8739 43.9995C37.8739 44.0469 37.9303 44.3644 37.9727 44.1843C38.5325 41.7292 39.3746 39.4778 40.259 37.1269C40.2919 37.0274 40.2167 36.5914 40.1743 36.7051Z" fill="#474747"/>
<path d="M41.2654 37.3734C40.5691 39.3072 39.6706 41.1983 39.0919 43.17C39.0778 43.2127 39.1014 43.5113 39.1531 43.4212C40.141 41.7149 40.7009 39.6342 41.3454 37.7763C41.3736 37.6815 41.303 37.2644 41.2654 37.3734Z" fill="#474747"/>
<path d="M27.7402 54.2087C27.505 54.9955 27.0533 55.9055 27.2133 56.7492C27.2227 56.8013 27.2556 56.8487 27.2791 56.7776C27.3873 56.4316 27.4015 56.0524 27.4955 55.7017C27.599 55.3083 27.7355 54.9244 27.8437 54.5357C27.8719 54.4457 27.806 53.9954 27.7402 54.2087Z" fill="#474747"/>
<path d="M29.1474 54.4978C28.898 55.242 28.5499 56.0619 28.5076 56.8487C28.5076 56.8677 28.517 57.1047 28.5781 57.0573C28.804 56.8819 28.8322 56.389 28.9075 56.1236C29.0251 55.7112 29.1474 55.3036 29.2791 54.896C29.312 54.7917 29.2321 54.2371 29.1474 54.4978Z" fill="#474747"/>
<path d="M30.5773 54.3272C30.1068 55.1567 29.5188 56.1709 29.5987 57.1615C29.5987 57.1758 29.627 57.3322 29.6693 57.2848C29.8857 57.0383 29.9186 56.479 30.0362 56.1662C30.2103 55.7112 30.4455 55.2752 30.6808 54.8486C30.7419 54.7348 30.6619 54.1803 30.5773 54.3272Z" fill="#474747"/>
<path d="M31.8854 54.6542C31.3302 55.5595 30.7469 56.6733 30.7845 57.7729C30.7845 57.7966 30.8269 58.0668 30.8786 57.9483C31.0574 57.5549 31.095 57.0857 31.2408 56.6733C31.429 56.1472 31.6972 55.6543 31.9841 55.1756C32.0547 55.0666 31.9747 54.5121 31.8854 54.6542Z" fill="#474747"/>
<path d="M33.2116 54.3083C32.5953 55.1946 32.0308 56.4222 32.219 57.5312C32.2284 57.5929 32.2707 57.6545 32.2942 57.5644C32.3977 57.19 32.4213 56.7966 32.5248 56.4174C32.68 55.8676 32.9482 55.3415 33.2681 54.8675C33.3621 54.7348 33.2398 54.2703 33.2116 54.3083Z" fill="#474747"/>
<path d="M34.4065 55.1377C34.0866 55.4742 33.8608 55.8533 33.9596 56.3368C33.9643 56.37 34.0019 56.4885 34.0396 56.4079C34.0913 56.2989 34.1196 56.1946 34.1948 56.0951C34.2795 55.9861 34.3783 55.8865 34.4771 55.7917C34.5665 55.7017 34.5477 55.4837 34.5335 55.3699C34.5288 55.3509 34.4865 55.0571 34.4065 55.1377Z" fill="#474747"/>
</svg>
