<svg width="120" height="40" viewBox="0 0 120 40" fill="none" xmlns="http://www.w3.org/2000/svg">
<path d="M54.6162 7.96672C53.869 6.78942 52.779 5.87538 51.3783 5.24828C49.9865 4.62413 48.3338 4.30762 46.4643 4.30762H38.8721V26.2563H43.1795V20.0208H46.4643C48.3367 20.0208 49.9894 19.7043 51.3783 19.0801C52.779 18.453 53.869 17.5331 54.6162 16.3469C55.3634 15.1637 55.7444 13.7556 55.7444 12.1642C55.7444 10.5521 55.3664 9.14107 54.6162 7.96672ZM51.4076 12.1642C51.4076 13.4835 50.9739 14.5099 50.1212 15.2169C49.2598 15.9298 47.9675 16.2907 46.2797 16.2907H43.1795V8.03772H46.2797C47.9675 8.03772 49.2598 8.3986 50.1212 9.11149C50.9739 9.81846 51.4076 10.8449 51.4076 12.1642Z" fill="#36AB4D"/>
<path d="M62.0594 22.5588V16.9326H71.0142V13.2942H62.0594V8.00814H72.3299V4.31058H57.752V26.2593H72.7577V22.5588H62.0594Z" fill="#36AB4D"/>
<path d="M89.4542 21.3904C88.2176 22.26 86.7965 22.7097 85.2024 22.7097C83.7695 22.7097 82.4685 22.3902 81.3374 21.7572C80.2093 21.1271 79.3126 20.2397 78.6797 19.1186C78.0438 17.9975 77.7244 16.7048 77.7244 15.282C77.7244 13.8562 78.0468 12.5636 78.6797 11.4425C79.3156 10.3214 80.2093 9.43394 81.3374 8.80387C82.4685 8.17381 83.7695 7.85138 85.2024 7.85138C86.6822 7.85138 88.0125 8.23593 89.1875 8.98136L91.7105 5.9464C91.1449 5.55593 90.5384 5.21576 89.8849 4.9377C88.4227 4.31651 86.7847 4 85.0207 4C82.8406 4 80.8452 4.49104 79.0841 5.45536C77.323 6.42264 75.9194 7.77743 74.9085 9.48422C73.9005 11.191 73.3877 13.1433 73.3877 15.282C73.3877 17.4207 73.8946 19.373 74.8938 21.0798C75.893 22.7866 77.2908 24.1414 79.0548 25.1086C80.8158 26.0759 82.8113 26.567 84.9914 26.567C86.7584 26.567 88.3993 26.2505 89.8732 25.6263C90.5765 25.3275 91.2328 24.9607 91.8335 24.5289L89.4542 21.3904Z" fill="#36AB4D"/>
<path d="M113.477 9.48422C112.466 7.78039 111.056 6.42264 109.284 5.45536C107.514 4.49104 105.501 4 103.303 4C101.105 4 99.0922 4.49104 97.3224 5.45536C95.5525 6.42264 94.1401 7.78335 93.1321 9.50197C92.1212 11.2176 91.6113 13.164 91.6113 15.282C91.6113 17.4 92.1241 19.3464 93.1321 21.062C94.143 22.7807 95.5525 24.1414 97.3224 25.1086C99.0922 26.073 101.105 26.564 103.303 26.564C105.501 26.564 107.514 26.073 109.284 25.1086C111.056 24.1414 112.466 22.7836 113.477 21.0798C114.488 19.373 115 17.4236 115 15.282C115 13.1404 114.488 11.191 113.477 9.48422ZM110.661 15.282C110.661 16.6871 110.338 17.9738 109.706 19.1038C109.07 20.2338 108.185 21.1271 107.077 21.7572C105.967 22.3872 104.695 22.7067 103.303 22.7067C101.911 22.7067 100.642 22.3872 99.5318 21.7572C98.4212 21.1271 97.5392 20.2338 96.9033 19.1038C96.2675 17.9738 95.9451 16.6871 95.9451 15.282C95.9451 13.8769 96.2675 12.5902 96.9033 11.4572C97.5392 10.3273 98.4241 9.43394 99.5318 8.80387C100.645 8.17381 101.914 7.85434 103.303 7.85434C104.695 7.85434 105.964 8.17381 107.077 8.80387C108.185 9.43394 109.07 10.3273 109.706 11.4572C110.338 12.5902 110.661 13.8769 110.661 15.282Z" fill="#36AB4D"/>
<path d="M42.4997 33.1191H40.2522V37.0001H38.8721V31.998H42.5056L42.4997 33.1191Z" fill="#36AB4D"/>
<path d="M51.1033 36.0269H49.0082L48.6184 37.0001H47.1885L49.3774 31.998H50.7575L52.9523 37.0001H51.493L51.1033 36.0269ZM50.693 34.9827L50.0543 33.3824L49.4155 34.9827H50.693Z" fill="#36AB4D"/>
<path d="M61.5671 32.2228C61.8952 32.3737 62.1531 32.5867 62.3318 32.8677C62.5106 33.1457 62.6014 33.4711 62.6014 33.8498C62.6014 34.2254 62.5135 34.5538 62.3318 34.8289C62.1531 35.1069 61.8952 35.3199 61.5671 35.4678C61.2359 35.6187 60.8491 35.6956 60.3979 35.6956H59.5364V37.003H58.1328V31.998H60.3979C60.8462 31.998 61.2359 32.072 61.5671 32.2228ZM60.9634 34.3881C61.1099 34.2639 61.1832 34.0834 61.1832 33.8498C61.1832 33.6161 61.1099 33.4356 60.9634 33.3055C60.8169 33.1753 60.6001 33.1132 60.3129 33.1132H59.5335V34.5774H60.3129C60.6001 34.5774 60.8169 34.5124 60.9634 34.3881Z" fill="#36AB4D"/>
<path d="M71.4656 36.0269H69.3705L68.9807 37.0001H67.5508L69.7397 31.9951H71.1198L73.3146 36.9971H71.8582L71.4656 36.0269ZM71.0553 34.9827L70.4166 33.3824L69.7807 34.9827H71.0553Z" fill="#36AB4D"/>
<path d="M83.7694 31.998V37.0001H82.3688V35.0478H80.4553V37.0001H79.0547V31.998H80.4553V33.8764H82.3688V31.998H83.7694Z" fill="#36AB4D"/>
<path d="M93.9169 33.1191H92.4019V37.0001H91.0218V33.1191H89.498V31.998H93.9169V33.1191Z" fill="#36AB4D"/>
<path d="M99.4023 31.998H100.782V34.9354L102.831 31.998H104.146V37.0001H102.766V34.0687L100.727 37.0001H99.4023V31.998Z" fill="#36AB4D"/>
<path d="M113.38 31.9951V36.9971H112V35.737H111.235L110.42 36.9971H108.949L109.954 35.5299C109.626 35.382 109.371 35.172 109.195 34.891C109.022 34.6129 108.935 34.2816 108.935 33.8941C108.935 33.5037 109.025 33.1664 109.204 32.8795C109.383 32.5926 109.641 32.3737 109.975 32.2228C110.312 32.069 110.702 31.9951 111.15 31.9951H113.38ZM110.347 33.8764C110.347 34.1278 110.417 34.3201 110.555 34.4532C110.696 34.5833 110.898 34.6484 111.162 34.6484H111.997V33.1102H111.176C110.625 33.1102 110.347 33.3646 110.347 33.8764Z" fill="#36AB4D"/>
<path d="M32.3937 26.3688L32.1564 24.3544C31.7051 20.5296 30.5008 17.4355 28.605 15.0069C26.8908 12.8061 24.6286 11.1881 21.8742 10.0936V4.28696L19.8787 4.52656C16.0928 4.97914 13.0249 6.1949 10.6192 8.11171C8.43908 9.84217 6.83624 12.1287 5.75205 14.9064H0L0.237349 16.9208C0.685675 20.7426 1.89293 23.8397 3.78586 26.2682C5.50298 28.469 7.76512 30.0871 10.5166 31.1815V36.9882L12.5121 36.7486C16.298 36.296 19.3659 35.0773 21.7716 33.1664C23.9517 31.433 25.5546 29.1494 26.6388 26.3718H32.3937V26.3688ZM19.571 30.3326C18.1059 31.4981 16.2862 32.3381 14.0915 32.8321V20.8727H10.5195V27.2414C8.94894 26.4309 7.63033 25.3719 6.59303 24.0408C5.43852 22.5618 4.60633 20.7278 4.11698 18.5093H15.9668V14.9034H9.65512C10.458 13.3179 11.507 11.9868 12.8256 10.9396C14.2908 9.77414 16.1075 8.93405 18.3052 8.44006V20.3995H21.8771V14.0308C23.4477 14.8413 24.7663 15.9003 25.8036 17.2284C26.9582 18.7074 27.7903 20.5444 28.2797 22.76H16.421V26.3658H22.7386C21.9357 27.9543 20.8867 29.2854 19.571 30.3326Z" fill="#36AB4D"/>
</svg>
