<svg width="100" height="100" viewBox="0 0 100 100" fill="none" xmlns="http://www.w3.org/2000/svg">
<path d="M12.7509 28.2963C14.9289 29.092 17.3186 28.6486 19.5449 28.3388C22.2976 27.9561 24.9898 27.9257 27.7667 27.8953C30.9853 27.865 34.1796 27.6888 37.3921 27.5491C38.0092 27.7313 38.6081 27.9439 39.201 28.1869C39.9754 28.2112 40.7498 28.2234 41.5302 28.2234C43.454 28.2294 45.384 28.0837 47.3078 27.9925C60.8293 27.3547 74.3387 28.9523 87.8843 28.4238C88.3018 28.4056 88.1989 26.5286 87.842 26.5711C74.4052 28.1748 60.7446 25.6174 47.2655 26.237C40.7195 26.5408 34.2824 26.4436 27.7304 26.3828C24.9535 26.3585 22.2613 26.3342 19.5026 26.6683C17.3004 26.9356 14.8623 27.4033 12.7086 26.6865C12.4787 26.6076 12.3093 28.1322 12.7509 28.2963Z" fill="#474747"/>
<path d="M87.2859 28.1504C88.1995 28.0897 89.0223 28.4056 89.5486 29.1952C89.96 29.8148 89.7059 30.6409 89.6999 31.3213C89.6999 31.4671 89.8995 32.846 90.202 32.2567C90.5287 31.6189 90.4803 30.7199 90.4621 30.0214C90.444 29.3289 90.329 28.6425 90.0568 28.0047C89.5668 26.8444 88.2297 27.057 87.2618 27.3C87.0742 27.3486 87.1166 28.1626 87.2859 28.1504Z" fill="#474747"/>
<path d="M89.784 30.0274C89.6086 32.0867 89.7296 34.1459 89.8687 36.2051C90.0623 39.0965 89.9171 41.9697 90.0623 44.849C90.0744 45.0798 90.2983 46.1854 90.5342 45.4564C91.1694 43.4701 90.9879 41.2712 90.9153 39.2059C90.8125 36.1504 90.4979 33.0525 90.1591 30.0153C90.0986 29.42 89.8385 29.4443 89.784 30.0274Z" fill="#474747"/>
<path d="M13.4054 27.4701C12.268 25.7024 10.4591 27.0995 9.80571 28.4966C9.41852 29.3288 9.23097 30.2582 9.13417 31.1694C9.08577 31.6432 9.07367 32.1231 9.07367 32.5969C9.07367 32.852 9.11602 33.1436 9.17047 33.3926C9.18862 33.4594 9.44272 34.1519 9.33987 33.8178C9.53952 34.4435 9.80571 33.6781 9.82386 33.423C9.75731 34.3524 9.87831 33.2711 9.89041 33.095C9.90856 32.8095 9.89646 32.524 9.90856 32.2385C9.93276 31.5703 10.0719 30.9143 10.3441 30.3007C10.6043 29.7115 11.0338 29.1891 11.6388 28.9462C12.2378 28.7032 12.8669 28.9036 13.3933 28.5027C13.6111 28.3326 13.5385 27.6766 13.4054 27.4701Z" fill="#474747"/>
<path d="M9.00014 31.7465C9.19374 36.0897 9.02434 40.4025 9.09694 44.7397C9.11509 45.8209 9.96207 46.5559 9.99837 45.0616C10.1194 40.6212 10.6276 35.622 9.33289 31.3091C9.18164 30.7989 8.99409 31.5825 9.00014 31.7465Z" fill="#474747"/>
<path d="M9.6415 46.0274C10.1073 50.5893 16.7199 51.622 20.253 52.3448C27.9303 53.912 35.6076 55.0601 43.4421 55.3334C43.9382 55.3517 43.914 53.2256 43.3937 53.2438C36.4545 53.4868 29.9872 52.4299 23.169 51.2879C19.2669 50.6318 11.4383 50.0608 9.89559 45.5962C9.7504 45.1831 9.6294 45.9059 9.6415 46.0274Z" fill="#474747"/>
<path d="M56.1285 55.1512C63.6485 56.2567 71.9005 54.2643 79.2329 52.6728C83.8066 51.6766 90.1046 50.1033 90.8608 44.6728C90.9031 44.3691 90.6611 42.3585 90.3163 43.379C89.1608 46.8171 88.3198 47.9651 85.1437 49.3137C82.8266 50.2977 80.2977 50.8262 77.8475 51.3486C70.624 52.8976 63.352 53.1831 56.1043 54.3676C55.9167 54.404 55.9349 55.1269 56.1285 55.1512Z" fill="#474747"/>
<path d="M12.0432 49.1254C11.8859 53.8755 11.9706 58.6318 11.9767 63.382C11.9827 67.6219 11.4382 72.2628 12.2791 76.4359C12.3275 76.6607 12.4364 76.6364 12.4848 76.4298C13.3016 72.6516 12.7208 68.3752 12.6784 64.5361C12.6179 59.4701 12.6482 54.3919 12.4788 49.3258C12.4546 48.6941 12.0795 48.202 12.0432 49.1254Z" fill="#474747"/>
<path d="M12.3339 76.4784C12.0375 77.7601 12.3823 78.9932 13.199 80.0198C13.6407 80.5786 14.2094 80.9856 14.8386 81.3015C15.1773 81.4716 15.5464 81.5809 15.9094 81.672C16.3994 81.7996 17.0165 81.7206 17.4703 81.9393C18.1418 82.2552 18.0752 79.4184 17.4158 79.7647C16.4841 80.2567 14.8567 79.467 14.1065 78.9385C13.193 78.3007 12.9933 77.2924 12.4005 76.442L12.3339 76.4784Z" fill="#474747"/>
<path d="M18.3898 81.909C29.0558 82.1033 39.7459 81.9697 50.4058 81.7753C55.9414 81.6721 61.4771 81.6964 67.0127 81.5809C69.7472 81.5202 72.4878 81.3987 75.2284 81.423C77.6726 81.4412 80.4858 81.8604 82.8271 81.1497C83.1296 81.0585 83.0933 79.9591 82.7968 79.868C80.7459 79.2544 78.4107 79.5703 76.275 79.5885C73.5708 79.6068 70.8665 79.7222 68.1622 79.8072C62.6326 79.9773 57.0969 80.196 51.5613 80.2749C40.4961 80.445 29.4248 80.3114 18.3596 80.5179C18.0208 80.5118 18.039 81.9029 18.3898 81.909Z" fill="#474747"/>
<path d="M87.4007 48.7731C87.0014 53.8877 86.8259 59.0814 86.8683 64.2142C86.8985 67.5369 85.9185 72.111 87.4612 75.2332C87.558 75.4276 87.6245 74.9781 87.6245 74.9416C87.6245 71.3638 87.7637 67.7678 87.685 64.1899C87.5701 59.1178 88.169 54.0274 87.8605 48.9675C87.8242 48.3418 87.4733 47.8619 87.4007 48.7731Z" fill="#474747"/>
<path d="M87.2185 74.4374C86.795 75.792 86.9584 77.0434 85.8573 78.1246C84.7562 79.2058 83.1107 78.7138 81.9249 79.6493C81.7374 79.8011 81.7555 80.4936 81.9491 80.6333C83.395 81.6964 85.4459 80.4632 86.3534 79.1633C87.2064 77.9302 87.6904 75.9621 87.3335 74.4799C87.3153 74.401 87.2609 74.3159 87.2185 74.4374Z" fill="#474747"/>
<path d="M35.9945 21.8087C35.9582 22.4769 36.049 23.1451 36.049 23.8133C36.049 24.5726 35.9643 25.344 35.9098 26.1033C35.8856 26.4435 35.8675 27.1178 36.17 27.3668C36.4543 27.6037 36.5511 26.7411 36.5571 26.6379C36.6055 25.5992 36.6539 24.5544 36.6297 23.5156C36.6176 23.0175 36.6539 21.7723 36.1881 21.4382C36.0369 21.3349 36.0006 21.748 35.9945 21.8087Z" fill="#474747"/>
<path d="M36.2367 22.7928C36.2428 22.0335 36.5574 21.2378 37.0595 20.6789C37.2955 20.4177 37.5859 20.2233 37.9186 20.0958C38.2937 19.9561 38.6688 20.0472 39.0136 19.8649C39.2556 19.7374 39.1891 18.729 38.9834 18.5832C38.1243 17.9879 36.993 19.0449 36.5574 19.7313C35.9887 20.6303 35.8737 21.7662 35.9282 22.805C35.9584 23.3517 36.2307 23.3517 36.2367 22.7928Z" fill="#474747"/>
<path d="M38.3422 19.8224C42.1113 20.5999 46.4974 19.9804 50.3451 19.95C54.701 19.9135 59.0691 19.6645 63.4068 20.0897C63.6912 20.1201 63.7517 18.3889 63.3645 18.3585C59.3716 18.0548 55.3726 18.1945 51.3736 18.1945C47.1871 18.1945 42.4017 17.6053 38.3059 18.4678C38.0215 18.5346 38.0518 19.7617 38.3422 19.8224Z" fill="#474747"/>
<path d="M61.6764 19.0935C61.9063 19.3182 62.1302 19.3668 62.4266 19.4822C62.8622 19.6523 63.2615 19.9013 63.6366 20.1686C64.2839 20.6364 64.9676 21.1648 65.0886 22.0031C65.1067 22.1428 65.2822 22.7138 65.4455 22.3372C65.6089 21.9545 65.5847 21.426 65.506 21.0312C65.3306 20.1625 64.9373 19.4883 64.1932 18.9902C63.5942 18.5893 62.2209 18.3402 61.6704 18.8808L61.6764 19.0935Z" fill="#474747"/>
<path d="M65.2397 20.7275C64.9553 20.8733 65.0219 21.6751 64.9977 21.9363C64.8948 23.1876 64.7799 24.4389 64.7496 25.6963C64.7375 26.1215 64.6831 26.9173 65.0279 27.2453C65.3667 27.5673 65.4333 26.1033 65.4393 26.0183C65.4514 24.8702 65.4696 23.7222 65.4575 22.5802C65.4514 22.1307 65.5845 21.1223 65.2518 20.7396L65.2397 20.7275Z" fill="#474747"/>
<path d="M38.7169 23.5157C38.6988 23.3395 38.6504 22.647 38.7169 23.5157C38.6927 23.1694 38.7048 23.5521 38.7048 23.6128C38.6927 23.8619 38.6444 24.1109 38.6081 24.36C38.5234 24.9978 38.4084 25.6599 38.4387 26.3038C38.4568 26.6197 38.4508 27.1846 38.723 27.4215C39.0315 27.6888 39.1223 26.6986 39.1344 26.6015C39.1949 25.9758 39.2493 25.3441 39.2735 24.7123C39.2917 24.1109 39.3945 23.1998 39.0315 22.6774C38.7411 22.2583 38.7048 23.4063 38.7169 23.5157Z" fill="#474747"/>
<path d="M38.7715 24.8885C38.7775 24.281 39.1889 23.8072 39.7153 23.5642C39.9875 23.4367 40.29 23.3759 40.5864 23.3334C40.901 23.2848 41.2217 23.3334 41.4758 23.1329C41.6815 22.9689 41.6573 22.1428 41.4455 21.991C40.8526 21.5536 39.6185 22.1307 39.1284 22.562C38.4508 23.1572 38.3843 24.1899 38.4992 25.016C38.5779 25.5384 38.7715 25.259 38.7715 24.8885Z" fill="#474747"/>
<path d="M40.2658 23.1451C43.9925 23.7525 48.0217 23.3273 51.7968 23.3638C53.5997 23.382 55.3965 23.303 57.1994 23.4002C58.7965 23.4853 59.94 23.8922 61.3738 23.1633L61.3798 22.9082C59.9763 21.8695 58.9115 22.0821 57.1691 22.1246C55.3602 22.1671 53.5694 22.0881 51.7666 22.0456C48.0278 21.9667 43.9078 21.6022 40.2476 22.4526C40.0964 22.4891 40.1145 23.1147 40.2658 23.1451Z" fill="#474747"/>
<path d="M61.7366 23.5885C61.8697 23.6554 61.906 23.7525 62.0633 23.7708C62.1419 23.7768 62.1782 23.6128 62.1903 23.5764C62.2932 23.2423 62.2811 22.9689 62.1661 22.6409C62.154 22.5984 62.1117 22.4405 62.033 22.4526C61.8515 22.4769 61.9483 22.5194 61.7547 22.6166C61.5672 22.7017 61.543 23.4974 61.7366 23.5885Z" fill="#474747"/>
<path d="M61.5918 23.5764C61.4708 23.3456 61.7491 23.8619 61.7914 23.9348C61.858 24.038 61.9063 24.1535 61.9305 24.2749C61.9305 24.0077 61.9245 23.9834 61.9003 24.196C61.8338 24.6394 61.6886 25.0585 61.6341 25.5081C61.5857 25.9454 61.5857 26.4192 61.7128 26.8444C61.8277 27.221 62.0576 27.2332 62.1423 26.8323C62.3359 25.9758 62.469 25.1071 62.4448 24.2264C62.4327 23.7768 62.3359 22.404 61.6462 22.4405C61.3679 22.4587 61.5192 23.4306 61.5918 23.5764Z" fill="#474747"/>
<path d="M43.4908 49.7875C43.2427 52.0411 43.152 54.5316 43.3577 56.7913C43.4908 58.2127 43.8719 59.4033 45.4691 59.5613C45.7413 59.5856 45.7837 58.1277 45.4328 58.1156C43.3819 58.0244 43.8174 55.4246 43.8114 53.9303C43.8053 52.5818 43.8356 51.2332 43.7025 49.8847C43.6904 49.66 43.5331 49.4231 43.4908 49.7875Z" fill="#474747"/>
<path d="M45.5712 59.3C45.9523 59.9864 49.0499 59.4761 49.8424 59.4883C51.5606 59.5126 53.2848 59.4579 54.9969 59.6098C55.3296 59.6402 55.3901 57.751 54.9485 57.7146C52.5164 57.4959 50.0058 57.5992 47.5798 57.7935C46.7086 57.8604 44.8634 58.0304 45.5712 59.3Z" fill="#474747"/>
<path d="M43.636 50.5589C43.4727 49.4838 44.84 49.095 45.6506 49.1011C45.941 49.1011 45.8805 47.625 45.6143 47.6554C44.8581 47.7404 44.0656 47.8984 43.6239 48.5848C43.146 49.3258 43.2549 50.2856 43.4606 51.0935C43.4787 51.1725 43.5513 51.2818 43.6058 51.1603C43.6905 50.9781 43.6663 50.7473 43.636 50.5589Z" fill="#474747"/>
<path d="M45.3778 48.6759C48.0034 50.4253 51.6152 48.3843 54.3981 49.5324C54.5494 49.5931 54.8821 47.619 54.3497 47.5886C53.043 47.5035 51.7846 47.5704 50.4839 47.6554C48.8504 47.7647 46.9205 47.4124 45.3838 47.953C45.2386 48.0016 45.2628 48.5969 45.3778 48.6759Z" fill="#474747"/>
<path d="M54.0293 48.9735C54.4649 49.1558 55.0033 49.4899 55.3118 49.8483C55.6627 50.2613 55.6083 50.7716 55.8321 51.2332C55.9047 51.3851 56.0136 51.3851 56.0802 51.2271C56.183 50.9781 56.1891 50.6805 56.183 50.4132C56.1649 49.6721 55.9773 48.8642 55.5054 48.275C55.3421 48.0685 55.1122 47.9409 54.8702 47.8498C54.5616 47.7404 54.2289 48.0138 53.9869 48.1535C53.8357 48.2446 53.872 48.9128 54.0293 48.9735Z" fill="#474747"/>
<path d="M55.8622 49.417C55.0455 51.3486 55.4327 53.8695 55.463 55.9105C55.463 56.0684 55.4811 56.9978 55.7775 56.9918C56.074 56.9857 56.0437 56.0563 56.0377 55.8984C55.9772 53.9363 55.838 52.0229 56.0437 50.0669C56.0498 49.9758 55.9711 49.1558 55.8622 49.417Z" fill="#474747"/>
<path d="M55.6935 56.5969C55.7298 56.8216 55.8266 56.1535 55.6572 56.4693C55.6149 56.5483 55.5181 56.6212 55.4455 56.6758C55.2942 56.7852 55.1974 56.9128 55.0159 56.9917C54.8163 57.0768 54.6953 57.1011 54.5622 57.2833C54.3686 57.5506 54.3746 57.9818 54.3807 58.2916C54.3867 58.5711 54.3867 59.0813 54.6106 59.2939C55.1732 59.8285 55.7843 58.6926 55.9113 58.2673C56.1291 57.5263 56.1472 56.6576 55.9053 55.9165C55.875 55.8254 55.7964 55.6675 55.7298 55.8315C55.633 56.0623 55.6572 56.36 55.6935 56.5969Z" fill="#474747"/>
<path d="M45.1421 51.4155C45.0272 52.8004 44.8275 54.1429 45.0272 55.5339C45.0393 55.6007 45.1421 56.3539 45.3599 56.1413C45.6382 55.868 45.5414 55.1755 45.4809 54.8414C45.5353 55.1634 45.7289 56.275 45.4809 54.8414C45.4143 54.4527 45.4022 54.0639 45.3841 53.6751C45.3538 52.9584 45.378 52.2355 45.3599 51.5187C45.3478 51.1968 45.1784 50.966 45.1421 51.4155Z" fill="#474747"/>
<path d="M45.3361 52.1626C45.3119 52.2416 45.2817 52.3144 45.2575 52.3934C45.2998 52.3387 45.3301 52.2719 45.3422 52.2051L45.3785 52.1322C45.4571 52.0229 45.5721 51.9439 45.6749 51.8589C45.7899 51.7556 45.929 51.6827 46.05 51.5916C46.1952 51.4823 46.2739 51.3304 46.4372 51.2393C46.5703 51.1664 46.5885 50.5468 46.4433 50.48C46.5159 50.7837 46.5401 50.8384 46.5098 50.6561L46.4433 50.48C46.3283 50.4253 46.2134 50.3706 46.0984 50.316C45.8685 50.2066 45.6023 50.322 45.4148 50.48C45.1788 50.6744 45.0699 50.9781 45.0215 51.2696C44.9671 51.5673 44.9187 52.199 45.1667 52.4481C45.2817 52.5453 45.3361 52.199 45.3361 52.1626Z" fill="#474747"/>
<path d="M46.0132 50.9477C47.0598 51.707 48.5481 51.4944 49.7943 51.464C51.0769 51.4337 52.3716 51.2939 53.6541 51.3425C53.8296 51.3486 53.8538 50.2856 53.6299 50.2492C53.0371 50.1641 52.4684 50.3038 51.8694 50.3524C51.1979 50.4071 50.4417 50.2492 49.7641 50.2249C48.5299 50.1823 47.0295 49.9333 46.0071 50.6926L46.0132 50.9477Z" fill="#474747"/>
<path d="M53.3997 51.2392C53.8172 51.3911 54.0471 51.707 54.1378 52.1261C54.1439 52.1625 54.2104 52.3691 54.2891 52.278C54.4101 52.1382 54.3859 51.8588 54.3859 51.6948C54.3859 51.1299 54.1439 50.1823 53.3876 50.4617C53.2303 50.5103 53.2485 51.1846 53.3997 51.2392Z" fill="#474747"/>
<path d="M53.993 51.2939C53.7933 52.6728 53.7691 54.1124 53.9446 55.4913C53.9688 55.7039 54.1382 55.9955 54.2108 55.6189C54.3257 54.9872 54.2592 54.3736 54.2229 53.7358C54.1866 52.9522 54.2531 52.1686 54.1684 51.385C54.1563 51.1724 54.0474 50.9537 53.993 51.2939Z" fill="#474747"/>
<path d="M45.1179 55.7769C45.1723 56.1049 45.2873 56.36 45.5837 56.5301C45.8076 56.6637 45.9709 56.8217 46.0616 56.4694C46.11 56.281 46.1585 55.6189 45.8741 55.546C45.6563 55.4914 45.4083 55.3942 45.2207 55.2788C45.0816 55.2059 45.1118 55.7283 45.1179 55.7769Z" fill="#474747"/>
<path d="M45.7774 56.7002C48.2518 57.6417 51.3796 55.6979 53.854 56.767L53.9145 56.7366C54.0173 56.5787 54.1202 56.4208 54.223 56.2628C54.3682 56.0442 54.3501 54.647 54.0839 54.8232C51.6518 56.4633 48.2457 54.6167 45.7532 55.7769C45.5596 55.868 45.5777 56.6273 45.7774 56.7002Z" fill="#474747"/>
<path d="M49.3528 52.8976C49.3044 53.5415 49.2923 54.1732 49.2258 54.8171C49.135 55.6129 48.9959 56.4815 49.3226 57.2469C49.4496 57.5384 49.6372 57.7025 49.8671 57.417C50.3813 56.8034 50.1877 55.0601 50.1575 54.2704C50.1333 53.663 50.1151 52.7883 49.6856 52.3145C49.4738 52.0897 49.3589 52.8429 49.3528 52.8976Z" fill="#474747"/>
<path d="M45.1968 42.7108C44.7491 44.1869 44.9911 46.1125 45.0698 47.6311C45.0758 47.7829 45.094 48.5544 45.3723 48.5483C45.7111 48.5422 45.6264 47.546 45.6143 47.3699C45.5054 45.8452 45.7171 44.1869 45.336 42.7047C45.3118 42.5711 45.2331 42.5954 45.1968 42.7108Z" fill="#474747"/>
<path d="M45.1784 43.1967C48.1489 43.9682 51.5792 43.4397 54.6163 43.3304C54.8038 43.3243 54.7857 42.4374 54.5921 42.3827C53.1038 41.9758 51.5187 42.3038 50.0002 42.3402C48.3788 42.3767 46.7575 42.1033 45.1603 42.4435C44.9909 42.4739 45.0151 43.1542 45.1784 43.1967Z" fill="#474747"/>
<path d="M54.3863 42.5407C54.0475 43.1907 53.9991 44.0957 53.9568 44.8125C53.9023 45.7844 53.9144 46.7442 54.0536 47.71C54.0657 47.7829 54.1867 48.3418 54.3682 48.1535C54.6162 47.8923 54.5557 47.2666 54.5255 46.9446C54.3984 45.6447 54.5678 44.3873 54.592 43.0874C54.592 43.0267 54.5255 42.2734 54.3863 42.5407Z" fill="#474747"/>
<path d="M45.0456 58.9234C44.7915 60.7943 44.7129 62.9143 44.8581 64.8034C44.8641 64.8885 44.9912 65.7024 45.2332 65.4716C45.4994 65.2165 45.4389 64.5908 45.4086 64.2749C45.4449 64.6273 45.5599 65.8664 45.4086 64.2749C45.3542 63.7039 45.4268 63.1269 45.4389 62.5498C45.4631 61.3774 45.457 60.1929 45.2997 59.0266C45.2634 58.7837 45.1001 58.5225 45.0456 58.9234Z" fill="#474747"/>
<path d="M44.9969 65.7389C46.4126 66.1884 48.0158 65.7632 49.4799 65.666C51.1678 65.5506 52.8557 65.4594 54.5436 65.4108C54.7372 65.4048 54.7191 64.4389 54.5194 64.4389C51.3735 64.4025 48.0944 64.5179 44.9788 64.9796C44.8094 65.0038 44.8396 65.6903 44.9969 65.7389Z" fill="#474747"/>
<path d="M54.1684 59.0327C53.993 60.7032 54.1079 62.3858 54.1805 64.0623C54.1866 64.2021 54.1926 65.0464 54.4648 65.0403C54.731 65.0343 54.7068 64.1899 54.7008 64.0502C54.6221 62.4101 54.5677 60.77 54.3922 59.136C54.362 58.9052 54.2108 58.65 54.1684 59.0327Z" fill="#474747"/>
<path d="M12.1461 55.5582C17.4821 57.1132 22.5822 59.3608 27.9908 60.6728C33.5324 62.0214 39.2738 62.0274 44.9304 62.2583C45.0695 62.2643 45.0574 61.7237 44.9183 61.7359C39.4129 62.2643 33.363 61.4382 27.9787 60.2659C22.558 59.0874 17.4761 56.682 12.134 55.1998C12.0614 55.1816 12.0372 55.5278 12.1461 55.5582Z" fill="#474747"/>
<path d="M54.2652 62.0821C65.2941 62.8961 77.3938 60.0897 87.4427 55.6554C87.5758 55.5946 87.5274 55.0479 87.3701 55.1148C82.2035 57.3441 76.8796 58.9538 71.3742 60.0836C65.6934 61.2499 60.0065 61.4321 54.2591 61.9242L54.2652 62.0821Z" fill="#474747"/>
<path d="M17.4519 34.8626C15.7035 34.9173 15.2921 33.9636 16.2178 32.0016C16.6292 31.9105 17.0466 31.8619 17.4701 31.8558C18.2566 31.8072 19.0552 31.8983 19.8416 31.9226C22.9815 32.0077 26.1275 31.9955 29.2673 32.0866C35.4201 32.2689 41.5546 32.5058 47.7074 32.4815C53.7996 32.4572 59.9523 32.6516 66.0385 32.3357C71.4108 32.0563 76.8073 30.4222 82.1735 30.483C83.329 30.4344 83.8191 31.2241 83.6436 32.852C83.1475 33.1193 82.6333 33.3258 82.1009 33.4777C80.9091 33.8604 79.7173 34.1033 78.4831 34.2795C75.8574 34.6622 73.1471 34.5468 70.5033 34.4678C64.7499 34.2916 58.9843 34.2613 53.2248 34.243C47.0782 34.2188 40.9678 34.6622 34.8272 34.8566C28.2994 35.0631 21.7534 33.6174 15.2558 34.1459C15.1106 34.158 15.1227 34.6986 15.2679 34.7047C23.3445 34.9781 31.3364 35.707 39.4251 35.2635C47.4714 34.8201 55.4875 34.8323 63.5459 34.8748C70.0617 34.9112 76.9041 35.7556 83.1717 33.5627C85.755 32.6576 84.1579 30.2218 82.1675 29.9727C79.681 29.6569 76.5592 30.5984 74.103 30.9203C69.862 31.4731 65.6513 31.9712 61.368 32.0198C53.37 32.117 45.3661 32.0866 37.3681 31.8558C33.4962 31.7465 29.6243 31.5703 25.7463 31.4792C22.679 31.4063 19.2548 30.9689 16.2117 31.4853C13.5014 31.9408 15.1046 35.3182 17.464 35.0874C17.5124 35.0752 17.5064 34.8687 17.4519 34.8626Z" fill="#474747"/>
<path d="M13.0593 49.7693C13.4707 49.1254 13.0956 50.0001 13.0169 50.2795C12.8838 50.7655 12.7205 51.2514 12.6297 51.7495C12.5269 52.3023 11.323 54.6895 12.4119 55.0176C12.4785 55.0358 12.4422 54.7807 12.4301 54.7564C11.9582 53.8634 12.7749 52.9583 12.8475 52.0836C12.8778 51.6827 13.029 51.2697 13.1198 50.8748C13.1984 50.5225 13.5009 49.7814 13.2589 49.4413L13.2468 49.4352C13.144 49.4656 13.0835 49.6235 13.0411 49.7025L13.0593 49.7693Z" fill="#474747"/>
<path d="M14.9476 50.0973C14.6693 50.6197 12.7697 56.1292 13.8526 56.117C13.9192 56.117 13.895 55.9044 13.8587 55.874C13.3505 55.4428 14.2277 53.262 14.3729 52.7518C14.6088 51.9317 14.9174 51.0996 15.0142 50.2491C15.0202 50.2248 14.99 50.0183 14.9476 50.0973Z" fill="#474747"/>
<path d="M16.7076 50.5346C16.75 51.9986 15.9877 53.5415 15.4976 54.89C15.2193 55.6554 14.693 56.6333 14.9168 57.4716C14.935 57.5384 14.9773 57.6781 15.0499 57.5749C15.1588 57.423 15.2314 57.2529 15.3161 57.0828C15.3343 57.0464 15.3343 56.7791 15.2738 56.8277C15.183 56.9067 15.0923 56.9735 14.9894 57.0342C15.0257 57.1314 15.056 57.2286 15.0923 57.3258C15.0741 56.8642 15.419 56.2142 15.5642 55.7768C15.8062 55.0418 16.0542 54.3068 16.2841 53.5658C16.5866 52.5695 16.8226 51.5794 16.756 50.5346C16.75 50.4496 16.7076 50.4496 16.7076 50.5346Z" fill="#474747"/>
<path d="M18.9643 51.4215C17.6455 53.0676 16.8469 55.8862 17.1494 57.9818C17.1494 57.994 17.1917 58.1944 17.2401 58.1337C17.3974 57.9393 17.5487 57.7388 17.706 57.5445L17.6818 57.3379C17.5184 57.4594 17.3551 57.587 17.1917 57.7146C17.222 57.8057 17.2522 57.8907 17.2885 57.9818C17.4035 55.6371 18.196 53.7176 19.0006 51.5551L18.9643 51.4215Z" fill="#474747"/>
<path d="M20.7128 51.9257C20.0291 53.9242 19.1822 56.0381 19.037 58.1641C19.0309 58.2431 19.1096 58.7108 19.2003 58.4435C19.3515 57.9879 19.5814 57.6296 19.7871 57.2104C19.8053 57.1679 19.7932 56.9553 19.7448 57.016C19.5149 57.3441 19.2789 57.6417 19.0733 57.9879C19.1156 58.1398 19.158 58.2917 19.2003 58.4435C19.775 56.3479 20.3982 54.155 20.7491 52.0107C20.7551 51.9925 20.737 51.8589 20.7128 51.9257Z" fill="#474747"/>
<path d="M22.9452 52.2233C22.6609 53.1405 19.9021 58.4921 21.5356 59.057C21.6082 59.0813 21.5719 58.7715 21.5537 58.7411C21.0274 57.7206 21.8078 56.0501 22.1345 55.0539C22.4249 54.1671 22.7153 53.2741 22.9936 52.3812C23.0118 52.3326 22.9755 52.1139 22.9452 52.2233Z" fill="#474747"/>
<path d="M25.3166 52.6667C24.881 53.2924 22.1404 58.8262 23.4593 59.1968C23.5259 59.215 23.5017 58.9416 23.4775 58.9113C23.1326 58.4374 23.9373 56.6819 24.1067 56.1778C24.4515 55.1694 24.8508 54.1125 25.4316 53.2134C25.5042 53.098 25.4316 52.5027 25.3166 52.6667Z" fill="#474747"/>
<path d="M27.5494 52.8125C26.6722 54.155 26.0672 55.71 25.6558 57.2651C25.5046 57.8482 25.0024 59.7495 25.674 60.1869C25.7466 60.2355 25.7405 59.9864 25.7405 59.9621C25.5106 57.7389 26.5149 55.2605 27.6644 53.3957C27.7491 53.262 27.6644 52.6364 27.5494 52.8125Z" fill="#474747"/>
<path d="M29.3037 53.2742C28.6625 54.6591 28.0817 56.0684 27.6945 57.5506C27.4888 58.3402 27.0955 59.7677 27.5735 60.5149C27.6219 60.5938 27.6582 60.4784 27.6703 60.4359C27.8215 59.3972 27.8276 58.4192 28.1119 57.3865C28.4447 56.1838 28.9347 55.0297 29.4308 53.8877C29.4973 53.7419 29.3884 53.0919 29.3037 53.2742Z" fill="#474747"/>
<path d="M31.3904 53.9241C30.2773 55.5521 29.0612 58.2491 29.4726 60.284C29.4908 60.3691 29.5513 60.448 29.5876 60.3265C29.8417 59.5187 29.8417 58.6136 30.0655 57.7814C30.3741 56.6272 30.8701 55.5217 31.5175 54.5194C31.5961 54.3918 31.5114 53.748 31.3904 53.9241Z" fill="#474747"/>
<path d="M33.1271 54.4526C32.4374 56.3903 31.1004 58.5285 31.2153 60.6485C31.2153 60.6728 31.2758 60.9947 31.3303 60.855C31.6751 60.0046 31.784 59.0509 32.0925 58.1701C32.4737 57.0889 32.9274 56.0441 33.2965 54.9568C33.3449 54.8231 33.242 54.1185 33.1271 54.4526Z" fill="#474747"/>
<path d="M35.5347 54.3554C34.5365 56.2628 33.8166 58.5346 33.4354 60.6485C33.4233 60.7153 33.4838 61.2863 33.5867 61.0859C34.0102 60.2415 34.1735 59.2393 34.4337 58.3342C34.7603 57.2043 35.1415 56.0988 35.6799 55.054C35.7646 54.896 35.6436 54.1489 35.5347 54.3554Z" fill="#474747"/>
<path d="M37.3136 54.4223C36.3517 56.6212 35.0631 59.1239 34.9058 61.5597C34.9058 61.5901 34.9421 61.9364 35.0086 61.8088C35.4442 61.0252 35.5652 60.0168 35.8435 59.1664C36.3033 57.7511 36.8599 56.3722 37.4286 54.9994C37.483 54.8597 37.3862 54.2583 37.3136 54.4223Z" fill="#474747"/>
<path d="M39.8543 54.3433C38.8258 56.4268 37.7732 58.6986 37.5856 61.0494C37.5796 61.1345 37.6824 61.6629 37.7611 61.3653C38.3479 59.1664 38.9892 57.1254 39.9935 55.0722C40.0842 54.9021 39.9572 54.1367 39.8543 54.3433Z" fill="#474747"/>
<path d="M41.7905 54.7321C41.0343 56.1109 40.3991 57.5445 39.909 59.0327C39.6791 59.7313 39.2435 60.9036 39.5823 61.6387L39.6307 61.6569C39.7699 61.5536 39.7578 61.2985 39.7759 61.1588C39.8546 60.527 40.0421 59.9196 40.2236 59.3122C40.6471 57.9333 41.2461 56.5969 41.9055 55.3213C41.9781 55.1876 41.8813 54.5559 41.7905 54.7321Z" fill="#474747"/>
<path d="M43.8593 55.4914C42.9518 57.4352 41.2518 59.9439 41.639 62.1975C41.6511 62.2704 41.6995 62.3372 41.7358 62.234C42.0564 61.2499 42.1895 60.2537 42.5828 59.2696C43.0063 58.2127 43.5266 57.2043 43.9984 56.1717C44.071 56.0138 43.95 55.2909 43.8593 55.4914Z" fill="#474747"/>
<path d="M44.6699 57.1618C43.7322 58.7229 42.3407 61.0677 42.7642 62.9932C42.7703 63.0175 42.8126 63.133 42.8368 63.054C43.1151 62.3251 43.1272 61.4989 43.3692 60.7457C43.708 59.6827 44.2283 58.6804 44.7788 57.7206C44.8575 57.5931 44.7728 56.9978 44.6699 57.1618Z" fill="#474747"/>
<path d="M45.3299 59.6463C44.6462 60.521 44.0352 61.5294 43.7266 62.6045C43.7145 62.641 43.7266 62.9933 43.7932 62.9265C44.1017 62.6288 44.2832 62.1975 44.4829 61.827C44.7551 61.3167 45.0576 60.8308 45.4085 60.3752C45.5356 60.2051 45.3783 59.5795 45.3299 59.6463Z" fill="#474747"/>
<path d="M56.546 54.4891C55.9108 56.8702 54.9307 59.379 54.6887 61.8391C54.6826 61.8877 54.7068 62.4162 54.846 62.3068C55.1666 62.0639 54.973 62.1975 55.3058 61.7844C55.3421 61.7419 55.3542 61.4078 55.2816 61.4321C55.1485 61.4807 54.9428 61.584 54.7976 61.5475C54.8339 61.7662 54.8641 61.9849 54.9004 62.2036C55.2816 60.6121 55.693 59.0388 56.1286 57.4655C56.3827 56.5422 56.7214 55.4913 56.5883 54.5255C56.5883 54.5012 56.5641 54.4222 56.546 54.4891Z" fill="#474747"/>
<path d="M58.9297 54.3798C57.5382 56.1474 55.8442 59.7617 56.6852 62.076C56.7336 62.2097 56.782 62.0457 56.782 61.991C56.9393 59.5005 57.514 57.1011 59.0023 55.0479C59.1112 54.89 58.9841 54.3069 58.9297 54.3798Z" fill="#474747"/>
<path d="M60.1462 54.6895C59.8074 56.3053 59.154 57.8482 58.7245 59.4397C58.543 60.1079 58.1679 61.2742 58.6277 61.9059C58.6942 61.9971 58.6942 61.7237 58.6882 61.6933C58.4764 60.6121 59.1903 59.0874 59.5049 58.073C59.8135 57.0707 60.1462 56.0745 60.3458 55.0479C60.3821 54.8718 60.243 54.2339 60.1462 54.6895Z" fill="#474747"/>
<path d="M61.9365 54.3858C60.9262 56.3782 59.3956 58.8019 59.5468 61.1345C59.5468 61.1527 59.5952 61.4078 59.6376 61.2985C60.0369 60.3084 60.176 59.221 60.5753 58.2127C61.0109 57.1254 61.5493 56.0806 62.0696 55.0297C62.1422 54.8778 62.0333 54.1975 61.9365 54.3858Z" fill="#474747"/>
<path d="M63.201 54.7746C62.3358 57.2469 60.8839 59.7131 60.654 62.3554C60.654 62.3919 60.7084 62.7442 60.7629 62.6106C61.265 61.3592 61.5614 60.0229 62.0454 58.7594C62.4931 57.5992 62.965 56.4572 63.3643 55.2787C63.4127 55.1451 63.3159 54.4466 63.201 54.7746Z" fill="#474747"/>
<path d="M64.5016 55.3517C63.6909 57.3988 62.4688 59.4641 62.0998 61.6509C62.0937 61.6995 62.124 62.1368 62.2087 61.991C62.7048 61.177 62.9286 60.1626 63.2916 59.2758C63.7393 58.1824 64.2052 57.095 64.6286 55.9895C64.6891 55.8376 64.5742 55.1755 64.5016 55.3517Z" fill="#474747"/>
<path d="M66.2562 55.0114C65.2701 57.0038 64.1085 59.2878 64.0117 61.5535C64.0117 61.5839 64.0722 61.9788 64.1267 61.833C64.4352 61.0372 64.5623 60.1747 64.8285 59.3607C65.2399 58.0972 65.8086 56.8884 66.3893 55.6978C66.468 55.5338 66.353 54.817 66.2562 55.0114Z" fill="#474747"/>
<path d="M68.1804 54.2096C66.8978 56.3721 65.839 58.9902 65.4579 61.4868C65.4519 61.5354 65.4942 61.9727 65.5668 61.827C66.081 60.7275 66.3049 59.4579 66.7163 58.3099C67.1398 57.1193 67.6722 55.9712 68.3134 54.8778C68.3981 54.732 68.2892 54.0213 68.1804 54.2096Z" fill="#474747"/>
<path d="M69.6196 54.7077C68.6335 56.7062 67.6231 58.9295 67.3751 61.1648C67.369 61.2134 67.4235 61.669 67.49 61.5172C67.8228 60.6971 67.9861 59.8042 68.2584 58.9598C68.6577 57.7207 69.184 56.524 69.7466 55.3516C69.8192 55.1998 69.7103 54.5255 69.6196 54.7077Z" fill="#474747"/>
<path d="M71.2288 54.4162C70.1156 56.524 69.0448 58.9963 68.8209 61.3896C68.8209 61.4261 68.8633 61.7784 68.9238 61.6447C69.2989 60.8125 69.432 59.8528 69.6982 58.9781C70.1156 57.5992 70.6843 56.2749 71.3377 54.9932C71.4042 54.8657 71.3135 54.2582 71.2288 54.4162Z" fill="#474747"/>
<path d="M72.9839 54.7199C72.6391 55.4549 72.4213 56.2203 72.2217 57.0039C71.9615 58.0426 71.5622 58.9963 71.2295 60.0107C71.2174 60.0533 71.2234 60.4542 71.3021 60.3934C71.8042 59.9804 71.9555 59.136 72.1309 58.5347C72.4455 57.4595 72.627 56.3722 73.0989 55.3456C73.1715 55.1937 73.0626 54.5498 72.9839 54.7199Z" fill="#474747"/>
<path d="M75.6996 53.0799C74.5803 55.2241 73.6366 57.7693 73.1465 60.1383C73.1344 60.1991 73.1526 60.7215 73.2494 60.5635C73.7939 59.6888 73.9996 58.5408 74.3141 57.5689C74.7316 56.2629 75.2095 54.9933 75.8327 53.7723C75.9053 53.6144 75.7964 52.8916 75.6996 53.0799Z" fill="#474747"/>
<path d="M77.7815 53.0859C77.116 54.8657 76.1178 56.6941 75.8516 58.5893C75.8455 58.6379 75.8758 59.1239 75.9665 58.9659C76.4021 58.2066 76.5776 57.259 76.8861 56.439C77.2189 55.546 77.5758 54.6652 77.9025 53.7662C77.963 53.6022 77.8481 52.9097 77.7815 53.0859Z" fill="#474747"/>
<path d="M79.2215 52.4542C78.3141 54.5741 77.0859 56.7974 76.977 59.1421C76.977 59.1725 77.0315 59.5491 77.0799 59.4094C77.4308 58.4435 77.6183 57.4291 77.9632 56.4572C78.3685 55.3213 78.8767 54.2218 79.3365 53.1102C79.403 52.9583 79.2941 52.278 79.2215 52.4542Z" fill="#474747"/>
<path d="M81.1507 52.1687C80.4005 54.3798 79.1723 56.6151 79.0574 58.9781C79.0574 59.0085 79.1118 59.3851 79.1602 59.2454C79.5656 58.1277 79.7894 56.9492 80.1887 55.8255C80.5578 54.7807 80.951 53.7541 81.2717 52.6911C81.308 52.5817 81.1991 52.0107 81.1507 52.1687Z" fill="#474747"/>
<path d="M82.8993 51.6402C81.7983 53.6143 81.157 56.032 80.8121 58.2552C80.8061 58.3099 80.8484 58.8019 80.9271 58.644C81.3203 57.8421 81.4474 56.8945 81.6591 56.032C81.9798 54.7381 82.3912 53.4868 83.0203 52.3083C83.105 52.1626 83.0022 51.4579 82.8993 51.6402Z" fill="#474747"/>
<path d="M84.3275 51.7191C83.904 53.9727 82.5367 56.1109 82.7484 58.4617C82.7545 58.5164 82.815 58.7047 82.8452 58.5528C83.2506 56.3782 84.1157 54.3372 84.4908 52.1625C84.515 52.0411 84.388 51.3911 84.3275 51.7191Z" fill="#474747"/>
<path d="M86.1057 50.8748C85.2768 52.8551 84.448 55.0054 84.1757 57.1436C84.1697 57.1922 84.2181 57.6538 84.2786 57.502C85.0832 55.5703 85.4341 53.4321 86.2145 51.4701C86.269 51.3365 86.1722 50.7169 86.1057 50.8748Z" fill="#474747"/>
<path d="M87.219 51.6281C86.4264 53.3471 86.1421 55.4793 85.9606 57.3502L86.0211 57.6175C86.3357 57.1315 86.3599 56.4876 86.4506 55.9288C86.6503 54.6957 86.8197 53.4747 87.346 52.3327C87.4186 52.1687 87.3037 51.4458 87.219 51.6281Z" fill="#474747"/>
<path d="M12.709 71.8619C12.3823 82.4799 30.6287 78.2886 36.8843 77.9849C47.6772 77.4625 58.6638 76.6424 69.4508 77.5232C73.4981 77.8573 77.8903 78.4222 81.6897 76.6728C84.7449 75.2696 86.5538 71.868 87.9815 69.013C88.0481 68.8854 87.9634 68.2719 87.8484 68.4724C86.2634 71.1876 84.8779 73.9636 82.2039 75.7738C78.943 77.9788 74.212 77.3349 70.5337 77.0676C61.2774 76.3934 52.0392 76.8065 42.7708 77.1891C37.0053 77.4321 31.276 77.991 25.5166 78.2765C20.9791 78.5012 12.7029 78.4465 12.9026 71.9894C12.9086 71.7829 12.7211 71.5156 12.709 71.8619Z" fill="#474747"/>
<path d="M13.3382 75.0752C13.0599 76.2536 12.5396 77.3713 12.3642 78.5741C12.3581 78.6348 12.4126 78.9811 12.4791 78.7988C12.8723 77.6811 13.2716 76.5452 13.5439 75.3911C13.5862 75.2149 13.435 74.6804 13.3382 75.0752Z" fill="#474747"/>
<path d="M14.4815 76.4967C14.1004 77.5354 13.7011 78.6956 13.7555 79.8133C13.7555 79.874 13.81 80.0988 13.8765 79.9469C14.0399 79.5521 14.0883 79.1147 14.179 78.6956C14.3061 78.1246 14.4875 77.5718 14.6811 77.0251C14.7416 76.8611 14.6085 76.1383 14.4815 76.4967Z" fill="#474747"/>
<path d="M16.0243 76.8247C15.3528 77.9242 14.8567 79.4063 14.8748 80.7063C14.8748 80.7488 14.9232 81.0343 15.0079 80.9067C15.2378 80.5483 15.2741 80.0684 15.3649 79.6554C15.5403 78.89 15.7884 78.1489 16.1756 77.4686C16.2603 77.3046 16.1574 76.606 16.0243 76.8247Z" fill="#474747"/>
<path d="M17.6819 77.1224C17.0285 78.2704 16.363 79.6979 16.2783 81.0282C16.2783 81.0525 16.3025 81.3684 16.3812 81.2894C16.726 80.9371 16.7926 80.3053 16.9378 79.8498C17.1798 79.1026 17.458 78.3737 17.815 77.6751C17.8815 77.5415 17.7908 76.9341 17.6819 77.1224Z" fill="#474747"/>
<path d="M19.8841 77.5719C19.0674 78.7382 18.0329 79.947 18.051 81.4656C18.051 81.5081 18.0873 81.7511 18.166 81.6417C18.5229 81.1315 18.6318 80.3175 18.8859 79.7404C19.1824 79.0601 19.5272 78.3555 19.9144 77.7237L19.8841 77.5719Z" fill="#474747"/>
<path d="M21.4083 78.0578C20.9122 78.4162 20.6036 79.218 20.3737 79.7587C20.1378 80.3175 19.9503 80.8885 20.0591 81.4959C20.0894 81.6721 20.1983 81.6478 20.2285 81.4899C20.1559 81.824 20.2588 81.3562 20.2709 81.2894C20.3374 80.9492 20.4584 80.6152 20.5794 80.2932C20.8396 79.5947 21.2328 78.9447 21.4446 78.2279L21.4083 78.0578Z" fill="#474747"/>
<path d="M23.0419 77.6751C22.6608 78.3676 22.2494 78.9993 21.9892 79.7586C21.8561 80.1535 21.602 80.9735 21.8985 81.3562L21.9711 81.3258C22.1223 80.8581 22.1586 80.36 22.322 79.8862C22.5458 79.2119 22.7999 78.5134 23.0903 77.8695C23.1145 77.833 23.0843 77.6083 23.0419 77.6751Z" fill="#474747"/>
<path d="M25.2137 77.5719C24.7116 78.1246 24.3123 78.6349 23.9856 79.3274C23.8344 79.6554 23.5379 80.3661 23.8041 80.7123C23.8586 80.7792 23.8828 80.6516 23.8828 80.6152C23.8949 80.3175 24.2397 79.7161 24.3789 79.4185C24.6329 78.8596 24.881 78.2218 25.2379 77.7237L25.2137 77.5719Z" fill="#474747"/>
<path d="M26.4721 77.833C26.0849 78.4344 25.7522 79.0357 25.4739 79.6979C25.3226 80.0623 25.1109 80.7123 25.3226 81.0889L25.365 81.101C25.6009 80.9674 25.7159 80.1413 25.8006 79.8983C26.0365 79.2484 26.3027 78.6227 26.5084 77.9606L26.4721 77.833Z" fill="#474747"/>
<path d="M28.8196 77.0798C28.263 78.1793 27.5613 79.4428 27.5613 80.7062C27.5613 80.7245 27.5915 80.9431 27.646 80.8824C27.9363 80.5665 27.9968 80.0138 28.136 79.6189C28.3659 78.9629 28.6563 78.3372 28.9588 77.7116C29.0374 77.5597 28.9225 76.8733 28.8196 77.0798Z" fill="#474747"/>
<path d="M30.7552 77.8573C30.2229 79.0783 29.4848 80.36 29.4545 81.7206C29.4545 81.7571 29.4969 82.0122 29.5695 81.8968C29.8478 81.4412 29.8962 80.8338 30.0595 80.3174C30.2834 79.6067 30.5375 78.8839 30.8339 78.2036C30.8702 78.1185 30.8036 77.748 30.7552 77.8573Z" fill="#474747"/>
<path d="M32.4614 77.505C32.044 78.726 31.4088 80.0198 31.4874 81.338C31.4874 81.3927 31.5419 81.6053 31.5963 81.4595C31.7959 80.9614 31.8746 80.4147 32.0258 79.9044C32.2134 79.2788 32.4554 78.6713 32.6671 78.0517C32.7276 77.8817 32.5885 77.1345 32.4614 77.505Z" fill="#474747"/>
<path d="M34.1069 77.1284C33.6955 78.4466 33.0179 79.7769 32.8667 81.1558C32.8606 81.2044 32.8909 81.5263 32.9877 81.3988C33.3083 80.9675 33.4172 80.3661 33.5927 79.8619C33.8407 79.133 34.0948 78.4041 34.3126 77.663C34.3671 77.499 34.2219 76.7579 34.1069 77.1284Z" fill="#474747"/>
<path d="M36.2849 77.0434C35.4742 78.2704 34.4821 79.7708 34.3913 81.2833C34.3913 81.3015 34.4216 81.6356 34.4942 81.5506C34.8753 81.1254 35.0024 80.4086 35.2383 79.8923C35.5771 79.1451 36.0006 78.4344 36.4483 77.748C36.5572 77.584 36.4362 76.8125 36.2849 77.0434Z" fill="#474747"/>
<path d="M37.6768 76.9097C37.0597 78.1793 36.4426 79.5521 36.0433 80.9067C36.0312 80.9553 36.0554 81.4291 36.1401 81.3258C36.4729 80.9492 36.6362 80.4754 36.8238 80.0137C37.1505 79.2119 37.459 78.404 37.8341 77.6265C37.9309 77.4443 37.7918 76.685 37.6768 76.9097Z" fill="#474747"/>
<path d="M39.5762 76.6486C38.8079 77.9546 38.0153 79.4306 37.8036 80.9553C37.7975 81.0039 37.8459 81.4656 37.9306 81.3015C38.2331 80.7366 38.4025 80.0927 38.6445 79.5035C38.9531 78.7685 39.3282 78.0639 39.7335 77.3775C39.8424 77.2013 39.7153 76.4177 39.5762 76.6486Z" fill="#474747"/>
<path d="M41.3549 77.177C40.5926 78.3494 39.7578 79.7951 39.5763 81.2044C39.5702 81.253 39.5944 81.7328 39.7094 81.5628C40.0724 81.0404 40.2236 80.3114 40.4837 79.7344C40.7741 79.0844 41.125 78.4648 41.5122 77.8695C41.6151 77.7055 41.5001 76.9584 41.3549 77.177Z" fill="#474747"/>
<path d="M43.2603 77.0798C42.7158 78.3919 41.8204 79.7101 41.7418 81.1558C41.7418 81.1861 41.7841 81.5263 41.8567 81.3927C42.1713 80.8035 42.3407 80.117 42.6129 79.5035C42.8852 78.8839 43.1756 78.2765 43.4297 77.6508C43.4841 77.5111 43.345 76.8855 43.2603 77.0798Z" fill="#474747"/>
<path d="M45.4084 76.4238C44.64 77.6265 44.1137 79.0904 44.023 80.524C44.023 80.5544 44.0774 80.8824 44.1319 80.7488C44.6521 79.5217 44.8336 78.2522 45.5596 77.098C45.6625 76.9401 45.5475 76.2051 45.4084 76.4238Z" fill="#474747"/>
<path d="M47.2054 77.0373C46.552 78.4101 45.5901 79.7222 45.2936 81.2347C45.2876 81.2651 45.3178 81.6052 45.3783 81.5323C45.7776 81.016 45.9833 80.3418 46.2616 79.7525C46.6185 79.0054 46.9694 78.2522 47.3082 77.4989C47.3627 77.3896 47.278 76.8915 47.2054 77.0373Z" fill="#474747"/>
<path d="M49.5222 77.0676C48.7115 78.3797 47.8887 79.71 47.5862 81.2468C47.5802 81.2833 47.5983 81.5991 47.677 81.4898C48.0581 80.9553 48.2517 80.281 48.4998 79.6796C48.8446 78.8596 49.1774 78.0152 49.5585 77.2073L49.5222 77.0676Z" fill="#474747"/>
<path d="M51.5487 76.8064C50.7017 78.2339 49.6249 79.6006 49.6067 81.3379C49.6067 81.3622 49.6491 81.5869 49.6974 81.4837C50.0362 80.7973 50.1875 80.0076 50.49 79.303C50.8288 78.5194 51.1978 77.7297 51.585 76.9643L51.5487 76.8064Z" fill="#474747"/>
<path d="M53.1343 76.7943C52.4628 77.9788 51.277 79.546 51.513 80.9978L51.5795 81.1011C51.6824 81.0039 51.6884 80.9249 51.7368 80.7791C51.8881 80.3357 52.0212 79.9044 52.2148 79.4731C52.5233 78.7867 52.9165 78.1368 53.2795 77.4807C53.3763 77.3228 53.2614 76.5817 53.1343 76.7943Z" fill="#474747"/>
<path d="M55.2881 76.6728C54.3927 77.9849 53.6728 79.5642 53.5276 81.1618C53.5276 81.1922 53.5578 81.4959 53.6304 81.3805C53.945 80.8277 54.0781 80.1717 54.2899 79.5764C54.5742 78.7928 54.9735 78.0517 55.4393 77.3592C55.5422 77.2013 55.4333 76.4541 55.2881 76.6728Z" fill="#474747"/>
<path d="M57.4714 76.8672C56.4671 78.0518 55.5838 79.6189 55.5535 81.2104C55.5535 81.2408 55.5898 81.4716 55.6503 81.3684C55.9649 80.8277 56.092 80.1596 56.3521 79.5825C56.6607 78.89 57.0781 78.2461 57.5621 77.663C57.7134 77.4868 57.55 76.7761 57.4714 76.8672Z" fill="#474747"/>
<path d="M58.8328 77.4078C58.1794 78.4587 57.526 79.6068 57.3264 80.8399C57.3203 80.8885 57.3385 81.2955 57.4353 81.1557C57.7438 80.7245 57.9132 80.1717 58.1371 79.6918C58.3912 79.1573 58.6816 78.647 58.9901 78.1428C59.093 77.9788 58.972 77.177 58.8328 77.4078Z" fill="#474747"/>
<path d="M61.622 76.6606C60.7387 77.9666 60.0006 79.5399 59.6195 81.0767C59.6134 81.1132 59.6255 81.4777 59.6921 81.3987C60.1155 80.931 60.3091 80.2749 60.5511 79.7039C60.896 78.89 61.2832 78.1064 61.7732 77.3714C61.8761 77.2073 61.7672 76.442 61.622 76.6606Z" fill="#474747"/>
<path d="M64.0234 77.2681C63.4789 78.3433 62.7468 79.382 62.5169 80.5908C62.5109 80.6212 62.5351 81.01 62.6137 80.9249C62.9344 80.5605 63.1098 80.0927 63.3276 79.6675C63.612 79.1208 63.9084 78.5863 64.1867 78.0396C64.2775 77.8452 64.1383 77.0373 64.0234 77.2681Z" fill="#474747"/>
<path d="M66.1711 76.77C65.3483 77.8998 64.6284 79.224 64.5316 80.6455C64.5316 80.6758 64.58 81.0342 64.6465 80.8945C64.9067 80.3478 65.07 79.7586 65.3181 79.2058C65.5903 78.6045 65.9473 78.0517 66.3284 77.5171C66.4615 77.3471 66.3466 76.5331 66.1711 76.77Z" fill="#474747"/>
<path d="M67.986 76.9036C67.1088 77.8087 66.4554 79.1936 66.3042 80.451C66.2981 80.4814 66.3163 80.9188 66.407 80.8277C66.7398 80.4814 66.8366 79.8193 67.0059 79.382C67.26 78.7381 67.5988 78.1489 68.0647 77.6386C68.2099 77.4807 68.0707 76.8125 67.986 76.9036Z" fill="#474747"/>
<path d="M69.6319 77.2803C69.0027 78.1793 68.4038 79.2302 68.2102 80.3236C68.2041 80.36 68.2344 80.7792 68.307 80.6941C68.6034 80.36 68.7305 79.8376 68.912 79.4306C69.1419 78.9204 69.4262 78.4405 69.7408 77.9849C69.8558 77.8209 69.6864 77.2074 69.6319 77.2803Z" fill="#474747"/>
<path d="M71.4956 77.2742C70.8543 78.2096 70.3038 79.3273 70.1102 80.4511C70.1041 80.4815 70.1283 80.9006 70.207 80.8156C70.4974 80.4997 70.6123 80.0198 70.7757 79.631C71.0116 79.0661 71.302 78.5316 71.6469 78.0335C71.7679 77.8634 71.6529 77.0494 71.4956 77.2742Z" fill="#474747"/>
<path d="M73.4315 77.7298C72.887 78.4223 72.403 79.1755 72.2638 80.0623C72.2578 80.0988 72.288 80.5362 72.3667 80.445C72.5482 80.2203 72.6571 79.9348 72.7962 79.6857C73.008 79.297 73.256 78.9325 73.5283 78.5863C73.6372 78.4466 73.6251 78.2036 73.6069 78.0396C73.6009 78.0153 73.5222 77.6083 73.4315 77.7298Z" fill="#474747"/>
<path d="M75.6756 76.8794C75.1433 77.7237 74.7077 78.8171 74.5383 79.8072C74.5322 79.8498 74.5322 80.275 74.6411 80.196C74.9134 80.0016 74.9981 79.5278 75.113 79.2241C75.3127 78.6835 75.5244 78.1489 75.8329 77.6569C75.9479 77.4807 75.8208 76.6485 75.6756 76.8794Z" fill="#474747"/>
<path d="M77.3274 76.6546C76.9402 77.5718 76.5409 78.5438 76.3352 79.5217C76.3291 79.5582 76.3352 79.9895 76.4138 79.9105C76.6437 79.6736 76.7526 79.3395 76.8615 79.0358C77.0612 78.4769 77.2548 77.9242 77.4786 77.3775C77.5512 77.2013 77.5452 76.9887 77.5089 76.8004C77.4968 76.7397 77.4 76.4785 77.3274 76.6546Z" fill="#474747"/>
<path d="M78.9668 76.8672C78.4466 77.8209 77.9928 78.9568 77.7206 80.0076C77.7085 80.0623 77.6843 80.5118 77.8113 80.445C78.1804 80.2324 78.3256 79.5946 78.4647 79.224C78.6643 78.6956 78.8579 78.1671 79.1302 77.669C79.227 77.4807 79.0939 76.6363 78.9668 76.8672Z" fill="#474747"/>
<path d="M80.8547 75.9682C80.4493 77.3957 79.7476 78.726 79.3725 80.1535C79.3604 80.196 79.3664 80.6394 79.4572 80.5604C79.929 80.1413 80.1287 79.3638 80.3404 78.7867C80.6066 78.0456 80.8426 77.2985 81.0483 76.5392C81.0846 76.3812 80.9636 75.5916 80.8547 75.9682Z" fill="#474747"/>
<path d="M83.0265 75.3729C82.2944 76.6667 81.7802 78.2036 81.393 79.6371C81.3809 79.6857 81.4172 80.1291 81.4777 80.0502C81.8407 79.5885 81.998 78.9932 82.1855 78.4405C82.4638 77.6326 82.7542 76.849 83.1717 76.1079C83.2685 75.9439 83.1475 75.1603 83.0265 75.3729Z" fill="#474747"/>
<path d="M84.8112 74.0183C84.0187 75.6158 83.3532 77.4382 83.2745 79.2362C83.2685 79.3091 83.335 79.7647 83.4197 79.5095C83.9703 77.8937 84.2002 76.2537 84.9382 74.6804C85.0048 74.5224 84.902 73.83 84.8112 74.0183Z" fill="#474747"/>
<path d="M86.5659 71.7769C86.2271 74.152 85.1139 76.2233 84.4363 78.4952C84.4181 78.562 84.4484 79.0176 84.5331 78.8779C85.7128 76.8855 86.4388 74.3646 86.7232 72.0745C86.7474 71.9348 86.6203 71.4003 86.5659 71.7769Z" fill="#474747"/>
</svg>
