<svg width="60" height="60" viewBox="0 0 60 60" fill="none" xmlns="http://www.w3.org/2000/svg">
<path d="M8.62728 40.1293C10.2923 39.3505 11.5906 37.7276 12.8544 36.4223C14.3339 34.8951 16.0808 33.6768 17.638 32.2366C17.9356 31.9625 17.6294 30.8574 17.487 31.014C16.1542 32.4803 14.5194 33.6029 13.1262 35.0039C11.6035 36.5311 10.1154 38.0583 8.54964 39.5419C8.45043 39.6377 8.44181 40.2163 8.62728 40.1293Z" fill="#474747"/>
<path d="M16.9903 32.2975C17.4604 32.3062 17.909 31.9842 18.3878 31.9233C18.9874 31.845 19.3928 32.2105 19.8328 32.5455C20.0528 32.7152 20.0873 31.6971 19.9579 31.5317C19.1125 30.4788 17.5941 30.7616 16.9428 31.8842C16.904 31.9494 16.8652 32.2975 16.9903 32.2975Z" fill="#474747"/>
<path d="M19.9326 32.3453C20.2605 33.3243 21.011 34.0118 21.7184 34.734C22.4689 35.4998 23.2367 36.2656 24.0563 36.9574C24.2719 37.1401 24.41 35.8653 24.1511 35.6086C23.461 34.9298 22.7234 34.2989 22.029 33.6245C21.6753 33.2808 21.3259 32.9284 20.9894 32.5716C20.7134 32.2801 20.433 31.8406 19.9973 31.8624C19.8421 31.8667 19.9068 32.267 19.9326 32.3453Z" fill="#474747"/>
<path d="M24.2415 37.014C25.0524 38.1409 27.4593 37.8711 27.5715 36.296C27.5801 36.1655 27.6146 35.9045 27.4895 35.8174C27.373 35.7304 26.5794 36.3961 26.4155 36.457C26.0531 36.5963 25.6391 36.5702 25.2638 36.518C24.9273 36.4701 24.5693 36.2917 24.2501 36.4222C24.1121 36.4831 24.1725 36.9182 24.2415 37.014Z" fill="#474747"/>
<path d="M26.9716 36.9443C28.9774 35.6869 30.7933 33.6202 32.6006 32.0625C34.9169 30.0654 36.8407 27.655 39.1139 25.61C39.3899 25.362 39.1484 24.1612 38.9672 24.3265C36.8536 26.2322 35.0291 28.4208 32.9586 30.37C30.9055 32.3018 28.8092 34.064 26.8768 36.1351C26.7473 36.2656 26.7689 37.0705 26.9716 36.9443Z" fill="#474747"/>
<path d="M38.5962 25.5883C39.2604 25.4882 39.929 24.5092 40.1102 23.9045C40.369 23.0343 40.162 21.7942 39.2346 21.4505C39.1656 21.4636 39.1181 21.5071 39.0922 21.5723C38.9283 21.9291 38.8636 22.2554 38.9801 22.6383C39.131 23.143 39.3553 23.2126 39.7349 23.5259C39.7479 23.1169 39.7263 23.0343 39.6616 23.2692C39.6271 23.3562 39.584 23.4432 39.5365 23.5259C39.4416 23.7043 39.3122 23.8653 39.1828 24.0176C38.9628 24.283 38.6997 24.5005 38.5013 24.7877C38.4366 24.8921 38.3891 25.6187 38.5962 25.5883Z" fill="#474747"/>
<path d="M35.0899 18.7616C35.4048 19.0053 35.78 19.1532 36.0992 19.4099C36.4874 19.7232 36.8411 20.0887 37.1776 20.4542C37.5658 20.8718 37.9195 21.32 38.2732 21.7681C38.5104 22.0727 38.7951 22.6383 39.1531 22.7993C39.5198 22.9603 39.4249 21.8073 39.3515 21.6463C39.4249 22.1945 39.4464 22.2946 39.4205 21.9465C39.4076 21.8421 39.386 21.742 39.3515 21.6463C39.2264 21.3679 39.0755 21.159 38.8814 20.9241C38.5061 20.4629 38.1222 20.0104 37.7254 19.5666C37.2337 19.014 35.9871 17.4694 35.1115 17.7087C34.8311 17.7826 34.9001 18.6137 35.0899 18.7616Z" fill="#474747"/>
<path d="M35.0813 15.4766C34.3221 15.2025 34.4127 16.8515 34.5076 17.2344C34.6241 17.7 35.2323 19.1837 35.9008 18.8312C36.0949 18.7312 36.0259 18.1655 35.9569 18.0176C36.0691 18.2569 35.8706 17.7957 35.8232 17.7435C35.6636 17.5564 35.504 17.3824 35.3315 17.2083C35.1503 17.0256 34.9907 16.7863 34.8915 16.5426C34.8742 16.7297 34.8872 16.7167 34.9303 16.4948C34.9821 16.2946 35.0683 16.0945 35.1287 15.8987C35.1503 15.8247 35.1891 15.5158 35.0813 15.4766Z" fill="#474747"/>
<path d="M34.5593 16.5165C37.9367 13.6796 40.7447 10.2032 44.2428 7.48385C44.5232 7.2663 44.3636 5.93055 44.0833 6.11329C42.0344 7.42729 40.4039 9.35912 38.6656 11.0473C37.1818 12.4875 35.5082 13.8841 34.4169 15.6724C34.335 15.8073 34.3738 16.6731 34.5593 16.5165Z" fill="#474747"/>
<path d="M43.5313 7.72318C43.9928 7.63181 44.3638 7.35335 44.8598 7.30984C45.3473 7.26633 45.8994 7.36205 46.2358 7.73624C46.4127 7.93203 46.5119 7.27503 46.5119 7.22717C46.5291 6.96611 46.5334 6.54407 46.3264 6.34828C45.9296 5.96974 45.3343 5.96104 44.8253 6.03936C44.1913 6.13508 43.6564 6.42224 43.4148 7.03138C43.389 7.1097 43.3502 7.75799 43.5313 7.72318Z" fill="#474747"/>
<path d="M45.7352 7.44041C47.5986 9.70727 49.6302 11.7609 50.2902 14.7326C51.0493 18.1525 49.6604 21.5898 48.0515 24.518C46.6842 27.0111 44.9113 29.2736 43.0048 31.3664C41.1716 33.3766 38.9287 34.9429 37.1472 36.9922C37.0911 37.0575 37.0523 37.5579 37.186 37.5187C40.2917 36.6311 42.9401 33.3113 44.9502 30.9183C47.0767 28.3817 48.8322 25.4839 50.0486 22.3991C51.0924 19.745 51.2175 16.7123 50.7215 13.9277C50.1909 10.9386 47.9997 8.35412 45.8042 6.41793C45.636 6.27 45.5799 7.24897 45.7352 7.44041Z" fill="#474747"/>
<path d="M8.59671 39.2721C7.94108 39.6942 7.95833 40.6601 8.04029 41.3519C8.14381 42.2308 8.67436 43.0401 9.23078 43.6927C9.57586 44.093 9.63193 42.7224 9.45939 42.4614C9.50253 42.6006 9.54566 42.7398 9.5888 42.8834C9.57586 42.7747 9.54998 42.6746 9.51547 42.5745C9.42057 42.3265 9.20922 42.1046 9.05393 41.8871C8.92453 41.7043 8.80807 41.5085 8.69592 41.3127C8.44143 40.8646 8.61397 40.4599 8.77788 40.0205C8.81238 39.9248 8.83395 39.1198 8.59671 39.2721Z" fill="#474747"/>
<path d="M9.32588 43.8015C10.2791 44.6108 11.1203 45.5549 12.121 46.3033C13.2338 47.1343 14.9937 47.304 16.3093 47.4824C19.8894 47.9697 23.4178 47.7478 26.8167 46.4817C32.9762 44.1844 37.9798 38.2583 41.9567 33.233C42.043 33.1242 42.0215 32.4933 41.8791 32.5977C36.936 36.3439 33.5974 41.6565 27.9641 44.6064C24.729 46.299 21.0842 46.5861 17.517 46.3251C15.865 46.2032 14.2345 45.9596 12.6688 45.394C11.3618 44.924 10.6932 43.4708 9.39058 42.9835C9.13609 42.8921 9.18353 43.6753 9.32588 43.8015Z" fill="#474747"/>
<path d="M36.5989 18.196C36.5126 18.209 36.4652 18.2569 36.4609 18.3439C36.4609 18.37 36.4824 18.4005 36.4868 18.3613C36.4911 18.283 36.5385 18.2656 36.6032 18.2569L36.5989 18.196Z" fill="#474747"/>
<path d="M36.599 18.3352C36.5084 18.3613 36.4178 18.3874 36.3316 18.4135C35.7492 18.5788 36.2108 20.0973 36.4998 19.7101C39.4243 15.8247 43.2632 12.7007 46.9943 9.63757C47.3695 9.32865 47.0978 7.81886 46.7872 8.07557C42.9742 11.23 39.1223 14.4759 36.1935 18.5136C36.3359 18.7094 36.4782 18.9095 36.6206 19.1053C36.6162 18.8529 36.6076 18.6049 36.6033 18.3526L36.599 18.3352Z" fill="#474747"/>
<path d="M9.43815 43.9538C12.0952 42.3527 14.0147 39.6159 16.4906 37.7406C17.4913 36.9836 18.3367 36.0786 19.3633 35.3302C20.3252 34.6297 20.8514 33.9422 21.093 32.7936C21.1102 32.6978 21.1016 31.8276 20.8428 32.0234C19.0527 33.3505 17.5301 35.1518 15.7788 36.5572C13.4582 38.4194 11.3921 40.7733 9.28718 42.8835C9.10601 43.0662 9.11895 44.1453 9.43815 43.9538Z" fill="#474747"/>
<path d="M12.4012 45.7073C16.1582 47.6652 21.0324 45.9857 22.9561 42.2395C24.0819 40.0466 24.5737 35.6782 21.9296 34.3207C21.8605 34.2859 21.8692 34.5122 21.8994 34.547C24.3709 37.4143 23.9784 41.4955 21.2437 44.08C18.8325 46.3599 15.3861 46.5949 12.4185 45.5071C12.3538 45.481 12.3495 45.6811 12.4012 45.7073Z" fill="#474747"/>
<path d="M37.0997 19.9146C42.5475 25.8755 53.6071 17.1517 49.2333 10.4382C49.1513 10.312 49.1255 10.7036 49.1557 10.7689C50.8983 14.6934 49.0004 18.3265 45.5583 20.4367C42.8063 22.1249 39.4807 21.9726 37.1256 19.7101C37.0954 19.671 37.0652 19.8711 37.0997 19.9146Z" fill="#474747"/>
<path d="M21.231 36.4832C21.2267 36.0263 20.8816 35.6565 20.446 35.5738C19.9801 35.4868 19.5488 35.8131 19.3072 36.1786C18.7508 37.0053 19.1476 38.3758 20.0793 38.7326C20.8299 39.0198 21.7572 38.5673 22.0462 37.8233C22.1886 37.4491 22.1498 36.9879 21.96 36.6398C21.7098 36.1786 21.0671 35.6173 20.5193 35.7217C20.433 35.7392 20.4718 35.9393 20.5107 35.9785C20.9161 36.3831 22.2705 36.8138 21.8133 37.6144C21.5157 38.1365 20.8385 38.3802 20.2691 38.2845C19.937 38.2279 19.6609 38.0104 19.4711 37.7363C19.1563 37.2837 19.1994 36.7703 19.566 36.3744C19.7903 36.1307 20.1225 35.9785 20.4546 35.9872C20.6271 35.9915 20.7738 36.0698 20.9032 36.1742C21.0067 36.2569 21.0887 36.4788 21.2181 36.5049L21.231 36.4832Z" fill="#474747"/>
<path d="M48.0556 12.0306C47.7149 10.8515 46.5632 10.7341 45.8083 11.6478C45.0794 12.531 45.3296 13.7536 46.1017 14.4976C46.9514 15.3156 47.9737 14.8414 48.2238 13.771C48.3446 13.2533 48.3317 12.7181 48.198 12.2047C48.0901 11.7783 47.7019 10.8515 47.1714 10.8776C47.1024 10.882 47.1326 11.0995 47.1541 11.1343C47.3914 11.5216 47.7364 11.8044 47.9478 12.2134C48.185 12.6746 48.185 13.2011 48.0168 13.684C47.7192 14.5281 46.8953 14.6195 46.244 14.1322C45.3296 13.4534 45.3899 12.3961 46.244 11.7174C46.9341 11.1735 47.6502 11.4868 48.0168 12.2134C48.0513 12.2743 48.0642 12.0611 48.0556 12.0306Z" fill="#474747"/>
<path d="M19.5229 45.5201C19.4409 45.8508 19.346 46.1815 19.3115 46.5252C19.3115 46.5426 19.3374 46.6906 19.3676 46.6253C19.5056 46.3338 19.5617 46.0031 19.6393 45.6898C19.6652 45.5898 19.5746 45.3026 19.5229 45.5201Z" fill="#474747"/>
<path d="M20.549 44.9458C20.3894 45.4288 20.1996 45.9291 20.1651 46.4425C20.1608 46.473 20.2039 46.6383 20.2341 46.5383C20.3765 46.0814 20.4886 45.6159 20.6396 45.159C20.6612 45.0937 20.6008 44.7935 20.549 44.9458Z" fill="#474747"/>
<path d="M21.5411 43.6187C21.3772 44.5629 21.0408 45.494 20.9459 46.4425C20.9459 46.4599 20.9718 46.6296 21.0063 46.56C21.4031 45.7507 21.5239 44.6978 21.6748 43.8189C21.6921 43.7057 21.5843 43.362 21.5411 43.6187Z" fill="#474747"/>
<path d="M23.3099 39.9248C22.8009 42.2874 22.072 44.7413 22.1151 47.1779C22.1151 47.2649 22.1798 47.3171 22.1927 47.204C22.486 44.7718 23.008 42.3875 23.3358 39.9596C23.3358 39.9422 23.3185 39.8813 23.3099 39.9248Z" fill="#474747"/>
<path d="M24.6426 37.2751C24.8497 38.5542 24.138 40.1598 23.8964 41.4128C23.5168 43.3751 23.0553 45.3287 23.12 47.3389C23.1243 47.4346 23.1933 47.4955 23.2063 47.365C23.4306 44.8414 23.849 42.3744 24.3925 39.903C24.5564 39.1547 24.9532 38.0365 24.6469 37.2664L24.6426 37.2751Z" fill="#474747"/>
<path d="M25.574 36.7921C25.3367 39.9814 24.0901 43.0097 23.9909 46.212C23.9909 46.2859 24.0427 46.386 24.06 46.2598C24.4482 43.088 25.5006 40.0118 25.5955 36.8095C25.5955 36.7834 25.574 36.7486 25.574 36.7921Z" fill="#474747"/>
<path d="M26.4587 37.1793C26.4458 37.114 26.4372 37.0531 26.4242 36.9878C26.4199 36.9487 26.3897 36.9139 26.3768 36.9704C25.8247 39.9422 24.9447 43.04 24.9663 46.077C24.9663 46.1771 25.0612 46.3555 25.0957 46.164C25.1475 45.8247 25.2122 45.4896 25.2855 45.1546C25.2898 45.1372 25.2682 45.0458 25.251 45.0937C24.7938 46.6644 25.3933 43.3055 25.3329 43.7406C25.4537 42.9008 25.6219 42.0654 25.7729 41.2257C25.9239 40.3816 26.0705 39.5375 26.187 38.6847C26.2387 38.3018 26.5191 37.6013 26.4199 37.2097C26.4415 37.2707 26.463 37.2054 26.4587 37.1793Z" fill="#474747"/>
<path d="M27.4422 35.6129C27.2826 38.9632 26.0835 42.1307 25.8851 45.4679C25.8721 45.6593 26.0145 45.9073 26.0533 45.5897C26.1353 45.0806 26.2215 44.5759 26.3035 44.0669C26.3078 44.0321 26.2776 43.9146 26.2604 44.0016C25.8247 45.9378 26.2905 43.5796 26.4286 42.8225C26.6011 41.8696 26.8211 40.9211 27.0195 39.9726C27.3171 38.5324 27.5156 37.0966 27.4638 35.626L27.4422 35.6129Z" fill="#474747"/>
<path d="M28.4557 34.5861C28.3565 38.2018 27.0883 41.6347 26.9977 45.2373C26.9934 45.333 27.0926 45.6202 27.1315 45.3809C27.1789 45.0415 27.2436 44.7065 27.3213 44.3714C27.3256 44.3497 27.2997 44.2453 27.2867 44.3018C26.8985 45.6593 27.3816 42.9574 27.4463 42.5353C27.5973 41.5825 27.8087 40.6339 27.9941 39.6898C28.3306 38.0016 28.5808 36.3221 28.4816 34.5948C28.4772 34.5687 28.4557 34.5469 28.4557 34.5861Z" fill="#474747"/>
<path d="M29.6072 33.0807C29.4304 36.8834 28.0458 40.7732 28.2097 44.576C28.2097 44.589 28.2356 44.7718 28.283 44.7195C28.3218 44.6804 28.3607 44.6369 28.3995 44.5977C28.4254 44.5716 28.4426 44.4063 28.3865 44.415C28.4038 44.415 28.93 39.7638 29.0508 38.9415C29.3398 36.9966 29.6676 35.0778 29.6633 33.1068C29.6676 33.0285 29.6115 32.9806 29.6072 33.0807Z" fill="#474747"/>
<path d="M30.608 33.072C30.4268 35.6434 29.9394 38.1713 29.5771 40.7166C29.3916 42.0306 29.1069 43.4186 29.4434 44.7239C29.4822 44.8718 29.534 44.6891 29.5253 44.6238C29.1113 40.8385 30.5606 36.9226 30.69 33.1285C30.6943 33.0372 30.6209 32.9066 30.608 33.072Z" fill="#474747"/>
<path d="M31.7599 32.3497C31.4925 35.8914 30.5004 39.3635 30.4141 42.9095C30.4141 42.9661 30.4659 43.1575 30.522 43.0226C30.5478 42.9617 30.5737 42.8965 30.5996 42.8356C30.6082 42.8138 30.6125 42.6528 30.5608 42.6833C30.6168 42.6485 31.0137 38.8153 31.0999 38.2583C31.3976 36.3178 31.7383 34.3947 31.8764 32.4367C31.8893 32.3018 31.7772 32.1191 31.7599 32.3497Z" fill="#474747"/>
<path d="M32.5493 31.2967C32.5234 34.1205 31.8677 36.8703 31.5701 39.668C31.527 40.0683 31.0223 42.2003 31.5011 42.4874C31.5572 42.5179 31.5442 42.3526 31.5399 42.3308C31.3286 41.2909 31.734 39.8116 31.8548 38.7587C32.1395 36.2612 32.7089 33.8246 32.6485 31.2967C32.6442 31.127 32.5493 31.1314 32.5493 31.2967Z" fill="#474747"/>
<path d="M33.6403 30.0307C33.0365 33.9944 31.9883 38.0321 32.0789 42.0655C32.0832 42.1873 32.1781 42.2656 32.1867 42.1003C32.3981 38.08 33.1831 34.1684 33.7439 30.196C33.7525 30.109 33.6705 29.8218 33.6403 30.0307Z" fill="#474747"/>
<path d="M34.6409 29.043C34.2872 33.1024 33.2693 37.1227 33.1744 41.2039C33.1701 41.3171 33.252 41.3867 33.2693 41.2388C33.7308 37.2098 34.4296 33.1895 34.766 29.1474C34.7833 28.9864 34.6625 28.7689 34.6409 29.043Z" fill="#474747"/>
<path d="M35.4257 28.1031C35.3308 32.1582 34.2136 36.122 34.2783 40.1814C34.2783 40.2641 34.3431 40.3163 34.3474 40.2075C34.5587 36.1655 35.4947 32.2017 35.5422 28.151C35.5422 27.9987 35.43 27.8986 35.4257 28.1031Z" fill="#474747"/>
<path d="M36.0428 27.7551C36.0385 31.6535 34.9731 35.4998 35.1241 39.3939C35.1284 39.4983 35.2017 39.5723 35.2146 39.4244C35.495 35.539 36.1981 31.6535 36.1679 27.7507C36.1679 27.5245 36.0428 27.5288 36.0428 27.7551Z" fill="#474747"/>
<path d="M37.1382 26.5759C37.1339 30.4266 36.09 34.2119 36.2194 38.0538C36.2237 38.1582 36.2971 38.2322 36.3057 38.0843C36.5602 34.2467 37.2848 30.4222 37.2589 26.5716C37.2546 26.3584 37.1382 26.3627 37.1382 26.5759Z" fill="#474747"/>
<path d="M38.1525 25.1619C38.0964 28.9429 37.3675 32.7022 37.4667 36.4832C37.471 36.5876 37.5443 36.6659 37.5529 36.5136C37.7427 32.7283 38.2388 28.9473 38.2733 25.1576C38.2733 24.94 38.1568 24.9487 38.1525 25.1619Z" fill="#474747"/>
<path d="M38.786 24.4527C38.842 28.1859 38.3201 31.8929 38.3762 35.6174C38.3805 35.787 38.5056 35.9045 38.5142 35.6696C38.6393 31.9364 39.0491 28.1902 38.8852 24.4484C38.8722 24.2787 38.786 24.2831 38.786 24.4527Z" fill="#474747"/>
<path d="M39.4849 24.4222C39.7652 28.0118 39.2519 31.5622 39.3123 35.1474C39.3166 35.3171 39.4417 35.4346 39.4504 35.1996C39.5841 31.5839 39.9593 27.9378 39.5884 24.3265C39.5625 24.0959 39.4762 24.2917 39.4849 24.4222Z" fill="#474747"/>
<path d="M40.7316 22.5905C40.5073 26.4324 40.3607 30.4919 40.5073 34.3643C40.5116 34.46 40.5807 34.5252 40.585 34.3947C40.7705 30.4788 41.0896 26.4194 40.7316 22.4991C40.723 22.3947 40.6756 22.4513 40.6756 22.5253V22.5731C40.6756 22.6384 40.7273 22.6862 40.7316 22.5905Z" fill="#474747"/>
<path d="M41.3787 22.0683C41.2321 25.9233 40.7749 29.9697 41.4478 33.7986C41.4779 33.9552 41.534 33.7594 41.5297 33.6941C41.2062 29.8131 41.5297 25.9755 41.4391 22.0944C41.4348 22.0118 41.3831 21.9509 41.3787 22.0683Z" fill="#474747"/>
<path d="M42.0856 21.7855C42.5342 23.3867 42.1287 25.101 42.1158 26.7369C42.1028 28.5078 42.0425 30.2743 42.3142 32.0277C42.3358 32.1583 42.3789 32.0495 42.3746 31.9755C42.2064 29.5607 42.215 27.1372 42.3573 24.7224C42.4177 23.6869 42.4781 22.6122 42.133 21.6202C42.0942 21.5071 42.0727 21.7464 42.0856 21.7855Z" fill="#474747"/>
<path d="M42.9142 21.581C42.8581 24.705 42.6554 27.8986 43.0047 31.0139C43.022 31.1619 43.0867 31.0836 43.0824 30.9791C43.0091 27.8595 43.0479 24.7442 43.0134 21.6245C43.0177 21.4853 42.9185 21.3896 42.9142 21.581Z" fill="#474747"/>
<path d="M43.7635 21.8595C43.7505 24.8486 43.5262 27.9117 44.0309 30.8704C44.0525 30.9922 44.0913 30.8399 44.087 30.7921C43.8842 27.8029 43.8799 24.8486 43.8842 21.8551C43.8842 21.6158 43.7635 21.6202 43.7635 21.8595Z" fill="#474747"/>
<path d="M44.5534 20.6543C44.769 23.365 44.6957 26.067 44.8122 28.7776C44.8165 28.8472 44.8596 28.8994 44.8639 28.7994C44.9804 26.0583 44.8769 23.2823 44.6569 20.5499C44.6353 20.2932 44.5404 20.5108 44.5534 20.6543Z" fill="#474747"/>
<path d="M45.2521 20.602C45.2521 23.0125 45.2909 25.4882 45.6489 27.8769C45.6748 28.0553 45.7481 27.9639 45.7395 27.8334C45.6403 25.4186 45.3815 23.0212 45.3556 20.602C45.3556 20.3888 45.2521 20.3932 45.2521 20.602Z" fill="#474747"/>
<path d="M46.2745 19.9624C45.9898 22.3859 46.1365 24.9008 46.4427 27.3156C46.46 27.4461 46.5117 27.3765 46.5074 27.2851C46.4686 24.8921 46.102 22.5426 46.3651 20.1452C46.3737 20.0582 46.3004 19.7362 46.2745 19.9624Z" fill="#474747"/>
<path d="M46.9688 19.4012C46.6755 21.2939 46.7402 23.365 47.1414 25.2359C47.1716 25.3838 47.2233 25.2359 47.219 25.1619C47.1112 23.2867 46.8006 21.4897 47.0724 19.6057C47.0853 19.51 47.0077 19.1445 46.9688 19.4012Z" fill="#474747"/>
<path d="M47.5944 18.8747C47.5815 20.7152 47.3874 22.7558 47.9352 24.5397C47.9697 24.6484 47.9956 24.4483 47.9912 24.4178C47.7756 22.5556 47.7022 20.7413 47.6979 18.8703C47.6936 18.6572 47.5944 18.6615 47.5944 18.8747Z" fill="#474747"/>
<path d="M48.2932 17.8522C48.2846 19.7319 48.1854 21.7725 48.7116 23.5999C48.7418 23.7086 48.772 23.5085 48.7677 23.478C48.5477 21.5941 48.4053 19.7493 48.3967 17.8522C48.3967 17.626 48.2932 17.6303 48.2932 17.8522Z" fill="#474747"/>
<path d="M49.0777 16.7515C49.1252 18.4179 48.7585 20.6543 49.5004 22.2033C49.5349 22.2729 49.5479 22.051 49.5436 22.0292C49.2804 20.2584 49.2589 18.5311 49.1726 16.7472C49.1597 16.5557 49.0734 16.5557 49.0777 16.7515Z" fill="#474747"/>
<path d="M49.699 16.2772C49.6904 17.4389 49.5524 18.7007 49.8802 19.8319C49.9147 19.9494 49.9406 19.7319 49.9363 19.7014C49.7983 18.5528 49.7939 17.4302 49.7939 16.2772C49.7939 16.0727 49.7034 16.077 49.699 16.2772Z" fill="#474747"/>
<path d="M50.1648 15.3374C50.1734 16.5296 50.3287 17.7217 50.4149 18.9095C50.4236 19.0227 50.4796 19.0183 50.4839 18.9095C50.5357 17.713 50.2898 16.5296 50.264 15.3374C50.2597 15.1198 50.1648 15.1198 50.1648 15.3374Z" fill="#474747"/>
<path d="M14.5446 46.782C13.1513 47.687 13.3843 50.1627 13.9062 51.5071C14.9845 54.2874 19.7595 53.3824 21.9809 53.452C23.5596 53.5042 26.7903 53.9219 27.3812 51.7812C27.6142 50.9415 27.929 49.3882 27.3165 48.6529L27.282 48.6398C25.8629 49.1532 26.4927 53.6478 27.9765 53.7653C29.6242 53.8958 31.2331 49.5492 29.7795 48.6659H29.7148C28.4768 49.7928 28.9729 53.6565 30.8622 53.6565C32.1821 53.6565 32.8593 49.7189 31.9578 48.8008H31.8931C30.8449 49.4535 31.1166 52.0771 31.7076 52.9647C33.5322 55.6927 34.5846 52.3381 35.1411 50.8153C35.1885 50.6891 35.1238 49.9712 35.016 50.1714C34.6838 50.7892 34.4509 51.4375 34.0109 51.9901C33.5623 52.5513 32.8636 52.2468 32.3848 51.977C30.1979 50.7413 32.773 49.5927 31.6127 51.2678C31.4402 51.5202 31.2288 51.6681 30.9527 51.7986C30.75 51.8378 30.5516 51.8769 30.3489 51.9161C29.6975 49.7537 29.456 49.3925 29.6285 50.8414C29.3827 51.4375 28.9901 51.9422 28.3561 52.1467C26.8032 52.6471 27.4201 48.183 27.3036 50.3715C27.1613 53.0213 23.2231 52.1859 21.5452 52.1772C18.06 52.1598 13.0521 52.5339 14.6308 47.1866C14.6481 47.1431 14.661 46.708 14.5446 46.782Z" fill="#474747"/>
<path d="M35.2575 50.2714C35.2964 50.0104 35.2921 49.7754 35.2274 49.5187C35.154 49.2228 34.727 49.014 34.5329 48.7964C34.4811 48.7355 34.4164 48.8138 34.3992 48.8573C33.8945 50.1104 33.6918 52.5644 35.0893 53.3302C36.8794 54.3135 37.0649 51.568 37.2331 50.4367C37.2374 50.4063 37.2374 50.0974 37.1641 50.1496C36.9139 50.3367 36.9053 50.824 36.7586 51.0894C36.5257 51.5071 36.5041 51.742 35.9908 51.8378C35.4689 51.9335 34.7744 51.5071 34.5803 51.0154C34.5113 50.837 34.5458 50.6499 34.5545 50.4629C34.5631 50.3062 34.5933 50.1452 34.6149 49.993C34.6623 49.684 35.1497 49.6971 35.1152 50.006C35.1066 50.1278 35.2058 50.6064 35.2575 50.2714Z" fill="#474747"/>
<path d="M37.3366 49.9885C37.3452 49.8798 37.1037 48.2438 36.737 49.0574C36.2151 50.2192 36.5214 51.8638 37.0303 52.969C38.0311 55.1532 39.6098 52.7775 39.8599 51.6115C40.0325 50.7978 40.3474 49.2054 39.6486 48.5571L39.6054 48.5353C38.0569 49.3316 39.1784 53.2561 40.4983 53.8305C42.3099 54.6136 43.5867 49.4925 41.857 48.5092C41.7621 48.457 41.7276 48.5919 41.7104 48.6659C41.4041 50.2453 40.9124 52.3381 42.1158 53.6608C42.5299 54.1133 43.2373 53.726 43.7161 53.6564C44.7513 53.4998 45.7995 53.6303 46.8347 53.6695C48.284 53.7217 50.7038 54.3743 51.9073 53.465C52.041 53.3649 52.0367 52.4512 51.8512 52.4294C51.1524 52.3511 50.3803 52.5991 49.6384 52.6035C48.6938 52.6122 47.7491 52.5687 46.8088 52.5469C45.9677 52.5252 45.1525 52.473 44.32 52.3555C42.7456 52.1379 41.5465 52.808 41.8441 50.2017C42.2668 49.4621 42.3919 49.7405 42.215 51.0284C42.077 51.3983 41.8657 51.7159 41.5853 51.9769C40.6665 52.9646 39.5235 51.3765 39.4329 50.5846C39.3768 50.341 39.4545 50.1234 39.6658 49.945C39.6313 50.4106 39.5192 50.8544 39.3208 51.2808C39.118 51.7768 38.7514 52.0248 38.2165 52.0248C37.1597 51.8856 36.8319 51.172 37.2374 49.8841C37.2244 50.0364 37.3193 50.2583 37.3366 49.9885Z" fill="#474747"/>
</svg>
