<svg width="64" height="64" viewBox="0 0 64 64" fill="none" xmlns="http://www.w3.org/2000/svg">
<path d="M62.9953 31.9976C62.9953 33.3353 61.9111 34.4195 60.5734 34.4195C59.2362 34.4195 58.152 33.3353 58.152 31.9976C58.152 17.5761 46.4191 5.84328 31.9976 5.84328C25.1809 5.84328 18.7558 8.45531 13.9121 13.1037H20.3736C21.7108 13.1037 22.795 14.1879 22.795 15.5256C22.795 16.8628 21.7108 17.947 20.3736 17.947H13.1084C11.1605 17.947 9.39047 17.175 8.08493 15.9229C8.02817 15.8723 7.97472 15.8193 7.9241 15.7649C6.63843 14.4537 5.84328 12.6595 5.84328 10.6818V3.42188C5.84328 2.08417 6.92744 1 8.26515 1C9.60239 1 10.6866 2.08417 10.6866 3.42188V9.48508C16.412 4.05052 23.9761 1 31.9976 1C40.2774 1 48.0615 4.22459 53.9165 10.0787C59.7711 15.9338 62.9953 23.7178 62.9953 31.9976ZM50.8868 46.0483H43.6217C42.2845 46.0483 41.2003 47.1325 41.2003 48.4697C41.2003 49.8074 42.2845 50.8916 43.6217 50.8916H50.0846C45.2356 55.5352 38.7765 58.1567 31.9976 58.1567C17.5761 58.1567 5.84328 46.4239 5.84328 32.0024C5.84328 30.6647 4.75911 29.5805 3.42188 29.5805C2.08417 29.5805 1 30.6647 1 32.0024C1 40.2822 4.22459 48.0662 10.0787 53.9213C15.9338 59.7759 23.7178 63 31.9976 63C39.9733 63 47.5762 59.9391 53.3087 54.5107V60.5734C53.3087 61.9111 54.3929 62.9953 55.7301 62.9953C57.0678 62.9953 58.152 61.9111 58.152 60.5734V53.3134C58.152 49.3074 54.8929 46.0483 50.8868 46.0483Z" fill="#43B02A"/>
<path d="M24.0485 22.6762C24.0632 22.6762 24.0769 22.6743 24.0916 22.6743C27.4302 22.6743 30.1458 25.3899 30.1458 28.7285C30.1458 30.0066 29.6832 31.9834 26.1459 35.9932H27.8805C29.2177 35.9932 30.3019 37.0774 30.3019 38.4151C30.3019 39.7528 29.2177 40.837 27.8805 40.837H20.3731C19.3717 40.837 18.4739 40.2206 18.1135 39.2864C17.7531 38.3522 18.0052 37.2926 18.7474 36.6204C18.7634 36.6053 20.4431 35.0784 22.1309 33.217C24.9804 30.0748 25.2784 28.8274 25.302 28.703C25.2878 28.0578 24.7396 27.5176 24.0916 27.5176C24.0769 27.5176 24.0632 27.5157 24.0485 27.5152C24.0343 27.5157 24.0201 27.5176 24.0055 27.5176C23.3494 27.5176 22.7945 28.072 22.7945 28.7285C22.7945 30.0658 21.7104 31.1499 20.3731 31.1499C19.0354 31.1499 17.9513 30.0658 17.9513 28.7285C17.9513 25.3899 20.6674 22.6743 24.0055 22.6743C24.0201 22.6743 24.0339 22.6762 24.0485 22.6762Z" fill="#868686"/>
<path d="M33.8136 25.0957C33.8136 23.7585 34.8978 22.6743 36.235 22.6743C37.5727 22.6743 38.6569 23.7585 38.6569 25.0957V28.0625C38.6569 29.0303 39.4445 29.8179 40.4127 29.8179C41.3805 29.8179 42.1681 29.0303 42.1681 28.0625V25.0957C42.1681 23.7585 43.2523 22.6743 44.59 22.6743C45.9277 22.6743 47.0119 23.7585 47.0119 25.0957V38.4151C47.0119 39.7528 45.9277 40.837 44.59 40.837C43.2523 40.837 42.1681 39.7528 42.1681 38.4151V34.4223C41.609 34.577 41.0206 34.6617 40.4127 34.6617C36.7738 34.6617 33.8136 31.701 33.8136 28.0625V25.0957Z" fill="#868686"/>
<path d="M56.3356 41.8052C56.3356 40.468 57.4198 39.3838 58.7575 39.3838C60.0947 39.3838 61.1789 40.468 61.1789 41.8052C61.1789 43.1429 60.0947 44.2271 58.7575 44.2271C57.4198 44.2271 56.3356 43.1429 56.3356 41.8052Z" fill="#868686"/>
<path d="M7.53859 22.6743C7.53859 24.0116 6.45442 25.0957 5.11671 25.0957C3.77948 25.0957 2.69531 24.0116 2.69531 22.6743C2.69531 21.3366 3.77948 20.2524 5.11671 20.2524C6.45442 20.2524 7.53859 21.3366 7.53859 22.6743Z" fill="#868686"/>
</svg>
