<svg width="64" height="64" viewBox="0 0 64 64" fill="none" xmlns="http://www.w3.org/2000/svg">
<path d="M22.5 56C21.734 56 21.4683 55.8359 21.0292 55.4987C19.9684 54.6838 19.7693 53.1633 20.5842 52.1026L27.5405 43.3292C27.8176 42.9684 28.1908 42.6931 28.6173 42.5345L38.0594 39.0251C39.2485 38.5831 39.898 37.2839 39.5378 36.0674L36.6634 26.3594C36.2835 25.0769 37.0154 23.7294 38.298 23.3497C39.5802 22.97 40.9281 23.7017 41.3077 24.9843L44.1821 34.6923C45.2627 38.3418 43.3146 42.2394 39.7468 43.5654L30.9573 46.8323L24.4251 55.0537C24.0848 55.4966 23.266 56 22.5 56ZM22.7111 8.26441C22.7111 4.25888 25.9694 1 29.9743 1C33.9819 1 37.2423 4.25888 37.2423 8.26441C37.2423 12.2714 33.9819 15.5312 29.9743 15.5312C25.9694 15.5312 22.7111 12.2714 22.7111 8.26441ZM27.5548 8.26441C27.5548 9.60044 28.6402 10.6875 29.9743 10.6875C31.3112 10.6875 32.3986 9.60044 32.3986 8.26441C32.3986 6.92972 31.3112 5.84375 29.9743 5.84375C28.6402 5.84375 27.5548 6.92972 27.5548 8.26441ZM7.05549 17.2886L16.6652 23.8564C17.1922 24.2166 17.8403 24.354 18.4677 24.2393L26.2002 22.8246L28.7729 32.6055H19.6838C18.9451 32.6055 18.247 32.9425 17.7875 33.5208L10.7641 42.3607C9.93207 43.4079 10.1064 44.9314 11.1538 45.7635C11.5993 46.1175 12.1308 46.2893 12.6589 46.2893C13.372 46.2893 14.0786 45.9757 14.5566 45.3738L20.8527 37.4492H31.9142C32.6651 37.4492 33.3738 37.1008 33.8322 36.506C34.2908 35.9113 34.4475 35.1375 34.2564 34.4112L30.9788 21.9502L48.5864 18.7285L52.7456 27.2497C53.1654 28.1099 54.0272 28.6099 54.9239 28.6099C55.2803 28.6099 55.6425 28.5308 55.9844 28.3639C57.1865 27.7772 57.6853 26.3272 57.0986 25.1251L52.1337 14.9533C51.6572 13.9774 50.5899 13.4377 49.5214 13.6332L18.576 19.2952L9.7887 13.2894C8.68456 12.5348 7.17743 12.8179 6.42265 13.9224C5.66787 15.0268 5.95123 16.5338 7.05549 17.2886Z" fill="#868686"/>
<path d="M9 60.5C9 59.1193 10.1193 58 11.5 58H54.5C55.8807 58 57 59.1193 57 60.5C57 61.8807 55.8807 63 54.5 63H11.5C10.1193 63 9 61.8807 9 60.5Z" fill="#FE7333"/>
</svg>
