<svg width="64" height="64" viewBox="0 0 64 64" fill="none" xmlns="http://www.w3.org/2000/svg">
<path d="M43.505 54.75L50.505 54.75C51.7476 54.75 52.755 55.7574 52.755 57C52.755 58.2426 51.7476 59.25 50.505 59.25L43.505 59.25C42.2624 59.25 41.255 58.2426 41.255 57C41.255 55.7574 42.2624 54.75 43.505 54.75Z" fill="#43B02A"/>
<path d="M17 40.75L23 40.75C24.2426 40.75 25.25 41.7574 25.25 43C25.25 44.2426 24.2426 45.25 23 45.25L17 45.25C15.7574 45.25 14.75 44.2426 14.75 43C14.75 41.7574 15.7574 40.75 17 40.75Z" fill="#43B02A"/>
<path d="M45 34.75L49.5 34.75C50.7426 34.75 51.75 35.7574 51.75 37C51.75 38.1648 50.8648 39.1229 49.7305 39.2383L49.5 39.25L45 39.25L44.7695 39.2383C43.6352 39.1229 42.75 38.1648 42.75 37C42.75 35.8352 43.6352 34.8771 44.7695 34.7617L45 34.75Z" fill="#43B02A"/>
<path fill-rule="evenodd" clip-rule="evenodd" d="M27.8516 20.8525C27.1253 19.0426 26.698 16.941 26.25 13.833V7C26.25 5.20507 24.7949 3.75 23 3.75H17C15.2051 3.75 13.75 5.20507 13.75 7V13.833C13.302 16.941 12.8747 19.0426 12.1484 20.8525C11.4757 22.529 10.505 24.055 8.84375 25.9023L8.50293 26.2764C7.42935 27.4339 6.75 28.9812 6.75 30.6572V53.5C6.75 56.9518 9.54822 59.75 13 59.75H27C30.4518 59.75 33.25 56.9518 33.25 53.5V30.6572C33.25 28.9812 32.5707 27.4339 31.4971 26.2764C29.6252 24.2581 28.5691 22.6407 27.8516 20.8525ZM27 55.25C27.9665 55.25 28.75 54.4665 28.75 53.5V51.25H27C25.7574 51.25 24.75 50.2426 24.75 49C24.75 47.7574 25.7574 46.75 27 46.75H28.75V39.25H11.25V46.75H20C21.2426 46.75 22.25 47.7574 22.25 49C22.25 50.2426 21.2426 51.25 20 51.25H11.25V53.5C11.25 54.4665 12.0335 55.25 13 55.25H27ZM11.25 34.75V30.6572C11.25 30.2116 11.4325 29.7341 11.8018 29.3359L12.1943 28.9062C14.116 26.7684 15.4112 24.8038 16.3242 22.5283C17.0801 20.6446 17.541 18.6197 17.9307 16.25H22.0693C22.459 18.6197 22.9199 20.6446 23.6758 22.5283C24.6497 24.9554 26.0584 27.0287 28.1982 29.3359C28.5675 29.7341 28.75 30.2116 28.75 30.6572V34.75H11.25ZM21.75 11.75H18.25V8.25H21.75V11.75Z" fill="#868686"/>
<path d="M39.2188 46.7412C40.6502 47.9543 42.4901 48.7467 44.75 49.0761V51C44.75 52.2426 45.7574 53.25 47 53.25C48.2427 53.25 49.25 52.2426 49.25 51V49.1469C51.7659 48.8721 53.7897 48.0523 55.3369 46.7412C57.2639 45.1082 58.1843 42.9397 58.5664 40.8604C59.2155 37.328 58.3968 33.6028 57.8545 31.6846L57.6445 30.9785L57.5527 30.7236C57.0455 29.4833 55.8376 28.75 54.585 28.75H39.9707C38.7183 28.7502 37.5111 29.4835 37.0039 30.7236L36.9121 30.9785C36.4231 32.534 35.2484 36.8233 35.9902 40.8604C36.3724 42.9396 37.2918 45.1082 39.2188 46.7412ZM40.416 40.0469C39.9782 37.6645 40.494 34.9425 40.9424 33.25H53.6143C54.0626 34.9425 54.5784 37.6646 54.1406 40.0469C53.8867 41.4285 53.3422 42.5327 52.4277 43.3076C51.5188 44.0779 49.9761 44.75 47.2783 44.75C44.5804 44.75 43.0369 44.0779 42.1279 43.3076C41.2137 42.5327 40.6699 41.4283 40.416 40.0469Z" fill="#43B02A"/>
</svg>
