<svg width="64" height="64" viewBox="0 0 64 64" fill="none" xmlns="http://www.w3.org/2000/svg">
<path fill-rule="evenodd" clip-rule="evenodd" d="M16.2305 58.1562H13.6875C11.0167 58.1562 8.84375 55.9833 8.84375 53.3125V10.6875C8.84375 8.01666 11.0167 5.84375 13.6875 5.84375H43.4631C46.134 5.84375 48.3069 8.01666 48.3069 10.6875V26.9141C48.3069 28.2517 49.3912 29.3359 50.7288 29.3359C52.0664 29.3359 53.1506 28.2517 53.1506 26.9141V10.6875C53.1506 5.34581 48.8048 1 43.4631 1H13.6875C8.34581 1 4 5.34581 4 10.6875V53.3125C4 58.6542 8.34581 63 13.6875 63H16.2305C17.5681 63 18.6523 61.9157 18.6523 60.5781C18.6523 59.2405 17.5681 58.1562 16.2305 58.1562ZM31.3537 25.2188C32.6913 25.2188 33.7756 26.303 33.7756 27.6406C33.7756 28.9782 32.6913 30.0625 31.3537 30.0625H16.0959C14.7583 30.0625 13.674 28.9782 13.674 27.6406C13.674 26.303 14.7583 25.2188 16.0959 25.2188H31.3537ZM13.674 37.3281C13.674 35.9905 14.7583 34.9062 16.0959 34.9062H24.707C26.0446 34.9062 27.1289 35.9905 27.1289 37.3281C27.1289 38.6657 26.0446 39.75 24.707 39.75H16.0959C14.7583 39.75 13.674 38.6657 13.674 37.3281ZM41.0412 15.5312C42.3788 15.5312 43.4631 16.6155 43.4631 17.9531C43.4631 19.2907 42.3788 20.375 41.0412 20.375H16.0959C14.7583 20.375 13.674 19.2907 13.674 17.9531C13.674 16.6155 14.7583 15.5312 16.0959 15.5312H41.0412Z" fill="#868686"/>
<path fill-rule="evenodd" clip-rule="evenodd" d="M59.105 53.7551L59.0315 53.5708L55.4753 47.6824L46.6479 33.3899C45.4078 31.3822 43.2591 30.1836 40.9 30.1836C38.5413 30.1836 36.3924 31.3822 35.1524 33.3899L23.2339 52.6869C21.9273 54.8027 21.8703 57.3624 23.0817 59.5342C24.292 61.7043 26.4976 63 28.9817 63H32.3359C33.6735 63 34.7578 61.9157 34.7578 60.5781C34.7578 59.2405 33.6735 58.1562 32.3359 58.1562H28.9817C27.9688 58.1562 27.4766 57.4699 27.312 57.1748C27.1469 56.879 26.8207 56.0973 27.355 55.2322L39.2735 35.9353C39.7797 35.1159 40.5797 35.0273 40.9002 35.0273C41.2206 35.0273 42.0208 35.1157 42.5269 35.9353L51.3352 50.1966L54.6584 55.6991C54.8213 56.2389 54.7276 56.8352 54.397 57.3232C54.1862 57.6343 53.7009 58.1562 52.8187 58.1562H49.5314C48.1938 58.1562 47.1095 59.2405 47.1095 60.5781C47.1095 61.9157 48.1938 63 49.5314 63H52.8187C55.0621 63 57.1512 61.8936 58.4069 60.0403C59.6704 58.1755 59.9314 55.8258 59.105 53.7551ZM43.235 60.5781C43.235 59.2405 42.1507 58.1562 40.8131 58.1562H40.8119C39.4743 58.1562 38.3906 59.2405 38.3906 60.5781C38.3906 61.9157 39.4755 63 40.8131 63C42.1507 63 43.235 61.9157 43.235 60.5781ZM43.2344 53.3125C43.2344 54.6501 42.1501 55.7344 40.8125 55.7344C39.4749 55.7344 38.3906 54.6501 38.3906 53.3125V44.2305C38.3906 42.8929 39.4749 41.8086 40.8125 41.8086C42.1501 41.8086 43.2344 42.8929 43.2344 44.2305V53.3125Z" fill="#43B02A"/>
</svg>
