<svg width="64" height="64" viewBox="0 0 64 64" fill="none" xmlns="http://www.w3.org/2000/svg">
<path d="M45.9793 38.6105L54.2972 42.3281V48.9628C54.2972 51.2285 53.3842 53.5644 51.7918 55.3638C50.1994 57.1633 48.1893 58.1562 46.127 58.1562H45.8304C43.7718 58.1562 41.7568 57.1645 40.1656 55.3638C38.5744 53.5632 37.6602 51.2285 37.6602 48.9628V42.3281L45.9793 38.6105ZM46.1815 33.6033C46.1137 33.6033 46.0459 33.6033 45.9793 33.613C45.9127 33.6226 45.8449 33.6033 45.7771 33.6033C45.469 33.6035 45.1645 33.6687 44.8834 33.7946L34.1157 38.6069C33.7287 38.7794 33.4 39.0604 33.1694 39.4159C32.9388 39.7713 32.8162 40.186 32.8164 40.6098V48.9652C32.8164 52.3958 34.1727 55.8978 36.5352 58.5728C39.0588 61.4258 42.3574 63 45.8304 63H46.127C49.5976 63 52.8986 61.4258 55.4222 58.5704C57.786 55.8954 59.141 52.3946 59.141 48.9628V40.6073C59.1411 40.1838 59.0186 39.7693 58.7883 39.4138C58.5579 39.0584 58.2296 38.7773 57.8429 38.6044L47.08 33.7946C46.7989 33.6687 46.4944 33.6035 46.1864 33.6033H46.1815Z" fill="#43B02A"/>
<path d="M43.6773 11.913H45.8086C46.5151 11.913 47.1928 12.1936 47.6924 12.6933C48.192 13.1929 48.4727 13.8705 48.4727 14.577V28.1868C48.4727 28.8291 48.2175 29.4451 47.7633 29.8993C47.3091 30.3535 46.6931 30.6086 46.0508 30.6086C45.4085 30.6086 44.7924 30.3535 44.3383 29.8993C43.8841 29.4451 43.6289 28.8291 43.6289 28.1868V16.7567H41.2555C40.6131 16.7567 39.9971 16.5016 39.5429 16.0474C39.0888 15.5932 38.8336 14.9772 38.8336 14.3348V10.6875H14.6391V14.3348C14.6391 14.9772 14.3839 15.5932 13.9297 16.0474C13.4755 16.5016 12.8595 16.7567 12.2172 16.7567H9.84375V58.1562H29.9986C30.6409 58.1562 31.2569 58.4114 31.7111 58.8656C32.1653 59.3198 32.4205 59.9358 32.4205 60.5781C32.4205 61.2204 32.1653 61.8365 31.7111 62.2906C31.2569 62.7448 30.6409 63 29.9986 63H7.66406C6.95751 63 6.27989 62.7193 5.78029 62.2197C5.28068 61.7201 5 61.0425 5 60.3359V14.577C5 13.8705 5.28068 13.1929 5.78029 12.6933C6.27989 12.1936 6.95751 11.913 7.66406 11.913H9.79531V8.50781C9.79531 7.80126 10.076 7.12364 10.5756 6.62404C11.0752 6.12443 11.7528 5.84375 12.4594 5.84375H24.3145V3.42188C24.3145 2.77955 24.5696 2.16354 25.0238 1.70935C25.478 1.25516 26.094 1 26.7363 1C27.3786 1 27.9947 1.25516 28.4489 1.70935C28.903 2.16354 29.1582 2.77955 29.1582 3.42188V5.84375H41.0133C41.7198 5.84375 42.3974 6.12443 42.8971 6.62404C43.3967 7.12364 43.6773 7.80126 43.6773 8.50781V11.913Z" fill="#868686"/>
<path d="M19.4102 23.2812C19.4102 22.6389 19.155 22.0229 18.7008 21.5687C18.2466 21.1145 17.6306 20.8594 16.9883 20.8594C16.346 20.8594 15.7299 21.1145 15.2758 21.5687C14.8216 22.0229 14.5664 22.6389 14.5664 23.2812V25.7031C14.5664 26.3454 14.8216 26.9615 15.2758 27.4156C15.7299 27.8698 16.346 28.125 16.9883 28.125C17.6306 28.125 18.2466 27.8698 18.7008 27.4156C19.155 26.9615 19.4102 26.3454 19.4102 25.7031V23.2812Z" fill="#868686"/>
<path d="M18.7008 32.4672C19.155 32.9214 19.4102 33.5374 19.4102 34.1797V36.6016C19.4102 37.2439 19.155 37.8599 18.7008 38.3141C18.2466 38.7683 17.6306 39.0234 16.9883 39.0234C16.346 39.0234 15.7299 38.7683 15.2758 38.3141C14.8216 37.8599 14.5664 37.2439 14.5664 36.6016V34.1797C14.5664 33.5374 14.8216 32.9214 15.2758 32.4672C15.7299 32.013 16.346 31.7578 16.9883 31.7578C17.6306 31.7578 18.2466 32.013 18.7008 32.4672Z" fill="#868686"/>
<path d="M28.3883 32.4672C28.8425 32.9214 29.0977 33.5374 29.0977 34.1797V36.6016C29.0977 37.2439 28.8425 37.8599 28.3883 38.3141C27.9341 38.7683 27.3181 39.0234 26.6758 39.0234C26.0335 39.0234 25.4174 38.7683 24.9633 38.3141C24.5091 37.8599 24.2539 37.2439 24.2539 36.6016V34.1797C24.2539 33.5374 24.5091 32.9214 24.9633 32.4672C25.4174 32.013 26.0335 31.7578 26.6758 31.7578C27.3181 31.7578 27.9341 32.013 28.3883 32.4672Z" fill="#868686"/>
<path d="M16.9883 42.6562C16.346 42.6562 15.7299 42.9114 15.2758 43.3656C14.8216 43.8198 14.5664 44.4358 14.5664 45.0781V47.5C14.5664 48.1423 14.8216 48.7583 15.2758 49.2125C15.7299 49.6667 16.346 49.9219 16.9883 49.9219C17.6306 49.9219 18.2466 49.6667 18.7008 49.2125C19.155 48.7583 19.4102 48.1423 19.4102 47.5V45.0781C19.4102 44.4358 19.155 43.8198 18.7008 43.3656C18.2466 42.9114 17.6306 42.6562 16.9883 42.6562Z" fill="#868686"/>
<path d="M24.9633 43.3656C25.4174 42.9114 26.0335 42.6562 26.6758 42.6562C27.3181 42.6562 27.9341 42.9114 28.3883 43.3656C28.8425 43.8198 29.0977 44.4358 29.0977 45.0781V47.5C29.0977 48.1423 28.8425 48.7583 28.3883 49.2125C27.9341 49.6667 27.3181 49.9219 26.6758 49.9219C26.0335 49.9219 25.4174 49.6667 24.9633 49.2125C24.5091 48.7583 24.2539 48.1423 24.2539 47.5V45.0781C24.2539 44.4358 24.5091 43.8198 24.9633 43.3656Z" fill="#868686"/>
<path d="M28.3883 21.5687C28.8425 22.0229 29.0977 22.6389 29.0977 23.2812V25.7031C29.0977 26.3454 28.8425 26.9615 28.3883 27.4156C27.9341 27.8698 27.3181 28.125 26.6758 28.125C26.0335 28.125 25.4174 27.8698 24.9633 27.4156C24.5091 26.9615 24.2539 26.3454 24.2539 25.7031V23.2812C24.2539 22.6389 24.5091 22.0229 24.9633 21.5687C25.4174 21.1145 26.0335 20.8594 26.6758 20.8594C27.3181 20.8594 27.9341 21.1145 28.3883 21.5687Z" fill="#868686"/>
<path d="M36.3633 20.8594C35.721 20.8594 35.1049 21.1145 34.6508 21.5687C34.1966 22.0229 33.9414 22.6389 33.9414 23.2812V25.7031C33.9414 26.3454 34.1966 26.9615 34.6508 27.4156C35.1049 27.8698 35.721 28.125 36.3633 28.125C37.0056 28.125 37.6216 27.8698 38.0758 27.4156C38.53 26.9615 38.7852 26.3454 38.7852 25.7031V23.2812C38.7852 22.6389 38.53 22.0229 38.0758 21.5687C37.6216 21.1145 37.0056 20.8594 36.3633 20.8594Z" fill="#868686"/>
</svg>
