<svg width="64" height="64" viewBox="0 0 64 64" fill="none" xmlns="http://www.w3.org/2000/svg">
<path fill-rule="evenodd" clip-rule="evenodd" d="M5.50391 22.5C5.50391 20.7051 6.95898 19.25 8.75391 19.25H39.8238C40.4175 19.25 40.9706 19.5509 41.2931 20.0493L48.8641 31.75H39.4999C38.5334 31.75 37.7499 30.9665 37.7499 30V26C37.7499 24.7574 36.7426 23.75 35.4999 23.75C34.2573 23.75 33.2499 24.7574 33.2499 26V30C33.2499 33.4518 36.0482 36.25 39.4999 36.25H52.2309L57.8227 40.5783C58.2509 40.9097 58.5015 41.4207 58.5015 41.9621V49C58.5015 49.9665 57.718 50.75 56.7515 50.75H52.7947C52.0064 47.452 49.0395 45 45.4999 45C41.3578 45 37.9999 48.3579 37.9999 52.5C37.9999 56.6421 41.3578 60 45.4999 60C48.6713 60 51.3829 58.0317 52.4797 55.25H56.7515C60.2033 55.25 63.0015 52.4518 63.0015 49V41.9621C63.0015 40.0283 62.1063 38.2034 60.5771 37.0197L54.6806 32.4556L45.0711 17.6047C43.9194 15.8247 41.9439 14.75 39.8238 14.75H8.75391C4.4737 14.75 1.00391 18.2198 1.00391 22.5V47.5C1.00391 51.7802 4.4737 55.25 8.75391 55.25H11.5201C12.617 58.0317 15.3286 60 18.4999 60C21.673 60 24.3858 58.0295 25.4815 55.2455C25.5289 55.2485 25.5768 55.25 25.6249 55.25H32.9999C34.2426 55.25 35.2499 54.2426 35.2499 53C35.2499 51.7574 34.2426 50.75 32.9999 50.75H25.7947C25.0064 47.452 22.0395 45 18.4999 45C14.9604 45 11.9935 47.452 11.2052 50.75H8.75391C6.95898 50.75 5.50391 49.2949 5.50391 47.5V22.5ZM18.4999 55.5C20.1568 55.5 21.4999 54.1569 21.4999 52.5C21.4999 50.8431 20.1568 49.5 18.4999 49.5C16.8431 49.5 15.4999 50.8431 15.4999 52.5C15.4999 54.1569 16.8431 55.5 18.4999 55.5ZM45.4999 55.5C47.1568 55.5 48.4999 54.1569 48.4999 52.5C48.4999 50.8431 47.1568 49.5 45.4999 49.5C43.8431 49.5 42.4999 50.8431 42.4999 52.5C42.4999 54.1569 43.8431 55.5 45.4999 55.5Z" fill="#868686"/>
<path fill-rule="evenodd" clip-rule="evenodd" d="M25.75 10.5C25.75 7.32436 28.3244 4.75 31.5 4.75H33.5C36.6756 4.75 39.25 7.32436 39.25 10.5C39.25 11.7426 38.2426 12.75 37 12.75C35.7574 12.75 34.75 11.7426 34.75 10.5C34.75 9.80964 34.1904 9.25 33.5 9.25H31.5C30.8096 9.25 30.25 9.80964 30.25 10.5C30.25 11.7426 29.2426 12.75 28 12.75C26.7574 12.75 25.75 11.7426 25.75 10.5Z" fill="#EB5757"/>
<path fill-rule="evenodd" clip-rule="evenodd" d="M16.25 37.5C17.4926 37.5 18.5 36.4926 18.5 35.25V32.5H21.25C22.4926 32.5 23.5 31.4926 23.5 30.25C23.5 29.0074 22.4926 28 21.25 28H18.5V25.25C18.5 24.0074 17.4926 23 16.25 23C15.0074 23 14 24.0074 14 25.25L14 28H11.25C10.0074 28 9 29.0074 9 30.25C9 31.4926 10.0074 32.5 11.25 32.5H14L14 35.25C14 36.4926 15.0074 37.5 16.25 37.5Z" fill="#EB5757"/>
</svg>
