<svg width="64" height="64" viewBox="0 0 64 64" fill="none" xmlns="http://www.w3.org/2000/svg">
<path fill-rule="evenodd" clip-rule="evenodd" d="M10 51C10 49.8954 11.1513 49 12.5714 49H19.4286C20.8487 49 22 49.8954 22 51C22 52.1046 20.8487 53 19.4286 53H12.5714C11.1513 53 10 52.1046 10 51Z" fill="#3B86C8"/>
<path fill-rule="evenodd" clip-rule="evenodd" d="M15.5 49C16.8807 49 18 49.9636 18 51.1522V57.8478C18 59.0364 16.8807 60 15.5 60C14.1193 60 13 59.0364 13 57.8478V51.1522C13 49.9636 14.1193 49 15.5 49Z" fill="#3B86C8"/>
<path fill-rule="evenodd" clip-rule="evenodd" d="M43.6854 3.68537C44.5992 2.77154 46.0808 2.77154 46.9946 3.68537L55.3146 12.0054C56.2285 12.9192 56.2285 14.4008 55.3146 15.3146C54.4008 16.2285 52.9192 16.2285 52.0054 15.3146L43.6854 6.99463C42.7715 6.0808 42.7715 4.5992 43.6854 3.68537Z" fill="#3B86C8"/>
<path fill-rule="evenodd" clip-rule="evenodd" d="M43.6994 10.6338C41.5788 8.45541 38.1407 8.45542 36.0201 10.6338L22.6887 24.3282C20.5681 26.5066 20.5682 30.0384 22.6887 32.2167L23.279 32.823L20.4946 35.6832C19.5858 36.6168 19.5858 38.1304 20.4946 39.064C21.4035 39.9975 22.877 39.9975 23.7858 39.064L26.5701 36.2038L27.1603 36.8101C29.2809 38.9884 32.7191 38.9884 34.8397 36.8101L42.0525 29.4008C43.787 31.2384 45.0688 33.4895 45.7744 35.9662C46.6729 39.1201 46.5925 42.4833 45.5443 45.5881C44.4961 48.6929 42.5322 51.3851 39.9256 53.2903C37.3198 55.195 34.2012 56.2185 31.0031 56.2189C31.0021 56.2189 31.0012 56.2189 31.0002 56.2189C31.0001 56.2189 30.9999 56.2189 30.9998 56.2189H10.3272C9.04192 56.2189 8 57.2891 8 58.6094C8 59.9297 9.04192 61 10.3272 61L30.9998 61L51.6728 61C52.9581 61 54 59.9297 54 58.6094C54 57.2891 52.9581 56.2189 51.6728 56.2189H43.8448C46.6334 53.8288 48.7454 50.6981 49.9417 47.1547C51.3069 43.1111 51.4117 38.7309 50.2414 34.6233C49.3157 31.3739 47.6284 28.4227 45.344 26.0197L48.171 23.1156C50.2916 20.9373 50.2916 17.4055 48.171 15.2271L43.6994 10.6338ZM30.4515 33.4293L28.2157 31.1326L25.9799 28.8359C25.6769 28.5247 25.6769 28.0202 25.9799 27.709L39.3112 14.0145C39.6142 13.7033 40.1054 13.7034 40.4083 14.0145L44.8799 18.6079C45.1828 18.9191 45.1828 19.4237 44.8799 19.7348L31.5485 33.4293C31.2456 33.7405 30.7544 33.7405 30.4515 33.4293Z" fill="#89B6DE"/>
</svg>
