<svg width="64" height="64" viewBox="0 0 64 64" fill="none" xmlns="http://www.w3.org/2000/svg">
<path fill-rule="evenodd" clip-rule="evenodd" d="M32 58.5C46.6355 58.5 58.5 46.6355 58.5 32C58.5 17.3645 46.6355 5.5 32 5.5C17.3645 5.5 5.5 17.3645 5.5 32C5.5 46.6355 17.3645 58.5 32 58.5ZM32 63C49.1208 63 63 49.1208 63 32C63 14.8792 49.1208 1 32 1C14.8792 1 1 14.8792 1 32C1 49.1208 14.8792 63 32 63Z" fill="#868686"/>
<path fill-rule="evenodd" clip-rule="evenodd" d="M20.1829 14.4543C19.8815 13.2488 18.6599 12.5158 17.4543 12.8172C16.2488 13.1186 15.5158 14.3402 15.8172 15.5457C16.8976 19.8674 19.6929 21.7543 21.5819 23.0294L21.582 23.0295C21.8662 23.2213 22.1299 23.3993 22.3642 23.5697C23.284 24.2387 23.7426 24.7319 23.9836 25.3641C24.0839 25.6273 24.1683 25.9747 24.1963 26.4438C21.9087 25.7581 19.6554 26.2357 18.0737 26.8693C16.1413 27.6433 14.2968 28.9888 13.0637 30.6293C11.8191 30.8712 10.4805 31.4094 9.40166 32.4872C8.00736 33.8803 7.38037 35.8909 7.88653 37.8917C8.81757 41.572 12.5024 42.7967 15.0941 42.7967L15.1631 42.7967C15.3474 42.7968 15.5718 42.797 15.825 42.7905C15.8383 42.8966 15.8534 43.0029 15.8703 43.1093C16.2939 45.7681 17.7693 47.9209 19.7796 49.5022C21.3128 50.7082 23.1858 51.1829 24.682 51.3875C26.2809 51.6062 28.0199 51.5906 29.7339 51.4188C33.1417 51.0772 36.9812 50.063 40.2412 48.4109C45.9603 45.5127 49.5183 40.5347 50.3341 34.1922C50.3777 33.8528 50.4859 33.3564 50.6394 32.8567C50.7131 32.6169 50.7858 32.4137 50.8477 32.2611C50.8873 32.1634 50.9124 32.1114 50.9194 32.0969L50.9194 32.0969L50.92 32.0957C52.4249 29.5569 53.1013 26.6512 52.5076 23.7558C51.9069 20.8265 50.1099 18.4222 47.6277 16.7638C46.1398 15.7698 44.4039 15.2393 42.8288 15.0354C41.2628 14.8327 39.4302 14.8986 37.7267 15.5185C34.8744 16.5564 32.9175 18.9485 31.8516 21.1513C31.2096 22.4782 30.7088 24.1141 30.6363 25.8396C30.6071 26.5346 30.6474 27.2442 30.7759 27.9539L29.8914 28.3015C29.392 28.5291 28.9238 28.8013 28.4897 29.1082C28.852 27.0225 28.7646 25.2725 28.1884 23.761C27.4763 21.8932 26.1536 20.7614 25.0109 19.9304C24.654 19.6708 24.3111 19.4334 23.9835 19.2066C22.1687 17.9502 20.8241 17.0193 20.1829 14.4543ZM41.419 32.9576C41.1978 32.6329 40.7977 32.4252 40.0772 32.2899C40.0273 32.2806 39.9772 32.27 39.927 32.2584C39.4834 32.1553 39.0309 31.964 38.5893 31.7034C37.9807 31.3442 37.393 30.8536 36.8782 30.2812C36.3948 29.7436 35.9756 29.1339 35.6639 28.4933C35.5521 28.2637 35.4542 28.0301 35.372 27.7945C34.4028 25.0146 36.4575 20.7686 39.2659 19.747C40.9825 19.1222 43.556 19.4555 45.1278 20.5056C48.4027 22.6935 49.1404 26.2905 47.0377 29.8201C46.6744 30.43 46.2826 31.5695 46.0437 32.6483C45.9695 32.9833 45.9101 33.3125 45.8708 33.6181C45.8341 33.9038 45.7903 34.1856 45.7396 34.4633C45.4634 35.9768 44.9809 37.3702 44.2998 38.6329C43.5655 39.9944 42.6002 41.2038 41.4137 42.2476C40.4802 43.0688 39.4098 43.7874 38.2071 44.3969C37.5694 44.72 36.8993 45.0159 36.2091 45.2832C34.8009 45.8285 33.3089 46.2553 31.8396 46.5525C27.9171 47.346 24.1536 47.2174 22.5617 45.9653C21.0303 44.7607 20.2554 43.2758 20.2493 41.5869C20.2478 41.1775 20.2914 40.7561 20.3805 40.3238C20.5125 39.6826 20.7443 39.0175 21.0764 38.3319L21.1109 38.2612C21.1652 38.1511 21.2221 38.0406 21.2815 37.9295C21.6236 37.2903 21.3672 36.7973 20.9842 36.4432C20.8715 36.339 20.7478 36.2468 20.6252 36.1664C20.5434 36.1127 20.434 36.0411 20.3038 35.9813C20.2288 35.9469 20.1469 35.9165 20.0594 35.8958C19.6913 35.8086 19.2237 35.8931 18.7521 36.5757C18.6681 36.6972 18.5838 36.838 18.5001 36.9999C18.1597 37.6584 17.6631 37.9834 17.0331 38.1433C16.7978 38.203 16.544 38.2397 16.2727 38.2621L16.2227 38.2661C15.8739 38.2926 15.4969 38.2967 15.0941 38.2967C14.9411 38.2967 14.7936 38.2903 14.6518 38.2782L14.6502 38.2781C11.749 38.029 11.2195 35.3567 14.2586 34.9942C14.3434 34.9841 14.4309 34.9667 14.5203 34.9428C14.7054 34.8931 14.8995 34.8147 15.0941 34.7128C15.3289 34.5899 15.5657 34.4325 15.7924 34.2487C16.101 33.9985 16.3909 33.6995 16.6315 33.3725C17.1619 32.652 17.9796 31.9564 18.9114 31.4433C20.3839 30.6324 22.1413 30.2773 23.5001 30.9999C24.5677 31.5676 25.0668 32.3317 25.2995 33.1428C25.4942 33.8216 25.5023 34.5333 25.5008 35.1902L25.5005 35.2977L25.5005 35.2997C25.5003 35.3671 25.5001 35.4338 25.5001 35.4999C25.5001 35.614 25.4993 35.7312 25.4984 35.8509V35.8509C25.4945 36.3826 25.4903 36.9639 25.5585 37.5533C25.6008 37.9189 25.6709 38.2877 25.7862 38.6495C25.9357 39.1184 26.1611 39.5757 26.5001 39.9999C27.6587 41.4493 29.1317 42.0408 31.3487 42.057C32.1371 42.0628 33.0196 41.9958 34.0155 41.8687L34.0696 41.8617L34.1909 41.8459C34.6393 41.7863 35.1106 41.715 35.606 41.6332C36.0704 41.5565 36.408 41.452 36.6502 41.3246C37.3127 40.9759 37.2603 40.4551 37.1374 39.8608L37.1333 39.841L37.1293 39.8221C36.9549 38.9933 36.8295 38.6088 36.5001 38.1684C36.2437 37.8256 35.7132 37.8085 34.9911 37.9091C34.6846 37.9518 34.3432 38.0158 33.974 38.085C33.8386 38.1103 33.6994 38.1364 33.5567 38.1624L33.5465 38.1643L33.5236 38.1684C30.9144 38.6419 30.0614 38.4989 29.5975 37.5239C29.4795 37.2759 29.3867 36.9741 29.2965 36.6149C29.2083 36.2637 29.2061 35.8844 29.2766 35.4999C29.3756 34.9603 29.6176 34.4105 29.9659 33.9138C30.4136 33.2753 31.0368 32.7247 31.7571 32.3965C32.0928 32.2435 32.3611 32.1562 32.6209 32.151C33.1227 32.1411 33.5925 32.4382 34.4536 33.1628C34.5536 33.2469 34.6506 33.3281 34.7452 33.4067C35.8681 34.3397 36.6318 34.8906 37.5569 35.2621C38.0533 35.4614 38.5961 35.609 39.2659 35.7363C39.3182 35.7463 39.3715 35.7546 39.4254 35.7613C39.5127 35.7722 39.6021 35.7788 39.6921 35.7812C39.8911 35.7865 40.0943 35.7712 40.2911 35.7354C40.4524 35.7061 40.6095 35.663 40.7566 35.6063C41.2871 35.4018 41.6878 35.0195 41.6878 34.4633C41.6878 33.8498 41.6619 33.3938 41.4777 33.0539L41.4772 33.053C41.4593 33.0201 41.44 32.9883 41.419 32.9576ZM14.7565 39.4679C14.7565 39.4679 14.7619 39.4666 14.7738 39.4648C14.7626 39.4672 14.7565 39.4679 14.7565 39.4679Z" fill="#F7B801"/>
</svg>
