<svg width="64" height="64" viewBox="0 0 64 64" fill="none" xmlns="http://www.w3.org/2000/svg">
<path d="M53.3125 12.0195H42.89V10.6875C42.8871 8.1191 41.8655 5.65672 40.0494 3.84059C38.2332 2.02446 35.7709 1.00288 33.2025 1L30.7975 1C28.2291 1.00288 25.7668 2.02446 23.9506 3.84059C22.1345 5.65672 21.1129 8.1191 21.11 10.6875V12.0195H10.6875C8.1191 12.0224 5.65672 13.044 3.84059 14.8601C2.02446 16.6763 1.00288 19.1386 1 21.707L1 53.3125C1.00288 55.8809 2.02446 58.3433 3.84059 60.1594C5.65672 61.9755 8.1191 62.9971 10.6875 63H33.8633C34.5056 63 35.1216 62.7448 35.5758 62.2906C36.03 61.8365 36.2852 61.2204 36.2852 60.5781C36.2852 59.9358 36.03 59.3198 35.5758 58.8656C35.1216 58.4114 34.5056 58.1562 33.8633 58.1562H10.6875C9.40335 58.1546 8.17225 57.6438 7.26422 56.7358C6.35619 55.8277 5.84535 54.5966 5.84375 53.3125V27.8828H19.1641V43.9375C19.1641 44.5798 19.4192 45.1958 19.8734 45.65C20.3276 46.1042 20.9436 46.3594 21.5859 46.3594C22.2283 46.3594 22.8443 46.1042 23.2985 45.65C23.7527 45.1958 24.0078 44.5798 24.0078 43.9375V27.8828H39.9922V30.9375C39.9922 31.5798 40.2473 32.1958 40.7015 32.65C41.1557 33.1042 41.7717 33.3594 42.4141 33.3594C43.0564 33.3594 43.6724 33.1042 44.1266 32.65C44.5808 32.1958 44.8359 31.5798 44.8359 30.9375V27.8828H58.1562V30.6953C58.1562 31.3376 58.4114 31.9536 58.8656 32.4078C59.3198 32.862 59.9358 33.1172 60.5781 33.1172C61.2204 33.1172 61.8365 32.862 62.2906 32.4078C62.7448 31.9536 63 31.3376 63 30.6953V21.707C62.9971 19.1386 61.9755 16.6763 60.1594 14.8601C58.3433 13.044 55.8809 12.0224 53.3125 12.0195ZM25.9538 10.6875C25.9554 9.40335 26.4662 8.17225 27.3743 7.26422C28.2823 6.35619 29.5134 5.84535 30.7975 5.84375H33.2025C34.4866 5.84535 35.7177 6.35619 36.6257 7.26422C37.5338 8.17225 38.0446 9.40335 38.0462 10.6875V12.0195H25.9538V10.6875ZM58.1562 23.0391H5.84375V21.707C5.84375 20.4224 6.35407 19.1904 7.26245 18.282C8.17083 17.3736 9.40286 16.8633 10.6875 16.8633H53.3125C54.5971 16.8633 55.8292 17.3736 56.7375 18.282C57.6459 19.1904 58.1562 20.4224 58.1562 21.707V23.0391Z" fill="#868686"/>
<path d="M50.0006 38.9397L58.216 42.6071V49.1522C58.216 51.3873 57.3142 53.6917 55.7414 55.4669C54.1687 57.2421 52.1833 58.2216 50.1465 58.2216H49.8535C47.8203 58.2216 45.8301 57.2432 44.2586 55.4669C42.687 53.6905 41.784 51.3873 41.784 49.1522V42.6071L50.0006 38.9397ZM50.2003 34C50.1334 34 50.0664 34 50.0006 34.0096C49.9348 34.0191 49.8678 34 49.8009 34C49.4966 34.0002 49.1959 34.0645 48.9182 34.1887L38.2833 38.9361C37.9011 39.1063 37.5764 39.3835 37.3487 39.7342C37.1209 40.0848 36.9998 40.4939 37 40.9119V49.1546C37 52.5389 38.3395 55.9937 40.6729 58.6326C43.1654 61.447 46.4233 63 49.8535 63H50.1465C53.5743 63 56.8346 61.447 59.3271 58.6302C61.6617 55.9913 63 52.5377 63 49.1522V40.9095C63.0001 40.4917 62.8792 40.0828 62.6516 39.7321C62.4241 39.3815 62.0998 39.1042 61.7179 38.9337L51.0878 34.1887C50.8101 34.0645 50.5093 34.0002 50.2051 34H50.2003Z" fill="#FE7333"/>
</svg>
