<svg width="64" height="64" viewBox="0 0 64 64" fill="none" xmlns="http://www.w3.org/2000/svg">
<path fill-rule="evenodd" clip-rule="evenodd" d="M8.32072 38.6023C7.85264 38.8014 1.55075 45.126 1.20707 45.7414C1.0869 45.9568 1.00247 46.3814 1.00005 46.7838C0.989024 48.5712 2.87455 49.7408 4.49927 48.9542C5.09394 48.6664 11.2076 42.5629 11.5399 41.9255C11.8182 41.3913 11.8318 40.3026 11.5663 39.803C11.2949 39.2927 10.7543 38.7721 10.2931 38.5772C9.78589 38.3628 8.85579 38.3747 8.32072 38.6023ZM13.8273 47.0557C13.3533 47.2706 8.71902 51.955 8.32278 52.6198C7.445 54.092 8.46923 56.0513 10.1911 56.1941C11.3183 56.2875 11.4966 56.1668 14.0674 53.5714C16.6862 50.9276 16.9899 50.5668 17.1749 49.88C17.4248 48.9518 16.9775 47.8505 16.1092 47.2555C15.5891 46.8991 14.402 46.7952 13.8273 47.0557ZM22.016 52.5275C21.5857 52.7209 16.2888 57.8851 15.4563 58.9228C14.656 59.9203 14.564 60.9205 15.1846 61.8775C15.6231 62.5539 16.2101 62.9144 16.9763 62.978C18.1599 63.0761 18.3041 62.9758 21.4492 59.8665C24.6768 56.6756 25.2158 56.0606 25.407 55.3507C25.6622 54.4031 25.2226 53.307 24.3467 52.7067C23.8055 52.3359 22.6412 52.2464 22.016 52.5275Z" fill="#868686"/>
<path fill-rule="evenodd" clip-rule="evenodd" d="M34.8502 1.11618C27.2964 1.98293 20.3056 6.40765 16.3091 12.8513C13.5043 17.3736 12.1398 22.8389 12.5441 27.9316C13.1785 35.923 17.282 42.8895 23.9477 47.291C27.2096 49.4448 31.1832 50.848 35.1998 51.264C37.0405 51.4546 40.2142 51.3445 41.9974 51.028C45.4307 50.4186 49.4461 48.8411 50.4001 47.7266C51.6664 46.247 50.7139 43.9972 48.7262 43.7731C48.2799 43.7228 47.996 43.8087 46.8256 44.3484C45.0732 45.1565 43.7201 45.6297 42.1185 45.994C33.0788 48.0512 23.6551 43.5558 19.4967 35.2023C18.8234 33.8499 17.7697 30.8614 17.9148 30.7161C18.0392 30.5917 19.5263 30.2783 20.5229 30.1665C22.4965 29.9451 24.8177 30.3357 26.7025 31.2066C29.8516 32.6616 32.2161 35.3894 33.2119 38.7163C33.6748 40.2627 33.8702 40.6794 34.3157 41.0706C35.4962 42.1071 37.3436 41.7594 38.0813 40.3619C38.4464 39.6703 38.4398 39.0671 38.0522 37.7295C37.1541 34.6295 35.7427 32.2415 33.5158 30.0539C31.1119 27.6924 28.3603 26.2325 24.9139 25.4902C23.4887 25.1831 19.822 25.1785 18.4532 25.4818C17.9297 25.5979 17.4718 25.6929 17.4356 25.6929C17.313 25.6929 17.5205 23.5601 17.7676 22.2795C20.2036 9.65599 33.7415 2.47088 45.6315 7.49088C48.1197 8.54139 50.1075 9.90251 52.1128 11.9292C53.7696 13.6034 54.8566 15.1188 55.8599 17.1526C56.576 18.6044 57.5932 21.4033 57.4549 21.5417C57.4224 21.5742 57.0519 21.6709 56.6317 21.7564C52.5898 22.5799 48.4839 21.3076 45.6225 18.3449C43.9072 16.5692 43.0801 15.0427 42.3055 12.2243C42.2016 11.8456 41.9693 11.3608 41.7894 11.147C40.8727 10.0577 39.008 10.052 38.0961 11.1358C37.3699 11.9988 37.3586 13.0209 38.052 15.0933C39.3349 18.9269 41.741 22.0542 45.082 24.2301C46.7906 25.3429 48.8076 26.1663 50.9011 26.6059C52.738 26.9915 55.6203 26.9773 57.6738 26.5723L58.0261 26.5029L57.9422 27.7029C57.7349 30.6622 56.8087 33.5984 55.1366 36.5954C54.7396 37.3069 54.7017 37.4544 54.7423 38.1257C54.8032 39.1329 55.201 39.7295 56.1075 40.173C56.897 40.5593 57.5703 40.5327 58.3693 40.0837C58.9652 39.7487 59.3783 39.1367 60.3559 37.1405C65.4384 26.7621 62.7454 14.2897 53.8084 6.81553C50.0394 3.66349 45.2873 1.64132 40.397 1.10867C39.0384 0.96064 36.1717 0.964517 34.8502 1.11618Z" fill="#F7B801"/>
</svg>
