<svg width="64" height="64" viewBox="0 0 64 64" fill="none" xmlns="http://www.w3.org/2000/svg">
<path d="M60.5781 24.7344C59.2404 24.7344 58.1562 25.8185 58.1562 27.1562V35.6328H29.5781C29.5781 30.291 25.2325 25.9453 19.8906 25.9453H10.6875C8.9236 25.9453 7.26991 26.4216 5.84375 27.2485V13.4727C5.84375 12.1349 4.75958 11.0508 3.42188 11.0508C2.08417 11.0508 1 12.1349 1 13.4727V60.5781C1 61.9158 2.08417 63 3.42188 63C4.75958 63 5.84375 61.9158 5.84375 60.5781V52.5859H43.625C44.9627 52.5859 46.0469 51.5018 46.0469 50.1641C46.0469 48.8264 44.9627 47.7422 43.625 47.7422H5.84375V40.4766H58.1562V47.5H55.7344C54.3967 47.5 53.3125 48.5842 53.3125 49.9219C53.3125 51.2596 54.3967 52.3438 55.7344 52.3438H58.1562V60.5781C58.1562 61.9158 59.2404 63 60.5781 63C61.9158 63 63 61.9158 63 60.5781V27.1562C63 25.8185 61.9158 24.7344 60.5781 24.7344ZM10.6875 30.7891H19.8906C22.5613 30.7891 24.7344 32.9621 24.7344 35.6328H5.84375C5.84375 32.9621 8.01682 30.7891 10.6875 30.7891Z" fill="#868686"/>
<path d="M43.625 9.47656C42.2873 9.47656 41.2031 10.5607 41.2031 11.8984C41.2031 13.2361 42.2873 14.3203 43.625 14.3203H49.6797V20.375C49.6797 21.7127 50.7639 22.7969 52.1016 22.7969C53.4393 22.7969 54.5234 21.7127 54.5234 20.375V14.3203H60.5781C61.9158 14.3203 63 13.2361 63 11.8984C63 10.5607 61.9158 9.47656 60.5781 9.47656H54.5234V3.42188C54.5234 2.08417 53.4393 1 52.1016 1C50.7639 1 49.6797 2.08417 49.6797 3.42188V9.47656H43.625Z" fill="#EB5757"/>
</svg>
