<svg width="64" height="64" viewBox="0 0 64 64" fill="none" xmlns="http://www.w3.org/2000/svg">
<path d="M63 50.89C60.52 50.89 58.1 49.5 55.81 46.75C55.6581 46.608 55.4579 46.529 55.25 46.529C55.0421 46.529 54.8419 46.608 54.69 46.75C52.4 49.5 50 50.89 47.5 50.89C45 50.89 42.6 49.5 40.31 46.75C40.1581 46.608 39.9579 46.529 39.75 46.529C39.5421 46.529 39.3419 46.608 39.19 46.75C36.9 49.5 34.48 50.89 32 50.89C29.52 50.89 27.1 49.5 24.81 46.75C24.6581 46.608 24.4579 46.529 24.25 46.529C24.0421 46.529 23.8419 46.608 23.69 46.75C21.4 49.5 19 50.89 16.5 50.89C14 50.89 11.6 49.5 9.31 46.75C9.15811 46.608 8.95794 46.529 8.75 46.529C8.54206 46.529 8.34189 46.608 8.19 46.75C5.9 49.5 3.48 50.89 1 50.89V46.05C1.93 46.05 3.2 45.17 4.48 43.65C4.99848 43.0204 5.65073 42.5142 6.38935 42.1682C7.12797 41.8223 7.93439 41.6452 8.75 41.65C9.56538 41.6466 10.3713 41.8243 11.1097 42.1702C11.8481 42.516 12.5006 43.0215 13.02 43.65C14.3 45.17 15.57 46.05 16.5 46.05C17.43 46.05 18.7 45.17 19.98 43.65C20.5085 43.0349 21.1637 42.5413 21.9007 42.2029C22.6377 41.8645 23.439 41.6893 24.25 41.6893C25.061 41.6893 25.8623 41.8645 26.5993 42.2029C27.3363 42.5413 27.9915 43.0349 28.52 43.65C29.8 45.17 31.07 46.05 32 46.05C32.93 46.05 34.2 45.17 35.48 43.65C36.0085 43.0349 36.6637 42.5413 37.4007 42.2029C38.1377 41.8645 38.939 41.6893 39.75 41.6893C40.561 41.6893 41.3623 41.8645 42.0993 42.2029C42.8363 42.5413 43.4915 43.0349 44.02 43.65C45.3 45.17 46.57 46.05 47.5 46.05C48.43 46.05 49.7 45.17 50.98 43.65C51.5085 43.0349 52.1637 42.5413 52.9007 42.2029C53.6377 41.8645 54.439 41.6893 55.25 41.6893C56.061 41.6893 56.8623 41.8645 57.5993 42.2029C58.3363 42.5413 58.9915 43.0349 59.52 43.65C60.8 45.17 62.07 46.05 63 46.05V50.89ZM63 58.16C62.07 58.16 60.8 57.28 59.52 55.76C58.9915 55.1449 58.3363 54.6513 57.5993 54.3129C56.8623 53.9745 56.061 53.7993 55.25 53.7993C54.439 53.7993 53.6377 53.9745 52.9007 54.3129C52.1637 54.6513 51.5085 55.1449 50.98 55.76C49.7 57.28 48.43 58.16 47.5 58.16C46.57 58.16 45.3 57.28 44.02 55.76C43.4915 55.1449 42.8363 54.6513 42.0993 54.3129C41.3623 53.9745 40.561 53.7993 39.75 53.7993C38.939 53.7993 38.1377 53.9745 37.4007 54.3129C36.6637 54.6513 36.0085 55.1449 35.48 55.76C34.2 57.28 32.93 58.16 32 58.16C31.07 58.16 29.8 57.28 28.52 55.76C27.9915 55.1449 27.3363 54.6513 26.5993 54.3129C25.8623 53.9745 25.061 53.7993 24.25 53.7993C23.439 53.7993 22.6377 53.9745 21.9007 54.3129C21.1637 54.6513 20.5085 55.1449 19.98 55.76C18.7 57.28 17.43 58.16 16.5 58.16C15.57 58.16 14.3 57.28 13.02 55.76C12.5006 55.1315 11.8481 54.626 11.1097 54.2802C10.3713 53.9343 9.56538 53.7567 8.75 53.76C7.93439 53.7552 7.12797 53.9323 6.38935 54.2782C5.65073 54.6242 4.99848 55.1304 4.48 55.76C3.2 57.28 1.93 58.16 1 58.16V63C3.48 63 5.9 61.61 8.19 58.86C8.34189 58.718 8.54206 58.639 8.75 58.639C8.95794 58.639 9.15811 58.718 9.31 58.86C11.6 61.61 14.02 63 16.5 63C18.98 63 21.4 61.61 23.69 58.86C23.8419 58.718 24.0421 58.639 24.25 58.639C24.4579 58.639 24.6581 58.718 24.81 58.86C27.1 61.61 29.52 63 32 63C34.48 63 36.9 61.61 39.19 58.86C39.3419 58.718 39.5421 58.639 39.75 58.639C39.9579 58.639 40.1581 58.718 40.31 58.86C42.6 61.61 45.02 63 47.5 63C49.98 63 52.4 61.61 54.69 58.86C54.8419 58.718 55.0421 58.639 55.25 58.639C55.4579 58.639 55.6581 58.718 55.81 58.86C58.1 61.61 60.52 63 63 63V58.16Z" fill="#3B86C8"/>
<path fill-rule="evenodd" clip-rule="evenodd" d="M29.1259 1.10886C29.9566 0.826249 30.8743 1.10629 31.4076 1.80512L46.927 22.1402C47.4006 22.7608 47.4822 23.5975 47.1374 24.2985C46.7926 24.9995 46.0812 25.4433 45.3023 25.4433H29.7829C28.6527 25.4433 27.7364 24.5237 27.7364 23.3892V3.05417C27.7364 2.17389 28.2953 1.39147 29.1259 1.10886ZM31.8295 9.11356V21.3352H41.1568L31.8295 9.11356ZM10.389 28.9628C10.7739 28.4294 11.3903 28.1136 12.0465 28.1136H51.9535C52.6097 28.1136 53.2261 28.4294 53.611 28.9628C53.9959 29.4962 54.1026 30.1825 53.8979 30.8083L51.6808 37.5866C51.405 38.4299 50.6207 39 49.7364 39H14.2636C13.3793 39 12.595 38.4299 12.3192 37.5866L10.1021 30.8083C9.89744 30.1825 10.0041 29.4962 10.389 28.9628ZM14.8723 32.2216L15.7457 34.8919H48.2543L49.1277 32.2216H14.8723Z" fill="#868686"/>
</svg>
