<svg width="64" height="64" viewBox="0 0 64 64" fill="none" xmlns="http://www.w3.org/2000/svg">
<g clip-path="url(#clip0_2_3562)">
<path d="M57.648 27.291L63.773 13.916C64.1274 13.1421 64.0636 12.241 63.6037 11.5246C63.144 10.8082 62.3512 10.3751 61.5 10.3751H53.5V2.50011C53.5 1.64699 53.065 0.85286 52.3461 0.393485C51.6273 -0.0657647 50.7239 -0.127015 49.9497 0.231485L36.4497 6.48148C35.5658 6.89073 35 7.77611 35 8.75011V16.8472C33.539 17.5241 32.0578 18.2024 30.6126 18.8641C19.6922 23.8644 9.37762 28.5875 3.82125 34.0807C3.81787 34.0841 3.8145 34.0875 3.81113 34.0907C1.3535 36.5486 0 39.8162 0 43.292V54.0001C0 59.5141 4.486 64.0001 10 64.0001H20.8958C24.3519 64.0001 27.6024 62.6617 30.0553 60.2302C34.5884 56.0729 38.3743 48.8431 42.6601 39.272C42.9403 38.6466 43.2197 38.0174 43.4989 37.3855C44.0569 36.1226 43.4856 34.6465 42.2226 34.0884C40.9596 33.5305 39.4836 34.1017 38.9255 35.3647C38.6496 35.9887 38.3735 36.6105 38.0969 37.2284C34.9451 44.2667 31.5417 51.2531 27.8686 55.3331L14.2677 41.7322C13.2914 40.7559 11.7085 40.7559 10.7323 41.7322C9.756 42.7086 9.75588 44.2916 10.7323 45.2679L23.8878 58.4234C22.9491 58.801 21.9379 59 20.8956 59H10C7.243 59 5 56.757 5 54V43.2919C5 41.154 5.83162 39.144 7.34175 37.6312C12.271 32.7619 22.6536 28.0076 32.6941 23.4101C34.1479 22.7445 35.6384 22.062 37.112 21.3792L43.6284 27.6441C44.0774 28.3111 44.8391 28.75 45.7036 28.75H55.375C56.3527 28.7501 57.2409 28.18 57.648 27.291ZM46.7923 23.7501L39.9954 17.2157C39.9965 17.1855 40 17.1557 40 17.1251V10.3476L48.5 6.41248V12.8751C48.5 14.2559 49.6193 15.3751 51 15.3751H57.6055L53.7702 23.7501H46.7923Z" fill="#868686"/>
<path d="M24.5 10C25.8808 10 27 8.88075 27 7.5V2.5C27 1.11925 25.8808 0 24.5 0C23.1192 0 22 1.11925 22 2.5V7.5C22 8.88075 23.1192 10 24.5 10Z" fill="#FE7333"/>
<path d="M13.125 13.75C12.4852 13.75 11.8454 13.5059 11.3573 13.0178L7.85728 9.51777C6.88091 8.54139 6.88091 6.95851 7.85728 5.98226C8.83366 5.00601 10.4165 5.00589 11.3928 5.98226L14.8928 9.48227C15.8692 10.4586 15.8692 12.0415 14.8928 13.0178C14.4047 13.5059 13.7649 13.75 13.125 13.75Z" fill="#FE7333"/>
<path d="M7.5 23.5H2.5C1.11925 23.5 0 22.3808 0 21C0 19.6192 1.11925 18.5 2.5 18.5H7.5C8.88075 18.5 10 19.6192 10 21C10 22.3808 8.88075 23.5 7.5 23.5Z" fill="#FE7333"/>
<path d="M40.5 56.5C40.5 55.1193 41.6193 54 43 54C44.3807 54 45.5 55.1193 45.5 56.5V61.5C45.5 62.8807 44.3807 64 43 64C41.6193 64 40.5 62.8807 40.5 61.5V56.5Z" fill="#FE7333"/>
<path d="M61.5 37H56.5C55.1193 37 54 38.1193 54 39.5C54 40.8807 55.1193 42 56.5 42H61.5C62.8807 42 64 40.8807 64 39.5C64 38.1193 62.8807 37 61.5 37Z" fill="#FE7333"/>
<path d="M50.9823 49.1072C51.9587 48.131 53.5415 48.1309 54.5178 49.1072L58.0178 52.6071C58.9942 53.5835 58.9942 55.1665 58.0178 56.1427C57.5297 56.631 56.8899 56.875 56.25 56.875C55.6102 56.875 54.9704 56.631 54.4823 56.1429L50.9823 52.6429C50.0059 51.6665 50.0059 50.0835 50.9823 49.1072Z" fill="#FE7333"/>
</g>
<defs>
<clipPath id="clip0_2_3562">
<rect width="64" height="64" fill="white"/>
</clipPath>
</defs>
</svg>
