<svg width="64" height="64" viewBox="0 0 64 64" fill="none" xmlns="http://www.w3.org/2000/svg">
<path fill-rule="evenodd" clip-rule="evenodd" d="M58.902 21.6929C61.6078 21.6929 61.6078 17.4959 58.902 17.4959H54.4155V12.6855C54.4155 7.32618 50.0904 3 44.7324 3H15.6831C10.3251 3 6 7.32618 6 12.6855V51.3145C6 56.6738 10.3251 61 15.6831 61H44.7324C50.0904 61 54.4155 56.6415 54.4155 51.3145V46.4718H58.902C60.0607 46.4718 61 45.5322 61 44.3732C61 43.2143 60.0607 42.2747 58.902 42.2747H54.4155V21.6929H58.902ZM44.7324 7.19704C47.7664 7.19704 50.2195 9.6507 50.2195 12.6855L50.2195 51.3145C50.2195 54.3493 47.7664 56.803 44.7324 56.803H15.6831C12.6491 56.803 10.196 54.3493 10.196 51.3145L10.196 12.6855C10.196 9.6507 12.6491 7.19704 15.6831 7.19704L44.7324 7.19704Z" fill="#89B6DE"/>
<path d="M23.5983 20.1329C23.5983 21.8632 22.1212 23.2659 20.2991 23.2659C18.4771 23.2659 17 21.8632 17 20.1329C17 18.4027 18.4771 17 20.2991 17C22.1212 17 23.5983 18.4027 23.5983 20.1329Z" fill="#3B86C8"/>
<path d="M42.9642 20.1332C42.9642 21.2579 42.0041 22.1696 40.8198 22.1696H30.1966C29.0123 22.1696 28.0522 21.2579 28.0522 20.1332C28.0522 19.0085 29.0123 18.0968 30.1966 18.0968H40.8198C42.0041 18.0968 42.9642 19.0085 42.9642 20.1332Z" fill="#3B86C8"/>
<path d="M43 31.9541C43 33.0787 42.0399 33.9905 40.8556 33.9905H30.2323C29.048 33.9905 28.0879 33.0787 28.0879 31.9541C28.0879 30.8294 29.048 29.9177 30.2323 29.9177H40.8556C42.0399 29.9177 43 30.8294 43 31.9541Z" fill="#3B86C8"/>
<path d="M42.9642 43.9513C42.9642 45.0759 42.0041 45.9877 40.8198 45.9877H30.1966C29.0123 45.9877 28.0522 45.0759 28.0522 43.9513C28.0522 42.8266 29.0123 41.9149 30.1966 41.9149L40.8198 41.9149C42.0041 41.9149 42.9642 42.8266 42.9642 43.9513Z" fill="#3B86C8"/>
<path d="M23.6836 31.9541C23.6836 33.6843 22.2065 35.087 20.3844 35.087C18.5624 35.087 17.0853 33.6843 17.0853 31.9541C17.0853 30.2238 18.5624 28.8211 20.3844 28.8211C22.2065 28.8211 23.6836 30.2238 23.6836 31.9541Z" fill="#3B86C8"/>
<path d="M20.3844 47C22.2065 47 23.6836 45.5973 23.6836 43.8671C23.6836 42.1368 22.2065 40.7341 20.3844 40.7341C18.5624 40.7341 17.0853 42.1368 17.0853 43.8671C17.0853 45.5973 18.5624 47 20.3844 47Z" fill="#3B86C8"/>
</svg>
