<svg width="64" height="64" viewBox="0 0 64 64" fill="none" xmlns="http://www.w3.org/2000/svg">
<path fill-rule="evenodd" clip-rule="evenodd" d="M38.97 36.96C39.06 37.22 39.49 38.22 41.43 38.22C41.7088 38.2175 41.9842 38.1592 42.2401 38.0487C42.496 37.9381 42.7272 37.7774 42.9201 37.5762C43.113 37.3749 43.2637 37.1371 43.3633 36.8767C43.4629 36.6163 43.5093 36.3386 43.5 36.06V23.76C43.5 20.8426 42.3411 18.0447 40.2782 15.9818C38.2153 13.9189 35.4174 12.76 32.5 12.76C29.5826 12.76 26.7847 13.9189 24.7218 15.9818C22.6589 18.0447 21.5 20.8426 21.5 23.76V32.66C20.8751 32.4131 20.2811 32.0943 19.73 31.71C19.0054 31.1983 18.2012 30.8097 17.35 30.56V21.14C17.3474 18.9077 16.4594 16.7676 14.8809 15.1891C13.3024 13.6106 11.1623 12.7226 8.93 12.72C8.85214 12.72 8.77731 12.6898 8.72132 12.6357C8.66534 12.5816 8.63259 12.5078 8.63 12.43V9.18C8.63 9.01557 8.69532 8.85787 8.81159 8.74159C8.92786 8.62532 9.08556 8.56 9.25 8.56H55.75C55.8323 8.55999 55.9137 8.57635 55.9896 8.60813C56.0655 8.63991 56.1343 8.68648 56.192 8.74511C56.2497 8.80375 56.2951 8.87328 56.3257 8.94966C56.3563 9.02604 56.3713 9.10774 56.37 9.19V12.43C56.37 12.5069 56.3394 12.5807 56.2851 12.6351C56.2307 12.6894 56.1569 12.72 56.08 12.72C53.8468 12.7226 51.7056 13.6103 50.1255 15.1885C48.5455 16.7667 47.6553 18.9068 47.65 21.14V34.7L47.78 34.93C48.0367 35.2844 48.3834 35.5639 48.7841 35.7397C49.1849 35.9155 49.6254 35.9812 50.06 35.93C50.3464 35.9406 50.632 35.8919 50.8987 35.7869C51.1655 35.682 51.4076 35.523 51.61 35.32C52.0007 34.8982 52.2184 34.3449 52.22 33.77V21.14C52.2226 20.118 52.6305 19.1388 53.3541 18.417C54.0777 17.6953 55.058 17.29 56.08 17.29C57.3681 17.2874 58.6028 16.7745 59.5136 15.8636C60.4245 14.9528 60.9374 13.7181 60.94 12.43V9.19C60.9374 7.81434 60.3897 6.49578 59.417 5.52304C58.4442 4.55029 57.1257 4.00264 55.75 4H9.25C7.87434 4.00264 6.55577 4.55029 5.58303 5.52304C4.61029 6.49578 4.06264 7.81434 4.06 9.19V12.43C4.06265 13.7199 4.5769 14.956 5.48992 15.8671C6.40293 16.7783 7.64012 17.29 8.93 17.29C9.44025 17.2834 9.94675 17.378 10.4202 17.5684C10.8936 17.7588 11.3246 18.0412 11.6883 18.3992C12.0519 18.7573 12.3409 19.1838 12.5386 19.6543C12.7363 20.1247 12.8387 20.6297 12.84 21.14V34.77H15.15C15.8696 34.7635 16.5717 34.9917 17.15 35.42C19.0742 36.8023 21.3625 37.5882 23.73 37.68C24.1957 37.7333 24.6666 37.6444 25.0808 37.4248C25.4949 37.2053 25.8328 36.8654 26.05 36.45L26.11 36.28V23.68C26.11 21.9747 26.7874 20.3392 27.9933 19.1333C29.1992 17.9274 30.8347 17.25 32.54 17.25C34.2453 17.25 35.8808 17.9274 37.0867 19.1333C38.2926 20.3392 38.97 21.9747 38.97 23.68V36.68V36.96Z" fill="#868686"/>
<path d="M63 50.89C60.52 50.89 58.1 49.5 55.81 46.75C55.6581 46.608 55.4579 46.529 55.25 46.529C55.0421 46.529 54.8419 46.608 54.69 46.75C52.4 49.5 50 50.89 47.5 50.89C45 50.89 42.6 49.5 40.31 46.75C40.1581 46.608 39.9579 46.529 39.75 46.529C39.5421 46.529 39.3419 46.608 39.19 46.75C36.9 49.5 34.48 50.89 32 50.89C29.52 50.89 27.1 49.5 24.81 46.75C24.6581 46.608 24.4579 46.529 24.25 46.529C24.0421 46.529 23.8419 46.608 23.69 46.75C21.4 49.5 19 50.89 16.5 50.89C14 50.89 11.6 49.5 9.31 46.75C9.15811 46.608 8.95794 46.529 8.75 46.529C8.54206 46.529 8.34189 46.608 8.19 46.75C5.9 49.5 3.48 50.89 1 50.89V46.05C1.93 46.05 3.2 45.17 4.48 43.65C4.99848 43.0204 5.65073 42.5142 6.38935 42.1682C7.12797 41.8223 7.93439 41.6452 8.75 41.65C9.56538 41.6466 10.3713 41.8243 11.1097 42.1702C11.8481 42.516 12.5006 43.0215 13.02 43.65C14.3 45.17 15.57 46.05 16.5 46.05C17.43 46.05 18.7 45.17 19.98 43.65C20.5085 43.0349 21.1637 42.5413 21.9007 42.2029C22.6377 41.8645 23.439 41.6893 24.25 41.6893C25.061 41.6893 25.8623 41.8645 26.5993 42.2029C27.3363 42.5413 27.9915 43.0349 28.52 43.65C29.8 45.17 31.07 46.05 32 46.05C32.93 46.05 34.2 45.17 35.48 43.65C36.0085 43.0349 36.6637 42.5413 37.4007 42.2029C38.1377 41.8645 38.939 41.6893 39.75 41.6893C40.561 41.6893 41.3623 41.8645 42.0993 42.2029C42.8363 42.5413 43.4915 43.0349 44.02 43.65C45.3 45.17 46.57 46.05 47.5 46.05C48.43 46.05 49.7 45.17 50.98 43.65C51.5085 43.0349 52.1637 42.5413 52.9007 42.2029C53.6377 41.8645 54.439 41.6893 55.25 41.6893C56.061 41.6893 56.8623 41.8645 57.5993 42.2029C58.3363 42.5413 58.9915 43.0349 59.52 43.65C60.8 45.17 62.07 46.05 63 46.05V50.89ZM63 58.16C62.07 58.16 60.8 57.28 59.52 55.76C58.9915 55.1449 58.3363 54.6513 57.5993 54.3129C56.8623 53.9745 56.061 53.7993 55.25 53.7993C54.439 53.7993 53.6377 53.9745 52.9007 54.3129C52.1637 54.6513 51.5085 55.1449 50.98 55.76C49.7 57.28 48.43 58.16 47.5 58.16C46.57 58.16 45.3 57.28 44.02 55.76C43.4915 55.1449 42.8363 54.6513 42.0993 54.3129C41.3623 53.9745 40.561 53.7993 39.75 53.7993C38.939 53.7993 38.1377 53.9745 37.4007 54.3129C36.6637 54.6513 36.0085 55.1449 35.48 55.76C34.2 57.28 32.93 58.16 32 58.16C31.07 58.16 29.8 57.28 28.52 55.76C27.9915 55.1449 27.3363 54.6513 26.5993 54.3129C25.8623 53.9745 25.061 53.7993 24.25 53.7993C23.439 53.7993 22.6377 53.9745 21.9007 54.3129C21.1637 54.6513 20.5085 55.1449 19.98 55.76C18.7 57.28 17.43 58.16 16.5 58.16C15.57 58.16 14.3 57.28 13.02 55.76C12.5006 55.1315 11.8481 54.626 11.1097 54.2802C10.3713 53.9343 9.56538 53.7567 8.75 53.76C7.93439 53.7552 7.12797 53.9323 6.38935 54.2782C5.65073 54.6242 4.99848 55.1304 4.48 55.76C3.2 57.28 1.93 58.16 1 58.16V63C3.48 63 5.9 61.61 8.19 58.86C8.34189 58.718 8.54206 58.639 8.75 58.639C8.95794 58.639 9.15811 58.718 9.31 58.86C11.6 61.61 14.02 63 16.5 63C18.98 63 21.4 61.61 23.69 58.86C23.8419 58.718 24.0421 58.639 24.25 58.639C24.4579 58.639 24.6581 58.718 24.81 58.86C27.1 61.61 29.52 63 32 63C34.48 63 36.9 61.61 39.19 58.86C39.3419 58.718 39.5421 58.639 39.75 58.639C39.9579 58.639 40.1581 58.718 40.31 58.86C42.6 61.61 45.02 63 47.5 63C49.98 63 52.4 61.61 54.69 58.86C54.8419 58.718 55.0421 58.639 55.25 58.639C55.4579 58.639 55.6581 58.718 55.81 58.86C58.1 61.61 60.52 63 63 63V58.16Z" fill="#3B86C8"/>
</svg>
