<svg width="64" height="64" viewBox="0 0 64 64" fill="none" xmlns="http://www.w3.org/2000/svg">
<path d="M62.3078 20.3275L44.9285 2.6691C44.8934 2.63392 44.8583 2.59995 44.8219 2.56719C43.7048 1.56114 42.2565 1.00315 40.7543 1.00001C39.2522 0.996879 37.8016 1.54882 36.6803 2.5502C36.6415 2.58539 36.604 2.62178 36.5664 2.65818L31.64 7.75127C31.2412 8.21788 31.0338 8.81868 31.0598 9.43246C31.0858 10.0462 31.3432 10.6273 31.7801 11.0583C32.217 11.4894 32.8009 11.7384 33.4138 11.7551C34.0268 11.7718 34.6233 11.5549 35.0829 11.1483L39.9379 6.12556C40.1651 5.93928 40.4496 5.83751 40.7432 5.83751C41.0368 5.83751 41.3214 5.93928 41.5486 6.12556L54.8056 19.5923H39.4402C38.8256 19.6313 38.2488 19.9034 37.8273 20.3532C37.4059 20.8031 37.1713 21.3969 37.1713 22.0139C37.1713 22.6308 37.4059 23.2246 37.8273 23.6745C38.2488 24.1243 38.8256 24.3964 39.4402 24.4354H55.7514V41.2591C55.7879 41.8768 56.0585 42.4571 56.5079 42.8814C56.9573 43.3058 57.5516 43.5421 58.1692 43.5421C58.7867 43.5421 59.381 43.3058 59.8304 42.8814C60.2798 42.4571 60.5504 41.8768 60.5869 41.2591V24.45C61.0632 24.4483 61.5283 24.3059 61.9242 24.0408C62.3201 23.7756 62.6292 23.3995 62.8128 22.9593C62.9965 22.5191 63.0465 22.0344 62.9567 21.5659C62.8669 21.0974 62.6412 20.6658 62.3078 20.3251V20.3275Z" fill="#868686"/>
<path d="M44.5141 31.5146C44.5141 32.852 43.4319 33.9362 42.0969 33.9362C40.7619 33.9362 39.6797 32.852 39.6797 31.5146C39.6797 30.1772 40.7619 29.093 42.0969 29.093C43.4319 29.093 44.5141 30.1772 44.5141 31.5146Z" fill="#868686"/>
<path d="M52.3686 31.5146C52.3686 32.852 51.2863 33.9362 49.9514 33.9362C48.6164 33.9362 47.5342 32.852 47.5342 31.5146C47.5342 30.1772 48.6164 29.093 49.9514 29.093C51.2863 29.093 52.3686 30.1772 52.3686 31.5146Z" fill="#868686"/>
<path d="M42.0969 43.6225C43.4319 43.6225 44.5141 42.5383 44.5141 41.2009C44.5141 39.8635 43.4319 38.7793 42.0969 38.7793C40.7619 38.7793 39.6797 39.8635 39.6797 41.2009C39.6797 42.5383 40.7619 43.6225 42.0969 43.6225Z" fill="#868686"/>
<path d="M52.3686 41.2009C52.3686 42.5383 51.2863 43.6225 49.9514 43.6225C48.6164 43.6225 47.5342 42.5383 47.5342 41.2009C47.5342 39.8635 48.6164 38.7793 49.9514 38.7793C51.2863 38.7793 52.3686 39.8635 52.3686 41.2009Z" fill="#868686"/>
<path d="M42.0969 53.3087C43.4319 53.3087 44.5141 52.2246 44.5141 50.8872C44.5141 49.5498 43.4319 48.4656 42.0969 48.4656C40.7619 48.4656 39.6797 49.5498 39.6797 50.8872C39.6797 52.2246 40.7619 53.3087 42.0969 53.3087Z" fill="#868686"/>
<path d="M52.3686 50.8872C52.3686 52.2246 51.2863 53.3087 49.9514 53.3087C48.6164 53.3087 47.5342 52.2246 47.5342 50.8872C47.5342 49.5498 48.6164 48.4656 49.9514 48.4656C51.2863 48.4656 52.3686 49.5498 52.3686 50.8872Z" fill="#868686"/>
<path d="M56.4554 51.5979C56.9096 51.1428 57.5257 50.8872 58.168 50.8872C58.8083 50.8891 59.4218 51.145 59.8743 51.5987C60.3268 52.0525 60.5815 52.6674 60.5828 53.3088C60.5809 55.8772 59.5621 58.34 57.7499 60.1568C55.9378 61.9736 53.4802 62.9961 50.9165 63H32.6762C32.0615 62.961 31.4848 62.6889 31.0633 62.239C30.6418 61.7892 30.4072 61.1954 30.4072 60.5784C30.4072 59.9614 30.6418 59.3676 31.0633 58.9178C31.4848 58.4679 32.0615 58.1958 32.6762 58.1568H50.9116C52.193 58.1542 53.4212 57.6432 54.3272 56.7354C55.2333 55.8277 55.7435 54.5973 55.746 53.3136C55.746 52.6701 56.0012 52.0529 56.4554 51.5979Z" fill="#868686"/>
<path fill-rule="evenodd" clip-rule="evenodd" d="M21.588 55.1756C24.2886 54.8414 26.891 53.9079 29.201 52.432C32.147 50.5498 34.495 47.8636 35.9685 44.6897C37.4421 41.5158 37.98 37.9862 37.5189 34.5164C37.0577 31.0466 35.6168 27.781 33.3656 25.1039C33.8898 22.2882 33.5583 19.3797 32.414 16.7549C31.2697 14.1301 29.3653 11.9098 26.9472 10.3815C26.4392 8.75823 25.4273 7.33982 24.0587 6.33276C22.6902 5.3257 21.0365 4.78258 19.3384 4.78247L19.3445 4.78611C17.6463 4.7852 15.9921 5.32744 14.6229 6.33386C13.2536 7.34027 12.2409 8.75832 11.732 10.3815C9.31403 11.9098 7.40961 14.1301 6.26529 16.7549C5.12098 19.3797 4.78946 22.2882 5.31365 25.1039C3.06249 27.781 1.62155 31.0466 1.16042 34.5164C0.699297 37.9862 1.23718 41.5158 2.71075 44.6897C4.18433 47.8636 6.53228 50.5498 9.47824 52.432C11.7929 53.9108 14.401 54.845 17.1072 55.1775V57.9967H13.4996C12.8393 57.9967 12.206 58.2595 11.739 58.7273C11.2721 59.195 11.0098 59.8295 11.0098 60.491C11.0098 61.1526 11.2721 61.787 11.739 62.2548C12.206 62.7226 12.8393 62.9854 13.4996 62.9854H24.8214C25.4818 62.9854 26.1151 62.7226 26.582 62.2548C27.0489 61.787 27.3113 61.1526 27.3113 60.491C27.3113 59.8295 27.0489 59.195 26.582 58.7273C26.1151 58.2595 25.4818 57.9967 24.8214 57.9967H21.588V55.1756ZM21.195 10.2397C20.6575 9.84464 20.0075 9.6328 19.3409 9.63534L19.3445 9.63898C18.6778 9.63645 18.0279 9.84828 17.4903 10.2433C16.9527 10.6384 16.5559 11.1958 16.3581 11.8337L15.8277 13.5322L14.3224 14.4846C12.9716 15.3322 11.8584 16.5103 11.0876 17.908C10.3169 19.3056 9.91393 20.8768 9.91672 22.4736C9.91883 23.0583 9.97478 23.6415 10.0838 24.2158L10.4968 26.4772L9.01815 28.234C7.36203 30.2041 6.30211 32.6072 5.96311 35.1603C5.62412 37.7135 6.02016 40.3106 7.10463 42.6459C8.1891 44.9812 9.91687 46.9576 12.0846 48.3425C13.6187 49.3225 15.3279 49.9775 17.1072 50.2767V35.5849L13.6922 31.7487C13.4897 31.5298 13.3328 31.2726 13.2307 30.9922C13.1286 30.7118 13.0833 30.4138 13.0974 30.1157C13.1116 29.8176 13.1849 29.5253 13.3131 29.2559C13.4414 28.9865 13.6219 28.7454 13.8442 28.5467C14.0665 28.348 14.3262 28.1957 14.6079 28.0987C14.8897 28.0017 15.1879 27.9619 15.4852 27.9817C15.7824 28.0015 16.0728 28.0805 16.3392 28.214C16.6057 28.3475 16.8429 28.5329 17.037 28.7593L17.1072 28.8394V25.4994C17.0974 25.1985 17.148 24.8986 17.2561 24.6176C17.3643 24.3367 17.5277 24.0804 17.7367 23.864C17.9457 23.6476 18.1961 23.4755 18.4728 23.358C18.7495 23.2405 19.047 23.1799 19.3476 23.1799C19.6482 23.1799 19.9457 23.2405 20.2224 23.358C20.4992 23.4755 20.7495 23.6476 20.9585 23.864C21.1675 24.0804 21.3309 24.3367 21.4391 24.6176C21.5472 24.8986 21.5979 25.1985 21.588 25.4994V38.0683L22.6513 36.8709C22.8471 36.6509 23.0843 36.4717 23.3493 36.3435C23.6143 36.2153 23.9019 36.1406 24.1957 36.1238C24.4894 36.1069 24.7837 36.1482 25.0615 36.2453C25.3394 36.3424 25.5954 36.4933 25.815 36.6895C26.0347 36.8857 26.2136 37.1233 26.3415 37.3888C26.4695 37.6543 26.544 37.9424 26.5608 38.2367C26.5776 38.531 26.5364 38.8258 26.4395 39.1042C26.3426 39.3825 26.1919 39.639 25.9961 39.8591L21.588 44.8138V50.2744C23.3625 49.9742 25.0669 49.3201 26.5971 48.3425C28.7648 46.9576 30.4926 44.9812 31.5771 42.6459C32.6615 40.3106 33.0576 37.7135 32.7186 35.1603C32.3796 32.6072 31.3197 30.2041 29.6636 28.234L28.1849 26.4772L28.6039 24.2146C28.7109 23.6405 28.7648 23.0577 28.765 22.4736C28.7688 20.8766 28.3667 19.3048 27.5965 17.9065C26.8264 16.5082 25.7136 15.3293 24.3629 14.4809L22.8576 13.5286L22.3272 11.8301C22.1294 11.1922 21.7326 10.6348 21.195 10.2397Z" fill="#43B02A"/>
</svg>
