<svg width="64" height="64" viewBox="0 0 64 64" fill="none" xmlns="http://www.w3.org/2000/svg">
<path d="M56.368 27.297L39.5867 10.5879C38.8405 9.84473 37.6814 9.76206 36.8429 10.347C36.895 10.2362 36.9474 10.1242 36.9999 10.0117C37.3818 9.1918 37.2093 8.22081 36.5685 7.58257L30.5865 1.62612C29.7468 0.789826 28.3883 0.791505 27.5506 1.6299L10.5717 18.621C8.38986 20.8043 8.06504 24.2422 9.79827 26.7955L13.7171 32.5674C14.7025 34.0188 14.3626 35.9545 12.9454 36.9838C12.5018 37.286 12.0347 37.6032 11.5567 37.9275C7.72931 40.5258 5.14205 42.3075 4.16675 43.3116C2.76925 44.7161 2 46.5796 2 48.561C2 50.5492 2.77429 52.4182 4.18017 53.8239C5.63139 55.2745 7.53752 56 9.44365 56C11.3389 56 13.2341 55.2829 14.6824 53.8486C15.8167 52.774 17.419 50.4246 19.9123 46.6984C20.2824 46.1449 20.653 45.591 21.0173 45.051C22.0467 43.6348 23.9814 43.2953 25.433 44.2801L31.1883 48.1859C33.7483 49.9231 37.1908 49.5929 39.3744 47.4012C39.3781 47.397 39.3823 47.3933 39.3861 47.3895L42.5097 44.2046C43.336 43.362 43.3281 42.0108 42.4917 41.1783L18.2378 17.0281L29.0745 6.18357L32.462 9.55687C30.6667 13.2982 29.1013 16.0723 27.9048 17.6278C27.269 18.454 27.3186 19.618 28.0223 20.3876C28.7265 21.1567 29.8811 21.3095 30.7611 20.7497C33.0399 19.2999 35.4761 17.4012 38.0209 15.092L40.7865 17.846C39.9795 18.775 38.7067 20.1404 37.1254 21.4954C36.2243 22.2675 36.1203 23.6237 36.8924 24.5246C37.3172 25.0201 37.9194 25.2749 38.5245 25.2749C39.0193 25.2749 39.5166 25.1049 39.9216 24.7575C41.5776 23.3383 42.9222 21.9242 43.8384 20.8848L51.8125 28.8248L47.0022 33.65C46.1646 34.4901 46.1671 35.8504 47.0073 36.688C47.8475 37.5251 49.208 37.523 50.0457 36.683L56.3734 30.3358C56.7755 29.9322 57.0013 29.385 57 28.8152C56.9992 28.2453 56.7717 27.699 56.368 27.297ZM37.9492 42.7179L36.3255 44.3737C35.5974 45.1 34.4529 45.2083 33.6014 44.6309L27.8461 40.7251C26.2127 39.6169 24.2432 39.1977 22.3002 39.5452C20.3575 39.8922 18.6549 40.9677 17.5067 42.5727C17.4954 42.5891 17.4841 42.605 17.4732 42.6218C17.1001 43.1749 16.7207 43.7422 16.3409 44.3095C14.6643 46.8154 12.5773 49.9344 11.7203 50.7359C11.7027 50.7523 11.6855 50.7686 11.6687 50.7859C10.442 52.0124 8.44526 52.0124 7.21899 50.7859C6.62432 50.1913 6.29698 49.4011 6.29698 48.561C6.29698 47.7206 6.62432 46.9304 7.21857 46.3362C7.22864 46.3262 7.23871 46.3161 7.24837 46.306C7.97103 45.5541 11.581 43.1039 13.9702 41.4825C14.4591 41.1502 14.9371 40.8263 15.3895 40.5174C15.4034 40.5082 15.4168 40.4985 15.4302 40.4889C17.0338 39.3404 18.1073 37.638 18.4535 35.6964C18.7997 33.7545 18.3801 31.7865 17.2726 30.1546L13.3537 24.3823C12.7758 23.5314 12.8841 22.3854 13.6114 21.6578L15.2007 20.067L37.9492 42.7179Z" fill="#868686"/>
<path fill-rule="evenodd" clip-rule="evenodd" d="M54.2901 39.6369L52.5 41L50.7099 39.6369C51.1354 39.0781 51.7976 38.75 52.5 38.75C53.2024 38.75 53.8646 39.0781 54.2901 39.6369ZM52.5 44.8728C52.078 45.4931 51.6173 46.1913 51.1579 46.9262C50.3707 48.1854 49.613 49.5115 49.0595 50.7139C48.4697 51.9952 48.25 52.8481 48.25 53.2593C48.25 54.4762 48.7169 55.6275 49.5235 56.4639C50.3273 57.2975 51.3998 57.75 52.5 57.75C53.6002 57.75 54.6727 57.2975 55.4765 56.4639C56.2831 55.6275 56.75 54.4762 56.75 53.2593C56.75 52.8481 56.5303 51.9952 55.9405 50.7139C55.387 49.5115 54.6293 48.1854 53.8421 46.9262C53.3827 46.1913 52.922 45.4931 52.5 44.8728ZM52.5 41C50.7099 39.6369 50.7101 39.6367 50.7099 39.6369L50.7029 39.6461L50.6867 39.6676L50.6275 39.7461C50.5766 39.814 50.5033 39.9122 50.4107 40.0375C50.2257 40.288 49.9635 40.6474 49.6496 41.0896C49.0235 41.9717 48.1847 43.193 47.3421 44.5408C46.5043 45.881 45.637 47.3871 44.9718 48.8323C44.3428 50.1987 43.75 51.8089 43.75 53.2593C43.75 55.6179 44.6527 57.8957 46.2842 59.5875C47.9183 61.2821 50.1524 62.25 52.5 62.25C54.8476 62.25 57.0817 61.2821 58.7158 59.5875C60.3473 57.8957 61.25 55.6179 61.25 53.2593C61.25 51.8089 60.6572 50.1987 60.0282 48.8323C59.363 47.3871 58.4957 45.881 57.6579 44.5408C56.8153 43.193 55.9765 41.9717 55.3504 41.0896C55.0365 40.6474 54.7743 40.288 54.5893 40.0375C54.4967 39.9122 54.4234 39.814 54.3725 39.7461L54.3133 39.6676L54.2971 39.6461L54.291 39.638C54.2908 39.6378 54.2901 39.6369 52.5 41Z" fill="#FE7333"/>
</svg>
