<svg width="64" height="64" viewBox="0 0 64 64" fill="none" xmlns="http://www.w3.org/2000/svg">
<path d="M32 63.2002C13.2 63.2002 10.8 50.0002 10.8 38.4002C10.8 34.2002 11.6 30.3002 13.2 26.9002C11.6 27.7002 10.1 28.7002 9.50003 29.7002C7.60003 32.5002 5.70003 36.8002 5.70003 36.9002C5.20003 38.0002 3.90003 38.6002 2.70003 38.0002C1.60003 37.5002 1.10003 36.2002 1.60003 35.0002C1.70003 34.8002 3.70003 30.3002 5.80003 27.2002C7.50003 24.7002 11 22.9002 13.6 21.8002C12 21.6002 10.4 20.9002 8.50003 19.9002C4.40003 17.5002 2.20003 11.4002 2.00003 10.7002C1.50003 9.50021 2.10003 8.30021 3.30003 7.90021C4.50003 7.50021 5.80003 8.10021 6.10003 9.30021C6.60003 10.7002 8.40003 14.8002 10.6 16.1002C13.4 17.7002 14.9 17.9002 17.8 17.1002C17.9 17.0002 18 16.9002 18.1 16.8002C16.8 15.9002 15.6 14.9002 14.4 13.6002C11.3 10.3002 9.00003 4.00021 8.90003 3.80021C8.50003 2.60021 9.10003 1.30021 10.2 0.900213C11.4 0.500213 12.7 1.10021 13.1 2.20021C13.7 3.80021 15.6 8.30021 17.6 10.4002C19.1 11.9002 20.4 13.0002 22.1 13.8002C23.1 8.00021 25.9 0.800213 32 0.800213C38.1 0.800213 40.9 8.00021 41.9 13.9002C43.6 13.1002 44.9 12.0002 46.4 10.5002C48.4 8.40021 50.3 3.90021 50.9 2.30021C51.3 1.10021 52.6 0.500213 53.8 1.00021C55 1.40021 55.6 2.70021 55.1 3.90021C55 4.20021 52.7 10.5002 49.6 13.7002C48.4 15.0002 47.2 16.0002 45.9 16.9002C46 17.0002 46.1 17.1002 46.2 17.2002C49.1 18.1002 50.6 17.8002 53.4 16.2002C55.6 14.9002 57.4 10.8002 57.9 9.40021C58.3 8.20021 59.6 7.60021 60.7 8.00021C61.9 8.40021 62.5 9.70021 62.1 10.8002C61.9 11.5002 59.7 17.7002 55.6 20.0002C53.8 21.1002 52.2 21.7002 50.5 21.9002C53.1 23.0002 56.7 24.8002 58.3 27.3002C60.4 30.4002 62.4 34.9002 62.5 35.1002C63 36.2002 62.5 37.6002 61.4 38.1002C60.3 38.6002 58.9 38.1002 58.4 37.0002C58.4 37.0002 56.5 32.6002 54.6 29.8002C54.1 29.0002 53 28.2002 51.8 27.5002C53.3 30.8002 54.2 34.6002 54.2 38.5002C54.2 46.4002 53 51.8002 50.2 55.7002C46.6 60.8002 40.7 63.2002 32 63.2002ZM32 18.2002C22.6 18.2002 15.2 27.1002 15.2 38.4002C15.2 55.2002 21.9 58.6002 32 58.6002C46.8 58.6002 49.8 50.9002 49.8 38.4002C49.8 27.5002 41.6 18.2002 32 18.2002ZM32 5.20021C29.2 5.20021 27.3 10.1002 26.6 14.5002C30 13.5002 34 13.5002 37.5 14.5002C36.7 10.1002 34.8 5.20021 32 5.20021Z" fill="#868686"/>
<path fill-rule="evenodd" clip-rule="evenodd" d="M22.4999 24.7998C23.6999 24.4998 24.8999 25.1998 25.1999 26.3998C25.8999 28.9998 28.5999 30.6998 31.9999 30.6998C35.3999 30.6998 38.1999 28.9998 38.7999 26.3998C39.0999 25.1998 40.2999 24.4998 41.4999 24.7998C42.6999 25.0998 43.3999 26.2998 43.0999 27.4998C41.9999 31.9998 38.0999 34.3998 34.1999 34.9998V53.9998C34.1999 55.1998 33.1999 56.1998 31.9999 56.1998C30.7999 56.1998 29.7999 55.1998 29.7999 53.9998V35.0998C25.8999 34.4998 21.9999 32.0998 20.8999 27.5998C20.4999 26.2998 21.1999 25.0998 22.4999 24.7998Z" fill="#FE7333"/>
</svg>
