<svg width="64" height="64" viewBox="0 0 64 64" fill="none" xmlns="http://www.w3.org/2000/svg">
<path fill-rule="evenodd" clip-rule="evenodd" d="M36.4268 1.18536C35.1758 1.48803 34.1958 2.05593 33.205 3.05222C32.7054 3.5546 32.1604 4.23684 31.9939 4.56821C31.8273 4.89958 31.6911 5.17862 31.6911 5.18807C31.6911 5.19764 31.3096 5.10547 30.8433 4.98314C27.2577 4.04281 23.7319 6.02642 22.4368 9.71254C22.2679 10.1936 22.2382 11.9352 22.1842 24.5491L22.123 38.8405L22 39.5C21.6797 40.1958 20.9689 40.7608 20.4853 40.9611C20.1787 41.0882 19.7588 40.9207 15.3841 38.9256C12.7624 37.7298 10.3992 36.677 10.1327 36.5859C8.96318 36.1863 7.21252 36.2992 6.06025 36.6963C1.82948 38.1547 -0.178478 42.7891 1.71575 46.7233C2.66008 48.6845 3.13545 49.049 11.8283 54.4805C19.8911 59.5184 22.2689 60.7222 26.4226 61.8695C28.3924 62.4137 30.8296 62.8289 31.4043 62.7185C32.9132 62.4284 33.7695 60.6107 33.0443 59.2371C32.5815 58.3604 32.0536 58.0849 30.1771 57.7408C27.348 57.2218 24.7971 56.3583 22.1836 55.0349C20.8222 54.3454 9.47192 47.3353 7.38354 45.894C6.29545 45.1431 6.00647 44.7667 5.86925 43.9214C5.63477 42.4765 7.09529 41.0009 8.52819 41.235C8.7445 41.2703 11.0199 42.2645 13.5845 43.4441C16.1491 44.6238 18.5199 45.664 18.853 45.7559C20.725 46.2721 22.9127 45.5708 24.5453 43.931C25.6494 42.8221 26.3394 42.1547 26.8075 40.2955C26.9284 39.8151 26.9687 39.3179 26.9708 38.8225L27.0282 25.2757C27.0743 14.3982 27.1237 10.9231 27.2355 10.7283C27.3162 10.5876 27.5739 10.3042 27.8082 10.0984C28.5663 9.43289 29.6134 9.43761 30.3794 10.1103C31.175 10.8087 31.1461 10.4612 31.1461 19.3182V26.7534C31.1461 27.1499 31.2428 27.5403 31.4279 27.891C31.5828 28.1845 31.9418 28.5882 32.2256 28.7881C32.6768 29.106 32.8449 29.1514 33.5684 29.1514C34.2918 29.1514 34.4599 29.106 34.9111 28.7881C35.1949 28.5882 35.5539 28.1845 35.7088 27.891C35.8939 27.5403 35.9906 27.1499 35.9906 26.7534V17.441C35.9906 6.52348 35.9535 7.06147 36.7573 6.35573C37.5287 5.67834 38.5705 5.67834 39.3419 6.35573C40.1457 7.06147 40.1085 6.52348 40.1085 17.441V26.6138C40.1085 27.102 40.2097 27.5974 40.5079 27.9838C41.5664 29.3557 43.0926 29.379 44.2734 28.3202C44.7283 27.9123 44.895 27.2895 44.8996 26.6786L44.9531 19.5842L45.0137 11.5515L45.3856 11.0862C46.3256 9.91032 47.6985 9.91032 48.6385 11.0862L49.0104 11.5515L49.071 19.5842L49.1245 26.6786C49.1291 27.2895 49.2956 27.9119 49.7457 28.325C50.8585 29.3462 52.1798 29.2884 53.243 28.3191C53.6918 27.9099 53.8586 27.292 53.8654 26.6847L53.9156 22.1873L53.9761 16.7575L54.3425 16.2326C54.8448 15.5132 55.3774 15.2528 56.1914 15.3287C56.9233 15.3969 57.4708 15.6767 57.8391 16.1706C58.0903 16.5074 58.0949 16.6239 58.1546 24.063L58.2101 30.9887C58.2134 31.3956 58.3441 31.7967 58.5785 32.1294C59.6489 33.6487 61.8557 33.5199 62.7173 31.8877L62.7677 31.7923C62.9197 31.5044 62.9991 31.1837 62.999 30.8581L62.9971 23.9547C62.9947 15.6962 62.9841 15.5661 62.1928 14.0415C60.7249 11.2135 57.3322 9.84298 53.9322 10.7045C53.8481 10.7258 53.6863 10.47 53.5586 10.1138C53.1683 9.02497 52.6692 8.22901 51.8566 7.39938C50.198 5.70583 47.7531 4.99574 45.4503 5.53858C45.0243 5.63898 44.6629 5.70632 44.647 5.68815C44.6312 5.66998 44.414 5.24645 44.1645 4.74685C42.7766 1.96752 39.475 0.447774 36.4268 1.18536Z" fill="#868686"/>
<path fill-rule="evenodd" clip-rule="evenodd" d="M58.4999 50.5358L58.4999 50.5353C58.4834 47.9033 57.0523 46.407 54.5911 44.1655C54.5162 44.0973 54.4395 44.0278 54.3612 43.9568C53.0413 42.7601 51.2688 41.1532 50.3048 38.8622C44.616 42.9985 42.5001 47.0875 42.5001 50.5221C42.5001 54.9097 46.0851 58.5 50.5002 58.5C52.6607 58.5 54.6656 57.6686 56.1879 56.1453L56.1882 56.145C57.7034 54.6289 58.5133 52.6511 58.4999 50.5358ZM57.6212 40.8385L57.6222 40.8395C60.0048 43.0094 62.9698 45.7097 62.9998 50.5072C63.0209 53.8318 61.7321 56.9637 59.371 59.3261C57.0038 61.6951 53.8534 63 50.5002 63C43.6074 63 38.0001 57.4025 38.0001 50.5221C38.0001 44.3845 42.2364 38.4901 50.2518 33.4762L50.4175 33.3721C51.1579 32.9048 52.0951 32.8758 52.8637 33.2955C53.6322 33.7157 54.1093 34.5188 54.1093 35.3904C54.1093 37.5325 55.4441 38.8561 57.6212 40.8385Z" fill="#FE7333"/>
</svg>
