<svg width="64" height="64" viewBox="0 0 64 64" fill="none" xmlns="http://www.w3.org/2000/svg">
<path fill-rule="evenodd" clip-rule="evenodd" d="M22.6048 37.4187C21.9375 37.1423 21.2223 37 20.5 37C19.0413 37 17.6424 37.5795 16.6109 38.6109C15.5795 39.6424 15 41.0413 15 42.5C15 43.9587 15.5795 45.3576 16.6109 46.3891C17.6424 47.4205 19.0413 48 20.5 48C21.2223 48 21.9375 47.8577 22.6048 47.5813C23.272 47.3049 23.8784 46.8998 24.3891 46.3891C24.8998 45.8784 25.3049 45.2721 25.5813 44.6048C25.8577 43.9375 26 43.2223 26 42.5C26 41.7777 25.8577 41.0625 25.5813 40.3952C25.3049 39.7279 24.8998 39.1216 24.3891 38.6109C23.8784 38.1002 23.272 37.6951 22.6048 37.4187ZM19.6772 40.5137C19.9381 40.4056 20.2177 40.35 20.5 40.35C21.0702 40.35 21.6171 40.5765 22.0203 40.9797C22.4235 41.3829 22.65 41.9298 22.65 42.5C22.65 43.0702 22.4235 43.6171 22.0203 44.0203C21.6171 44.4235 21.0702 44.65 20.5 44.65C20.2177 44.65 19.9381 44.5944 19.6772 44.4863C19.4164 44.3783 19.1794 44.2199 18.9797 44.0203C18.7801 43.8206 18.6217 43.5836 18.5137 43.3228C18.4056 43.0619 18.35 42.7823 18.35 42.5C18.35 42.2177 18.4056 41.9381 18.5137 41.6772C18.6217 41.4164 18.7801 41.1794 18.9797 40.9797C19.1794 40.7801 19.4164 40.6217 19.6772 40.5137Z" fill="#FE7333"/>
<path fill-rule="evenodd" clip-rule="evenodd" d="M45.6048 37.4187C44.9375 37.1423 44.2223 37 43.5 37C42.0413 37 40.6424 37.5795 39.6109 38.6109C38.5795 39.6424 38 41.0413 38 42.5C38 43.9587 38.5795 45.3576 39.6109 46.3891C40.6424 47.4205 42.0413 48 43.5 48C44.2223 48 44.9375 47.8577 45.6048 47.5813C46.272 47.3049 46.8784 46.8998 47.3891 46.3891C47.8998 45.8784 48.3049 45.2721 48.5813 44.6048C48.8577 43.9375 49 43.2223 49 42.5C49 41.7777 48.8577 41.0625 48.5813 40.3952C48.3049 39.7279 47.8998 39.1216 47.3891 38.6109C46.8784 38.1002 46.272 37.6951 45.6048 37.4187ZM42.6772 40.5137C42.9381 40.4056 43.2177 40.35 43.5 40.35C44.0702 40.35 44.6171 40.5765 45.0203 40.9797C45.4235 41.3829 45.65 41.9298 45.65 42.5C45.65 43.0702 45.4235 43.6171 45.0203 44.0203C44.6171 44.4235 44.0702 44.65 43.5 44.65C43.2177 44.65 42.9381 44.5944 42.6772 44.4863C42.4164 44.3783 42.1794 44.2199 41.9797 44.0203C41.7801 43.8206 41.6217 43.5836 41.5137 43.3228C41.4056 43.0619 41.35 42.7823 41.35 42.5C41.35 42.2177 41.4056 41.9381 41.5137 41.6772C41.6217 41.4164 41.7801 41.1794 41.9797 40.9797C42.1794 40.7801 42.4164 40.6217 42.6772 40.5137Z" fill="#FE7333"/>
<path d="M29.7857 9.85714C29.1984 9.85714 28.6352 10.0904 28.22 10.5057C27.8047 10.921 27.5714 11.4842 27.5714 12.0714C27.5714 12.6587 27.8047 13.2219 28.22 13.6372C28.6352 14.0524 29.1984 14.2857 29.7857 14.2857H34.2143C34.8015 14.2857 35.3648 14.0524 35.78 13.6372C36.1953 13.2219 36.4286 12.6587 36.4286 12.0714C36.4286 11.4842 36.1953 10.921 35.78 10.5057C35.3648 10.0904 34.8015 9.85714 34.2143 9.85714H29.7857ZM5.42857 13.8429C5.42857 10.4367 6.78165 7.17009 9.19016 4.76159C11.5987 2.35308 14.8653 1 18.2714 1H45.7286C49.1347 1 52.4013 2.35308 54.8098 4.76159C57.2183 7.17009 58.5714 10.4367 58.5714 13.8429V23.1429H60.7857C61.373 23.1429 61.9362 23.3761 62.3514 23.7914C62.7667 24.2067 63 24.7699 63 25.3571C63 25.9444 62.7667 26.5076 62.3514 26.9229C61.9362 27.3381 61.373 27.5714 60.7857 27.5714H58.5714V57.2429C58.5714 58.7697 57.9649 60.2341 56.8852 61.3138C55.8055 62.3934 54.3412 63 52.8143 63H46.6143C45.0874 63 43.623 62.3934 42.5434 61.3138C41.4637 60.2341 40.8571 58.7697 40.8571 57.2429V54.1429H23.1429V57.2429C23.1429 58.7697 22.5363 60.2341 21.4566 61.3138C20.377 62.3934 18.9126 63 17.3857 63H11.1857C9.65882 63 8.19447 62.3934 7.1148 61.3138C6.03513 60.2341 5.42857 58.7697 5.42857 57.2429V27.5714H3.21429C2.62702 27.5714 2.06381 27.3381 1.64855 26.9229C1.23329 26.5076 1 25.9444 1 25.3571C1 24.7699 1.23329 24.2067 1.64855 23.7914C2.06381 23.3761 2.62702 23.1429 3.21429 23.1429H5.42857V13.8429ZM54.1429 13.8429C54.1429 11.6112 53.2563 9.47104 51.6784 7.89306C50.1004 6.31507 47.9602 5.42857 45.7286 5.42857H18.2714C16.0398 5.42857 13.8996 6.31507 12.3216 7.89306C10.7436 9.47104 9.85714 11.6112 9.85714 13.8429V32H54.1429V13.8429ZM45.2857 54.1429V57.2429C45.2857 57.4173 45.3201 57.5901 45.3868 57.7513C45.4536 57.9125 45.5515 58.0589 45.6748 58.1823C45.7982 58.3057 45.9447 58.4035 46.1059 58.4703C46.2671 58.5371 46.4398 58.5714 46.6143 58.5714H52.8143C52.9888 58.5714 53.1615 58.5371 53.3227 58.4703C53.4839 58.4035 53.6304 58.3057 53.7537 58.1823C53.8771 58.0589 53.975 57.9125 54.0417 57.7513C54.1085 57.5901 54.1429 57.4173 54.1429 57.2429V54.1429H45.2857ZM9.85714 54.1429V57.2429C9.85714 57.4173 9.89151 57.5901 9.95827 57.7513C10.025 57.9125 10.1229 58.0589 10.2463 58.1823C10.3696 58.3057 10.5161 58.4035 10.6773 58.4703C10.8385 58.5371 11.0112 58.5714 11.1857 58.5714H17.3857C17.5602 58.5714 17.7329 58.5371 17.8941 58.4703C18.0553 58.4035 18.2018 58.3057 18.3252 58.1823C18.4485 58.0589 18.5464 57.9125 18.6132 57.7513C18.6799 57.5901 18.7143 57.4173 18.7143 57.2429V54.1429H9.85714ZM9.85714 49.7143H54.1429V36.4286H9.85714V49.7143Z" fill="#868686"/>
</svg>
