<svg width="64" height="64" viewBox="0 0 64 64" fill="none" xmlns="http://www.w3.org/2000/svg">
<path d="M31.6406 60.5781C31.6406 61.9158 30.5565 63 29.2187 63H13.6875C8.34566 63 4 58.6543 4 53.3125V10.6875C4 5.34566 8.34566 1 13.6875 1H47.3516C52.6934 1 57.0391 5.34566 57.0391 10.6875V26.793C57.0391 28.1307 55.9549 29.2148 54.6172 29.2148C53.2795 29.2148 52.1953 28.1307 52.1953 26.793V10.6875C52.1953 8.01682 50.0222 5.84375 47.3516 5.84375H13.6875C11.0168 5.84375 8.84375 8.01682 8.84375 10.6875V53.3125C8.84375 55.9832 11.0168 58.1562 13.6875 58.1562H29.2187C30.5565 58.1562 31.6406 59.2404 31.6406 60.5781ZM18.6623 32.4844C18.6623 31.1467 17.4471 30.0625 16.1094 30.0625C14.7717 30.0625 13.6875 31.1467 13.6875 32.4844C13.6875 33.8221 14.7717 34.9062 16.1094 34.9062C17.4471 34.9062 18.6623 33.8221 18.6623 32.4844ZM28.2187 32.4844C28.2187 31.1467 27.1346 30.0625 25.7969 30.0625C24.4592 30.0625 23.375 31.1467 23.375 32.4844C23.375 33.8221 24.4592 34.9062 25.7969 34.9062C27.1346 34.9062 28.2187 33.8221 28.2187 32.4844ZM18.6523 41.6875C18.6523 40.3498 17.4471 39.2656 16.1094 39.2656C14.7717 39.2656 13.6875 40.3498 13.6875 41.6875C13.6875 43.0252 14.7717 44.1094 16.1094 44.1094C17.4471 44.1094 18.6523 43.0252 18.6523 41.6875ZM28.2187 41.6875C28.2187 40.3498 27.1346 39.2656 25.7969 39.2656C24.4592 39.2656 23.375 40.3498 23.375 41.6875C23.375 43.0252 24.4592 44.1094 25.7969 44.1094C27.1346 44.1094 28.2187 43.0252 28.2187 41.6875ZM16.1094 48.4688C14.7717 48.4688 13.6875 49.5529 13.6875 50.8906C13.6875 52.2283 14.7717 53.3125 16.1094 53.3125C17.4471 53.3125 18.5312 52.2283 18.5312 50.8906C18.5312 49.5529 17.4471 48.4688 16.1094 48.4688ZM25.6758 48.4688C24.3381 48.4688 23.2539 49.5529 23.2539 50.8906C23.2539 52.2283 24.3381 53.3125 25.6758 53.3125C27.0135 53.3125 28.0977 52.2283 28.0977 50.8906C28.0977 49.5529 27.0135 48.4688 25.6758 48.4688ZM44.9297 25.2188H16.1094C14.7717 25.2188 13.6875 24.1346 13.6875 22.7969V13.1094C13.6875 11.7717 14.7717 10.6875 16.1094 10.6875H44.9297C46.2674 10.6875 47.3516 11.7717 47.3516 13.1094V22.7969C47.3516 24.1346 46.2674 25.2188 44.9297 25.2188ZM42.5078 15.5312H18.5312V20.375H42.5078V15.5312Z" fill="#868686"/>
<path d="M59.8925 36.0692L48.0051 30.7575C47.6113 30.5815 47.1957 30.5192 46.7952 30.5565C46.3947 30.5194 45.9789 30.5817 45.5852 30.7575L33.6978 36.0692C32.8255 36.459 32.2639 37.3249 32.2639 38.2804V47.503C32.2639 51.2909 33.7604 55.1571 36.3697 58.1103C39.1557 61.2635 42.8 63 46.6317 63H46.9585C50.7902 63 54.4345 61.2635 57.2205 58.1103C59.8298 55.1571 61.3263 51.2908 61.3263 47.503V38.2804C61.3263 37.3251 60.7648 36.459 59.8925 36.0692ZM56.4824 39.8508V47.503C56.4824 52.5319 52.4094 58.1562 46.9584 58.1562H46.6316C41.1807 58.1562 37.1075 52.5318 37.1075 47.503V39.8508L46.795 35.5222L56.4825 39.8508H56.4824Z" fill="#43B02A"/>
</svg>
