<svg width="64" height="64" viewBox="0 0 64 64" fill="none" xmlns="http://www.w3.org/2000/svg">
<path d="M42.293 31.6054C43.6307 31.6054 44.7148 32.6896 44.7148 34.0273V41.3473C44.7148 42.0621 44.3989 42.7404 43.8516 43.2011L39.9714 46.4645C39.5173 46.8462 38.9638 47.0326 38.4137 47.0326C37.7236 47.0326 37.0382 46.7393 36.559 46.1698C35.6981 45.1457 35.8301 43.6183 36.8537 42.7574L39.8711 40.2197V34.0273C39.8711 32.6896 40.9553 31.6054 42.293 31.6054ZM60.5781 22.039C59.2404 22.039 58.1562 23.1232 58.1562 24.4609V28.1874C54.2746 23.4912 48.4702 20.6947 42.2386 20.6947C30.8506 20.6947 21.5859 29.9593 21.5859 41.3473C21.5859 52.7354 30.8752 62 42.293 62C45.413 62 48.4971 61.2971 51.2899 59.9589C51.3372 59.9376 51.3845 59.9168 51.4308 59.8931C51.4436 59.886 51.4564 59.877 51.4691 59.8699C51.795 59.7096 52.1186 59.5431 52.436 59.3652C53.6034 58.7125 54.0206 57.2366 53.3674 56.0692C52.7146 54.9018 51.2392 54.4846 50.0718 55.1374C47.71 56.458 45.0204 57.1562 42.293 57.1562C33.5458 57.1562 26.4297 50.0642 26.4297 41.3473C26.4297 32.6305 33.5212 25.5385 42.2386 25.5385C47.2053 25.5385 51.8177 27.8596 54.7836 31.7265H51.0117C49.674 31.7265 48.5898 32.8107 48.5898 34.1484C48.5898 35.4861 49.674 36.5703 51.0117 36.5703H55.7344C59.7409 36.5703 63 33.3112 63 29.3047V24.4609C63 23.1232 61.9158 22.039 60.5781 22.039ZM58.8478 49.5179C57.7395 48.7691 56.2344 49.0609 55.486 50.1702C54.7377 51.2794 55.0305 52.7845 56.1388 53.5329C56.5541 53.8129 57.0253 53.9472 57.4917 53.9472C58.2702 53.9472 59.0328 53.5731 59.5015 52.8792C60.2484 51.7713 59.957 50.2662 58.8478 49.5179ZM62.9163 42.0304C62.9007 41.9528 62.8813 41.8766 62.8586 41.8005C62.8354 41.7253 62.8089 41.6501 62.7786 41.5777C62.7484 41.5049 62.7143 41.432 62.6769 41.3629C62.6391 41.2929 62.5993 41.2253 62.5558 41.1595C62.5123 41.0933 62.4636 41.029 62.4139 40.9684C62.3643 40.9065 62.3099 40.8474 62.254 40.7915C62.1987 40.7357 62.1391 40.6813 62.0776 40.6317C62.0171 40.581 61.9513 40.5337 61.886 40.4902C61.8208 40.4467 61.7517 40.4055 61.6826 40.3691C61.6122 40.3313 61.5407 40.2977 61.4684 40.2674C61.3955 40.2372 61.3203 40.2102 61.2456 40.1875C61.1689 40.1643 61.0914 40.1449 61.0152 40.1293C60.9376 40.1137 60.8577 40.1014 60.7792 40.0943C60.6216 40.0782 60.4618 40.0782 60.3033 40.0943C60.2248 40.1014 60.1458 40.1137 60.0682 40.1293C59.9906 40.1449 59.9135 40.1643 59.8383 40.1875C59.7631 40.2102 59.6884 40.2372 59.6155 40.2674C59.5427 40.2977 59.4703 40.3313 59.4012 40.3691C59.3308 40.4055 59.2631 40.4467 59.1978 40.4902C59.1311 40.5337 59.0668 40.581 59.0063 40.6317C58.9448 40.6813 58.8852 40.7357 58.8294 40.7915C58.7726 40.8474 58.7191 40.9065 58.6685 40.9684C58.6189 41.029 58.5716 41.0933 58.528 41.1595C58.4845 41.2253 58.4434 41.2929 58.407 41.3629C58.3696 41.432 58.3355 41.5049 58.3053 41.5777C58.275 41.6501 58.2485 41.7253 58.2253 41.8005C58.2026 41.8766 58.1827 41.9528 58.1671 42.0304C58.1515 42.108 58.1392 42.1879 58.1321 42.2655C58.1236 42.3454 58.1198 42.4254 58.1198 42.5039C58.1198 42.5824 58.1236 42.6623 58.1321 42.7423C58.1392 42.8199 58.1515 42.8998 58.1671 42.9774C58.1832 43.0535 58.2026 43.1311 58.2253 43.2073C58.2485 43.2825 58.275 43.3577 58.3053 43.4301C58.3355 43.5029 58.3696 43.5757 58.407 43.6448C58.4434 43.7134 58.4845 43.7825 58.528 43.8482C58.5716 43.9144 58.6189 43.9788 58.6685 44.0393C58.7191 44.1013 58.7726 44.1604 58.8294 44.2162C58.8852 44.272 58.9448 44.3264 59.0063 44.3761C59.0668 44.4258 59.1311 44.474 59.1978 44.5175C59.2631 44.5611 59.3308 44.6022 59.4012 44.6386C59.4703 44.6765 59.5427 44.7101 59.6155 44.7403C59.6884 44.7706 59.7631 44.7976 59.8383 44.8203C59.9135 44.8434 59.9911 44.8628 60.0682 44.8784C60.1458 44.8941 60.2248 44.9064 60.3033 44.9135C60.3818 44.922 60.4632 44.9258 60.5417 44.9258C60.6207 44.9258 60.7006 44.922 60.7792 44.9135C60.8577 44.9064 60.9381 44.8941 61.0152 44.8784C61.0918 44.8628 61.1694 44.8434 61.2456 44.8203C61.3203 44.7976 61.3955 44.7706 61.4684 44.7403C61.5407 44.7101 61.6122 44.6765 61.6826 44.6386C61.7517 44.6022 61.8208 44.5611 61.886 44.5175C61.9513 44.474 62.0171 44.4258 62.0776 44.3761C62.1391 44.3264 62.1987 44.272 62.254 44.2162C62.3099 44.1604 62.3643 44.1013 62.4139 44.0393C62.4636 43.9788 62.5123 43.9144 62.5558 43.8482C62.5993 43.7825 62.6391 43.7134 62.6769 43.6448C62.7143 43.5757 62.7484 43.5029 62.7786 43.4301C62.8089 43.3577 62.8354 43.2825 62.8586 43.2073C62.8813 43.1311 62.9007 43.0535 62.9163 42.9774C62.9324 42.8998 62.9442 42.8199 62.9518 42.7423C62.9603 42.6623 62.9636 42.5824 62.9636 42.5039C62.9636 42.4254 62.9603 42.3454 62.9518 42.2655C62.9442 42.1879 62.9319 42.108 62.9163 42.0304Z" fill="#43B02A"/>
<path d="M10.6875 57.1562H20.8594C22.1971 57.1562 23.2812 58.2404 23.2812 59.5781C23.2812 60.9158 22.1971 62 20.8594 62H10.6875C5.34566 62 1 57.6543 1 52.3125V14.5312C1 9.18941 5.34566 4.84375 10.6875 4.84375H13.7148V2.42188C13.7148 1.08417 14.799 0 16.1367 0C17.4744 0 18.5586 1.08417 18.5586 2.42188V4.84375H29.457V2.42188C29.457 1.08417 30.5412 0 31.8789 0C33.2166 0 34.3008 1.08417 34.3008 2.42188V4.84375H45.3203V2.42188C45.3203 1.08417 46.4045 0 47.7422 0C49.0799 0 50.1641 1.08417 50.1641 2.42188V4.84375H53.3125C58.6543 4.84375 63 9.18941 63 14.5312C63 15.869 61.9158 16.9531 60.5781 16.9531C59.2404 16.9531 58.1562 15.869 58.1562 14.5312C58.1562 11.8606 55.9832 9.6875 53.3125 9.6875H50.1641V12.1094C50.1641 13.4471 49.0799 14.5312 47.7422 14.5312C46.4045 14.5312 45.3203 13.4471 45.3203 12.1094V9.6875H34.3008V12.1094C34.3008 13.4471 33.2166 14.5312 31.8789 14.5312C30.5412 14.5312 29.457 13.4471 29.457 12.1094V9.6875H18.5586V12.1094C18.5586 13.4471 17.4744 14.5312 16.1367 14.5312C14.799 14.5312 13.7148 13.4471 13.7148 12.1094V9.6875H10.6875C8.01682 9.6875 5.84375 11.8606 5.84375 14.5312V52.3125C5.84375 54.9832 8.01682 57.1562 10.6875 57.1562Z" fill="#868686"/>
</svg>
