<svg width="64" height="64" viewBox="0 0 64 64" fill="none" xmlns="http://www.w3.org/2000/svg">
<g clip-path="url(#clip0_1488_6666)">
<path d="M14.9999 25.375H10.0601C10.8947 14 20.4158 5 32 5C41.1668 5 49.4615 10.7738 52.6406 19.3673C53.1196 20.6623 54.5576 21.3237 55.8528 20.8448C57.1477 20.3656 57.8091 18.9276 57.3302 17.6326C55.4354 12.5107 52.0693 8.12763 47.5959 4.95738C43.0197 1.71425 37.6266 0 32 0C24.7881 0 18.0077 2.8085 12.9081 7.90813C7.875 12.9412 5.07562 19.6118 5.00338 26.7183C2.01563 28.4496 0 31.6804 0 35.375V43.875C0 49.389 4.486 53.875 10 53.875H14.9999C16.3808 53.875 17.5 52.7557 17.5 51.375V27.875C17.5 26.4942 16.3808 25.375 14.9999 25.375ZM12.5 48.875H10C7.243 48.875 5 46.6319 5 43.875V35.375C5 32.618 7.243 30.375 10 30.375H12.5V48.875Z" fill="#868686"/>
<path d="M54 25.3749H49.0001C47.6192 25.3749 46.5 26.4942 46.5 27.875V45V51.3749V54C46.5 55.3784 45.3785 56.5 44 56.5H36.375V56.5792C35.5223 55.0413 33.8831 54 32 54C29.2386 54 27 56.2386 27 58.9999C27 61.7613 29.2386 64 32 64C33.8831 64 35.5223 62.9586 36.375 61.4208V61.4999H44C48.1355 61.4999 51.5 58.1355 51.5 54V53.875H54C59.514 53.875 64 49.389 64 43.875V35.3749C64 29.8609 59.514 25.3749 54 25.3749ZM59 43.875C59 46.6319 56.757 48.875 54 48.875H51.5V45V30.375H54C56.757 30.375 59 32.618 59 35.3749V43.875Z" fill="#FE7333"/>
</g>
<defs>
<clipPath id="clip0_1488_6666">
<rect width="64" height="64" fill="white"/>
</clipPath>
</defs>
</svg>
