<svg width="64" height="64" viewBox="0 0 64 64" fill="none" xmlns="http://www.w3.org/2000/svg">
<path d="M59.11 35.39C60.0091 35.39 60.8713 35.0328 61.5071 34.3971C62.1428 33.7613 62.5 32.8991 62.5 32C62.5 31.1009 62.1428 30.2387 61.5071 29.6029C60.8713 28.9672 60.0091 28.61 59.11 28.61H55.72V8.28H59.11C60.0091 8.28 60.8713 7.92284 61.5071 7.28709C62.1428 6.65134 62.5 5.78908 62.5 4.89C62.5 3.99092 62.1428 3.12866 61.5071 2.49291C60.8713 1.85716 60.0091 1.5 59.11 1.5H4.89C3.99092 1.5 3.12866 1.85716 2.49291 2.49291C1.85716 3.12866 1.5 3.99092 1.5 4.89C1.5 5.78908 1.85716 6.65134 2.49291 7.28709C3.12866 7.92284 3.99092 8.28 4.89 8.28H8.28V28.61H4.89C3.99092 28.61 3.12866 28.9672 2.49291 29.6029C1.85716 30.2387 1.5 31.1009 1.5 32C1.5 32.8991 1.85716 33.7613 2.49291 34.3971C3.12866 35.0328 3.99092 35.39 4.89 35.39H8.28V55.72H4.89C3.99092 55.72 3.12866 56.0772 2.49291 56.7129C1.85716 57.3487 1.5 58.2109 1.5 59.11C1.5 60.0091 1.85716 60.8713 2.49291 61.5071C3.12866 62.1428 3.99092 62.5 4.89 62.5H59.11C60.0091 62.5 60.8713 62.1428 61.5071 61.5071C62.1428 60.8713 62.5 60.0091 62.5 59.11C62.5 58.2109 62.1428 57.3487 61.5071 56.7129C60.8713 56.0772 60.0091 55.72 59.11 55.72H55.72V35.39H59.11ZM48.94 55.72H15.06V35.39C15.9591 35.39 16.8213 35.0328 17.4571 34.3971C18.0928 33.7613 18.45 32.8991 18.45 32C18.45 31.1009 18.0928 30.2387 17.4571 29.6029C16.8213 28.9672 15.9591 28.61 15.06 28.61V8.28H48.94V28.61C48.0409 28.61 47.1787 28.9672 46.5429 29.6029C45.9072 30.2387 45.55 31.1009 45.55 32C45.55 32.8991 45.9072 33.7613 46.5429 34.3971C47.1787 35.0328 48.0409 35.39 48.94 35.39V55.72Z" fill="#868686"/>
<path d="M34.26 46.89C34.5848 46.8513 34.8984 46.7472 35.1818 46.5839C35.4652 46.4206 35.7126 46.2016 35.9089 45.94C36.1053 45.6785 36.2467 45.3798 36.3244 45.0621C36.4021 44.7444 36.4147 44.4143 36.3612 44.0916C36.3078 43.7689 36.1895 43.4604 36.0135 43.1847C35.8375 42.909 35.6074 42.6719 35.3372 42.4876C35.0669 42.3033 34.7621 42.1757 34.4412 42.1126C34.1203 42.0494 33.7899 42.0519 33.47 42.12C32.656 42.2478 31.824 42.1989 31.0306 41.9765C30.2372 41.7541 29.501 41.3635 28.872 40.8313C28.243 40.2991 27.7359 39.6376 27.3853 38.892C27.0347 38.1463 26.8487 37.3339 26.84 36.51C26.84 36.2 27.02 34.42 30.4 29.84C31.14 28.84 31.89 27.9 32.54 27.12C33.18 27.9 33.93 28.84 34.67 29.84C38.06 34.42 38.23 36.2 38.23 36.51C38.2324 36.907 38.1888 37.303 38.1 37.69C37.9674 38.3186 38.0899 38.9741 38.4406 39.5123C38.7913 40.0505 39.3414 40.4274 39.97 40.56C40.5986 40.6926 41.2541 40.5701 41.7923 40.2194C42.3305 39.8687 42.7074 39.3186 42.84 38.69C42.9912 37.9697 43.0682 37.2359 43.07 36.5C43.07 34.17 41.59 31.03 38.54 26.92C36.46 24.11 34.4 21.87 34.32 21.77C34.0925 21.5237 33.8164 21.3271 33.5092 21.1927C33.202 21.0582 32.8703 20.9888 32.535 20.9888C32.1997 20.9888 31.868 21.0582 31.5608 21.1927C31.2536 21.3271 30.9775 21.5237 30.75 21.77C30.67 21.87 28.61 24.11 26.53 26.92C23.48 31 22 34.18 22 36.51C22.0158 39.2959 23.133 41.9624 25.1076 43.9277C27.0822 45.893 29.7541 46.9974 32.54 47C33.1154 47.0129 33.6909 46.9761 34.26 46.89Z" fill="#FE7333"/>
</svg>
