<svg width="64" height="64" viewBox="0 0 64 64" fill="none" xmlns="http://www.w3.org/2000/svg">
<path d="M57.67 42.4591V40.4766C57.67 36.5382 54.4104 33.334 50.4044 33.334C46.3979 33.334 43.1387 36.5382 43.1387 40.4766V42.4595C40.1426 42.8204 37.8125 45.3771 37.8125 48.4688V60.5782C37.8125 61.9159 38.8967 63.0001 40.2344 63.0001H60.5781C61.9158 63.0001 63 61.9159 63 60.5782V48.4688C63 45.3757 60.668 42.8186 57.67 42.4591ZM50.4044 38.1777C51.7397 38.1777 52.8262 39.2089 52.8262 40.4766V42.4141H47.9825V40.4766C47.9825 39.2089 49.0685 38.1777 50.4044 38.1777ZM58.1562 58.1563H42.6562V48.4688C42.6562 47.8009 43.1993 47.2579 43.8672 47.2579H56.9453C57.6132 47.2579 58.1562 47.8009 58.1562 48.4688V58.1563Z" fill="#FE7333"/>
<path d="M33.6948 60.6297C33.6622 61.9461 32.5842 62.991 31.2749 62.991C31.2545 62.991 31.2342 62.9905 31.2134 62.9901C23.0987 62.7876 15.5019 59.4741 9.82234 53.6602C4.1333 47.8354 1 40.1431 1 32C1 23.7197 4.22459 15.9347 10.0797 10.0797C15.9347 4.22459 23.7197 1 32 1C40.1204 1 47.7971 4.11816 53.6162 9.77977C59.4235 15.43 62.7512 22.9955 62.9868 31.0823C63.0255 32.4191 61.9735 33.5345 60.6363 33.5733C60.6122 33.5742 60.5885 33.5747 60.5644 33.5747C59.2598 33.5747 58.1832 32.5364 58.1449 31.2233C57.7305 16.9919 46.2465 5.84375 32 5.84375C17.5775 5.84375 5.84375 17.5775 5.84375 32C5.84375 46.0677 17.2786 57.7972 31.334 58.1477C32.6712 58.1813 33.728 59.2924 33.6948 60.6297ZM39.102 38.1777C39.102 37.6957 38.9733 37.2439 38.7496 36.8532C38.5372 36.0727 38.5547 35.2374 38.8361 34.4588C38.8948 34.2961 38.9482 34.1305 38.9955 33.9621C39.3555 32.6826 40.294 31.6457 41.5484 31.2044L50.0122 28.4722C51.7473 27.9117 52.6607 26.0082 52.0046 24.3072C48.8737 16.1916 40.9406 10.4439 31.7063 10.5683C20.1787 10.7234 10.776 20.0831 10.5697 31.6098C10.3687 42.8753 18.9072 52.2279 29.843 53.3257C29.9925 53.3551 30.3737 53.3702 30.3842 53.3669C31.6826 53.3248 32.7266 52.2577 32.7266 50.9493C32.7266 49.8074 31.9314 48.8505 30.8666 48.596C30.8595 48.5917 30.8524 48.5889 30.8449 48.5884C30.8411 48.588 30.8373 48.5875 30.834 48.5875C30.6632 48.5492 30.4868 48.5274 30.3047 48.5274C30.2862 48.5274 29.0166 48.4243 27.3729 47.9328C25.8559 47.4792 25.2386 45.6633 26.1572 44.3738L28.5933 40.9553C29.3624 39.8754 30.6131 39.2543 31.9385 39.2652C31.9588 39.2656 31.9792 39.2656 32 39.2656C32.0227 39.2656 32.0459 39.2656 32.0686 39.2652C32.9626 39.2566 33.8216 39.54 34.5222 40.0565C35.0075 40.5485 35.6815 40.8536 36.4256 40.8536C37.901 40.8536 39.102 39.653 39.102 38.1777ZM24.6213 38.1819L22.2174 41.5565C21.295 42.8507 19.3665 42.8563 18.4489 41.5593C16.5355 38.8555 15.4102 35.5567 15.4102 32C15.4102 31.9891 15.4102 31.9782 15.4102 31.9674C15.4135 30.3818 16.9981 29.283 18.4938 29.8099L22.4516 31.2044C23.7056 31.6457 24.644 32.6826 25.0045 33.9621C25.0518 34.1305 25.1052 34.2961 25.1639 34.4588C25.6151 35.7071 25.3919 37.1006 24.6213 38.1819ZM27.8284 26.056C27.8175 26.0636 27.8067 26.0716 27.7958 26.0792C26.7083 26.8535 25.3242 27.0806 24.065 26.6373L20.1115 25.2443C18.5997 24.7117 18.0799 22.8451 19.087 21.5978C21.0046 19.2218 23.5632 17.3836 26.4978 16.3491C28.0015 15.8184 29.5781 16.939 29.5781 18.5335V22.7344C29.5781 24.0622 28.9145 25.2916 27.8284 26.056ZM32 34.4219C30.6647 34.4219 29.5781 33.3353 29.5781 32C29.5781 30.6647 30.6647 29.5781 32 29.5781C33.3353 29.5781 34.4219 30.6647 34.4219 32C34.4219 33.3353 33.3353 34.4219 32 34.4219ZM36.2042 26.0792C36.1933 26.0716 36.1825 26.064 36.1716 26.056C35.0855 25.2916 34.4219 24.0622 34.4219 22.7344V18.5335C34.4219 16.939 35.9985 15.8188 37.5022 16.3491C40.4368 17.3836 42.9954 19.2218 44.913 21.5978C45.9201 22.8456 45.4003 24.7117 43.8885 25.2443L39.935 26.6373C38.6758 27.0806 37.2917 26.8535 36.2042 26.0792Z" fill="#868686"/>
</svg>
