<svg width="64" height="64" viewBox="0 0 64 64" fill="none" xmlns="http://www.w3.org/2000/svg">
<path d="M63 25.8272V30.6578C63 31.995 61.9158 33.0792 60.5781 33.0792H55.4406C54.4411 35.8984 51.7472 37.923 48.5897 37.923C44.6069 37.923 41.3619 34.7017 41.3245 30.7273C41.3122 29.4185 42.3813 28.2662 43.6897 28.2364C45.0581 28.2051 46.1759 29.3092 46.1678 30.6725C46.1626 31.5963 46.656 32.4619 47.4994 32.8389C49.2723 33.6312 51.0003 32.3531 51.0116 30.6748C51.0211 29.3328 52.0575 28.2359 53.3995 28.2359H58.1562V25.814C58.1562 25.8041 58.1562 25.7946 58.1562 25.7847C58.1808 23.7445 56.8426 21.8236 54.9018 21.1135C54.898 21.1116 54.8942 21.1107 54.8904 21.1093L46.2927 17.9121C45.9706 17.7924 45.6778 17.6056 45.4332 17.3639L35.1913 7.23117C34.2873 6.33668 33.0891 5.84426 31.8176 5.84426H16.0157C15.9722 5.84426 15.9292 5.84521 15.8861 5.84757C15.0654 5.89156 14.3436 6.40858 13.9883 7.15028L9.2387 17.0625C8.8352 17.9055 7.98234 18.4409 7.04717 18.4381C6.38114 18.4357 5.84379 18.983 5.84379 19.6491V25.814C5.84379 27.1517 6.92796 28.2359 8.26568 28.2359H10.1162C11.4577 28.2359 12.4945 29.3333 12.504 30.6748C12.5163 32.4723 14.4969 33.8105 16.3937 32.6383C17.0394 32.2391 17.3757 31.5036 17.3492 30.7453C17.301 29.3678 18.4031 28.2359 19.7697 28.2359H32.7897C34.1028 28.2359 35.2215 29.2572 35.2679 30.5693C35.3171 31.9473 34.2145 33.0797 32.8474 33.0797H21.7763C20.7767 35.8989 18.0833 37.9235 14.9259 37.9235C11.7675 37.9235 9.07314 35.898 8.0741 33.0773C4.15603 32.9751 1 29.7557 1 25.8135V19.6486C1 16.8752 2.87413 14.5314 5.42232 13.8171L10.0102 4.24259C10.0357 4.19009 10.0622 4.13758 10.0916 4.08697C11.3314 1.95409 13.9642 1 16.0157 1H31.8176C34.3734 1 36.7811 1.99004 38.598 3.78754L48.4696 13.5536L56.572 16.5663C60.4617 17.9925 63.043 21.7124 63 25.8272Z" fill="#868686"/>
<path d="M60.5781 58.1562H34.4217V42.8983H39.2654C40.6032 42.8983 41.6873 41.8141 41.6873 40.4764C41.6873 39.1392 40.6032 38.0545 39.2654 38.0545H24.7346C23.3968 38.0545 22.3127 39.1392 22.3127 40.4764C22.3127 41.8141 23.3968 42.8983 24.7346 42.8983H29.5783V58.1562H3.42189C2.08418 58.1562 1 59.2404 1 60.5781C1 61.9158 2.08418 63 3.42189 63H60.5781C61.9158 63 63 61.9158 63 60.5781C63 59.2404 61.9158 58.1562 60.5781 58.1562Z" fill="#43B02A"/>
</svg>
