<svg width="64" height="64" viewBox="0 0 64 64" fill="none" xmlns="http://www.w3.org/2000/svg">
<path d="M62.2192 32.6422C61.7651 33.9005 60.3768 34.5518 59.119 34.0982C57.8607 33.6436 57.2089 32.2558 57.663 30.9975C57.9904 30.0907 58.1564 29.1362 58.1564 28.1603V19.3205H50.562L42.7945 27.088C42.3404 27.5421 41.7245 27.797 41.0821 27.797H22.918C22.2757 27.797 21.6598 27.5421 21.2057 27.088L13.4382 19.3205H5.84376V28.1603C5.84376 32.7676 9.592 36.5158 14.1993 36.5158H31.6641C33.0019 36.5158 34.086 37.6 34.086 38.9377C34.086 40.2754 33.0019 41.3596 31.6641 41.3596H14.1993C13.4249 41.3596 12.6667 41.2919 11.9283 41.1633L15.7295 48.6995C17.2266 51.6417 20.2076 53.469 23.5088 53.469H28.6453C29.983 53.469 31.0672 54.5532 31.0672 55.8909C31.0672 57.2286 29.983 58.3127 28.6453 58.3127H23.5088C18.3756 58.3127 13.7404 55.4708 11.4084 50.8882L4.52639 37.2433C4.49044 37.1724 4.45922 37.1009 4.43131 37.0286C2.30034 34.6838 1 31.5708 1 28.1603V8.42199C1 7.08428 2.08417 6.00011 3.42188 6.00011H13.1094C14.4471 6.00011 15.5313 7.08428 15.5313 8.42199V14.4767H48.4689V8.42199C48.4689 7.08428 49.553 6.00011 50.8907 6.00011H60.5783C61.916 6.00011 63.0002 7.08428 63.0002 8.42199V28.1603C63.0002 29.6986 62.7371 31.2066 62.2192 32.6422ZM23.9213 22.9533H40.0788L43.7117 19.3205H20.2885L23.9213 22.9533ZM10.6875 10.8439H5.84376V14.4767H10.6875V10.8439ZM58.1564 10.8439H53.3126V14.4767H58.1564V10.8439ZM50.8907 30.2189C52.2285 30.2189 53.3126 29.1348 53.3126 27.797C53.3126 26.4593 52.2285 25.3752 50.8907 25.3752C49.553 25.3752 48.4689 26.4593 48.4689 27.797C48.4689 29.1348 49.553 30.2189 50.8907 30.2189ZM13.1094 30.2189C14.4471 30.2189 15.5313 29.1348 15.5313 27.797C15.5313 26.4593 14.4471 25.3752 13.1094 25.3752C11.7717 25.3752 10.6875 26.4593 10.6875 27.797C10.6875 29.1348 11.7717 30.2189 13.1094 30.2189Z" fill="#868686"/>
<path fill-rule="evenodd" clip-rule="evenodd" d="M58.4999 50.5358L58.4999 50.5354C58.4834 47.9033 57.0523 46.4071 54.5911 44.1655C54.5162 44.0974 54.4395 44.0278 54.3612 43.9568C53.0413 42.7602 51.2688 41.1532 50.3048 38.8622C44.616 42.9985 42.5001 47.0875 42.5001 50.5222C42.5001 54.9098 46.0851 58.5001 50.5002 58.5001C52.6607 58.5001 54.6656 57.6687 56.1879 56.1453L56.1882 56.145C57.7034 54.6289 58.5133 52.6512 58.4999 50.5358ZM57.6212 40.8386L57.6222 40.8395C60.0048 43.0094 62.9698 45.7098 62.9998 50.5072C63.0209 53.8319 61.7321 56.9637 59.371 59.3262C57.0038 61.6951 53.8534 63.0001 50.5002 63.0001C43.6074 63.0001 38.0001 57.4026 38.0001 50.5222C38.0001 44.3845 42.2364 38.4901 50.2518 33.4763L50.4175 33.3722C51.1579 32.9048 52.0951 32.8759 52.8637 33.2956C53.6322 33.7158 54.1093 34.5188 54.1093 35.3905C54.1093 37.5326 55.4441 38.8562 57.6212 40.8386Z" fill="#FE7333"/>
</svg>
