<svg width="64" height="64" viewBox="0 0 64 64" fill="none" xmlns="http://www.w3.org/2000/svg">
<path d="M62.2192 36.3579C61.7651 35.0997 60.3768 34.4483 59.119 34.9019C57.8607 35.3565 57.2089 36.7444 57.663 38.0026C57.9904 38.9094 58.1564 39.864 58.1564 40.8398V49.6797H50.562L42.7945 41.9121C42.3404 41.458 41.7245 41.2031 41.0821 41.2031H22.918C22.2757 41.2031 21.6598 41.458 21.2057 41.9121L13.4382 49.6797H5.84376V40.8398C5.84376 36.2326 9.592 32.4843 14.1993 32.4843H31.6641C33.0019 32.4843 34.086 31.4001 34.086 30.0624C34.086 28.7247 33.0019 27.6405 31.6641 27.6405H14.1993C13.4249 27.6405 12.6667 27.7082 11.9283 27.8368L15.7295 20.3006C17.2266 17.3584 20.2076 15.5311 23.5088 15.5311H28.6453C29.983 15.5311 31.0672 14.447 31.0672 13.1093C31.0672 11.7715 29.983 10.6874 28.6453 10.6874H23.5088C18.3756 10.6874 13.7404 13.5293 11.4084 18.112L4.52639 31.7568C4.49044 31.8278 4.45922 31.8992 4.43131 31.9715C2.30034 34.3163 1 37.4293 1 40.8398V60.5781C1 61.9158 2.08417 63 3.42188 63H13.1094C14.4471 63 15.5313 61.9158 15.5313 60.5781V54.5234H48.4689V60.5781C48.4689 61.9158 49.553 63 50.8907 63H60.5783C61.916 63 63.0002 61.9158 63.0002 60.5781V40.8398C63.0002 39.3015 62.7371 37.7935 62.2192 36.3579ZM23.9213 46.0468H40.0788L43.7117 49.6797H20.2885L23.9213 46.0468ZM10.6875 58.1562H5.84376V54.5234H10.6875V58.1562ZM58.1564 58.1562H53.3126V54.5234H58.1564V58.1562ZM50.8907 38.7812C52.2285 38.7812 53.3126 39.8654 53.3126 41.2031C53.3126 42.5408 52.2285 43.625 50.8907 43.625C49.553 43.625 48.4689 42.5408 48.4689 41.2031C48.4689 39.8654 49.553 38.7812 50.8907 38.7812ZM13.1094 38.7812C14.4471 38.7812 15.5313 39.8654 15.5313 41.2031C15.5313 42.5408 14.4471 43.625 13.1094 43.625C11.7717 43.625 10.6875 42.5408 10.6875 41.2031C10.6875 39.8654 11.7717 38.7812 13.1094 38.7812Z" fill="#868686"/>
<path d="M61.8925 7.0692L50.0051 1.75755C49.6113 1.58148 49.1957 1.51923 48.7952 1.55653C48.3947 1.51936 47.9789 1.58172 47.5852 1.75755L35.6978 7.0692C34.8255 7.459 34.2639 8.32495 34.2639 9.28038V18.503C34.2639 22.2909 35.7604 26.1571 38.3697 29.1103C41.1557 32.2635 44.8 34 48.6317 34H48.9585C52.7902 34 56.4345 32.2635 59.2205 29.1103C61.8298 26.1571 63.3263 22.2908 63.3263 18.503V9.28038C63.3263 8.32507 62.7648 7.459 61.8925 7.0692ZM58.4824 10.8508V18.503C58.4824 23.5319 54.4094 29.1562 48.9584 29.1562H48.6316C43.1807 29.1562 39.1075 23.5318 39.1075 18.503V10.8508L48.795 6.52222L58.4825 10.8508H58.4824Z" fill="#43B02A"/>
</svg>
