<svg width="64" height="64" viewBox="0 0 64 64" fill="none" xmlns="http://www.w3.org/2000/svg">
<g clip-path="url(#clip0_2_3470)">
<path d="M63.9997 23.1248C63.9997 24.5055 62.8805 25.6248 61.4998 25.6248H58.9998V34.6247C58.9998 39.4009 55.634 43.4058 51.1496 44.3919C50.1863 47.4224 47.3453 49.6245 43.9999 49.6245C40.7406 49.6245 37.9603 47.5347 36.9284 44.6246H35.125C33.7443 44.6246 32.625 43.5053 32.625 42.1246C32.625 40.7439 33.7443 39.6246 35.125 39.6246H39C40.3807 39.6246 41.5 40.7439 41.5 42.1246C41.5 43.5031 42.6215 44.6246 43.9999 44.6246C45.3784 44.6246 46.4999 43.5031 46.4999 42.1246C46.4999 40.7439 47.6192 39.6246 48.9999 39.6246C51.7569 39.6246 53.9998 37.3816 53.9998 34.6247V22.545L48.9791 11.5828C47.665 8.71354 45.0363 6.61194 41.9475 5.96094C38.9215 5.32332 35.6166 4.99995 32.1251 4.99995C28.5407 4.99995 25.1342 5.33657 22 6.00057C18.9334 6.65019 16.3191 8.74866 15.0068 11.614L10.0003 22.545V33.3747C10.0003 34.7554 8.88103 35.8746 7.50029 35.8746C6.11956 35.8746 5.00032 34.7554 5.00032 33.3747V25.6248H2.50034C1.11961 25.6248 0.000366211 24.5055 0.000366211 23.1248C0.000366211 21.744 1.11961 20.6248 2.50034 20.6248H5.38031L10.461 9.53203C12.4294 5.2342 16.3557 2.08548 20.9638 1.10924C24.438 0.373121 28.1932 0 32.1251 0C35.9625 0 39.6141 0.359496 42.9785 1.06849C47.6112 2.04486 51.5539 5.19707 53.525 9.50078L58.6198 20.6248H61.4998C62.8805 20.6248 63.9997 21.744 63.9997 23.1248ZM46.6249 25.6248H17.3752C15.9945 25.6248 14.8752 24.5055 14.8752 23.1248C14.8752 21.744 15.9945 20.6248 17.3752 20.6248H46.6249C48.0057 20.6248 49.1249 21.744 49.1249 23.1248C49.1249 24.5055 48.0057 25.6248 46.6249 25.6248ZM45.8749 30.1247C44.1491 30.1247 42.75 31.5238 42.75 33.2497C42.75 34.9755 44.1491 36.3746 45.8749 36.3746C47.6008 36.3746 48.9999 34.9755 48.9999 33.2497C48.9999 31.5238 47.6008 30.1247 45.8749 30.1247Z" fill="#43B02A"/>
<path d="M37.375 61.4994C37.375 62.8802 36.2558 63.9994 34.875 63.9994H31.9864C31.9812 63.9994 31.9758 64.0001 31.9704 64.0001C31.9647 64.0001 31.9589 63.9994 31.953 63.9994H4.62531C3.24457 63.9994 2.12534 62.8802 2.12534 61.4994C2.12534 60.1187 3.24457 58.9995 4.62531 58.9995H5.76118L13.9013 35.9354C14.7886 33.4216 17.0843 31.7972 19.7502 31.7972C22.416 31.7972 24.7117 33.4216 25.599 35.9354L33.739 58.9995H34.8749C36.2558 58.9995 37.375 60.1187 37.375 61.4994ZM11.0634 58.9995H28.437L20.884 37.5994C20.6285 36.8753 20.006 36.7971 19.7502 36.7971C19.4943 36.7971 18.8718 36.8752 18.6163 37.5994L11.0634 58.9995Z" fill="#868686"/>
</g>
<defs>
<clipPath id="clip0_2_3470">
<rect width="64" height="64" fill="white"/>
</clipPath>
</defs>
</svg>
