<svg width="64" height="64" viewBox="0 0 64 64" fill="none" xmlns="http://www.w3.org/2000/svg">
<g clip-path="url(#clip0_2_3573)">
<path d="M45.5832 13.6997C45.0904 14.2353 44.4178 14.5068 43.7432 14.5068C43.5333 14.5068 43.3237 14.4788 43.1189 14.426V20.131C43.1189 23.5768 40.3155 26.3801 36.8697 26.3801H27.246C23.8003 26.3801 20.9969 23.5768 20.9969 20.131V14.4536C20.1673 14.6224 19.2728 14.3683 18.6576 13.6999C17.7228 12.684 17.7885 11.1027 18.8043 10.1679L28.1787 1.54104C30.429 -0.512182 33.8114 -0.512432 36.0542 1.53379L45.4364 10.168C46.4523 11.1026 46.5179 12.684 45.5832 13.6997ZM38.1196 20.131V10.2283L32.6768 5.21953C32.3628 4.9332 31.8779 4.93332 31.556 5.22678L25.9962 10.3433V20.131C25.9962 20.8202 26.5569 21.3808 27.246 21.3808H36.8697C37.5589 21.3808 38.1196 20.8202 38.1196 20.131ZM38.1318 10.2396L38.1311 10.2388C38.1313 10.2417 38.1316 10.2425 38.1318 10.2396Z" fill="#FE7333"/>
<path d="M63.9911 27.1296C63.9913 28.51 62.8725 29.6293 61.4919 29.6297C60.1116 29.6297 58.992 28.5109 58.9917 27.1304L58.9895 13.9077C58.9893 12.5578 57.9383 11.4088 56.589 11.3628C55.1739 11.3146 54.0142 12.4467 54.0136 13.8481L54.0023 37.2863C54.1248 39.2541 53.4801 41.2664 52.0447 42.8279L46.6192 48.9153C46.1254 49.4695 45.4402 49.7518 44.7522 49.7518C44.1604 49.7518 43.5665 49.543 43.0899 49.1183C42.0593 48.1997 41.9683 46.6196 42.887 45.5892L48.348 39.5782C49.2685 38.565 49.2081 37.0012 48.2122 36.062C47.1966 35.1041 45.5947 35.1583 44.6461 36.1827L35.5103 46.0483L35.7855 46.3432C37.7459 48.4613 38.7603 51.2055 38.6493 54.0785C38.5382 56.9513 37.315 59.6092 35.2046 61.5621L33.2894 63.3349C32.8085 63.7799 32.1994 63.9999 31.5921 63.9999C30.9198 63.9999 30.2497 63.7304 29.7569 63.1981C28.8193 62.1849 28.8804 60.6034 29.8936 59.6656L31.8071 57.8947C32.9392 56.8471 33.5942 55.4238 33.6536 53.8854C33.7132 52.3467 33.1698 50.8772 32.1238 49.747L19.3573 36.1783C18.4212 35.1833 16.8589 35.1265 15.8528 36.0506C14.8268 36.9931 14.7715 38.5932 15.7302 39.6042L24.2039 48.5412C25.1488 49.548 25.0985 51.1298 24.0919 52.0746C23.0852 53.0193 21.5034 52.9691 20.5585 51.9627L12.015 42.86C12.011 42.8558 12.0072 42.8515 12.003 42.8472C10.814 41.5623 10.1634 39.9693 10.0364 38.3463C10.0347 38.3296 10.0177 20.5508 10.0113 13.8752C10.0101 12.4674 8.84311 11.3328 7.42392 11.3838C6.07223 11.4324 5.02063 12.5838 5.0205 13.9364C5.0195 19.9913 5.01688 34.7141 5.0165 34.7289C4.83353 42.8468 7.69389 50.5181 13.071 56.3312L16.3128 59.7913C17.2568 60.7988 17.2053 62.3807 16.1979 63.3246C15.7157 63.7764 15.1016 64.0001 14.4892 64.0001C13.822 64.0001 13.1568 63.7348 12.6646 63.2096L9.4174 59.7438C9.4139 59.7401 9.4104 59.7362 9.4069 59.7325C3.14688 52.9679 -0.187035 44.0589 0.0176868 34.6449L0.0214363 13.5464C0.0214363 13.5222 0.0218113 13.4978 0.0225612 13.4735C0.144669 9.30661 3.48159 6.13455 7.6129 6.25891C9.60313 6.31715 11.4682 7.12529 12.8646 8.53447C14.2947 9.9779 15.0548 11.872 15.0073 13.8719L15.0161 30.6779C15.8964 30.3684 16.8358 30.2231 17.797 30.2602C19.7986 30.3377 21.6501 31.19 23.0107 32.6602L32.0888 42.3836L41.0135 32.667C42.3804 31.1901 44.2319 30.3377 46.2335 30.2602C47.1916 30.2235 48.1284 30.368 49.0066 30.6757L49.0155 13.8721C48.9676 11.8823 49.6913 10.0004 51.0555 8.56921C52.4198 7.13791 54.2724 6.3174 56.272 6.25903C60.4054 6.13567 63.8671 9.37423 63.9872 13.4737C63.9879 13.4979 63.9883 13.5222 63.9883 13.5465L63.9911 27.1296ZM61.5525 37.0998C60.1838 36.928 58.9326 37.8981 58.7603 39.2679C57.9529 45.684 55.2051 51.5842 50.8136 56.3313L47.5719 59.7915C46.6279 60.799 46.6796 62.3807 47.687 63.3246C48.1692 63.7764 48.783 64.0001 49.3956 64.0001C50.0626 64.0001 50.7281 63.7347 51.2202 63.2095L54.4672 59.7437C54.4707 59.7401 54.4742 59.7362 54.4777 59.7326C59.5854 54.2136 62.7815 47.3529 63.7205 39.8922C63.893 38.5222 62.9222 37.2722 61.5525 37.0998Z" fill="#868686"/>
</g>
<defs>
<clipPath id="clip0_2_3573">
<rect width="64" height="64" fill="white"/>
</clipPath>
</defs>
</svg>
