<svg width="64" height="64" viewBox="0 0 64 64" fill="none" xmlns="http://www.w3.org/2000/svg">
<path d="M56.3391 25.6648H50.2543L35.6813 15.0164C36.4159 14.5017 37.0172 13.8191 37.4352 13.0254C37.8532 12.2318 38.0759 11.3498 38.0848 10.4528C38.0699 9.39231 37.7822 8.35346 37.2494 7.4364C36.7165 6.51933 35.9564 5.75495 35.0424 5.2169V1.32568H32C32 1.32568 32.0126 6.67349 32.0126 7.11802C32.0126 7.56254 33.19 7.58889 33.6903 7.92319C34.1906 8.25749 34.5805 8.73265 34.8108 9.28857C35.0411 9.8445 35.1013 10.4562 34.9839 11.0464C34.8665 11.6365 34.5768 12.1787 34.1513 12.6041C33.7258 13.0296 33.1837 13.3194 32.5935 13.4368C32.0034 13.5542 31.3917 13.4939 30.8357 13.2636C30.2798 13.0334 29.8047 12.6434 29.4704 12.1431C29.1361 11.6428 28.9576 11.0546 28.9576 10.4528H25.9152C25.9242 11.3518 26.1488 12.2355 26.5702 13.0296C26.9916 13.8238 27.5975 14.5051 28.337 15.0164L13.7457 25.6648H7.66091C6.04763 25.6664 4.50088 26.308 3.36011 27.4487C2.21934 28.5895 1.57775 30.1363 1.57614 31.7496V56.0886C1.57775 57.7019 2.21934 59.2487 3.36011 60.3895C4.50088 61.5302 6.04763 62.1718 7.66091 62.1734H56.3391C57.1385 62.1746 57.9303 62.0181 58.6691 61.7127C59.4079 61.4073 60.0791 60.9592 60.6444 60.3939C61.2096 59.8286 61.6578 59.1574 61.9632 58.4186C62.2685 57.6798 62.4251 56.888 62.4239 56.0886V31.7496C62.4223 30.1363 61.7807 28.5895 60.6399 27.4487C59.4991 26.308 57.9524 25.6664 56.3391 25.6648ZM32 16.5376C32.0183 16.5376 44.1696 25.6648 44.1696 25.6648H19.8305L32 16.5376ZM57.0093 57.0091H7.02124V31.009H57.0093V57.0091Z" fill="#868686"/>
<ellipse cx="27.4345" cy="10.4442" rx="1.52169" ry="0.325698" fill="#868686"/>
<ellipse cx="33.5217" cy="1.3257" rx="1.52169" ry="0.325698" fill="#868686"/>
<path d="M38.0848 53.045C38.8916 53.045 39.6655 52.7244 40.236 52.1539C40.8066 51.5833 41.1271 50.8095 41.1271 50.0026V37.833C41.1271 37.0261 40.8066 36.2523 40.236 35.6817C39.6655 35.1112 38.8916 34.7906 38.0848 34.7906C37.2779 34.7906 36.504 35.1112 35.9335 35.6817C35.3629 36.2523 35.0424 37.0261 35.0424 37.833V50.0026C35.0424 50.8095 35.3629 51.5833 35.9335 52.1539C36.504 52.7244 37.2779 53.045 38.0848 53.045ZM50.2543 53.045C51.0612 53.045 51.835 52.7244 52.4056 52.1539C52.9762 51.5833 53.2967 50.8095 53.2967 50.0026V37.833C53.2967 37.0261 52.9762 36.2523 52.4056 35.6817C51.835 35.1112 51.0612 34.7906 50.2543 34.7906C49.4474 34.7906 48.6736 35.1112 48.103 35.6817C47.5325 36.2523 47.2119 37.0261 47.2119 37.833V50.0026C47.2119 50.8095 47.5325 51.5833 48.103 52.1539C48.6736 52.7244 49.4474 53.045 50.2543 53.045ZM13.7457 53.045C14.5526 53.045 15.3264 52.7244 15.897 52.1539C16.4675 51.5833 16.7881 50.8095 16.7881 50.0026V37.833C16.7881 37.0261 16.4675 36.2523 15.897 35.6817C15.3264 35.1112 14.5526 34.7906 13.7457 34.7906C12.9388 34.7906 12.1649 35.1112 11.5944 35.6817C11.0238 36.2523 10.7033 37.0261 10.7033 37.833V50.0026C10.7033 50.8095 11.0238 51.5833 11.5944 52.1539C12.1649 52.7244 12.9388 53.045 13.7457 53.045ZM25.9152 53.045C26.7221 53.045 27.4959 52.7244 28.0665 52.1539C28.6371 51.5833 28.9576 50.8095 28.9576 50.0026V37.833C28.9576 37.0261 28.6371 36.2523 28.0665 35.6817C27.4959 35.1112 26.7221 34.7906 25.9152 34.7906C25.1083 34.7906 24.3345 35.1112 23.7639 35.6817C23.1934 36.2523 22.8728 37.0261 22.8728 37.833V50.0026C22.8728 50.8095 23.1934 51.5833 23.7639 52.1539C24.3345 52.7244 25.1083 53.045 25.9152 53.045Z" fill="#FE7333"/>
</svg>
