<svg width="64" height="64" viewBox="0 0 64 64" fill="none" xmlns="http://www.w3.org/2000/svg">
<path fill-rule="evenodd" clip-rule="evenodd" d="M14.0369 39.7344H4.34375C3.0493 39.7344 2 40.7837 2 42.0781V50.2812C2 51.5757 3.0493 52.625 4.34375 52.625H13.7188C15.0132 52.625 16.0625 51.5757 16.0625 50.2812V44.4219C17.8092 42.3872 19.7143 40.5524 21.6294 38.708C22.4826 37.8863 23.3377 37.0628 24.1817 36.2188H31.0625C32.357 36.2188 33.4062 35.1695 33.4062 33.875C33.4062 32.5805 32.357 31.5312 31.0625 31.5312H23.2109C22.5893 31.5312 21.9931 31.7782 21.5536 32.2177L14.0369 39.7344ZM11.375 47.9375H6.6875V44.4219H11.375V47.9375Z" fill="#868686"/>
<path fill-rule="evenodd" clip-rule="evenodd" d="M57.5806 20.2186C58.2537 21.5398 57.2924 23.0938 55.8097 23.0938H14.7734C10.3148 23.0938 6.6875 26.7211 6.6875 31.1797C6.6875 32.4741 5.6382 33.5234 4.34375 33.5234C3.0493 33.5234 2 32.4741 2 31.1797C2 27.9152 3.23164 24.9332 5.25383 22.6727C5.28805 22.5752 12.0778 9.18652 12.0778 9.18652C14.3294 4.75379 18.8166 2 23.7884 2H40.2174C45.185 2 49.6705 4.75027 51.9234 9.1775C53.5807 12.4423 55.8858 16.8916 57.5806 20.2186ZM40.2174 6.6875C43.4122 6.6875 46.2969 8.45621 47.7458 11.3034L51.4602 18.6021C50.7346 18.4735 49.9883 18.4062 49.2266 18.4062H14.7734C14.0166 18.4062 13.2752 18.4728 12.5541 18.5996L16.2571 11.3093C17.7052 8.45844 20.591 6.6875 23.7884 6.6875H40.2174Z" fill="#868686"/>
<path d="M11.375 31.5312C11.375 30.2368 12.4243 29.1875 13.7188 29.1875C15.0132 29.1875 16.0625 30.2368 16.0625 31.5312C16.0625 32.8257 15.0132 33.875 13.7188 33.875C12.4243 33.875 11.375 32.8257 11.375 31.5312Z" fill="#868686"/>
<path d="M57.168 32.5365C55.1866 31.5456 52.6016 31 49.8889 31C47.1762 31 44.5911 31.5456 42.6098 32.5365C40.1385 33.7717 38.7778 35.5937 38.7778 37.6667C38.7778 37.7326 38.7791 37.7982 38.7817 37.8637C38.7791 37.9089 38.7778 37.954 38.7778 38V40.7457C36.8776 39.9045 34.5412 39.4444 32.1111 39.4444C29.3984 39.4444 26.8134 39.99 24.832 40.9809C22.3607 42.2161 21 44.0382 21 46.1111C21 46.1376 21.0013 46.1636 21.0017 46.1901C21.0013 46.201 21 46.2114 21 46.2222V54.8889C21 56.9618 22.3607 58.7839 24.832 60.0191C26.8134 61.01 29.3984 61.5556 32.1111 61.5556C34.8238 61.5556 37.4089 61.01 39.3902 60.0191C39.9948 59.717 40.5321 59.3793 41 59.0122C41.4679 59.3793 42.0052 59.717 42.6098 60.0191C44.5911 61.01 47.1762 61.5556 49.8889 61.5556C52.6016 61.5556 55.1866 61.01 57.168 60.0191C59.6393 58.7839 61 56.9618 61 54.8889V37.6667C61 35.5937 59.6393 33.7717 57.168 32.5365ZM37.4028 56.0438C36.0464 56.7222 34.1176 57.1111 32.1111 57.1111C30.1046 57.1111 28.1758 56.7222 26.8194 56.0438C25.6836 55.4761 25.4444 54.9657 25.4444 54.8889V51.5234C27.3325 52.3342 29.6693 52.7778 32.1111 52.7778C32.194 52.7778 32.2769 52.7773 32.3594 52.7765C33.5868 52.7617 34.5699 51.7556 34.5556 50.5282C34.5412 49.3012 33.5321 48.319 32.3073 48.332C32.2422 48.3329 32.1766 48.3333 32.1111 48.3333C30.1046 48.3333 28.1762 47.9444 26.8199 47.2661C25.6836 46.6983 25.4444 46.1879 25.4444 46.1111C25.4444 46.0343 25.6836 45.5239 26.8194 44.9562C28.1758 44.2778 30.1046 43.8889 32.1111 43.8889C34.0942 43.8889 36.013 44.293 37.3754 44.9978C38.4453 45.5512 38.7778 46.089 38.7778 46.2222V54.8889C38.7778 54.9657 38.5386 55.4761 37.4028 56.0438ZM56.5556 54.8889C56.5556 54.9657 56.3164 55.4761 55.1806 56.0438C53.8242 56.7222 51.8954 57.1111 49.8889 57.1111C47.8824 57.1111 45.9536 56.7222 44.5972 56.0438C43.4614 55.4761 43.2222 54.9657 43.2222 54.8889V51.5234C45.1102 52.3342 47.447 52.7778 49.8889 52.7778C49.9727 52.7778 50.056 52.7773 50.1389 52.776C51.3659 52.7608 52.3485 51.7535 52.3333 50.5265C52.3177 49.299 51.3151 48.3155 50.0833 48.332C50.0187 48.3329 49.954 48.3333 49.8889 48.3333C47.8824 48.3333 45.9536 47.9444 44.5972 47.2661C43.4614 46.6983 43.2222 46.1879 43.2222 46.1111V43.0812C45.1098 43.8915 47.4479 44.3333 49.8889 44.3333C49.9727 44.3333 50.056 44.3329 50.1389 44.3316C51.3659 44.3164 52.3485 43.309 52.3333 42.082C52.3181 40.8641 51.326 39.8876 50.112 39.8876C50.1024 39.8876 50.0929 39.8876 50.0833 39.8876C50.0187 39.8885 49.954 39.8889 49.8889 39.8889C47.8824 39.8889 45.954 39.5 44.5977 38.8216C43.4614 38.2539 43.2222 37.7435 43.2222 37.6667C43.2222 37.5898 43.4614 37.0794 44.5972 36.5117C45.9536 35.8333 47.8824 35.4444 49.8889 35.4444C51.8954 35.4444 53.8242 35.8333 55.1806 36.5117C56.3164 37.0794 56.5556 37.5898 56.5556 37.6667V54.8889Z" fill="#43B02A"/>
</svg>
