<svg width="64" height="64" viewBox="0 0 64 64" fill="none" xmlns="http://www.w3.org/2000/svg">
<path d="M58.8237 31.3737C56.6643 30.2938 53.847 29.6992 50.8906 29.6992C47.9342 29.6992 45.1169 30.2938 42.9576 31.3737C40.2642 32.7199 38.7812 34.7057 38.7812 36.9648C38.7812 37.0367 38.7827 37.1082 38.7855 37.1796C38.7827 37.2288 38.7812 37.278 38.7812 37.3281V40.3205C36.7104 39.4037 34.1641 38.9023 31.5156 38.9023C28.5592 38.9023 25.7419 39.4969 23.5826 40.5768C20.8892 41.9231 19.4062 43.9088 19.4062 46.168C19.4062 46.1968 19.4077 46.2252 19.4081 46.2541C19.4077 46.2659 19.4062 46.2772 19.4062 46.2891V55.7344C19.4062 57.9935 20.8892 59.9793 23.5826 61.3255C25.7419 62.4054 28.5592 63 31.5156 63C34.472 63 37.2893 62.4054 39.4487 61.3255C40.1076 60.9963 40.6932 60.6283 41.2031 60.2281C41.713 60.6283 42.2986 60.9963 42.9576 61.3255C45.1169 62.4054 47.9342 63 50.8906 63C53.847 63 56.6643 62.4054 58.8237 61.3255C61.5171 59.9793 63 57.9935 63 55.7344V36.9648C63 34.7057 61.5171 32.7199 58.8237 31.3737ZM37.2827 56.9931C35.8045 57.7324 33.7024 58.1562 31.5156 58.1562C29.3288 58.1562 27.2267 57.7324 25.7485 56.9931C24.5106 56.3744 24.25 55.8181 24.25 55.7344V52.0666C26.3076 52.9502 28.8544 53.4336 31.5156 53.4336C31.606 53.4336 31.6963 53.4331 31.7862 53.4322C33.1239 53.4161 34.1953 52.3196 34.1797 50.9819C34.1641 49.6447 33.0643 48.5742 31.7294 48.5884C31.6585 48.5894 31.5871 48.5898 31.5156 48.5898C29.3288 48.5898 27.2272 48.166 25.749 47.4267C24.5106 46.808 24.25 46.2517 24.25 46.168C24.25 46.0842 24.5106 45.528 25.7485 44.9093C27.2267 44.1699 29.3288 43.7461 31.5156 43.7461C33.6769 43.7461 35.7681 44.1865 37.2529 44.9547C38.4189 45.5578 38.7812 46.1438 38.7812 46.2891V55.7344C38.7812 55.8181 38.5206 56.3744 37.2827 56.9931ZM58.1562 55.7344C58.1562 55.8181 57.8956 56.3744 56.6577 56.9931C55.1795 57.7324 53.0774 58.1562 50.8906 58.1562C48.7038 58.1562 46.6017 57.7324 45.1235 56.9931C43.8856 56.3744 43.625 55.8181 43.625 55.7344V52.0666C45.6826 52.9502 48.2294 53.4336 50.8906 53.4336C50.9819 53.4336 51.0727 53.4331 51.1631 53.4317C52.5003 53.4151 53.5712 52.3173 53.5547 50.98C53.5377 49.6423 52.445 48.5704 51.1025 48.5884C51.0321 48.5894 50.9616 48.5898 50.8906 48.5898C48.7038 48.5898 46.6017 48.166 45.1235 47.4267C43.8856 46.808 43.625 46.2517 43.625 46.168V42.8658C45.6822 43.7489 48.2303 44.2305 50.8906 44.2305C50.9819 44.2305 51.0727 44.23 51.1631 44.2286C52.5003 44.212 53.5712 43.1141 53.5547 41.7769C53.5381 40.4496 52.4568 39.3853 51.1338 39.3853C51.1234 39.3853 51.1129 39.3853 51.1025 39.3853C51.0321 39.3862 50.9616 39.3867 50.8906 39.3867C48.7038 39.3867 46.6022 38.9629 45.124 38.2236C43.8856 37.6048 43.625 37.0486 43.625 36.9648C43.625 36.8811 43.8856 36.3248 45.1235 35.7061C46.6017 34.9668 48.7038 34.543 50.8906 34.543C53.0774 34.543 55.1795 34.9668 56.6577 35.7061C57.8956 36.3248 58.1562 36.8811 58.1562 36.9648V55.7344Z" fill="#43B02A"/>
<path d="M63 10.6875V24.25C63 25.5877 61.9158 26.6719 60.5781 26.6719C59.2404 26.6719 58.1562 25.5877 58.1562 24.25V10.6875C58.1562 8.01682 55.9832 5.84375 53.3125 5.84375H10.6875C8.01682 5.84375 5.84375 8.01682 5.84375 10.6875V35.6328C5.84375 38.3035 8.01682 40.4766 10.6875 40.4766H12.5039C13.8416 40.4766 14.9258 41.5607 14.9258 42.8984C14.9258 44.2361 13.8416 45.3203 12.5039 45.3203H10.6875C5.34566 45.3203 1 40.9747 1 35.6328V10.6875C1 5.34566 5.34566 1 10.6875 1H53.3125C58.6543 1 63 5.34566 63 10.6875ZM38.777 23.4246C38.7798 23.3319 38.7812 23.2387 38.7812 23.1455C38.7812 18.9389 35.7392 15.5166 32 15.5166C28.2608 15.5166 25.2188 18.9389 25.2188 23.1455C25.2188 25.9945 26.618 28.5876 28.87 29.9126C30.0228 30.5909 30.4073 32.0752 29.7295 33.228C29.2782 33.9952 28.4698 34.4223 27.6397 34.4223C27.2225 34.4223 26.7996 34.3145 26.4141 34.0874C22.689 31.8964 20.375 27.7035 20.375 23.1455C20.375 16.2682 25.5901 10.6728 32 10.6728C38.4099 10.6728 43.625 16.2682 43.625 23.1455C43.625 23.2907 43.6226 23.4355 43.6179 23.5793C43.6051 23.9827 43.5739 24.3891 43.5252 24.7869C43.362 26.1147 42.1539 27.0588 40.8266 26.8961C39.4988 26.7329 38.5547 25.5248 38.7174 24.197C38.7486 23.9435 38.7685 23.6833 38.777 23.4246ZM12.7461 20.0117C14.0838 20.0117 15.168 21.0959 15.168 22.4336C15.168 23.7713 14.0838 24.8555 12.7461 24.8555C11.4084 24.8555 10.3242 23.7713 10.3242 22.4336C10.3242 21.0959 11.4084 20.0117 12.7461 20.0117ZM51.4961 24.8555C50.1584 24.8555 49.0742 23.7713 49.0742 22.4336C49.0742 21.0959 50.1584 20.0117 51.4961 20.0117C52.8338 20.0117 53.918 21.0959 53.918 22.4336C53.918 23.7713 52.8338 24.8555 51.4961 24.8555Z" fill="#868686"/>
</svg>
