<svg width="64" height="64" viewBox="0 0 64 64" fill="none" xmlns="http://www.w3.org/2000/svg">
<path d="M59.1889 49.6348C57.7599 57.3791 50.999 63 43.1133 63C34.0994 63 26.7656 55.6663 26.7656 46.6523C26.7656 37.6384 34.0994 30.3047 43.1133 30.3047C44.608 30.3047 46.0905 30.5071 47.5185 30.9059C48.807 31.2654 49.5596 32.6012 49.1997 33.8897C48.8402 35.1782 47.5039 35.9308 46.2158 35.5708C45.2116 35.2908 44.1676 35.1484 43.1133 35.1484C36.77 35.1484 31.6094 40.3091 31.6094 46.6523C31.6094 52.9956 36.77 58.1562 43.1133 58.1562C48.6628 58.1562 53.4204 54.2027 54.4256 48.7559C54.6687 47.4404 55.9317 46.5705 57.2467 46.8136C58.5622 47.0563 59.4316 48.3193 59.1889 49.6348ZM39.9819 43.8502C39.0358 42.9041 37.5028 42.9041 36.5572 43.8502C35.6111 44.7957 35.6111 46.3293 36.5567 47.2748L40.1228 50.841C40.9478 51.6659 42.0338 52.0784 43.1199 52.0784C44.1989 52.0784 45.2778 51.6711 46.1014 50.8561L56.6843 40.3815C57.6351 39.4406 57.6426 37.9071 56.7018 36.9563C55.761 36.0056 54.2274 35.9975 53.2766 36.9388L43.1223 46.9901L39.9819 43.8502Z" fill="#43B02A"/>
<path d="M23.375 58.1562H13.6875C11.0168 58.1562 8.84375 55.9832 8.84375 53.3125V21.4648H15.9883C20.6622 21.4648 24.4648 17.6622 24.4648 12.9883C24.4648 11.6506 23.3807 10.5664 22.043 10.5664C20.7053 10.5664 19.6211 11.6506 19.6211 12.9883C19.6211 14.9915 17.9915 16.6211 15.9883 16.6211H9.25906C9.48328 16.1301 9.79405 15.6769 10.1852 15.2824L18.1826 7.2141C19.0454 6.34326 20.2441 5.84375 21.4701 5.84375H43.4628C46.134 5.84375 48.3066 8.01682 48.3066 10.6875V23.5234C48.3066 24.8611 49.3912 25.9453 50.7285 25.9453C52.0662 25.9453 53.1503 24.8611 53.1503 23.5234V10.6875C53.1503 5.34566 48.8047 1 43.4628 1H21.4701C18.9608 1 16.5086 2.0222 14.7423 3.80408L6.74495 11.8724C4.9749 13.6586 4 16.0265 4 18.5411V53.3125C4 58.6543 8.34566 63 13.6875 63H23.375C24.7127 63 25.7969 61.9158 25.7969 60.5781C25.7969 59.2404 24.7127 58.1562 23.375 58.1562Z" fill="#868686"/>
</svg>
