<svg width="64" height="64" viewBox="0 0 64 64" fill="none" xmlns="http://www.w3.org/2000/svg">
<path d="M13.1094 20.375C17.1159 20.375 20.375 17.1159 20.375 13.1094C20.375 9.10287 17.1159 5.84375 13.1094 5.84375C9.10287 5.84375 5.84375 9.10287 5.84375 13.1094C5.84375 17.1159 9.10287 20.375 13.1094 20.375ZM13.1094 10.6875C14.4447 10.6875 15.5312 11.774 15.5312 13.1094C15.5312 14.4447 14.4447 15.5312 13.1094 15.5312C11.774 15.5312 10.6875 14.4447 10.6875 13.1094C10.6875 11.774 11.774 10.6875 13.1094 10.6875ZM20.375 52.1016V60.5781C20.375 61.9158 19.2908 63 17.9531 63C16.6154 63 15.5312 61.9158 15.5312 60.5781V52.1016C15.5312 50.7639 16.6154 49.6797 17.9531 49.6797C19.2908 49.6797 20.375 50.7639 20.375 52.1016ZM15.2891 25.1582C15.2891 26.4959 14.2049 27.5801 12.8672 27.5801C5.84375 27.5801 5.84375 30.8789 5.84375 32.1211V42.4141C5.84375 43.5517 6.38678 44.6377 7.29688 45.3203C9.4198 46.9125 10.6875 49.4479 10.6875 52.1016V60.5781C10.6875 61.9158 9.60333 63 8.26562 63C6.92792 63 5.84375 61.9158 5.84375 60.5781V52.1016C5.84375 50.9639 5.30072 49.8779 4.39062 49.1953C2.2677 47.6031 1 45.0677 1 42.4141V32.1211C1 28.8473 2.34433 26.2603 4.8873 24.6407C6.87115 23.3768 9.55603 22.7363 12.8672 22.7363C14.2049 22.7363 15.2891 23.8205 15.2891 25.1582ZM50.8906 20.375C54.8971 20.375 58.1562 17.1159 58.1562 13.1094C58.1562 9.10287 54.8971 5.84375 50.8906 5.84375C46.8841 5.84375 43.625 9.10287 43.625 13.1094C43.625 17.1159 46.8841 20.375 50.8906 20.375ZM50.8906 10.6875C52.226 10.6875 53.3125 11.774 53.3125 13.1094C53.3125 14.4447 52.226 15.5312 50.8906 15.5312C49.5553 15.5312 48.4688 14.4447 48.4688 13.1094C48.4688 11.774 49.5553 10.6875 50.8906 10.6875ZM48.4688 52.1016V60.5781C48.4688 61.9158 47.3846 63 46.0469 63C44.7092 63 43.625 61.9158 43.625 60.5781V52.1016C43.625 50.7639 44.7092 49.6797 46.0469 49.6797C47.3846 49.6797 48.4688 50.7639 48.4688 52.1016ZM63 32.1211V42.4141C63 45.0677 61.7323 47.6031 59.6094 49.1953C58.6993 49.8779 58.1562 50.9639 58.1562 52.1016V60.5781C58.1562 61.9158 57.0721 63 55.7344 63C54.3967 63 53.3125 61.9158 53.3125 60.5781V52.1016C53.3125 49.4479 54.5802 46.9125 56.7031 45.3203C57.6132 44.6377 58.1562 43.5517 58.1562 42.4141V32.1211C58.1562 30.8789 58.1562 27.5801 51.1328 27.5801C49.7951 27.5801 48.7109 26.4959 48.7109 25.1582C48.7109 23.8205 49.7951 22.7363 51.1328 22.7363C54.444 22.7363 57.1288 23.3768 59.1127 24.6407C61.6557 26.2603 63 28.8473 63 32.1211Z" fill="#868686"/>
<path d="M32 15.5312C36.0065 15.5312 39.2656 12.2721 39.2656 8.26562C39.2656 4.25912 36.0065 1 32 1C27.9935 1 24.7344 4.25912 24.7344 8.26562C24.7344 12.2721 27.9935 15.5312 32 15.5312ZM32 5.84375C33.3353 5.84375 34.4219 6.93028 34.4219 8.26562C34.4219 9.60097 33.3353 10.6875 32 10.6875C30.6647 10.6875 29.5781 9.60097 29.5781 8.26562C29.5781 6.93028 30.6647 5.84375 32 5.84375ZM45.3203 39.5192C45.3203 42.4793 43.7433 45.2645 41.205 46.7876L41.03 46.8926C39.9416 47.5459 39.2656 48.7393 39.2656 50.008V60.5781C39.2656 61.9158 38.1815 63 36.8438 63C35.506 63 34.4219 61.9158 34.4219 60.5781V50.008C34.4219 47.0478 35.9989 44.2626 38.5372 42.7395L38.7122 42.6345C39.8006 41.9817 40.4766 40.7878 40.4766 39.5192V28.7305C40.4766 23.7264 35.8338 22.6758 31.9395 22.6758C28.0451 22.6758 23.4023 23.7264 23.4023 28.7305V39.4842C23.4023 40.7661 24.0887 41.9656 25.1932 42.6156L25.399 42.7367C27.9769 44.2532 29.5781 47.0525 29.5781 50.043V60.5781C29.5781 61.9158 28.494 63 27.1562 63C25.8185 63 24.7344 61.9158 24.7344 60.5781V50.043C24.7344 48.7611 24.048 47.5615 22.9435 46.912L22.7377 46.7909C20.1598 45.2744 18.5586 42.4746 18.5586 39.4842V28.7305C18.5586 25.082 20.0316 22.1413 22.8186 20.2265C25.0986 18.6598 28.2527 17.832 31.9395 17.832C35.6262 17.832 38.7803 18.6598 41.0603 20.2265C43.8473 22.1413 45.3203 25.082 45.3203 28.7305V39.5192Z" fill="#43B02A"/>
</svg>
