<svg width="64" height="64" viewBox="0 0 64 64" fill="none" xmlns="http://www.w3.org/2000/svg">
<path d="M43.4629 1C48.8046 1 53.1504 5.34581 53.1504 10.6875V28.25C53.1504 29.5876 52.0661 30.6719 50.7285 30.6719C49.391 30.6717 48.3066 29.5875 48.3066 28.25V10.6875C48.3066 8.01666 46.1337 5.84375 43.4629 5.84375H13.6875C11.0167 5.84375 8.84375 8.01666 8.84375 10.6875V53.3125C8.84375 55.9833 11.0167 58.1562 13.6875 58.1562H26.873C28.2105 58.1562 29.2949 59.2405 29.2949 60.5781C29.2949 61.9157 28.2106 63 26.873 63H13.6875C8.34581 63 4 58.6542 4 53.3125V10.6875C4 5.34581 8.34581 1 13.6875 1H43.4629ZM21.3027 34.9062C22.6403 34.9062 23.7246 35.9905 23.7246 37.3281C23.7246 38.6657 22.6403 39.75 21.3027 39.75H16.0957C14.7582 39.7499 13.6738 38.6657 13.6738 37.3281C13.6738 35.9906 14.7582 34.9063 16.0957 34.9062H21.3027ZM29.0527 25.2188C30.3903 25.2188 31.4746 26.303 31.4746 27.6406C31.4746 28.9782 30.3903 30.0625 29.0527 30.0625H16.0957C14.7582 30.0624 13.6738 28.9782 13.6738 27.6406C13.6738 26.3031 14.7582 25.2188 16.0957 25.2188H29.0527ZM41.041 15.5312C42.3786 15.5312 43.4629 16.6155 43.4629 17.9531C43.4629 19.2907 42.3786 20.375 41.041 20.375H16.0957C14.7582 20.3749 13.6738 19.2907 13.6738 17.9531C13.6738 16.6156 14.7582 15.5313 16.0957 15.5312H41.041Z" fill="#868686"/>
<path d="M41.6445 47.0696L34.5348 54.1793C33.5892 55.1249 33.5889 56.6585 34.5348 57.6044C35.4807 58.5503 37.0139 58.5503 37.9598 57.6044L45.0696 50.4946L52.1793 57.6044C53.1252 58.5503 54.6584 58.5503 55.6043 57.6044C56.5502 56.6585 56.5502 55.1252 55.6043 54.1793L48.4946 47.0696L55.6043 39.9598C56.5502 39.0139 56.5502 37.4807 55.6043 36.5348C54.6584 35.5889 53.1252 35.5889 52.1793 36.5348L45.0696 43.6445L37.9598 36.5348C37.0139 35.5889 35.4807 35.5889 34.5348 36.5348C33.5889 37.4807 33.5889 39.0139 34.5348 39.9598L41.6445 47.0696Z" fill="#EB5757"/>
</svg>
