<svg width="64" height="64" viewBox="0 0 64 64" fill="none" xmlns="http://www.w3.org/2000/svg">
<path fill-rule="evenodd" clip-rule="evenodd" d="M57.1812 18.9597C52.2332 16.8716 44.3004 16.4854 38.5389 17.6876C34.1494 18.6035 28.1258 20.2283 28.1258 25.482V56C30.7163 65.7777 62.7453 65.5316 63 54.4698V25.4821C63 23.936 62.2439 21.0329 57.1812 18.9597ZM45.5629 58.1768C49.5583 58.2158 56.7237 57.1564 58.1563 54.4698L58.1562 25.4818C58.1562 25.3053 57.6561 24.3878 55.3456 23.4418C50.3773 21.3001 40.9274 21.3718 35.9225 23.4514C33.5139 24.4081 32.9693 25.3487 32.9693 25.4819C32.9693 25.6151 33.5139 26.5557 35.9225 27.5122C39.6604 29.047 45.9503 29.4985 50.4892 28.7774C51.8118 28.5812 53.0436 29.4957 53.2393 30.8189C53.435 32.142 52.521 33.3733 51.1978 33.5689C45.3999 34.4651 37.7118 33.8276 32.9694 31.4979V35.4113C32.9694 35.6357 33.6366 36.506 35.7847 37.3235C39.4514 38.7901 46.0115 39.1521 50.5536 38.4645C51.8766 38.2783 53.1028 39.2009 53.2891 40.5255C53.4754 41.85 52.5526 43.0747 51.2281 43.2609C45.8736 44.0662 38.485 43.6062 34.0618 41.8505C33.6722 41.7023 33.3105 41.548 32.9694 41.39V45.0987C32.9694 45.3231 33.6366 46.1934 35.7847 47.0109C39.4514 48.4775 46.0115 48.8395 50.5536 48.1519C51.8766 47.9658 53.1028 48.8883 53.2891 50.2129C53.4754 51.5374 52.5526 52.7621 51.2281 52.9483C45.8736 53.7536 38.485 53.2936 34.0618 51.5379C33.6722 51.3897 33.3105 51.2354 32.9694 51.0774V54.4698C34.3949 57.1529 41.5717 58.2177 45.5629 58.1768Z" fill="#43B02A"/>
<path d="M36.1164 17C37.4542 17 38.5385 15.9155 38.538 14.5777C38.5373 12.8305 38.5367 10.9518 38.5367 9.49218C38.6773 3.12328 26.4005 0.839144 19.769 1.01412C13.1504 0.834179 0.845504 3.13212 1.00147 9.49242V48.1629C1.00147 50.0871 2.10473 52.7945 7.36092 54.7658C12.3724 56.7143 19.2327 57.2913 25.1184 56.3581C26.2245 56.1828 27 55.2039 27 54.084C27 52.5214 25.5224 51.3727 23.9743 51.5857C19.1041 52.2558 13.4823 51.8408 9.40082 50.3537C6.63256 49.3813 5.8818 48.355 5.8451 48.1629V44.6904C6.3176 44.9086 6.83139 45.12 7.39531 45.3219C10.8845 46.5941 16.0129 47.2677 20.7984 47.1449C24.005 46.9463 23.889 42.3458 20.6803 42.3027C16.0638 42.4115 8.0245 41.6349 5.8451 38.7993V35.0013C6.31748 35.2195 6.83103 35.4311 7.39483 35.6329C10.9109 36.9178 16.1241 37.5935 20.9272 37.4541C24.1329 37.246 24.0026 32.6433 20.7935 32.6124C16.7766 32.7272 12.3789 32.2065 9.43727 31.2137C6.66089 30.2964 5.90274 29.3295 5.8451 29.109V25.2658C6.32317 25.4825 6.84338 25.6917 7.41505 25.8908C10.894 27.1293 16.1172 27.7792 20.9203 27.6476C22.2575 27.6145 23.3145 26.5036 23.2815 25.1666C23.2502 23.8285 22.1307 22.7703 20.8004 22.8055C16.1487 22.9118 8.09836 22.2182 5.8451 19.417V15.4084C6.31021 15.6283 6.81516 15.8422 7.36879 16.0476C12.4999 17.9769 20.1752 18.4615 26.309 17.4629C27.6314 17.2626 28.541 16.0281 28.3406 14.7056C28.1402 13.3832 26.9058 12.4732 25.5833 12.674C20.3806 13.5204 13.8759 13.174 9.48267 11.6591C6.74796 10.7251 5.94258 9.74841 5.84971 9.4923C7.99628 6.7456 15.2121 5.86296 19.7691 5.85751C24.2904 5.85255 31.6285 6.76788 33.6932 9.50647C33.6932 11.1294 33.6939 12.9732 33.6947 14.5797C33.6952 15.9168 34.7793 17 36.1164 17Z" fill="#868686"/>
</svg>
