<svg width="64" height="64" viewBox="0 0 64 64" fill="none" xmlns="http://www.w3.org/2000/svg">
<path fill-rule="evenodd" clip-rule="evenodd" d="M13.6001 5L13.5037 5H13.5037C11.9056 4.99997 10.5628 4.99994 9.46388 5.08972C8.31495 5.18359 7.22304 5.38745 6.18658 5.91555C4.60602 6.72089 3.32098 8.00592 2.51565 9.58648C1.98755 10.6229 1.78369 11.7148 1.68982 12.8638C1.60004 13.9627 1.60006 15.3055 1.6001 16.9036V16.9036L1.6001 17V36.8L1.6001 36.8964V36.8964C1.60006 38.4945 1.60004 39.8373 1.68982 40.9362C1.78369 42.0852 1.98755 43.1771 2.51565 44.2135C3.32098 45.7941 4.60602 47.0791 6.18658 47.8845C7.22304 48.4126 8.31495 48.6164 9.46388 48.7103C10.5628 48.8001 11.9057 48.8 13.5038 48.8H13.6001H29.6001V54H21.0001C19.6746 54 18.6001 55.0745 18.6001 56.4C18.6001 57.7255 19.6746 58.8 21.0001 58.8H32.0001H43.0001C44.3256 58.8 45.4001 57.7255 45.4001 56.4C45.4001 55.0745 44.3256 54 43.0001 54H34.4001V48.8H52.0001L52.303 48.8001C53.8637 48.8013 55.0978 48.8022 56.1742 48.5138C59.073 47.7371 61.3372 45.4729 62.1139 42.5741C62.4023 41.4977 62.4014 40.2636 62.4002 38.7029L62.4001 38.4V37.9C62.4001 36.5745 61.3256 35.5 60.0001 35.5C58.6746 35.5 57.6001 36.5745 57.6001 37.9V38.4C57.6001 40.4145 57.5795 40.9509 57.4774 41.3317C57.1446 42.5741 56.1742 43.5445 54.9318 43.8773C54.551 43.9794 54.0146 44 52.0001 44H13.6001C11.8803 44 10.7349 43.9981 9.85475 43.9262C9.00266 43.8566 8.61275 43.7335 8.36574 43.6076C7.68835 43.2625 7.13762 42.7118 6.79248 42.0344C6.66662 41.7874 6.5435 41.3974 6.47388 40.5454C6.40197 39.6652 6.4001 38.5198 6.4001 36.8V17C6.4001 15.2802 6.40197 14.1348 6.47388 13.2547C6.5435 12.4026 6.66662 12.0127 6.79248 11.7656C7.13762 11.0883 7.68835 10.5375 8.36574 10.1924C8.61275 10.0665 9.00266 9.9434 9.85475 9.87378C10.7349 9.80187 11.8803 9.8 13.6001 9.8H50.4001C52.1199 9.8 53.2653 9.80187 54.1455 9.87378C54.9975 9.9434 55.3875 10.0665 55.6345 10.1924C56.3118 10.5375 56.8626 11.0883 57.2077 11.7656C57.3336 12.0127 57.4567 12.4026 57.5263 13.2547C57.5982 14.1348 57.6001 15.2802 57.6001 17V26.9C57.6001 28.2255 58.6746 29.3 60.0001 29.3C61.3256 29.3 62.4001 28.2255 62.4001 26.9V17V16.9037C62.4001 15.3056 62.4002 13.9627 62.3104 12.8638C62.2165 11.7148 62.0127 10.6229 61.4846 9.58648C60.6792 8.00592 59.3942 6.72089 57.8136 5.91555C56.7772 5.38745 55.6853 5.18359 54.5363 5.08972C53.4374 4.99994 52.0946 4.99997 50.4965 5H50.4965L50.4001 5H13.6001Z" fill="#868686"/>
<path d="M32.0006 16.9397L40.216 20.6071V27.1522C40.216 29.3873 39.3142 31.6917 37.7414 33.4669C36.1687 35.2421 34.1833 36.2216 32.1465 36.2216H31.8535C29.8203 36.2216 27.8301 35.2432 26.2586 33.4669C24.687 31.6905 23.784 29.3873 23.784 27.1522V20.6071L32.0006 16.9397ZM32.2003 12C32.1334 12 32.0664 12 32.0006 12.0096C31.9348 12.0191 31.8678 12 31.8009 12C31.4966 12.0002 31.1959 12.0645 30.9182 12.1887L20.2833 16.9361C19.9011 17.1063 19.5764 17.3835 19.3487 17.7342C19.1209 18.0848 18.9998 18.4939 19 18.9119V27.1546C19 30.5389 20.3395 33.9937 22.6729 36.6326C25.1654 39.447 28.4233 41 31.8535 41H32.1465C35.5743 41 38.8346 39.447 41.3271 36.6302C43.6617 33.9913 45 30.5377 45 27.1522V18.9095C45.0001 18.4917 44.8792 18.0828 44.6516 17.7321C44.4241 17.3815 44.0998 17.1042 43.7179 16.9337L33.0878 12.1887C32.8101 12.0645 32.5093 12.0002 32.2051 12H32.2003Z" fill="#43B02A"/>
</svg>
