<svg width="64" height="64" viewBox="0 0 64 64" fill="none" xmlns="http://www.w3.org/2000/svg">
<path d="M58.1562 32C58.1562 33.7213 59.3776 35.2184 61.0601 35.56C62.1888 35.7889 63 36.7813 63 37.9331V44.1094C63 47.824 60.8326 51.2577 57.4789 52.857C56.2713 53.4326 54.8257 52.9208 54.25 51.7137C53.6744 50.5061 54.1866 49.061 55.3938 48.4853C57.0721 47.685 58.1562 45.9674 58.1562 44.1094V39.6592C55.2614 38.2803 53.3125 35.3183 53.3125 32C53.3125 28.6817 55.2614 25.7197 58.1562 24.3408V19.8906C58.1562 17.2199 55.9832 15.0469 53.3125 15.0469H45.8047C45.8047 16.3846 44.7205 17.4688 43.3828 17.4688C42.0451 17.4688 40.9609 16.3846 40.9609 15.0469H10.6875C8.01682 15.0469 5.84375 17.2199 5.84375 19.8906V24.3408C8.73865 25.7197 10.6875 28.6817 10.6875 32C10.6875 35.3183 8.73865 38.2803 5.84375 39.6592V44.1094C5.84375 46.7801 8.01682 48.9531 10.6875 48.9531H40.9609C40.9609 47.6154 42.0451 46.5312 43.3828 46.5312C44.7205 46.5312 45.8047 47.6154 45.8047 48.9531V51.375C45.8047 52.7127 44.7205 53.7969 43.3828 53.7969H10.6875C5.34566 53.7969 1 49.4512 1 44.1094V37.9331C1 36.7813 1.81123 35.7889 2.93987 35.56C4.62241 35.2184 5.84375 33.7213 5.84375 32C5.84375 30.2787 4.62241 28.7816 2.93987 28.44C1.81123 28.2111 1 27.2187 1 26.0669V19.8906C1 14.5488 5.34566 10.2031 10.6875 10.2031H53.3125C58.6543 10.2031 63 14.5488 63 19.8906V26.0669C63 27.2187 62.1888 28.2111 61.0601 28.44C59.3776 28.7816 58.1562 30.2787 58.1562 32ZM43.3828 21.1016C42.0451 21.1016 40.9609 22.1857 40.9609 23.5234C40.9609 24.8611 42.0451 25.9453 43.3828 25.9453C44.7205 25.9453 45.8047 24.8611 45.8047 23.5234C45.8047 22.1857 44.7205 21.1016 43.3828 21.1016ZM43.3828 29.5781C42.0451 29.5781 40.9609 30.6623 40.9609 32C40.9609 33.3377 42.0451 34.4219 43.3828 34.4219C44.7205 34.4219 45.8047 33.3377 45.8047 32C45.8047 30.6623 44.7205 29.5781 43.3828 29.5781ZM43.3828 38.0547C42.0451 38.0547 40.9609 39.1389 40.9609 40.4766C40.9609 41.8143 42.0451 42.8984 43.3828 42.8984C44.7205 42.8984 45.8047 41.8143 45.8047 40.4766C45.8047 39.1389 44.7205 38.0547 43.3828 38.0547Z" fill="#868686"/>
<path d="M18.1953 21.1017C20.2014 21.1017 21.8281 22.7279 21.8281 24.7345C21.8281 26.741 20.2014 28.3673 18.1953 28.3673C16.1892 28.3673 14.5625 26.741 14.5625 24.7345C14.5625 22.7279 16.1892 21.1017 18.1953 21.1017Z" fill="#43B02A"/>
<path d="M35.3906 39.2657C35.3906 41.2723 33.7639 42.8985 31.7578 42.8985C29.7517 42.8985 28.125 41.2723 28.125 39.2657C28.125 37.2592 29.7517 35.6329 31.7578 35.6329C33.7639 35.6329 35.3906 37.2592 35.3906 39.2657Z" fill="#43B02A"/>
<path d="M18.1939 42.8985C17.6632 42.8985 17.1291 42.7249 16.6826 42.3678C15.6382 41.5324 15.4683 40.0084 16.3042 38.9639L29.8667 22.0108C30.702 20.9664 32.2261 20.7966 33.2705 21.6324C34.315 22.4677 34.4843 23.9918 33.649 25.0363L20.0865 41.9894C19.6082 42.5878 18.9044 42.8985 18.1939 42.8985Z" fill="#43B02A"/>
</svg>
