<svg width="64" height="64" viewBox="0 0 64 64" fill="none" xmlns="http://www.w3.org/2000/svg">
<path fill-rule="evenodd" clip-rule="evenodd" d="M32.0001 13.2667C31.452 13.2667 30.9263 13.0489 30.5387 12.6614C30.1511 12.2738 29.9334 11.7481 29.9334 11.2V7.06667C29.9334 6.51855 30.1511 5.99289 30.5387 5.60531C30.9263 5.21774 31.452 5 32.0001 5C32.5482 5 33.0739 5.21774 33.4614 5.60531C33.849 5.99289 34.0667 6.51855 34.0667 7.06667V11.2C34.0667 11.7481 33.849 12.2738 33.4614 12.6614C33.0739 13.0489 32.5482 13.2667 32.0001 13.2667ZM23.7333 15.3333C22.8348 15.3333 22.4786 14.9718 21.1933 13.6668L21.1932 13.6668C20.9116 13.3809 20.5855 13.0498 20.1993 12.6673C19.8101 12.2782 19.5915 11.7504 19.5915 11.2C19.5915 10.6496 19.8101 10.1218 20.1993 9.73267C20.5884 9.34351 21.1163 9.12488 21.6666 9.12488C22.217 9.12488 22.7448 9.34351 23.1339 9.73267L25.2006 11.7993C25.4921 12.0884 25.6909 12.4577 25.7716 12.8602C25.8523 13.2627 25.8114 13.6801 25.654 14.0592C25.4966 14.4383 25.2298 14.762 24.8877 14.9889C24.5457 15.2158 24.1438 15.3357 23.7333 15.3333ZM39.1123 14.9889C39.4543 15.2158 39.8562 15.3357 40.2667 15.3333C41.1737 15.3333 41.5066 14.9948 42.9053 13.5723C43.1639 13.3092 43.4589 13.0092 43.8007 12.6673C44.1899 12.2782 44.4085 11.7504 44.4085 11.2C44.4085 10.6496 44.1899 10.1218 43.8007 9.73267C43.4116 9.34351 42.8838 9.12488 42.3334 9.12488C41.7831 9.12488 41.2552 9.34351 40.8661 9.73267L38.7994 11.7993C38.5079 12.0884 38.3092 12.4577 38.2284 12.8602C38.1477 13.2627 38.1886 13.6801 38.346 14.0592C38.5034 14.4383 38.7702 14.762 39.1123 14.9889Z" fill="#43B02A"/>
<path d="M34.48 36.4547C37.5593 37.984 37.8487 38.294 38.8613 37.9634L44.7307 36H60.9333C61.4814 36 62.0071 35.7823 62.3947 35.3947C62.7823 35.0071 63 34.4815 63 33.9334C63 33.3852 62.7823 32.8596 62.3947 32.472C62.0071 32.0844 61.4814 31.8667 60.9333 31.8667H47.9547L53.266 22.5667C53.4481 22.2513 53.7103 21.9896 54.026 21.8082C54.3417 21.6267 54.6998 21.5319 55.064 21.5334H60.9333C61.4814 21.5334 62.0071 21.3156 62.3947 20.928C62.7823 20.5405 63 20.0148 63 19.4667C63 18.9186 62.7823 18.3929 62.3947 18.0053C62.0071 17.6178 61.4814 17.4 60.9333 17.4H55.064C53.973 17.4014 52.9016 17.6907 51.9582 18.2386C51.0147 18.7865 50.2325 19.5737 49.6907 20.5207L42.9947 32.218L38.3653 33.768L34.9967 32.094C34.6089 31.8954 34.1682 31.8244 33.7377 31.8912C33.3071 31.9581 32.9087 32.1592 32.5993 32.466L31.5867 33.4787L28.7967 32.094C28.4089 31.8954 27.9682 31.8244 27.5377 31.8912C27.1071 31.9581 26.7087 32.1592 26.3993 32.466L25.242 33.644L23.4233 33.024L31.4007 25.0674C31.7898 24.6782 32.0085 24.1504 32.0085 23.6C32.0085 23.0497 31.7898 22.5219 31.4007 22.1327C31.0115 21.7435 30.4837 21.5249 29.9333 21.5249C29.383 21.5249 28.8552 21.7435 28.466 22.1327L20.0547 30.5647L14.3093 20.5207C13.7675 19.5737 12.9853 18.7865 12.0418 18.2386C11.0984 17.6907 10.027 17.4014 8.936 17.4H3.06667C2.51855 17.4 1.99289 17.6178 1.60531 18.0053C1.21774 18.3929 1 18.9186 1 19.4667C1 20.0148 1.21774 20.5405 1.60531 20.928C1.99289 21.3156 2.51855 21.5334 3.06667 21.5334H8.936C9.30017 21.5319 9.65825 21.6267 9.97399 21.8082C10.2897 21.9896 10.5519 22.2513 10.734 22.5667L16.0453 31.8667H3.06667C2.51855 31.8667 1.99289 32.0844 1.60531 32.472C1.21774 32.8596 1 33.3852 1 33.9334C1 34.4815 1.21774 35.0071 1.60531 35.3947C1.99289 35.7823 2.51855 36 3.06667 36H19.2693L25.1387 37.9634C25.4958 38.0756 25.8767 38.0887 26.2406 38.0014C26.6046 37.914 26.9381 37.7294 27.2053 37.4674L28.218 36.4547L29.8713 37.2814V40.1334H27.8667C27.3186 40.1334 26.7929 40.3511 26.4053 40.7387C26.0177 41.1262 25.8 41.6519 25.8 42.2C25.8 42.7481 26.0177 43.2738 26.4053 43.6614C26.7929 44.049 27.3186 44.2667 27.8667 44.2667H29.9333V47.1187C27.598 45.9614 28.5073 46.0027 23.2373 47.7594C22.6393 46.1083 21.531 44.6905 20.0731 43.7116C18.6152 42.7327 16.8834 42.2435 15.1288 42.3149C13.3742 42.3862 11.6879 43.0145 10.3143 44.1086C8.94076 45.2027 7.95129 46.7058 7.48933 48.4H3.06667C2.51855 48.4 1.99289 48.6178 1.60531 49.0053C1.21774 49.3929 1 49.9186 1 50.4667C1 51.0148 1.21774 51.5405 1.60531 51.9281C1.99289 52.3156 2.51855 52.5334 3.06667 52.5334H7.48933C7.9767 54.3291 9.05565 55.9079 10.5516 57.0144C12.0476 58.1208 13.8731 58.6903 15.7329 58.6305C17.5926 58.5707 19.3778 57.8853 20.7997 56.6851C22.2216 55.4848 23.1969 53.84 23.568 52.0167L27.7013 50.632C31.2147 52.3887 31.4833 52.6987 32.4133 52.4714C34.3172 51.9545 36.1935 51.3406 38.0347 50.632L40.4113 51.81C40.7471 53.6512 41.6976 55.3239 43.1075 56.5546C44.5174 57.7854 46.3032 58.5013 48.1728 58.5853C50.0425 58.6693 51.8853 58.1164 53.3998 57.0171C54.9144 55.9177 56.0112 54.337 56.5107 52.5334H60.9333C61.4814 52.5334 62.0071 52.3156 62.3947 51.9281C62.7823 51.5405 63 51.0148 63 50.4667C63 49.9186 62.7823 49.3929 62.3947 49.0053C62.0071 48.6178 61.4814 48.4 60.9333 48.4H56.5107C56.0625 46.7267 55.1 45.2364 53.7591 44.1397C52.4182 43.0429 50.7666 42.3951 49.0377 42.2878C47.3087 42.1804 45.5897 42.619 44.1234 43.5414C42.6571 44.4639 41.5177 45.8236 40.866 47.4287C37.8693 45.92 38.9233 45.982 34.0667 47.594V44.2667H36.1333C36.6814 44.2667 37.2071 44.049 37.5947 43.6614C37.9823 43.2738 38.2 42.7481 38.2 42.2C38.2 41.6519 37.9823 41.1262 37.5947 40.7387C37.2071 40.3511 36.6814 40.1334 36.1333 40.1334H34.0667V36.8474L34.48 36.4547ZM15.4667 54.6C14.6492 54.6 13.85 54.3576 13.1703 53.9034C12.4906 53.4493 11.9608 52.8037 11.648 52.0485C11.3351 51.2932 11.2533 50.4621 11.4128 49.6603C11.5722 48.8585 11.9659 48.122 12.544 47.544C13.122 46.9659 13.8585 46.5723 14.6603 46.4128C15.4621 46.2533 16.2932 46.3351 17.0484 46.648C17.8037 46.9608 18.4492 47.4906 18.9034 48.1703C19.3576 48.8501 19.6 49.6492 19.6 50.4667C19.6 51.5629 19.1645 52.6143 18.3894 53.3894C17.6142 54.1646 16.5629 54.6 15.4667 54.6ZM48.5333 46.3334C49.3508 46.3334 50.15 46.5758 50.8297 47.03C51.5094 47.4841 52.0392 48.1297 52.352 48.8849C52.6649 49.6402 52.7467 50.4713 52.5872 51.2731C52.4278 52.0749 52.0341 52.8113 51.456 53.3894C50.878 53.9675 50.1415 54.3611 49.3397 54.5206C48.5379 54.6801 47.7068 54.5982 46.9516 54.2854C46.1963 53.9726 45.5508 53.4428 45.0966 52.7631C44.6424 52.0833 44.4 51.2842 44.4 50.4667C44.4 49.3705 44.8355 48.3191 45.6106 47.544C46.3858 46.7688 47.4371 46.3334 48.5333 46.3334Z" fill="#868686"/>
</svg>
