<svg width="64" height="64" viewBox="0 0 64 64" fill="none" xmlns="http://www.w3.org/2000/svg">
<path d="M50.2855 40.2383C50.1366 40.2383 49.9879 40.252 49.8415 40.2793L48.724 40.4877C44.8719 41.2061 40.9319 41.5703 37.0134 41.5703H32.6058H31.6371H27.2296C23.3111 41.5703 19.3712 41.2062 15.5195 40.4879L14.4014 40.2793C14.255 40.252 14.1063 40.2383 13.9575 40.2383C10.9528 40.2383 8.50826 42.6828 8.50826 45.6875C8.50826 48.5601 9.44528 51.726 11.0148 54.1561C13.0356 57.2848 15.9299 59.0078 19.1645 59.0078C22.0484 59.0078 24.4362 57.9743 26.2618 55.9362C27.7242 54.3036 28.6131 52.2776 29.3976 50.4901C30.5782 47.7999 31.2021 46.7138 32.1419 46.4701C33.1717 46.7168 33.8227 47.8255 35.035 50.5779C35.8156 52.3503 36.7005 54.3592 38.1531 55.9737C39.9644 57.987 42.3353 59.0078 45.1997 59.0078C52.4773 59.0078 55.7349 52.9867 55.7349 47.0195V45.6875C55.7349 42.6828 53.2905 40.2383 50.2855 40.2383ZM24.9621 48.5436C23.3868 52.1332 22.3409 54.1641 19.1645 54.1641C15.5633 54.1641 13.352 49.227 13.352 45.6875C13.352 45.4012 13.5517 45.1607 13.8191 45.098L14.6315 45.2495C18.356 45.9441 22.1575 46.3309 25.9495 46.4021C25.5945 47.1027 25.2759 47.8289 24.9621 48.5436ZM50.8911 47.0195C50.8911 48.6956 50.4806 54.1641 45.1997 54.1641C42.0601 54.1641 41.0257 52.1628 39.4678 48.6255C39.1405 47.8823 38.8079 47.1269 38.4336 46.3993C42.1793 46.3213 45.9332 45.9355 49.6122 45.2494L50.424 45.098C50.6914 45.1607 50.8911 45.4012 50.8911 45.6875V47.0195Z" fill="#FE7333"/>
<path d="M62.9224 31.1566C62.5884 29.8625 61.2684 29.0841 59.9732 29.4168C59.8773 29.4415 50.178 31.8828 32.6059 31.8828C25.1314 31.8828 18.866 31.4411 14.1194 30.9304C14.5529 29.035 15.6339 24.6118 17.206 20.2277C20.1453 12.0308 22.7126 9.84376 23.7661 9.84376C24.1816 9.84376 25.146 10.0118 26.9367 11.1375C30.058 13.0996 34.1121 13.1139 37.2649 11.174C39.366 9.88105 40.2609 9.84376 40.356 9.84376C41.5818 9.84376 44.5156 12.5728 47.7358 22.8015C48.1373 24.0772 49.4972 24.7858 50.7732 24.3843C52.049 23.9827 52.7575 22.6228 52.356 21.3469C51.0112 17.0758 49.5712 13.5998 48.0753 11.0158C45.7647 7.02396 43.1675 5 40.356 5C38.8083 5 36.9668 5.67013 34.7265 7.04867C33.1323 8.02928 31.0865 8.0248 29.5145 7.03668C27.3344 5.66614 25.454 5 23.7661 5C21.2452 5 18.8913 6.62569 16.7703 9.83189C15.3475 11.9824 13.9602 14.9298 12.6466 18.5927C10.8301 23.6584 9.66059 28.6504 9.2898 30.3252C5.88004 29.8328 4.00999 29.4118 3.96555 29.4016C2.66294 29.1012 1.363 29.9143 1.06257 31.2172C0.761647 32.5205 1.57443 33.8208 2.87776 34.1216C3.33877 34.2279 14.3756 36.7266 32.6059 36.7266C50.869 36.7266 60.7738 34.2132 61.1865 34.1061C62.4803 33.7707 63.2565 32.4508 62.9224 31.1566Z" fill="#868686"/>
</svg>
