<svg width="64" height="64" viewBox="0 0 64 64" fill="none" xmlns="http://www.w3.org/2000/svg">
<path d="M32 53C33.3315 53 34.4109 51.9227 34.4109 50.5938V49.3033C37.3625 47.1896 45 40.9708 45 33.2192C45 23.8156 33.76 16.6678 33.2815 16.3681C32.498 15.8773 31.502 15.8773 30.7185 16.3681C30.2401 16.6678 19 23.8156 19 33.2192C19 40.9708 26.6375 47.1896 29.5891 49.3033V50.5938C29.5891 51.9227 30.6685 53 32 53ZM23.8218 33.2192C23.8218 28.3932 28.909 23.6159 31.9926 21.3331C32.923 22.0233 34.2489 23.0885 35.5774 24.4339C37.6762 26.5592 40.1781 29.8085 40.1781 33.2191C40.1781 36.9154 37.1935 40.5834 34.4108 43.1238V38.6197L37.3249 35.7111C38.2664 34.7714 38.2664 33.2479 37.3249 32.3082C36.535 31.5198 35.3333 31.3929 34.4108 31.9275V30.2699C34.4108 28.941 33.3314 27.8637 31.9999 27.8637C30.6683 27.8637 29.589 28.941 29.589 30.2699V43.1236C26.8057 40.5828 23.8218 36.9152 23.8218 33.2192Z" fill="#43B02A"/>
<path d="M58.9549 19.1011L56.3091 17.2737V10.9156C56.3091 9.57804 55.2304 8.49377 53.8997 8.49377C52.5691 8.49377 51.4904 9.57804 51.4904 10.9156V13.9454L33.3644 1.42577C32.5426 0.858078 31.4574 0.858078 30.6356 1.42577L5.04513 19.1011C3.94839 19.8585 3.67023 21.3664 4.42388 22.4687C5.15861 23.5437 6.60289 23.8362 7.69095 23.1482V53.4238C7.69095 58.7041 11.9886 63 17.271 63H46.7289C52.0078 63 56.3055 58.707 56.3088 53.4301C56.3097 52.0925 55.2318 51.0075 53.9011 51.0066H53.8995C52.5695 51.0066 51.491 52.0899 51.4902 53.4269C51.4885 56.0346 49.3527 58.1562 46.7289 58.1562H17.271C14.6455 58.1562 12.5096 56.0332 12.5096 53.4238V19.8223L32 6.36034L51.4904 19.8223V41.319C51.4904 42.6566 52.5691 43.7409 53.8997 43.7409C55.2304 43.7409 56.3091 42.6566 56.3091 41.319V23.1482C56.7054 23.3987 57.149 23.5193 57.5883 23.5193C58.3551 23.5193 59.1091 23.1522 59.5762 22.4687C60.3298 21.3664 60.0515 19.8585 58.9549 19.1011Z" fill="#868686"/>
</svg>
