<svg width="64" height="64" viewBox="0 0 64 64" fill="none" xmlns="http://www.w3.org/2000/svg">
<path d="M62.2852 32.7824C61.8126 33.2516 61.1954 33.4862 60.5781 33.4862C59.9556 33.4862 59.3335 33.2478 58.86 32.7715L56.9453 30.8439V39.662C56.9453 40.9997 55.8611 42.0839 54.5234 42.0839C53.1857 42.0839 52.1015 40.9997 52.1015 39.662V25.9685L33.6825 7.42794C32.7786 6.6536 31.4475 6.65076 30.5403 7.42132L11.8952 26.0295C11.8956 26.0532 11.8985 26.0759 11.8985 26.0995V51.7713C11.8985 54.442 14.0715 56.6151 16.7422 56.6151H47.2578C49.9285 56.6151 52.1015 54.442 52.1015 51.7713C52.1015 50.4336 53.1857 49.3495 54.5234 49.3495C55.8611 49.3495 56.9453 50.4336 56.9453 51.7713C56.9453 57.1132 52.5996 61.4588 47.2578 61.4588H16.7422C11.4004 61.4588 7.05474 57.1132 7.05474 51.7713V30.8605L5.13285 32.7786C4.18633 33.7237 2.6528 33.7223 1.7077 32.7753C0.762604 31.8287 0.764496 30.2952 1.71101 29.3501L27.1756 3.93562C27.2083 3.90345 27.2419 3.87176 27.2759 3.84102C30.0422 1.37847 34.2062 1.38745 36.9615 3.86136C36.9956 3.8921 37.0292 3.92379 37.0613 3.95643L62.2961 29.3577C63.2388 30.3066 63.2341 31.8401 62.2852 32.7824Z" fill="#868686"/>
<path fill-rule="evenodd" clip-rule="evenodd" d="M39.2418 27.3901C38.4637 27.5153 35.4638 28.6083 32.5756 29.8188L27.3244 32.0203L27.6277 29.9842C27.6277 29.9842 27.7581 29.3369 27.6443 28.5409C27.3928 26.782 24.5861 24.8638 24.5861 24.8638C24.5861 24.8638 19.7686 21.1182 18.5446 22.4702C17.3511 23.789 17.6506 24.7233 20.0982 27.3144L22.5085 29.8659L21.8171 33.0054C20.4839 39.0601 21.9582 39.717 29.6459 36.494C32.5162 35.2907 34.8695 34.5411 34.8763 34.828C34.8828 35.1147 33.7946 38.1953 32.4581 41.6737C29.736 48.7597 29.5427 50.0071 31.004 51.0697C32.0714 51.8462 33.2161 51.5443 39.0884 48.9391L42.1037 47.6014L44.5813 49.8855C47.2063 52.3055 48.6217 52.7204 49.8198 51.4209C51.1334 49.996 50.5401 48.7909 46.8499 45.3889C42.9456 41.7895 42.9481 41.7905 39.1233 43.3866L36.8312 44.3429L39.5212 37.2925C41.0004 33.4147 42.2307 29.8899 42.255 29.4591C42.3248 28.2057 40.7774 27.1429 39.2418 27.3901Z" fill="#EB5757"/>
</svg>
