<svg width="64" height="64" viewBox="0 0 64 64" fill="none" xmlns="http://www.w3.org/2000/svg">
<path d="M17.7099 54C17.5779 54 17.4699 53.958 17.3859 53.874C17.3019 53.79 17.2599 53.682 17.2599 53.55V41.85C17.2599 41.718 17.3019 41.61 17.3859 41.526C17.4699 41.442 17.5779 41.4 17.7099 41.4H22.6059C24.1539 41.4 25.3719 41.76 26.2599 42.48C27.1599 43.188 27.6099 44.196 27.6099 45.504C27.6099 46.356 27.3999 47.076 26.9799 47.664C26.5719 48.252 26.0319 48.696 25.3599 48.996L27.8439 53.424C27.8799 53.496 27.8979 53.562 27.8979 53.622C27.8979 53.718 27.8559 53.808 27.7719 53.892C27.6999 53.964 27.6099 54 27.5019 54H25.1259C24.8979 54 24.7299 53.946 24.6219 53.838C24.5139 53.718 24.4359 53.61 24.3879 53.514L22.3359 49.554H20.4819V53.55C20.4819 53.682 20.4399 53.79 20.3559 53.874C20.2719 53.958 20.1639 54 20.0319 54H17.7099ZM20.4819 47.016H22.5699C23.1339 47.016 23.5539 46.878 23.8299 46.602C24.1179 46.326 24.2619 45.948 24.2619 45.468C24.2619 45 24.1239 44.622 23.8479 44.334C23.5839 44.046 23.1579 43.902 22.5699 43.902H20.4819V47.016ZM30.8752 54C30.7432 54 30.6352 53.958 30.5512 53.874C30.4672 53.79 30.4252 53.682 30.4252 53.55V41.85C30.4252 41.718 30.4672 41.61 30.5512 41.526C30.6352 41.442 30.7432 41.4 30.8752 41.4H33.2872C33.4192 41.4 33.5272 41.442 33.6112 41.526C33.6952 41.61 33.7372 41.718 33.7372 41.85V53.55C33.7372 53.682 33.6952 53.79 33.6112 53.874C33.5272 53.958 33.4192 54 33.2872 54H30.8752ZM37.4311 54C37.2991 54 37.1911 53.958 37.1071 53.874C37.0231 53.79 36.9811 53.682 36.9811 53.55V41.85C36.9811 41.718 37.0231 41.61 37.1071 41.526C37.1911 41.442 37.2991 41.4 37.4311 41.4H42.4711C43.4671 41.4 44.3311 41.556 45.0631 41.868C45.8071 42.168 46.3831 42.624 46.7911 43.236C47.2111 43.848 47.4211 44.622 47.4211 45.558C47.4211 46.482 47.2111 47.244 46.7911 47.844C46.3831 48.444 45.8071 48.888 45.0631 49.176C44.3311 49.464 43.4671 49.608 42.4711 49.608H40.3291V53.55C40.3291 53.682 40.2811 53.79 40.1851 53.874C40.1011 53.958 39.9931 54 39.8611 54H37.4311ZM40.2751 47.124H42.3811C42.8971 47.124 43.3051 46.992 43.6051 46.728C43.9171 46.464 44.0731 46.062 44.0731 45.522C44.0731 45.066 43.9411 44.682 43.6771 44.37C43.4131 44.058 42.9811 43.902 42.3811 43.902H40.2751V47.124Z" fill="#8B85B9"/>
<path fill-rule="evenodd" clip-rule="evenodd" d="M32 5.45966C21.4618 5.45966 14.0277 12.3281 11.5568 14.9909C11.3824 15.1787 11.25 15.479 11.25 15.8804V58.5H52.75V15.8804C52.75 15.479 52.6176 15.1787 52.4432 14.9909C49.9723 12.3281 42.5382 5.45966 32 5.45966ZM6.75 15.8804V58.5H3.25006C2.00738 58.5 1 59.5074 1 60.75C1 61.9927 2.00739 63.0001 3.25006 63.0001H8.89616C8.93058 63.0017 8.9652 63.0024 9 63.0024H55C55.0348 63.0024 55.0694 63.0017 55.1038 63.0001H60.7499C61.9926 63.0001 63 61.9927 63 60.75C63 59.5074 61.9926 58.5 60.7499 58.5H57.25V15.8804C57.25 14.493 56.7843 13.0533 55.7418 11.93C53.029 9.00646 44.4684 0.959656 32 0.959656C19.5316 0.959656 10.971 9.00646 8.25815 11.93C7.21573 13.0533 6.75 14.493 6.75 15.8804ZM17.75 24C17.75 22.7574 18.7574 21.75 20 21.75H44C45.2426 21.75 46.25 22.7574 46.25 24C46.25 25.2427 45.2426 26.25 44 26.25H20C18.7574 26.25 17.75 25.2427 17.75 24ZM25 29.75C23.7574 29.75 22.75 30.7574 22.75 32C22.75 33.2427 23.7574 34.25 25 34.25H39C40.2426 34.25 41.25 33.2427 41.25 32C41.25 30.7574 40.2426 29.75 39 29.75H25Z" fill="#868686"/>
<path fill-rule="evenodd" clip-rule="evenodd" d="M20 21.75C18.7574 21.75 17.75 22.7574 17.75 24C17.75 25.2426 18.7574 26.25 20 26.25H44C45.2426 26.25 46.25 25.2426 46.25 24C46.25 22.7574 45.2426 21.75 44 21.75H20ZM25 29.75C23.7574 29.75 22.75 30.7574 22.75 32C22.75 33.2426 23.7574 34.25 25 34.25H39C40.2426 34.25 41.25 33.2426 41.25 32C41.25 30.7574 40.2426 29.75 39 29.75H25Z" fill="#8B85B9"/>
</svg>
