<svg width="64" height="64" viewBox="0 0 64 64" fill="none" xmlns="http://www.w3.org/2000/svg">
<path fill-rule="evenodd" clip-rule="evenodd" d="M16.6286 9.41782C16.3932 10.3871 15.8425 11.2507 15.063 11.873C12.817 13.6658 11.4999 16.2302 11.4999 19C11.4999 20.0271 11.6788 21.0113 12.0104 21.9337C12.2229 22.0405 12.422 22.1831 12.5986 22.3615C13.4731 23.2444 13.4662 24.669 12.5833 25.5434C10.9519 27.1591 9.74372 29.1886 9.07861 31.4288C8.70265 32.7143 8.49994 34.0805 8.49994 35.5C8.49994 36.0878 8.53449 36.6662 8.6015 37.2331C8.68349 37.8966 8.81253 38.5635 8.99101 39.2296C10.3335 44.2397 14.4461 48.227 19.75 49.2512V41.5V33.1076L16.3208 29.2628C15.4937 28.3354 15.575 26.9131 16.5024 26.086C17.4297 25.2589 18.852 25.3401 19.6792 26.2675L19.75 26.3469V23C19.75 21.7574 20.7574 20.75 22 20.75C23.2426 20.75 24.25 21.7574 24.25 23V32.25V35.5969L25.3208 34.3963C26.148 33.4689 27.5703 33.3877 28.4976 34.2148C29.425 35.0419 29.5063 36.4642 28.6792 37.3916L24.25 42.3576V49.3976C25.5218 49.2433 26.8302 48.9232 28.1587 48.4171C29.3199 47.9747 30.6199 48.5575 31.0623 49.7187C31.5046 50.88 30.9219 52.1799 29.7607 52.6223C27.8919 53.3342 26.045 53.7582 24.25 53.9275V58H27.5C28.8807 58 30 59.1193 30 60.5C30 61.8807 28.8807 63 27.5 63H7.5C6.11929 63 5 61.8807 5 60.5C5 59.1193 6.11929 58 7.5 58H19.75V53.8569C11.6501 52.8188 5.22145 46.2494 4.15543 37.9425C3.80289 35.2746 4.03075 32.6342 4.75634 30.1765C5.42875 27.8725 6.52636 25.7575 7.95549 23.9277C7.33782 22.3949 6.99994 20.7343 6.99994 19C6.99994 14.7397 9.03887 10.9238 12.2557 8.35602C13.2789 4.1419 17.2532 1 21.9999 1C26.7467 1 30.721 4.1419 31.7442 8.35602C34.961 10.9238 36.9999 14.7397 36.9999 19C36.9999 20.7327 36.6627 22.3919 36.0461 23.9235L36.0055 23.9324C36.5923 24.5854 37.156 25.2875 37.693 26.0393C38.4153 27.0505 38.1811 28.4557 37.1699 29.178C36.1588 29.9003 34.7535 29.6661 34.0312 28.6549C32.5963 26.646 30.9732 25.1292 29.2808 24.0381C28.2364 23.3648 27.9356 21.9723 28.6089 20.9279C29.2822 19.8835 30.6747 19.5826 31.7191 20.256C31.927 20.39 32.1334 20.5285 32.3383 20.6717C32.4445 20.1299 32.4999 19.5716 32.4999 19C32.4999 16.2302 31.1829 13.6658 28.9369 11.873C28.1574 11.2507 27.6066 10.3871 27.3713 9.41782C26.8614 7.31783 24.7714 5.5 21.9999 5.5C19.2285 5.5 17.1385 7.31783 16.6286 9.41782Z" fill="#43B02A"/>
<path fill-rule="evenodd" clip-rule="evenodd" d="M58.5 58.5V42C58.5 36.201 53.799 31.5 48 31.5C42.201 31.5 37.5 36.201 37.5 42V58.5H58.5ZM48 27C39.7157 27 33 33.7157 33 42V58.5V63H37.5H58.5H63V58.5V42C63 33.7157 56.2843 27 48 27ZM40.75 43C40.75 41.7574 41.7574 40.75 43 40.75H53C54.2426 40.75 55.25 41.7574 55.25 43C55.25 44.2426 54.2426 45.25 53 45.25H43C41.7574 45.25 40.75 44.2426 40.75 43ZM43 47.75C41.7574 47.75 40.75 48.7574 40.75 50C40.75 51.2426 41.7574 52.25 43 52.25H53C54.2426 52.25 55.25 51.2426 55.25 50C55.25 48.7574 54.2426 47.75 53 47.75H43Z" fill="#868686"/>
</svg>
