<svg width="64" height="64" viewBox="0 0 64 64" fill="none" xmlns="http://www.w3.org/2000/svg">
<path d="M41.7145 51.4672C41.2521 51.024 40.6345 50.7796 39.9941 50.7864C39.3537 50.7932 38.7414 51.0506 38.2885 51.5035C37.8356 51.9564 37.5782 52.5687 37.5714 53.2091C37.5646 53.8495 37.809 54.4671 38.2522 54.9295L41.8579 58.5339C42.6596 59.3329 43.7445 59.7828 44.8764 59.7857C46.0082 59.7887 47.0954 59.3445 47.9013 58.5497L58.6017 47.96C59.0568 47.5017 59.3124 46.8823 59.313 46.2364C59.3135 45.5906 59.0589 44.9707 58.6046 44.5117C58.1502 44.0527 57.5329 43.7918 56.8871 43.7858C56.2413 43.7797 55.6193 44.029 55.1564 44.4795L44.8899 54.6415L41.7145 51.4672Z" fill="#43B02A"/>
<path d="M30.1878 51.3994H3.41083C2.07991 51.3994 1.00098 52.4783 1.00098 53.8093V53.8506C1.00098 55.1815 2.07991 56.2604 3.41083 56.2604H30.1878C31.5187 56.2604 32.5977 55.1815 32.5977 53.8506V53.8093C32.5977 52.4783 31.5187 51.3994 30.1878 51.3994Z" fill="#868686"/>
<path d="M59.3681 6.51533C58.3218 5.86517 56.1441 4.5138 53.1533 4.11398C49.4771 3.62788 45.8046 4.69731 42.2391 7.3089C40.2254 8.783 38.3296 10.1878 36.6926 11.4092C33.883 10.8793 26.0859 9.48664 19.0337 8.94828C12.6002 8.46217 10.9912 11.9864 10.5986 13.531C9.83544 16.5242 11.4493 20.4045 13.9102 21.514C14.9286 21.9722 16.9277 22.9323 18.7348 23.8097L13.9321 27.1528C12.8383 27.3716 9.9035 27.9355 5.64038 28.6112C3.12844 29.011 1.41735 30.6929 1.06371 33.1076C0.699138 35.6171 1.93384 38.315 3.87947 39.2507C5.5225 40.0419 12.8359 43.8687 12.91 43.9027C13.4072 44.1616 13.9784 44.2415 14.5276 44.1288L24.0066 42.1661C24.3212 42.1037 24.6204 41.9795 24.8869 41.8009C25.1533 41.6222 25.3818 41.3926 25.559 41.1252C25.7363 40.8578 25.8589 40.558 25.9197 40.243C25.9806 39.928 25.9784 39.6041 25.9135 39.29C25.8485 38.9758 25.722 38.6776 25.5412 38.4126C25.3604 38.1476 25.129 37.9209 24.8602 37.7458C24.5914 37.5707 24.2906 37.4505 23.9752 37.3921C23.6597 37.3338 23.3358 37.3385 23.0222 37.406L14.3866 39.1924C12.492 38.2044 7.68808 35.7034 6.12283 34.939C5.95634 34.7045 5.76798 34.0786 5.9053 33.6727C5.93082 33.5961 5.96971 33.4819 6.40477 33.4126C11.995 32.5219 15.2676 31.8328 15.4038 31.8109C15.7235 31.7441 16.0264 31.6135 16.2945 31.4269L24.9071 25.4308C25.2534 25.1893 25.5309 24.8617 25.7121 24.4803C25.8933 24.0989 25.972 23.6769 25.9405 23.2558C25.909 22.8347 25.7683 22.4291 25.5323 22.0789C25.2963 21.7288 24.9732 21.4461 24.5947 21.2588C24.3347 21.13 18.2633 18.1466 15.9968 17.1209C15.5897 16.749 15.0453 15.3891 15.3527 14.6041C15.5958 13.9673 16.8718 13.6574 18.6667 13.7947C23.0417 14.1301 27.8261 14.8253 31.3807 15.411L31.0818 15.6383C30.5695 16.0297 30.2337 16.6086 30.1482 17.2477C30.0627 17.8867 30.2346 18.5336 30.6261 19.0459C31.0175 19.5582 31.5964 19.894 32.2355 19.9795C32.8745 20.0649 33.5214 19.893 34.0337 19.5016C34.0823 19.4639 39.0539 15.6674 45.1144 11.2305C50.9112 6.98685 55.043 9.54983 56.8149 10.6496C57.7336 11.2196 58.1432 11.8795 58.1419 12.7885C58.1372 13.1558 58.0795 13.5205 57.9706 13.8713L32.3287 30.8168C31.7907 31.1722 31.416 31.7267 31.2869 32.3583C31.1578 32.99 31.2849 33.647 31.6402 34.1849C31.9955 34.7229 32.55 35.0976 33.1817 35.2267C33.8133 35.3558 34.4704 35.2287 35.0083 34.8734L61.2858 17.5073C61.6284 17.2811 61.9081 16.9717 62.0988 16.6081C62.6365 15.5074 62.9414 14.3076 62.9945 13.0838C63.0965 10.3616 61.8108 8.02833 59.3681 6.51533Z" fill="#868686"/>
</svg>
