<svg width="64" height="64" viewBox="0 0 64 64" fill="none" xmlns="http://www.w3.org/2000/svg">
<path d="M49.8003 40.6147V44.9814C49.8003 46.3613 48.6821 47.48 47.3022 47.4805L42.1836 47.4834C41.5161 47.4839 40.8882 47.7441 40.4165 48.2168C39.9448 48.6895 39.6851 49.3174 39.6855 49.9849L39.6924 58.8633L44.4248 58.8604H44.4268C45.8062 58.8604 46.9248 59.978 46.9258 61.3579C46.9268 62.7388 45.8086 63.8584 44.4282 63.8589L19.8096 63.875H19.8076C18.4282 63.875 17.3096 62.7573 17.3081 61.3774C17.3076 59.9971 18.4258 58.877 19.8062 58.8765L24.4312 58.8731L24.4282 49.981C24.4277 48.6904 23.4434 47.625 22.186 47.4961L16.9336 47.4966C16.271 47.4966 15.6353 47.2334 15.166 46.7647C14.6973 46.2959 14.4341 45.6602 14.4341 44.9971V40.6147C14.4341 38.3677 15.4292 36.3496 17.0005 34.9741C16.791 33.9556 16.6836 32.9155 16.6836 31.8672C16.6836 23.3916 23.5791 16.4961 32.0547 16.4961C40.5303 16.4961 47.4258 23.3916 47.4258 31.8672C47.4258 32.8833 47.3247 33.8931 47.1279 34.8823C48.7603 36.2588 49.8003 38.3174 49.8003 40.6147ZM21.7588 33.1211C21.8164 33.1201 21.874 33.1167 21.9321 33.1167H42.3022C42.3184 33.1167 42.3345 33.1177 42.3511 33.1182C42.4004 32.7046 42.4268 32.2866 42.4268 31.8672C42.4268 26.1475 37.7739 21.4946 32.0547 21.4946C26.335 21.4946 21.6821 26.1475 21.6821 31.8672C21.6821 32.2881 21.709 32.7065 21.7588 33.1211ZM30.6797 42.4966C32.0601 42.4966 33.1792 43.6152 33.1792 44.9956C33.1797 46.376 32.0605 47.4951 30.6802 47.4956H29.001C29.2754 48.2734 29.4268 49.1089 29.4272 49.979L29.4297 58.8701L34.6934 58.8667L34.687 49.9893C34.6851 47.9863 35.4639 46.1025 36.8794 44.6851C38.2949 43.2671 40.1777 42.4858 42.1812 42.4849L44.8013 42.4834V40.6147C44.8013 39.2368 43.6802 38.1157 42.3022 38.1157H21.9321C20.5537 38.1157 19.4326 39.2368 19.4326 40.6147V42.4976L30.6797 42.4966Z" fill="#3B86C8"/>
<path d="M63.9839 31.9922C63.9839 36.4058 63.1011 40.6816 61.3599 44.7007C59.6782 48.5815 57.2774 52.0459 54.2241 54.9971C53.7388 55.4663 53.1128 55.6992 52.4873 55.6992C51.8335 55.6992 51.1802 55.4443 50.6899 54.937C49.7305 53.9448 49.7573 52.3623 50.75 51.4028C55.4561 46.854 58.2871 40.9219 58.8706 34.4912H54.7363C53.356 34.4912 52.2368 33.3726 52.2368 31.9922C52.2368 30.6118 53.356 29.4927 54.7363 29.4927H58.8687C57.603 15.7759 46.0337 4.99854 31.9922 4.99854C17.9507 4.99854 6.38086 15.7759 5.11572 29.4927H9.24805C10.6284 29.4927 11.7471 30.6118 11.7471 31.9922C11.7471 33.3726 10.6284 34.4912 9.24805 34.4912H5.11377C5.69336 40.8652 8.48389 46.7573 13.1196 51.2915C14.1069 52.2568 14.1245 53.8394 13.1592 54.8262C12.6694 55.3267 12.021 55.5781 11.3721 55.5781C10.7417 55.5781 10.1108 55.3408 9.62451 54.8657C6.61182 51.9185 4.24365 48.4692 2.58643 44.6128C0.870117 40.6191 0 36.3726 0 31.9922C0 23.4468 3.32764 15.4126 9.37012 9.37012C15.4126 3.32764 23.4468 0 31.9922 0C40.5371 0 48.5713 3.32764 54.6138 9.37012C60.6563 15.4126 63.9839 23.4468 63.9839 31.9922ZM34.4912 10.7476C34.4912 9.3667 33.3726 8.24805 31.9922 8.24805C30.6118 8.24805 29.4927 9.3667 29.4927 10.7476C29.4927 12.1279 30.6118 13.2466 31.9922 13.2466C33.3726 13.2466 34.4912 12.1279 34.4912 10.7476Z" fill="#868686"/>
</svg>
