<svg width="64" height="64" viewBox="0 0 64 64" fill="none" xmlns="http://www.w3.org/2000/svg">
<path d="M63.9839 31.9922C63.9839 36.4058 63.1011 40.6816 61.3599 44.7007C59.6782 48.5815 57.2774 52.0459 54.2241 54.9971C53.7388 55.4663 53.1128 55.6992 52.4873 55.6992C51.8335 55.6992 51.1802 55.4443 50.6899 54.937C49.7305 53.9448 49.7573 52.3623 50.75 51.4028C55.4561 46.854 58.2871 40.9219 58.8706 34.4912H54.7363C53.356 34.4912 52.2368 33.3726 52.2368 31.9922C52.2368 30.6118 53.356 29.4927 54.7363 29.4927H58.8687C57.603 15.7759 46.0337 4.99854 31.9922 4.99854C17.9507 4.99854 6.38086 15.7759 5.11572 29.4927H9.24805C10.6284 29.4927 11.7471 30.6118 11.7471 31.9922C11.7471 33.3726 10.6284 34.4912 9.24805 34.4912H5.11377C5.69336 40.8652 8.48389 46.7573 13.1196 51.2915C14.1069 52.2568 14.1245 53.8394 13.1592 54.8262C12.6694 55.3267 12.021 55.5781 11.3721 55.5781C10.7417 55.5781 10.1108 55.3408 9.62451 54.8657C6.61182 51.9185 4.24365 48.4692 2.58643 44.6128C0.870117 40.6191 0 36.3726 0 31.9922C0 23.4468 3.32764 15.4126 9.37012 9.37012C15.4126 3.32764 23.4468 0 31.9922 0C40.5371 0 48.5713 3.32764 54.6138 9.37012C60.6563 15.4126 63.9839 23.4468 63.9839 31.9922ZM34.4912 10.7476C34.4912 9.3667 33.3726 8.24805 31.9922 8.24805C30.6118 8.24805 29.4927 9.3667 29.4927 10.7476C29.4927 12.1279 30.6118 13.2466 31.9922 13.2466C33.3726 13.2466 34.4912 12.1279 34.4912 10.7476Z" fill="#868686"/>
<path d="M49.7421 25.5103C45.5977 25.5103 41.8368 28.5393 40.7993 32.7126C40.7816 32.7836 39.9271 38.2035 39.9271 38.2035C39.8906 38.3088 39.8134 38.4207 39.5697 38.4104C39.2812 38.3992 39.2381 38.2368 39.2172 38.1175L37.2238 24.5324C37.2214 24.5164 37.2189 24.5004 37.2163 24.4844C36.7904 21.9288 34.6858 20.1921 32.094 20.2594C29.5475 20.3263 27.5596 22.1113 27.2167 24.6182C27.2167 24.6182 25.3201 33.8154 25.3148 33.8469C25.2948 33.967 25.2646 34.2459 24.9589 34.2579C24.6539 34.2721 24.6088 33.994 24.5794 33.8758C24.5601 33.7978 24.1351 32.585 24.1351 32.585C23.0766 28.6076 18.9819 25.5104 14.75 25.5104C13.3692 25.5104 12.25 26.6297 12.25 28.0105C12.25 29.3912 13.3692 30.5105 14.75 30.5105C16.7308 30.5105 18.8643 32.1032 19.3155 33.919C19.3349 33.997 19.762 35.2158 19.762 35.2158C20.4093 37.5712 22.5652 39.1332 25.0001 39.133C27.5561 39.0327 29.7934 37.2364 30.2375 34.7231C30.2375 34.7231 32.1735 25.2754 32.176 25.2637C32.2056 25.2571 32.2448 25.2561 32.2745 25.2611C32.2768 25.2696 34.2789 38.903 34.2815 38.919C34.7053 41.4602 36.8753 43.3828 39.5003 43.3828C42.0003 43.3828 44.1978 41.7604 44.8015 39.3319C44.8192 39.2609 45.6762 33.8243 45.6762 33.8243C46.192 31.9284 47.9234 30.5103 49.742 30.5103C53.0582 30.379 53.0574 25.6414 49.7421 25.5103Z" fill="#FE7333"/>
</svg>
