<svg width="64" height="64" viewBox="0 0 64 64" fill="none" xmlns="http://www.w3.org/2000/svg">
<path fill-rule="evenodd" clip-rule="evenodd" d="M28.5272 1.84914C23.9466 4.15039 23.2402 10.8236 27.2436 13.973L28.4165 14.8959L24.0975 18.4109L19.7786 21.9259V28.8428C19.7786 36.152 19.9941 36.9254 22.0327 36.9254C24.0432 36.9254 24.6335 35.2562 24.6335 29.5725V24.3782L26.9397 22.4051L29.2458 20.432L29.4885 28.0961C29.7565 36.5525 30.0765 37.5706 33.0346 39.3742C34.3352 40.167 35.4922 40.3204 40.1826 40.3219C48.2646 40.3248 47.9374 39.9359 47.9374 49.541C47.9374 59.031 47.7762 58.7728 53.7008 58.7728C58.331 58.7728 59.1039 58.414 59.1039 56.2652C59.1039 54.5916 57.9387 53.9178 55.0456 53.9178H52.8657L52.7079 47.1543C52.5691 41.2278 52.4258 40.2253 51.5486 39.0523C49.3085 36.0563 48.3826 35.7257 41.7119 35.5412C38.327 35.448 35.2844 35.148 34.9504 34.8751C34.5022 34.5086 34.3435 31.8718 34.3435 24.7845V15.1896L35.5805 14.3793C38.7241 12.3194 39.7039 7.47994 37.6109 4.34751C36.3403 2.44533 33.7764 1 31.6733 1C30.8722 1 29.4565 1.38209 28.5272 1.84914ZM33.2754 6.43612C34.0265 7.18718 34.0265 9.37483 33.2754 10.1259C32.5263 10.875 30.8202 10.875 30.0711 10.1259C29.7507 9.80547 29.4885 8.97527 29.4885 8.28101C29.4885 7.58675 29.7507 6.75654 30.0711 6.43612C30.8202 5.68699 32.5263 5.68699 33.2754 6.43612Z" fill="#868686"/>
<path fill-rule="evenodd" clip-rule="evenodd" d="M16.6329 26.8588C17.2632 27.9298 16.9059 29.3089 15.835 29.9391C11.3068 32.6039 8.25 37.5895 8.25 43.3152C8.25 51.8742 15.0672 58.75 23.4001 58.75C29.2838 58.75 34.4064 55.3299 36.917 50.2944C37.5396 49.0458 37.75 47.5248 37.75 45.7568V45C37.75 43.7574 38.7574 42.75 40 42.75C41.2426 42.75 42.25 43.7574 42.25 45V45.7568C42.25 47.801 42.0227 50.1393 40.9442 52.3024C37.7148 58.7793 31.0835 63.25 23.4001 63.25C12.5134 63.25 3.75 54.2903 3.75 43.3152C3.75 35.9544 7.68587 29.5134 13.5526 26.0609C14.6236 25.4306 16.0027 25.7879 16.6329 26.8588Z" fill="#F7B801"/>
</svg>
