<svg width="64" height="64" viewBox="0 0 64 64" fill="none" xmlns="http://www.w3.org/2000/svg">
<path d="M61.5614 28.332L58.7836 24.7212C58.7352 24.4034 58.7431 23.7751 58.748 23.3799C58.7502 23.2072 58.7523 23.0384 58.7523 22.8768V18.309C58.7523 15.3246 56.7214 12.8861 53.4522 11.9456L48.8831 10.6308C48.4387 10.503 48.0512 10.2252 47.7919 9.84831L45.1134 5.95786C43.36 3.41137 40.0937 2.35801 37.1708 3.39613L32.6781 4.99197C32.2405 5.14718 31.7591 5.14718 31.3219 4.99197L26.8293 3.39637C23.9063 2.35825 20.64 3.41149 18.8867 5.9581L16.2081 9.84855C15.9621 10.2058 15.6009 10.4741 15.1853 10.61L10.4256 11.609C10.3676 11.6213 10.3102 11.6355 10.2533 11.6519C7.22399 12.5235 5.17084 15.2742 5.24761 18.3502V23.0399C5.24761 23.203 5.251 23.3738 5.25464 23.5494C5.2619 23.8973 5.27353 24.4655 5.21395 24.698L2.43569 28.3355C0.520589 30.7911 0.521437 34.2128 2.43823 36.6676L5.22097 40.2885C5.27195 40.5085 5.26227 41.0649 5.255 41.4781C5.25125 41.6898 5.24761 41.9063 5.24761 42.127V46.8249C5.17798 49.708 7.2051 52.0929 10.5477 53.0546L15.1168 54.3692C15.5612 54.4971 15.9487 54.7749 16.2081 55.1517L18.8864 59.0421C20.1879 60.9326 22.3228 62.0001 24.5328 62C25.2997 61.9999 26.076 61.8713 26.8292 61.6038L31.3217 60.0082C31.7592 59.853 32.2407 59.853 32.6778 60.0082L37.1704 61.6038C37.9237 61.8714 38.6997 62 39.4668 62C41.6766 62 43.8117 60.9324 45.1131 59.0421L47.7917 55.1516C48.0511 54.775 48.4386 54.4971 48.8829 54.3692L53.452 53.0546C56.4229 52.1998 58.8496 48.8046 58.7509 45.6406C58.7093 44.3051 57.5872 43.2527 56.2549 43.2977C54.9182 43.3393 53.8682 44.4556 53.9098 45.7913C53.9389 46.7232 52.9473 48.1643 52.1115 48.4047L47.5423 49.7194C46.0231 50.1566 44.6943 51.1119 43.801 52.4094L41.1225 56.2998C40.6106 57.0436 39.6526 57.3498 38.7928 57.0446L34.3001 55.449C32.817 54.9222 31.1832 54.9221 29.6995 55.449L25.2069 57.0446C24.347 57.3499 23.3893 57.0437 22.8771 56.2998L20.1987 52.4095C19.3055 51.112 17.9768 50.1566 16.4574 49.7195L11.8883 48.4048C11.7012 48.3509 10.0613 47.8523 10.0899 46.9334C10.0908 46.9083 10.0911 46.8832 10.0911 46.858V42.1271C10.0911 41.9352 10.0946 41.7466 10.0978 41.5625C10.1198 40.3021 10.1471 38.7346 9.09501 37.3835L6.27413 33.7133C6.2694 33.7071 6.26456 33.7009 6.25984 33.6949C5.70825 32.9914 5.70825 32.0088 6.25984 31.3054C6.26601 31.2974 6.27231 31.2893 6.27849 31.2812L9.09755 27.5903C10.1546 26.2297 10.12 24.5574 10.0971 23.4495C10.0942 23.3083 10.0911 23.1709 10.0911 23.0399V18.3166C10.0911 18.2916 10.0908 18.2664 10.0899 18.2412C10.0638 17.3984 10.6633 16.6025 11.5248 16.3229L16.2851 15.3237C16.3431 15.3115 16.4005 15.2972 16.4574 15.2809C17.9766 14.8437 19.3054 13.8884 20.1987 12.5909L22.8772 8.70046C23.3892 7.95656 24.3468 7.65024 25.2069 7.95571L29.6996 9.55131C31.1828 10.078 32.8166 10.078 34.3002 9.55131L38.7928 7.95571C39.6528 7.65036 40.6104 7.95668 41.1225 8.70046L43.801 12.5908C44.6942 13.8884 46.023 14.8438 47.5423 15.2809L52.1115 16.5956C52.7827 16.7886 53.9086 17.2681 53.9086 18.3091V22.8769C53.9086 23.0191 53.9068 23.1674 53.9049 23.3192C53.8871 24.7277 53.8651 26.4671 54.969 27.7039L57.7264 31.288C57.7308 31.2938 57.7354 31.2997 57.7399 31.3055C58.2915 32.009 58.2915 32.9915 57.7399 33.695C56.915 34.7469 57.1002 36.2677 58.1531 37.0916C59.2061 37.9155 60.728 37.7309 61.5529 36.6787C63.4793 34.2223 63.4819 30.792 61.5614 28.332Z" fill="#868686"/>
<path fill-rule="evenodd" clip-rule="evenodd" d="M24.5284 46.7425C24.8945 46.9403 25.2889 47.0341 25.6778 47.0341C26.5386 47.0341 27.3722 46.5742 27.8102 45.7646L40.9005 21.5705C41.5366 20.3952 41.0983 18.9271 39.9218 18.2917C38.7451 17.6561 37.2757 18.0942 36.6399 19.2696L23.5497 43.4637C22.9136 44.639 23.3518 46.1071 24.5284 46.7425ZM28.0041 24.0492C28.0041 20.714 25.2882 18.0006 21.9498 18.0006C18.6115 18.0006 15.8955 20.7139 15.8955 24.0492C15.8955 27.3845 18.6114 30.0977 21.9498 30.0977C25.2882 30.0977 28.0041 27.3843 28.0041 24.0492ZM21.9498 25.2589C21.2821 25.2589 20.739 24.7162 20.739 24.0492C20.739 23.3822 21.2823 22.8395 21.9498 22.8395C22.6176 22.8395 23.1607 23.3822 23.1607 24.0492C23.1607 24.7162 22.6174 25.2589 21.9498 25.2589ZM47.9835 40.9849C47.9835 44.3202 45.2675 47.0335 41.9292 47.0335C38.5909 47.0335 35.875 44.3201 35.875 40.9849C35.875 37.6498 38.5909 34.9364 41.9292 34.9364C45.2676 34.9364 47.9835 37.6496 47.9835 40.9849ZM43.14 40.985C43.14 40.3181 42.5969 39.7754 41.9292 39.7754C41.2616 39.7754 40.7184 40.3181 40.7184 40.985C40.7184 41.652 41.2615 42.1947 41.9292 42.1947C42.5968 42.1947 43.14 41.652 43.14 40.985Z" fill="#43B02A"/>
</svg>
