<svg width="64" height="64" viewBox="0 0 64 64" fill="none" xmlns="http://www.w3.org/2000/svg">
<path d="M55.3711 58.1562H60.5781C61.9157 58.1562 63 59.2405 63 60.5781C63 61.9157 61.9157 63 60.5781 63H3.42188C2.08427 63 1 61.9157 1 60.5781C1 59.2405 2.08427 58.1562 3.42188 58.1562H13.1094V55.4219C13.1094 54.0843 14.1937 53 15.5312 53C16.8688 53 17.9531 54.0843 17.9531 55.4219V58.1562H50.5273V51.1328C50.5273 49.7952 51.6116 48.7109 52.9492 48.7109C54.2868 48.7109 55.3711 49.7952 55.3711 51.1328V58.1562Z" fill="#868686"/>
<path d="M15.5312 15C16.8688 15 17.9531 13.9157 17.9531 12.5781V10.6875C17.9531 8.01666 20.126 5.84375 22.7969 5.84375H45.6836C48.3544 5.84375 50.5273 8.01666 50.5273 10.6875V39.0234C50.5273 40.361 51.6116 41.4453 52.9492 41.4453C54.2868 41.4453 55.3711 40.361 55.3711 39.0234V10.6875C55.3711 5.34581 51.0253 1 45.6836 1H22.7969C17.4552 1 13.1094 5.34581 13.1094 10.6875V12.5781C13.1094 13.9157 14.1937 15 15.5312 15Z" fill="#868686"/>
<path d="M45.8047 34.1797V29.3359C45.8047 27.9983 44.7204 26.9141 43.3828 26.9141C42.0452 26.9141 40.9609 27.9983 40.9609 29.3359V34.1797C40.9609 35.5173 42.0452 36.6016 43.3828 36.6016C44.7204 36.6016 45.8047 35.5173 45.8047 34.1797Z" fill="#868686"/>
<path d="M28.8925 23.0692L17.0051 17.7575C16.6113 17.5815 16.1957 17.5192 15.7952 17.5565C15.3947 17.5194 14.9789 17.5817 14.5852 17.7575L2.69779 23.0692C1.82555 23.459 1.26392 24.3249 1.26392 25.2804V34.503C1.26392 38.2909 2.76039 42.1571 5.36972 45.1103C8.15573 48.2635 11.8 50 15.6317 50H15.9585C19.7902 50 23.4345 48.2635 26.2205 45.1103C28.8298 42.1571 30.3263 38.2908 30.3263 34.503V25.2804C30.3263 24.3251 29.7648 23.459 28.8925 23.0692ZM25.4824 26.8508V34.503C25.4824 39.5319 21.4094 45.1562 15.9584 45.1562H15.6316C10.1807 45.1562 6.10754 39.5318 6.10754 34.503V26.8508L15.795 22.5222L25.4825 26.8508H25.4824Z" fill="#FE7333"/>
</svg>
