<svg width="64" height="64" viewBox="0 0 64 64" fill="none" xmlns="http://www.w3.org/2000/svg">
<path d="M51.3068 41.2031V10.6875C51.3068 8.01666 49.1338 5.84375 46.463 5.84375H16.6875C14.0167 5.84375 11.8438 8.01666 11.8438 10.6875V53.3125C11.8438 55.9833 14.0167 58.1562 16.6875 58.1562H46.4631C49.134 58.1562 51.3069 55.9833 51.3069 53.3125C51.3069 51.9749 52.3911 50.8906 53.7287 50.8906C55.0663 50.8906 56.1506 51.9749 56.1506 53.3125C56.1506 58.6542 51.8048 63 46.4631 63H16.6875C11.3458 63 7 58.6542 7 53.3125V10.6875C7 5.34581 11.3458 1 16.6875 1H46.4631C51.8048 1 56.1506 5.34581 56.1506 10.6875V41.2031C56.1506 42.5407 55.0663 43.625 53.7287 43.625C52.3911 43.625 51.3068 42.5407 51.3068 41.2031Z" fill="#868686"/>
<path d="M31.461 17.1055C30.1234 17.1055 29.0391 18.1897 29.0391 19.5273V40.6147L24.8284 36.3526C23.8882 35.4012 22.3548 35.3917 21.4035 36.3319C20.452 37.2719 20.4426 38.8053 21.3827 39.7569L26.43 44.8657C27.8049 46.2521 29.6348 47.0156 31.5821 47.0156C33.5248 47.0156 35.3504 46.2558 36.7243 44.8757L41.761 39.8985C42.7124 38.9583 42.7216 37.4249 41.7813 36.4734C40.8413 35.5221 39.3077 35.5131 38.3564 36.4531L33.883 40.8738V19.5273C33.8828 18.1897 32.7986 17.1055 31.461 17.1055Z" fill="#43B02A"/>
</svg>
