<svg width="64" height="64" viewBox="0 0 64 64" fill="none" xmlns="http://www.w3.org/2000/svg">
<g clip-path="url(#clip0_5905_27)">
<path fill-rule="evenodd" clip-rule="evenodd" d="M13.5 18.5C13.5 28.7172 21.7828 37 32 37C42.2172 37 50.5 28.7172 50.5 18.5C50.5 8.28279 42.2172 3.8147e-06 32 3.8147e-06C21.7828 3.8147e-06 13.5 8.28279 13.5 18.5ZM32 32C24.5442 32 18.5 25.9558 18.5 18.5C18.5 11.0442 24.5442 5 32 5C39.4558 5 45.5 11.0442 45.5 18.5C45.5 25.9558 39.4558 32 32 32Z" fill="#868686"/>
<path d="M26.375 64C26.375 60.8934 28.8934 58.375 32 58.375C35.1066 58.375 37.625 60.8934 37.625 64H26.375Z" fill="#43B02A"/>
<path fill-rule="evenodd" clip-rule="evenodd" d="M32 45.5C21.7828 45.5 13.5 53.7828 13.5 64H18.5C18.5 56.5442 24.5442 50.5 32 50.5C39.4558 50.5 45.5 56.5442 45.5 64H50.5C50.5 53.7828 42.2172 45.5 32 45.5Z" fill="#43B02A"/>
<path fill-rule="evenodd" clip-rule="evenodd" d="M32 32C14.3269 32 0 46.3269 0 64H5C5 49.0883 17.0883 37 32 37C46.9117 37 59 49.0883 59 64H64C64 46.3269 49.6731 32 32 32Z" fill="#868686"/>
<path fill-rule="evenodd" clip-rule="evenodd" d="M19.9197 55.4553L27.6072 63.1428L31.1428 59.6072L23.4553 51.9197L19.9197 55.4553Z" fill="#43B02A"/>
<path fill-rule="evenodd" clip-rule="evenodd" d="M36.2678 63.2678L44.0803 55.4553L40.5447 51.9197L32.7322 59.7322L36.2678 63.2678Z" fill="#43B02A"/>
</g>
<defs>
<clipPath id="clip0_5905_27">
<rect width="64" height="64" fill="white"/>
</clipPath>
</defs>
</svg>
