<svg width="64" height="64" viewBox="0 0 64 64" fill="none" xmlns="http://www.w3.org/2000/svg">
<path fill-rule="evenodd" clip-rule="evenodd" d="M21.7873 58.1562H13.6875C11.0167 58.1562 8.84376 55.9833 8.84376 53.3125V10.6875C8.84376 8.01666 11.0167 5.84375 13.6875 5.84375H43.4631C46.134 5.84375 48.3069 8.01666 48.3069 10.6875V25.582C48.3069 26.9196 49.3912 28.0039 50.7288 28.0039C52.0664 28.0039 53.1506 26.9196 53.1506 25.582V10.6875C53.1506 5.34581 48.8048 1 43.4631 1H13.6875C8.34582 1 4.00001 5.34581 4.00001 10.6875V53.3125C4.00001 58.6542 8.34582 63 13.6875 63H21.7873C23.125 63 24.2092 61.9157 24.2092 60.5781C24.2092 59.2405 23.125 58.1562 21.7873 58.1562ZM41.0413 25.2188C42.3789 25.2188 43.4632 26.303 43.4632 27.6406C43.4632 28.9782 42.3789 30.0625 41.0413 30.0625H16.096C14.7584 30.0625 13.6741 28.9782 13.6741 27.6406C13.6741 26.303 14.7584 25.2188 16.096 25.2188H41.0413ZM13.6741 37.3281C13.6741 35.9905 14.7584 34.9062 16.096 34.9062H31.2461C32.5837 34.9062 33.668 35.9905 33.668 37.3281C33.668 38.6657 32.5837 39.75 31.2461 39.75H16.096C14.7584 39.75 13.6741 38.6657 13.6741 37.3281ZM16.096 15.5312H41.0413C42.3789 15.5312 43.4632 16.6155 43.4632 17.9531C43.4632 19.2907 42.3789 20.375 41.0413 20.375H16.096C14.7584 20.375 13.6741 19.2907 13.6741 17.9531C13.6741 16.6155 14.7584 15.5312 16.096 15.5312Z" fill="#868686"/>
<path d="M57.4404 36.0654C54.6075 33.2325 49.9982 33.2324 47.1672 36.0634L33.8707 49.3305C33.5883 49.6122 33.38 49.9593 33.264 50.341L30.3683 59.8741C30.1116 60.7193 30.3352 61.6371 30.9521 62.2693C31.4142 62.7429 32.0419 63 32.6858 63C32.9012 63 33.1187 62.9712 33.3322 62.912L43.1075 60.2042C43.5098 60.0928 43.8764 59.8793 44.1719 59.5843L57.4405 46.3407C60.2734 43.5078 60.2734 38.8985 57.4404 36.0654ZM41.2007 55.7063L36.2829 57.0686L37.7221 52.3303L46.6938 43.3785L50.1195 46.8042L41.2007 55.7063ZM54.0172 42.9142L53.5479 43.3825L50.1228 39.9573L50.5905 39.4906C51.5348 38.5463 53.0712 38.5463 54.0155 39.4906C54.9598 40.4349 54.9598 41.9714 54.0172 42.9142Z" fill="#43B02A"/>
</svg>
