<svg width="64" height="64" viewBox="0 0 64 64" fill="none" xmlns="http://www.w3.org/2000/svg">
<path d="M57.6904 55.1209C57.4184 53.8115 56.1361 52.9696 54.8267 53.242C53.5169 53.514 52.6759 54.7959 52.9474 56.1057C53.0538 56.618 52.9242 57.1463 52.5912 57.5555C52.4086 57.7797 52.0052 58.1562 51.3557 58.1562H35.2725L41.812 41.4325C44.1937 42.6667 46.3478 44.3492 48.1434 46.422C49.019 47.4328 50.5487 47.5421 51.5596 46.6665C52.5704 45.7905 52.6802 44.2612 51.8041 43.2499C48.8307 39.8176 45.0569 37.2572 40.8764 35.7473C43.9094 33.1906 45.8403 29.3657 45.8403 25.0977C45.8403 23.4813 45.5668 21.9038 45.0267 20.3991L46.3142 6.47287C46.4017 5.52493 45.9259 4.61389 45.0981 4.14371C41.733 2.23412 36.5581 1 31.914 1C27.2703 1 22.0955 2.23412 18.7304 4.14371C17.9026 4.61389 17.4267 5.52493 17.5142 6.47287L18.8018 20.3991C18.2616 21.9033 17.9882 23.4813 17.9882 25.0977C17.9882 29.3705 19.9234 33.1991 22.962 35.7558C20.1566 36.7719 17.5232 38.2638 15.196 40.1833C10.5693 44.0001 7.3523 49.324 6.13806 55.1738C5.73693 57.1057 6.21942 59.0891 7.46157 60.6155C8.69427 62.1311 10.5211 63 12.4728 63H51.3557C53.2941 63 55.1139 62.1296 56.3484 60.6127C57.6048 59.0682 58.0939 57.0664 57.6904 55.1209ZM31.914 53.444L26.5447 39.7136C28.2703 39.2633 30.0706 39.0234 31.914 39.0234C33.746 39.0234 35.5496 39.2576 37.2871 39.7051L31.914 53.444ZM22.832 25.0977C22.832 23.9056 23.059 22.7482 23.506 21.6569C23.6541 21.2955 23.7127 20.9038 23.6768 20.515L22.4909 7.68759C25.1195 6.57504 28.7613 5.84375 31.914 5.84375C35.0672 5.84375 38.7085 6.57504 41.3371 7.68806L40.1512 20.5155C40.1153 20.9038 40.1739 21.296 40.322 21.6569C40.7695 22.7482 40.996 23.9056 40.996 25.0977C40.996 30.1055 36.9219 34.1797 31.914 34.1797C26.9061 34.1797 22.832 30.1055 22.832 25.0977ZM11.2183 57.5588C11.0315 57.3289 10.7391 56.8412 10.8806 56.1587C12.2235 49.6901 16.4466 44.3781 22.0269 41.46L28.556 58.1562H12.4728C11.8044 58.1562 11.4 57.7816 11.2183 57.5588Z" fill="#868686"/>
<path d="M35.4258 17.9531C36.7635 17.9531 37.8477 16.869 37.8477 15.5312C37.8477 14.1935 36.7635 13.1094 35.4258 13.1094H34.2148V11.8984C34.2148 10.5607 33.1307 9.47656 31.793 9.47656C30.4553 9.47656 29.3711 10.5607 29.3711 11.8984V13.1094H28.1602C26.8224 13.1094 25.7383 14.1935 25.7383 15.5312C25.7383 16.869 26.8224 17.9531 28.1602 17.9531H29.3711V19.1641C29.3711 20.5018 30.4553 21.5859 31.793 21.5859C33.1307 21.5859 34.2148 20.5018 34.2148 19.1641V17.9531H35.4258Z" fill="#EB5757"/>
</svg>
