<svg width="64" height="64" viewBox="0 0 64 64" fill="none" xmlns="http://www.w3.org/2000/svg">
<path fill-rule="evenodd" clip-rule="evenodd" d="M41.2931 20.0493C40.9706 19.5509 40.4174 19.25 39.8238 19.25H12.7499C11.5073 19.25 10.4999 18.2426 10.4999 17C10.4999 15.7574 11.5073 14.75 12.7499 14.75H39.8238C41.9439 14.75 43.9194 15.8247 45.0711 17.6047L54.6805 32.4556L60.5771 37.0197C62.1063 38.2034 63.0015 40.0283 63.0015 41.9621V49C63.0015 52.4518 60.2033 55.25 56.7515 55.25H52.4797C51.3829 58.0317 48.6713 60 45.4999 60C41.3578 60 37.9999 56.6421 37.9999 52.5C37.9999 48.3579 41.3578 45 45.4999 45C49.0395 45 52.0064 47.452 52.7947 50.75H56.7515C57.718 50.75 58.5015 49.9665 58.5015 49V41.9621C58.5015 41.4207 58.2509 40.9097 57.8227 40.5783L52.2309 36.25H39.4999C36.0482 36.25 33.2499 33.4518 33.2499 30V26C33.2499 24.7574 34.2573 23.75 35.4999 23.75C36.7426 23.75 37.7499 24.7574 37.7499 26V30C37.7499 30.9665 38.5334 31.75 39.4999 31.75H48.8641L41.2931 20.0493ZM45.4999 55.5C47.1568 55.5 48.4999 54.1569 48.4999 52.5C48.4999 50.8431 47.1568 49.5 45.4999 49.5C43.8431 49.5 42.4999 50.8431 42.4999 52.5C42.4999 54.1569 43.8431 55.5 45.4999 55.5Z" fill="#868686"/>
<path fill-rule="evenodd" clip-rule="evenodd" d="M25.75 10.5C25.75 7.32436 28.3244 4.75 31.5 4.75H33.5C36.6756 4.75 39.25 7.32436 39.25 10.5C39.25 11.7426 38.2426 12.75 37 12.75C35.7574 12.75 34.75 11.7426 34.75 10.5C34.75 9.80964 34.1904 9.25 33.5 9.25H31.5C30.8096 9.25 30.25 9.80964 30.25 10.5C30.25 11.7426 29.2426 12.75 28 12.75C26.7574 12.75 25.75 11.7426 25.75 10.5Z" fill="#EB5757"/>
<path fill-rule="evenodd" clip-rule="evenodd" d="M16.25 37.5C17.4926 37.5 18.5 36.4926 18.5 35.25V32.5H21.25C22.4926 32.5 23.5 31.4926 23.5 30.25C23.5 29.0074 22.4926 28 21.25 28H18.5V25.25C18.5 24.0074 17.4926 23 16.25 23C15.0074 23 14 24.0074 14 25.25L14 28H11.25C10.0074 28 9 29.0074 9 30.25C9 31.4926 10.0074 32.5 11.25 32.5H14L14 35.25C14 36.4926 15.0074 37.5 16.25 37.5Z" fill="#EB5757"/>
<path fill-rule="evenodd" clip-rule="evenodd" d="M3.25 44C2.00736 44 1 45.0074 1 46.25C1 47.4926 2.00736 48.5 3.25 48.5H19.25C20.4926 48.5 21.5 47.4926 21.5 46.25C21.5 45.0074 20.4926 44 19.25 44H3.25ZM11.25 51C10.0074 51 9 52.0074 9 53.25C9 54.4926 10.0074 55.5 11.25 55.5H19.25C20.4926 55.5 21.5 54.4926 21.5 53.25C21.5 52.0074 20.4926 51 19.25 51H11.25Z" fill="#868686"/>
</svg>
