<svg width="64" height="64" viewBox="0 0 64 64" fill="none" xmlns="http://www.w3.org/2000/svg">
<path d="M28.7367 5.92589C28.7367 4.12352 30.197 2.66663 31.9963 2.66663H45.035C54.0219 2.66663 61.3333 9.97714 61.3333 18.9629V45.037C61.3333 54.0228 54.0219 61.3333 45.035 61.3333H31.9963C30.197 61.3333 28.7367 59.8764 28.7367 58.074C28.7367 56.2717 30.197 54.8148 31.9963 54.8148H45.035C50.4265 54.8148 54.814 50.4278 54.814 45.037V18.9629C54.814 13.5721 50.4265 9.18514 45.035 9.18514H31.9963C30.197 9.18514 28.7367 7.72825 28.7367 5.92589ZM2.91359 30.7551C2.58437 31.5503 2.58437 32.4496 2.91359 33.2449C3.07984 33.6457 3.31782 34.0044 3.62097 34.3075L16.6564 47.3414C17.9309 48.6158 19.991 48.6158 21.2655 47.3414C22.5401 46.067 22.5401 44.007 21.2655 42.7326L13.7911 35.2592H38.519C40.3183 35.2592 41.7786 33.8023 41.7786 32C41.7786 30.1976 40.3183 28.7407 38.519 28.7407H13.7911L21.2655 21.2673C22.5401 19.993 22.5401 17.9329 21.2655 16.6585C20.6299 16.023 19.7954 15.7037 18.9609 15.7037C18.1265 15.7037 17.292 16.023 16.6564 16.6585L3.62097 29.6924C3.31782 29.9955 3.07657 30.3542 2.91359 30.7551Z" fill="#868686"/>
</svg>
