<svg width="64" height="64" viewBox="0 0 64 64" fill="none" xmlns="http://www.w3.org/2000/svg">
<path fill-rule="evenodd" clip-rule="evenodd" d="M14.9466 1.52641C12.6151 2.50245 10.3494 5.88641 10.3494 8.39208C10.3494 10.4313 12.2125 13.4223 14.1655 14.5203C19.1227 17.3061 25.053 13.928 25.053 8.31853C25.053 3.26606 19.5785 -0.413086 14.9466 1.52641ZM40.8307 2.14872C38.2273 3.92078 37.2619 5.58929 37.2619 8.31853C37.2619 13.928 43.1922 17.3061 48.1493 14.5203C50.1305 13.4068 51.9654 10.4245 51.9654 8.31853C51.9654 7.688 51.5299 6.27257 50.9976 5.17313C49.1631 1.38318 44.1474 -0.108708 40.8307 2.14872ZM19.2674 6.65921C19.6855 7.07779 20.0276 7.82446 20.0276 8.31853C20.0276 9.27908 18.8207 10.7381 18.0257 10.7381C16.7336 10.7381 15.6724 9.64976 15.6724 8.32579C15.6724 6.18547 17.8045 5.19685 19.2674 6.65921ZM45.7066 6.39984C47.5948 7.41072 46.5079 10.7381 44.2892 10.7381C43.4942 10.7381 42.2873 9.27908 42.2873 8.31853C42.2873 7.35797 43.4942 5.89899 44.2892 5.89899C44.5539 5.89899 45.1917 6.1245 45.7066 6.39984ZM12.2851 17.9633C9.94877 18.4312 8.54399 19.3947 7.29744 21.384C6.35915 22.8817 6.21688 23.8819 6.0688 30.0295C5.83459 39.7396 6.07993 40.9968 8.70077 43.5145L10.8334 45.5629V53.2062C10.8334 61.5076 11.2316 63 13.4474 63C15.9197 63 16.1563 62.0201 16.1563 51.7859C16.1563 43.2513 16.0712 42.2651 15.2713 41.5411C14.7844 41.1008 14.0383 40.7403 13.6124 40.7403C13.1866 40.7403 12.4961 40.3982 12.0775 39.9801C11.4508 39.3529 11.3173 37.8823 11.3173 31.6085C11.3173 26.3339 11.4953 23.819 11.8979 23.4164C12.2594 23.0549 14.0494 22.8357 16.6446 22.8357C19.2978 22.8357 21.1227 22.6073 21.6704 22.2071C22.9242 21.2901 22.5294 18.9083 20.9954 18.136C19.7111 17.4895 15.1053 17.3986 12.2851 17.9633ZM42.9236 17.9705C41.62 18.5323 40.7388 20.0847 41.1361 21.1203C41.6021 22.3344 42.9725 22.8357 45.8256 22.8357C49.2672 22.8357 49.9524 23.5664 49.151 26.3813C47.3519 32.6997 47.3528 32.6508 48.97 34.8831C50.446 36.9208 52.1009 41.3079 52.6613 44.6686L52.9531 46.4189L50.7658 46.6657C47.1835 47.0693 47.1264 47.1995 47.1264 54.9778C47.1264 62.2224 47.3436 63 49.3664 63C51.4975 63 51.9654 61.8609 51.9654 56.6749V51.8701H54.143C57.361 51.8701 58.4285 50.6328 58.0389 47.3543C57.3407 41.4821 56.5892 38.5995 54.8573 35.1516L53.0174 31.4904L53.9364 28.2777C55.2424 23.7102 54.2151 20.3862 50.9802 18.7138C49.2309 17.8089 44.3444 17.3584 42.9236 17.9705Z" fill="#868686"/>
<path fill-rule="evenodd" clip-rule="evenodd" d="M28.4958 21.8533C25.5643 23.3752 24.6246 24.9648 24.6246 28.4006C24.6246 31.8871 25.5856 33.469 28.6158 34.9691C34.8684 38.0642 41.7017 30.4828 37.811 24.7664C35.3697 21.1792 31.89 20.0914 28.4958 21.8533ZM33.3005 26.9832C33.7186 27.4018 34.0608 28.0396 34.0608 28.4006C34.0608 30.5259 30.521 31.3509 29.6456 29.4293C28.5321 26.9861 31.3901 25.0732 33.3005 26.9832ZM28.0119 38.52C26.1421 39.3509 24.6212 41.0194 23.68 43.272C23.1041 44.6492 22.9309 46.9545 22.9309 53.2313C22.9309 60.5286 23.0253 61.4833 23.816 62.199C25.8726 64.0601 28.2539 62.395 28.2539 59.0957C28.2539 56.952 29.4467 55.7413 31.5585 55.7413C33.7012 55.7413 35.0286 57.2085 35.0286 59.5782C35.0286 61.7175 36.0027 62.9999 37.6276 62.9999C39.722 62.9999 39.8681 62.3365 39.8599 52.862C39.8522 44.4488 39.7834 43.7646 38.7609 41.9596C36.7489 38.4073 31.8169 36.8288 28.0119 38.52ZM33.8406 43.8638C34.8287 44.8514 35.0286 45.5236 35.0286 47.856V50.6603H31.6412H28.2539V47.6712C28.2539 45.0179 28.3971 44.5688 29.529 43.6789C31.2033 42.3617 32.3898 42.4126 33.8406 43.8638Z" fill="#43B02A"/>
</svg>
