<svg width="64" height="64" viewBox="0 0 64 64" fill="none" xmlns="http://www.w3.org/2000/svg">
<path d="M33.1221 23.2899C33.174 23.257 33.2409 23.254 33.2969 23.2841V23.285C33.3514 23.315 33.3858 23.3723 33.3858 23.4354C33.3858 26.7459 35.5987 28.7319 37.6543 30.6141C40.0916 32.8464 42.3201 34.9814 42.3438 38.7645V38.7655C42.3612 41.533 41.2988 44.1303 39.3418 46.0995H39.3408C37.3774 48.0754 34.7779 49.1581 32 49.1581C26.3065 49.1581 21.6565 44.5027 21.6563 38.7665C21.6563 33.6763 25.1569 28.3014 32.9483 23.4003L32.9512 23.3983L33.1182 23.2928L33.1221 23.2899Z" stroke="#FE7333" stroke-width="4.5"/>
<path d="M62.2852 32.7824C61.8126 33.2516 61.1954 33.4862 60.5781 33.4862C59.9556 33.4862 59.3335 33.2478 58.86 32.7715L56.9453 30.8439V39.662C56.9453 40.9997 55.8611 42.0839 54.5234 42.0839C53.1857 42.0839 52.1015 40.9997 52.1015 39.662V25.9685L33.6825 7.42794C32.7786 6.6536 31.4475 6.65076 30.5403 7.42132L11.8952 26.0295C11.8956 26.0532 11.8985 26.0759 11.8985 26.0995V51.7713C11.8985 54.442 14.0715 56.6151 16.7422 56.6151H47.2578C49.9285 56.6151 52.1015 54.442 52.1015 51.7713C52.1015 50.4336 53.1857 49.3495 54.5234 49.3495C55.8611 49.3495 56.9453 50.4336 56.9453 51.7713C56.9453 57.1132 52.5996 61.4588 47.2578 61.4588H16.7422C11.4004 61.4588 7.05474 57.1132 7.05474 51.7713V30.8605L5.13285 32.7786C4.18633 33.7237 2.6528 33.7223 1.7077 32.7753C0.762604 31.8287 0.764496 30.2952 1.71101 29.3501L27.1756 3.93562C27.2083 3.90345 27.2419 3.87176 27.2759 3.84102C30.0422 1.37847 34.2062 1.38745 36.9615 3.86136C36.9956 3.8921 37.0292 3.92379 37.0613 3.95643L62.2961 29.3577C63.2388 30.3066 63.2341 31.8401 62.2852 32.7824Z" fill="#868686"/>
</svg>
