<svg width="64" height="64" viewBox="0 0 64 64" fill="none" xmlns="http://www.w3.org/2000/svg">
<path d="M58.1562 34.1258V22.5008C58.1562 19.8297 55.9832 17.6571 53.3125 17.6571H10.6875C8.01682 17.6571 5.84375 19.8297 5.84375 22.5008V34.1258H13.957C15.2947 34.1258 16.3789 35.21 16.3789 36.5477C16.3789 37.8854 15.2947 38.9696 13.957 38.9696H5.84375V50.7157C5.84375 53.3864 8.01682 55.5594 10.6875 55.5594H53.3125C55.9832 55.5594 58.1562 53.3864 58.1562 50.7157V48.6571C58.1562 47.3194 59.2404 46.2352 60.5781 46.2352C61.9158 46.2352 63 47.3194 63 48.6571V50.7157C63 56.057 58.6543 60.4032 53.3125 60.4032H10.6875C5.34566 60.4032 1 56.057 1 50.7157V22.5008C1 17.159 5.34566 12.8133 10.6875 12.8133H21.1105V9.6559C21.1105 5.98572 24.0963 3 27.766 3H36.234C39.9037 3 42.8895 5.98572 42.8895 9.6559V12.8129H53.3125C58.6543 12.8129 63 17.159 63 22.5004V36.5472C63 37.8849 61.9158 38.9691 60.5781 38.9691C60.4121 38.9691 60.2503 38.9525 60.0938 38.9209C59.9372 38.9525 59.7754 38.9691 59.6094 38.9691H50.2852C48.9474 38.9691 47.8633 37.8849 47.8633 36.5472C47.8633 35.21 48.9474 34.1254 50.2852 34.1254L58.1562 34.1258ZM25.9543 12.8133H38.0457V9.6559C38.0457 8.65688 37.233 7.84375 36.234 7.84375H27.766C26.767 7.84375 25.9543 8.6564 25.9543 9.6559V12.8133Z" fill="#868686"/>
<path d="M29.6992 38.9696V45.0243C29.6992 46.3615 30.7834 47.4462 32.1211 47.4462C33.4588 47.4462 34.543 46.362 34.543 45.0243V38.9696H40.5977C41.9354 38.9696 43.0195 37.8854 43.0195 36.5477C43.0195 35.21 41.9354 34.1259 40.5977 34.1259H34.543V28.0712C34.543 26.7335 33.4588 25.6493 32.1211 25.6493C30.7834 25.6493 29.6992 26.7335 29.6992 28.0712V34.1259H23.6445C22.3068 34.1259 21.2227 35.21 21.2227 36.5477C21.2227 37.8854 22.3068 38.9696 23.6445 38.9696H29.6992Z" fill="#EB5757"/>
</svg>
