<svg width="64" height="64" viewBox="0 0 64 64" fill="none" xmlns="http://www.w3.org/2000/svg">
<path d="M9.84337 11.8976V58.1518H19.5301C20.1724 58.1518 20.7884 58.4069 21.2426 58.8611C21.6966 59.3152 21.9518 59.9312 21.9518 60.5735C21.9518 61.2157 21.6966 61.8317 21.2426 62.2858C20.7884 62.74 20.1724 62.9951 19.5301 62.9951H7.42169C6.77937 62.9951 6.16343 62.74 5.70924 62.2858C5.25518 61.8317 5 61.2157 5 60.5735V9.4759C5 8.83361 5.25518 8.21767 5.70924 7.76351C6.16343 7.30936 6.77937 7.05421 7.42169 7.05421H9.84337V3.42169C9.84337 2.7794 10.0985 2.16346 10.5526 1.7093C11.0068 1.25515 11.6227 1 12.2651 1H41.2042C41.8465 1 42.4625 1.25515 42.9166 1.7093C43.3707 2.16346 43.6259 2.7794 43.6259 3.42169V7.05421H46.0476C46.3655 7.05421 46.6805 7.11685 46.9743 7.23856C47.2681 7.36026 47.5351 7.53864 47.76 7.76351C47.9848 7.98839 48.1632 8.25536 48.2849 8.54917C48.4066 8.84299 48.4693 9.15788 48.4693 9.4759V22.553C48.4693 23.1953 48.2141 23.8112 47.76 24.2654C47.3058 24.7195 46.6899 24.9747 46.0476 24.9747C45.4053 24.9747 44.7893 24.7195 44.3351 24.2654C43.8811 23.8112 43.6259 23.1953 43.6259 22.553V11.8976H41.2042C40.5619 11.8976 39.9459 11.6424 39.4918 11.1883C39.0377 10.7341 38.7825 10.1182 38.7825 9.4759V5.84337H14.6867V9.4759C14.6867 10.1182 14.4316 10.7341 13.9775 11.1883C13.5233 11.6424 12.9074 11.8976 12.2651 11.8976H9.84337Z" fill="#868686"/>
<path d="M19.409 16.0144C19.409 15.3722 19.1539 14.7562 18.6998 14.3021C18.2456 13.8479 17.6297 13.5928 16.9873 13.5928C16.345 13.5928 15.7291 13.8479 15.2749 14.3021C14.8208 14.7562 14.5657 15.3722 14.5657 16.0144V18.4361C14.5657 19.0784 14.8208 19.6944 15.2749 20.1485C15.7291 20.6027 16.345 20.8578 16.9873 20.8578C17.6297 20.8578 18.2456 20.6027 18.6998 20.1485C19.1539 19.6944 19.409 19.0784 19.409 18.4361V16.0144Z" fill="#868686"/>
<path d="M19.409 29.3337C19.409 29.976 19.1539 30.5919 18.6998 31.0461C18.2456 31.5003 17.6297 31.7554 16.9873 31.7554C16.345 31.7554 15.7291 31.5003 15.2749 31.0461C14.8208 30.5919 14.5657 29.976 14.5657 29.3337V26.912C14.5657 26.2697 14.8208 25.6538 15.2749 25.1996C15.7291 24.7455 16.345 24.4903 16.9873 24.4903C17.6297 24.4903 18.2456 24.7455 18.6998 25.1996C19.1539 25.6538 19.409 26.2697 19.409 26.912V29.3337Z" fill="#868686"/>
<path d="M26.6741 24.4903C26.0318 24.4903 25.4158 24.7455 24.9616 25.1996C24.5076 25.6538 24.2524 26.2697 24.2524 26.912V29.3337C24.2524 29.976 24.5076 30.5919 24.9616 31.0461C25.4158 31.5003 26.0318 31.7554 26.6741 31.7554C27.3164 31.7554 27.9323 31.5003 28.3865 31.0461C28.8406 30.5919 29.0958 29.976 29.0958 29.3337V26.912C29.0958 26.2697 28.8406 25.6538 28.3865 25.1996C27.9323 24.7455 27.3164 24.4903 26.6741 24.4903Z" fill="#868686"/>
<path d="M18.6998 36.0972C19.1539 36.5514 19.409 37.1673 19.409 37.8096V40.2313C19.409 40.8736 19.1539 41.4895 18.6998 41.9437C18.2456 42.3978 17.6297 42.653 16.9873 42.653C16.345 42.653 15.7291 42.3978 15.2749 41.9437C14.8208 41.4895 14.5657 40.8736 14.5657 40.2313V37.8096C14.5657 37.1673 14.8208 36.5514 15.2749 36.0972C15.7291 35.6431 16.345 35.3879 16.9873 35.3879C17.6297 35.3879 18.2456 35.6431 18.6998 36.0972Z" fill="#868686"/>
<path d="M29.0958 40.2313V37.8096C29.0958 37.1673 28.8406 36.5514 28.3865 36.0972C27.9323 35.6431 27.3164 35.3879 26.6741 35.3879C26.0318 35.3879 25.4158 35.6431 24.9616 36.0972C24.5076 36.5514 24.2524 37.1673 24.2524 37.8096V40.2313C24.2524 40.8736 24.5076 41.4895 24.9616 41.9437C25.4158 42.3978 26.0318 42.653 26.6741 42.653C27.3164 42.653 27.9323 42.3978 28.3865 41.9437C28.8406 41.4895 29.0958 40.8736 29.0958 40.2313Z" fill="#868686"/>
<path d="M15.2749 46.9948C15.7291 46.5407 16.345 46.2855 16.9873 46.2855C17.6297 46.2855 18.2456 46.5407 18.6998 46.9948C19.1539 47.449 19.409 48.0649 19.409 48.7072V51.1289C19.409 51.7712 19.1539 52.3871 18.6998 52.8413C18.2456 53.2954 17.6297 53.5506 16.9873 53.5506C16.345 53.5506 15.7291 53.2954 15.2749 52.8413C14.8208 52.3871 14.5657 51.7712 14.5657 51.1289V48.7072C14.5657 48.0649 14.8208 47.449 15.2749 46.9948Z" fill="#868686"/>
<path d="M28.3865 14.3021C28.8406 14.7562 29.0958 15.3722 29.0958 16.0144V18.4361C29.0958 19.0784 28.8406 19.6944 28.3865 20.1485C27.9323 20.6027 27.3164 20.8578 26.6741 20.8578C26.0318 20.8578 25.4158 20.6027 24.9616 20.1485C24.5076 19.6944 24.2524 19.0784 24.2524 18.4361V16.0144C24.2524 15.3722 24.5076 14.7562 24.9616 14.3021C25.4158 13.8479 26.0318 13.5928 26.6741 13.5928C27.3164 13.5928 27.9323 13.8479 28.3865 14.3021Z" fill="#868686"/>
<path d="M33.9391 16.0144V18.4361C33.9391 19.0784 34.1943 19.6944 34.6484 20.1485C35.1026 20.6027 35.7185 20.8578 36.3608 20.8578C37.0031 20.8578 37.6191 20.6027 38.0733 20.1485C38.5273 19.6944 38.7825 19.0784 38.7825 18.4361V16.0144C38.7825 15.3722 38.5273 14.7562 38.0733 14.3021C37.6191 13.8479 37.0031 13.5928 36.3608 13.5928C35.7185 13.5928 35.1026 13.8479 34.6484 14.3021C34.1943 14.7562 33.9391 15.3722 33.9391 16.0144Z" fill="#868686"/>
<path d="M59.6259 57.0669C59.6126 57.0003 59.5969 56.9361 59.5775 56.872C58.7509 53.1744 56.7172 49.8571 53.7969 47.4431C52.6743 46.5166 51.4361 45.7396 50.1136 45.1316C51.3143 43.768 52.0962 42.0869 52.3655 40.29C52.6349 38.4931 52.3801 36.6567 51.6319 35.0009C50.8837 33.3452 49.6738 31.9404 48.1472 30.955C46.6206 29.9697 44.8423 29.4456 43.0253 29.4456C41.2083 29.4456 39.4299 29.9697 37.9034 30.955C36.3768 31.9404 35.1669 33.3452 34.4187 35.0009C33.6704 36.6567 33.4157 38.4931 33.685 40.29C33.9544 42.0869 34.7363 43.768 35.937 45.1316C34.6113 45.7394 33.3699 46.5163 32.2439 47.4431C29.2607 49.9069 27.2036 53.3115 26.4101 57.0984C26.2603 57.8108 26.2712 58.5476 26.4422 59.2552C26.6131 59.9628 26.9398 60.6233 27.3983 61.1887C27.8569 61.7541 28.4358 62.2101 29.0928 62.5234C29.7499 62.8368 30.4686 62.9996 31.1966 63H54.8443C55.5679 63.0006 56.2823 62.8391 56.9353 62.5273C57.5882 62.2155 58.1629 61.7614 58.6173 61.1983C59.0829 60.6285 59.415 59.9617 59.5896 59.2469C59.7641 58.532 59.7765 57.7872 59.6259 57.0669ZM43.0204 34.3031C43.9305 34.3031 44.8201 34.5729 45.5767 35.0785C46.3334 35.5841 46.9231 36.3027 47.2714 37.1435C47.6197 37.9842 47.7108 38.9094 47.5332 39.8019C47.3557 40.6945 46.9175 41.5143 46.274 42.1578C45.6305 42.8013 44.8106 43.2395 43.9181 43.4171C43.0255 43.5946 42.1004 43.5035 41.2596 43.1552C40.4189 42.807 39.7003 42.2172 39.1947 41.4606C38.6891 40.7039 38.4192 39.8143 38.4192 38.9043C38.4192 37.684 38.904 36.5136 39.7669 35.6507C40.6298 34.7878 41.8001 34.3031 43.0204 34.3031ZM54.8443 58.1567H31.1832C31.1712 58.1494 31.162 58.1382 31.1571 58.125C31.1523 58.1118 31.1521 58.0973 31.1566 58.084C31.7124 55.3468 33.1974 52.8859 35.36 51.1183C37.5226 49.3507 40.2298 48.3851 43.0229 48.3851C45.8159 48.3851 48.5231 49.3507 50.6857 51.1183C52.8483 52.8859 54.3333 55.3468 54.8891 58.084C54.8835 58.1129 54.8676 58.1387 54.8443 58.1567Z" fill="#43B02A"/>
</svg>
