<svg width="64" height="64" viewBox="0 0 64 64" fill="none" xmlns="http://www.w3.org/2000/svg">
<path d="M41.931 26.4299C40.7496 26.4299 39.7155 25.5645 39.5381 24.3609C39.0566 21.0945 38.2908 17.8094 37.1967 14.3178C36.7968 13.0414 37.5072 11.6825 38.7837 11.2826C40.0602 10.8826 41.4189 11.593 41.8189 12.8695C42.9897 16.6062 43.8112 20.134 44.33 23.6545C44.5251 24.9778 43.6105 26.2086 42.2872 26.4037C42.1675 26.4215 42.0485 26.4299 41.931 26.4299ZM35.6328 29.5781H23.9537C24.2834 23.4534 25.7821 18.0235 26.9432 14.3179C27.3432 13.0416 26.6328 11.6826 25.3563 11.2827C24.08 10.8827 22.7211 11.5932 22.3211 12.8696C21.062 16.8877 19.4329 22.8104 19.1035 29.5781H13.1094C11.7718 29.5781 10.6875 30.6624 10.6875 32C10.6875 33.3376 11.7718 34.4219 13.1094 34.4219H19.1032C19.4305 41.1903 21.0496 47.1106 22.301 51.1268C22.6242 52.1639 23.5805 52.8289 24.6126 52.8289C24.8512 52.8289 25.0939 52.7933 25.3338 52.7185C26.6108 52.3206 27.3235 50.9628 26.9256 49.6859C25.7711 45.9808 24.2809 40.5508 23.9532 34.422H35.6328C36.9704 34.422 38.0547 33.3377 38.0547 32.0001C38.0547 30.6625 36.9704 29.5781 35.6328 29.5781ZM60.1935 26.7055C58.9044 27.0617 57.5703 26.3053 57.2141 25.0162C54.0949 13.7277 43.7265 5.84375 32 5.84375C17.5774 5.84375 5.84375 17.5774 5.84375 32C5.84375 46.1869 16.9428 57.6695 31.1119 58.1415C32.4488 58.186 33.4964 59.3058 33.4518 60.6427C33.4082 61.9521 32.333 62.9838 31.0327 62.9839C31.0053 62.9839 30.9781 62.9834 30.9506 62.9824C22.8917 62.714 15.3578 59.372 9.73691 53.572C4.10279 47.7587 1 40.0975 1 32C1 23.7196 4.22448 15.9349 10.0796 10.0796C15.9347 4.22436 23.7196 1 32 1C38.92 1 45.4662 3.2303 50.9307 7.44982C56.2221 11.5355 60.1117 17.3159 61.8829 23.7261C62.2392 25.0153 61.4828 26.3493 60.1935 26.7055Z" fill="#43B02A"/>
<path d="M50.2852 28.2461C45.2773 28.2461 41.2031 32.3203 41.2031 37.3281C41.2031 42.336 45.2773 46.4102 50.2852 46.4102C55.293 46.4102 59.3672 42.336 59.3672 37.3281C59.3672 32.3203 55.293 28.2461 50.2852 28.2461ZM50.2852 41.5664C47.9482 41.5664 46.0469 39.6651 46.0469 37.3281C46.0469 34.9911 47.9482 33.0898 50.2852 33.0898C52.6221 33.0898 54.5234 34.9911 54.5234 37.3281C54.5234 39.6651 52.6221 41.5664 50.2852 41.5664ZM63 60.5781C63 54.0345 57.6875 48.7109 51.1575 48.7109H49.4129C42.8828 48.7109 37.5703 54.0345 37.5703 60.5781C37.5703 61.9157 38.6546 63 39.9922 63C41.3298 63 42.4141 61.9157 42.4141 60.5781C42.4141 56.7054 45.5537 53.5547 49.4128 53.5547H51.1574C55.0167 53.5547 58.1562 56.7054 58.1562 60.5781C58.1562 61.9157 59.2405 63 60.5781 63C61.9157 63 63 61.9157 63 60.5781Z" fill="#868686"/>
</svg>
