<svg width="64" height="64" viewBox="0 0 64 64" fill="none" xmlns="http://www.w3.org/2000/svg">
<path fill-rule="evenodd" clip-rule="evenodd" d="M12.351 8.24385C14.789 5.34789 18.3689 2.62327 21.5118 1.27132C22.5729 0.81497 23.5618 0.937357 24.2922 1.61533C25.2849 2.53687 25.2858 4.27016 24.2938 5.17122C24.1366 5.31396 23.6016 5.63277 23.1049 5.87961C19.4866 7.67785 16.3089 10.5565 14.1834 13.9619C9.61355 21.2828 9.73812 30.51 14.5029 37.6288C16.828 41.1027 19.7856 43.6406 23.5996 45.4346C29.7813 48.3424 37.0883 48.181 43.1761 45.0022C47.4359 42.7779 50.6023 39.5136 52.8332 35.0465C53.7355 33.2397 54.0215 32.8974 54.8638 32.6168C55.0915 32.5409 55.3929 32.4792 55.5335 32.4796C56.5445 32.4823 57.6586 33.331 57.9214 34.2986C58.1278 35.0587 57.9571 35.6872 57.0578 37.4788C53.861 43.8478 48.1722 48.7664 41.4208 50.9987C39.931 51.4914 37.5239 52.031 36.1543 52.1793L35.3933 52.2617V55.2148V58.168L38.8332 58.1707C41.9215 58.1731 42.323 58.1962 42.7602 58.3978C43.3272 58.6589 43.8469 59.1753 44.031 59.6603C44.2108 60.134 44.1929 61.1281 43.996 61.597C43.7803 62.1108 43.0632 62.7279 42.4883 62.8947C42.1678 62.9876 39.1977 63.0167 32.6336 62.9911L23.2374 62.9544L22.7188 62.5909C21.2887 61.5884 21.2886 59.595 22.7186 58.5921L23.237 58.2286L26.8798 58.1916L30.5226 58.1547V55.2195V52.2842L29.072 52.075C25.153 51.5096 21.2778 50.0399 18.0539 47.8965C11.4681 43.5178 7.18307 36.6604 6.14793 28.8436C5.92534 27.1623 5.95943 23.5039 6.21332 21.8155C6.97655 16.7415 9.04209 12.1742 12.351 8.24385Z" fill="#868686"/>
<path fill-rule="evenodd" clip-rule="evenodd" d="M16.1358 22.2168C17.7488 14.656 23.7497 9.34158 31.5576 8.55903C32.4089 8.47372 34.8064 8.60447 35.9413 8.79823C38.3442 9.20817 41.2059 10.4458 43.2075 11.9408C45.1672 13.4043 47.1358 15.7565 48.2593 17.9764C48.7854 19.016 49.5993 21.42 49.7084 22.2564C49.8081 23.0204 49.6254 23.6246 49.1221 24.195C48.2706 25.16 46.9996 25.3189 45.9386 24.593C45.4096 24.2312 45.1257 23.8176 44.9586 23.1656L44.8148 22.6047L44.286 23.5128C43.4488 24.95 42.1918 26.7429 41.1108 28.0411L40.1142 29.2378L42.8013 31.9187C44.2792 33.3931 45.5458 34.753 45.6159 34.9406C45.821 35.4889 45.7685 36.4388 45.5046 36.9534C44.9926 37.9521 42.2835 40.0117 40.2566 40.9432C37.6361 42.1474 35.29 42.6051 32.2882 42.4979C29.6042 42.4019 27.9063 41.9995 25.5787 40.9076C23.7984 40.0724 22.4413 39.1058 20.8954 37.5719C18.2914 34.9879 16.7793 32.1692 16.0832 28.6013C15.7549 26.9194 15.78 23.8844 16.1358 22.2168ZM35.6793 13.7376C35.657 13.6179 35.2246 13.5749 34.2974 13.4569C32.5276 13.2317 30.8991 13.4034 29.0804 14.0068C27.9061 14.3964 26.2607 15.1928 26.2607 15.3716C26.2607 15.4149 26.9256 16.1136 27.7383 16.9242L29.2158 18.3981L30.3843 17.4351C31.7181 16.3358 33.225 15.2867 34.8024 14.3591C35.3865 14.0156 35.6995 13.8454 35.6793 13.7376ZM39.1273 22.587C40.4138 20.6722 41.4817 18.3136 41.4817 17.387C41.4817 16.9984 41.405 16.9789 40.5661 17.1531C38.6692 17.5472 35.3892 19.4473 33.1633 21.4416L32.6988 21.8578L34.623 23.7754C35.6813 24.8301 36.6027 25.6909 36.6704 25.6882C36.8437 25.6813 38.1907 23.981 39.1273 22.587ZM25.7541 21.853L24.2705 20.3801C23.4545 19.5701 22.7506 18.9073 22.7062 18.9073C22.5884 18.9073 21.9499 20.0613 21.5811 20.9409C20.9788 22.3771 20.7371 23.6607 20.732 25.4507C20.7293 26.3761 20.7964 27.393 20.8865 27.7923L21.0458 28.4982L21.5581 27.6105C22.5737 25.8512 23.5168 24.5151 24.9297 22.8339L25.7541 21.853ZM29.8529 31.7858C30.9567 31.0621 33.1116 29.3986 33.1743 29.2218C33.193 29.1695 32.3086 28.2728 31.209 27.2291L29.2098 25.3314L28.7674 25.8186C28.0988 26.5552 26.7389 28.4216 26.0825 29.5039C25.1819 30.9886 24.5701 32.4586 24.378 33.5998C24.3039 34.039 24.3133 34.0542 24.6594 34.0542C25.6353 34.0542 27.9051 33.0627 29.8529 31.7858ZM39.5929 35.7529C39.6536 35.6551 39.1847 35.103 38.2417 34.1621C37.4473 33.3696 36.7418 32.7233 36.6738 32.7258C36.6057 32.7285 36.2761 32.9722 35.9413 33.2676C34.6281 34.426 32.3112 36.0386 30.3846 37.1352L29.9746 37.3685L30.827 37.5366C32.0698 37.7816 34.7915 37.6751 36.063 37.3317C37.0938 37.0532 39.4359 36.0057 39.5929 35.7529Z" fill="#3B86C8"/>
</svg>
