<svg width="64" height="64" viewBox="0 0 64 64" fill="none" xmlns="http://www.w3.org/2000/svg">
<path d="M61.8925 37.0692L50.0051 31.7575C49.6113 31.5815 49.1957 31.5192 48.7952 31.5565C48.3947 31.5194 47.9789 31.5817 47.5852 31.7575L35.6978 37.0692C34.8255 37.459 34.2639 38.3249 34.2639 39.2804V48.503C34.2639 52.2909 35.7604 56.1571 38.3697 59.1103C41.1557 62.2635 44.8 64 48.6317 64H48.9585C52.7902 64 56.4345 62.2635 59.2205 59.1103C61.8298 56.1571 63.3263 52.2908 63.3263 48.503V39.2804C63.3263 38.3251 62.7648 37.459 61.8925 37.0692ZM58.4824 40.8508V48.503C58.4824 53.5319 54.4094 59.1562 48.9584 59.1562H48.6316C43.1807 59.1562 39.1075 53.5318 39.1075 48.503V40.8508L48.795 36.5222L58.4824 40.8508Z" fill="#3B86C8"/>
<path fill-rule="evenodd" clip-rule="evenodd" d="M53.9203 10.0797C48.0653 4.22459 40.2803 1 32 1C31.9872 1 31.9743 1.00024 31.9614 1.00047C31.9486 1.00071 31.9357 1.00095 31.9229 1.00095C31.9156 1.00095 31.9082 1.00071 31.9009 1.00047C31.8936 1.00024 31.8862 1 31.8789 1C31.8492 1 31.8196 1.00085 31.79 1.00169C31.7656 1.0024 31.7411 1.0031 31.7167 1.00331C23.5424 1.07616 15.868 4.29176 10.0797 10.0797C4.22459 15.9347 1 23.7197 1 32C1 40.2803 4.22459 48.0653 10.0797 53.9203C15.868 59.7082 23.5424 62.9238 31.7167 62.9967C31.73 62.9968 31.7434 62.9971 31.7568 62.9974C31.7679 62.9977 31.779 62.998 31.79 62.9983C31.8196 62.9992 31.8492 63 31.8789 63C31.8839 63 31.8888 62.9999 31.8938 62.9997L31.9009 62.9995C31.9082 62.9993 31.9156 62.9991 31.9229 62.9991C31.9357 62.9991 31.9486 62.9993 31.9614 62.9995C31.9743 62.9998 31.9872 63 32 63C33.4326 63 34.8575 62.9013 36.2649 62.7067C34.8205 61.2687 33.7965 59.5558 32.5 58H31C27.4854 57.1998 24.8108 54.1709 23.137 51.06C20.7246 46.5771 19.2747 40.74 18.9791 34.4219H29.457C30.3566 34.4219 30.9045 34.4219 31.302 34.4219C32.9589 34.4219 34.3008 33.0787 34.3008 31.4219V6.3513C36.603 7.30965 38.821 9.59482 40.6208 12.94C42.9151 17.2034 44.3388 22.6916 44.727 28.6535L45.9534 28.1056C46.8708 27.6958 47.8434 27.5171 48.7946 27.5501C49.0298 27.5419 49.2664 27.5466 49.5031 27.5645C48.9954 21.2083 47.4005 15.3176 44.8861 10.6445C44.4982 9.92357 44.0923 9.24194 43.6718 8.59721C51.5666 12.5507 57.1946 20.3821 58.0432 29.5781V31L62.9777 33.173C62.9926 32.7828 63 32.3917 63 32C63 23.7197 59.7754 15.9347 53.9203 10.0797ZM18.9791 29.5781C19.2747 23.26 20.7246 17.4229 23.137 12.94C24.9368 9.59482 27.1548 7.30965 29.457 6.3513V29.5781H18.9791ZM19.9677 8.78075C19.5893 9.37155 19.2232 9.99168 18.8717 10.6445C16.0937 15.8075 14.4381 22.4568 14.1311 29.5781H5.9568C6.79216 20.5226 12.2622 12.7901 19.9677 8.78075ZM5.9568 34.4219H14.1311C14.4381 41.5432 16.0937 48.1925 18.8717 53.3555C19.2227 54.0083 19.5893 54.6284 19.9677 55.2193C12.2622 51.2099 6.79216 43.4774 5.9568 34.4219Z" fill="#868686"/>
</svg>
