<svg width="64" height="64" viewBox="0 0 64 64" fill="none" xmlns="http://www.w3.org/2000/svg">
<path fill-rule="evenodd" clip-rule="evenodd" d="M20.4 6H16.4C14.1627 6 13.0378 6 12.2499 6.56341L12.2387 6.57144L12.2366 6.57295C11.982 6.75799 11.758 6.98196 11.5729 7.23664L11.5714 7.23872L11.5634 7.24984C11 8.03779 11 9.16268 11 11.4V13.0483V15.4V18.6C11 18.7522 11 18.8992 11.0002 19.0413C11.0001 19.0413 11.0001 19.0413 11 19.0414V26.959L25.0776 36.2602C26.7902 37.3918 27.9455 38.1526 28.9011 38.6725C29.8185 39.1716 30.3935 39.3576 30.9006 39.4203C31.3202 39.4723 31.7443 39.4757 32.1647 39.4305C32.6727 39.3758 33.2507 39.1991 34.1759 38.7148C35.1397 38.2102 36.3071 37.468 38.0376 36.3641L53 26.8191V19.1817C52.9999 19.1816 52.9997 19.1815 52.9996 19.1814C53 18.9963 53 18.8027 53 18.6V15.4V13.2503V11.4C53 9.16271 53 8.03783 52.4366 7.24987L52.4286 7.23872L52.4271 7.23664C52.242 6.98196 52.018 6.75799 51.7634 6.57295L51.7613 6.57144L51.7502 6.56344C50.9622 6 49.8373 6 47.6 6H43.6H41.6347H21.6677H20.4ZM58 16.4816V15.4C58 9.40043 58 6.40064 56.4721 4.29772C55.9787 3.61856 55.3814 3.0213 54.7023 2.52786C52.5994 1 49.5996 1 43.6 1H20.4C14.4004 1 11.4006 1 9.29772 2.52786C8.61856 3.0213 8.0213 3.61856 7.52786 4.29772C6 6.40064 6 9.40043 6 15.4V16.3844C4.64717 17.3479 3.57667 18.2694 2.78767 19.4423C2.40176 20.016 2.07345 20.6264 1.80754 21.2646C0.9961 23.2122 0.99764 25.3742 0.999718 28.2908L0.999932 28.7451V45.6001L0.99993 45.7406C0.999876 48.6209 0.999832 50.9839 1.20546 52.8818C1.41949 54.8573 1.88008 56.6232 3.00525 58.1719C3.65289 59.0633 4.43679 59.8472 5.32819 60.4948C6.87685 61.62 8.6428 62.0806 10.6183 62.2946C12.5162 62.5002 14.879 62.5002 17.7594 62.5001H17.7594H17.8999H46.0999H46.2404H46.2405C49.1208 62.5002 51.4837 62.5002 53.3816 62.2946C55.3571 62.0806 57.123 61.62 58.6717 60.4948C59.5631 59.8472 60.347 59.0633 60.9946 58.1719C62.1198 56.6232 62.5804 54.8573 62.7944 52.8818C63 50.9839 63 48.621 62.9999 45.7407V45.7406V45.6001V28.8945L63.0002 28.4313V28.4313C63.0023 25.4616 63.0039 23.2603 62.1662 21.2856C61.8918 20.6387 61.5532 20.021 61.1554 19.4418C60.3717 18.3006 59.3204 17.4033 58 16.4816ZM5.99993 29.6481V45.6001C5.99993 48.6556 6.00336 50.7464 6.17637 52.3432C6.34431 53.8933 6.64764 54.6787 7.05034 55.2329C7.38958 55.6999 7.80019 56.1105 8.26711 56.4497C8.82138 56.8524 9.60678 57.1557 11.1568 57.3237C12.7537 57.4967 14.8445 57.5001 17.8999 57.5001H46.0999C49.1554 57.5001 51.2462 57.4967 52.843 57.3237C54.3931 57.1557 55.1785 56.8524 55.7327 56.4497C56.1997 56.1105 56.6103 55.6999 56.9495 55.2329C57.3522 54.6787 57.6556 53.8933 57.8235 52.3432C57.9965 50.7464 57.9999 48.6556 57.9999 45.6001V29.5603L40.7267 40.5794L40.6384 40.6357L40.6384 40.6357L40.638 40.636C39.0182 41.6693 37.6709 42.5289 36.4949 43.1445C35.2588 43.7916 34.0567 44.2558 32.6994 44.4018C31.897 44.4881 31.0872 44.4816 30.2863 44.3825C28.9316 44.2147 27.737 43.7313 26.5115 43.0645C25.3453 42.43 24.0118 41.5489 22.4085 40.4895L22.3213 40.4319L5.99993 29.6481Z" fill="#868686"/>
<path d="M17.0002 16.7118C16.9998 16.6954 17.0002 16.7282 17.0002 16.7118V16.7118ZM46.7892 16.7118C46.6687 22.6474 43.2662 28.2523 36.9504 32.9599C33.9736 35.1787 29.8157 35.1787 26.8389 32.9599C20.5231 28.2523 17.1206 22.6474 17.0002 16.7118C17.0235 8.90493 26.5422 5.04362 31.8947 10.6696C37.25 5.0412 46.7671 8.90929 46.7892 16.7118ZM41.9454 16.6192C41.6887 11.5571 34.5058 11.6163 34.3165 16.7118C34.3165 18.0494 33.2323 19.1337 31.8947 19.1337C30.5571 19.1337 29.4728 18.0494 29.4728 16.7118C29.2833 11.614 22.0984 11.56 21.8439 16.6192C21.9692 22.1471 26.2018 26.4436 29.7336 29.0762C31.0058 30.0246 32.7832 30.0246 34.0556 29.0762C37.5875 26.4436 41.8201 22.1471 41.9454 16.6192ZM46.7892 16.7118C46.7892 16.7282 46.7895 16.6954 46.7892 16.7118V16.7118Z" fill="#EB5757"/>
</svg>
