<svg width="64" height="64" viewBox="0 0 64 64" fill="none" xmlns="http://www.w3.org/2000/svg">
<path fill-rule="evenodd" clip-rule="evenodd" d="M20.2001 1.00001L20.0765 1.00001C18.6826 0.999911 17.4419 0.999826 16.4246 1.11005C15.3305 1.22858 14.2024 1.4982 13.1795 2.2414C12.6277 2.64232 12.1424 3.12759 11.7415 3.67941C10.9983 4.70234 10.7286 5.83045 10.6101 6.92454C10.4999 7.94187 10.5 9.18253 10.5001 10.5765L10.5001 10.7V16.625L7.75986 18.6802L7.42215 18.9332C5.24372 20.5648 3.62884 21.7743 2.58359 23.455C2.24055 24.0066 1.94943 24.5888 1.71398 25.1942C0.996583 27.0388 0.997932 29.0564 0.999753 31.7781L0.99994 32.2001V45.6002L0.999938 45.7406C0.999884 48.621 0.99984 50.9839 1.20547 52.8818C1.4195 54.8573 1.88009 56.6232 3.00526 58.1719C3.6529 59.0633 4.4368 59.8472 5.32819 60.4948C6.87686 61.62 8.64281 62.0806 10.6183 62.2946C12.5162 62.5003 14.8791 62.5002 17.7594 62.5002H17.7594H17.8999H46.0999H46.2404H46.2405C49.1208 62.5002 51.4837 62.5003 53.3816 62.2946C55.3571 62.0806 57.123 61.62 58.6717 60.4948C59.5631 59.8472 60.347 59.0633 60.9946 58.1719C62.1198 56.6232 62.5804 54.8573 62.7944 52.8818C63 50.9839 63 48.621 62.9999 45.7407V45.7407V45.6002V32.3516L63.0001 31.9206C63.002 29.1445 63.0034 27.0867 62.2602 25.2128C62.0163 24.5981 61.715 24.0078 61.3601 23.4497C60.2783 21.7487 58.6108 20.5429 56.3613 18.9162L56.3612 18.9162L56.012 18.6636L53.5001 16.8446L53.5001 10.5764C53.5002 9.1825 53.5003 7.94186 53.39 6.92454C53.2715 5.83045 53.0019 4.70233 52.2587 3.6794C51.8578 3.12759 51.3725 2.64232 50.8207 2.2414C49.7977 1.4982 48.6696 1.22858 47.5755 1.11005C46.5582 0.999826 45.3176 0.999911 43.9236 1.00001L20.2001 1.00001ZM53.5 23.0183C53.4902 24.3906 52.3747 25.5 51.0001 25.5C49.6194 25.5 48.5001 24.3807 48.5001 23V10.7C48.5001 9.14443 48.4966 8.17856 48.4191 7.4631C48.3475 6.80213 48.2369 6.65033 48.2144 6.61937L48.2136 6.61834C48.1211 6.49099 48.0091 6.379 47.8818 6.28649L47.8807 6.28573C47.8498 6.26317 47.6979 6.15257 47.037 6.08096C46.3215 6.00344 45.3557 6.00001 43.8001 6.00001H20.2001C18.6445 6.00001 17.6786 6.00344 16.9632 6.08096C16.3022 6.15257 16.1504 6.26317 16.1194 6.28573L16.1184 6.28649C15.9911 6.379 15.8791 6.49099 15.7865 6.61833L15.7858 6.61937C15.7632 6.65034 15.6526 6.80216 15.581 7.4631C15.5035 8.17856 15.5001 9.14443 15.5001 10.7V23C15.5001 24.3807 14.3808 25.5 13.0001 25.5C11.6194 25.5 10.5001 24.3807 10.5001 23V22.8752C9.25722 23.8091 8.45278 24.4287 7.90033 24.911L25.0776 36.2603C26.7902 37.3919 27.9455 38.1526 28.9011 38.6726C29.8185 39.1717 30.3935 39.3576 30.9006 39.4204C31.3202 39.4724 31.7443 39.4758 32.1647 39.4306C32.6727 39.3759 33.2507 39.1992 34.1759 38.7149C35.1397 38.2103 36.3071 37.4681 38.0376 36.3642L55.9953 24.9084C55.449 24.4498 54.6702 23.8686 53.5 23.0183ZM6.02016 29.6616C6.00397 30.3198 5.99994 31.1427 5.99994 32.2001V45.6002C5.99994 48.6556 6.00337 50.7464 6.17638 52.3433C6.34432 53.8933 6.64765 54.6787 7.05035 55.233C7.38958 55.6999 7.8002 56.1105 8.26712 56.4497C8.82138 56.8524 9.60679 57.1558 11.1568 57.3237C12.7537 57.4967 14.8445 57.5002 17.8999 57.5002H46.0999C49.1554 57.5002 51.2462 57.4967 52.843 57.3237C54.3931 57.1558 55.1785 56.8524 55.7328 56.4497C56.1997 56.1105 56.6103 55.6999 56.9495 55.233C57.3522 54.6787 57.6556 53.8933 57.8235 52.3433C57.9965 50.7464 57.9999 48.6556 57.9999 45.6002V32.3516C57.9999 31.1714 57.9949 30.2776 57.9739 29.5769L40.7267 40.5795L40.6384 40.6358L40.6384 40.6358L40.638 40.6361C39.0182 41.6694 37.6709 42.5289 36.4949 43.1446C35.2588 43.7916 34.0567 44.2559 32.6994 44.4019C31.897 44.4882 31.0872 44.4817 30.2863 44.3825C28.9316 44.2148 27.737 43.7314 26.5115 43.0646C25.3453 42.4301 24.0118 41.5489 22.4085 40.4896L22.3213 40.432L6.02016 29.6616Z" fill="#868686"/>
<path d="M29.4766 23.3203V29.375C29.4766 30.7122 30.5607 31.7969 31.8984 31.7969C33.2361 31.7969 34.3203 30.7127 34.3203 29.375V23.3203H40.375C41.7127 23.3203 42.7969 22.2361 42.7969 20.8984C42.7969 19.5607 41.7127 18.4766 40.375 18.4766H34.3203V12.4219C34.3203 11.0842 33.2361 10 31.8984 10C30.5607 10 29.4766 11.0842 29.4766 12.4219V18.4766H23.4219C22.0842 18.4766 21 19.5607 21 20.8984C21 22.2361 22.0842 23.3203 23.4219 23.3203H29.4766Z" fill="#EB5757"/>
</svg>
