<svg width="64" height="64" viewBox="0 0 64 64" fill="none" xmlns="http://www.w3.org/2000/svg">
<path fill-rule="evenodd" clip-rule="evenodd" d="M40.7443 36.177C43.1043 32.2743 48.8961 32.2744 51.2561 36.177L61.8993 53.777C64.4143 57.9358 61.1363 62.75 56.6434 62.75H35.357C30.8641 62.75 27.5861 57.9358 30.1011 53.777L40.7443 36.177ZM46.0002 38.75C45.7187 38.75 45.5407 38.8741 45.4507 39.023L34.8074 56.623C34.7547 56.7102 34.7496 56.7657 34.7502 56.7996C34.751 56.8431 34.7643 56.9057 34.8074 56.977C34.89 57.1135 35.0604 57.25 35.357 57.25H56.6434C56.94 57.25 57.1104 57.1135 57.193 56.977C57.2361 56.9057 57.2494 56.8431 57.2502 56.7996C57.2508 56.7657 57.2457 56.7102 57.193 56.623L46.5497 39.023C46.4597 38.8741 46.2817 38.75 46.0002 38.75Z" fill="#EB5757"/>
<path d="M20.7551 58.9177L6.53857 50.9491C6.47749 50.9134 4.24432 49.3202 4.15545 49.2336C2.76551 47.8781 2 46.0651 2 44.1288C2 40.1872 5.22348 36.9804 9.18564 36.9804C9.98457 36.9804 10.7702 37.1105 11.5209 37.3671C11.5478 37.3763 19.5252 40.4234 19.5252 40.4234C19.5334 40.4264 19.5409 40.4289 19.5475 40.4311C20.8466 40.3162 21.6408 38.6044 21.6408 37.3922V11.4844C21.6408 7.73977 24.703 4.69335 28.4671 4.69335C29.3713 4.69335 30.2342 4.87075 31.0246 5.18969C32.0529 2.73242 34.4912 1 37.3294 1C40.3649 1 42.9427 2.98178 43.8275 5.7126C44.5645 5.43905 45.3609 5.28905 46.1917 5.28905C49.4486 5.28905 52.1783 7.58739 52.8553 10.6501C53.5327 10.4163 54.249 10.293 54.9855 10.293C59.0499 10.293 62 13.1523 62 17.0917V35.0095C62 36.3255 60.9277 37.3923 59.6048 37.3923C58.2819 37.3923 57.2096 36.3255 57.2096 35.0095V17.0917C57.2096 15.2567 55.6542 15.0586 54.9855 15.0586C53.826 15.0586 53.0179 16.2153 53.0179 17.2535V23.6367C53.0179 24.9527 51.9456 26.0195 50.6227 26.0195C49.2999 26.0195 48.2275 24.9527 48.2275 23.6367V12.1305C48.2275 10.9859 47.3142 10.0547 46.1916 10.0547C45.0689 10.0547 44.1557 10.9859 44.1557 12.1305V22.9218C44.1557 24.2379 43.0833 25.3046 41.7604 25.3046C40.4376 25.3046 39.3652 24.2379 39.3652 22.9218V7.791C39.3652 6.67418 38.4519 5.76562 37.3293 5.76562C36.2067 5.76562 35.2934 6.67418 35.2934 7.791V26.1386C35.2934 27.4546 34.221 28.5214 32.8981 28.5214C31.5753 28.5214 30.5029 27.4546 30.5029 26.1386V11.4844C30.5029 10.3675 29.5896 9.45897 28.467 9.45897C27.3444 9.45897 26.4311 10.3675 26.4311 11.4844V37.3923C26.4311 41.0225 23.8392 45.0391 19.6518 45.1982C19.0667 45.2207 18.4793 45.1196 17.8544 44.89C17.8448 44.8864 17.8354 44.8829 17.8258 44.8793L9.93044 41.863C9.69211 41.7853 9.44157 41.746 9.18564 41.746C7.86492 41.746 6.79043 42.8149 6.79043 44.1288C6.79043 44.7224 7.00624 45.2813 7.40145 45.7188L9.05618 46.8932L23.2083 54.8242C23.2267 54.835 26.5 55 23.2633 54.8573C26 57 23.2083 60.1413 20.7551 58.9177Z" fill="#868686"/>
</svg>
