<svg width="64" height="64" viewBox="0 0 64 64" fill="none" xmlns="http://www.w3.org/2000/svg">
<path d="M17.9858 50.1021C18.0463 50.3164 18.0771 50.5373 18.0771 50.7601V60.5668C18.0771 61.904 16.9929 62.9882 15.6557 62.9882C14.3179 62.9882 13.2343 61.904 13.2343 60.5668V51.0954L10.4193 41.127C10.3138 40.7528 10.2996 40.3593 10.3786 39.9785L12.5578 29.4452C12.8289 28.1359 14.1098 27.2939 15.4196 27.5645C16.7289 27.8355 17.5714 29.1169 17.3004 30.4267L15.2408 40.3805L17.9858 50.1021ZM5.84895 8.26421C5.84895 4.25865 9.1076 1 13.1132 1C17.1187 1 20.3774 4.25865 20.3774 8.26421C20.3774 12.2698 17.1187 15.5284 13.1132 15.5284C9.1076 15.5284 5.84895 12.2698 5.84895 8.26421ZM10.6918 8.26421C10.6918 9.59955 11.7778 10.6856 13.1132 10.6856C14.448 10.6856 15.5346 9.59955 15.5346 8.26421C15.5346 6.92886 14.448 5.8428 13.1132 5.8428C11.7778 5.8428 10.6918 6.92886 10.6918 8.26421Z" fill="#868686"/>
<path d="M34.1601 35.7659C35.1265 34.7995 35.1022 33.2255 34.1065 32.2895L21.7406 20.6645C19.9256 18.9138 17.5383 17.9498 15.0161 17.9498H11.074C7.59819 17.9498 4.60538 20.4195 3.94314 23.8281L1.37842 35.5013C1.37321 35.525 1.36848 35.5481 1.36423 35.5718C0.854307 38.2746 0.879851 41.0101 1.44086 43.7021C1.44795 43.7362 1.45599 43.7702 1.46451 43.8033L3.34903 51.2369L1.08372 59.958C0.747404 61.2522 1.52411 62.5738 2.81877 62.9101C4.11296 63.246 5.43458 62.4697 5.7709 61.1756L8.1923 51.8528C8.29495 51.4583 8.2959 51.0444 8.19609 50.6489L6.17155 42.6657C5.7534 40.6251 5.73448 38.5523 6.11621 36.5041L8.67999 24.8356C8.68519 24.8124 8.68992 24.7888 8.69465 24.7651C8.91035 23.6223 9.91079 22.7926 11.074 22.7926H15.0161C16.28 22.7926 17.4758 23.2765 18.384 24.1554C18.3911 24.1625 18.3982 24.1691 18.4053 24.1757L30.7895 35.8179C31.7426 36.7139 33.2351 36.6909 34.1601 35.7659Z" fill="#868686"/>
<path d="M62.5355 43.8038L60.651 51.2369L62.9163 59.958C63.2526 61.2522 62.4754 62.5743 61.1812 62.9106C60.9774 62.9636 60.7725 62.9886 60.571 62.9886C59.4944 62.9886 58.512 62.2659 58.2286 61.1756L55.8072 51.8532C55.705 51.4583 55.7036 51.0444 55.8039 50.6494L57.828 42.6657C58.2466 40.6251 58.2655 38.5523 57.8833 36.5041L55.3195 24.8356L55.3053 24.7651C55.0896 23.6223 54.0892 22.7926 52.926 22.7926H48.9834C47.72 22.7926 46.5237 23.2765 45.616 24.1554C45.6089 24.1625 45.6018 24.1691 45.5947 24.1757L37.2545 32.2679C36.844 32.6662 36.1838 32.6397 35.8065 32.2099L33.9307 30.0725C33.5793 29.672 33.6035 29.0664 33.9858 28.6953L42.2594 20.6645C44.0739 18.9138 46.4612 17.9498 48.9834 17.9498H52.926C56.4018 17.9498 59.3946 20.4195 60.0569 23.8281L62.6216 35.5013C62.6268 35.525 62.6315 35.5486 62.6358 35.5723C63.1457 38.2746 63.1201 41.0101 62.5591 43.7026C62.552 43.7362 62.544 43.7702 62.5355 43.8038Z" fill="#F7B801"/>
<path d="M48.5804 27.5645C49.8897 27.2934 51.1711 28.1359 51.4422 29.4452L53.6214 39.9785C53.7004 40.3593 53.6862 40.7528 53.5807 41.127L50.7657 51.0954V60.5668C50.7657 61.904 49.6821 62.9882 48.3443 62.9882C47.0071 62.9882 45.9229 61.904 45.9229 60.5668V50.7601C45.9229 50.5373 45.9537 50.3164 46.0142 50.1021L48.7592 40.3801L46.6996 30.4263C46.4286 29.1169 47.2706 27.8355 48.5804 27.5645Z" fill="#F7B801"/>
<path fill-rule="evenodd" clip-rule="evenodd" d="M43.6226 8.26421C43.6226 4.25865 46.8813 1 50.8868 1C54.8924 1 58.151 4.25865 58.151 8.26421C58.151 12.2698 54.8924 15.5284 50.8868 15.5284C46.8813 15.5284 43.6226 12.2698 43.6226 8.26421ZM50.8868 10.6856C49.552 10.6856 48.4654 9.59955 48.4654 8.26421C48.4654 6.92886 49.552 5.8428 50.8868 5.8428C52.2222 5.8428 53.3082 6.92886 53.3082 8.26421C53.3082 9.59955 52.2222 10.6856 50.8868 10.6856Z" fill="#F7B801"/>
</svg>
