<svg width="64" height="64" viewBox="0 0 64 64" fill="none" xmlns="http://www.w3.org/2000/svg">
<path d="M49.7421 28.5102C45.5977 28.5102 41.8368 31.5393 40.7993 35.7126C40.7816 35.7836 39.9271 41.2035 39.9271 41.2035C39.8906 41.3087 39.8134 41.4206 39.5697 41.4104C39.2812 41.3991 39.2381 41.2367 39.2172 41.1175L37.2238 27.5324C37.2214 27.5164 37.2189 27.5004 37.2163 27.4844C36.7904 24.9287 34.6858 23.1921 32.094 23.2593C29.5475 23.3262 27.5596 25.1112 27.2167 27.6181C27.2167 27.6181 25.3201 36.8153 25.3148 36.8468C25.2948 36.9669 25.2646 37.2458 24.9589 37.2578C24.6539 37.2721 24.6088 36.9939 24.5794 36.8757C24.5601 36.7977 24.1351 35.5849 24.1351 35.5849C23.0766 31.6075 18.9819 28.5104 14.75 28.5104C13.3692 28.5104 12.25 29.6296 12.25 31.0104C12.25 32.3912 13.3692 33.5104 14.75 33.5104C16.7308 33.5104 18.8643 35.1032 19.3155 36.9189C19.3349 36.9969 19.762 38.2157 19.762 38.2157C20.4093 40.5711 22.5652 42.1331 25.0001 42.133C27.5561 42.0326 29.7934 40.2363 30.2375 37.7231C30.2375 37.7231 32.1735 28.2754 32.176 28.2636C32.2056 28.257 32.2448 28.256 32.2745 28.261C32.2768 28.2695 34.2789 41.903 34.2815 41.919C34.7053 44.4601 36.8753 46.3828 39.5003 46.3828C42.0003 46.3828 44.1978 44.7604 44.8015 42.3319C44.8192 42.2609 45.6762 36.8242 45.6762 36.8242C46.192 34.9283 47.9234 33.5103 49.742 33.5103C53.0582 33.3789 53.0574 28.6414 49.7421 28.5102Z" fill="#868686"/>
<path d="M32.0016 61.3678C28.453 61.368 24.9052 60.2193 21.9418 57.921C21.9385 57.9184 21.9352 57.9159 21.9318 57.9133C15.4637 52.8869 10.3322 47.4784 6.67943 41.8384C2.24739 34.9947 0 27.8113 0 20.4878C0 10.6424 7.73844 2.63246 17.2501 2.63246C22.9407 2.59396 28.643 5.49761 31.9499 10.1641C41.9671 -3.59659 63.8264 2.59721 64 20.5365C63.6677 37.6005 51.8903 50.2807 42.0687 57.9133C39.1054 60.2162 35.5533 61.3675 32.0016 61.3678ZM24.9948 53.9612L24.9957 53.9619C29.1196 57.1671 34.8785 57.1685 39.0007 53.9652C47.9575 47.0046 58.6952 35.5436 59.0005 20.4641C58.9883 13.3863 53.4977 7.6325 46.7504 7.6325C39.7392 7.6325 34.5003 12.912 34.5003 17.6326C34.5003 19.0133 33.381 20.1326 32.0003 20.1326C30.6195 20.1326 29.5002 19.0133 29.5002 17.6326C29.4256 12.168 22.6869 7.4035 17.2501 7.63262C10.4955 7.6325 5.00004 13.3994 5.00004 20.4878C5.00004 35.3087 15.872 46.8706 24.9948 53.9612Z" fill="#43B02A"/>
</svg>
