<svg width="64" height="64" viewBox="0 0 64 64" fill="none" xmlns="http://www.w3.org/2000/svg">
<path fill-rule="evenodd" clip-rule="evenodd" d="M25.5 12.75C24.3457 12.75 23.25 13.8072 23.25 15.1401C23.25 16.0799 22.666 16.9206 21.7853 17.2486C14.8875 19.8178 10.25 25.5103 10.25 33.4999C10.25 33.8255 10.1793 34.1472 10.0429 34.4428L8.51655 37.7499H13C13.6865 37.7499 14.3353 38.0633 14.7621 38.6008C14.7627 38.6016 14.7633 38.6023 14.7639 38.6031C14.7643 38.6035 14.7646 38.6039 14.7649 38.6043C14.7649 38.6043 14.7649 38.6044 14.7649 38.6043C14.7646 38.6039 14.7643 38.6035 14.7639 38.6031L14.7683 38.6085C14.7761 38.6181 14.7911 38.6364 14.813 38.6626C14.857 38.7151 14.929 38.7996 15.0286 38.9114C15.2279 39.1351 15.5371 39.4676 15.953 39.8728C16.7862 40.6846 18.0389 41.7801 19.6856 42.8778C22.9774 45.0724 27.7999 47.2499 34 47.2499C43.4769 47.2499 51.4407 44.4125 56.3979 41.2941C55.8671 40.8149 55.2745 40.2773 54.6679 39.7218C53.6726 38.8102 52.6307 37.8426 51.7593 37.0032C50.9361 36.2101 50.1334 35.4078 49.724 34.8813C49.4168 34.4864 49.25 34.0003 49.25 33.4999C49.25 25.8049 45.6834 20.4138 40.0333 17.7255C38.9112 17.1916 38.4344 15.8492 38.9683 14.7271C39.5022 13.605 40.8446 13.1281 41.9667 13.662C49.081 17.047 53.4668 23.7732 53.7368 32.6268C54.0138 32.9141 54.398 33.2967 54.8813 33.7623C55.7131 34.5635 56.7233 35.5021 57.7071 36.4031C58.6891 37.3024 59.636 38.1562 60.338 38.7857C60.6889 39.1003 60.978 39.3584 61.1793 39.5377L61.4922 39.816C61.9888 40.2561 62.266 40.8933 62.2493 41.5567C62.2325 42.2201 61.9238 42.8423 61.4056 43.2569C55.979 47.5981 45.9853 51.7499 34 51.7499C26.7001 51.7499 21.0226 49.1775 17.1894 46.622C15.2736 45.3448 13.8075 44.0652 12.8126 43.0958C12.4862 42.7778 12.2096 42.4922 11.9835 42.2499H5.00001C4.2327 42.2499 3.51829 41.8589 3.10475 41.2126C2.69121 40.5662 2.63555 39.7537 2.9571 39.0571L5.75507 32.9948C5.94217 23.6931 11.2959 16.8691 18.9395 13.5457C19.6459 10.6036 22.2536 8.25 25.5 8.25H27.4306C30.7851 8.25 33.8394 10.1829 35.2755 13.2145L38.0334 19.0368C38.5654 20.1598 38.0862 21.5015 36.9632 22.0334C35.8402 22.5654 34.4986 22.0862 33.9666 20.9632L31.2087 15.1409C30.5171 13.6809 29.0461 12.75 27.4306 12.75H25.5Z" fill="#FE7333"/>
<path fill-rule="evenodd" clip-rule="evenodd" d="M46.757 35.5944C47.5332 36.5647 47.3759 37.9806 46.4056 38.7569C44.7894 40.0498 42.1653 41.1637 39.296 41.7102C36.3914 42.2635 32.9611 42.2891 29.7311 41.1145C28.5633 40.6898 27.9608 39.3989 28.3855 38.231C28.8101 37.0632 30.1011 36.4608 31.2689 36.8854C33.5389 37.7109 36.1086 37.7364 38.454 37.2897C40.8347 36.8362 42.7106 35.9501 43.5944 35.243C44.5648 34.4667 45.9807 34.6241 46.757 35.5944Z" fill="#868686"/>
<path fill-rule="evenodd" clip-rule="evenodd" d="M7 43.25C8.24264 43.25 9.25 44.2574 9.25 45.5V46C9.25 47.5188 10.4812 48.75 12 48.75H17C18.2426 48.75 19.25 49.7574 19.25 51C19.25 52.2426 18.2426 53.25 17 53.25H12C7.99594 53.25 4.75 50.0041 4.75 46V45.5C4.75 44.2574 5.75736 43.25 7 43.25Z" fill="#868686"/>
</svg>
