<svg width="64" height="64" viewBox="0 0 64 64" fill="none" xmlns="http://www.w3.org/2000/svg">
<path d="M60.5781 33.4862C61.1954 33.4862 61.8126 33.2516 62.2852 32.7824C63.2341 31.8401 63.2388 30.3066 62.2961 29.3577L37.0613 3.95643C37.0292 3.92379 36.9956 3.8921 36.9615 3.86136C34.2062 1.38745 30.0422 1.37847 27.2759 3.84102C27.2419 3.87176 27.2083 3.90345 27.1756 3.93562L1.71101 29.3501C0.764496 30.2952 0.762604 31.8287 1.7077 32.7753C2.6528 33.7223 4.18633 33.7237 5.13285 32.7786L7.05474 30.8605V51.7713C7.05474 57.1132 11.4004 61.4588 16.7422 61.4588H23.5781C24.9157 61.4588 26 60.3745 26 59.0369C26 57.6994 24.9157 56.6151 23.5781 56.6151H16.7422C14.0715 56.6151 11.8985 54.442 11.8985 51.7713V26.0995C11.8985 26.0759 11.8956 26.0532 11.8952 26.0295L30.5403 7.42132C31.4475 6.65076 32.7786 6.6536 33.6825 7.42794L52.1015 25.9685L56.9453 30.8439L58.86 32.7715C59.3335 33.2478 59.9556 33.4862 60.5781 33.4862Z" fill="#868686"/>
<path d="M50.5 52C51.8804 52 53 50.8809 53 49.5C53 48.1191 51.8804 47 50.5 47H48V44.5C48 43.1191 46.8804 42 45.5 42C44.1191 42 43 43.1191 43 44.5V47H40.5C39.1191 47 38 48.1191 38 49.5C38 50.8809 39.1191 52 40.5 52H43V54.5C43 55.8809 44.1191 57 45.5 57C46.8804 57 48 55.8809 48 54.5V52H50.5Z" fill="#EB5757"/>
<path fill-rule="evenodd" clip-rule="evenodd" d="M41.3848 36C41.8224 34.4144 43.2752 33.25 45 33.25H45.5H46C47.7248 33.25 49.1776 34.4144 49.6152 36H41.3848ZM36.81 36C37.3035 31.9152 40.7821 28.75 45 28.75H45.5H46C50.2179 28.75 53.6965 31.9152 54.19 36H57C60.3137 36 63 38.6863 63 42V57C63 60.3137 60.3137 63 57 63H34C30.6863 63 28 60.3137 28 57V42C28 38.6863 30.6863 36 34 36H36.81ZM32.5 42C32.5 41.1716 33.1716 40.5 34 40.5H57C57.8284 40.5 58.5 41.1716 58.5 42V43.969C58.4758 44.0161 58.4531 44.0643 58.4319 44.1137C57.9459 45.2478 57.3302 45.5599 56.976 45.678C56.7609 45.7497 56.5666 45.7708 56.4345 45.7742C56.3731 45.7758 56.331 45.7733 56.3144 45.7721C55.1094 45.6014 53.9818 46.4229 53.7806 47.6301C53.5763 48.8558 54.4044 50.0151 55.6301 50.2194L56 48C55.6301 50.2194 55.6314 50.2196 55.6328 50.2198L55.6355 50.2203L55.6413 50.2212L55.6537 50.2232L55.6821 50.2275L55.7149 50.2321L55.7535 50.2372C55.8073 50.244 55.8736 50.2511 55.9514 50.2574C56.1064 50.2699 56.3094 50.2789 56.5499 50.2727C57.0272 50.2605 57.6766 50.1878 58.399 49.947C58.4326 49.9358 58.4663 49.9243 58.5 49.9124V57C58.5 57.8284 57.8284 58.5 57 58.5H34C33.1716 58.5 32.5 57.8284 32.5 57V49.9124C32.5337 49.9243 32.5674 49.9358 32.601 49.947C33.3234 50.1878 33.9728 50.2605 34.4501 50.2727C34.6906 50.2789 34.8936 50.2699 35.0486 50.2574C35.1264 50.2511 35.1927 50.244 35.2465 50.2372C35.2734 50.2338 35.2973 50.2305 35.3179 50.2275L35.3463 50.2232L35.3587 50.2212L35.3645 50.2203L35.3672 50.2198C35.3686 50.2196 35.3699 50.2194 35 48L35.3699 50.2194C36.5956 50.0151 37.4237 48.8558 37.2194 47.6301C37.0182 46.4229 35.8906 45.6014 34.6856 45.7721C34.669 45.7733 34.6269 45.7758 34.5655 45.7742C34.4334 45.7708 34.2391 45.7497 34.024 45.678C33.6698 45.5599 33.0541 45.2478 32.5681 44.1137C32.5469 44.0643 32.5242 44.0161 32.5 43.969V42Z" fill="#868686"/>
</svg>
