<svg width="64" height="64" viewBox="0 0 64 64" fill="none" xmlns="http://www.w3.org/2000/svg">
<path fill-rule="evenodd" clip-rule="evenodd" d="M61.5 42.9828C62.8807 42.9828 64 41.8635 64 40.4828V39.9761C64 36.5403 62.0315 33.5555 59.1632 32.0904L59.0795 23.7527C59.0355 19.366 55.4681 15.833 51.0812 15.833C46.9181 15.833 42.1432 15.833 39.5 15.833C36.5164 15.833 33.8338 17.1465 32 19.2255C30.1663 17.1465 27.4836 15.833 24.5 15.833C22.0636 15.833 17.7824 15.833 13.8356 15.833C8.86502 15.833 4.83675 19.8624 4.83675 24.833V32.0905C1.9685 33.5556 0 36.5404 0 39.9761V52.9826C0 54.3634 1.11925 55.4826 2.5 55.4826H4.83675V57.7503C4.83675 59.131 5.956 60.2503 7.33675 60.2503C8.7175 60.2503 9.83675 59.131 9.83675 57.7503V55.4826H54.1631V57.7503C54.1631 59.131 55.2824 60.2503 56.6631 60.2503C58.0439 60.2503 59.1631 59.131 59.1631 57.7503V55.4826H61.5C62.8807 55.4826 64 54.3634 64 52.9826C64 51.6019 62.8807 50.4826 61.5 50.4826H5V39.9761C5 37.8573 6.72112 36.133 8.83875 36.1278H55.1613C57.2789 36.133 59 37.8573 59 39.9761V40.4828C59 41.8635 60.1193 42.9828 61.5 42.9828ZM9.83675 31.1278H29.5V25.8331C29.5 23.0761 27.257 20.8331 24.5 20.8331H14.8368C12.0798 20.8331 9.83675 23.0761 9.83675 25.8331V31.1278ZM34.5 25.8331V31.1278H54.1632V25.8331C54.1632 23.0761 51.9202 20.8331 49.1632 20.8331H39.5C36.743 20.8331 34.5 23.0761 34.5 25.8331Z" fill="#868686"/>
<path d="M49.1632 3.75C53.8446 3.75 57.785 7.70432 58.8683 12.2729C59.1869 13.6164 58.0439 14.75 56.6632 14.75C55.2824 14.75 54.1789 13.5932 53.6403 12.3219C52.8202 10.386 51.1213 8.75 49.1631 8.75H14.8367C12.8785 8.75 11.1796 10.386 10.3595 12.3219C9.82099 13.5932 8.71749 14.7499 7.3368 14.7499C5.95607 14.75 4.81313 13.6164 5.13169 12.2729C6.21495 7.70432 10.1554 3.75 14.8367 3.75H49.1632Z" fill="#F7B801"/>
</svg>
