<svg width="64" height="64" viewBox="0 0 64 64" fill="none" xmlns="http://www.w3.org/2000/svg">
<g clip-path="url(#clip0_2_3458)">
<path d="M0.842839 47.7233C2.46992 44.5978 6.15317 43.2796 9.60073 44.5874C12.0052 45.5 14.9451 46.6155 18.1451 47.498C17.8498 46.0771 17.997 44.5724 18.5873 43.1417C19.4479 41.0559 21.2164 39.504 23.4394 38.8841C24.5761 38.5672 25.8096 38.4958 27.1058 38.6722C35.6555 39.8348 40.7466 36.9439 45.2386 34.393C48.2575 32.6785 51.1091 31.0591 54.4474 31.0591C58.3443 31.0591 62.1803 32.4208 62.1803 32.4208C63.4956 32.8324 64.2282 34.2325 63.8164 35.5478C63.4048 36.8632 62.0046 37.5953 60.6894 37.184C60.6894 37.184 57.4995 36.0501 54.4474 36.0501C52.4275 36.0501 50.3427 37.234 47.7031 38.733C43.7507 40.9775 38.5614 43.9251 30.8474 43.9248C29.4604 43.9248 27.9907 43.8294 26.433 43.6175C25.8232 43.5347 25.2515 43.5602 24.7801 43.6916C24.254 43.8384 23.5532 44.1924 23.2012 45.0453C22.9282 45.7069 22.9146 46.3259 23.1606 46.8851C23.4624 47.5713 24.1505 48.1399 25.0975 48.4861C26.4618 48.985 28.4078 49.2513 30.6152 49.2763C32.9892 49.2913 35.3064 49.0201 37.3428 48.4849C38.6759 48.1343 40.0404 48.9312 40.3907 50.2642C40.741 51.5972 39.9443 52.9617 38.6114 53.312C36.226 53.9388 33.4852 54.2674 30.6153 54.2674C21.1281 54.2268 13.0061 51.2182 7.82991 49.2536C6.96247 48.9247 5.76799 49.0715 5.24743 50.0714C4.77927 50.9707 5.1239 52.09 6.0158 52.5664C12.2789 55.9124 19.5467 59.0089 30.2269 59.0089C39.7347 59.0089 48.4925 55.3399 54.165 52.262C58.5349 49.8907 61.7279 50.6398 62.0777 50.7331L62.0735 50.7488C63.1418 51.0313 63.9304 52.0017 63.9304 53.1587C63.9304 54.537 62.8131 55.6543 61.4348 55.6543C61.1943 55.6543 60.9624 55.6183 60.7422 55.5548C60.316 55.5043 58.7776 55.4375 56.5453 56.6488C50.3647 60.0023 40.7817 63.9999 30.2269 63.9999C16.825 63.9999 7.93585 59.2508 3.66402 56.9686C0.370563 55.2094 -0.881687 51.0362 0.842839 47.7233Z" fill="#868686"/>
<path d="M7.40769 39.1696C6.02941 39.1696 4.91217 38.0524 4.91217 36.6741V24.2604C4.91217 19.6199 7.11509 15.1693 10.8048 12.355L22.9012 3.06278C28.2544 -1.02001 35.7224 -1.02014 41.069 3.05766L53.294 12.3527C57.0419 15.2113 59.1897 19.5273 59.1897 24.1965C59.1897 25.5747 58.0724 26.6921 56.6941 26.6921C55.3159 26.6921 54.1986 25.5747 54.1986 24.1965C54.1986 21.0974 52.7667 18.2277 50.2702 16.3234L38.0451 7.0284C34.4779 4.30754 29.4992 4.30766 25.9349 7.02603L13.8385 16.3182C11.3718 18.1996 9.9032 21.1666 9.9032 24.2603V36.674C9.9032 38.0524 8.78596 39.1696 7.40769 39.1696ZM26.9975 15.8366C25.2747 15.8366 23.8781 17.2332 23.8781 18.956C23.8781 20.6787 25.2747 22.0754 26.9975 22.0754C28.7203 22.0754 30.1169 20.6787 30.1169 18.956C30.1169 17.2332 28.7203 15.8366 26.9975 15.8366ZM40.099 18.956C40.099 20.6787 38.7023 22.0754 36.9796 22.0754C35.2568 22.0754 33.8602 20.6787 33.8602 18.956C33.8602 17.2332 35.2568 15.8366 36.9796 15.8366C38.7023 15.8366 40.099 17.2332 40.099 18.956ZM30.1169 28.938C30.1169 30.6608 28.7203 32.0574 26.9975 32.0574C25.2747 32.0574 23.8781 30.6608 23.8781 28.938C23.8781 27.2153 25.2747 25.8186 26.9975 25.8186C28.7203 25.8186 30.1169 27.2153 30.1169 28.938ZM40.099 28.938C40.099 30.6608 38.7023 32.0574 36.9796 32.0574C35.2568 32.0574 33.8602 30.6608 33.8602 28.938C33.8602 27.2153 35.2568 25.8186 36.9796 25.8186C38.7023 25.8186 40.099 27.2153 40.099 28.938Z" fill="#43B02A"/>
</g>
<defs>
<clipPath id="clip0_2_3458">
<rect width="64" height="64" fill="white"/>
</clipPath>
</defs>
</svg>
