<svg width="64" height="64" viewBox="0 0 64 64" fill="none" xmlns="http://www.w3.org/2000/svg">
<path d="M43.5625 14.668V11.0938C43.5625 5.83806 39.3758 1.5625 34.2292 1.5625H10.8958C5.74928 1.5625 1.5625 5.83806 1.5625 11.0938V55.4141C1.5625 59.3559 4.70248 62.5625 8.56249 62.5625H8.76573C10.0544 62.5625 11.0991 61.4957 11.0991 60.1797C11.0991 58.8637 10.0544 57.7969 8.76573 57.7969H8.56249C7.27597 57.7969 6.22917 56.7278 6.22917 55.4141V11.0938C6.22917 8.46614 8.32279 6.32813 10.8958 6.32813H34.2292C36.8021 6.32813 38.8959 8.46614 38.8959 11.0938V27.712C38.8959 29.028 39.9405 30.0948 41.2292 30.0948C42.5179 30.0948 43.5625 29.028 43.5625 27.712V19.4336V14.668Z" fill="#868686"/>
<path d="M52.875 19.2397H48.9844C47.6468 19.2397 46.5625 18.1927 46.5625 16.9011C46.5625 15.6095 47.6468 14.5625 48.9844 14.5625H52.875C58.2169 14.5625 62.5625 18.7587 62.5625 23.9169V42.8596V46.507C62.5625 47.4513 60.747 47.9301 60.0948 47.2264C59.52 46.6065 58.9501 46.0915 58.4683 45.7043C58.0151 45.34 57.7188 44.8118 57.7188 44.2424V42.8596V23.9169C57.7188 21.338 55.5456 19.2397 52.875 19.2397Z" fill="#868686"/>
<path d="M57.1045 47.6248C56.1076 46.7758 55.0157 46.0646 53.8591 45.5006C55.1718 43.9167 55.9675 41.8618 55.9675 39.6167C55.9675 34.6242 52.0409 30.5625 47.2145 30.5625C42.3882 30.5625 38.4618 34.6242 38.4618 39.6167C38.4618 41.8618 39.2575 43.9167 40.57 45.5006C39.4134 46.0646 38.3215 46.7756 37.3246 47.6248C34.5875 49.9556 32.6842 53.2077 31.9656 56.7817C31.9107 57.0543 31.8794 57.3283 31.8702 57.6013H17.6198C18.6069 54.8179 21.2029 52.8881 24.1305 52.8881C24.1376 52.8881 24.1444 52.8872 24.1515 52.887C24.1654 52.8872 24.1793 52.8881 24.1932 52.8881C28.3585 52.8881 31.7471 49.3827 31.7471 45.0741C31.7471 40.7655 28.3585 37.2602 24.1932 37.2602C20.028 37.2602 16.6394 40.7655 16.6394 45.0741C16.6394 46.7935 17.1802 48.3839 18.0934 49.6757C15.366 51.3803 13.3277 54.2055 12.6471 57.5953C12.4013 58.8195 12.6971 60.0771 13.4587 61.0455C14.217 62.0095 15.3408 62.5625 16.542 62.5625H57.931C59.322 62.5625 60.6264 61.9182 61.5097 60.7949C62.404 59.6577 62.7517 58.184 62.4635 56.7516C61.7118 53.265 59.7848 49.9072 57.1045 47.6248ZM24.1934 42.2216C25.7139 42.2216 26.9511 43.5012 26.9511 45.0743C26.9511 46.6473 25.7139 47.927 24.1934 47.927C22.6728 47.927 21.4356 46.6473 21.4356 45.0743C21.4356 43.5012 22.6728 42.2216 24.1934 42.2216ZM47.2145 35.5239C49.3963 35.5239 51.1713 37.36 51.1713 39.6169C51.1713 41.8738 49.3963 43.7099 47.2145 43.7099C45.0328 43.7099 43.2578 41.8738 43.2578 39.6169C43.2578 37.36 45.0328 35.5239 47.2145 35.5239ZM36.7608 57.6015H36.7013C37.8052 52.5585 42.1963 48.9193 47.2145 48.9193C52.2327 48.9193 56.6239 52.5585 57.728 57.6015H36.7608Z" fill="#43B02A"/>
<path d="M20.7382 24.387V29.2381C20.7382 30.5215 21.7787 31.5625 23.0626 31.5625C24.3463 31.5625 25.387 30.522 25.387 29.2381V24.387H30.2381C31.522 24.387 32.5625 23.3463 32.5625 22.0626C32.5625 20.7787 31.522 19.7382 30.2381 19.7382H25.387V14.8869C25.387 13.603 24.3463 12.5625 23.0626 12.5625C21.7787 12.5625 20.7382 13.603 20.7382 14.8869V19.7382H15.8869C14.603 19.7382 13.5625 20.7787 13.5625 22.0626C13.5625 23.3463 14.603 24.387 15.8869 24.387H20.7382Z" fill="#868686"/>
</svg>
