<svg width="64" height="64" viewBox="0 0 64 64" fill="none" xmlns="http://www.w3.org/2000/svg">
<path fill-rule="evenodd" clip-rule="evenodd" d="M20.375 33.6953V28.8516H25.2188V33.6953H20.375ZM30.0625 28.8516H34.9062V33.6953H30.0625V28.8516ZM10.6875 28.8516H15.5312V33.6953H10.6875V28.8516ZM20.375 43.3828V38.5391H25.2188V43.3828H20.375ZM30.0625 38.5391H34.9062V43.3828H30.0625V38.5391ZM10.6875 38.5391H15.5312V43.3828H10.6875V38.5391Z" fill="#868686"/>
<path fill-rule="evenodd" clip-rule="evenodd" d="M44.5938 14.3203V10.6875C44.5938 5.34566 40.2481 1 34.9062 1H10.6875C5.34566 1 1 5.34566 1 10.6875V55.7344C1 59.7409 4.25912 63 8.26562 63H17.9531C19.2908 63 20.375 61.9158 20.375 60.5781V53.0703H25.2188V60.5781C25.2188 61.9158 26.3029 63 27.6406 63H38.5938C41.9075 63 44.5938 60.3131 44.5938 56.9994C44.5938 56.5439 44.5938 56.1144 44.5938 55.7344V19.1641V14.3203ZM37.3281 58.1562C38.6635 58.1562 39.75 57.0697 39.75 55.7344V10.6875C39.75 8.01682 37.5769 5.84375 34.9062 5.84375H10.6875C8.01682 5.84375 5.84375 8.01682 5.84375 10.6875V55.7344C5.84375 57.0697 6.93028 58.1562 8.26562 58.1562H15.5312V50.6484C15.5312 49.3107 16.6154 48.2266 17.9531 48.2266H27.6406C28.9783 48.2266 30.0625 49.3107 30.0625 50.6484V58.1562H37.3281Z" fill="#868686"/>
<path fill-rule="evenodd" clip-rule="evenodd" d="M48.7109 33.6953H53.5547V28.8516H48.7109V33.6953ZM48.7109 43.3828H53.5547V38.5391H48.7109V43.3828ZM53.5547 48.2266H48.7109V53.0703H53.5547V48.2266Z" fill="#868686"/>
<path d="M47 60.5781C47 61.9157 48.0843 63 49.4219 63H55.7344C59.7409 63 63 59.7409 63 55.7344V43.625V24.0078C63 18.666 58.6543 14.3203 53.3125 14.3203H49.4219C48.0843 14.3203 47 15.4046 47 16.7422C47 18.0798 48.0843 19.1641 49.4219 19.1641H53.3125C55.9832 19.1641 58.1562 21.3371 58.1562 24.0078V43.625V55.7344C58.1562 57.0697 57.0697 58.1562 55.7344 58.1562H49.4219C48.0843 58.1562 47 59.2406 47 60.5781Z" fill="#868686"/>
<path d="M27.6406 19.1641C28.9783 19.1641 30.0625 18.0799 30.0625 16.7422C30.0625 15.4045 28.9783 14.3203 27.6406 14.3203H25.2188V11.8984C25.2188 10.5607 24.1346 9.47656 22.7969 9.47656C21.4592 9.47656 20.375 10.5607 20.375 11.8984V14.3203H17.9531C16.6154 14.3203 15.5312 15.4045 15.5312 16.7422C15.5312 18.0799 16.6154 19.1641 17.9531 19.1641H20.375V21.5859C20.375 22.9236 21.4592 24.0078 22.7969 24.0078C24.1346 24.0078 25.2188 22.9236 25.2188 21.5859V19.1641H27.6406Z" fill="#43B02A"/>
</svg>
