<svg width="64" height="64" viewBox="0 0 64 64" fill="none" xmlns="http://www.w3.org/2000/svg">
<path fill-rule="evenodd" clip-rule="evenodd" d="M4.83675 32.0905C7 31.1278 9.83675 31.1278 9.83675 31.1278H29.5H34.5H54.1632C54.1632 31.1278 57.4959 31.1278 59.1632 32.0904C62.0315 33.5555 64 36.5403 64 39.9761V40.4827C64 41.8635 62.8807 42.9827 61.5 42.9827C60.1193 42.9827 59 41.8635 59 40.4827V39.9761C59 37.8573 57.2789 36.133 55.1613 36.1277H8.83875C6.72112 36.133 5 37.8573 5 39.9761V50.4826H61.5C62.8807 50.4826 64 51.6019 64 52.9826C64 54.3634 62.8807 55.4826 61.5 55.4826H59.1631V57.7503C59.1631 59.131 58.0439 60.2503 56.6631 60.2503C55.2824 60.2503 54.1631 59.131 54.1631 57.7503V55.4826H9.83675V57.7503C9.83675 59.131 8.7175 60.2503 7.33675 60.2503C5.956 60.2503 4.83675 59.131 4.83675 57.7503V55.4826H2.5C1.11925 55.4826 0 54.3634 0 52.9826V39.9761C0 36.5404 1.9685 33.5556 4.83675 32.0905Z" fill="#868686"/>
<path fill-rule="evenodd" clip-rule="evenodd" d="M9.83675 26.5C9.83675 26.5 9.83676 29 7.49999 29C5.16322 29 4.83675 26.5 4.83675 26.5V24.833C4.83675 19.8624 8.86502 15.833 13.8356 15.833H24.5C27.4836 15.833 30.1663 17.1465 32 19.2255C33.8338 17.1465 36.5164 15.833 39.5 15.833H51.0812C55.4681 15.833 59.0355 19.3659 59.0795 23.7527V26.5C59.0795 26.5 59.0795 29 56.5 29C53.9205 29 54.1632 26.5 54.1632 26.5V25.8331C54.1632 23.0761 51.9202 20.8331 49.1632 20.8331H39.5C36.743 20.8331 34.5 23.0761 34.5 25.8331L34.5 26.5C34.5 26.5 34.5 29 32 29C29.5 29 29.5 26.5 29.5 26.5L29.5 25.8331C29.5 23.0761 27.257 20.8331 24.5 20.8331H14.8368C12.0798 20.8331 9.83675 23.0761 9.83675 25.8331V26.5Z" fill="#F7B801"/>
<path d="M49.1632 3.75C53.8446 3.75 57.785 7.70432 58.8683 12.2729C59.1869 13.6164 58.0439 14.75 56.6632 14.75C55.2824 14.75 54.1789 13.5932 53.6403 12.3219C52.8202 10.386 51.1213 8.75 49.1631 8.75H14.8367C12.8785 8.75 11.1796 10.386 10.3595 12.3219C9.82099 13.5932 8.71749 14.7499 7.3368 14.7499C5.95607 14.75 4.81313 13.6164 5.13169 12.2729C6.21495 7.70432 10.1554 3.75 14.8367 3.75H49.1632Z" fill="#868686"/>
</svg>
