<svg width="64" height="64" viewBox="0 0 64 64" fill="none" xmlns="http://www.w3.org/2000/svg">
<path d="M62.2547 26.3505L56.9435 21.2318V6.29613C56.9435 5.65381 56.6884 5.03779 56.2342 4.5836C55.78 4.12941 55.164 3.87425 54.5217 3.87425H44.8341C44.1918 3.87425 43.5758 4.12941 43.1216 4.5836C42.6674 5.03779 42.4123 5.65381 42.4123 6.29613V7.18011L37.0321 1.92949L36.9594 1.86046C35.6299 0.666176 33.9068 0.00381418 32.1196 1.64219e-05C30.3324 -0.00378134 28.6065 0.651251 27.2719 1.83988L27.2041 1.90164L1.74293 26.3468C0.178393 27.8508 1.25007 30.5149 3.42007 30.5149H7.05289V52.3118C7.05577 54.8802 8.07734 57.3425 9.89348 59.1587C11.7096 60.9748 14.172 61.9964 16.7404 61.9993H28.5749C29.2166 61.9973 29.8315 61.7416 30.2853 61.2878C30.7391 60.834 30.9948 60.2191 30.9968 59.5774C30.9948 58.9357 30.7391 58.3208 30.2853 57.867C29.8315 57.4132 29.2166 57.1574 28.5749 57.1555H16.7404C15.4557 57.1555 14.2237 56.6452 13.3153 55.7368C12.407 54.8284 11.8966 53.5964 11.8966 52.3118V30.5149H52.0998V34.1477C52.2269 37.3603 56.8164 37.3579 56.9435 34.1477V30.5149H60.5763C61.059 30.5147 61.5307 30.3702 61.9307 30.1C62.3307 29.8299 62.6409 29.4463 62.8214 28.9987C63.0019 28.551 63.0445 28.0596 62.9437 27.5875C62.843 27.1154 62.6035 26.6842 62.2559 26.3493L62.2547 26.3505ZM9.43965 25.6711L30.5233 5.43273C30.9633 5.05233 31.5255 4.84299 32.1072 4.84299C32.6888 4.84299 33.2511 5.05233 33.6911 5.43273L43.1364 14.6577C43.4772 14.9917 43.9091 15.2176 44.3779 15.3071C44.8466 15.3965 45.3314 15.3454 45.7712 15.1603C46.2111 14.9752 46.5864 14.6642 46.8502 14.2665C47.1139 13.8688 47.2543 13.402 47.2536 12.9248V8.718H52.0974V22.2611C52.0974 22.5867 52.163 22.9089 52.2903 23.2085C52.4176 23.5081 52.6041 23.779 52.8385 24.0049L54.5701 25.6711H9.43965Z" fill="#868686"/>
<path d="M42.1342 45.5216C42.5883 45.0674 43.2044 44.8123 43.8467 44.8123C44.489 44.8123 45.105 45.0674 45.5592 45.5216C46.0134 45.9758 46.2686 46.5918 46.2686 47.2341V50.9759C46.2686 51.6182 46.0134 52.2343 45.5592 52.6884C45.105 53.1426 44.489 53.3978 43.8467 53.3978C43.2044 53.3978 42.5883 53.1426 42.1342 52.6884C41.68 52.2343 41.4248 51.6182 41.4248 50.9759V47.2341C41.4248 46.5918 41.68 45.9758 42.1342 45.5216Z" fill="#EB5757"/>
<path fill-rule="evenodd" clip-rule="evenodd" d="M41.0623 32.8179H46.6326C47.018 32.8179 47.3876 32.971 47.6601 33.2435C47.9326 33.516 48.0857 33.8856 48.0857 34.271V36.2085C48.0857 36.5939 47.9326 36.9635 47.6601 37.236C47.3876 37.5085 47.018 37.6616 46.6326 37.6616H46.2693V39.0227C48.8302 39.5465 51.1529 40.8848 52.8903 42.8378C54.6277 44.7907 55.6865 47.2534 55.9085 49.8579C56.1306 52.4624 55.5039 55.0688 54.1222 57.2876C52.7404 59.5065 50.6778 61.2187 48.2425 62.1684C45.8073 63.1181 43.13 63.2543 40.611 62.5566C38.0919 61.859 35.8661 60.3649 34.2664 58.2977C32.6666 56.2305 31.7787 53.7012 31.7352 51.0876C31.6918 48.4741 32.4953 45.9166 34.0255 43.7974L31.7247 41.2678C31.2921 40.7923 31.0661 40.1645 31.0964 39.5224C31.1268 38.8802 31.4109 38.2765 31.8864 37.8439C32.3619 37.4113 32.9897 37.1853 33.6318 37.2156C34.274 37.2459 34.8777 37.5301 35.3103 38.0055L37.5978 40.517C38.7787 39.8033 40.0734 39.2979 41.4255 39.0227V37.6616H41.0623C40.6769 37.6616 40.3073 37.5085 40.0348 37.236C39.7622 36.9635 39.6091 36.5939 39.6091 36.2085V34.271C39.6091 33.8856 39.7622 33.516 40.0348 33.2435C40.3073 32.971 40.6769 32.8179 41.0623 32.8179ZM39.8109 56.9311C41.0057 57.7294 42.4104 58.1555 43.8474 58.1555C45.7737 58.1533 47.6204 57.3871 48.9825 56.025C50.3446 54.6629 51.1108 52.8162 51.113 50.8899C51.113 49.4529 50.6869 48.0482 49.8886 46.8533C49.0902 45.6585 47.9555 44.7273 46.6279 44.1773C45.3002 43.6274 43.8394 43.4835 42.43 43.7639C41.0206 44.0442 39.726 44.7362 38.7099 45.7523C37.6937 46.7684 37.0018 48.0631 36.7214 49.4725C36.4411 50.8819 36.5849 52.3427 37.1349 53.6703C37.6848 54.998 38.616 56.1327 39.8109 56.9311Z" fill="#EB5757"/>
</svg>
