<svg width="64" height="64" viewBox="0 0 64 64" fill="none" xmlns="http://www.w3.org/2000/svg">
<path d="M62.2554 27.3508L56.9442 22.2321V7.2962C56.9442 6.65387 56.689 6.03785 56.2348 5.58366C55.7806 5.12946 55.1646 4.8743 54.5223 4.8743H44.8347C44.1923 4.8743 43.5763 5.12946 43.1221 5.58366C42.6679 6.03785 42.4128 6.65387 42.4128 7.2962V8.1802L37.0325 2.92951L36.9598 2.86049C35.6303 1.66618 33.9072 1.00381 32.12 1.00002C30.3328 0.996219 28.6069 1.65126 27.2722 2.8399L27.2044 2.90166L1.74293 27.3471C0.178384 28.8512 1.25008 31.5152 3.4201 31.5152H7.05296V53.3124C7.05584 55.8808 8.07743 58.3432 9.89358 60.1594C11.7097 61.9755 14.1721 62.9971 16.7406 63H47.2566C49.825 62.9971 52.2874 61.9755 54.1036 60.1594C55.9197 58.3432 56.9413 55.8808 56.9442 53.3124V31.5152H60.577C61.0597 31.515 61.5314 31.3706 61.9314 31.1004C62.3314 30.8302 62.6416 30.4467 62.8221 29.999C63.0026 29.5513 63.0452 29.0599 62.9445 28.5878C62.8437 28.1158 62.6042 27.6846 62.2566 27.3496L62.2554 27.3508ZM9.43975 26.6714L30.5236 6.43279C30.9637 6.05239 31.5259 5.84305 32.1076 5.84305C32.6892 5.84305 33.2515 6.05239 33.6915 6.43279L43.1369 15.6578C43.4777 15.9919 43.9096 16.2178 44.3784 16.3072C44.8472 16.3967 45.3319 16.3456 45.7718 16.1605C46.2116 15.9754 46.587 15.6644 46.8507 15.2667C47.1144 14.869 47.2548 14.4022 47.2541 13.925V9.71811H52.098V23.2614C52.0979 23.5869 52.1636 23.9091 52.2909 24.2088C52.4182 24.5084 52.6047 24.7792 52.8391 25.0052L54.5707 26.6714H9.43975ZM47.2566 58.1562H16.7406C15.4559 58.1562 14.2239 57.6459 13.3155 56.7375C12.4071 55.8291 11.8968 54.597 11.8968 53.3124V31.5152H52.1004V53.3124C52.1004 54.597 51.59 55.8291 50.6817 56.7375C49.7733 57.6459 48.5412 58.1562 47.2566 58.1562Z" fill="#868686"/>
</svg>
