<svg width="64" height="64" viewBox="0 0 64 64" fill="none" xmlns="http://www.w3.org/2000/svg">
<path d="M47.0006 38.9397L55.216 42.6071V49.1522C55.216 51.3873 54.3142 53.6917 52.7414 55.4669C51.1687 57.2421 49.1833 58.2216 47.1465 58.2216H46.8535C44.8203 58.2216 42.8301 57.2432 41.2586 55.4669C39.687 53.6905 38.784 51.3873 38.784 49.1522V42.6071L47.0006 38.9397ZM47.2003 34C47.1334 34 47.0664 34 47.0006 34.0096C46.9348 34.0191 46.8678 34 46.8009 34C46.4966 34.0002 46.1959 34.0645 45.9182 34.1887L35.2833 38.9361C34.9011 39.1063 34.5764 39.3835 34.3487 39.7342C34.1209 40.0848 33.9998 40.4939 34 40.9119V49.1546C34 52.5389 35.3395 55.9937 37.6729 58.6326C40.1654 61.447 43.4233 63 46.8535 63H47.1465C50.5743 63 53.8346 61.447 56.3271 58.6302C58.6617 55.9913 60 52.5377 60 49.1522V40.9095C60.0001 40.4917 59.8792 40.0828 59.6516 39.7321C59.4241 39.3815 59.0998 39.1042 58.7179 38.9337L48.0878 34.1887C47.8101 34.0645 47.5093 34.0002 47.2051 34H47.2003Z" fill="#43B02A"/>
<path d="M58.83 19L56.3 17.25V11C56.3131 10.3868 56.1002 9.79012 55.7019 9.32361C55.3036 8.85711 54.7477 8.55331 54.14 8.47002C53.8032 8.43489 53.4627 8.47114 53.1408 8.57642C52.8189 8.6817 52.5228 8.85364 52.2718 9.08103C52.0209 9.30842 51.8206 9.58616 51.6842 9.89613C51.5478 10.2061 51.4782 10.5414 51.48 10.88V13.88L33.35 1.43002C32.9509 1.15214 32.4763 1.00317 31.99 1.00317C31.5037 1.00317 31.0291 1.15214 30.63 1.43002L5.15001 19C4.64066 19.3364 4.2707 19.8462 4.10885 20.4347C3.947 21.0232 4.00427 21.6505 4.27001 22.2C4.42137 22.4963 4.63293 22.7577 4.89114 22.9676C5.14935 23.1774 5.44853 23.331 5.76951 23.4185C6.0905 23.5061 6.42623 23.5256 6.75521 23.4759C7.0842 23.4263 7.39918 23.3084 7.68001 23.13V53.42C7.68001 55.9608 8.68933 58.3975 10.4859 60.1941C12.2825 61.9907 14.7192 63 17.26 63H31.49C32.1318 63 32.7474 62.7451 33.2012 62.2912C33.655 61.8374 33.91 61.2218 33.91 60.58C33.91 59.9382 33.655 59.3227 33.2012 58.8688C32.7474 58.415 32.1318 58.16 31.49 58.16H17.26C16.001 58.16 14.7933 57.6613 13.9012 56.7729C13.0091 55.8846 12.5053 54.679 12.5 53.42V19.82L31.99 6.36002L51.48 19.82V30.19C51.4689 30.8038 51.6822 31.4006 52.0799 31.8683C52.4776 32.336 53.0324 32.6424 53.64 32.73C53.9765 32.7636 54.3164 32.7262 54.6376 32.6203C54.9588 32.5145 55.2542 32.3424 55.5049 32.1154C55.7555 31.8883 55.9557 31.6112 56.0927 31.302C56.2297 30.9927 56.3003 30.6582 56.3 30.32V23.15C56.5822 23.3282 56.8985 23.4456 57.2287 23.4947C57.5589 23.5437 57.8956 23.5234 58.2175 23.4349C58.5394 23.3465 58.8392 23.1918 59.0979 22.9809C59.3566 22.77 59.5685 22.5075 59.72 22.21C59.9876 21.6583 60.0449 21.0279 59.881 20.437C59.7172 19.8461 59.3435 19.3352 58.83 19Z" fill="#868686"/>
</svg>
