<svg width="64" height="64" viewBox="0 0 64 64" fill="none" xmlns="http://www.w3.org/2000/svg">
<path d="M58.9549 19.1011L56.3091 17.2737V10.9156C56.3091 9.57804 55.2304 8.49377 53.8997 8.49377C52.5691 8.49377 51.4904 9.57804 51.4904 10.9156V13.9454L33.3644 1.42577C32.5426 0.858078 31.4574 0.858078 30.6356 1.42577L5.04513 19.1011C3.94839 19.8585 3.67023 21.3664 4.42388 22.4687C5.15861 23.5437 6.60289 23.8362 7.69095 23.1482V53.4238C7.69095 58.7041 11.9886 63 17.271 63H46.7289C52.0078 63 56.3055 58.707 56.3088 53.4301C56.3097 52.0925 55.2318 51.0075 53.9011 51.0066H53.8995C52.5695 51.0066 51.491 52.0899 51.4902 53.4269C51.4885 56.0346 49.3527 58.1562 46.7289 58.1562H17.271C14.6455 58.1562 12.5096 56.0332 12.5096 53.4238V19.8223L32 6.36034L51.4904 19.8223V41.319C51.4904 42.6566 52.5691 43.7409 53.8997 43.7409C55.2304 43.7409 56.3091 42.6566 56.3091 41.319V23.1482C56.7054 23.3987 57.149 23.5193 57.5883 23.5193C58.3551 23.5193 59.1091 23.1522 59.5762 22.4687C60.3298 21.3664 60.0515 19.8585 58.9549 19.1011Z" fill="#868686"/>
<path d="M32.5004 44H32.4987C30.5659 44 29 45.567 29 47.5C29 49.433 30.5676 51 32.5004 51C34.4332 51 36 49.433 36 47.5C36 45.567 34.4332 44 32.5004 44Z" fill="#EB5757"/>
<path d="M32.5 41C34.433 41 36 39.4428 36 37.5217V24.4783C36 22.5572 34.433 21 32.5 21C30.567 21 29 22.5572 29 24.4783V37.5217C29 39.4428 30.567 41 32.5 41Z" fill="#EB5757"/>
</svg>
