<svg width="64" height="64" viewBox="0 0 64 64" fill="none" xmlns="http://www.w3.org/2000/svg">
<path d="M20.0606 56.9452C20.0606 57.1765 21.0937 58.1561 23.1608 58.1561C24.4981 58.1561 25.5823 59.2403 25.5823 60.5781C25.5823 61.9158 24.4981 63 23.1608 63C18.7063 63 15.2167 60.3406 15.2167 56.9452C15.2167 56.3898 15.3099 55.8539 15.4859 55.3463C14.1812 55.1032 12.9731 54.7484 11.922 54.2943C8.151 52.6647 7.58762 50.3241 7.58762 49.0739C7.58762 47.6141 8.27352 46.3502 9.40927 45.3119C5.91781 44.1288 3.54319 42.2599 3.54319 39.6284C3.54319 37.5688 4.98357 35.9255 7.82934 34.724C4.42114 33.3825 2.69551 31.576 2.69551 29.3357C2.69551 25.3031 7.89604 23.9114 10.2115 23.3972C7.55924 22.4526 5.0077 21.1877 3.27829 19.5127C1.40887 17.7024 1.00773 15.8954 1.00016 14.6986C0.983136 11.9432 2.91027 7.99053 12.1874 4.80513C18.5913 2.60695 27.0704 1.26779 36.0628 1.03506C45.6426 0.787188 54.8531 1.86239 61.3331 3.98489C62.6042 4.40116 63.2972 5.76917 62.8804 7.04021C62.4642 8.31125 61.0962 9.00424 59.8251 8.58797C53.8507 6.63104 45.2349 5.64334 36.1881 5.87702C27.6754 6.09746 19.7105 7.3439 13.7602 9.38645C7.48592 11.5406 5.83835 13.7838 5.84402 14.6683C5.84686 15.156 6.283 15.6797 6.64818 16.033C9.5351 18.8291 18.5894 21.4961 31.0368 21.8277C31.0761 21.8277 31.2374 21.8319 31.2795 21.8338C32.8977 21.8731 34.5718 21.8731 36.2974 21.8286C40.61 21.7028 44.7737 21.0216 48.013 19.9095C50.0962 19.1943 51.0915 18.4701 51.4586 18.0884C49.8503 16.5742 43.9653 15.0813 36.1635 15.2838C30.6248 15.4271 25.8595 16.6333 24.5307 16.9999C23.2417 17.3552 21.9077 16.5983 21.5525 15.3088C21.1968 14.0193 21.9541 12.6854 23.2436 12.3301C27.1466 11.254 31.9299 10.5482 36.0382 10.4418C42.8584 10.2653 51.3829 11.2729 54.8521 14.6314C56.1473 15.8855 56.4254 17.1801 56.4311 18.0458C56.4429 19.91 55.2646 22.541 49.5858 24.4909C45.8971 25.7572 41.225 26.5311 36.4303 26.6706C35.4994 26.6947 34.5732 26.7066 33.6546 26.7066C32.7653 26.7066 31.8835 26.6938 31.0084 26.6715C13.747 26.682 9.03841 28.567 7.83975 29.3305C8.46983 29.7789 9.90737 30.496 12.6727 31.1408C16.0502 31.9288 20.377 32.3631 24.8557 32.3631C25.6684 32.3631 28.3878 32.2798 29.367 32.2434C30.6995 32.1928 31.8277 33.2368 31.8774 34.5736C31.9271 35.9104 30.884 37.0343 29.5472 37.0839C28.753 37.1137 25.832 37.2069 24.8557 37.2069C20.1481 37.2069 15.9996 37.5664 12.8586 38.2467C10.5673 38.7429 9.30757 39.3105 8.70871 39.6889C9.99583 40.5967 14.0984 42.0508 20.7384 42.0508C22.0761 42.0508 23.1603 43.135 23.1603 44.4727C23.1603 45.81 22.0761 46.8942 20.7384 46.8942C20.4745 46.8942 20.21 46.8923 19.9466 46.888C19.9035 46.8899 19.8614 46.8942 19.8179 46.8942C15.702 46.8942 13.1013 48.3251 12.5152 49.0474C13.1316 49.6978 15.641 50.8904 19.8179 50.8904H23.1608C24.4981 50.8904 25.5823 51.975 25.5823 53.3123C25.5823 54.65 24.4981 55.7342 23.1608 55.7342C21.0937 55.7342 20.0606 56.7139 20.0606 56.9452Z" fill="#868686"/>
<path d="M62.2129 44.8644C63.2001 45.7669 63.2687 47.2991 62.3667 48.2863C61.8889 48.809 61.2347 49.0739 60.5781 49.0739C59.9949 49.0739 59.4093 48.8643 58.9447 48.4395L58.6415 48.1623V56.1765C58.6415 59.939 55.5829 63 51.8232 63H38.2136C34.4539 63 31.3948 59.939 31.3948 56.1765V48.273L31.2127 48.4395C30.2255 49.3421 28.6933 49.2735 27.7913 48.2863C26.8887 47.2991 26.9573 45.7674 27.9445 44.8648L40.4454 33.4359C43.0868 31.021 47.0707 31.021 49.7121 33.4359L57.722 40.7589C57.8104 40.8289 57.8932 40.9051 57.9712 40.9869L62.2129 44.8644ZM53.7977 43.7338L46.4439 37.0106C45.6658 36.2991 44.4917 36.2991 43.7136 37.0106L36.2387 43.8445V56.1765C36.2387 57.2677 37.1247 58.1561 38.2136 58.1561H51.8232C52.9122 58.1561 53.7977 57.2677 53.7977 56.1765V43.7338Z" fill="#43B02A"/>
</svg>
