<svg width="64" height="64" viewBox="0 0 64 64" fill="none" xmlns="http://www.w3.org/2000/svg">
<path d="M20.1611 21.7719C20.1611 20.5526 21.1433 19.5642 22.3549 19.5642H41.6453C42.8569 19.5642 43.8391 20.5526 43.8391 21.7719C43.8391 22.9912 42.8569 23.9797 41.6453 23.9797H22.3549C21.1433 23.9797 20.1611 22.9912 20.1611 21.7719Z" fill="#3B86C8"/>
<path d="M20.1611 31.9362C20.1611 30.7169 21.1433 29.7285 22.3549 29.7285L34.6703 29.7285C35.8819 29.7285 36.8641 30.7169 36.8641 31.9362C36.8641 33.1555 35.8819 34.1439 34.6703 34.1439L22.3549 34.1439C21.1433 34.1439 20.1611 33.1555 20.1611 31.9362Z" fill="#3B86C8"/>
<path fill-rule="evenodd" clip-rule="evenodd" d="M5 16.1896C5 10.562 9.53312 6 15.125 6H48.875C54.4669 6 59 10.562 59 16.1896V36.5687C59 42.1962 54.4669 46.7582 48.875 46.7582H23.6374L12.1283 56.0241C9.25557 58.337 5 56.2786 5 52.5762V16.1896ZM9.3875 52.5762L22.0983 42.3427H48.875C52.0437 42.3427 54.6125 39.7576 54.6125 36.5687V16.1896C54.6125 13.0006 52.0437 10.4155 48.875 10.4155H15.125C11.9563 10.4155 9.3875 13.0006 9.3875 16.1896L9.3875 52.5762Z" fill="#89B6DE"/>
</svg>
