<svg width="64" height="64" viewBox="0 0 64 64" fill="none" xmlns="http://www.w3.org/2000/svg">
<path fill-rule="evenodd" clip-rule="evenodd" d="M5.3918 1.28566C4.92958 1.4722 4.78519 4.47374 4.7818 13.9658C4.77599 30.6262 4.19166 38.2083 2.36651 45.2856C0.613067 52.0866 0.581574 53.2931 2.07387 56.4981C3.75221 60.1024 7.99072 62.9823 11.6163 62.9823C12.4589 62.9823 16.5375 62.1795 20.6801 61.1979L28.2118 59.4134L37.4543 61.2168C45.1876 62.7255 47.6848 63.0167 52.7527 62.9993C59.5805 62.976 61.285 62.3864 62.4158 59.6562C64.1048 55.578 60.7583 51.8386 55.42 51.8386C54.325 51.8386 51.6699 50.2077 44.7573 45.2899C39.6947 41.6881 34.6437 37.795 33.5332 36.639C30.254 33.2256 29.9807 31.6175 29.9807 15.7512C29.9807 5.8013 29.8237 1.97076 29.3993 1.54633C28.9778 1.1248 25.6807 0.975573 17.4077 1.00319C11.1323 1.02402 5.72514 1.15145 5.3918 1.28566ZM26.5892 15.7425V26.644H17.3834H8.17774V15.7425V4.841H17.3834H26.5892V15.7425ZM26.9995 32.0947C27.4215 33.6103 27.2975 33.8119 23.6864 37.4772L19.9354 41.285L14.0563 37.3464C8.73735 33.7828 8.17774 33.2707 8.17774 31.9639V30.5201H17.3694H26.5615L26.9995 32.0947ZM25.6642 50.0304C17.1451 58.6406 16.4469 59.1057 12.0538 59.0961C7.54981 59.0864 7.6283 58.9546 18.7638 47.8011L29.1076 37.4413L31.4052 39.6735L33.7027 41.9061L25.6642 50.0304ZM12.7704 40.8445L17.3408 43.9008L11.375 49.8526C5.05216 56.1604 4.78616 56.2651 4.78616 52.4481C4.78616 51.4946 5.35207 48.2963 6.04347 45.3413C6.73486 42.3858 7.39283 39.4772 7.5062 38.8779C7.6191 38.2786 7.82162 37.7877 7.95535 37.7877C8.08956 37.7877 10.2563 39.1633 12.7704 40.8445ZM42.0877 47.9727C42.0911 48.1112 40.1574 50.152 37.7915 52.5072L33.4896 56.7893L30.941 56.2428C29.5393 55.9419 27.6052 55.8329 26.6429 56.0005C24.9549 56.2946 25.1056 56.0911 30.9129 50.2256L36.932 44.146L39.5072 45.9329C40.9234 46.9159 42.0848 47.8336 42.0877 47.9727ZM48.2565 52.1758L50.8564 53.9665L48.2381 56.5848L45.6203 59.2031L42.7665 58.6367C37.6394 57.6193 37.715 57.939 41.6599 53.9675C43.6173 51.9975 45.317 50.385 45.4376 50.385C45.5578 50.385 46.8262 51.1908 48.2565 52.1758ZM58.8091 57.4104V58.864L54.9374 59.0074L51.0657 59.1513L52.7523 57.4109C54.2639 55.8513 54.6651 55.6861 56.624 55.814C58.6972 55.9496 58.8091 56.0315 58.8091 57.4104Z" fill="#868686"/>
<path fill-rule="evenodd" clip-rule="evenodd" d="M51.0902 34.939C50.6522 34.6095 50.363 34.1195 50.2863 33.5767C50.2096 33.034 50.3517 32.4831 50.6812 32.0451L53.1661 28.7421C53.4956 28.3041 53.9856 28.0149 54.5284 27.9382C55.0711 27.8615 55.622 28.0035 56.06 28.3331C56.498 28.6626 56.7872 29.1526 56.8639 29.6953C56.9406 30.2381 56.7986 30.789 56.4691 31.227L53.9841 34.53C53.6546 34.968 53.1646 35.2571 52.6219 35.3338C52.0792 35.4106 51.5282 35.2685 51.0902 34.939ZM43.2417 31.6206C42.5237 31.0804 42.4565 30.5773 42.2138 28.7618C42.1607 28.3641 42.0991 27.9034 42.0204 27.3655C41.9434 26.8206 42.086 26.2674 42.4169 25.8276C42.7478 25.3878 43.2398 25.0974 43.7847 25.0204C44.3297 24.9434 44.8829 25.086 45.3227 25.4169C45.7625 25.7478 46.0528 26.2398 46.1298 26.7847L46.5389 29.6787C46.598 30.0849 46.5348 30.4995 46.3573 30.8697C46.1799 31.2398 45.8962 31.5488 45.5425 31.7571C45.1888 31.9654 44.7811 32.0637 44.3713 32.0394C43.9615 32.0151 43.5683 31.8693 43.2417 31.6206ZM55.7382 40.591C55.8751 40.978 56.1242 41.3155 56.4537 41.5603C57.1784 42.1056 57.648 42.0352 59.6209 41.7393C59.9856 41.6846 60.4018 41.6222 60.8805 41.5545C61.4254 41.4775 61.9174 41.1872 62.2483 40.7474C62.5792 40.3076 62.7218 39.7544 62.6448 39.2094C62.5678 38.6645 62.2774 38.1725 61.8376 37.8416C61.3978 37.5107 60.8446 37.3681 60.2997 37.4451L57.4057 37.8542C56.999 37.9099 56.6182 38.0855 56.3117 38.3586C56.0052 38.6317 55.787 38.9899 55.6848 39.3875C55.5827 39.785 55.6013 40.204 55.7382 40.591Z" fill="#FE7333"/>
</svg>
