<svg width="64" height="64" viewBox="0 0 64 64" fill="none" xmlns="http://www.w3.org/2000/svg">
<path d="M21.8758 58.1562H8.55137C7.43409 58.1562 6.76003 57.5328 6.45777 57.161C5.93603 56.5191 5.73405 55.6842 5.90339 54.8697C8.42554 42.7561 18.788 33.78 30.9859 32.8145C31.3212 32.8354 31.6595 32.8477 32 32.8477C40.7803 32.8477 47.9239 25.7041 47.9239 16.9238C47.9239 8.14311 40.7803 1 32 1C23.2198 1 16.0762 8.14311 16.0762 16.9238C16.0762 22.1394 18.5969 26.7774 22.4838 29.6841C18.8401 30.9437 15.4206 32.842 12.4131 35.3159C6.6659 40.0433 2.66981 46.6367 1.16134 53.8825C0.693519 56.1303 1.25405 58.4396 2.70008 60.2172C4.13807 61.9858 6.27093 63 8.55137 63H21.8758C23.2135 63 24.2976 61.9158 24.2976 60.5781C24.2976 59.2404 23.2135 58.1562 21.8758 58.1562ZM20.92 16.9238C20.92 10.8143 25.8905 5.84375 32 5.84375C38.1096 5.84375 43.0801 10.8143 43.0801 16.9238C43.0801 22.5315 38.8924 27.179 33.4801 27.905C33.3784 27.8918 33.2753 27.8828 33.1703 27.8828C32.4399 27.8828 31.711 27.9084 30.9854 27.9571C25.3498 27.4429 20.92 22.6914 20.92 16.9238Z" fill="#868686"/>
<path fill-rule="evenodd" clip-rule="evenodd" d="M39.7443 36.177C42.1043 32.2743 47.8961 32.2744 50.2561 36.177L60.8993 53.777C63.4143 57.9358 60.1363 62.75 55.6434 62.75H34.357C29.8641 62.75 26.5861 57.9358 29.1011 53.777L39.7443 36.177ZM45.0002 38.75C44.7187 38.75 44.5407 38.8741 44.4507 39.023L33.8074 56.623C33.7547 56.7102 33.7496 56.7657 33.7502 56.7996C33.751 56.8431 33.7643 56.9057 33.8074 56.977C33.89 57.1135 34.0604 57.25 34.357 57.25H55.6434C55.94 57.25 56.1104 57.1135 56.193 56.977C56.2361 56.9057 56.2494 56.8431 56.2502 56.7996C56.2508 56.7657 56.2457 56.7102 56.193 56.623L45.5497 39.023C45.4597 38.8741 45.2817 38.75 45.0002 38.75Z" fill="#EB5757"/>
</svg>
