<svg width="64" height="64" viewBox="0 0 64 64" fill="none" xmlns="http://www.w3.org/2000/svg">
<path d="M45.0779 21.8329C47.218 21.8329 48.9529 20.0975 48.9529 17.9569C48.9529 15.8162 47.218 14.0809 45.0779 14.0809C42.9378 14.0809 41.2029 15.8162 41.2029 17.9569C41.2029 20.0975 42.9378 21.8329 45.0779 21.8329Z" fill="#43B02A"/>
<path d="M62.3311 21.091C61.0378 17.7971 58.6663 13.0445 54.7125 9.10846C50.7727 5.18595 46.0718 2.88168 42.8219 1.63918C39.254 0.275193 35.1996 1.13494 32.4932 3.82936L22.9828 13.2977C20.1636 16.1043 19.3511 20.4228 20.9608 24.0439C21.4599 25.1669 22.0028 26.2654 22.5828 27.3267L1.70936 48.2055C1.25514 48.6598 1 49.276 1 49.9185V60.5775C1 61.9155 2.08427 63 3.42187 63H14.0781C15.4157 63 16.4999 61.9155 16.4999 60.5775V56.217L20.8593 56.2169C22.1969 56.2169 23.2812 55.1323 23.2812 53.7944V49.434H27.6405C28.9781 49.434 30.0624 48.3495 30.0624 47.0115C30.0624 45.6736 28.9781 44.589 27.6405 44.589H20.8593C19.5217 44.589 18.4374 45.6736 18.4374 47.0115V51.3719L14.0781 51.372C12.7405 51.372 11.6562 52.4566 11.6562 53.7945V58.155H5.84373V50.9219L27.3202 29.44C28.1093 28.6507 28.2571 27.4246 27.6784 26.4704C26.8391 25.0866 26.0681 23.6079 25.387 22.0753C24.5879 20.2777 24.995 18.1303 26.4 16.7314L35.9103 7.26324C37.2682 5.91161 39.3023 5.48053 41.0929 6.16488C43.9049 7.23999 47.9577 9.21892 51.2957 12.5423C54.6542 15.8859 56.6989 19.9996 57.8227 22.8618C58.5239 24.6482 58.0978 26.6776 56.7371 28.0323L47.1118 37.6149C45.7102 39.0102 43.6182 39.4181 41.7818 38.6542C40.2673 38.0241 38.8005 37.2755 37.4224 36.4295C36.2826 35.7296 34.7912 36.0867 34.0915 37.227C33.3918 38.3672 33.7487 39.859 34.8887 40.5589C36.4813 41.5366 38.1747 42.4008 39.9216 43.1275C43.5716 44.6463 47.7351 43.8301 50.5287 41.0489L60.1539 31.4664C62.884 28.7485 63.7385 24.6759 62.3311 21.091Z" fill="#868686"/>
</svg>
