<svg width="64" height="64" viewBox="0 0 64 64" fill="none" xmlns="http://www.w3.org/2000/svg">
<path fill-rule="evenodd" clip-rule="evenodd" d="M10.8011 43.2918H53.1989V14.4519H51.3829C50.0452 14.4519 48.9611 13.3531 48.9611 11.9973C48.9611 10.642 50.0452 9.54322 51.3829 9.54322C52.2619 9.54322 53.1342 9.54322 54.0049 9.54322C56.2121 9.54322 58.0022 11.3553 58.0049 13.5923L58.0426 44.9065L62.2686 52.74C63.2856 54.6251 63.2397 56.8668 62.1456 58.737C61.0174 60.6652 59.0288 61.8167 56.826 61.8167H7.17401C4.97115 61.8167 2.98257 60.6652 1.85442 58.737C0.760321 56.8668 0.714438 54.6251 1.73143 52.74L5.9574 44.9065V13.5972C5.9574 11.3583 7.74892 9.54321 9.95806 9.54321C11.1398 9.54321 11.4992 9.54322 12.6171 9.54322C13.9548 9.54322 15.0389 10.642 15.0389 11.9973C15.0389 13.3531 13.9548 14.4519 12.6171 14.4519H10.8011V43.2918ZM38.0631 54.5824C39.3578 54.5824 40.4122 55.6184 40.4784 56.9138H56.826C57.5298 56.9138 57.887 56.3917 57.9792 56.233C58.1065 56.0163 58.2805 55.5796 58.0189 55.0949L54.3625 48.3175H9.6375L5.98105 55.0949C5.71947 55.5796 5.89354 56.0163 6.02079 56.233C6.11302 56.3917 6.47015 56.9138 7.17401 56.9138H23.5216C23.5878 55.6184 24.6422 54.5824 25.9369 54.5824H38.0631Z" fill="#868686"/>
<path d="M34.1897 14.7999H36.0511C37.2605 14.7999 38.2408 15.7935 38.2408 17.0193C38.2408 18.245 37.2605 19.2386 36.0511 19.2386H32C30.7905 19.2386 29.8102 18.245 29.8102 17.0193V11.9147C29.8102 10.689 30.7905 9.69538 32 9.69538C33.2094 9.69538 34.1897 10.689 34.1897 11.9147V14.7999Z" fill="#43B02A"/>
<path fill-rule="evenodd" clip-rule="evenodd" d="M17 17.0193C17 8.63653 23.729 1.81665 32 1.81665C40.271 1.81665 47 8.63653 47 17.0193C47 25.402 40.271 32.2219 32 32.2219C23.729 32.2219 17 25.402 17 17.0193ZM21.3796 17.0193C21.3796 22.9545 26.1439 27.7832 32 27.7832C37.8561 27.7832 42.6204 22.9545 42.6204 17.0193C42.6204 11.084 37.8561 6.25538 32 6.25538C26.1439 6.25538 21.3796 11.084 21.3796 17.0193Z" fill="#43B02A"/>
</svg>
