<svg width="64" height="64" viewBox="0 0 64 64" fill="none" xmlns="http://www.w3.org/2000/svg">
<path fill-rule="evenodd" clip-rule="evenodd" d="M58.5872 39.964C60.1094 40.5549 62 39.5393 62 37.9064L62 13.25C62 7.03679 56.9632 2 50.75 2L13.25 2C7.0368 2 2 7.03679 2 13.25L2 50.75C2 56.9632 7.0368 62 13.25 62L36.0715 62C37.6362 62 38.6588 60.2979 38.2089 58.7992C37.9256 57.8554 37.0909 57.125 36.1055 57.125L13.25 57.125C9.72919 57.125 6.875 54.2708 6.875 50.75L6.875 13.25C6.875 9.72918 9.72919 6.875 13.25 6.875L50.75 6.875C54.2708 6.875 57.125 9.72918 57.125 13.25L57.125 37.9539C57.125 38.8552 57.7469 39.6378 58.5872 39.964ZM32.098 32.0001C32.098 30.6539 31.0067 29.5626 29.6605 29.5626L19.5199 29.5626C18.1737 29.5626 17.0824 30.6539 17.0824 32.0001C17.0824 33.3463 18.1737 34.4376 19.5199 34.4376L29.6605 34.4376C31.0067 34.4376 32.098 33.3463 32.098 32.0001ZM47.0255 18.8379C47.0255 17.4917 45.9342 16.4004 44.588 16.4004L19.521 16.4004C18.1748 16.4004 17.0835 17.4917 17.0835 18.8378C17.0835 20.184 18.1748 21.2753 19.521 21.2753L44.588 21.2754C45.9342 21.2754 47.0255 20.1841 47.0255 18.8379Z" fill="#89B6DE"/>
<path d="M61.3074 51.0458C62.2525 50.099 62.2272 48.5884 61.2509 47.6717C60.2746 46.7551 58.717 46.7796 57.7719 47.7265L51.2439 54.2662L47.1441 50.5347C46.1532 49.6329 44.5962 49.6808 43.6663 50.6417C42.7364 51.6027 42.7859 53.1127 43.7767 54.0145L49.643 59.3538C50.623 60.2457 52.1596 60.21 53.0944 59.2735L61.3074 51.0458Z" fill="#3B86C8"/>
</svg>
