<svg width="64" height="64" viewBox="0 0 64 64" fill="none" xmlns="http://www.w3.org/2000/svg">
<path d="M30.9102 29.2148C24.7672 29.2148 19.7695 34.2125 19.7695 40.3555C19.7695 43.6669 21.2224 46.645 23.5234 48.6873V60.5759C23.5234 61.3886 23.9309 62.1471 24.6087 62.5955C25.2867 63.0443 26.1439 63.1228 26.8918 62.8052L30.7886 61.1508L34.6855 62.807C34.9897 62.9362 35.3118 63 35.6326 63C36.1011 63 36.5668 62.8641 36.9691 62.5981C37.647 62.1496 38.0547 61.3909 38.0547 60.5781V48.8963C40.4957 46.8511 42.0508 43.7817 42.0508 40.3555C42.0508 34.2125 37.0531 29.2148 30.9102 29.2148ZM33.2109 56.9173L31.7364 56.2907C31.1314 56.0336 30.4479 56.0334 29.8425 56.2903L28.3672 56.9167V51.2029C29.1843 51.3945 30.0355 51.4961 30.9102 51.4961C31.6987 51.4961 32.4683 51.4131 33.2109 51.2566V56.9173ZM30.9102 46.6523C27.438 46.6523 24.6133 43.8276 24.6133 40.3555C24.6133 36.8833 27.438 34.0586 30.9102 34.0586C34.3823 34.0586 37.207 36.8833 37.207 40.3555C37.207 43.8276 34.3823 46.6523 30.9102 46.6523Z" fill="#43B02A"/>
<path d="M60.5781 37.8259H52.1016V8.78185C52.1016 4.49089 48.6107 1 44.3197 1H10.6875C5.34581 1 1 5.34581 1 10.6875V15.6389C1 16.9765 2.08427 18.0608 3.42188 18.0608H9.47656V45.6836C9.47656 49.6128 11.8212 53.1257 15.4499 54.6328C15.7537 54.759 16.0682 54.8187 16.3779 54.8187C17.3274 54.8187 18.2285 54.2567 18.6155 53.3252C19.1286 52.0901 18.5432 50.6727 17.3079 50.1596C15.4931 49.4058 14.3203 47.6488 14.3203 45.6836V18.0608H38.7812C40.1189 18.0608 41.2031 16.9765 41.2031 15.6389V8.78185C41.2031 7.16173 42.5211 5.84375 44.1412 5.84375H44.3198C45.9398 5.84375 47.2578 7.16173 47.2578 8.78185V47.5894C47.2578 48.6287 47.4642 49.6202 47.8355 50.5275H45.3203C43.9827 50.5275 42.8984 51.6117 42.8984 52.9493C42.8984 54.2869 43.9827 55.3712 45.3203 55.3712H55.25C55.2609 55.3712 55.2713 55.3698 55.2822 55.3696C59.5436 55.3348 63 51.8588 63 47.5892V40.2478C63 38.9102 61.9157 37.8259 60.5781 37.8259ZM36.3594 8.78185V13.217H5.84375V10.6875C5.84375 8.01666 8.01666 5.84375 10.6875 5.84375H36.9352C36.564 6.75062 36.3594 7.74286 36.3594 8.78185ZM58.1562 47.5892C58.1562 49.2094 56.8383 50.5273 55.2182 50.5273H55.0395C53.4195 50.5273 52.1016 49.2094 52.1016 47.5892V42.6697H58.1562V47.5892Z" fill="#868686"/>
</svg>
