<svg width="64" height="64" viewBox="0 0 64 64" fill="none" xmlns="http://www.w3.org/2000/svg">
<path d="M15.2402 49.2295C15.2402 50.5241 14.1908 51.5735 12.8962 51.5735C11.6016 51.5735 10.5521 50.5241 10.5521 49.2295C10.5521 47.9349 11.6016 46.8855 12.8962 46.8855C14.1908 46.8855 15.2402 47.935 15.2402 49.2295ZM60.4001 27.366L37.1198 4.05566C34.3757 1.31607 29.9108 1.31607 27.1747 4.04792L3.60583 27.3603C2.03627 28.9274 1.56981 31.2637 2.41741 33.3123C3.26607 35.3636 5.24994 36.689 7.47149 36.689H10.5521V41.0255C10.5521 42.3201 11.6016 43.3695 12.8962 43.3695C14.1908 43.3695 15.2402 42.3201 15.2402 41.0255V34.345C15.2402 33.0504 14.1908 32.001 12.8962 32.001H7.47149C7.01628 32.001 6.82372 31.6996 6.74941 31.5201C6.65929 31.3027 6.61557 30.98 6.91033 30.6856L30.4793 7.37328C31.3969 6.45735 32.8897 6.45712 33.8051 7.37082L57.0828 30.6787C57.3846 30.981 57.3405 31.3034 57.2505 31.5206C57.1761 31.6999 56.9835 32.0009 56.5287 32.0009H51.5728C50.2782 32.0009 49.2288 33.0503 49.2288 34.3449V41.0254C49.2288 42.32 50.2782 43.3694 51.5728 43.3694C52.8674 43.3694 53.9168 42.32 53.9168 41.0254V36.6889H56.5287C58.7484 36.6889 60.7315 35.365 61.5811 33.3162C62.4296 31.2699 61.966 28.9343 60.4001 27.366ZM51.5727 46.8855C50.2781 46.8855 49.2287 47.9349 49.2287 49.2295C49.2287 50.5241 50.2781 51.5735 51.5727 51.5735C52.8673 51.5735 53.9167 50.5241 53.9167 49.2295C53.9167 47.935 52.8673 46.8855 51.5727 46.8855Z" fill="#43B02A"/>
<path d="M48.0736 56.2614C48.3677 57.6785 48.0116 59.1361 47.0965 60.2606C46.1946 61.3689 44.8637 62.0045 43.4452 62.0045H20.5549C19.1284 62.0045 17.7935 61.3696 16.8927 60.2624C15.9863 59.1487 15.6341 57.7016 15.9265 56.2925C16.6839 52.6446 18.6894 49.3252 21.574 46.9457C22.6655 46.0454 23.8648 45.296 25.1366 44.71C23.7202 43.0994 22.8584 40.9897 22.8584 38.6813C22.8584 33.6406 26.9593 29.5396 32.0001 29.5396C37.041 29.5396 41.1418 33.6406 41.1418 38.6813C41.1418 40.9897 40.2801 43.0994 38.8637 44.71C40.1355 45.296 41.3349 46.0453 42.4263 46.9457C45.2529 49.2776 47.2356 52.5121 48.0266 56.0736C48.0447 56.1352 48.0604 56.1978 48.0736 56.2614ZM27.5463 38.6814C27.5463 41.1371 29.5443 43.1351 32 43.1351C34.4557 43.1351 36.4537 41.1371 36.4537 38.6814C36.4537 36.2257 34.4557 34.2277 32 34.2277C29.5443 34.2277 27.5463 36.2257 27.5463 38.6814ZM43.4843 57.2501L43.4834 57.2453C42.3579 51.8243 37.5284 47.8896 32.0001 47.8896C26.4718 47.8896 21.6422 51.8243 20.5168 57.2453C20.5059 57.2979 20.5425 57.3155 20.5425 57.3155C20.5425 57.3155 20.5474 57.3164 20.555 57.3164H43.4453C43.4453 57.3164 43.4779 57.2914 43.4843 57.2501Z" fill="#868686"/>
</svg>
