<svg width="64" height="64" viewBox="0 0 64 64" fill="none" xmlns="http://www.w3.org/2000/svg">
<path d="M28.7304 59.5779C28.7304 60.9156 27.6462 61.9998 26.3085 61.9998H10.6875C5.34611 61.9998 1 57.6541 1 52.3123V9.68746C1 4.34564 5.34611 0 10.6875 0H40.4632C45.805 0 50.1506 4.34564 50.1506 9.68746V28.3358C50.1506 29.6735 49.0665 30.7577 47.7288 30.7577C46.3911 30.7577 45.3069 29.6735 45.3069 28.3358V9.68746C45.3069 7.01679 43.1338 4.84373 40.4632 4.84373H10.6875C8.01679 4.84373 5.84373 7.01679 5.84373 9.68746V52.3123C5.84373 54.983 8.01679 57.156 10.6875 57.156H26.3085C27.6462 57.156 28.7304 58.2402 28.7304 59.5779ZM40.4764 18.0429C40.4764 19.3806 39.3922 20.4648 38.0545 20.4648H30.91C29.5723 20.4648 28.4882 19.3806 28.4882 18.0429C28.4882 16.7052 29.5723 15.621 30.91 15.621H38.0545C39.3922 15.621 40.4764 16.7052 40.4764 18.0429ZM25.8752 13.0464L20.2226 19.8877C19.4856 20.7964 18.3949 21.3611 17.227 21.4392C17.1343 21.4453 17.0411 21.4486 16.9484 21.4486C15.8708 21.4486 14.8226 21.0329 14.0379 20.2855C14.0156 20.2647 13.9939 20.2429 13.9721 20.2207L11.3743 17.5528C10.441 16.5945 10.4618 15.0614 11.4197 14.1282C12.378 13.1949 13.9111 13.2152 14.8444 14.1736L16.9091 16.2937L22.1407 9.96134C22.9926 8.93016 24.5195 8.78494 25.5502 9.63685C26.5814 10.4888 26.7266 12.0152 25.8752 13.0464ZM38.0545 35.3592H30.91C29.5723 35.3592 28.4882 34.2751 28.4882 32.9374C28.4882 31.5997 29.5723 30.5155 30.91 30.5155H38.0545C39.3922 30.5155 40.4764 31.5997 40.4764 32.9374C40.4764 34.2751 39.3922 35.3592 38.0545 35.3592ZM25.8752 27.9257L20.2226 34.7675C19.4856 35.6757 18.3949 36.2409 17.227 36.3185C17.1343 36.3247 17.0411 36.328 16.9484 36.328C15.8703 36.328 14.8226 35.9122 14.0374 35.1648C14.0171 35.1454 13.9967 35.1256 13.9768 35.1052L11.379 32.4521C10.4434 31.4966 10.4595 29.963 11.415 29.0274C12.3705 28.0913 13.904 28.1074 14.8396 29.0633L16.9077 31.1749L22.1407 24.8407C22.9926 23.8095 24.5195 23.6647 25.5502 24.5162C26.5814 25.3681 26.7266 26.8945 25.8752 27.9257ZM25.8752 42.578L20.2226 49.4198C19.4856 50.328 18.3949 50.8932 17.227 50.9708C17.1343 50.977 17.0411 50.9803 16.9484 50.9803C15.8703 50.9803 14.8226 50.5645 14.0374 49.8171C14.0171 49.7977 13.9967 49.7779 13.9768 49.7575L11.379 47.1043C10.4434 46.1488 10.4595 44.6153 11.415 43.6797C12.3705 42.7436 13.904 42.7596 14.8396 43.7156L16.9077 45.8272L22.1407 39.493C22.9926 38.4618 24.5195 38.317 25.5502 39.1685C26.5814 40.0204 26.7266 41.5468 25.8752 42.578Z" fill="#868686"/>
<path fill-rule="evenodd" clip-rule="evenodd" d="M50.5988 35.0637C53.4298 32.2327 58.0394 32.2327 60.8723 35.0656C63.7048 37.8985 63.7048 42.5076 60.8723 45.341L47.6036 58.5847C47.308 58.8794 46.9414 59.0927 46.5393 59.2043L36.7639 61.9119C36.5505 61.9715 36.333 62.0003 36.1177 62.0003C35.4735 62.0003 34.8458 61.743 34.3836 61.2695C33.7673 60.6371 33.5431 59.7194 33.7999 58.8741L36.6958 49.3414C36.8116 48.9596 37.0198 48.6124 37.3022 48.3305L50.5988 35.0637ZM44.6326 54.7064L39.7146 56.0687L41.154 51.3304L50.1253 42.3785L53.5514 45.8041L44.6326 54.7064ZM56.9794 42.3823L57.4486 41.914C58.3913 40.9713 58.3913 39.4349 57.4472 38.4903C56.5025 37.5461 54.9662 37.5461 54.022 38.4903L53.5542 38.9571L56.9794 42.3823Z" fill="#43B02A"/>
</svg>
