<svg width="64" height="64" viewBox="0 0 64 64" fill="none" xmlns="http://www.w3.org/2000/svg">
<path d="M17.1964 28.9726C17.196 28.9562 17.1964 28.989 17.1964 28.9726V28.9726ZM46.9854 28.9726C46.8649 34.9082 43.4624 40.5131 37.1466 45.2207C34.1698 47.4395 30.0119 47.4395 27.0351 45.2207C20.7193 40.5131 17.3168 34.9082 17.1964 28.9726C17.2197 21.1657 26.7384 17.3044 32.0909 22.9304C37.4462 17.302 46.9633 21.1701 46.9854 28.9726ZM42.1416 28.88C41.8849 23.8179 34.702 23.8771 34.5127 28.9726C34.5127 30.3102 33.4285 31.3945 32.0909 31.3945C30.7533 31.3945 29.669 30.3102 29.669 28.9726C29.4795 23.8748 22.2946 23.8208 22.0401 28.88C22.1654 34.4079 26.398 38.7044 29.9298 41.337C31.202 42.2854 32.9794 42.2854 34.2518 41.337C37.7837 38.7044 42.0163 34.4079 42.1416 28.88ZM46.9854 28.9726C46.9854 28.989 46.9857 28.9562 46.9854 28.9726V28.9726Z" fill="#868686"/>
<path d="M62.9697 32C62.9421 59.5169 29.5242 73.358 10.0494 53.92C-1.9753 42.3811 -1.97724 21.6184 10.0499 10.0796C29.5265 -9.35821 62.9437 4.4846 62.9697 32ZM58.126 32C58.126 17.5774 46.3924 5.84375 31.9698 5.84375C-2.72996 7.28053 -2.7199 56.7246 31.97 58.1562C46.3924 58.1562 58.126 46.4224 58.126 32Z" fill="#43B02A"/>
</svg>
