<svg width="64" height="64" viewBox="0 0 64 64" fill="none" xmlns="http://www.w3.org/2000/svg">
<path fill-rule="evenodd" clip-rule="evenodd" d="M60.5781 33.5448C59.2405 33.5448 58.1562 34.6291 58.1562 35.9667V47.4584C58.1562 48.3816 57.6433 49.2117 56.8174 49.6245C56.811 49.6277 56.8046 49.631 56.7983 49.6343L56.7879 49.6396L42.7585 56.8963C42.0826 57.2293 41.2783 57.2272 40.6044 56.8902L25.5618 49.369C23.5271 48.3518 21.0979 48.3518 19.0632 49.369L19.0407 49.3804L19.0206 49.3908L9.33064 54.4773C8.24843 55.0085 7.33563 54.5746 6.9922 54.3624C6.64709 54.1488 5.84375 53.5208 5.84375 52.3021V29.2268C5.84375 28.3036 6.3567 27.4735 7.18256 27.0607C7.19249 27.0557 7.2023 27.0507 7.21211 27.0456L21.2415 19.7889C21.9174 19.4559 22.7217 19.458 23.3956 19.795L32.4878 24.3411C33.6838 24.9392 35.139 24.4543 35.7371 23.258C36.3352 22.0616 35.8504 20.6069 34.654 20.0087L25.5618 15.4626C23.5271 14.4454 21.0979 14.4454 19.0632 15.4626C19.0533 15.4676 19.0435 15.4726 19.0336 15.4777L5.00009 22.7363C2.5322 23.9778 1 26.4631 1 29.2268V52.3022C1 54.8387 2.2882 57.1491 4.44584 58.4827C6.60325 59.8162 9.246 59.9351 11.5149 58.8008C11.5291 58.7937 11.5434 58.7864 11.5576 58.779L21.247 53.6927C21.9216 53.3623 22.7234 53.3652 23.3957 53.7015L38.4383 61.2227C39.4556 61.7313 40.5716 61.9857 41.6876 61.9857C42.8036 61.9857 43.9196 61.7313 44.9369 61.2227C44.9414 61.2205 44.9459 61.2182 44.9503 61.2159C44.9557 61.2132 44.9611 61.2104 44.9665 61.2076L59 53.9489C61.4678 52.7073 63 50.2221 63 47.4584V35.9667C63 34.6291 61.9157 33.5448 60.5781 33.5448ZM22.3125 43.7681C20.9749 43.7681 19.8906 42.6839 19.8906 41.3463V27.3755C19.8906 26.0379 20.9749 24.9537 22.3125 24.9537C23.6501 24.9537 24.7344 26.0379 24.7344 27.3755V41.3463C24.7344 42.6839 23.6501 43.7681 22.3125 43.7681ZM44.1094 35.9667V49.3096C44.1094 50.6472 43.0251 51.7315 41.6875 51.7315C40.3499 51.7315 39.2656 50.6472 39.2656 49.3096V35.9667C39.2656 34.6291 40.3499 33.5448 41.6875 33.5448C43.0251 33.5448 44.1094 34.6291 44.1094 35.9667Z" fill="#43B02A"/>
<path fill-rule="evenodd" clip-rule="evenodd" d="M38.7812 14.1238C38.7812 7.44667 44.2134 2.0144 50.8906 2.0144C57.5679 2.0144 63 7.44667 63 14.1237C63 17.8526 60.9883 22.8707 57.0204 29.0388C55.6687 31.14 53.3773 32.3945 50.8906 32.3945C48.404 32.3945 46.1125 31.1401 44.7609 29.0388C40.793 22.8709 38.7812 17.8527 38.7812 14.1238ZM50.8906 27.5509C51.7343 27.5509 52.4837 27.1381 52.9467 26.4184C56.3062 21.1961 58.1562 16.8299 58.1562 14.1238C58.1562 10.1175 54.8969 6.85815 50.8906 6.85815C46.8844 6.85815 43.625 10.1175 43.625 14.1238C43.625 16.8299 45.4751 21.1961 48.8346 26.4183C49.2975 27.1381 50.047 27.5509 50.8906 27.5509ZM53.3125 14.1238C53.3125 15.4613 52.2282 16.5457 50.8906 16.5457C49.5531 16.5457 48.4688 15.4613 48.4688 14.1238C48.4688 12.7862 49.5531 11.7019 50.8906 11.7019C52.2282 11.7019 53.3125 12.7862 53.3125 14.1238Z" fill="#868686"/>
</svg>
