<svg width="64" height="64" viewBox="0 0 64 64" fill="none" xmlns="http://www.w3.org/2000/svg">
<path fill-rule="evenodd" clip-rule="evenodd" d="M1.75 7.5C1.75 4.04822 4.54822 1.25 8 1.25H10.5C12.0188 1.25 13.25 2.48122 13.25 4V7C13.25 8.24264 12.2426 9.25 11 9.25C9.75736 9.25 8.75 8.24264 8.75 7V5.75H8C7.0335 5.75 6.25 6.5335 6.25 7.5V10.6156C6.25 13.4166 6.33938 16.1767 6.64806 18.8295C6.6776 18.9246 6.70117 19.0227 6.71829 19.1236L6.71832 19.1238L6.71866 19.1258L6.72039 19.1359L6.72795 19.1796C6.73478 19.2189 6.74515 19.2781 6.75883 19.3547C6.7862 19.5081 6.82675 19.731 6.87869 20.0048C6.98284 20.5538 7.13152 21.3004 7.31032 22.0965C7.49012 22.8971 7.69495 23.7232 7.90955 24.4388C8.13851 25.2023 8.33036 25.6722 8.44384 25.8669C9.02849 26.8698 10.54 27.6852 12.6449 28.1967C14.6081 28.6737 16.4741 28.7404 16.9197 28.7489C16.9618 28.7497 16.9942 28.7493 17.0352 28.7477C17.4646 28.731 19.2275 28.6321 21.0827 28.1436C23.0699 27.6204 24.4985 26.8217 25.0571 25.8653C25.1836 25.6487 25.3769 25.1873 25.6027 24.4797C25.8163 23.8102 26.0201 23.046 26.1991 22.309C26.3771 21.5759 26.525 20.8923 26.6286 20.3909C26.6803 20.1409 26.7206 19.9377 26.7478 19.7983C26.7613 19.7286 26.7716 19.675 26.7783 19.6395L26.7858 19.6001L26.7875 19.5912L26.7877 19.5896L26.7878 19.5895L26.7878 19.5894C26.8046 19.4989 26.8266 19.4107 26.8534 19.3251C27.1617 16.7214 27.25 14.0114 27.25 11.2561V7.5C27.25 6.5335 26.4665 5.75 25.5 5.75H25.25V7C25.25 8.24264 24.2426 9.25 23 9.25C21.7574 9.25 20.75 8.24264 20.75 7V4C20.75 2.48122 21.9812 1.25 23.5 1.25H25.5C28.9518 1.25 31.75 4.04822 31.75 7.5V11.2561C31.75 18.4154 31.2118 26.3643 27.0582 32.9888C25.9581 34.7432 24.6091 36.4933 22.9971 37.834C21.9129 38.7357 20.6596 39.4919 19.25 39.9072V48.2523C19.25 53.9132 23.8391 58.5023 29.5 58.5023C35.1609 58.5023 39.75 53.9132 39.75 48.2523V46.3755V39.1871C39.75 37.9445 40.7574 36.9371 42 36.9371C43.2426 36.9371 44.25 37.9445 44.25 39.1871V46.3755V48.2523C44.25 56.3985 37.6462 63.0023 29.5 63.0023C21.3538 63.0023 14.75 56.3985 14.75 48.2523V39.974C11.3536 39.0798 8.75367 36.1754 6.96874 33.527C2.33819 26.6563 1.75 18.1885 1.75 10.6156V7.5ZM16.957 35.7504C15.3313 35.7815 13.6138 34.6909 11.918 32.6481C14.2136 33.1663 16.2779 33.2375 16.8342 33.2481C16.9622 33.2505 17.0816 33.2494 17.2105 33.2443C17.7472 33.2234 19.6774 33.1175 21.8364 32.5944C21.2843 33.2804 20.7102 33.8831 20.1196 34.3743C19.0155 35.2925 17.9679 35.7311 16.957 35.7504Z" fill="#868686"/>
<path fill-rule="evenodd" clip-rule="evenodd" d="M48.5 0.995117C43.6675 0.995117 39.75 4.91263 39.75 9.74512V17.6219V24.8103C39.75 26.0529 40.7574 27.0603 42 27.0603C43.2426 27.0603 44.25 26.0529 44.25 24.8103V17.6219V9.74512C44.25 7.39791 46.1528 5.49512 48.5 5.49512C50.8472 5.49512 52.75 7.39791 52.75 9.74512V26.0816C49.5671 27.0458 47.25 30.0023 47.25 33.5C47.25 37.7802 50.7198 41.25 55 41.25C59.2802 41.25 62.75 37.7802 62.75 33.5C62.75 30.0023 60.4329 27.0458 57.25 26.0816V9.74512C57.25 4.91263 53.3325 0.995117 48.5 0.995117ZM55 30.25C53.2051 30.25 51.75 31.7051 51.75 33.5C51.75 35.2949 53.2051 36.75 55 36.75C56.7949 36.75 58.25 35.2949 58.25 33.5C58.25 31.7051 56.7949 30.25 55 30.25Z" fill="#43B02A"/>
</svg>
