<svg width="64" height="64" viewBox="0 0 64 64" fill="none" xmlns="http://www.w3.org/2000/svg">
<path d="M22.6657 53.3124C15.9886 53.3124 10.5563 47.8801 10.5563 41.2031C10.5563 34.526 15.9886 29.0937 22.6657 29.0937C29.3428 29.0937 34.775 34.526 34.775 41.2031C34.775 47.8801 29.3429 53.3124 22.6657 53.3124ZM22.6657 33.9374C18.6594 33.9374 15.4001 37.1968 15.4001 41.2031C15.4001 45.2093 18.6594 48.4687 22.6657 48.4687C26.6719 48.4687 29.9313 45.2093 29.9313 41.2031C29.9313 37.1968 26.6719 33.9374 22.6657 33.9374ZM35.5267 18.3257L48.6048 5.12651C49.5461 4.17641 49.5391 2.64301 48.589 1.70151C47.6389 0.760004 46.1055 0.767148 45.164 1.71725L32.0859 14.9164C31.1445 15.8665 31.1515 17.3999 32.1016 18.3414C32.5738 18.8094 33.19 19.0429 33.8062 19.0429C34.4298 19.0429 35.0532 18.8035 35.5267 18.3257ZM43.1477 37.7085L56.468 24.3883C57.4138 23.4424 57.4138 21.909 56.468 20.9632C55.5221 20.0175 53.9887 20.0174 53.043 20.9632L39.7227 34.2835C38.7768 35.2294 38.7768 36.7628 39.7227 37.7085C40.1955 38.1814 40.8153 38.4179 41.4352 38.4179C42.055 38.4179 42.6748 38.1814 43.1477 37.7085ZM38.3039 29.232L50.6555 16.8805C51.6013 15.9346 51.6013 14.4012 50.6555 13.4554C49.7096 12.5097 48.1762 12.5096 47.2305 13.4554L34.8789 25.807C33.9331 26.7528 33.9331 28.2863 34.8789 29.232C35.3518 29.7049 35.9716 29.9414 36.5914 29.9414C37.2113 29.9414 37.8311 29.7049 38.3039 29.232ZM60.568 1.00001C59.2304 1.00001 58.1461 2.08428 58.1461 3.42188C58.1461 4.75948 59.2304 5.84375 60.568 5.84375C61.9056 5.84375 62.9898 4.75948 62.9898 3.42188C62.9898 2.08428 61.9056 1.00001 60.568 1.00001ZM54.8766 6.8125C53.539 6.8125 52.4547 7.89677 52.4547 9.23437C52.4547 10.572 53.539 11.6562 54.8766 11.6562C56.2142 11.6562 57.2984 10.572 57.2984 9.23437C57.2984 7.89677 56.2142 6.8125 54.8766 6.8125ZM60.568 14.4414C59.2304 14.4414 58.1461 15.5257 58.1461 16.8633C58.1461 18.2009 59.2304 19.2851 60.568 19.2851C61.9056 19.2851 62.9898 18.2009 62.9898 16.8633C62.9898 15.5257 61.9056 14.4414 60.568 14.4414ZM27.7516 20.2539C26.414 20.2539 25.3297 21.3381 25.3297 22.6757C25.3297 24.0133 26.414 25.0976 27.7516 25.0976C29.0892 25.0976 30.1735 24.0133 30.1735 22.6757C30.1735 21.3381 29.0892 20.2539 27.7516 20.2539Z" fill="#43B02A"/>
<path d="M51.1397 43.6421L62.2803 32.5015C63.2261 31.5557 63.2261 30.0222 62.2803 29.0765C61.3344 28.1308 59.801 28.1306 58.8553 29.0765L47.7147 40.2171C46.7688 41.163 46.7688 42.6964 47.7147 43.6421C48.1875 44.115 48.8073 44.3515 49.4272 44.3515C50.047 44.3515 50.6668 44.115 51.1397 43.6421ZM38.0616 56.7202C39.0074 55.7744 39.0074 54.241 38.0616 53.2952C37.1157 52.3495 35.5823 52.3493 34.6366 53.2952C31.4632 56.4686 27.1736 58.1903 22.565 58.1555C18.1184 58.1178 13.9335 56.3608 10.7811 53.2084C4.19472 46.622 4.19472 35.9051 10.7787 29.3211L35.0318 5.13681C35.979 4.1924 35.9811 2.65899 35.0366 1.7118C34.0922 0.764726 32.5588 0.762546 31.6116 1.70695L7.35623 25.8937C-1.11874 34.3687 -1.11874 48.1584 7.35623 56.6335C11.4125 60.6898 16.7991 62.9505 22.5239 62.9992C22.5893 62.9996 22.6546 63 22.72 63C28.5659 62.9999 34.0076 60.7743 38.0616 56.7202ZM42.8881 45.9257C41.5505 45.9257 40.4662 47.01 40.4662 48.3476C40.4662 49.6852 41.5505 50.7694 42.8881 50.7694C44.2257 50.7694 45.31 49.6852 45.31 48.3476C45.31 47.01 44.2257 45.9257 42.8881 45.9257Z" fill="#868686"/>
</svg>
