<svg width="64" height="64" viewBox="0 0 64 64" fill="none" xmlns="http://www.w3.org/2000/svg">
<path d="M37.3585 15.0415C37.3585 18.94 30.792 22.1003 22.6919 22.1003C14.5917 22.1003 8.02521 18.94 8.02521 15.0415C8.02521 11.143 14.5917 7.98267 22.6919 7.98267C30.792 7.98267 37.3585 11.143 37.3585 15.0415Z" fill="#89B6DE"/>
<path d="M55.8673 32.8635C55.8673 36.762 49.3008 39.9223 41.2006 39.9223C33.1004 39.9223 26.534 36.762 26.534 32.8635C26.534 28.965 33.1004 25.8047 41.2006 25.8047C49.3008 25.8047 55.8673 28.965 55.8673 32.8635Z" fill="#3B86C8"/>
<path d="M26.9258 40.7131C27.5282 39.969 28.6196 39.8542 29.3637 40.4565C30.1212 41.0697 34.0768 43.9049 41.1886 43.9049C48.3457 43.9049 52.1308 41.2728 53.0061 40.5025C53.7248 39.8701 54.82 39.94 55.4525 40.6586C56.0849 41.3773 56.015 42.4725 55.2963 43.1049C53.8191 44.4049 49.2291 47.3716 41.1886 47.3716C33.1029 47.3716 28.4011 44.1375 27.1824 43.1509C26.4384 42.5486 26.3235 41.4571 26.9258 40.7131Z" fill="#3B86C8"/>
<path d="M29.3637 47.5218C28.6196 46.9194 27.5282 47.0343 26.9258 47.7784C26.3235 48.5224 26.4384 49.6139 27.1824 50.2162C28.3787 51.1846 33.2229 54.6003 41.3311 54.6003C49.424 54.6003 53.8627 51.4319 55.2963 50.1702C56.015 49.5378 56.0849 48.4425 55.4525 47.7239C54.82 47.0052 53.7248 46.9353 53.0061 47.5677C52.0873 48.3764 48.4358 51.1337 41.3311 51.1337C34.2417 51.1337 30.1436 48.1531 29.3637 47.5218Z" fill="#3B86C8"/>
<path d="M10.8549 22.6345C10.1109 22.0322 9.01942 22.1471 8.41709 22.8912C7.81476 23.6352 7.92965 24.7267 8.6737 25.329C9.89235 26.3155 14.5941 29.5496 22.6799 29.5496C23.6372 29.5496 24.4132 28.7736 24.4132 27.8163C24.4132 26.859 23.6372 26.083 22.6799 26.083C15.5681 26.083 11.6124 23.2478 10.8549 22.6345Z" fill="#89B6DE"/>
<path d="M8.41709 29.9563C9.01942 29.2122 10.1109 29.0973 10.8549 29.6997C11.6348 30.331 15.733 33.3116 22.8223 33.3116C23.7796 33.3116 24.5557 34.0876 24.5557 35.0449C24.5557 36.0022 23.7796 36.7782 22.8223 36.7782C14.7142 36.7782 9.86995 33.3625 8.6737 32.3941C7.92965 31.7918 7.81476 30.7003 8.41709 29.9563Z" fill="#89B6DE"/>
<path d="M10.8549 37.0081C10.1109 36.4058 9.01942 36.5206 8.41709 37.2647C7.81476 38.0087 7.92965 39.1002 8.6737 39.7025C9.86995 40.6709 14.7142 44.0867 22.8223 44.0867C23.7796 44.0867 24.5557 43.3106 24.5557 42.3533C24.5557 41.396 23.7796 40.62 22.8223 40.62C15.733 40.62 11.6348 37.6394 10.8549 37.0081Z" fill="#89B6DE"/>
</svg>
