<svg width="64" height="64" viewBox="0 0 64 64" fill="none" xmlns="http://www.w3.org/2000/svg">
<path fill-rule="evenodd" clip-rule="evenodd" d="M13.6001 5L13.5037 5H13.5037C11.9056 4.99997 10.5628 4.99994 9.46388 5.08972C8.31495 5.18359 7.22304 5.38745 6.18658 5.91555C4.60602 6.72089 3.32098 8.00592 2.51565 9.58648C1.98755 10.6229 1.78369 11.7148 1.68982 12.8638C1.60004 13.9627 1.60006 15.3055 1.6001 16.9036V16.9036L1.6001 17V36.8L1.6001 36.8964V36.8964C1.60006 38.4945 1.60004 39.8373 1.68982 40.9362C1.78369 42.0852 1.98755 43.1771 2.51565 44.2135C3.32098 45.7941 4.60602 47.0791 6.18658 47.8845C7.22304 48.4126 8.31495 48.6164 9.46388 48.7103C10.5628 48.8001 11.9057 48.8 13.5038 48.8H13.6001H29.6001V54H21.0001C19.6746 54 18.6001 55.0745 18.6001 56.4C18.6001 57.7255 19.6746 58.8 21.0001 58.8H32.0001H43.0001C44.3256 58.8 45.4001 57.7255 45.4001 56.4C45.4001 55.0745 44.3256 54 43.0001 54H34.4001V48.8H52.0001L52.303 48.8001C53.8637 48.8013 55.0978 48.8022 56.1742 48.5138C59.073 47.7371 61.3372 45.4729 62.1139 42.5741C62.4023 41.4977 62.4014 40.2636 62.4002 38.7029L62.4001 38.4V37.9C62.4001 36.5745 61.3256 35.5 60.0001 35.5C58.6746 35.5 57.6001 36.5745 57.6001 37.9V38.4C57.6001 40.4145 57.5795 40.9509 57.4774 41.3317C57.1446 42.5741 56.1742 43.5445 54.9318 43.8773C54.551 43.9794 54.0146 44 52.0001 44H13.6001C11.8803 44 10.7349 43.9981 9.85475 43.9262C9.00266 43.8566 8.61275 43.7335 8.36574 43.6076C7.68835 43.2625 7.13762 42.7118 6.79248 42.0344C6.66662 41.7874 6.5435 41.3974 6.47388 40.5454C6.40197 39.6652 6.4001 38.5198 6.4001 36.8V17C6.4001 15.2802 6.40197 14.1348 6.47388 13.2547C6.5435 12.4026 6.66662 12.0127 6.79248 11.7656C7.13762 11.0883 7.68835 10.5375 8.36574 10.1924C8.61275 10.0665 9.00266 9.9434 9.85475 9.87378C10.7349 9.80187 11.8803 9.8 13.6001 9.8H50.4001C52.1199 9.8 53.2653 9.80187 54.1455 9.87378C54.9975 9.9434 55.3875 10.0665 55.6345 10.1924C56.3118 10.5375 56.8626 11.0883 57.2077 11.7656C57.3336 12.0127 57.4567 12.4026 57.5263 13.2547C57.5982 14.1348 57.6001 15.2802 57.6001 17V26.9C57.6001 28.2255 58.6746 29.3 60.0001 29.3C61.3256 29.3 62.4001 28.2255 62.4001 26.9V17V16.9037C62.4001 15.3056 62.4002 13.9627 62.3104 12.8638C62.2165 11.7148 62.0127 10.6229 61.4846 9.58648C60.6792 8.00592 59.3942 6.72089 57.8136 5.91555C56.7772 5.38745 55.6853 5.18359 54.5363 5.08972C53.4374 4.99994 52.0946 4.99997 50.4965 5H50.4965L50.4001 5H13.6001Z" fill="#868686"/>
<path fill-rule="evenodd" clip-rule="evenodd" d="M29.2469 16.1927C28.7596 16.8122 27.2949 19.6492 25.9919 22.4969L23.6233 27.6748L22.4661 25.9723C22.4661 25.9723 22.1233 25.408 21.5001 24.8999C20.123 23.7772 16.7592 24.2692 16.7592 24.2692C16.7592 24.2692 10.6784 24.7807 10.6949 26.6044C10.7113 28.383 11.5648 28.8669 15.1206 29.1129L18.6221 29.3551L20.2419 32.1321C23.3656 37.4873 24.8948 36.971 28.3624 29.3905C29.6572 26.5603 30.8792 24.414 31.0788 24.6204C31.2779 24.8267 32.5658 27.8293 33.941 31.2926C36.7426 38.3475 37.4459 39.3957 39.2405 39.1865C40.5517 39.0339 41.1887 38.0361 43.7404 32.1403L45.0506 29.1129H48.4204C51.9907 29.1129 53.3126 28.4585 53.3126 26.6911C53.3126 24.7531 52.0595 24.2692 47.0404 24.2692C41.7302 24.2692 41.7326 24.2682 40.0025 28.0342L38.9654 30.2909L36.1643 23.284C34.6235 19.4303 33.1389 16.0048 32.8647 15.6715C32.0665 14.7028 30.2084 14.9702 29.2469 16.1927Z" fill="#EB5757"/>
</svg>
