<svg width="64" height="64" viewBox="0 0 64 64" fill="none" xmlns="http://www.w3.org/2000/svg">
<g clip-path="url(#clip0_1881_10505)">
<path fill-rule="evenodd" clip-rule="evenodd" d="M53.7491 32.0565L53.6506 25.7841H43.5831C41.774 25.787 40.0377 25.0641 38.7554 23.774C37.473 22.4839 36.7496 20.7322 36.7438 18.9033V14.4784C36.7438 13.8182 37.0032 13.1851 37.4649 12.7183C37.9267 12.2516 38.5529 11.9893 39.2059 11.9893C39.8589 11.9893 40.4852 12.2516 40.9469 12.7183C41.4087 13.1851 41.6681 13.8182 41.6681 14.4784V18.9033C41.6681 19.4167 41.8698 19.9091 42.229 20.2722C42.5881 20.6353 43.0752 20.8392 43.5831 20.8392H53.4317L53.2019 7.84093C53.0268 7.57072 52.7883 7.34851 52.5076 7.1941C52.2269 7.03969 51.9128 6.95787 51.5933 6.95594H4.46218C3.8177 6.95895 3.19797 6.70525 2.73716 6.24976C2.27634 5.79427 2.01152 5.17364 2.00002 4.52222C1.99567 4.19257 2.05615 3.86534 2.17793 3.55951C2.29972 3.25369 2.48039 2.97537 2.70946 2.74072C2.93853 2.50606 3.21142 2.31975 3.51231 2.19259C3.81319 2.06543 4.13606 1.99997 4.46218 2H51.5933C53.9132 2 57.2727 3.36067 57.3493 5.70589C57.4587 9.0246 57.5134 21.0605 57.5134 21.0605V26.8793L57.5791 32.0565" fill="#FE7333"/>
<path fill-rule="evenodd" clip-rule="evenodd" d="M7.00091 38.9594C6.34791 38.9594 5.72165 39.2216 5.25991 39.6884C4.79816 40.1552 4.53876 40.7883 4.53876 41.4484C4.53876 42.1085 4.79816 42.7416 5.25991 43.2084C5.72165 43.6752 6.34791 43.9374 7.00091 43.9374H59.5269C60.1799 43.9374 60.8062 43.6752 61.2679 43.2084C61.7297 42.7416 61.9891 42.1085 61.9891 41.4484C61.9891 40.7883 61.7297 40.1552 61.2679 39.6884C60.8062 39.2216 60.1799 38.9594 59.5269 38.9594H7.00091Z" fill="#868686"/>
<path fill-rule="evenodd" clip-rule="evenodd" d="M7.00091 21.8238C6.34791 21.8238 5.72165 22.086 5.25991 22.5528C4.79816 23.0196 4.53876 23.6527 4.53876 24.3128C4.53876 24.9729 4.79816 25.606 5.25991 26.0728C5.72165 26.5396 6.34791 26.8018 7.00091 26.8018H24.5096C25.1626 26.8018 25.7888 26.5396 26.2506 26.0728C26.7123 25.606 26.9717 24.9729 26.9717 24.3128C26.9717 23.6527 26.7123 23.0196 26.2506 22.5528C25.7888 22.086 25.1626 21.8238 24.5096 21.8238H7.00091ZM15.7552 29.5674C15.1022 29.5674 14.476 29.8297 14.0142 30.2964C13.5525 30.7632 13.2931 31.3963 13.2931 32.0565C13.2931 32.7166 13.5525 33.3497 14.0142 33.8165C14.476 34.2832 15.1022 34.5455 15.7552 34.5455H24.5096C25.1626 34.5455 25.7888 34.2832 26.2506 33.8165C26.7123 33.3497 26.9717 32.7166 26.9717 32.0565C26.9717 31.3963 26.7123 30.7632 26.2506 30.2964C25.7888 29.8297 25.1626 29.5674 24.5096 29.5674H15.7552Z" fill="#868686"/>
<path fill-rule="evenodd" clip-rule="evenodd" d="M14.9346 62V44.3002C14.9346 43.6401 14.6752 43.007 14.2134 42.5402C13.7517 42.0734 13.1254 41.8112 12.4724 41.8112C11.8194 41.8112 11.1931 42.0734 10.7314 42.5402C10.2697 43.007 10.0103 43.6401 10.0103 44.3002V62" fill="#868686"/>
<path fill-rule="evenodd" clip-rule="evenodd" d="M34.7302 62V44.3002C34.7302 43.6401 34.4708 43.007 34.0091 42.5402C33.5473 42.0734 32.9211 41.8112 32.2681 41.8112C31.6151 41.8112 30.9888 42.0734 30.5271 42.5402C30.0653 43.007 29.8059 43.6401 29.8059 44.3002V62" fill="#868686"/>
<path fill-rule="evenodd" clip-rule="evenodd" d="M57.0428 62V44.3002C57.0428 43.6401 56.7834 43.007 56.3217 42.5402C55.8599 42.0734 55.2337 41.8112 54.5807 41.8112C53.9277 41.8112 53.3014 42.0734 52.8397 42.5402C52.3779 43.007 52.1185 43.6401 52.1185 44.3002V62" fill="#868686"/>
</g>
<defs>
<clipPath id="clip0_1881_10505">
<rect width="60" height="60" fill="white" transform="translate(2 2)"/>
</clipPath>
</defs>
</svg>
