<svg width="64" height="64" viewBox="0 0 64 64" fill="none" xmlns="http://www.w3.org/2000/svg">
<path d="M31.5 62.9764C30.2574 62.9764 29.25 61.9691 29.25 60.7264V52.948C29.0807 53.177 28.911 53.4118 28.7423 53.65C27.9787 54.7281 27.277 55.8141 26.7635 56.6357C26.5076 57.0451 26.3006 57.3854 26.1583 57.6221C26.0872 57.7403 26.0324 57.8325 25.996 57.8941L25.9552 57.9632L25.9456 57.9795L25.9436 57.983C25.5404 58.6741 24.8002 59.0995 24 59.0995C23.1998 59.0995 22.4599 58.6745 22.0566 57.9834L22.0544 57.9795L22.0448 57.9632L22.004 57.8941C21.9676 57.8325 21.9128 57.7403 21.8417 57.6221C21.6994 57.3854 21.4924 57.0451 21.2365 56.6357C20.723 55.8141 20.0213 54.7281 19.2577 53.65C19.089 53.4118 18.9193 53.177 18.75 52.948V60.7264C18.75 61.9691 17.7426 62.9764 16.5 62.9764H12.5C11.2574 62.9764 10.25 61.9691 10.25 60.7264C10.25 59.4838 11.2574 58.4764 12.5 58.4764H14.25V49.9715C13.3761 49.6626 12.75 48.8292 12.75 47.8495C12.75 46.6068 13.7574 45.5995 15 45.5995H16.5C17.4673 45.5995 18.2599 46.0509 18.7407 46.3806C19.2773 46.7485 19.7872 47.2207 20.2456 47.699C21.1678 48.6613 22.1096 49.8909 22.9298 51.0489C23.3069 51.5813 23.6677 52.112 24 52.6139C24.3323 52.112 24.6931 51.5813 25.0702 51.0489C25.8904 49.8909 26.8322 48.6613 27.7544 47.699C28.2128 47.2207 28.7227 46.7485 29.2593 46.3806C29.7401 46.0509 30.5326 45.5995 31.5 45.5995H33C34.2426 45.5995 35.25 46.6068 35.25 47.8495C35.25 48.8292 34.6239 49.6626 33.75 49.9715V58.4764H36.75H39.75V49.9715C38.8761 49.6626 38.25 48.8292 38.25 47.8495C38.25 46.6068 39.2574 45.5995 40.5 45.5995H42C42.9673 45.5995 43.7599 46.0509 44.2407 46.3806C44.7773 46.7485 45.2872 47.2207 45.7456 47.699C46.6678 48.6613 47.6096 49.8909 48.4298 51.0489C48.8069 51.5813 49.1677 52.112 49.5 52.6139C49.8323 52.112 50.1931 51.5813 50.5702 51.0489C51.3904 49.8909 52.3322 48.6613 53.2544 47.699C53.7128 47.2207 54.2227 46.7485 54.7593 46.3806C55.2401 46.0509 56.0326 45.5995 57 45.5995H58.5C59.7426 45.5995 60.75 46.6068 60.75 47.8495C60.75 48.8292 60.1239 49.6626 59.25 49.9715V58.4764H61C62.2426 58.4764 63.25 59.4838 63.25 60.7264C63.25 61.9691 62.2426 62.9764 61 62.9764H57C55.7574 62.9764 54.75 61.9691 54.75 60.7264V52.948C54.5807 53.177 54.411 53.4118 54.2423 53.65C53.4787 54.7281 52.777 55.8141 52.2635 56.6357C52.0076 57.0451 51.8006 57.3854 51.6583 57.6221C51.5872 57.7403 51.5324 57.8325 51.4959 57.8941L51.4552 57.9632L51.4456 57.9795L51.4434 57.9834C51.0401 58.6745 50.3002 59.0995 49.5 59.0995C48.6998 59.0995 47.9596 58.6741 47.5564 57.983L47.5544 57.9795L47.5448 57.9632L47.5041 57.8941C47.4676 57.8325 47.4128 57.7403 47.3417 57.6221C47.1994 57.3854 46.9924 57.0451 46.7365 56.6357C46.223 55.8141 45.5213 54.7281 44.7577 53.65C44.589 53.4118 44.4193 53.177 44.25 52.948V60.7264C44.25 61.9691 43.2426 62.9764 42 62.9764H36.75H31.5Z" fill="#EB5757"/>
<path d="M8.84375 21.4647V60.578C8.84375 61.9156 7.75944 62.9999 6.42187 62.9999C5.08431 62.9999 4 61.9156 4 60.578V18.541C4 16.0264 4.9749 13.6584 6.74495 11.8723L14.7423 3.80396C16.5086 2.02208 18.9608 0.999878 21.4701 0.999878H43.4628C48.8047 0.999878 53.1503 5.34554 53.1503 10.6874V42.9999C53.1503 44.3376 52.0662 45.4218 50.7285 45.4218C49.3912 45.4218 48.3066 44.3376 48.3066 42.9999V10.6874C48.3066 8.01669 46.134 5.84363 43.4628 5.84363H21.4701C20.2441 5.84363 19.0454 6.34314 18.1826 7.21397L10.1852 15.2823C9.79405 15.6768 9.48328 16.13 9.25906 16.621H15.9883C17.9915 16.621 19.6211 14.9914 19.6211 12.9882C19.6211 11.6505 20.7053 10.5663 22.043 10.5663C23.3807 10.5663 24.4648 11.6505 24.4648 12.9882C24.4648 17.6621 20.6622 21.4647 15.9883 21.4647H8.84375Z" fill="#868686"/>
<path fill-rule="evenodd" clip-rule="evenodd" d="M37.041 25.9999C38.3786 25.9999 39.4629 27.0842 39.4629 28.4218C39.4629 29.7594 38.3786 30.8436 37.041 30.8436H12.0957C10.7581 30.8436 9.67383 29.7594 9.67383 28.4218C9.67383 27.0842 10.7581 25.9999 12.0957 25.9999H37.041ZM25.0527 35.6874C26.3903 35.6874 27.4746 36.7717 27.4746 38.1093C27.4746 39.4469 26.3903 40.5311 25.0527 40.5311H12.0957C10.7581 40.5311 9.67383 39.4469 9.67383 38.1093C9.67383 36.7717 10.7581 35.6874 12.0957 35.6874H25.0527Z" fill="#868686"/>
</svg>
