<svg width="64" height="64" viewBox="0 0 64 64" fill="none" xmlns="http://www.w3.org/2000/svg">
<path d="M23.375 58.1562H13.6875C11.0168 58.1562 8.84375 55.9832 8.84375 53.3125V21.4648H15.9883C20.6622 21.4648 24.4648 17.6622 24.4648 12.9883C24.4648 11.6506 23.3807 10.5664 22.043 10.5664C20.7053 10.5664 19.6211 11.6506 19.6211 12.9883C19.6211 14.9915 17.9915 16.6211 15.9883 16.6211H9.25906C9.48328 16.1301 9.79405 15.6769 10.1852 15.2824L18.1826 7.2141C19.0454 6.34326 20.2441 5.84375 21.4701 5.84375H43.4628C46.134 5.84375 48.3066 8.01682 48.3066 10.6875V16.5781C48.3066 17.9158 49.3912 19 50.7285 19C52.0662 19 53.1503 17.9158 53.1503 16.5781V10.6875C53.1503 5.34566 48.8047 1 43.4628 1H21.4701C18.9608 1 16.5086 2.0222 14.7423 3.80408L6.74495 11.8724C4.9749 13.6586 4 16.0265 4 18.5411V53.3125C4 58.6543 8.34566 63 13.6875 63H23.375C24.7127 63 25.7969 61.9158 25.7969 60.5781C25.7969 59.2404 24.7127 58.1562 23.375 58.1562Z" fill="#868686"/>
<path fill-rule="evenodd" clip-rule="evenodd" d="M41.0413 26C42.3789 26 43.4631 27.0843 43.4631 28.4219C43.4631 29.7595 42.3789 30.8438 41.0413 30.8438H16.0959C14.7583 30.8438 13.6741 29.7595 13.6741 28.4219C13.6741 27.0843 14.7583 26 16.0959 26H41.0413ZM29.053 35.6875C30.3906 35.6875 31.4749 36.7718 31.4749 38.1094C31.4749 39.447 30.3906 40.5312 29.053 40.5312H16.0959C14.7583 40.5312 13.6741 39.447 13.6741 38.1094C13.6741 36.7718 14.7583 35.6875 16.0959 35.6875H29.053Z" fill="#868686"/>
<path fill-rule="evenodd" clip-rule="evenodd" d="M53.8963 20.4312C53.6572 19.8563 52.8428 19.8563 52.6037 20.4312L52.3562 21.0262C52.2554 21.2686 52.0274 21.4342 51.7658 21.4552L51.1234 21.5067C50.5027 21.5564 50.2511 22.331 50.7239 22.736L51.2134 23.1553C51.4127 23.3261 51.4998 23.594 51.4389 23.8493L51.2894 24.4762C51.1449 25.0819 51.8038 25.5606 52.3351 25.236L52.8851 24.9001C53.1091 24.7633 53.3909 24.7633 53.6149 24.9001L54.1649 25.236C54.6962 25.5606 55.3551 25.0819 55.2106 24.4762L55.0611 23.8493C55.0002 23.594 55.0873 23.3261 55.2866 23.1553L55.7761 22.736C56.2489 22.331 55.9973 21.5564 55.3766 21.5067L54.7342 21.4552C54.4725 21.4342 54.2446 21.2686 54.1438 21.0262L53.8963 20.4312ZM55.4402 28.2344C55.201 27.2181 54.2941 26.4998 53.25 26.4998C52.2059 26.4998 51.299 27.2181 51.0598 28.2344L47.468 43.4998H47.25C46.0074 43.4998 45 44.5071 45 45.7498C45 46.9079 45.875 47.8617 47 47.9861V48.7498V52.4998H46.25H45.75C44.5074 52.4998 43.5 53.5071 43.5 54.7498V58.4998H41.25V54.7498C41.25 53.8975 40.7685 53.1185 40.0062 52.7373C39.244 52.3562 38.3318 52.4384 37.65 52.9498L35 54.9373L32.35 52.9498C31.6682 52.4384 30.756 52.3562 29.9938 52.7373C29.2315 53.1185 28.75 53.8975 28.75 54.7498V60.7498C28.75 61.9924 29.7574 62.9998 31 62.9998C32.2426 62.9998 33.25 61.9924 33.25 60.7498V59.2498L33.65 59.5498C34.45 60.1498 35.55 60.1498 36.35 59.5498L36.75 59.2498V60.7498C36.75 61.9924 37.7574 62.9998 39 62.9998H45.75C46.9926 62.9998 48 61.9924 48 60.7498V56.9998H49.25H57.25H58.5V60.7498C58.5 61.9924 59.5074 62.9998 60.75 62.9998C61.9926 62.9998 63 61.9924 63 60.7498V54.7498C63 53.5071 61.9926 52.4998 60.75 52.4998H60.25H59.5V48.7498V47.9861C60.625 47.8617 61.5 46.9079 61.5 45.7498C61.5 44.5071 60.4926 43.4998 59.25 43.4998H59.032L55.4402 28.2344ZM51.5 48.7498V47.9998H55V48.7498V52.4998H51.5V48.7498ZM53.25 38.5734L52.0909 43.4998H54.4091L53.25 38.5734Z" fill="#EB5757"/>
</svg>
