<svg width="64" height="64" viewBox="0 0 64 64" fill="none" xmlns="http://www.w3.org/2000/svg">
<path d="M23.375 58.1562H13.6875C11.0168 58.1562 8.84375 55.9832 8.84375 53.3125V21.4648H15.9883C20.6622 21.4648 24.4648 17.6622 24.4648 12.9883C24.4648 11.6506 23.3807 10.5664 22.043 10.5664C20.7053 10.5664 19.6211 11.6506 19.6211 12.9883C19.6211 14.9915 17.9915 16.6211 15.9883 16.6211H9.25906C9.48328 16.1301 9.79405 15.6769 10.1852 15.2824L18.1826 7.2141C19.0454 6.34326 20.2441 5.84375 21.4701 5.84375H43.4628C46.134 5.84375 48.3066 8.01682 48.3066 10.6875V34.0781C48.3066 35.4158 49.3912 36.5 50.7285 36.5C52.0662 36.5 53.1503 35.4158 53.1503 34.0781V10.6875C53.1503 5.34566 48.8047 1 43.4628 1H21.4701C18.9608 1 16.5086 2.0222 14.7423 3.80408L6.74495 11.8724C4.9749 13.6586 4 16.0265 4 18.5411V53.3125C4 58.6543 8.34566 63 13.6875 63H23.375C24.7127 63 25.7969 61.9158 25.7969 60.5781C25.7969 59.2404 24.7127 58.1562 23.375 58.1562Z" fill="#868686"/>
<path fill-rule="evenodd" clip-rule="evenodd" d="M41.0413 26C42.3789 26 43.4631 27.0843 43.4631 28.4219C43.4631 29.7595 42.3789 30.8438 41.0413 30.8438H16.0959C14.7583 30.8438 13.6741 29.7595 13.6741 28.4219C13.6741 27.0843 14.7583 26 16.0959 26H41.0413ZM29.053 35.6875C30.3906 35.6875 31.4749 36.7718 31.4749 38.1094C31.4749 39.447 30.3906 40.5312 29.053 40.5312H16.0959C14.7583 40.5312 13.6741 39.447 13.6741 38.1094C13.6741 36.7718 14.7583 35.6875 16.0959 35.6875H29.053Z" fill="#868686"/>
<path d="M28 62.5V58.8702C28 58.594 28.2239 58.3702 28.5 58.3702H30.4197C30.6266 58.3702 30.8121 58.2427 30.8864 58.0496L38.207 39.002C38.3594 38.6054 38.9058 38.5676 39.1113 38.9395L45.0624 49.708C45.2526 50.0522 45.7474 50.0522 45.9376 49.708L51.8887 38.9395C52.0942 38.5676 52.6406 38.6054 52.793 39.002L60.1136 58.0496C60.1879 58.2427 60.3734 58.3702 60.5803 58.3702H62.5C62.7761 58.3702 63 58.594 63 58.8702V62.5C63 62.7761 62.7761 63 62.5 63H50.6053C50.3291 63 50.1053 62.7761 50.1053 62.5V58.8702C50.1053 58.594 50.3291 58.3702 50.6053 58.3702H52.1559C52.5025 58.3702 52.7439 58.0261 52.626 57.7001L51.3952 54.2975C51.2501 53.8962 50.7013 53.8495 50.4904 54.2205L45.9347 62.2352C45.743 62.5725 45.257 62.5725 45.0653 62.2352L40.5096 54.2205C40.2987 53.8495 39.7499 53.8962 39.6048 54.2975L38.374 57.7001C38.2561 58.0261 38.4975 58.3702 38.8441 58.3702H40.3947C40.6709 58.3702 40.8947 58.594 40.8947 58.8702V62.5C40.8947 62.7761 40.6709 63 40.3947 63H28.5C28.2239 63 28 62.7761 28 62.5Z" fill="#EB5757"/>
</svg>
