<svg width="64" height="64" viewBox="0 0 64 64" fill="none" xmlns="http://www.w3.org/2000/svg">
<path d="M18.5 58.1562H13.6875C11.0168 58.1562 8.84375 55.9832 8.84375 53.3125V21.4648H15.9883C20.6622 21.4648 24.4648 17.6622 24.4648 12.9883C24.4648 11.6506 23.3807 10.5664 22.043 10.5664C20.7053 10.5664 19.6211 11.6506 19.6211 12.9883C19.6211 14.9915 17.9915 16.6211 15.9883 16.6211H9.25906C9.48328 16.1301 9.79405 15.6769 10.1852 15.2824L18.1826 7.2141C19.0454 6.34326 20.2441 5.84375 21.4701 5.84375H43.4628C46.134 5.84375 48.3066 8.01682 48.3066 10.6875V16.5781C48.3066 17.9158 49.3912 19 50.7285 19C52.0662 19 53.1503 17.9158 53.1503 16.5781V10.6875C53.1503 5.34566 48.8047 1 43.4628 1H21.4701C18.9608 1 16.5086 2.0222 14.7423 3.80408L6.74495 11.8724C4.9749 13.6586 4 16.0265 4 18.5411V53.3125C4 58.6543 8.34566 63 13.6875 63H18.5C19.8377 63 20.9219 61.9158 20.9219 60.5781C20.9219 59.2404 19.8377 58.1562 18.5 58.1562Z" fill="#868686"/>
<path fill-rule="evenodd" clip-rule="evenodd" d="M38.3142 25C39.6518 25 40.7361 26.0843 40.7361 27.4219C40.7361 28.7595 39.6518 29.8438 38.3142 29.8438H15.4219C14.0843 29.8438 13 28.7595 13 27.4219C13 26.0843 14.0843 25 15.4219 25H38.3142ZM26.3259 34.0781C27.6635 34.0781 28.7478 35.1624 28.7478 36.5C28.7478 37.8376 27.6635 38.9219 26.3259 38.9219H15.4219C14.0843 38.9219 13 37.8376 13 36.5C13 35.1624 14.0843 34.0781 15.4219 34.0781H26.3259Z" fill="#868686"/>
<path fill-rule="evenodd" clip-rule="evenodd" d="M36.7627 33.2511C37.6242 33.2247 38.4251 33.6927 38.8249 34.4562L43.25 42.9069L47.6751 34.4562C48.075 33.6927 48.8758 33.2247 49.7373 33.2511C50.5987 33.2774 51.3695 33.7936 51.7218 34.5802L60.9423 55.1643H61.75C62.9926 55.1643 64 56.1716 64 57.4143V60.7571C64 61.9998 62.9926 63.0071 61.75 63.0071H49.6684C48.4257 63.0071 47.4184 61.9998 47.4184 60.7571V58.6943L45.2092 62.6064C44.8101 63.313 44.0615 63.75 43.25 63.75C42.4385 63.75 41.6899 63.313 41.2908 62.6064L39.0816 58.6943V60.7571C39.0816 61.9998 38.0743 63.0071 36.8316 63.0071H24.75C23.5074 63.0071 22.5 61.9998 22.5 60.7571V57.4143C22.5 56.1716 23.5074 55.1643 24.75 55.1643H25.5577L34.7782 34.5802C35.1306 33.7936 35.9013 33.2774 36.7627 33.2511ZM30.4886 55.1643H33.482L35.5308 50.5572C35.8763 49.7804 36.63 49.2646 37.4792 49.224C38.3283 49.1834 39.1279 49.6248 39.5459 50.3651L43.25 56.9243L46.9541 50.3651C47.3721 49.6248 48.1717 49.1834 49.0208 49.224C49.87 49.2646 50.6237 49.7804 50.9692 50.5572L53.018 55.1643H56.0115L49.5106 40.6516L45.2433 48.8009C44.8549 49.5425 44.0871 50.0071 43.25 50.0071C42.4129 50.0071 41.6451 49.5425 41.2567 48.8009L36.9894 40.6516L30.4886 55.1643Z" fill="#EB5757"/>
</svg>
