<svg width="64" height="64" viewBox="0 0 64 64" fill="none" xmlns="http://www.w3.org/2000/svg">
<path d="M8.84375 21.4648V60.5781C8.84375 61.9157 7.75944 63 6.42187 63C5.08431 63 4 61.9157 4 60.5781V18.5411C4 16.0265 4.9749 13.6586 6.74495 11.8724L14.7423 3.80408C16.5086 2.0222 18.9608 1 21.4701 1H39.5781C40.9157 1 42 2.08431 42 3.42188C42 4.75944 40.9157 5.84375 39.5781 5.84375H21.4701C20.2441 5.84375 19.0454 6.34326 18.1826 7.2141L10.1852 15.2824C9.79405 15.6769 9.48328 16.1301 9.25906 16.6211H15.9883C17.9915 16.6211 19.6211 14.9915 19.6211 12.9883C19.6211 11.6506 20.7053 10.5664 22.043 10.5664C23.3807 10.5664 24.4648 11.6506 24.4648 12.9883C24.4648 17.6622 20.6622 21.4648 15.9883 21.4648H8.84375Z" fill="#868686"/>
<path fill-rule="evenodd" clip-rule="evenodd" d="M50 14.6C51.0324 14.6 51.9324 15.3026 52.1828 16.3043L57.7567 38.5995H59.1681C60.4107 38.5995 61.4181 39.6068 61.4181 40.8495C61.4181 42.0921 60.4107 43.0995 59.1681 43.0995H58.25V44.6014V50.4139H61C62.2426 50.4139 63.25 51.4213 63.25 52.6639V60.7264C63.25 61.9691 62.2426 62.9764 61 62.9764C59.7574 62.9764 58.75 61.9691 58.75 60.7264V54.9139H56C54.7574 54.9139 53.75 53.9066 53.75 52.6639V50.4139V44.6014V43.0995V41.1265L53.1182 38.5995L50 26.1268L46.8818 38.5995L46.25 41.1265V43.0995V44.6014V50.4139V52.6639C46.25 53.9066 45.2426 54.9139 44 54.9139H41.25V60.7264C41.25 61.9691 40.2426 62.9764 39 62.9764H31.5C30.2574 62.9764 29.25 61.9691 29.25 60.7264V52.948C29.0807 53.177 28.911 53.4118 28.7423 53.65C27.9787 54.7281 27.277 55.8141 26.7635 56.6357C26.5076 57.0451 26.3006 57.3854 26.1583 57.6221C26.0872 57.7403 26.0324 57.8325 25.996 57.8941L25.9552 57.9632L25.9456 57.9795L25.9436 57.983C25.5404 58.6741 24.8002 59.0995 24 59.0995C23.1998 59.0995 22.4599 58.6745 22.0566 57.9834L22.0544 57.9795L22.0448 57.9632L22.004 57.8941C21.9676 57.8325 21.9128 57.7403 21.8417 57.6221C21.6994 57.3854 21.4924 57.0451 21.2365 56.6357C20.723 55.8141 20.0213 54.7281 19.2577 53.65C19.089 53.4118 18.9193 53.177 18.75 52.948V60.7264C18.75 61.9691 17.7426 62.9764 16.5 62.9764H12.5C11.2574 62.9764 10.25 61.9691 10.25 60.7264C10.25 59.4838 11.2574 58.4764 12.5 58.4764H14.25V49.9715C13.3761 49.6626 12.75 48.8292 12.75 47.8495C12.75 46.6068 13.7574 45.5995 15 45.5995H16.5C17.4673 45.5995 18.2599 46.0509 18.7407 46.3806C19.2773 46.7485 19.7872 47.2207 20.2456 47.699C21.1678 48.6613 22.1096 49.8909 22.9298 51.0489C23.3069 51.5813 23.6677 52.112 24 52.6139C24.3323 52.112 24.6931 51.5813 25.0702 51.0489C25.8904 49.8909 26.8322 48.6613 27.7544 47.699C28.2128 47.2207 28.7227 46.7485 29.2593 46.3806C29.7401 46.0509 30.5326 45.5995 31.5 45.5995H33C34.2426 45.5995 35.25 46.6068 35.25 47.8495C35.25 48.8292 34.6239 49.6626 33.75 49.9715V58.4764H36.75V52.6639C36.75 51.4213 37.7574 50.4139 39 50.4139H41.75V44.6014V43.0995H40.5C39.2574 43.0995 38.25 42.0921 38.25 40.8495C38.25 39.6068 39.2574 38.5995 40.5 38.5995H42.2433L47.8172 16.3043C48.0676 15.3026 48.9676 14.6 50 14.6Z" fill="#EB5757"/>
<path d="M56 54.9139C54.7574 54.9139 53.75 53.9066 53.75 52.6639V50.4139H46.25V52.6639C46.25 53.9066 45.2426 54.9139 44 54.9139H56Z" fill="#EB5757"/>
<path d="M53.75 43.0995V41.1265L53.1182 38.5995H46.8818L46.25 41.1265V43.0995H53.75Z" fill="#EB5757"/>
<path d="M49.0787 1.61137C49.4225 0.796372 50.5775 0.796372 50.9213 1.61137L51.9885 4.14064C52.1338 4.48481 52.4587 4.71935 52.8311 4.74878L55.5751 4.96563C56.4658 5.03602 56.8242 6.15015 56.1415 6.72657L54.0721 8.47395C53.7828 8.71828 53.6563 9.1051 53.7453 9.47319L54.3813 12.1011C54.5901 12.9642 53.6543 13.6511 52.8935 13.193L50.5158 11.7614C50.1985 11.5704 49.8015 11.5704 49.4842 11.7614L47.1065 13.193C46.3457 13.6511 45.4099 12.9642 45.6187 12.1011L46.2547 9.47319C46.3437 9.1051 46.2172 8.71828 45.9279 8.47395L43.8585 6.72657C43.1758 6.15014 43.5342 5.03602 44.4249 4.96563L47.1689 4.74878C47.5413 4.71935 47.8662 4.48481 48.0115 4.14064L49.0787 1.61137Z" fill="#EB5757"/>
<path fill-rule="evenodd" clip-rule="evenodd" d="M37.041 25C38.3786 25 39.4629 26.0843 39.4629 27.4219C39.4629 28.7595 38.3786 29.8438 37.041 29.8438H14.5C13.1624 29.8438 12.0781 28.7595 12.0781 27.4219C12.0781 26.0843 13.1624 25 14.5 25H37.041ZM25.0527 34.6875C26.3903 34.6875 27.4746 35.7718 27.4746 37.1094C27.4746 38.447 26.3903 39.5312 25.0527 39.5312H14.5C13.1624 39.5312 12.0781 38.447 12.0781 37.1094C12.0781 35.7718 13.1624 34.6875 14.5 34.6875H25.0527Z" fill="#868686"/>
</svg>
