<svg width="64" height="64" viewBox="0 0 64 64" fill="none" xmlns="http://www.w3.org/2000/svg">
<path d="M46.5409 33.41C46.2718 32.9759 45.8963 32.6176 45.4499 32.3692C45.0036 32.1207 44.5012 31.9903 43.9904 31.9903C43.4795 31.9903 42.9771 32.1207 42.5308 32.3692C42.0845 32.6176 41.709 32.9759 41.4399 33.41L38.4393 38.3L28.5673 21.5C28.3016 21.0523 27.924 20.6815 27.4715 20.4239C27.0191 20.1663 26.5074 20.0309 25.9868 20.0309C25.4661 20.0309 24.9544 20.1663 24.502 20.4239C24.0496 20.6815 23.6719 21.0523 23.4062 21.5L2.40204 57.5C2.13943 57.9547 2.0008 58.4704 2 58.9955C1.99921 59.5206 2.13627 60.0367 2.39749 60.4922C2.65871 60.9477 3.03494 61.3267 3.48858 61.5913C3.94222 61.8559 4.45737 61.9968 4.98255 62H58.9934C59.5295 62.0011 60.0561 61.8585 60.5185 61.5871C60.9808 61.3158 61.362 60.9255 61.6224 60.4569C61.8828 59.9884 62.0128 59.4586 61.999 58.9228C61.9852 58.3869 61.828 57.8645 61.5439 57.41L46.5409 33.41ZM27.337 56H10.2036L25.9868 29L34.8085 44L31.0578 50L27.337 56ZM34.3885 56L38.8593 48.89L40.9898 45.71L43.9904 40.67L53.5923 56H34.3885Z" fill="#868686"/>
<path d="M52 3C56.9706 3 61 7.02944 61 12C61 16.9706 56.9706 21 52 21C47.0294 21 43 16.9706 43 12C43 7.02944 47.0294 3 52 3ZM52 6.16113C48.7754 6.16113 46.1611 8.77537 46.1611 12C46.1611 15.2246 48.7754 17.8389 52 17.8389C55.2246 17.8389 57.8389 15.2246 57.8389 12C57.8389 8.77537 55.2246 6.16113 52 6.16113Z" fill="#FE7333" stroke="#FE7333" stroke-width="2"/>
</svg>
