<svg width="64" height="64" viewBox="0 0 64 64" fill="none" xmlns="http://www.w3.org/2000/svg">
<path d="M24.375 58.1562H14.6875C12.0168 58.1562 9.84375 55.9832 9.84375 53.3125V21.4648H16.9883C21.6622 21.4648 25.4648 17.6622 25.4648 12.9883C25.4648 11.6506 24.3807 10.5664 23.043 10.5664C21.7053 10.5664 20.6211 11.6506 20.6211 12.9883C20.6211 14.9915 18.9915 16.6211 16.9883 16.6211H10.2591C10.4833 16.1301 10.7941 15.6769 11.1852 15.2824L19.1826 7.2141C20.0454 6.34326 21.2441 5.84375 22.4701 5.84375H44.4628C47.134 5.84375 49.3066 8.01682 49.3066 10.6875V27C49.3066 28.3377 50.3912 29.4219 51.7285 29.4219C53.0662 29.4219 54.1503 28.3377 54.1503 27V10.6875C54.1503 5.34566 49.8047 1 44.4628 1H22.4701C19.9608 1 17.5086 2.0222 15.7423 3.80408L7.74495 11.8724C5.9749 13.6586 5 16.0265 5 18.5411V53.3125C5 58.6543 9.34566 63 14.6875 63H24.375C25.7127 63 26.7969 61.9158 26.7969 60.5781C26.7969 59.2404 25.7127 58.1562 24.375 58.1562Z" fill="#868686"/>
<path fill-rule="evenodd" clip-rule="evenodd" d="M39.2442 35V38.0425C38.0103 38.1972 36.8704 38.4898 35.8213 38.8812C35.7824 38.7962 35.7384 38.7126 35.6892 38.631L35.5467 38.4191L33.907 36.2326L33.743 36.0363C32.8842 35.1045 31.4426 34.9559 30.407 35.7326C29.3713 36.5093 29.1101 37.9353 29.7644 39.0206L29.907 39.2326L31.491 41.3449C30.8776 41.8306 30.3193 42.3398 29.8144 42.8526L27.728 41.6006L27.5025 41.4795C26.3556 40.9408 24.9643 41.3481 24.2983 42.4581C23.6324 43.5679 23.928 44.9867 24.9429 45.7452L25.1558 45.8877L26.7546 46.8472C26.6867 46.9618 26.6223 47.073 26.5613 47.1803C26.2736 47.6868 26.059 48.1133 25.9138 48.4206C25.8412 48.5742 25.7859 48.6988 25.7468 48.7887C25.7324 48.8221 25.7204 48.8511 25.7105 48.875L25.7009 48.8981C25.698 48.9052 25.6951 48.9115 25.6925 48.9173C25.6901 48.9224 25.688 48.9271 25.6863 48.9313L25.6823 48.9421C25.4664 49.4809 25.4954 50.1039 25.7615 50.6198L25.7673 50.6305L25.7728 50.6411L25.783 50.6608C25.796 50.6851 25.8137 50.7176 25.8357 50.7575C25.8797 50.8372 25.9419 50.9471 26.0222 51.0827C26.1828 51.3537 26.4168 51.7294 26.7263 52.1754C27.3435 53.0648 28.2709 54.2495 29.5213 55.4459C32.0198 57.8367 35.8984 60.3507 41.2 60.4938C46.5493 60.638 50.6997 58.1045 53.4236 55.6842C54.7938 54.4667 55.8427 53.2454 56.5505 52.3268C56.9055 51.8661 57.1777 51.4773 57.365 51.1979C57.4587 51.0581 57.5316 50.9451 57.5828 50.8639C57.6083 50.8234 57.6284 50.7906 57.6433 50.7663L57.6619 50.736L57.6707 50.7204C58.0197 50.1343 58.0436 49.4014 57.7381 48.7917L57.7322 48.7809L57.7156 48.7487C57.7067 48.7316 57.6957 48.7106 57.6826 48.6859L57.6599 48.6432C57.613 48.5554 57.5463 48.4331 57.4597 48.2819C57.2864 47.9792 57.0325 47.5569 56.698 47.0563C56.6496 46.9838 56.5994 46.9096 56.5475 46.8338L58.0005 45.7442C59.1047 44.9158 59.3287 43.3486 58.5005 42.2442C57.6721 41.1397 56.105 40.916 55.0005 41.7442L53.3053 43.0154C52.7981 42.5331 52.2424 42.0506 51.6385 41.5852L53.1786 39.0187C53.8889 37.8348 53.505 36.2994 52.3212 35.589C51.1372 34.8786 49.6019 35.2625 48.8915 36.4464L47.3078 39.0856C46.3544 38.7033 45.3332 38.396 44.2442 38.1928V35C44.2442 33.6193 43.1249 32.5 41.7442 32.5C40.3635 32.5 39.2442 33.6193 39.2442 35ZM34.4672 44.107C34.2243 44.8532 34.0931 45.6498 34.0931 46.4769L34.1028 46.8705C34.3012 50.7828 37.4385 53.9194 41.3509 54.1176L41.7444 54.1283C45.8379 54.1282 49.1801 50.9131 49.3851 46.8705L49.3958 46.4769C49.3958 45.8853 49.3286 45.3093 49.2015 44.7561C49.806 45.2227 50.3607 45.7192 50.866 46.2233C51.9762 47.331 52.8137 48.4437 53.3718 49.279C53.4266 49.361 53.4772 49.4411 53.5256 49.5177L53.5584 49.5696L53.5847 49.611C53.5623 49.6412 53.5396 49.6723 53.5165 49.704C53.4736 49.7628 53.4291 49.8237 53.3816 49.8854C52.788 50.6558 51.907 51.6805 50.7664 52.694C48.468 54.7361 45.2685 56.6025 41.3084 56.4958C37.3007 56.3877 34.3196 54.5023 32.2859 52.5563C31.2702 51.5844 30.513 50.6164 30.0125 49.8952L29.8054 49.5856C29.8749 49.4541 29.9523 49.3099 30.0398 49.1559C30.5076 48.3323 31.2223 47.2363 32.2048 46.1471C32.8509 45.4309 33.602 44.7279 34.4672 44.107ZM41.7444 42.8256C43.7608 42.8257 45.3958 44.4605 45.3958 46.4769C45.3957 48.4933 43.7608 50.1282 41.7444 50.1283C39.728 50.1283 38.0932 48.4933 38.0931 46.4769C38.0931 44.4605 39.728 42.8256 41.7444 42.8256Z" fill="#43B02A"/>
</svg>
