<svg width="64" height="64" viewBox="0 0 64 64" fill="none" xmlns="http://www.w3.org/2000/svg">
<path fill-rule="evenodd" clip-rule="evenodd" d="M24.051 44.4666C23.9849 45.807 23.5559 47.1043 22.81 48.22C25.0603 49.3592 26.9513 51.0993 28.2733 53.2474C29.5954 55.3955 30.2968 57.8677 30.3 60.39C30.3 61.0265 30.0471 61.6369 29.5971 62.087C29.147 62.5371 28.5365 62.79 27.9 62.79H5.4C4.76348 62.79 4.15303 62.5371 3.70294 62.087C3.25286 61.6369 3 61.0265 3 60.39C3.00317 57.8677 3.70464 55.3955 5.02666 53.2474C6.34869 51.0993 8.23966 49.3592 10.49 48.22C9.74408 47.1043 9.31515 45.807 9.249 44.4666C9.18286 43.1262 9.48199 41.793 10.1145 40.6093C10.7469 39.4256 11.689 38.4359 12.84 37.7459C13.9911 37.0559 15.308 36.6914 16.65 36.6914C17.992 36.6914 19.3089 37.0559 20.46 37.7459C21.611 38.4359 22.5531 39.4256 23.1855 40.6093C23.818 41.793 24.1171 43.1262 24.051 44.4666ZM18.1093 41.9173C17.677 41.6302 17.169 41.478 16.65 41.48C15.9578 41.48 15.2939 41.7549 14.8045 42.2444C14.315 42.7339 14.04 43.3977 14.04 44.09C14.038 44.609 14.1903 45.1169 14.4774 45.5493C14.7645 45.9817 15.1736 46.3191 15.6527 46.5186C16.1319 46.7181 16.6595 46.7709 17.1687 46.6701C17.6778 46.5693 18.1456 46.3196 18.5126 45.9526C18.8796 45.5855 19.1293 45.1178 19.2301 44.6086C19.3309 44.0995 19.2782 43.5719 19.0786 43.0927C18.8791 42.6136 18.5417 42.2045 18.1093 41.9173ZM11.3143 53.3885C9.78134 54.5401 8.66387 56.1585 8.13 58H25.13C24.5961 56.1585 23.4787 54.5401 21.9457 53.3885C20.4128 52.2369 18.5473 51.6142 16.63 51.6142C14.7127 51.6142 12.8472 52.2369 11.3143 53.3885Z" fill="#43B02A"/>
<path fill-rule="evenodd" clip-rule="evenodd" d="M54.051 44.4666C53.9849 45.807 53.5559 47.1043 52.81 48.22C55.0603 49.3592 56.9513 51.0993 58.2733 53.2474C59.5954 55.3955 60.2968 57.8677 60.3 60.39C60.3 61.0265 60.0471 61.6369 59.5971 62.087C59.147 62.5371 58.5365 62.79 57.9 62.79H35.4C34.7635 62.79 34.153 62.5371 33.7029 62.087C33.2529 61.6369 33 61.0265 33 60.39C33.0032 57.8677 33.7046 55.3955 35.0267 53.2474C36.3487 51.0993 38.2397 49.3592 40.49 48.22C39.7441 47.1043 39.3151 45.807 39.249 44.4666C39.1829 43.1262 39.482 41.793 40.1145 40.6093C40.7469 39.4256 41.689 38.4359 42.84 37.7459C43.9911 37.0559 45.308 36.6914 46.65 36.6914C47.992 36.6914 49.3089 37.0559 50.46 37.7459C51.611 38.4359 52.5531 39.4256 53.1855 40.6093C53.818 41.793 54.1171 43.1262 54.051 44.4666ZM48.1093 41.9173C47.677 41.6302 47.169 41.478 46.65 41.48C45.9578 41.48 45.2939 41.7549 44.8045 42.2444C44.315 42.7339 44.04 43.3977 44.04 44.09C44.038 44.609 44.1903 45.1169 44.4774 45.5493C44.7645 45.9817 45.1736 46.3191 45.6527 46.5186C46.1319 46.7181 46.6595 46.7709 47.1687 46.6701C47.6778 46.5693 48.1456 46.3196 48.5126 45.9526C48.8796 45.5855 49.1294 45.1178 49.2301 44.6086C49.3309 44.0995 49.2782 43.5719 49.0786 43.0927C48.8791 42.6136 48.5417 42.2045 48.1093 41.9173ZM41.3143 53.3885C39.7813 54.5401 38.6639 56.1585 38.13 58H55.13C54.5961 56.1585 53.4787 54.5401 51.9457 53.3885C50.4128 52.2369 48.5473 51.6142 46.63 51.6142C44.7127 51.6142 42.8472 52.2369 41.3143 53.3885Z" fill="#43B02A"/>
<path d="M14.4904 11.9V32C14.4904 32.6418 14.2354 33.2574 13.7816 33.7112C13.3278 34.1651 12.7122 34.42 12.0704 34.42C11.4286 34.42 10.8131 34.1651 10.3592 33.7112C9.90537 33.2574 9.65041 32.6418 9.65041 32V9.48002C9.64909 9.16138 9.71072 8.84562 9.83174 8.55086C9.95277 8.25609 10.1308 7.98813 10.3557 7.76235C10.5805 7.53658 10.8477 7.35743 11.142 7.23518C11.4363 7.11294 11.7518 7.05002 12.0704 7.05002H14.4904V3.42002C14.4904 3.10138 14.5533 2.78587 14.6756 2.49161C14.7978 2.19735 14.977 1.93013 15.2027 1.70528C15.4285 1.48043 15.6965 1.30238 15.9912 1.18135C16.286 1.06033 16.6018 0.998704 16.9204 1.00002H45.8504C46.169 0.998704 46.4848 1.06033 46.7796 1.18135C47.0743 1.30238 47.3423 1.48043 47.5681 1.70528C47.7939 1.93013 47.973 2.19735 48.0952 2.49161C48.2175 2.78587 48.2804 3.10138 48.2804 3.42002V7.05002H50.7304C51.0466 7.05213 51.3593 7.1167 51.6504 7.24002C51.9354 7.36177 52.1937 7.53846 52.4104 7.76002C52.6309 7.98906 52.8072 8.2569 52.9304 8.55002C53.0583 8.84326 53.123 9.16012 53.1204 9.48002V32C53.1204 32.6418 52.8654 33.2574 52.4116 33.7112C51.9578 34.1651 51.3422 34.42 50.7004 34.42C50.0586 34.42 49.4431 34.1651 48.9892 33.7112C48.5354 33.2574 48.2804 32.6418 48.2804 32V11.9H45.8504C45.2086 11.9 44.593 11.6451 44.1392 11.1912C43.9145 10.9665 43.7362 10.6997 43.6146 10.4061C43.493 10.1125 43.4304 9.79782 43.4304 9.48002V5.84002H19.3404V9.48002C19.3404 10.1218 19.0854 10.7374 18.6316 11.1912C18.1778 11.6451 17.5622 11.9 16.9204 11.9H14.4904Z" fill="#868686"/>
<path d="M38.5898 15.9999V18.4299C38.5896 18.7477 38.6522 19.0623 38.7741 19.3558C38.8959 19.6493 39.0746 19.9157 39.2998 20.1399C39.5238 20.3654 39.7903 20.5445 40.0837 20.6666C40.3772 20.7888 40.692 20.8517 41.0098 20.8517C41.3277 20.8517 41.6425 20.7888 41.936 20.6666C42.2294 20.5445 42.4958 20.3654 42.7198 20.1399C42.9451 19.9157 43.1238 19.6493 43.2456 19.3558C43.3675 19.0623 43.4301 18.7477 43.4298 18.4299V15.9999C43.4301 15.6821 43.3675 15.3675 43.2456 15.074C43.1238 14.7805 42.9451 14.514 42.7198 14.2899C42.4958 14.0643 42.2294 13.8853 41.936 13.7632C41.6425 13.641 41.3277 13.5781 41.0098 13.5781C40.692 13.5781 40.3772 13.641 40.0837 13.7632C39.7903 13.8853 39.5238 14.0643 39.2998 14.2899C39.0746 14.514 38.8959 14.7805 38.7741 15.074C38.6522 15.3675 38.5896 15.6821 38.5898 15.9999Z" fill="#868686"/>
<path d="M23.3509 14.2889C23.8048 14.7427 24.0597 15.3583 24.0597 16.0001V18.4301C24.0597 19.0719 23.8048 19.6874 23.3509 20.1413C22.8971 20.5951 22.2816 20.8501 21.6397 20.8501C20.9979 20.8501 20.3824 20.5951 19.9285 20.1413C19.4747 19.6874 19.2197 19.0719 19.2197 18.4301V16.0001C19.2197 15.3583 19.4747 14.7427 19.9285 14.2889C20.3824 13.835 20.9979 13.5801 21.6397 13.5801C22.2816 13.5801 22.8971 13.835 23.3509 14.2889Z" fill="#868686"/>
<path d="M23.3509 31.0413C23.8048 30.5875 24.0597 29.972 24.0597 29.3301V26.9101C24.0565 26.4319 23.9122 25.9653 23.645 25.5687C23.3778 25.1721 22.9995 24.8632 22.5575 24.6806C22.1155 24.4981 21.6294 24.45 21.1602 24.5424C20.691 24.6348 20.2595 24.8636 19.9197 25.2001C19.4694 25.6551 19.2177 26.27 19.2197 26.9101V29.3301C19.2197 29.972 19.4747 30.5875 19.9285 31.0413C20.3824 31.4952 20.9979 31.7501 21.6397 31.7501C22.2816 31.7501 22.8971 31.4952 23.3509 31.0413Z" fill="#868686"/>
<path d="M43.4299 29.33C43.4299 29.9719 43.1749 30.5874 42.7211 31.0412C42.2672 31.4951 41.6517 31.75 41.0099 31.75C40.368 31.75 39.7525 31.4951 39.2987 31.0412C38.8448 30.5874 38.5899 29.9719 38.5899 29.33V26.91C38.5885 26.5921 38.6506 26.2771 38.7725 25.9835C38.8945 25.6899 39.0737 25.4235 39.2999 25.2C39.5239 24.9745 39.7903 24.7955 40.0838 24.6733C40.3772 24.5512 40.692 24.4883 41.0099 24.4883C41.3278 24.4883 41.6425 24.5512 41.936 24.6733C42.2295 24.7955 42.4959 24.9745 42.7199 25.2C42.946 25.4235 43.1253 25.6899 43.2472 25.9835C43.3691 26.2771 43.4312 26.5921 43.4299 26.91V29.33Z" fill="#868686"/>
<path d="M29.6083 25.1986C30.0622 24.7447 30.6777 24.4898 31.3195 24.4898C31.6382 24.4885 31.9539 24.5501 32.2487 24.6711C32.5435 24.7921 32.8114 24.9702 33.0372 25.195C33.263 25.4199 33.4421 25.6871 33.5644 25.9814C33.6866 26.2756 33.7495 26.5911 33.7495 26.9098V29.3298C33.7708 29.6613 33.7239 29.9937 33.6117 30.3064C33.4995 30.6191 33.3243 30.9055 33.097 31.1478C32.8698 31.3902 32.5952 31.5833 32.2903 31.7154C31.9855 31.8474 31.6568 31.9156 31.3245 31.9156C30.9923 31.9156 30.6636 31.8474 30.3587 31.7154C30.0539 31.5833 29.7793 31.3902 29.552 31.1478C29.3248 30.9055 29.1496 30.6191 29.0374 30.3064C28.9251 29.9937 28.8782 29.6613 28.8995 29.3298V26.9098C28.8995 26.2679 29.1545 25.6524 29.6083 25.1986Z" fill="#868686"/>
<path d="M33.7504 40.2302V37.8102C33.7504 37.4915 33.6875 37.176 33.5653 36.8817C33.443 36.5875 33.2639 36.3203 33.0381 36.0954C32.8123 35.8706 32.5444 35.6925 32.2496 35.5715C31.9548 35.4505 31.6391 35.3888 31.3204 35.3902C30.6925 35.4002 30.0933 35.6549 29.6504 36.1002C29.1974 36.5541 28.9422 37.1688 28.9404 37.8102V40.2302C28.9422 40.8715 29.1974 41.4862 29.6504 41.9402C30.1059 42.3939 30.7226 42.6486 31.3654 42.6486C32.0083 42.6486 32.625 42.3939 33.0804 41.9402C33.5189 41.4798 33.7594 40.8659 33.7504 40.2302Z" fill="#868686"/>
<path d="M33.7504 16C33.7439 15.3625 33.4892 14.7527 33.0404 14.3V14.29C32.7006 13.9534 32.2691 13.7246 31.7999 13.6322C31.3307 13.5398 30.8447 13.5879 30.4027 13.7705C29.9607 13.953 29.5823 14.262 29.3151 14.6586C29.0479 15.0551 28.9036 15.5218 28.9004 16V18.43C28.94 19.0462 29.2127 19.6243 29.6631 20.0467C30.1135 20.4691 30.7079 20.7042 31.3254 20.7042C31.9429 20.7042 32.5372 20.4691 32.9877 20.0467C33.4381 19.6243 33.7108 19.0462 33.7504 18.43V16Z" fill="#868686"/>
</svg>
