<svg width="64" height="64" viewBox="0 0 64 64" fill="none" xmlns="http://www.w3.org/2000/svg">
<path d="M46.5483 17.4512C45.6027 16.5057 44.0692 16.5057 43.1236 17.4512L37.5703 23.0045L32.017 17.4517C31.0715 16.5057 29.5379 16.5057 28.5923 17.4517C27.6463 18.3973 27.6463 19.9308 28.5923 20.8769L34.1452 26.4297L28.5923 31.9825C27.6463 32.9285 27.6463 34.4621 28.5923 35.4076C29.0649 35.8807 29.685 36.1172 30.3047 36.1172C30.9243 36.1172 31.5445 35.8807 32.017 35.4081L37.5703 29.8548L43.1231 35.4076C43.5961 35.8807 44.2163 36.1172 44.8359 36.1172C45.4556 36.1172 46.0757 35.8807 46.5483 35.4081C47.4943 34.4621 47.4943 32.9285 46.5483 31.983L40.9955 26.4297L46.5483 20.8769C47.4943 19.9308 47.4943 18.3973 46.5483 17.4512Z" fill="#43B02A"/>
<path d="M62.9999 26.4297C62.9999 30.8463 61.8495 35.1972 59.6731 39.0126C59.0104 40.1743 57.5313 40.5792 56.3695 39.916C55.2078 39.2533 54.8029 37.7742 55.4656 36.6124C57.2257 33.5269 58.1561 30.0057 58.1561 26.4297C58.1561 15.0786 48.9213 5.84375 37.5702 5.84375C26.2191 5.84375 16.9843 15.0786 16.9843 26.4297C16.9843 37.7808 26.2191 47.0156 37.5702 47.0156C41.1027 47.0156 44.5865 46.1065 47.6446 44.3866C48.8106 43.731 50.2869 44.1444 50.9426 45.3104C51.5982 46.4764 51.1847 47.9527 50.0187 48.6083C46.2374 50.7355 41.9329 51.8594 37.5702 51.8594C31.4578 51.8594 25.8426 49.691 21.452 46.0838L5.12844 62.2966C4.65589 62.7659 4.03859 63 3.42177 63C2.79927 63 2.17678 62.7616 1.70328 62.2848C0.76102 61.3359 0.766223 59.8024 1.71511 58.8596L18.0169 42.669C14.3491 38.2609 12.1405 32.5988 12.1405 26.4297C12.1405 12.4079 23.5484 1 37.5702 1C51.592 1 62.9999 12.4079 62.9999 26.4297Z" fill="#868686"/>
</svg>
