<svg width="64" height="64" viewBox="0 0 64 64" fill="none" xmlns="http://www.w3.org/2000/svg">
<path d="M31.75 1.36108C32.9385 1.36108 34.1005 1.71627 35.0859 2.38062C36.0712 3.04491 36.8355 3.9881 37.2812 5.0896L37.3184 5.1814L37.4141 5.20776C41.9312 6.45011 45.916 9.14085 48.7559 12.8669C51.5956 16.5931 53.1336 21.1488 53.1338 25.8337V40.3767L53.167 40.4265L58.8164 48.9001C59.106 49.3343 59.2725 49.8389 59.2979 50.3601C59.3232 50.8814 59.2062 51.3999 58.96 51.8601C58.7137 52.3203 58.3471 52.7052 57.8994 52.9734C57.4516 53.2416 56.939 53.3836 56.417 53.3835H42.2607L42.2363 53.5544C41.872 56.0756 40.6113 58.3811 38.6855 60.0486C36.7598 61.716 34.2973 62.6345 31.75 62.6345C29.2028 62.6344 26.7411 61.7159 24.8154 60.0486C22.8897 58.3811 21.629 56.0756 21.2646 53.5544L21.2402 53.3835H7.08398C6.56198 53.3836 6.04938 53.2416 5.60156 52.9734C5.15383 52.7052 4.78725 52.3203 4.54102 51.8601C4.2948 51.3999 4.1778 50.8815 4.20312 50.3601C4.22844 49.8389 4.39501 49.3343 4.68457 48.9001L10.334 40.4265L10.3672 40.3767V25.8337C10.3672 15.9854 17.0265 7.68824 26.0869 5.20776L26.1826 5.1814L26.2197 5.0896C26.6654 3.98809 27.4298 3.0449 28.415 2.38062C29.4004 1.71636 30.5617 1.36118 31.75 1.36108ZM27.3877 53.3835V53.5847L27.2021 53.6501C27.5344 54.5913 28.1501 55.4066 28.9648 55.9832C29.7797 56.5597 30.7537 56.8689 31.752 56.8689C32.7502 56.8689 33.7242 56.5597 34.5391 55.9832C35.3539 55.4066 35.9695 54.5914 36.3018 53.6501L36.3965 53.3835H27.3877ZM31.75 10.2166C27.6084 10.2167 23.6366 11.8622 20.708 14.7908C17.7793 17.7195 16.1338 21.6919 16.1338 25.8337V41.2498C16.1339 41.7481 16.0047 42.2369 15.7607 42.6687L15.6494 42.8503L12.6797 47.3054L12.4727 47.6169H51.0254L50.8174 47.3054L47.8486 42.8503C47.5338 42.3763 47.3663 41.8198 47.3672 41.2507V25.8337C47.3672 21.6919 45.7217 17.7195 42.793 14.7908C39.8643 11.8621 35.8918 10.2166 31.75 10.2166Z" fill="#868686" stroke="white" stroke-width="0.4"/>
</svg>
