<svg width="64" height="64" viewBox="0 0 64 64" fill="none" xmlns="http://www.w3.org/2000/svg">
<path fill-rule="evenodd" clip-rule="evenodd" d="M26.8733 58.1562H13.6875C11.0167 58.1562 8.84375 55.9833 8.84375 53.3125V10.6875C8.84375 8.01666 11.0167 5.84375 13.6875 5.84375H43.4631C46.134 5.84375 48.3069 8.01666 48.3069 10.6875V24.25C48.3069 25.5876 49.3911 26.6719 50.7287 26.6719C52.0663 26.6719 53.1506 25.5876 53.1506 24.25V10.6875C53.1506 5.34581 48.8048 1 43.4631 1H13.6875C8.34581 1 4 5.34581 4 10.6875V53.3125C4 58.6542 8.34581 63 13.6875 63H26.8732C28.2108 63 29.295 61.9157 29.295 60.5781C29.295 59.2405 28.2108 58.1562 26.8733 58.1562ZM29.0529 25.2188C30.3905 25.2188 31.4748 26.303 31.4748 27.6406C31.4748 28.9782 30.3905 30.0625 29.0529 30.0625H16.0959C14.7583 30.0625 13.674 28.9782 13.674 27.6406C13.674 26.303 14.7583 25.2188 16.0959 25.2188H29.0529ZM13.674 37.3281C13.674 35.9905 14.7583 34.9062 16.0959 34.9062H21.3029C22.6405 34.9062 23.7248 35.9905 23.7248 37.3281C23.7248 38.6657 22.6405 39.75 21.3029 39.75H16.0959C14.7583 39.75 13.674 38.6657 13.674 37.3281ZM41.0412 15.5312C42.3788 15.5312 43.4631 16.6155 43.4631 17.9531C43.4631 19.2907 42.3788 20.375 41.0412 20.375H16.0959C14.7583 20.375 13.674 19.2907 13.674 17.9531C13.674 16.6155 14.7583 15.5312 16.0959 15.5312H41.0412Z" fill="#868686"/>
<path d="M57.8925 36.0692L46.0051 30.7575C45.6113 30.5815 45.1957 30.5192 44.7952 30.5565C44.3947 30.5194 43.9789 30.5817 43.5852 30.7575L31.6978 36.0692C30.8255 36.459 30.2639 37.3249 30.2639 38.2804V47.503C30.2639 51.2909 31.7604 55.1571 34.3697 58.1103C37.1557 61.2635 40.8 63 44.6317 63H44.9585C48.7902 63 52.4345 61.2635 55.2205 58.1103C57.8298 55.1571 59.3263 51.2908 59.3263 47.503V38.2804C59.3263 37.3251 58.7648 36.459 57.8925 36.0692ZM54.4824 39.8508V47.503C54.4824 52.5319 50.4094 58.1562 44.9584 58.1562H44.6316C39.1807 58.1562 35.1075 52.5318 35.1075 47.503V39.8508L44.795 35.5222L54.4825 39.8508H54.4824Z" fill="#43B02A"/>
</svg>
