<svg width="64" height="64" viewBox="0 0 64 64" fill="none" xmlns="http://www.w3.org/2000/svg">
<path d="M58.9549 19.1011L56.3091 17.2737V10.9156C56.3091 9.57804 55.2304 8.49377 53.8997 8.49377C52.5691 8.49377 51.4904 9.57804 51.4904 10.9156V13.9454L33.3644 1.42577C32.5426 0.858078 31.4574 0.858078 30.6356 1.42577L5.04513 19.1011C3.94839 19.8585 3.67023 21.3664 4.42388 22.4687C5.15861 23.5437 6.60289 23.8362 7.69095 23.1482V53.4238C7.69095 58.7041 11.9886 63 17.271 63H46.7289C52.0078 63 56.3055 58.707 56.3088 53.4301C56.3097 52.0925 55.2318 51.0075 53.9011 51.0066H53.8995C52.5695 51.0066 51.491 52.0899 51.4902 53.4269C51.4885 56.0346 49.3527 58.1562 46.7289 58.1562H17.271C14.6455 58.1562 12.5096 56.0332 12.5096 53.4238V19.8223L32 6.36034L51.4904 19.8223V41.319C51.4904 42.6566 52.5691 43.7409 53.8997 43.7409C55.2304 43.7409 56.3091 42.6566 56.3091 41.319V23.1482C56.7054 23.3987 57.149 23.5193 57.5883 23.5193C58.3551 23.5193 59.1091 23.1522 59.5762 22.4687C60.3298 21.3664 60.0515 19.8585 58.9549 19.1011Z" fill="#868686"/>
<g clip-path="url(#clip0_55127_6467)">
<path d="M40.3086 21.0078C43.4789 21.1684 46 23.7898 46 27V28C46 31.3137 43.3137 34 40 34H24C23.0584 34 22.168 33.782 21.375 33.3955V37H29.125C30.1606 37 31 37.8394 31 38.875V42.5684C31.7927 42.7873 32.375 43.5127 32.375 44.375V48.5C32.375 50.2949 30.9199 51.75 29.125 51.75C27.3301 51.75 25.875 50.2949 25.875 48.5V44.375C25.875 43.5127 26.4573 42.7873 27.25 42.5684V40.75H19.5C18.4645 40.75 17.625 39.9106 17.625 38.875V29C17.625 28.6201 17.7672 28.2741 18 28.0098V27C18 23.6863 20.6863 21 24 21H40L40.3086 21.0078ZM43.5 37.5C43.9862 37.5 44.4548 37.6951 44.791 38.0449C44.8409 38.0969 45.927 39.2297 47.0293 40.6533C47.837 41.6965 48.4499 42.6309 48.8623 43.4648C49.2729 44.2951 49.4999 45.0557 49.5 45.7432C49.5 48.9389 46.7873 51.5 43.5 51.5C43.1725 51.5 42.8433 51.4745 42.5215 51.4238C41.5773 51.2752 40.9003 50.4088 41.0645 49.4551C41.2276 48.5078 42.1482 47.9028 43.0869 48.0498H43.0879C43.2224 48.0709 43.3613 48.0811 43.5 48.0811C44.8841 48.0811 45.9717 47.0105 45.9717 45.7432C45.9704 45.719 45.9233 44.9259 44.2188 42.7207C43.9761 42.4068 43.7307 42.1065 43.5 41.8311C43.2693 42.1066 43.0239 42.4069 42.7812 42.7207C41.0754 44.9276 41.0295 45.7203 41.0283 45.7432C41.0283 45.9075 41.0464 46.0707 41.0811 46.2275C41.2901 47.173 40.6545 48.069 39.7168 48.2588C38.7852 48.4471 37.8383 47.882 37.6309 46.9443C37.544 46.5516 37.5 46.1473 37.5 45.7432C37.5001 45.0557 37.7271 44.2951 38.1377 43.4648C38.5501 42.6309 39.163 41.6965 39.9707 40.6533C41.0729 39.2297 42.1591 38.0969 42.209 38.0449C42.5452 37.6951 43.0138 37.5 43.5 37.5ZM24 25C22.8954 25 22 25.8954 22 27V28C22 29.1046 22.8954 30 24 30H40C41.1046 30 42 29.1046 42 28V27C42 25.9643 41.2128 25.113 40.2041 25.0107L40 25H24Z" fill="#3B86C8"/>
</g>
<defs>
<clipPath id="clip0_55127_6467">
<rect width="33" height="31" fill="white" transform="translate(17 21)"/>
</clipPath>
</defs>
</svg>
