<svg width="64" height="64" viewBox="0 0 64 64" fill="none" xmlns="http://www.w3.org/2000/svg">
<path d="M42 47.5L42.2559 47.5127C43.5164 47.6408 44.5 48.7057 44.5 50C44.5 51.2943 43.5164 52.3592 42.2559 52.4873L42 52.5H22C20.6193 52.5 19.5 51.3807 19.5 50C19.5 48.6193 20.6193 47.5 22 47.5H42Z" fill="#43B02A"/>
<path fill-rule="evenodd" clip-rule="evenodd" d="M31.5 44C38.3934 44 44 38.3934 44 31.5C44 24.6066 38.3934 19 31.5 19C24.6066 19 19 24.6066 19 31.5C19 38.3934 24.6066 44 31.5 44ZM31.5 23.1328C31.4544 23.1684 31.3868 23.2278 31.2998 23.3291C31.0624 23.6054 30.7818 24.0664 30.5078 24.7314C30.0421 25.862 29.642 27.4687 29.4717 29.4551H33.5283C33.358 27.4687 32.9579 25.862 32.4922 24.7314C32.2182 24.0664 31.9376 23.6054 31.7002 23.3291C31.6132 23.2278 31.5456 23.1684 31.5 23.1328ZM37.6475 29.4551C37.5323 27.955 37.2895 26.4655 36.917 25.1025C38.2227 26.2183 39.1776 27.7306 39.6084 29.4551H37.6475ZM29.4717 33.5459C29.6421 35.5319 30.0422 37.1381 30.5078 38.2686C30.7818 38.9336 31.0624 39.3946 31.2998 39.6709C31.3865 39.7718 31.4544 39.8305 31.5 39.8662C31.5456 39.8305 31.6135 39.7718 31.7002 39.6709C31.9376 39.3946 32.2182 38.9336 32.4922 38.2686C32.9578 37.1381 33.3579 35.5319 33.5283 33.5459H29.4717ZM26.082 25.1025C24.7767 26.2183 23.8224 27.7308 23.3916 29.4551H25.3525C25.4677 27.9551 25.7095 26.4654 26.082 25.1025ZM37.6475 33.5459C37.5323 35.0453 37.2893 36.5341 36.917 37.8965C38.2222 36.7809 39.1775 35.2698 39.6084 33.5459H37.6475ZM23.3916 33.5459C23.8224 35.2696 24.7772 36.781 26.082 37.8965C25.7098 36.5342 25.4677 35.0452 25.3525 33.5459H23.3916Z" fill="#43B02A"/>
<path d="M15.2998 9.86133L15.3194 9.92129C11.569 10.6975 8.75 14.0195 8.75 18V54C8.75 58.5564 12.4437 62.25 17 62.25H46C50.5564 62.25 54.25 58.5563 54.25 54V18C54.25 13.4437 50.5564 9.75 46 9.75H45.75V8.51758C45.7498 4.39879 41.8519 1.44478 37.9346 2.4668L37.5557 2.57813L15.2998 9.86133ZM41.25 8.51758V9.75H30.1092L38.9561 6.85449L39.168 6.79883C40.2278 6.59082 41.2498 7.40172 41.25 8.51758ZM46 14.25C48.0711 14.25 49.75 15.9289 49.75 18V54C49.75 56.0711 48.0711 57.75 46 57.75H17C14.9289 57.75 13.25 56.0711 13.25 54V18C13.25 15.9289 14.9289 14.25 17 14.25H46Z" fill="#868686"/>
</svg>
