<svg width="64" height="64" viewBox="0 0 64 64" fill="none" xmlns="http://www.w3.org/2000/svg">
<path d="M55.587 43.625C56.9197 43.625 58 42.5407 58 41.2031V3.42188C58 2.08427 56.9197 1 55.587 1H13.239C9.24741 1 6 4.25936 6 8.26562V55.7344C6 59.7406 9.24741 63 13.239 63H55.587C56.9197 63 58 61.9157 58 60.5781V53.3125C58 51.9749 56.9197 50.8906 55.587 50.8906C54.2543 50.8906 53.174 51.9749 53.174 53.3125V58.1562H13.239C11.9085 58.1562 10.826 57.0698 10.826 55.7344V8.26562C10.826 6.9302 11.9085 5.84375 13.239 5.84375H53.174V41.2031C53.174 42.5407 54.2543 43.625 55.587 43.625Z" fill="#868686"/>
<path fill-rule="evenodd" clip-rule="evenodd" d="M17.7031 27.3984C17.7031 19.3859 24.1979 12.8672 32.1811 12.8672C40.1642 12.8672 46.659 19.3859 46.659 27.3984C46.659 35.411 40.1642 41.9297 32.1811 41.9297C24.1979 41.9297 17.7031 35.411 17.7031 27.3984ZM25.4753 29.8203H22.8346C23.3785 31.9336 24.6184 33.7677 26.2915 35.0654C25.8811 33.4842 25.6036 31.7017 25.4753 29.8203ZM22.8346 24.9766H25.4753C25.6036 23.0951 25.881 21.3126 26.2915 19.7315C24.6184 21.0291 23.3785 22.8632 22.8346 24.9766ZM30.3127 29.8203C30.6107 33.5665 31.552 35.9633 32.1811 36.8322C32.8102 35.9633 33.7515 33.5665 34.0493 29.8203H30.3127ZM32.1811 17.9645C31.552 18.8335 30.6106 21.2304 30.3128 24.9766H34.0493C33.7515 21.2304 32.8102 18.8335 32.1811 17.9645ZM38.8869 29.8203C38.7585 31.7017 38.4812 33.4842 38.0707 35.0654C39.7438 33.7677 40.9837 31.9336 41.5276 29.8203H38.8869ZM38.0707 19.7315C38.481 21.3126 38.7585 23.0951 38.8869 24.9766H41.5276C40.9837 22.8632 39.7438 21.0291 38.0707 19.7315ZM20.3574 48.7109C20.3574 47.3733 21.4377 46.2891 22.7704 46.2891H41.3505C42.6832 46.2891 43.7635 47.3733 43.7635 48.7109C43.7635 50.0485 42.6832 51.1328 41.3505 51.1328H22.7704C21.4377 51.1328 20.3574 50.0485 20.3574 48.7109Z" fill="#43B02A"/>
</svg>
