<svg width="64" height="64" viewBox="0 0 64 64" fill="none" xmlns="http://www.w3.org/2000/svg">
<path fill-rule="evenodd" clip-rule="evenodd" d="M28.9769 59.7507C28.9755 61.0896 27.8913 62.174 26.5555 62.174H26.5527L20.8788 62.1673C20.8599 62.1673 20.8409 62.1673 20.822 62.1668C15.0299 62.0242 10.0962 59.9772 6.55471 56.2458C2.92615 52.4225 1.00804 47.0474 1.00804 40.7013C1.00804 36.0746 2.38028 31.6067 5.08644 27.4212C7.13842 24.2472 9.96 21.2381 13.4717 18.4717C16.9834 15.7052 23.8834 11.5174 23.8834 11.5174L20.7856 3.48259C20.6777 3.20391 20.6229 2.90722 20.6229 2.60816V2.48683C20.6229 1.69012 21.0136 0.943653 21.6683 0.490559C22.3224 0.0379387 23.1573 -0.0644341 23.9014 0.217565C29.3516 2.28493 34.6522 2.28493 40.1071 0.217565C40.8512 -0.0639602 41.6856 0.0379387 42.3403 0.490559C42.9945 0.943653 43.3852 1.69012 43.3852 2.48683V2.60816C43.3852 2.90722 43.3303 3.20391 43.2225 3.48259L39.9563 11.9535C41.2083 12.5459 42.9278 13.4218 44.8686 14.5829C46.0171 15.2702 46.3922 16.7593 45.7063 17.91C45.0209 19.0608 43.5342 19.4362 42.3862 18.7494C39.6294 17.1005 37.3721 16.0863 36.489 15.7105H27.766C27.6898 15.7105 27.5867 15.719 27.4633 15.7351C26.0068 16.3607 21.2775 18.5295 16.6268 22.1576C9.47657 27.735 5.85132 33.974 5.85132 40.7013C5.85132 50.7106 11.6217 57.0743 20.9133 57.3146L26.5584 57.3212C27.8956 57.3231 28.9788 58.4103 28.9769 59.7507ZM28.8213 10.8577L26.9978 6.12865C30.3307 6.76848 33.6764 6.768 37.0107 6.12817L35.1868 10.8577H28.8213Z" fill="#868686"/>
<path fill-rule="evenodd" clip-rule="evenodd" d="M17.3339 26.0015C17.3061 26.0005 17.2781 26 17.25 26C16.0074 26 15 27.0074 15 28.25V28.421V36H13.5C12.2574 36 11.25 37.0074 11.25 38.25C11.25 39.4926 12.2574 40.5 13.5 40.5H15V42H13.5C12.2574 42 11.25 43.0074 11.25 44.25C11.25 45.4926 12.2574 46.5 13.5 46.5H15V49.25C15 50.4926 16.0074 51.5 17.25 51.5C18.4926 51.5 19.5 50.4926 19.5 49.25V46.5H24C25.2426 46.5 26.25 45.4926 26.25 44.25C26.25 43.0074 25.2426 42 24 42H19.5V40.5H23.25C27.2541 40.5 30.5 37.2541 30.5 33.25C30.5 29.2459 27.2541 26 23.25 26H17.421C17.3918 26 17.3628 26.0005 17.3339 26.0015ZM19.5 30.5V36H23.25C24.7688 36 26 34.7688 26 33.25C26 31.7312 24.7688 30.5 23.25 30.5H19.5Z" fill="#43B02A"/>
<path d="M51 50.6667C52.1043 50.6667 53 49.6967 53 48.5C53 47.3033 52.1043 46.3333 51 46.3333H49V44.1667C49 42.9699 48.1043 42 47 42C45.8953 42 45 42.9699 45 44.1667V46.3333H43C41.8953 46.3333 41 47.3033 41 48.5C41 49.6967 41.8953 50.6667 43 50.6667H45V52.8333C45 54.0301 45.8953 55 47 55C48.1043 55 49 54.0301 49 52.8333V50.6667H51Z" fill="#EB5757"/>
<path fill-rule="evenodd" clip-rule="evenodd" d="M43.4727 37.1387C43.8478 35.7961 45.0931 34.8102 46.5714 34.8102H47H47.4286C48.9069 34.8102 50.1522 35.7961 50.5273 37.1387H43.4727ZM39.5514 37.1387C39.9745 33.6801 42.9561 31 46.5714 31H47H47.4286C51.0439 31 54.0255 33.6801 54.4486 37.1387H56.8571C59.6975 37.1387 62 39.4132 62 42.219V54.9197C62 57.7255 59.6975 60 56.8571 60H37.1429C34.3025 60 32 57.7255 32 54.9197V42.219C32 39.4132 34.3025 37.1387 37.1429 37.1387H39.5514ZM35.8571 42.219C35.8571 41.5175 36.4328 40.9489 37.1429 40.9489H56.8571C57.5672 40.9489 58.1429 41.5175 58.1429 42.219V43.8862C58.1221 43.926 58.1026 43.9669 58.0845 44.0087C57.6679 44.969 57.1402 45.2332 56.8366 45.3332C56.6522 45.3939 56.4856 45.4118 56.3724 45.4146C56.3198 45.416 56.2837 45.4139 56.2695 45.4128C55.2366 45.2684 54.2701 45.9639 54.0977 46.9861C53.9226 48.0239 54.6323 49.0055 55.6829 49.1785L56 47.2993C55.6829 49.1785 55.6841 49.1786 55.6852 49.1788L55.6876 49.1792L55.6925 49.18L55.7031 49.1817L55.7276 49.1853L55.7556 49.1893L55.7887 49.1935C55.8348 49.1993 55.8917 49.2053 55.9583 49.2106C56.0912 49.2212 56.2652 49.2288 56.4713 49.2236C56.8804 49.2132 57.4371 49.1517 58.0563 48.9479C58.0851 48.9384 58.114 48.9286 58.1429 48.9185V54.9197C58.1429 55.6211 57.5672 56.1898 56.8571 56.1898H37.1429C36.4328 56.1898 35.8571 55.6212 35.8571 54.9197V48.9185C35.886 48.9286 35.9149 48.9384 35.9437 48.9479C36.5629 49.1517 37.1196 49.2132 37.5287 49.2236C37.7348 49.2288 37.9088 49.2212 38.0417 49.2106C38.1083 49.2053 38.1652 49.1993 38.2113 49.1935C38.2344 49.1907 38.2548 49.1879 38.2724 49.1853L38.2969 49.1817L38.3075 49.18L38.3124 49.1792L38.3148 49.1788C38.3159 49.1786 38.3171 49.1785 38 47.2993L38.3171 49.1785C39.3677 49.0055 40.0774 48.0239 39.9023 46.9861C39.7299 45.9639 38.7634 45.2684 37.7305 45.4128C37.7163 45.4139 37.6802 45.416 37.6276 45.4146C37.5144 45.4118 37.3478 45.3939 37.1634 45.3332C36.8598 45.2332 36.3321 44.969 35.9155 44.0087C35.8974 43.9669 35.8779 43.926 35.8571 43.8862V42.219Z" fill="#868686"/>
</svg>
