<svg width="64" height="64" viewBox="0 0 64 64" fill="none" xmlns="http://www.w3.org/2000/svg">
<path d="M43.8063 31.3614C43.1648 31.1017 42.5159 30.8657 41.8621 30.65C45.8705 27.6435 48.4688 22.8536 48.4688 17.4688C48.4688 8.38766 41.0807 1 32.0001 1C22.919 1 15.5313 8.38766 15.5313 17.4688C15.5313 22.8584 18.1339 27.652 22.1485 30.658C18.4707 31.8685 15.0191 33.7516 11.9988 36.2359C6.46113 40.7911 2.61073 47.1448 1.15713 54.1266C0.701612 56.3143 1.24748 58.5612 2.65425 60.2915C4.0544 62.0128 6.13002 63 8.34944 63H42.172C43.5092 63 44.5938 61.9158 44.5938 60.5781C44.5938 59.2404 43.5092 58.1562 42.172 58.1562H8.34944C7.31541 58.1562 6.69197 57.5792 6.41194 57.2353C5.92898 56.6412 5.74214 55.8682 5.89918 55.1138C8.41424 43.0328 19.0757 34.2109 31.3837 33.9247C31.5881 33.9323 31.7934 33.9375 32.0001 33.9375C32.2077 33.9375 32.414 33.9323 32.6202 33.9247C35.8581 33.998 39.007 34.6451 41.9903 35.8518C43.2306 36.3528 44.6421 35.7544 45.1435 34.5146C45.6449 33.2743 45.0465 31.8628 43.8063 31.3614ZM20.3751 17.4688C20.3751 11.0588 25.5897 5.84375 32.0001 5.84375C38.41 5.84375 43.6251 11.0588 43.6251 17.4688C43.6251 23.6923 38.709 28.7887 32.5564 29.08C32.3709 29.0772 32.1855 29.0739 32.0001 29.0739C31.8109 29.0739 31.6221 29.0762 31.4334 29.08C25.2855 28.7834 20.3751 23.689 20.3751 17.4688Z" fill="#868686"/>
<path d="M62.9999 52.5557V51.9611C62.9999 50.131 62.2832 48.4214 60.9829 47.1476C59.7001 45.8913 57.9924 45.1992 56.1741 45.1992H53.9552C52.8881 45.1992 51.9865 44.2565 51.9865 43.1406V42.2575C51.9865 41.1733 52.8327 40.3555 53.9552 40.3555H56.0535C56.6703 40.3555 57.3085 40.7684 57.3085 41.4595C57.3085 42.7967 58.3926 43.8814 59.7303 43.8814C61.0676 43.8814 62.1522 42.7967 62.1522 41.4595C62.1522 38.557 60.0085 36.1352 57.185 35.6158V34.0586C57.185 32.7209 56.1004 31.6367 54.7631 31.6367C53.4254 31.6367 52.3412 32.7209 52.3412 34.0586V35.699C51.1426 35.9824 50.0447 36.5798 49.154 37.4511C47.857 38.7202 47.1427 40.4269 47.1427 42.2575V43.1406C47.1427 46.9466 50.1985 50.043 53.9552 50.043H56.1741C57.2858 50.043 58.1561 50.8854 58.1561 51.9611V52.5557C58.1561 53.6081 57.3042 54.4023 56.1741 54.4023H52.5674C51.9723 54.4023 51.3697 54.0282 51.3697 53.3125C51.3697 51.9748 50.2855 50.8906 48.9478 50.8906C47.6105 50.8906 46.5259 51.9748 46.5259 53.3125C46.5259 56.565 49.0627 59.1274 52.3412 59.2404V60.5781C52.3412 61.9158 53.4254 63 54.7631 63C56.1004 63 57.185 61.9158 57.185 60.5781V59.1756C60.5165 58.7102 62.9999 55.9699 62.9999 52.5557Z" fill="#43B02A"/>
</svg>
