<svg width="64" height="64" viewBox="0 0 64 64" fill="none" xmlns="http://www.w3.org/2000/svg">
<path d="M57.6899 55.1209C57.4184 53.8111 56.1351 52.97 54.8267 53.242C53.5169 53.514 52.6754 54.7959 52.9474 56.1057C53.0538 56.618 52.9242 57.1463 52.5912 57.5555C52.4086 57.7797 52.0052 58.1562 51.3557 58.1562H34.3359V51.1759L41.3797 41.2145C43.933 42.4651 46.2395 44.2243 48.1434 46.422C49.019 47.4324 50.5487 47.5421 51.5596 46.6665C52.5704 45.7905 52.6802 44.2612 51.8041 43.2499C48.8307 39.8176 45.0569 37.2572 40.8764 35.7473C43.9094 33.1906 45.8398 29.3657 45.8398 25.0977C45.8398 23.6332 45.6127 22.198 45.1733 20.8319C45.5976 20.3854 45.8398 19.7899 45.8398 19.1641C45.8398 8.47375 44.618 3.09691 44.5659 2.87317C44.311 1.77623 43.3332 1 42.207 1H21.621C20.4858 1 19.5033 1.78853 19.2569 2.89635C19.2053 3.12955 17.9882 8.7254 17.9882 19.1641C17.9882 19.7908 18.2313 20.3873 18.6561 20.8338C18.2167 22.2023 17.9882 23.6384 17.9882 25.0977C17.9882 29.3705 19.9234 33.1991 22.962 35.7558C20.1566 36.7723 17.5232 38.2638 15.1964 40.1833C10.5693 44.0001 7.3523 49.324 6.13806 55.1738C5.73693 57.1057 6.21942 59.0895 7.46157 60.616C8.69427 62.1311 10.5206 63 12.4728 63H51.3557C53.2937 63 55.1139 62.1296 56.3484 60.6127C57.6048 59.0682 58.0939 57.0664 57.6899 55.1209ZM31.914 46.2115L27.2055 39.5523C28.7282 39.206 30.3048 39.0234 31.914 39.0234C33.5152 39.0234 35.0946 39.2022 36.6272 39.5457L31.914 46.2115ZM23.6645 5.84375H40.1725C40.4554 7.77179 40.8385 11.1804 40.9587 16.0591C37.8254 15.3889 34.7271 15.054 31.6723 15.054C28.6927 15.054 25.7543 15.3733 22.8722 16.0109C22.9966 11.2249 23.3821 7.79449 23.6645 5.84375ZM22.832 25.0977C22.832 23.5627 23.2161 22.0679 23.9464 20.7364C29.082 19.6063 34.4305 19.6234 39.9114 20.7894C40.6233 22.1067 40.996 23.5774 40.996 25.0977C40.996 30.1055 36.9219 34.1797 31.914 34.1797C26.9061 34.1797 22.832 30.1055 22.832 25.0977ZM11.2183 57.5588C11.0315 57.3289 10.7387 56.8412 10.8806 56.1587C12.258 49.5217 16.668 44.1018 22.4649 41.2372L29.4921 51.1759V58.1562H12.4728C11.8044 58.1562 11.4 57.7816 11.2183 57.5588Z" fill="#868686"/>
<path d="M48.1406 52.3438C48.1406 51.006 47.0565 49.9219 45.7188 49.9219H41.8438C40.506 49.9219 39.4219 51.006 39.4219 52.3438C39.4219 53.6815 40.506 54.7656 41.8438 54.7656H45.7188C47.0565 54.7656 48.1406 53.6815 48.1406 52.3438Z" fill="#43B02A"/>
</svg>
