<svg width="64" height="64" viewBox="0 0 64 64" fill="none" xmlns="http://www.w3.org/2000/svg">
<path d="M63.0005 20.963C63.0005 21.1768 63 21.3849 63 21.5859V23.4781C63 28.7779 58.6878 33.0896 53.3879 33.0896C53.3629 33.0896 53.3378 33.0882 53.3123 33.0877C54.413 37.4789 55.0076 41.6922 55.0076 45.1993C55.0076 46.5365 53.9234 47.6207 52.5857 47.6207C51.2479 47.6207 50.1637 46.5365 50.1637 45.1993C50.1637 41.327 49.3298 36.4136 47.8156 31.3635C47.8062 31.3323 47.8009 31.3011 47.7929 31.2703C47.38 30.9676 46.9878 30.6318 46.6217 30.2595C44.8454 28.4511 43.8672 26.0429 43.8672 23.4781V21.163C43.7295 21.0126 43.608 20.8433 43.5086 20.6545C39.8937 13.7814 35.6989 9.83957 31.9997 9.83957C28.2065 9.83957 23.9255 13.9483 20.2539 21.112V23.4781C20.2539 26.7013 18.6526 29.557 16.2028 31.3016C14.6967 36.31 13.8357 41.354 13.8357 45.1993C13.8357 54.7654 18.5892 58.1561 31.9997 58.1561C40.7343 58.1561 45.5157 56.7446 47.9883 53.4367C48.7891 52.3653 50.3066 52.1458 51.378 52.9466C52.4494 53.7475 52.6685 55.265 51.8681 56.3364C47.4793 62.2081 39.3616 63 31.9997 63C27.0679 63 20.8177 62.6537 16.2179 59.9556C13.8703 58.5781 12.0704 56.6732 10.8698 54.2938C9.60634 51.7905 8.99235 48.8156 8.99235 45.1993C8.99235 41.6804 9.5879 37.4765 10.6886 33.0877C10.6636 33.0882 10.6385 33.0896 10.6134 33.0896C5.31357 33.0896 1.00187 28.7779 1.00187 23.4781V21.5859C1.00187 21.3849 1.0014 21.1768 1.00092 20.963C0.991462 16.2118 0.976324 8.26012 5.29039 3.93706C7.23597 1.98817 9.78562 1 12.8689 1C18.2671 1 22.1876 5.43374 24.0641 8.11395C26.6261 6.04395 29.2893 4.99619 31.9997 4.99619C34.7097 4.99619 37.3743 6.04443 39.9368 8.11442C41.8128 5.43469 45.7338 1 51.1325 1C54.2158 1 56.7654 1.98817 58.711 3.93706C63.0255 8.26012 63.0099 16.2118 63.0005 20.963ZM10.6134 28.2462C13.2582 28.2462 15.41 26.1072 15.41 23.4781V16.9843C15.41 15.6465 16.4942 14.5623 17.8319 14.5623C18.0296 14.5623 18.2208 14.5888 18.4048 14.6338C19.1143 13.5458 19.8428 12.5439 20.5883 11.63C20.5845 11.6239 20.5802 11.6191 20.5765 11.613C19.9677 10.6499 16.7335 5.84386 12.8689 5.84386C11.094 5.84386 9.7369 6.33913 8.71893 7.35899C5.82397 10.2596 5.83674 16.9535 5.84478 20.9535C5.84526 21.1706 5.84573 21.3816 5.84573 21.5859V23.4781C5.84526 26.1072 7.98431 28.2462 10.6134 28.2462ZM55.2824 7.35899C54.2649 6.3396 52.9073 5.84386 51.1325 5.84386C47.2678 5.84386 44.0342 10.6499 43.4249 11.6134C43.4211 11.6196 43.4159 11.6253 43.4121 11.6314C44.1628 12.5519 44.8961 13.5628 45.6108 14.6607C45.826 14.5978 46.0531 14.5623 46.2887 14.5623C47.6264 14.5623 48.7106 15.6465 48.7106 16.9843V23.4781C48.7106 26.1517 50.7654 28.2462 53.3879 28.2462C56.0171 28.2462 58.1561 26.1072 58.1561 23.4781V21.5859C58.1561 21.3816 58.1566 21.1706 58.1571 20.9535C58.1646 16.954 58.1774 10.2596 55.2824 7.35899Z" fill="#868686"/>
<path d="M22.3126 43.5039C23.6503 43.5039 24.7345 44.5881 24.7345 45.9254C24.7345 47.2612 25.8206 48.3473 27.1564 48.3473C28.4918 48.3473 29.5779 47.2612 29.5779 45.9254C29.5779 45.7073 29.6096 45.4973 29.6635 45.2963C28.0339 44.2192 26.0495 42.4817 25.2061 40.2604C24.8021 39.197 25.5793 38.0546 26.7089 38.0546H37.5333C38.663 38.0546 39.4401 39.197 39.0362 40.2604C38.153 42.5858 36.0196 44.309 34.3513 45.3549C34.3957 45.5385 34.4217 45.7286 34.4217 45.9254C34.4217 47.2612 35.5083 48.3473 36.8437 48.3473C38.179 48.3473 39.2656 47.2612 39.2656 45.9254C39.2656 44.5881 40.3498 43.5039 41.6875 43.5039C43.0248 43.5039 44.1095 44.5881 44.1095 45.9254C44.1095 49.932 40.8498 53.1912 36.8437 53.1912C34.9842 53.1912 33.2865 52.4883 31.9998 51.335C30.7136 52.4883 29.0159 53.1912 27.1564 53.1912C23.1498 53.1912 19.8906 49.932 19.8906 45.9254C19.8906 44.5881 20.9748 43.5039 22.3126 43.5039ZM41.4453 29.5778C41.4453 27.9061 40.0896 26.5509 38.4179 26.5509C36.7457 26.5509 35.3905 27.9061 35.3905 29.5778C35.3905 31.25 36.7457 32.6053 38.4179 32.6053C40.0896 32.6053 41.4453 31.25 41.4453 29.5778ZM25.2189 32.6053C26.8906 32.6053 28.2463 31.25 28.2463 29.5778C28.2463 27.9061 26.8906 26.5509 25.2189 26.5509C23.5467 26.5509 22.1915 27.9061 22.1915 29.5778C22.1915 31.25 23.5467 32.6053 25.2189 32.6053Z" fill="#FE7333"/>
</svg>
