<svg width="64" height="64" viewBox="0 0 64 64" fill="none" xmlns="http://www.w3.org/2000/svg">
<path d="M50.7695 43.5629C51.4119 43.5629 52.0279 43.3074 52.4821 42.8526C52.9362 42.3978 53.1914 41.7809 53.1914 41.1377C53.1914 40.4945 52.9362 39.8776 52.4821 39.4228C52.0279 38.968 51.4119 38.7125 50.7695 38.7125H13.2305C11.9463 38.7108 10.7152 38.1993 9.80719 37.29C8.89916 36.3807 8.38832 35.1479 8.38672 33.862V26.3437H55.6133V33.862C55.6133 34.5052 55.8684 35.1221 56.3226 35.5769C56.7768 36.0317 57.3928 36.2872 58.0352 36.2872C58.6775 36.2872 59.2935 36.0317 59.7477 35.5769C60.2019 35.1221 60.457 34.5052 60.457 33.862V26.3437H60.5781C61.2204 26.3437 61.8365 26.0882 62.2906 25.6334C62.7448 25.1786 63 24.5617 63 23.9185C63 23.2753 62.7448 22.6584 62.2906 22.2036C61.8365 21.7488 61.2204 21.4933 60.5781 21.4933H46.5312V19.068C46.5312 18.4248 46.2761 17.8079 45.8219 17.3531C45.3677 16.8983 44.7517 16.6428 44.1094 16.6428C43.4671 16.6428 42.851 16.8983 42.3969 17.3531C41.9427 17.8079 41.6875 18.4248 41.6875 19.068V21.4933H34.543V7.0631C34.543 6.74149 34.6705 6.43305 34.8976 6.20564C35.1247 5.97823 35.4327 5.85048 35.7539 5.85048H40.4766C40.7977 5.85048 41.1057 5.97823 41.3328 6.20564C41.5599 6.43305 41.6875 6.74149 41.6875 7.0631V8.15445C41.6875 8.79767 41.9427 9.41453 42.3969 9.86935C42.851 10.3242 43.4671 10.5797 44.1094 10.5797C44.7517 10.5797 45.3677 10.3242 45.8219 9.86935C46.2761 9.41453 46.5312 8.79767 46.5312 8.15445V7.0631C46.5293 5.45565 45.8908 3.9146 44.7557 2.77797C43.6207 1.64133 42.0818 1.00193 40.4766 1L35.7539 1C34.1487 1.00193 32.6098 1.64133 31.4747 2.77797C30.3397 3.9146 29.7011 5.45565 29.6992 7.0631V21.4933H22.3125V19.068C22.3125 18.4248 22.0573 17.8079 21.6031 17.3531C21.149 16.8983 20.5329 16.6428 19.8906 16.6428C19.2483 16.6428 18.6323 16.8983 18.1781 17.3531C17.7239 17.8079 17.4688 18.4248 17.4688 19.068V21.4933H3.42188C2.77955 21.4933 2.16354 21.7488 1.70935 22.2036C1.25516 22.6584 1 23.2753 1 23.9185C1 24.5617 1.25516 25.1786 1.70935 25.6334C2.16354 26.0882 2.77955 26.3437 3.42188 26.3437H3.54297V33.862C3.54585 36.4339 4.56742 38.8997 6.38356 40.7184C8.19969 42.537 10.6621 43.56 13.2305 43.5629H50.7695Z" fill="#868686"/>
<path d="M60.4337 63.0001H39.4385C36.8861 62.9972 34.4392 61.9806 32.6344 60.1734C30.8296 58.3661 29.8144 55.9157 29.8115 53.3598V48.3246C29.8115 47.6974 30.0603 47.096 30.5031 46.6525C30.946 46.2091 31.5466 45.96 32.1729 45.96C32.7991 45.96 33.3997 46.2091 33.8426 46.6525C34.2854 47.096 34.5342 47.6974 34.5342 48.3246V53.3598C34.5358 54.6618 35.053 55.9101 35.9724 56.8307C36.8918 57.7514 38.1383 58.2693 39.4385 58.2709H60.4337C61.06 58.2709 61.6606 58.52 62.1034 58.9635C62.5463 59.4069 62.795 60.0084 62.795 60.6355C62.795 61.2627 62.5463 61.8641 62.1034 62.3076C61.6606 62.751 61.06 63.0001 60.4337 63.0001Z" fill="#3B86C8"/>
</svg>
