<svg width="64" height="64" viewBox="0 0 64 64" fill="none" xmlns="http://www.w3.org/2000/svg">
<path fill-rule="evenodd" clip-rule="evenodd" d="M22.5 40.25C22.5 36.5959 23.4143 33.9518 24.9317 32.2448C26.411 30.5806 28.7367 29.5 32.25 29.5C35.7633 29.5 38.089 30.5806 39.5683 32.2448C41.0857 33.9518 42 36.5959 42 40.25C42 42.7535 40.0882 44.2804 37.6345 45.4304C35.9046 46.2412 34.6039 47.9413 34.5059 50H32.25H29.9941C29.8961 47.9413 28.5954 46.2412 26.8655 45.4304C24.4118 44.2804 22.5 42.7535 22.5 40.25ZM32.25 25C27.7633 25 24.089 26.4194 21.5683 29.2552C19.0857 32.0482 18 35.9041 18 40.25C18 45.6433 22.3241 48.2716 24.9557 49.505C25.3438 49.6869 25.5 50.0047 25.5 50.25C25.5 52.5972 27.4028 54.5 29.75 54.5H32.25H34.75C37.0972 54.5 39 52.5972 39 50.25C39 50.0047 39.1562 49.6869 39.5443 49.505C42.1759 48.2716 46.5 45.6433 46.5 40.25C46.5 35.9041 45.4143 32.0482 42.9317 29.2552C40.411 26.4194 36.7367 25 32.25 25ZM28.3403 36C27.3001 36 26.4336 36.7973 26.3472 37.8339L26.1805 39.8339C26.0833 40.9999 27.0035 42 28.1736 42H28.8264C29.9965 42 30.9167 40.9999 30.8195 39.8339L30.6528 37.8339C30.5664 36.7973 29.6999 36 28.6597 36H28.3403ZM34.3472 37.8339C34.4336 36.7973 35.3001 36 36.3403 36H36.6597C37.6999 36 38.5664 36.7973 38.6528 37.8339L38.8195 39.8339C38.9167 40.9999 37.9965 42 36.8264 42H36.1736C35.0035 42 34.0833 40.9999 34.1805 39.8339L34.3472 37.8339ZM31.6056 42.7889L30.7236 44.5528C30.3912 45.2177 30.8747 46 31.618 46H33.382C34.1253 46 34.6088 45.2177 34.2764 44.5528L33.3944 42.7889C33.0259 42.0518 31.9741 42.0518 31.6056 42.7889Z" fill="#868686"/>
<path fill-rule="evenodd" clip-rule="evenodd" d="M29.5 5.50232C28.5335 5.50232 27.75 6.28582 27.75 7.25232V9.75004H36.25V7.25232C36.25 6.28582 35.4665 5.50232 34.5 5.50232H29.5ZM40.75 9.75004V7.25232C40.75 3.80054 37.9518 1.00232 34.5 1.00232H29.5C26.0482 1.00232 23.25 3.80054 23.25 7.25232V9.75004H21.5C19.1809 9.75004 17.608 12.1093 18.5 14.2501L19.8027 17.3764L10.8892 25.2203C8.89362 26.9764 7.75 29.5062 7.75 32.1644V53.7512C7.75 58.8598 11.8914 63.0012 17 63.0012H47C52.1086 63.0012 56.25 58.8598 56.25 53.7512V51C56.25 49.7574 55.2426 48.75 54 48.75C52.7574 48.75 51.75 49.7574 51.75 51V53.7512C51.75 56.3746 49.6234 58.5012 47 58.5012H17C14.3766 58.5012 12.25 56.3746 12.25 53.7512V32.1644C12.25 30.7994 12.8373 29.5003 13.862 28.5985L23.4482 20.1627C24.4938 19.2425 24.8369 17.7585 24.3012 16.4728L23.375 14.25H40.625L39.6988 16.4728C39.1631 17.7585 39.5062 19.2425 40.5518 20.1627L50.138 28.5985C51.1627 29.5003 51.75 30.7994 51.75 32.1644V38.5C51.75 39.7427 52.7574 40.75 54 40.75C55.2426 40.75 56.25 39.7427 56.25 38.5V32.1644C56.25 29.5062 55.1064 26.9764 53.1108 25.2203L44.1973 17.3764L45.5 14.2501C46.392 12.1093 44.8191 9.75004 42.5 9.75004H40.75Z" fill="#43B02A"/>
</svg>
