<svg width="64" height="64" viewBox="0 0 64 64" fill="none" xmlns="http://www.w3.org/2000/svg">
<g clip-path="url(#clip0_54919_20848)">
<path d="M51.457 -0.25L51.2412 2.19824C50.8547 6.57894 50.1153 10.5234 49.3652 14.0605C48.6033 17.6538 47.8657 20.6815 47.4082 23.4873C46.5103 28.9946 46.8663 32.6847 50.0908 35.9092L50.4551 36.2832C52.2335 38.1621 53.3784 40.1605 53.9414 42.3037C54.5388 44.5779 54.44 46.8574 53.9482 49.1055C52.9964 53.457 50.4312 58.1689 48.0127 63.0059L47.3906 64.25H19.4531L21.5254 57.5146C20.2125 57.3071 18.5728 56.9168 16.8926 56.1738C14.9295 55.3057 12.8663 53.937 11.2354 51.7871C9.6954 49.757 8.62156 47.1359 8.30665 43.8135L8.25391 43.1396C7.69986 34.2315 13.2881 28.8087 18.1524 25.6611C18.0887 25.6181 18.0238 25.5759 17.96 25.5312C15.7478 23.9827 13.25 21.2565 13.25 17C13.25 12.9695 15.0129 10.0555 17.5342 7.53418C19.9095 5.15889 23.2968 2.83398 26.6104 0.230469L27.2217 -0.25H51.457ZM23.5869 23.3281C23.5863 23.328 23.5861 23.3275 23.585 23.3271L23.5869 23.3281ZM17.75 17C17.75 19.2433 19.0024 20.7673 20.54 21.8438C21.3059 22.3798 22.087 22.7596 22.6836 23.0049C22.7549 23.0342 22.8241 23.0589 22.8887 23.084C23.9632 22.6418 25.239 22.2462 26.4541 21.9424C28.0143 21.5523 29.7247 21.25 31 21.25C32.2426 21.25 33.25 22.2574 33.25 23.5C33.25 24.7426 32.2426 25.75 31 25.75C30.2753 25.75 28.9856 25.9477 27.5459 26.3076C26.2991 26.6193 25.1302 27.0046 24.3272 27.3613L24.0059 27.5127C19.0053 30.013 12.2258 34.4952 12.7461 42.8604L12.7861 43.3828C13.028 45.9472 13.8283 47.7597 14.8203 49.0674C15.89 50.4774 17.2769 51.4226 18.7129 52.0576C20.1563 52.6959 21.6047 52.9998 22.709 53.1396C23.2556 53.2089 23.7044 53.2357 24.0078 53.2461C24.1592 53.2513 24.274 53.2522 24.3447 53.252C24.3799 53.2518 24.4043 53.2512 24.417 53.251H24.419L27.5811 53.1377L25.5469 59.75H44.6133C46.918 55.1738 48.8189 51.4945 49.5518 48.1445C49.935 46.3928 49.9611 44.8594 49.5899 43.4463C49.2447 42.1326 48.5199 40.7838 47.1846 39.374L46.9092 39.0908C42.1337 34.3154 41.9897 28.7553 42.9668 22.7627C43.4468 19.8186 44.2405 16.5336 44.9629 13.127C45.549 10.3629 46.1089 7.41995 46.4971 4.25H28.7705C25.3804 6.88239 22.7203 8.71138 20.7158 10.7158C18.7371 12.6945 17.75 14.5305 17.75 17Z" fill="#868686"/>
<path d="M17.5679 39.155C17.5665 39.152 17.5651 39.1491 17.5635 39.1465L17.5679 39.155C17.5665 39.152 17.5651 39.1491 17.5635 39.1465C17.5651 39.1491 17.5665 39.152 17.5679 39.155L17.5688 39.1568L17.5737 39.1661C17.5755 39.1696 17.5773 39.1728 17.5791 39.1758C17.5757 39.1709 17.573 39.1656 17.5705 39.1605C17.5696 39.1586 17.5688 39.1568 17.5679 39.155L17.5635 39.1465C17.5651 39.1491 17.5665 39.152 17.5679 39.155L17.5679 39.155Z" fill="#43B02A"/>
<path fill-rule="evenodd" clip-rule="evenodd" d="M35.5 38.9082V38.9189L35.4873 39.25C35.3028 42.5616 33.38 45.6344 30.0225 48.209L29.6816 48.4648C27.8652 49.8015 25.3559 49.844 23.4961 48.5908L23.3184 48.4648C19.7503 45.8391 17.7033 42.672 17.5127 39.25L17.5 38.9189V38.9082C17.5 38.9051 17.5002 38.9007 17.5005 38.8964C17.5007 38.8921 17.501 38.8878 17.501 38.8848C17.5325 34.2184 23.0919 31.8393 26.5 34.8145C29.9097 31.8379 35.4682 34.2209 35.499 38.8848C35.4991 38.8911 35.5 38.9018 35.5 38.9082ZM28.3818 38.9268C28.4247 37.7924 29.2245 37.2447 30.0498 37.2363C30.4682 37.2322 30.8755 37.3699 31.1807 37.6348C31.4763 37.8915 31.7023 38.2899 31.7354 38.8672C31.6632 41.5419 29.6988 43.7179 27.8135 45.1865L27.4365 45.4717C26.9212 45.8508 26.2089 45.8747 25.6689 45.543L25.5635 45.4717C23.5728 44.0067 21.3416 41.7208 21.2646 38.8672C21.2974 38.2905 21.5228 37.8926 21.8184 37.6357C22.1236 37.3706 22.5315 37.2322 22.9502 37.2363C23.7755 37.2444 24.5753 37.7909 24.6182 38.9258C24.6277 39.9534 25.4724 40.7725 26.5 40.7725C27.5276 40.7725 28.3723 39.9543 28.3818 38.9268Z" fill="#43B02A"/>
</g>
<defs>
<clipPath id="clip0_54919_20848">
<rect width="64" height="64" fill="white"/>
</clipPath>
</defs>
</svg>
