<svg width="64" height="64" viewBox="0 0 64 64" fill="none" xmlns="http://www.w3.org/2000/svg">
<path d="M48.7391 37.7186C49.6116 37.7186 50.4759 37.8905 51.282 38.2245C52.088 38.5585 52.8206 39.0479 53.4373 39.6649C54.0541 40.282 54.5432 41.015 54.8768 41.8212C55.2103 42.6273 55.382 43.4917 55.3817 44.3641V46.036C55.3817 48.6606 54.4418 51.2008 52.7361 53.1942C48.1441 58.5552 41.1677 61.1942 31.9998 61.1942C22.8291 61.1942 15.8556 58.5554 11.2752 53.1884C9.57319 51.1964 8.63796 48.6619 8.63654 46.0419V44.3612C8.63654 43.4886 8.80839 42.6243 9.1424 41.8182C9.47639 41.0122 9.96573 40.2798 10.5828 39.663C11.2 39.0461 11.9328 38.5572 12.7391 38.2235C13.5453 37.8899 14.4095 37.7182 15.282 37.7186H48.7391ZM15.2791 42.2821C15.0059 42.2821 14.7346 42.3357 14.4822 42.4403C14.2299 42.545 14.0005 42.6982 13.8074 42.8915C13.6144 43.0848 13.4616 43.3147 13.3572 43.5673C13.253 43.8197 13.1997 44.0901 13.2 44.3632V46.0419C13.2 47.5743 13.7499 49.0585 14.7469 50.2245C18.3664 54.4679 24.0523 56.6307 31.9998 56.6307C39.9475 56.6307 45.6401 54.4681 49.2684 50.2274C50.2671 49.0595 50.8157 47.5727 50.8152 46.036V44.3612C50.8152 43.8103 50.5961 43.2813 50.2068 42.8915C49.8176 42.5019 49.2898 42.2829 48.7391 42.2821H15.2791ZM31.9998 2.8241C33.9229 2.8241 35.8276 3.20246 37.6043 3.93835C39.3812 4.67436 40.9963 5.7532 42.3563 7.11316C43.7161 8.47303 44.7951 10.0874 45.5311 11.8641C46.2671 13.641 46.6453 15.5463 46.6453 17.4696C46.6453 19.3927 46.267 21.2974 45.5311 23.0741C44.7951 24.8508 43.7161 26.4652 42.3563 27.8251C40.9963 29.185 39.3812 30.2639 37.6043 30.9999C35.8276 31.7358 33.9229 32.1141 31.9998 32.1141C28.1157 32.114 24.3908 30.5715 21.6443 27.8251C18.8979 25.0786 17.3544 21.3537 17.3543 17.4696C17.3543 13.5854 18.8978 9.85971 21.6443 7.11316C24.3908 4.36675 28.1158 2.82418 31.9998 2.8241ZM31.9998 7.38757C30.676 7.38762 29.3654 7.64859 28.1424 8.15515C26.9192 8.66181 25.8071 9.40452 24.8709 10.3407C23.9349 11.2768 23.192 12.3882 22.6854 13.6112C22.1788 14.8343 21.9188 16.1458 21.9188 17.4696C21.9188 18.7933 22.1789 20.1041 22.6854 21.327C23.192 22.5502 23.9347 23.6623 24.8709 24.5985C25.8071 25.5347 26.9192 26.2764 28.1424 26.7831C29.3654 27.2897 30.676 27.5506 31.9998 27.5507C34.6735 27.5507 37.2381 26.489 39.1287 24.5985C41.0193 22.7079 42.0817 20.1433 42.0818 17.4696C42.0818 14.7958 41.0194 12.2314 39.1287 10.3407C37.238 8.44999 34.6737 7.38757 31.9998 7.38757Z" fill="#868686" stroke="#868686" stroke-width="0.2"/>
</svg>
