<svg width="64" height="64" viewBox="0 0 64 64" fill="none" xmlns="http://www.w3.org/2000/svg">
<path d="M62.2129 44.8644C63.2001 45.7669 63.2687 47.2991 62.3667 48.2863C61.8889 48.809 61.2347 49.0739 60.5781 49.0739C59.9949 49.0739 59.4093 48.8643 58.9447 48.4396L58.6415 48.1624V56.1765C58.6415 59.939 55.5829 63 51.8232 63H38.2136C34.4539 63 31.3948 59.939 31.3948 56.1765V48.2731L31.2127 48.4396C30.2255 49.3421 28.6933 49.2735 27.7913 48.2863C26.8887 47.2991 26.9573 45.7674 27.9445 44.8649L40.4454 33.4359C43.0868 31.0211 47.0707 31.0211 49.7121 33.4359L57.722 40.7589C57.8104 40.8289 57.8932 40.9051 57.9712 40.9869L62.2129 44.8644ZM53.7977 43.7338L46.4439 37.0106C45.6658 36.2992 44.4917 36.2992 43.7136 37.0106L36.2387 43.8445V56.1765C36.2387 57.2678 37.1247 58.1561 38.2136 58.1561H51.8232C52.9122 58.1561 53.7977 57.2678 53.7977 56.1765V43.7338Z" fill="#868686"/>
<path d="M9.80993 34.1602C8.49013 33.9431 7.59622 32.6971 7.81346 31.3773C8.03058 30.0575 9.277 29.1641 10.5963 29.3809C10.904 29.4315 11.2199 29.4572 11.5352 29.4572C14.6734 29.4572 17.2266 26.9074 17.2266 23.7735C17.2266 23.4636 17.0551 21.6862 13.6693 17.1067C12.9257 16.1009 12.1766 15.1637 11.5352 14.3902C10.8938 15.1637 10.1445 16.1011 9.401 17.1067C6.01522 21.6861 5.84375 23.4636 5.84375 23.7734C5.84375 24.1744 5.88517 24.5736 5.9669 24.9599C6.2436 26.2685 5.40709 27.5537 4.09843 27.8304C2.79037 28.107 1.5046 27.2707 1.2279 25.9619C1.07665 25.2468 1 24.5106 1 23.7734C1 21.4444 2.48243 18.3102 5.53218 14.1918C7.61305 11.382 9.66583 9.14246 9.75217 9.04837C10.2106 8.54959 10.8574 8.26562 11.5352 8.26562C12.2129 8.26562 12.8597 8.54959 13.3183 9.0485C13.4046 9.14246 15.4574 11.3821 17.5383 14.192C20.5879 18.3102 22.0703 21.4444 22.0703 23.7734C22.0703 29.5782 17.3443 34.3008 11.5352 34.3008C10.9574 34.3008 10.3769 34.2534 9.80993 34.1602ZM41.0521 26.8946C39.7323 26.6774 38.8384 25.4315 39.0556 24.1117C39.2726 22.792 40.5189 21.899 41.8385 22.1152C42.1462 22.1659 42.4621 22.1915 42.7773 22.1915C45.9156 22.1915 48.4688 19.6418 48.4688 16.5079C48.4688 16.198 48.2973 14.4206 44.9115 9.84105C44.1679 8.83525 43.4188 7.89811 42.7773 7.12456C42.136 7.89811 41.3867 8.83549 40.6432 9.84105C37.2574 14.4205 37.0859 16.198 37.0859 16.5077C37.0859 16.9088 37.1274 17.3079 37.2091 17.6942C37.4858 19.0029 36.6493 20.2881 35.3406 20.5648C34.0323 20.8413 32.7468 20.0049 32.4701 18.6963C32.3188 17.9812 32.2422 17.245 32.2422 16.5077C32.2422 14.1788 33.7246 11.0446 36.7744 6.92621C38.8551 4.11635 40.9079 1.87684 40.9942 1.78287C41.4528 1.28396 42.0996 1 42.7773 1C43.4551 1 44.1019 1.28396 44.5604 1.78287C44.6468 1.87684 46.6996 4.11647 48.7804 6.92633C51.8301 11.0446 53.3125 14.1788 53.3125 16.5077C53.3125 22.3126 48.5865 27.0352 42.7773 27.0352C42.1996 27.0352 41.6191 26.9878 41.0521 26.8946Z" fill="#3B86C8"/>
</svg>
