<svg width="64" height="64" viewBox="0 0 64 64" fill="none" xmlns="http://www.w3.org/2000/svg">
<path d="M43.5625 14.668V11.0938C43.5625 5.83806 39.3758 1.5625 34.2292 1.5625H10.8958C5.74928 1.5625 1.5625 5.83806 1.5625 11.0938V55.4141C1.5625 59.3559 4.70248 62.5625 8.56249 62.5625H8.76573C10.0544 62.5625 11.0991 61.4957 11.0991 60.1797C11.0991 58.8637 10.0544 57.7969 8.76573 57.7969H8.56249C7.27597 57.7969 6.22917 56.7278 6.22917 55.4141V11.0938C6.22917 8.46614 8.32279 6.32813 10.8958 6.32813H34.2292C36.8021 6.32813 38.8959 8.46614 38.8959 11.0938V27.712C38.8959 29.028 39.9405 30.0948 41.2292 30.0948C42.5179 30.0948 43.5625 29.028 43.5625 27.712V19.4336V14.668Z" fill="#868686"/>
<path d="M30.3701 15.4218V17.8518C30.3699 18.1695 30.4325 18.4842 30.5543 18.7777C30.6762 19.0711 30.8549 19.3376 31.0801 19.5618C31.3041 19.7873 31.5705 19.9663 31.864 20.0885C32.1575 20.2106 32.4722 20.2735 32.7901 20.2735C33.108 20.2735 33.4228 20.2106 33.7162 20.0885C34.0097 19.9663 34.2761 19.7873 34.5001 19.5618C34.7254 19.3376 34.904 19.0711 35.0259 18.7777C35.1477 18.4842 35.2104 18.1695 35.2101 17.8518V15.4218C35.2104 15.104 35.1477 14.7893 35.0259 14.4959C34.904 14.2024 34.7254 13.9359 34.5001 13.7118C34.2761 13.4862 34.0097 13.3072 33.7162 13.185C33.4228 13.0629 33.108 13 32.7901 13C32.4722 13 32.1575 13.0629 31.864 13.185C31.5705 13.3072 31.3041 13.4862 31.0801 13.7118C30.8549 13.9359 30.6762 14.2024 30.5543 14.4959C30.4325 14.7893 30.3699 15.104 30.3701 15.4218Z" fill="#868686"/>
<path d="M15.1312 13.7108C15.585 14.1646 15.84 14.7801 15.84 15.422V17.852C15.84 18.4938 15.585 19.1093 15.1312 19.5632C14.6774 20.017 14.0618 20.272 13.42 20.272C12.7782 20.272 12.1626 20.017 11.7088 19.5632C11.255 19.1093 11 18.4938 11 17.852V15.422C11 14.7801 11.255 14.1646 11.7088 13.7108C12.1626 13.2569 12.7782 13.002 13.42 13.002C14.0618 13.002 14.6774 13.2569 15.1312 13.7108Z" fill="#868686"/>
<path d="M15.1312 30.4632C15.585 30.0094 15.84 29.3938 15.84 28.752V26.332C15.8368 25.8538 15.6925 25.3872 15.4253 24.9906C15.1581 24.594 14.7797 24.2851 14.3377 24.1025C13.8957 23.9199 13.4097 23.8718 12.9405 23.9643C12.4713 24.0567 12.0398 24.2855 11.7 24.622C11.2497 25.077 10.998 25.6919 11 26.332V28.752C11 29.3938 11.255 30.0094 11.7088 30.4632C12.1627 30.9171 12.7782 31.172 13.42 31.172C14.0618 31.172 14.6774 30.9171 15.1312 30.4632Z" fill="#868686"/>
<path d="M35.2101 28.7519C35.2101 29.3937 34.9552 30.0093 34.5013 30.4631C34.0475 30.917 33.432 31.1719 32.7901 31.1719C32.1483 31.1719 31.5328 30.917 31.0789 30.4631C30.6251 30.0093 30.3701 29.3937 30.3701 28.7519V26.3319C30.3688 26.014 30.4309 25.699 30.5528 25.4054C30.6747 25.1117 30.854 24.8454 31.0801 24.6219C31.3041 24.3964 31.5706 24.2174 31.864 24.0952C32.1575 23.973 32.4723 23.9102 32.7901 23.9102C33.108 23.9102 33.4228 23.973 33.7163 24.0952C34.0097 24.2174 34.2761 24.3964 34.5001 24.6219C34.7263 24.8454 34.9055 25.1117 35.0275 25.4054C35.1494 25.699 35.2115 26.014 35.2101 26.3319V28.7519Z" fill="#868686"/>
<path d="M21.3886 24.6204C21.8424 24.1666 22.458 23.9116 23.0998 23.9116C23.4184 23.9103 23.7342 23.9719 24.029 24.093C24.3237 24.214 24.5917 24.392 24.8175 24.6169C25.0432 24.8417 25.2224 25.109 25.3446 25.4032C25.4669 25.6975 25.5298 26.013 25.5298 26.3316V28.7516C25.5511 29.0832 25.5042 29.4156 25.392 29.7283C25.2797 30.041 25.1046 30.3274 24.8773 30.5697C24.65 30.8121 24.3755 31.0052 24.0706 31.1373C23.7657 31.2693 23.437 31.3374 23.1048 31.3374C22.7726 31.3374 22.4439 31.2693 22.139 31.1373C21.8341 31.0052 21.5596 30.8121 21.3323 30.5697C21.105 30.3274 20.9299 30.041 20.8176 29.7283C20.7054 29.4156 20.6585 29.0832 20.6798 28.7516V26.3316C20.6798 25.6898 20.9348 25.0743 21.3886 24.6204Z" fill="#868686"/>
<path d="M25.5307 15.4219C25.5242 14.7844 25.2695 14.1746 24.8207 13.7219V13.7119C24.4809 13.3753 24.0494 13.1465 23.5802 13.0541C23.111 12.9617 22.6249 13.0098 22.1829 13.1923C21.7409 13.3749 21.3626 13.6838 21.0954 14.0804C20.8282 14.477 20.6839 14.9436 20.6807 15.4219V17.8519C20.7203 18.4681 20.993 19.0461 21.4434 19.4686C21.8938 19.891 22.4882 20.1261 23.1057 20.1261C23.7232 20.1261 24.3175 19.891 24.7679 19.4686C25.2184 19.0461 25.4911 18.4681 25.5307 17.8519V15.4219Z" fill="#868686"/>
<path d="M52.875 19.2397H48.9844C47.6468 19.2397 46.5625 18.1927 46.5625 16.9011C46.5625 15.6095 47.6468 14.5625 48.9844 14.5625H52.875C58.2169 14.5625 62.5625 18.7587 62.5625 23.9169V42.8596V46.507C62.5625 47.4513 60.747 47.9301 60.0948 47.2264C59.52 46.6065 58.9501 46.0915 58.4683 45.7043C58.0151 45.34 57.7188 44.8118 57.7188 44.2424V42.8596V23.9169C57.7188 21.338 55.5456 19.2397 52.875 19.2397Z" fill="#868686"/>
<path d="M57.1045 47.6248C56.1076 46.7758 55.0157 46.0646 53.8591 45.5006C55.1718 43.9167 55.9675 41.8618 55.9675 39.6167C55.9675 34.6242 52.0409 30.5625 47.2145 30.5625C42.3882 30.5625 38.4618 34.6242 38.4618 39.6167C38.4618 41.8618 39.2575 43.9167 40.57 45.5006C39.4134 46.0646 38.3215 46.7756 37.3246 47.6248C34.5875 49.9556 32.6842 53.2077 31.9656 56.7817C31.9107 57.0543 31.8794 57.3283 31.8702 57.6013H17.6198C18.6069 54.8179 21.2029 52.8881 24.1305 52.8881C24.1376 52.8881 24.1444 52.8872 24.1515 52.887C24.1654 52.8872 24.1793 52.8881 24.1932 52.8881C28.3585 52.8881 31.7471 49.3827 31.7471 45.0741C31.7471 40.7655 28.3585 37.2602 24.1932 37.2602C20.028 37.2602 16.6394 40.7655 16.6394 45.0741C16.6394 46.7935 17.1802 48.3839 18.0934 49.6757C15.366 51.3803 13.3277 54.2055 12.6471 57.5953C12.4013 58.8195 12.6971 60.0771 13.4587 61.0455C14.217 62.0095 15.3408 62.5625 16.542 62.5625H57.931C59.322 62.5625 60.6264 61.9182 61.5097 60.7949C62.404 59.6577 62.7517 58.184 62.4635 56.7516C61.7118 53.265 59.7848 49.9072 57.1045 47.6248ZM24.1934 42.2216C25.7139 42.2216 26.9511 43.5012 26.9511 45.0743C26.9511 46.6473 25.7139 47.927 24.1934 47.927C22.6728 47.927 21.4356 46.6473 21.4356 45.0743C21.4356 43.5012 22.6728 42.2216 24.1934 42.2216ZM47.2145 35.5239C49.3963 35.5239 51.1713 37.36 51.1713 39.6169C51.1713 41.8738 49.3963 43.7099 47.2145 43.7099C45.0328 43.7099 43.2578 41.8738 43.2578 39.6169C43.2578 37.36 45.0328 35.5239 47.2145 35.5239ZM36.7608 57.6015H36.7013C37.8052 52.5585 42.1963 48.9193 47.2145 48.9193C52.2327 48.9193 56.6239 52.5585 57.728 57.6015H36.7608Z" fill="#F7B801"/>
</svg>
