<svg width="64" height="64" viewBox="0 0 64 64" fill="none" xmlns="http://www.w3.org/2000/svg">
<path fill-rule="evenodd" clip-rule="evenodd" d="M28.9769 59.7507C28.9755 61.0896 27.8914 62.174 26.5555 62.174H26.5527L20.8788 62.1673C20.8599 62.1673 20.841 62.1673 20.822 62.1668C15.0299 62.0242 10.0962 59.9772 6.55472 56.2458C2.92616 52.4225 1.00806 47.0474 1.00806 40.7013C1.00806 36.0746 2.3803 31.6067 5.08646 27.4212C7.13843 24.2472 9.96001 21.2381 13.4717 18.4717C16.9834 15.7052 23.8834 11.5174 23.8834 11.5174L20.7856 3.48259C20.6778 3.20391 20.6229 2.90722 20.6229 2.60816V2.48683C20.6229 1.69012 21.0136 0.943653 21.6683 0.490559C22.3225 0.0379387 23.1573 -0.0644341 23.9014 0.217565C29.3516 2.28493 34.6523 2.28493 40.1072 0.217565C40.8512 -0.0639602 41.6856 0.0379387 42.3403 0.490559C42.9945 0.943653 43.3852 1.69012 43.3852 2.48683V2.60816C43.3852 2.90722 43.3303 3.20391 43.2225 3.48259L39.9563 11.9535C41.2084 12.5459 42.9278 13.4218 44.8686 14.5829C46.0171 15.2702 46.3922 16.7593 45.7063 17.91C45.0209 19.0608 43.5342 19.4362 42.3862 18.7494C39.6294 17.1005 37.3721 16.0863 36.489 15.7105H27.766C27.6898 15.7105 27.5867 15.719 27.4633 15.7351C26.0068 16.3607 21.2775 18.5295 16.6268 22.1576C9.47658 27.735 5.85134 33.974 5.85134 40.7013C5.85134 50.7106 11.6217 57.0743 20.9133 57.3146L26.5584 57.3212C27.8956 57.3231 28.9788 58.4103 28.9769 59.7507ZM28.8213 10.8577L26.9978 6.12865C30.3307 6.76848 33.6764 6.768 37.0108 6.12817L35.1868 10.8577H28.8213Z" fill="#868686"/>
<path d="M58.1569 32.2089V41.5505C58.1569 42.8903 59.241 43.9766 60.5787 43.9766C61.916 43.9766 63.0001 42.8903 63.0001 41.5505V32.2089C63.0001 26.8576 58.6549 22.5039 53.3141 22.5039H42.1748C36.8335 22.5039 32.4883 26.8576 32.4883 32.2089V52.4688C32.4883 57.8201 36.8335 62.1738 42.1748 62.1738H53.3141C58.6549 62.1738 63.0001 57.8201 63.0001 52.4688C63.0001 51.1285 61.916 50.0422 60.5787 50.0422C59.241 50.0422 58.1569 51.1285 58.1569 52.4688C58.1569 55.1442 55.9843 57.3211 53.3141 57.3211H42.1748C39.5042 57.3211 37.3316 55.1442 37.3316 52.4688V32.2089C37.3316 29.5335 39.5042 27.3567 42.1748 27.3567H53.3141C55.9843 27.3567 58.1569 29.5335 58.1569 32.2089Z" fill="#868686"/>
<path d="M43.3853 31.5971H52.1031C53.4403 31.5971 54.5245 32.6834 54.5245 34.0232C54.5245 35.3635 53.4403 36.4498 52.1031 36.4498H43.3853C42.0481 36.4498 40.9639 35.3635 40.9639 34.0232C40.9639 32.6834 42.0481 31.5971 43.3853 31.5971Z" fill="#868686"/>
<path d="M43.5064 40.2106C44.8441 40.2106 45.9283 41.2969 45.9283 42.6367C45.9283 43.9766 44.8441 45.0629 43.5064 45.0629C42.1692 45.0629 41.085 43.9766 41.085 42.6367C41.085 41.2964 42.1692 40.2106 43.5064 40.2106Z" fill="#868686"/>
<path d="M52.1031 40.2106C53.4403 40.2106 54.5245 41.2969 54.5245 42.6367C54.5245 43.9766 53.4403 45.0629 52.1031 45.0629C50.7659 45.0629 49.6817 43.9766 49.6817 42.6367C49.6817 41.2964 50.7659 40.2106 52.1031 40.2106Z" fill="#868686"/>
<path d="M41.085 51.2503C41.085 49.91 42.1692 48.8237 43.5064 48.8237C44.8441 48.8237 45.9283 49.91 45.9283 51.2503C45.9283 52.5901 44.8441 53.6764 43.5064 53.6764C42.1692 53.6764 41.085 52.5901 41.085 51.2503Z" fill="#868686"/>
<path d="M49.6817 51.2503C49.6817 49.91 50.7659 48.8237 52.1031 48.8237C53.4403 48.8237 54.5245 49.91 54.5245 51.2503C54.5245 52.5901 53.4403 53.6764 52.1031 53.6764C50.7659 53.6764 49.6817 52.5901 49.6817 51.2503Z" fill="#868686"/>
<path fill-rule="evenodd" clip-rule="evenodd" d="M17.3339 26.0015C17.3061 26.0005 17.2781 26 17.25 26C16.0074 26 15 27.0074 15 28.25V28.421V36H13.5C12.2574 36 11.25 37.0074 11.25 38.25C11.25 39.4926 12.2574 40.5 13.5 40.5H15V42H13.5C12.2574 42 11.25 43.0074 11.25 44.25C11.25 45.4926 12.2574 46.5 13.5 46.5H15V49.25C15 50.4926 16.0074 51.5 17.25 51.5C18.4926 51.5 19.5 50.4926 19.5 49.25V46.5H24C25.2426 46.5 26.25 45.4926 26.25 44.25C26.25 43.0074 25.2426 42 24 42H19.5V40.5H23.25C27.2541 40.5 30.5 37.2541 30.5 33.25C30.5 29.2459 27.2541 26 23.25 26H17.421C17.3918 26 17.3628 26.0005 17.3339 26.0015ZM19.5 30.5V36H23.25C24.7688 36 26 34.7688 26 33.25C26 31.7312 24.7688 30.5 23.25 30.5H19.5Z" fill="#43B02A"/>
</svg>
