<svg width="64" height="64" viewBox="0 0 64 64" fill="none" xmlns="http://www.w3.org/2000/svg">
<path fill-rule="evenodd" clip-rule="evenodd" d="M45.8037 58.156C52.6148 58.156 58.156 52.6147 58.156 45.8037C58.156 44.466 59.2403 43.3817 60.578 43.3817C61.9157 43.3817 63 44.466 63 45.8037C63 55.2857 55.2858 62.9999 45.8037 62.9999C44.466 62.9999 43.3817 61.9156 43.3817 60.578C43.3817 59.2404 44.466 58.156 45.8037 58.156ZM45.6827 48.8313C47.4189 48.8313 48.8313 47.419 48.8313 45.6827C48.8313 44.345 49.9156 43.2607 51.2534 43.2606C52.5911 43.2606 53.6754 44.3449 53.6754 45.6826C53.6754 50.0898 50.0899 53.6753 45.6827 53.6753C44.345 53.6753 43.2607 52.5909 43.2607 51.2533C43.2607 49.9157 44.345 48.8313 45.6827 48.8313Z" fill="#43B02A"/>
<path d="M32.3787 48.7439C32.8328 48.2897 33.0879 47.6736 33.0879 47.0312L33.0879 43.5636L34.3896 44.8652C34.8438 45.3194 35.4599 45.5746 36.1023 45.5746C36.7447 45.5746 37.3609 45.3194 37.8151 44.8653L39.5846 43.0959L41.537 45.0795C42.4751 46.0328 44.0086 46.045 44.9621 45.1069C45.9154 44.1687 45.9276 42.6354 44.9895 41.6816L43.0101 39.6705L44.9262 37.7545C45.3803 37.3002 45.6354 36.6841 45.6354 36.0417C45.6354 35.3993 45.3803 34.7832 44.9262 34.329L43.564 32.9668L47.1526 32.9668C47.795 32.9668 48.4111 32.7116 48.8653 32.2575L60.872 20.2509C63.7049 17.4178 63.7049 12.8082 60.872 9.975L54.0213 3.12486C51.1882 0.291876 46.5786 0.291875 43.7454 3.12486C43.7392 3.13116 43.733 3.13733 43.7271 3.14351L31.7204 15.4132C31.2775 15.8657 31.0295 16.474 31.0295 17.1072L31.0295 20.4329L20.7759 10.1794C19.3687 8.7723 17.4979 7.9973 15.5078 7.9973C13.5178 7.9973 11.6469 8.77217 10.24 10.1794C8.83279 11.5865 8.0578 13.4573 8.0578 15.4473C8.0578 17.4374 8.83267 19.3083 10.2399 20.7154L14.9059 25.3814C15.8517 26.3271 17.3854 26.3271 18.3312 25.3814C19.2771 24.4355 19.2771 22.9019 18.3312 21.956L13.6653 17.29C13.173 16.7979 12.9019 16.1433 12.9019 15.4472C12.9019 14.7512 13.1729 14.0968 13.6653 13.6044C14.1574 13.1123 14.8119 12.8412 15.508 12.8412C16.204 12.8412 16.8585 13.1122 17.3508 13.6045L39.7882 36.0417L36.1025 39.7274L28.0262 31.6511C27.6292 31.254 27.1282 31.0259 26.6108 30.9622C26.4474 30.9274 26.2784 30.9084 26.1046 30.9084L16.9652 30.9084C16.3228 30.9084 15.7067 31.1636 15.2524 31.6177L3.12457 43.7454C1.70814 45.162 0.999861 47.0227 0.999861 48.8833C0.99986 50.7439 1.70814 52.6046 3.12457 54.0212L9.97495 60.8716C12.808 63.7046 17.4176 63.7046 20.2508 60.8716L32.3787 48.7439ZM57.4463 13.4005C58.3907 14.3448 58.3907 15.8815 57.4463 16.8257L55.7219 18.5501L52.301 15.1291L55.738 11.6922L57.4463 13.4005ZM35.8735 18.0949L47.1783 6.5426C48.1233 5.60594 49.6542 5.60837 50.596 6.55023L52.3128 8.26697L35.8736 24.706L35.8736 18.0949L35.8735 18.0949ZM39.307 28.1232L48.8756 18.5545L52.2967 21.9755L46.149 28.1233L39.307 28.1233L39.307 28.1232ZM11.6281 42.0929L17.9686 35.7524L24.8271 35.7524L15.0574 45.5221L11.6281 42.0929ZM6.54981 50.5962C5.60553 49.6519 5.60553 48.1152 6.54994 47.1709L8.20274 45.5181L11.632 48.9475L8.26656 52.3129L6.54981 50.5962ZM13.4006 57.4466L11.6922 55.7382L28.2441 39.186L28.2441 46.028L16.8256 57.4464C15.8813 58.391 14.3447 58.391 13.4006 57.4466Z" fill="#868686"/>
</svg>
