<svg width="64" height="64" viewBox="0 0 64 64" fill="none" xmlns="http://www.w3.org/2000/svg">
<path d="M63 50.8906C60.5219 50.8906 58.1015 49.4971 55.8057 46.7486C55.6919 46.6125 55.4843 46.5312 55.25 46.5312C55.0157 46.5312 54.8081 46.6125 54.6944 46.7485C52.3985 49.4971 49.9781 50.8906 47.5 50.8906C45.0219 50.8906 42.6015 49.4971 40.3057 46.7486C40.1919 46.6125 39.9843 46.5312 39.75 46.5312C39.5157 46.5312 39.3081 46.6125 39.1944 46.7485C36.8985 49.4971 34.4781 50.8906 32 50.8906C29.5219 50.8906 27.1015 49.4971 24.8057 46.7486C24.6919 46.6125 24.4843 46.5312 24.25 46.5312C24.0157 46.5312 23.8081 46.6125 23.6944 46.7485C21.3985 49.4971 18.9781 50.8906 16.5 50.8906C14.0219 50.8906 11.6015 49.4971 9.3057 46.7486C9.19187 46.6125 8.98432 46.5312 8.75 46.5312C8.51568 46.5312 8.30813 46.6125 8.19442 46.7485C5.89848 49.4971 3.47806 50.8906 1 50.8906V46.0469C1.93375 46.0469 3.201 45.1709 4.47684 43.6434C5.51498 42.4005 7.07249 41.6875 8.75 41.6875C10.4275 41.6875 11.985 42.4005 13.0233 43.6435C14.299 45.1709 15.5662 46.0469 16.5 46.0469C17.4338 46.0469 18.701 45.1709 19.9768 43.6434C21.015 42.4005 22.5725 41.6875 24.25 41.6875C25.9275 41.6875 27.485 42.4005 28.5233 43.6435C29.799 45.1709 31.0662 46.0469 32 46.0469C32.9338 46.0469 34.201 45.1709 35.4768 43.6434C36.515 42.4005 38.0725 41.6875 39.75 41.6875C41.4275 41.6875 42.985 42.4005 44.0233 43.6435C45.299 45.1709 46.5662 46.0469 47.5 46.0469C48.4338 46.0469 49.701 45.1709 50.9768 43.6434C52.015 42.4005 53.5725 41.6875 55.25 41.6875C56.9275 41.6875 58.485 42.4005 59.5233 43.6435C60.799 45.1709 62.0662 46.0469 63 46.0469V50.8906ZM63 58.1562C62.0662 58.1562 60.799 57.2803 59.5233 55.7529C58.485 54.5099 56.9275 53.7969 55.25 53.7969C53.5725 53.7969 52.015 54.5099 50.9768 55.7528C49.701 57.2803 48.4338 58.1562 47.5 58.1562C46.5662 58.1562 45.299 57.2803 44.0233 55.7529C42.985 54.5099 41.4275 53.7969 39.75 53.7969C38.0725 53.7969 36.515 54.5099 35.4768 55.7528C34.201 57.2803 32.9338 58.1562 32 58.1562C31.0662 58.1562 29.799 57.2803 28.5233 55.7529C27.485 54.5099 25.9275 53.7969 24.25 53.7969C22.5725 53.7969 21.015 54.5099 19.9768 55.7528C18.701 57.2803 17.4338 58.1562 16.5 58.1562C15.5662 58.1562 14.299 57.2803 13.0233 55.7529C11.985 54.5099 10.4275 53.7969 8.75 53.7969C7.07249 53.7969 5.51498 54.5099 4.47684 55.7528C3.201 57.2803 1.93375 58.1562 1 58.1562V63C3.47806 63 5.89848 61.6065 8.19442 58.8579C8.30813 58.7219 8.51568 58.6406 8.75 58.6406C8.98432 58.6406 9.19187 58.7219 9.3057 58.858C11.6015 61.6065 14.0219 63 16.5 63C18.9781 63 21.3985 61.6065 23.6944 58.8579C23.808 58.7219 24.0157 58.6406 24.25 58.6406C24.4843 58.6406 24.6919 58.7219 24.8057 58.858C27.1015 61.6065 29.5219 63 32 63C34.4781 63 36.8985 61.6065 39.1944 58.8579C39.308 58.7219 39.5157 58.6406 39.75 58.6406C39.9843 58.6406 40.1919 58.7219 40.3057 58.858C42.6015 61.6065 45.0219 63 47.5 63C49.9781 63 52.3985 61.6065 54.6944 58.8579C54.808 58.7219 55.0157 58.6406 55.25 58.6406C55.4843 58.6406 55.6919 58.7219 55.8057 58.858C58.1015 61.6065 60.5219 63 63 63V58.1562Z" fill="#868686"/>
<path d="M48 36C48 27.1634 40.8366 20 32 20C23.1634 20 16 27.1634 16 36" stroke="#43B02A" stroke-width="4.5" stroke-linecap="round"/>
<path d="M32 13L32 5" stroke="#43B02A" stroke-width="4.5" stroke-linecap="round"/>
<path d="M48.0549 18.8341L53.9451 12.944" stroke="#43B02A" stroke-width="4.5" stroke-linecap="round"/>
<path d="M14.8901 18.8341L9 12.944" stroke="#43B02A" stroke-width="4.5" stroke-linecap="round"/>
<path d="M10 34L3.5 34" stroke="#43B02A" stroke-width="4.5" stroke-linecap="round"/>
<path d="M60.6771 34L54 34" stroke="#43B02A" stroke-width="4.5" stroke-linecap="round"/>
</svg>
