<svg width="64" height="64" viewBox="0 0 64 64" fill="none" xmlns="http://www.w3.org/2000/svg">
<path d="M33.2109 63H30.7891C26.7828 63 23.5234 59.7406 23.5234 55.7344V54.5146C23.5234 54.1938 23.3213 53.9028 23.0085 53.7737L22.964 53.7555C22.6501 53.6249 22.3004 53.6873 22.0735 53.9143L21.2112 54.7768C19.8389 56.149 18.0144 56.9047 16.0735 56.9047C14.1329 56.9047 12.3082 56.149 10.9359 54.7768L9.22336 53.064C7.85112 51.6919 7.09538 49.8674 7.09538 47.9265C7.09538 45.9858 7.85112 44.1612 9.22336 42.789L10.0859 41.9264C10.3127 41.6997 10.3751 41.35 10.2447 41.036L10.2264 40.9915C10.0973 40.6787 9.8063 40.4766 9.48552 40.4766H8.26562C4.25936 40.4766 1 37.2172 1 33.2109V30.7891C1 26.7828 4.25936 23.5234 8.26562 23.5234H9.4854C9.80618 23.5234 10.0972 23.3213 10.2263 23.0085L10.2445 22.9642C10.375 22.6501 10.3127 22.3005 10.0857 22.0737L9.22323 21.2112C7.851 19.8389 7.09525 18.0144 7.09525 16.0736C7.09525 14.1329 7.851 12.3082 9.22336 10.936L10.9359 9.22348C12.3082 7.85112 14.1327 7.09538 16.0735 7.09538C18.0143 7.09538 19.8389 7.85112 21.2112 9.22348L22.0736 10.0858C22.3003 10.3126 22.6497 10.375 22.9641 10.2447L23.0087 10.2264C23.3215 10.0973 23.5236 9.8063 23.5236 9.48552V8.26562C23.5236 4.25936 26.7829 1 30.7892 1H33.2111C37.2173 1 40.4767 4.25936 40.4767 8.26562V9.4854C40.4767 9.80618 40.6788 10.0972 40.9916 10.2263L41.0361 10.2445C41.35 10.375 41.6997 10.3127 41.9267 10.0857L42.789 9.22323C44.1612 7.851 45.9857 7.09525 47.9266 7.09525C49.8673 7.09525 51.6919 7.851 53.0643 9.22323L54.7768 10.936C56.149 12.3081 56.9047 14.1326 56.9047 16.0735C56.9047 18.0142 56.149 19.8388 54.7768 21.211L53.9143 22.0736C53.6874 22.3004 53.625 22.6501 53.7555 22.9641L53.7737 23.0084C53.9028 23.3212 54.1938 23.5233 54.5146 23.5233H55.7344C59.7406 23.5233 63 26.7827 63 30.7889V33.2108C63 36.5278 60.7584 39.4213 57.549 40.2475C56.2531 40.5808 54.9332 39.801 54.5998 38.5056C54.2665 37.2103 55.0463 35.8899 56.3417 35.5565C57.4101 35.2818 58.1562 34.3171 58.1562 33.2109V30.7891C58.1562 29.4536 57.0698 28.3672 55.7344 28.3672H54.5146C52.2256 28.3672 50.1774 26.9896 49.2968 24.8576L49.2786 24.8134C48.3968 22.6906 48.8705 20.2672 50.4891 18.6486L51.3515 17.7861C51.809 17.3288 52.0609 16.7205 52.0609 16.0736C52.0609 15.4266 51.809 14.8186 51.3516 14.3611L49.639 12.6484C49.1816 12.191 48.5734 11.9391 47.9265 11.9391C47.2795 11.9391 46.6715 12.191 46.214 12.6484L45.3516 13.5109C43.7324 15.1296 41.3093 15.6029 39.1777 14.7177L39.1423 14.7032C37.0104 13.8227 35.6328 11.7746 35.6328 9.4854V8.26562C35.6328 6.9302 34.5464 5.84375 33.2109 5.84375H30.7891C29.4536 5.84375 28.3672 6.9302 28.3672 8.26562V9.4854C28.3672 11.7744 26.9896 13.8226 24.8576 14.7032L24.8223 14.7177C22.6904 15.6033 20.2675 15.1296 18.6486 13.5109L17.786 12.6485C17.3286 12.191 16.7205 11.9391 16.0735 11.9391C15.4266 11.9391 14.8185 12.191 14.3609 12.6485L12.6485 14.361C12.191 14.8185 11.9391 15.4266 11.9391 16.0736C11.9391 16.7205 12.191 17.3286 12.6485 17.7861L13.5109 18.6486C15.1295 20.2672 15.6032 22.6906 14.7177 24.8223L14.7032 24.8576C13.8227 26.9896 11.7746 28.3672 9.4854 28.3672H8.26562C6.9302 28.3672 5.84375 29.4536 5.84375 30.7891V33.2109C5.84375 34.5464 6.9302 35.6328 8.26562 35.6328H9.4854C11.7744 35.6328 13.8226 37.0104 14.7032 39.1423L14.7177 39.1777C15.6033 41.3094 15.1295 43.7327 13.5109 45.3514L12.6484 46.214C12.191 46.6712 11.9391 47.2795 11.9391 47.9264C11.9391 48.5734 12.191 49.1814 12.6484 49.6389L14.361 51.3516C14.8184 51.809 15.4266 52.0609 16.0735 52.0609C16.7205 52.0609 17.3285 51.809 17.786 51.3516L18.6484 50.4891C20.2676 48.8703 22.6907 48.3971 24.8223 49.2823L24.8576 49.2968C26.9896 50.1773 28.3672 52.2254 28.3672 54.5146V55.7344C28.3672 57.0698 29.4536 58.1562 30.7891 58.1562H33.2109C34.2751 58.1562 35.204 57.4752 35.5224 56.4618C35.9233 55.1856 37.2827 54.4765 38.5587 54.8769C39.8348 55.2779 40.5443 56.6371 40.1436 57.9132C39.1878 60.9558 36.4019 63 33.2109 63Z" fill="#868686"/>
<path d="M60.9247 60.8036C62.2629 59.4654 63 57.686 63 55.7934C63 53.9008 62.2629 52.1215 60.9247 50.7831L60.9211 50.7796L45.2169 35.141C45.9424 33.5617 46.4076 31.7341 46.4102 30.264C46.4152 27.1299 45.2062 24.2615 42.9138 21.9691C40.107 19.1623 35.8404 17.4886 31.4947 17.4886C31.4857 17.4886 31.4761 17.4886 31.4669 17.4886C30.061 17.4911 28.7239 17.7227 27.2589 18.2178C26.4696 18.4844 25.8729 19.1381 25.6789 19.9482C25.4849 20.7584 25.721 21.6114 26.3039 22.2067L32.1383 28.1642L31.4089 31.3069L28.3191 32.0077L22.3951 26.0709C21.8035 25.4782 20.948 25.2328 20.1322 25.4226C19.3166 25.6121 18.6568 26.2097 18.3875 27.0026C17.8662 28.5374 17.6118 29.9582 17.6095 31.3464C17.6036 34.9542 18.7359 38.564 20.7159 41.2504C23.1115 44.5004 26.5371 46.2892 30.3647 46.2891C30.3714 46.2891 30.3784 46.2891 30.385 46.2891C31.7209 46.2868 33.5914 45.9103 35.26 45.1846L50.9041 60.8036C52.2425 62.1418 54.0219 62.8789 55.9144 62.8789C57.807 62.8789 59.5865 62.1418 60.9247 60.8036ZM34.2797 40.2227C33.2769 40.9411 31.418 41.4435 30.377 41.4454C27.4847 41.4467 25.649 39.779 24.615 38.3764C23.5491 36.9304 22.8363 35.0717 22.5699 33.1036L25.8355 36.3761C26.4236 36.9655 27.274 37.2114 28.0855 37.0274L33.9605 35.6947C34.8659 35.4894 35.5741 34.7846 35.7841 33.8805L37.157 27.9658C37.344 27.16 37.1069 26.3146 36.5282 25.7235L33.34 22.4681C35.7428 22.8239 37.957 23.8621 39.4888 25.3939C40.8704 26.7754 41.5694 28.4113 41.5664 30.2558C41.5648 31.2249 40.9974 33.0905 40.2403 34.1366C39.5417 35.1019 39.649 36.4318 40.4934 37.2726L57.5003 54.2086C57.9233 54.632 58.1562 55.1947 58.1562 55.7931C58.1562 56.3919 57.923 56.9549 57.4996 57.3783C57.0762 57.8017 56.5131 58.035 55.9144 58.035C55.3158 58.035 54.7527 57.8017 54.3279 57.3769L37.4013 40.4778C36.9325 40.0098 36.313 39.7698 35.6894 39.7698C35.198 39.7698 34.704 39.9188 34.2797 40.2227Z" fill="#43B02A"/>
</svg>
