<svg width="64" height="64" viewBox="0 0 64 64" fill="none" xmlns="http://www.w3.org/2000/svg">
<path d="M49.6474 13.9427C50.0931 15.4549 51.0493 16.7659 52.3532 17.6521C53.6571 18.5383 55.228 18.9449 56.7981 18.8027C58.3682 18.6605 59.8404 17.9782 60.9639 16.8721C62.0873 15.766 62.7925 14.3046 62.9591 12.7369C63.1258 11.1692 62.7437 9.5922 61.8779 8.27464C61.0122 6.95709 59.7163 5.98052 58.2112 5.51135C56.706 5.04219 55.0848 5.10945 53.6237 5.7017C52.1626 6.29394 50.9521 7.37451 50.1985 8.75926C49.7681 9.54375 49.4977 10.4059 49.4031 11.2957C49.3085 12.1855 49.3915 13.0852 49.6474 13.9427ZM55.5401 9.83686C56.0447 9.68801 56.5853 9.71876 57.0697 9.92387C57.5542 10.129 57.9525 10.4958 58.1968 10.9617C58.4411 11.4276 58.5162 11.9638 58.4094 12.4789C58.3026 12.9941 58.0205 13.4562 57.6111 13.7866C57.2017 14.117 56.6904 14.2951 56.1643 14.2907C55.6383 14.2863 55.13 14.0996 54.7262 13.7624C54.3224 13.4252 54.048 12.9584 53.9499 12.4416C53.8517 11.9248 53.9358 11.3899 54.1879 10.9281C54.4764 10.3997 54.9627 10.0072 55.5401 9.83686Z" fill="#868686"/>
<path d="M16.5876 9.03108C16.2008 9.49268 16.0129 10.0889 16.0653 10.6889C16.1176 11.2888 16.4059 11.8435 16.8668 12.2311C17.3285 12.6179 17.9248 12.8056 18.5247 12.753C19.1247 12.7005 19.6793 12.4121 20.0668 11.9511L20.7943 11.0808L24.2972 14.0199L45.401 31.7299L49.2531 34.9618C49.7179 35.3173 50.3018 35.4799 50.8834 35.4157C51.465 35.3516 51.9995 35.0657 52.3757 34.6175C52.7519 34.1693 52.9407 33.5933 52.903 33.0094C52.8653 32.4255 52.6038 31.8786 52.1731 31.4825L46.846 27.0093C47.1616 26.16 47.5535 25.0396 47.91 23.8356C49.4177 18.7313 48.8985 16.7425 48.3774 15.6895C47.5769 14.0779 46.1715 12.8484 44.4678 12.2692C42.7642 11.69 40.9006 11.808 39.2837 12.5976L33.0645 15.4449L25.6595 9.23114L23.7171 7.60155L24.4446 6.73128C24.8313 6.26957 25.019 5.67327 24.9665 5.0733C24.9139 4.47333 24.6255 3.91872 24.1645 3.5312C23.7027 3.14489 23.1065 2.95751 22.5068 3.01019C21.907 3.06287 21.3527 3.3513 20.9653 3.8122L20.2378 4.68247L19.0193 3.65943C18.5575 3.27272 17.9613 3.08502 17.3613 3.13753C16.7613 3.19004 16.2067 3.47847 15.8192 3.93951C15.4328 4.40117 15.2452 4.99726 15.2977 5.59701C15.3502 6.19676 15.6385 6.75119 16.0993 7.13868L17.3169 8.16081L16.5876 9.03108ZM41.2015 16.7107L41.2634 16.6807C41.8011 16.415 42.4221 16.3725 42.991 16.5626C43.5599 16.7527 44.0307 17.1599 44.3007 17.6956C44.327 17.7729 44.6471 18.8914 43.5213 22.6562C43.394 23.0818 43.2613 23.4973 43.1303 23.8911L36.9157 18.6759L41.2015 16.7107Z" fill="#868686"/>
<path d="M46.9832 58.057C47.0434 57.4578 46.8634 56.8592 46.4827 56.3925C46.102 55.9259 45.5517 55.6294 44.9526 55.5681L41.356 55.2043C39.7006 55.0393 38.1337 54.3778 36.861 53.3065L24.3562 42.8132C24.4642 42.7248 24.5641 42.6268 24.6545 42.5204L31.9531 38.0645C32.5012 37.4114 32.8635 36.6229 33.0019 35.7816C33.1403 34.9403 33.0497 34.0773 32.7397 33.283L29.466 24.8841C29.4411 24.8235 29.4138 24.7628 29.3841 24.7022C29.1799 24.2894 29.1058 23.8243 29.1717 23.3685C29.2377 22.9127 29.4405 22.4876 29.7533 22.1496L26.2495 19.2114C24.9018 20.6664 24.1043 22.6116 24.5536 24.3485L28.5075 34.9345C28.5215 34.9694 28.5257 35.0074 28.5198 35.0446C28.5139 35.0817 28.498 35.1166 28.4739 35.1454L21.1743 39.6013C21.0853 39.7086 21.0062 39.8236 20.9379 39.9451L4.73108 26.3454C4.26942 25.959 3.67333 25.7715 3.07358 25.824C2.47384 25.8765 1.9194 26.1648 1.53191 26.6255C1.1451 27.0871 0.957244 27.6833 1.00959 28.2833C1.06193 28.8833 1.35019 29.438 1.81109 29.8256L33.9419 56.7857C35.912 58.4432 38.3368 59.467 40.8986 59.723L44.4942 60.0867C45.0933 60.147 45.6918 59.9671 46.1584 59.5866C46.6251 59.2061 46.9217 58.656 46.9832 58.057Z" fill="#3B86C8"/>
</svg>
