<svg width="64" height="64" viewBox="0 0 64 64" fill="none" xmlns="http://www.w3.org/2000/svg">
<path d="M46.8672 53.3125C46.8672 58.6543 42.5215 63 37.1797 63H13.6875C8.34566 63 4 58.6543 4 53.3125V10.6875C4 5.34566 8.34566 1 13.6875 1H37.1797C42.5215 1 46.8672 5.34566 46.8672 10.6875C46.8672 12.0252 45.783 13.1094 44.4453 13.1094C43.1076 13.1094 42.0234 12.0252 42.0234 10.6875C42.0234 8.01682 39.8504 5.84375 37.1797 5.84375H13.6875C11.0168 5.84375 8.84375 8.01682 8.84375 10.6875V53.3125C8.84375 55.9832 11.0168 58.1562 13.6875 58.1562H37.1797C39.8504 58.1562 42.0234 55.9832 42.0234 53.3125C42.0234 51.9748 43.1076 50.8906 44.4453 50.8906C45.783 50.8906 46.8672 51.9748 46.8672 53.3125ZM23.0117 51.9951C23.0117 53.3328 24.0959 54.417 25.4336 54.417C26.7713 54.417 27.8555 53.3328 27.8555 51.9951C27.8555 50.6574 26.7713 49.5733 25.4336 49.5733C24.0959 49.5733 23.0117 50.6574 23.0117 51.9951ZM30.2773 12.0342C30.2773 10.6965 29.1932 9.61232 27.8555 9.61232H23.0117C21.674 9.61232 20.5898 10.6965 20.5898 12.0342C20.5898 13.3719 21.674 14.4561 23.0117 14.4561H27.8555C29.1932 14.4561 30.2773 13.3719 30.2773 12.0342Z" fill="#868686"/>
<path d="M47.0006 22.9397L55.216 26.6071V33.1522C55.216 35.3873 54.3142 37.6917 52.7414 39.4669C51.1687 41.2421 49.1833 42.2216 47.1465 42.2216H46.8535C44.8203 42.2216 42.8301 41.2432 41.2586 39.4669C39.687 37.6905 38.784 35.3873 38.784 33.1522V26.6071L47.0006 22.9397ZM47.2003 18C47.1334 18 47.0664 18 47.0006 18.0096C46.9348 18.0191 46.8678 18 46.8009 18C46.4966 18.0002 46.1959 18.0645 45.9182 18.1887L35.2833 22.9361C34.9011 23.1063 34.5764 23.3835 34.3487 23.7342C34.1209 24.0848 33.9998 24.4939 34 24.9119V33.1546C34 36.5389 35.3395 39.9937 37.6729 42.6326C40.1654 45.447 43.4233 47 46.8535 47H47.1465C50.5743 47 53.8346 45.447 56.3271 42.6302C58.6617 39.9913 60 36.5377 60 33.1522V24.9095C60.0001 24.4917 59.8792 24.0828 59.6516 23.7321C59.4241 23.3815 59.0998 23.1042 58.7179 22.9337L48.0878 18.1887C47.8101 18.0645 47.5093 18.0002 47.2051 18H47.2003Z" fill="#43B02A"/>
</svg>
