<svg width="64" height="64" viewBox="0 0 64 64" fill="none" xmlns="http://www.w3.org/2000/svg">
<path d="M46.8672 53.3125C46.8672 58.6543 42.5215 63 37.1797 63H13.6875C8.34566 63 4 58.6543 4 53.3125V10.6875C4 5.34566 8.34566 1 13.6875 1H37.1797C42.5215 1 46.8672 5.34566 46.8672 10.6875C46.8672 12.0252 45.783 13.1094 44.4453 13.1094C43.1076 13.1094 42.0234 12.0252 42.0234 10.6875C42.0234 8.01682 39.8504 5.84375 37.1797 5.84375H13.6875C11.0168 5.84375 8.84375 8.01682 8.84375 10.6875V53.3125C8.84375 55.9832 11.0168 58.1562 13.6875 58.1562H37.1797C39.8504 58.1562 42.0234 55.9832 42.0234 53.3125C42.0234 51.9748 43.1076 50.8906 44.4453 50.8906C45.783 50.8906 46.8672 51.9748 46.8672 53.3125ZM23.0117 51.9951C23.0117 53.3328 24.0959 54.417 25.4336 54.417C26.7713 54.417 27.8555 53.3328 27.8555 51.9951C27.8555 50.6574 26.7713 49.5733 25.4336 49.5733C24.0959 49.5733 23.0117 50.6574 23.0117 51.9951ZM30.2773 12.0342C30.2773 10.6965 29.1932 9.61232 27.8555 9.61232H23.0117C21.674 9.61232 20.5898 10.6965 20.5898 12.0342C20.5898 13.3719 21.674 14.4561 23.0117 14.4561H27.8555C29.1932 14.4561 30.2773 13.3719 30.2773 12.0342Z" fill="#868686"/>
<path fill-rule="evenodd" clip-rule="evenodd" d="M32.8332 29.7927C35.859 26.7669 39.9423 25.0931 44.331 25.0792L44.3855 25.0791C48.7919 25.0791 52.8908 26.752 55.9315 29.7928C56.39 30.2513 56.991 30.4805 57.592 30.4805C58.1931 30.4805 58.7941 30.2513 59.2526 29.7928C60.1698 28.8757 60.1698 27.3886 59.2526 26.4716C55.3083 22.5272 50.0059 20.3654 44.3164 20.3824C38.6786 20.4 33.421 22.5626 29.5121 26.4716C28.5949 27.3888 28.5949 28.8757 29.5121 29.7927C30.4293 30.7098 31.9162 30.7099 32.8332 29.7927ZM44.4412 43.749C45.7381 43.749 46.7896 42.6976 46.7896 41.4006C46.7896 40.1036 45.7381 39.0522 44.4412 39.0522C43.1442 39.0522 42.0928 40.1036 42.0928 41.4006C42.0928 42.6976 43.1442 43.749 44.4412 43.749ZM52.91 36.2531C52.4514 36.7115 51.8504 36.9408 51.2494 36.9408C50.6483 36.9408 50.0475 36.7116 49.5889 36.2528C48.2137 34.8779 46.3856 34.1206 44.441 34.1206C42.4964 34.1206 40.6682 34.8779 39.2932 36.2528C38.3762 37.17 36.8893 37.1701 35.9721 36.253C35.0549 35.3359 35.0549 33.849 35.9721 32.9319C38.2342 30.6696 41.2418 29.4238 44.441 29.4238C47.6403 29.4238 50.6479 30.6698 52.91 32.932C53.8271 33.849 53.8271 35.3359 52.91 36.2531Z" fill="#43B02A"/>
</svg>
