<svg width="64" height="64" viewBox="0 0 64 64" fill="none" xmlns="http://www.w3.org/2000/svg">
<path d="M46.8672 53.3125C46.8672 58.6543 42.5215 63 37.1797 63H13.6875C8.34566 63 4 58.6543 4 53.3125V10.6875C4 5.34566 8.34566 1 13.6875 1H37.1797C42.5215 1 46.8672 5.34566 46.8672 10.6875C46.8672 12.0252 45.783 13.1094 44.4453 13.1094C43.1076 13.1094 42.0234 12.0252 42.0234 10.6875C42.0234 8.01682 39.8504 5.84375 37.1797 5.84375H13.6875C11.0168 5.84375 8.84375 8.01682 8.84375 10.6875V53.3125C8.84375 55.9832 11.0168 58.1562 13.6875 58.1562H37.1797C39.8504 58.1562 42.0234 55.9832 42.0234 53.3125C42.0234 51.9748 43.1076 50.8906 44.4453 50.8906C45.783 50.8906 46.8672 51.9748 46.8672 53.3125ZM23.0117 51.9951C23.0117 53.3328 24.0959 54.417 25.4336 54.417C26.7713 54.417 27.8555 53.3328 27.8555 51.9951C27.8555 50.6574 26.7713 49.5733 25.4336 49.5733C24.0959 49.5733 23.0117 50.6574 23.0117 51.9951ZM30.2773 12.0342C30.2773 10.6965 29.1932 9.61232 27.8555 9.61232H23.0117C21.674 9.61232 20.5898 10.6965 20.5898 12.0342C20.5898 13.3719 21.674 14.4561 23.0117 14.4561H27.8555C29.1932 14.4561 30.2773 13.3719 30.2773 12.0342Z" fill="#868686"/>
<path d="M30.0002 27.7118C29.9998 27.6954 30.0002 27.7282 30.0002 27.7118V27.7118ZM59.7892 27.7118C59.6687 33.6474 56.2662 39.2523 49.9504 43.9599C46.9736 46.1787 42.8157 46.1787 39.8389 43.9599C33.5231 39.2523 30.1206 33.6474 30.0002 27.7118C30.0235 19.9049 39.5422 16.0436 44.8947 21.6696C50.25 16.0412 59.7671 19.9093 59.7892 27.7118ZM54.9454 27.6192C54.6887 22.5571 47.5058 22.6163 47.3165 27.7118C47.3165 29.0494 46.2323 30.1337 44.8947 30.1337C43.5571 30.1337 42.4728 29.0494 42.4728 27.7118C42.2833 22.614 35.0984 22.56 34.8439 27.6192C34.9692 33.1471 39.2018 37.4436 42.7336 40.0762C44.0058 41.0246 45.7832 41.0246 47.0556 40.0762C50.5875 37.4436 54.8201 33.1471 54.9454 27.6192ZM59.7892 27.7118C59.7892 27.7282 59.7895 27.6954 59.7892 27.7118V27.7118Z" fill="#EB5757"/>
</svg>
