<svg width="64" height="64" viewBox="0 0 64 64" fill="none" xmlns="http://www.w3.org/2000/svg">
<path d="M39.6679 32.2576C39.2201 33.0346 38.4004 33.4688 37.5656 33.4688C37.1352 33.4688 36.7127 33.3538 36.3414 33.1355L34.4371 32.0203L34.8454 33.5659C35.1029 34.5416 34.5224 35.5441 33.5491 35.8008C33.3966 35.8422 33.2392 35.863 33.0812 35.8627C32.2745 35.8627 31.536 35.3223 31.3197 34.5038L29.9733 29.4064L25.4298 26.7428V32.1129L29.1016 35.8362C29.8103 36.5551 29.8032 37.7115 29.0874 38.4214C28.7313 38.7779 28.2683 38.9531 27.8053 38.9531C27.3353 38.9531 26.865 38.7722 26.509 38.4104L25.4298 37.3158V39.5625C25.4298 40.91 24.3414 42 22.9988 42C21.6562 42 20.5679 40.91 20.5679 39.5625V37.3154L19.4886 38.41C18.7811 39.1289 17.6269 39.1337 16.9104 38.4243C16.1946 37.715 16.1875 36.5581 16.8962 35.8391L20.568 32.1158L20.5041 26.7428L15.9602 29.4035L14.6138 34.5009C14.3977 35.3197 13.6591 35.8598 12.8523 35.8598C12.6978 35.8598 12.5411 35.8407 12.3845 35.7979C11.4115 35.5408 10.8309 34.5387 11.0881 33.563L11.4964 32.0174L9.59216 33.1326C9.27226 33.3621 8.85103 33.4688 8.43437 33.4688C7.59875 33.4688 6.78438 33.0355 6.3328 32.2591C5.6549 31.0975 6.04554 29.6053 7.20561 28.9266L9.17587 27.7726L7.6329 27.3531C6.66067 27.0932 6.08766 26.0877 6.35102 25.1127C6.61438 24.1377 7.61165 23.5664 8.58768 23.8254L13.59 25.1889L18.1817 22.5L13.59 19.8111L8.58768 21.1746C8.43163 21.2168 8.27077 21.2385 8.10915 21.2389C7.30693 21.2389 6.57074 20.7033 6.3514 19.8891C6.08766 18.9123 6.66067 17.9145 7.6329 17.6479L9.17587 17.2283L7.20561 16.0711C6.04592 15.3927 5.65505 13.9002 6.3328 12.7386C7.00714 11.5747 8.49584 11.1816 9.65781 11.8626L11.562 12.9778L11.1537 11.4322C10.8964 10.458 11.4801 9.45557 12.3832 9.19887C13.4306 8.93455 14.3565 9.5226 14.6829 10.4961L16.0293 15.5935L20.5041 18.2572V12.8871L16.8991 9.16078C16.1932 8.44172 16.1932 7.28467 16.9142 6.57551C17.6277 5.8633 18.7813 5.8732 19.4947 6.58998L20.5739 7.68457L20.5041 5.4375C20.5041 4.09002 21.5925 3 22.9351 3C24.2777 3 25.366 4.09002 25.366 5.4375V7.68457L26.4453 6.58998C27.1516 5.87351 28.3055 5.86399 29.0235 6.57566C29.7393 7.28505 29.7464 8.44187 29.0377 9.16093L25.3659 12.8842L25.4298 18.2572L29.9737 15.5965L31.3201 10.4991C31.5777 9.52564 32.5769 8.9376 33.5499 9.20191C34.5229 9.45899 35.1035 10.461 34.8462 11.4368L34.438 12.9823L36.3422 11.8672C37.5019 11.1888 38.9917 11.5815 39.6672 12.7431C40.3451 13.9048 39.9545 15.397 38.7944 16.0757L36.8241 17.2297L38.3671 17.6492C39.3393 17.9135 39.9131 18.9182 39.649 19.8917C39.4293 20.706 38.6935 21.2415 37.8912 21.2415C37.7334 21.2415 37.573 21.2201 37.4127 21.1772L32.3439 19.8111L27.8205 22.5L32.4092 25.1873L37.4145 23.8262C38.3928 23.5664 39.3871 24.1377 39.6527 25.1127C39.9163 26.0862 39.3429 27.0909 38.3708 27.3552L36.8278 27.7747L38.7981 28.9288C39.9563 29.6068 40.3434 31.0998 39.6679 32.2576Z" fill="#868686"/>
<path d="M45.0006 38.9397L53.216 42.6071V49.1522C53.216 51.3873 52.3142 53.6917 50.7414 55.4669C49.1687 57.2421 47.1833 58.2216 45.1465 58.2216H44.8535C42.8203 58.2216 40.8301 57.2432 39.2586 55.4669C37.687 53.6905 36.784 51.3873 36.784 49.1522V42.6071L45.0006 38.9397ZM45.2003 34C45.1334 34 45.0664 34 45.0006 34.0096C44.9348 34.0191 44.8678 34 44.8009 34C44.4966 34.0002 44.1959 34.0645 43.9182 34.1887L33.2833 38.9361C32.9011 39.1063 32.5764 39.3835 32.3487 39.7342C32.1209 40.0848 31.9998 40.4939 32 40.9119V49.1546C32 52.5389 33.3395 55.9937 35.6729 58.6326C38.1654 61.447 41.4233 63 44.8535 63H45.1465C48.5743 63 51.8346 61.447 54.3271 58.6302C56.6617 55.9913 58 52.5377 58 49.1522V40.9095C58.0001 40.4917 57.8792 40.0828 57.6516 39.7321C57.4241 39.3815 57.0998 39.1042 56.7179 38.9337L46.0878 34.1887C45.8101 34.0645 45.5093 34.0002 45.2051 34H45.2003Z" fill="#43B02A"/>
</svg>
