<svg width="64" height="64" viewBox="0 0 64 64" fill="none" xmlns="http://www.w3.org/2000/svg">
<path d="M60.5792 35.1291C61.2219 35.1291 61.8382 34.8739 62.2927 34.4197C62.7471 33.9655 63.0024 33.3495 63.0024 32.7072V28.8322C63.0017 27.6702 62.7221 26.5254 62.1871 25.4937C61.6522 24.4621 60.8775 23.5737 59.928 22.9032C58.9785 22.2326 57.8819 21.7994 56.7303 21.64C55.5787 21.4805 54.4056 21.5994 53.3094 21.9868V14.9149C53.3043 11.226 51.8358 7.68967 49.2259 5.08124C46.616 2.4728 43.0776 1.00513 39.3867 1L24.6133 1C20.9222 1.00577 17.3839 2.47422 14.7744 5.08338C12.1649 7.69253 10.6972 11.2294 10.693 14.9185V21.9904C9.59686 21.6031 8.42377 21.4841 7.27214 21.6436C6.12052 21.803 5.02395 22.2362 4.07446 22.9068C3.12497 23.5773 2.35024 24.4657 1.81528 25.4974C1.28033 26.529 1.00075 27.6739 1 28.8358L1 44.8117C1.00161 47.38 2.02354 49.8425 3.84115 51.6579C5.65877 53.4734 8.1233 54.4932 10.693 54.4932H11.3109L9.69946 59.8867C9.59459 60.195 9.55303 60.5213 9.57725 60.8461C9.60146 61.1709 9.69097 61.4874 9.84041 61.7768C9.98986 62.0662 10.1962 62.3225 10.447 62.5304C10.6978 62.7383 10.988 62.8935 11.3003 62.9867C11.6125 63.0799 11.9403 63.1092 12.2641 63.0729C12.5879 63.0365 12.9011 62.9353 13.1849 62.7752C13.4686 62.6151 13.7172 62.3995 13.9157 62.1412C14.1141 61.8829 14.2585 61.5873 14.34 61.272L16.367 54.4907H47.7554L49.7812 61.272C49.9797 61.8695 50.4032 62.3664 50.9619 62.6571C51.5207 62.9479 52.1708 63.0098 52.7744 62.8296C53.378 62.6495 53.8877 62.2414 54.1955 61.6921C54.5032 61.1427 54.5848 60.4951 54.4229 59.8867L52.8102 54.4932H53.3131C55.8828 54.4932 58.3473 53.4734 60.1649 51.6579C61.9825 49.8425 63.0045 47.38 63.0061 44.8117C63.0061 44.1694 62.7508 43.5534 62.2963 43.0992C61.8419 42.645 61.2255 42.3898 60.5828 42.3898C59.9401 42.3898 59.3238 42.645 58.8693 43.0992C58.4149 43.5534 58.1596 44.1694 58.1596 44.8117C58.1596 45.4478 58.0342 46.0777 57.7906 46.6653C57.5471 47.253 57.1901 47.787 56.7401 48.2368C56.29 48.6866 55.7557 49.0433 55.1677 49.2868C54.5797 49.5302 53.9495 49.6555 53.3131 49.6555H10.693C10.0565 49.6555 9.42632 49.5302 8.83832 49.2868C8.25031 49.0433 7.71604 48.6866 7.266 48.2368C6.81596 47.787 6.45897 47.253 6.21541 46.6653C5.97185 46.0777 5.8465 45.4478 5.8465 44.8117V28.8358C5.8465 28.1935 6.1018 27.5775 6.55625 27.1233C7.0107 26.6691 7.62706 26.4139 8.26974 26.4139C8.91243 26.4139 9.52879 26.6691 9.98324 27.1233C10.4377 27.5775 10.693 28.1935 10.693 28.8358V42.3911C10.693 43.0334 10.9483 43.6494 11.4027 44.1036C11.8572 44.5578 12.4736 44.8129 13.1162 44.8129C13.7589 44.8129 14.3753 44.5578 14.8297 44.1036C15.2842 43.6494 15.5395 43.0334 15.5395 42.3911V40.2344C18.8363 39.5611 25.9146 38.2799 32.0091 38.2799C38.1036 38.2799 45.171 39.5587 48.469 40.2344V42.3947C48.469 43.037 48.7243 43.653 49.1788 44.1072C49.6332 44.5614 50.2496 44.8166 50.8922 44.8166C51.5349 44.8166 52.1513 44.5614 52.6057 44.1072C53.0602 43.653 53.3155 43.037 53.3155 42.3947V28.8358C53.3155 28.1935 53.5708 27.5775 54.0252 27.1233C54.4797 26.6691 55.0961 26.4139 55.7387 26.4139C56.3814 26.4139 56.9978 26.6691 57.4522 27.1233C57.9067 27.5775 58.162 28.1935 58.162 28.8358V32.7108C58.1629 33.3515 58.4179 33.9656 58.8709 34.4189C59.3239 34.8721 59.9382 35.1275 60.5792 35.1291ZM32.0006 33.4338C25.9885 33.4338 19.2931 34.5514 15.531 35.2889V14.9185C15.531 12.5098 16.4884 10.1998 18.1926 8.49655C19.8968 6.79334 22.2081 5.83648 24.6182 5.83648H39.3867C41.7967 5.83648 44.1081 6.79334 45.8123 8.49655C47.5164 10.1998 48.4738 12.5098 48.4738 14.9185V35.2901C44.7081 34.5527 38.0127 33.435 32.0006 33.435V33.4338Z" fill="#868686"/>
<path d="M32 18C33.3807 18 34.5 16.8807 34.5 15.5C34.5 14.1193 33.3807 13 32 13C30.6193 13 29.5 14.1193 29.5 15.5C29.5 16.8807 30.6193 18 32 18Z" fill="#EB5757"/>
<path d="M32 28C33.3807 28 34.5 26.8807 34.5 25.5C34.5 24.1193 33.3807 23 32 23C30.6193 23 29.5 24.1193 29.5 25.5C29.5 26.8807 30.6193 28 32 28Z" fill="#EB5757"/>
<path d="M27 20.5C27 21.8807 25.8807 23 24.5 23C23.1193 23 22 21.8807 22 20.5C22 19.1193 23.1193 18 24.5 18C25.8807 18 27 19.1193 27 20.5Z" fill="#EB5757"/>
<path d="M39.5 23C40.8807 23 42 21.8807 42 20.5C42 19.1193 40.8807 18 39.5 18C38.1193 18 37 19.1193 37 20.5C37 21.8807 38.1193 23 39.5 23Z" fill="#EB5757"/>
</svg>
