<svg width="64" height="64" viewBox="0 0 64 64" fill="none" xmlns="http://www.w3.org/2000/svg">
<path d="M35.2749 15.8581C36.5857 16.1225 37.8634 15.2743 38.128 13.9631C38.3927 12.652 37.5442 11.3746 36.2331 11.11C29.2071 9.69234 21.9917 11.8682 16.9299 16.9299C12.637 21.2229 10.3745 27.1636 10.7229 33.2288C10.7966 34.5168 11.8353 35.5117 13.1094 35.5117C14.5625 35.5117 15.6351 34.2864 15.5585 32.9511C15.2893 28.2634 17.0375 23.6723 20.3549 20.3549C24.2665 16.4432 29.8439 14.7619 35.2749 15.8581ZM45.3577 47.7796C45.9775 47.7796 46.5974 47.5431 47.0702 47.0702C52.2119 41.9288 54.3661 34.6105 52.8332 27.4938C52.5515 26.1864 51.2632 25.3545 49.9555 25.6364C48.648 25.9181 47.8163 27.2064 48.098 28.5139C49.2831 34.0154 47.6185 39.672 43.6452 43.6452C42.6994 44.5911 42.6992 46.1245 43.6451 47.0702C44.1181 47.5431 44.7377 47.7796 45.3577 47.7796ZM18.0498 40.7605C17.337 39.6284 15.8417 39.2887 14.71 40.0011C13.5779 40.7138 13.238 42.209 13.9506 43.341C14.7962 44.6843 15.7986 45.9391 16.93 47.0702C17.4029 47.5431 18.0226 47.7795 18.6425 47.7795C19.2624 47.7795 19.8821 47.543 20.3551 47.0701C21.301 46.1242 21.3009 44.5908 20.355 43.6451C19.4787 42.769 18.7031 41.7985 18.0498 40.7605ZM26.8624 37.0173C25.4901 35.6449 24.7344 33.8204 24.7344 31.8796C24.7344 29.9389 25.4901 28.1143 26.8624 26.742C28.8478 24.7566 40.5146 18.3475 44.043 16.4305C44.9817 15.9206 46.144 16.0857 46.9032 16.8376C47.6626 17.5893 47.8393 18.7499 47.3386 19.6937C45.4494 23.2536 39.131 35.0237 37.1376 37.0171C35.7212 38.4336 33.8605 39.1417 32 39.1417C30.1395 39.1417 28.2789 38.4336 26.8624 37.0173ZM30.2875 33.5921C31.2318 34.5363 32.7681 34.5363 33.7125 33.5921C34.3906 32.8977 36.5995 29.1732 39.0781 24.7363C34.6471 27.2633 30.9858 29.4795 30.2869 30.1676C29.3432 31.1114 29.3432 32.6478 30.2875 33.5921Z" fill="#3B86C8"/>
<path d="M63 32C63 38.119 61.1838 44.0699 57.7477 49.2094C57.0044 50.3214 55.5003 50.6202 54.3883 49.8767C53.2764 49.1333 52.9777 47.6292 53.7211 46.5173C56.6226 42.1772 58.1562 37.1573 58.1562 32C58.1562 17.5774 46.4226 5.84375 32 5.84375C17.5774 5.84375 5.84375 17.5774 5.84375 32C5.84375 46.4226 17.5774 58.1562 32 58.1562C36.7837 58.1562 41.4626 56.8538 45.5307 54.3895C46.6747 53.6965 48.1638 54.0621 48.857 55.2063C49.55 56.3503 49.1843 57.8396 48.0403 58.5325C43.2152 61.4552 37.6686 63 32 63C23.7196 63 15.9349 59.7754 10.0796 53.9204C4.22461 48.0651 1 40.2804 1 32C1 23.7196 4.22461 15.9349 10.0796 10.0796C15.9349 4.22461 23.7196 1 32 1C40.2804 1 48.0651 4.22461 53.9204 10.0796C59.7754 15.9349 63 23.7196 63 32Z" fill="#868686"/>
</svg>
