<svg width="64" height="64" viewBox="0 0 64 64" fill="none" xmlns="http://www.w3.org/2000/svg">
<path d="M63 50.8906C60.5219 50.8906 58.1015 49.4971 55.8057 46.7486C55.6919 46.6125 55.4843 46.5312 55.25 46.5312C55.0157 46.5312 54.8081 46.6125 54.6944 46.7485C52.3985 49.4971 49.9781 50.8906 47.5 50.8906C45.0219 50.8906 42.6015 49.4971 40.3057 46.7486C40.1919 46.6125 39.9843 46.5312 39.75 46.5312C39.5157 46.5312 39.3081 46.6125 39.1944 46.7485C36.8985 49.4971 34.4781 50.8906 32 50.8906C29.5219 50.8906 27.1015 49.4971 24.8057 46.7486C24.6919 46.6125 24.4843 46.5312 24.25 46.5312C24.0157 46.5312 23.8081 46.6125 23.6944 46.7485C21.3985 49.4971 18.9781 50.8906 16.5 50.8906C14.0219 50.8906 11.6015 49.4971 9.3057 46.7486C9.19187 46.6125 8.98432 46.5312 8.75 46.5312C8.51568 46.5312 8.30813 46.6125 8.19442 46.7485C5.89848 49.4971 3.47806 50.8906 1 50.8906V46.0469C1.93375 46.0469 3.201 45.1709 4.47684 43.6434C5.51498 42.4005 7.07249 41.6875 8.75 41.6875C10.4275 41.6875 11.985 42.4005 13.0233 43.6435C14.299 45.1709 15.5662 46.0469 16.5 46.0469C17.4338 46.0469 18.701 45.1709 19.9768 43.6434C21.015 42.4005 22.5725 41.6875 24.25 41.6875C25.9275 41.6875 27.485 42.4005 28.5233 43.6435C29.799 45.1709 31.0662 46.0469 32 46.0469C32.9338 46.0469 34.201 45.1709 35.4768 43.6434C36.515 42.4005 38.0725 41.6875 39.75 41.6875C41.4275 41.6875 42.985 42.4005 44.0233 43.6435C45.299 45.1709 46.5662 46.0469 47.5 46.0469C48.4338 46.0469 49.701 45.1709 50.9768 43.6434C52.015 42.4005 53.5725 41.6875 55.25 41.6875C56.9275 41.6875 58.485 42.4005 59.5233 43.6435C60.799 45.1709 62.0662 46.0469 63 46.0469V50.8906ZM63 58.1562C62.0662 58.1562 60.799 57.2803 59.5233 55.7529C58.485 54.5099 56.9275 53.7969 55.25 53.7969C53.5725 53.7969 52.015 54.5099 50.9768 55.7528C49.701 57.2803 48.4338 58.1562 47.5 58.1562C46.5662 58.1562 45.299 57.2803 44.0233 55.7529C42.985 54.5099 41.4275 53.7969 39.75 53.7969C38.0725 53.7969 36.515 54.5099 35.4768 55.7528C34.201 57.2803 32.9338 58.1562 32 58.1562C31.0662 58.1562 29.799 57.2803 28.5233 55.7529C27.485 54.5099 25.9275 53.7969 24.25 53.7969C22.5725 53.7969 21.015 54.5099 19.9768 55.7528C18.701 57.2803 17.4338 58.1562 16.5 58.1562C15.5662 58.1562 14.299 57.2803 13.0233 55.7529C11.985 54.5099 10.4275 53.7969 8.75 53.7969C7.07249 53.7969 5.51498 54.5099 4.47684 55.7528C3.201 57.2803 1.93375 58.1562 1 58.1562V63C3.47806 63 5.89848 61.6065 8.19442 58.8579C8.30813 58.7219 8.51568 58.6406 8.75 58.6406C8.98432 58.6406 9.19187 58.7219 9.3057 58.858C11.6015 61.6065 14.0219 63 16.5 63C18.9781 63 21.3985 61.6065 23.6944 58.8579C23.808 58.7219 24.0157 58.6406 24.25 58.6406C24.4843 58.6406 24.6919 58.7219 24.8057 58.858C27.1015 61.6065 29.5219 63 32 63C34.4781 63 36.8985 61.6065 39.1944 58.8579C39.308 58.7219 39.5157 58.6406 39.75 58.6406C39.9843 58.6406 40.1919 58.7219 40.3057 58.858C42.6015 61.6065 45.0219 63 47.5 63C49.9781 63 52.3985 61.6065 54.6944 58.8579C54.808 58.7219 55.0157 58.6406 55.25 58.6406C55.4843 58.6406 55.6919 58.7219 55.8057 58.858C58.1015 61.6065 60.5219 63 63 63V58.1562Z" fill="#868686"/>
<path d="M11.8868 37.29C12.1224 37.8758 12.5834 38.345 13.1686 38.5944C13.7537 38.8439 14.415 38.8531 15.007 38.62C15.599 38.3869 16.0732 37.9307 16.3253 37.3517C16.5773 36.7727 16.5866 36.1183 16.3511 35.5325L13.6629 28.835L29.5999 25.3438V36.625C29.5999 37.2549 29.8527 37.859 30.3029 38.3044C30.753 38.7498 31.3634 39 32 39C32.6366 39 33.247 38.7498 33.6972 38.3044C34.1473 37.859 34.4001 37.2549 34.4001 36.625V25.3438L50.3371 28.835L47.6489 35.5325C47.532 35.8225 47.474 36.1325 47.4783 36.4447C47.4826 36.757 47.5491 37.0653 47.6739 37.3521C47.7987 37.6388 47.9795 37.8984 48.2059 38.116C48.4322 38.3336 48.6997 38.5048 48.993 38.62C49.2757 38.7306 49.577 38.787 49.881 38.7863C50.3617 38.7867 50.8315 38.6443 51.2295 38.3776C51.6274 38.1108 51.9353 37.7319 52.1132 37.29L55.8334 28.0037C55.9611 27.6826 56.0165 27.3377 55.9958 26.9932C55.975 26.6486 55.8787 26.3127 55.7134 26.0087C55.553 25.7059 55.3284 25.4409 55.055 25.2319C54.7816 25.0229 54.4659 24.8747 54.1293 24.7975L46.4008 23.1113V12.875C46.4008 12.2451 46.148 11.641 45.6979 11.1956C45.2477 10.7502 44.6373 10.5 44.0007 10.5H39.2004V3.375C39.2004 2.74511 38.9475 2.14102 38.4974 1.69562C38.0473 1.25022 37.4368 1 36.8003 1H27.1997C26.5632 1 25.9527 1.25022 25.5026 1.69562C25.0525 2.14102 24.7996 2.74511 24.7996 3.375V10.5H19.9993C19.3628 10.5 18.7523 10.7502 18.3022 11.1956C17.852 11.641 17.5992 12.2451 17.5992 12.875V23.1113L9.87072 24.75C9.53414 24.8272 9.21836 24.9753 8.94496 25.1844C8.67157 25.3934 8.44701 25.6584 8.28663 25.9613C8.12133 26.2652 8.02497 26.6011 8.00424 26.9457C7.98352 27.2902 8.03893 27.6351 8.16663 27.9563L11.8868 37.29ZM29.5999 5.75H34.4001V10.5H29.5999V5.75ZM22.3994 15.25H41.6006V22.0425L32.528 20H31.472L22.3994 22.0425V15.25Z" fill="#3B86C8"/>
</svg>
