<svg width="64" height="64" viewBox="0 0 64 64" fill="none" xmlns="http://www.w3.org/2000/svg">
<path fill-rule="evenodd" clip-rule="evenodd" d="M21.9859 23.7346L26.3824 19.7058C26.2425 21.8953 26.2806 24.1885 26.4776 26.5607C26.9406 32.1342 28.2664 37.692 30.066 42.2522C30.7155 42.204 31.3732 42.1794 32.0384 42.1794C38.9795 42.1794 45.7126 45.2175 50.2635 49.9839C53.6229 50.707 57.2045 52.3993 61.1524 55.4103C62.1013 56.1341 62.2805 57.4857 61.5527 58.4293C60.8249 59.3729 59.4656 59.5511 58.5167 58.8274C53.0729 54.6754 48.8805 53.6496 45.2969 53.9012C41.61 54.16 38.2842 55.7652 34.3959 57.6419L34.2531 57.7108C30.4232 59.5591 26.0985 61.6182 20.9585 61.9525C15.7297 62.2926 9.91101 60.8475 2.96751 56.2613C1.97135 55.6033 1.7002 54.2669 2.36188 53.2763C3.02356 52.2857 4.36752 52.0161 5.36368 52.6741C6.93071 53.7091 8.40986 54.5534 9.81077 55.2339C13.1463 49.2303 18.7883 44.696 25.7009 42.9559C23.9137 38.1685 22.6291 32.5429 22.1616 26.9151C22.0731 25.8493 22.0135 24.7882 21.9859 23.7346ZM32.0384 46.4858C24.1385 46.4858 17.5257 50.643 13.8757 56.837C16.3931 57.5885 18.6336 57.7881 20.6759 57.6553C24.8602 57.3831 28.4728 55.7136 32.3623 53.8366L32.8061 53.6222C35.9869 52.0844 39.433 50.4184 43.2683 49.8046C39.9736 47.7188 36.0322 46.4858 32.0384 46.4858Z" fill="#868686"/>
<path fill-rule="evenodd" clip-rule="evenodd" d="M25.1444 7.95136C26.6503 5.95357 28.993 4.26386 32.4709 3.33718C36.1469 2.35773 39.1657 2.74327 41.5553 3.84544C43.9018 4.92773 45.4702 6.62034 46.4408 8.00015C47.2929 9.21135 47.3479 10.6486 46.8065 11.8347C46.2837 12.9801 45.2438 13.832 43.9913 14.1657L27.1048 18.8286C26.7011 18.9401 26.4089 19.29 26.3824 19.7058L21.9859 23.7346L13.6495 32.0241C12.7451 32.9235 11.5024 33.3946 10.2559 33.2868C8.96581 33.1752 7.74364 32.4382 7.09346 31.1274C6.34842 29.6252 5.61274 27.4432 5.81323 24.8813C6.01762 22.2695 7.17997 19.4722 9.88374 16.7836C10.6 16.0714 11.3246 15.466 12.0517 14.9567L5.81871 13.3771C4.55379 13.0541 3.50042 12.2039 2.96932 11.0541C2.41907 9.86283 2.47277 8.4157 3.33334 7.1984C4.30817 5.81948 5.87834 4.13488 8.22245 3.05979C10.6091 1.96521 13.6206 1.5854 17.2847 2.56169C21.2959 3.63044 23.7275 5.69249 25.1444 7.95136ZM22.2029 13.0967L22.4753 13.1659H22.5172C22.4628 12.7923 22.3812 12.3994 22.2625 11.9995C21.6994 10.1005 20.2565 7.81183 16.1639 6.72137C13.4043 5.98609 11.4377 6.32757 10.0363 6.97031C8.78714 7.5432 7.84948 8.42033 7.17356 9.27696L21.7655 12.9856C21.914 13.0205 22.0598 13.0577 22.2029 13.0967ZM27.207 14.1795L42.6019 10.0776C41.9271 9.21636 40.9877 8.33075 39.733 7.75207C38.3302 7.10505 36.3597 6.75935 33.5918 7.49685C30.8113 8.23771 29.3039 9.51754 28.4453 10.7622C28.2075 11.1068 28.0107 11.4617 27.8485 11.8194C27.6196 12.5028 27.4175 13.2042 27.2412 13.9223C27.2284 14.0089 27.217 14.0946 27.207 14.1795ZM10.7768 28.7905L22.0466 17.5839C21.0292 17.1736 19.7704 16.8737 18.3928 16.9963C16.8526 17.1335 14.9723 17.8138 12.946 19.8287C10.9105 21.8527 10.2487 23.7106 10.1309 25.2154C10.0252 26.5664 10.3469 27.7977 10.7768 28.7905Z" fill="#43B02A"/>
<path fill-rule="evenodd" clip-rule="evenodd" d="M44.2032 33.9103C46.9661 33.9103 49.2059 31.6705 49.2059 28.9076C49.2059 26.1447 46.9661 23.905 44.2032 23.905C41.4403 23.905 39.2005 26.1447 39.2005 28.9076C39.2005 31.6705 41.4403 33.9103 44.2032 33.9103ZM44.2032 36.9103C48.623 36.9103 52.2059 33.3274 52.2059 28.9076C52.2059 24.4879 48.623 20.905 44.2032 20.905C39.7834 20.905 36.2005 24.4879 36.2005 28.9076C36.2005 33.3274 39.7834 36.9103 44.2032 36.9103Z" fill="#868686"/>
</svg>
