<svg width="64" height="64" viewBox="0 0 64 64" fill="none" xmlns="http://www.w3.org/2000/svg">
<path fill-rule="evenodd" clip-rule="evenodd" d="M34.4219 24.7027H39.7273C40.9406 24.7027 42.0754 24.1629 42.8412 23.2216C43.6104 22.2765 43.9093 21.0486 43.661 19.8532C42.9737 16.544 40.9151 13.7858 38.1607 12.1212C39.0826 10.8601 39.6289 9.30719 39.6289 7.62891C39.6289 3.42232 36.2066 0 32 0C27.7934 0 24.3711 3.42232 24.3711 7.62891C24.3711 9.30719 24.9174 10.8601 25.8398 12.1212C23.0854 13.7858 21.0268 16.544 20.3391 19.8537C20.0912 21.0486 20.3897 22.2765 21.1593 23.2216C21.9251 24.1629 23.0599 24.7027 24.2727 24.7027H29.5781H34.4219ZM34.7852 7.62891C34.7852 6.093 33.5359 4.84375 32 4.84375C30.4641 4.84375 29.2149 6.093 29.2149 7.62891C29.2149 9.16434 30.4641 10.4141 32 10.4141C33.5359 10.4141 34.7852 9.16434 34.7852 7.62891ZM32.0634 15.2573H31.9366C28.9798 15.2573 26.3583 17.1414 25.3611 19.8589H38.6389C37.6422 17.1414 35.0203 15.2573 32.0634 15.2573Z" fill="#868686"/>
<path fill-rule="evenodd" clip-rule="evenodd" d="M62.9149 57.1501C62.6429 55.8408 61.3615 54.9993 60.0512 55.2713C59.0749 55.4737 58.3592 56.2376 58.1705 57.1553H44.6151C45.6117 54.4383 48.2337 52.5537 51.1905 52.5537H51.3173C51.3294 52.5537 51.3413 52.553 51.3531 52.5523C51.3624 52.5517 51.3718 52.5511 51.3812 52.5509C55.5291 52.4823 58.8828 49.0889 58.8828 44.9253C58.8828 40.7187 55.4605 37.2964 51.2539 37.2964C47.0473 37.2964 43.625 40.7187 43.625 44.9253C43.625 46.6036 44.1714 48.1565 45.0933 49.4176C42.3389 51.0817 40.2803 53.8404 39.593 57.1501C39.3446 58.345 39.6436 59.5729 40.4127 60.518C41.1785 61.4593 42.3138 61.9991 43.5266 61.9991H58.9812C60.1941 61.9991 61.3293 61.4593 62.0951 60.518C62.8643 59.5729 63.1627 58.3454 62.9149 57.1501ZM51.2539 42.1402C52.7894 42.1402 54.0391 43.3894 54.0391 44.9253C54.0391 46.4607 52.7894 47.7105 51.2539 47.7105C49.718 47.7105 48.4688 46.4607 48.4688 44.9253C48.4688 43.3894 49.718 42.1402 51.2539 42.1402ZM18.9067 49.4176C19.8291 48.1565 20.375 46.6036 20.375 44.9253C20.375 40.7187 16.9527 37.2964 12.7466 37.2964C8.53998 37.2964 5.11766 40.7187 5.11766 44.9253C5.11766 46.6036 5.66401 48.1565 6.58593 49.4176C3.83152 51.0817 1.77292 53.8404 1.08562 57.1501C0.837283 58.345 1.13623 59.5729 1.90537 60.518C2.67119 61.4593 3.80597 61.9991 5.01928 61.9991H20.4739C21.6867 61.9991 22.822 61.4593 23.5873 60.518C24.3569 59.5729 24.6554 58.345 24.4075 57.1496C23.7198 53.8404 21.6612 51.0817 18.9067 49.4176ZM12.7466 42.1402C14.282 42.1402 15.5313 43.3894 15.5313 44.9253C15.5313 46.4607 14.282 47.7105 12.7466 47.7105C11.2107 47.7105 9.96142 46.4607 9.96142 44.9253C9.96142 43.3894 11.2107 42.1402 12.7466 42.1402ZM6.1077 57.1553C7.10436 54.4383 9.72633 52.5537 12.6832 52.5537H12.81C15.7668 52.5537 18.3883 54.4378 19.3854 57.1553H6.1077Z" fill="#868686"/>
<path d="M40.4032 39C41.502 39.762 41.7754 41.271 41.0129 42.3703C40.5427 43.0481 39.7877 43.4119 39.021 43.4119C38.5446 43.4119 38.0641 43.2719 37.6431 42.98L32.0395 39.2421L26.8092 42.9057C26.3778 43.2222 25.8759 43.375 25.3792 43.375C24.6337 43.375 23.8987 43.0325 23.4242 42.3854C22.6333 41.3065 22.8665 39.7909 23.945 39L29.5779 35.0402V28.4219C29.5779 27.0843 30.6622 26 31.9998 26C33.3374 26 34.4217 27.0843 34.4217 28.4219V35L40.4032 39Z" fill="#43B02A"/>
</svg>
