<svg width="64" height="64" viewBox="0 0 64 64" fill="none" xmlns="http://www.w3.org/2000/svg">
<path d="M60.5781 41.0547C61.9158 41.0547 63 39.9705 63 38.6328V27.9766C63 22.6347 58.6543 18.2891 53.3125 18.2891H48.3477V13.6875C48.3477 8.34566 44.002 4 38.6602 4H10.6875C5.34566 4 1 8.34566 1 13.6875V31.7451C1 37.087 5.34566 41.4326 10.6875 41.4326H22.4336V46.2764H16.8633C15.5256 46.2764 14.4414 47.3605 14.4414 48.6983C14.4414 50.036 15.5256 51.1201 16.8633 51.1201H32.1306C32.3302 56.287 36.5935 60.4297 41.8086 60.4297H53.3125C58.6543 60.4297 63 56.084 63 50.7422C63 49.4045 61.9158 48.3203 60.5781 48.3203C59.2404 48.3203 58.1562 49.4045 58.1562 50.7422C58.1562 53.4129 55.9832 55.5859 53.3125 55.5859H41.8086C39.1379 55.5859 36.9648 53.4129 36.9648 50.7422V27.9766C36.9648 25.3059 39.1379 23.1328 41.8086 23.1328H53.3125C55.9832 23.1328 58.1562 25.3059 58.1562 27.9766V38.6328C58.1562 39.9705 59.2404 41.0547 60.5781 41.0547ZM27.2773 41.4326H32.1211V46.2764H27.2773V41.4326ZM32.1211 27.9766V36.5889H10.6875C8.01682 36.5889 5.84375 34.4163 5.84375 31.7451V13.6875C5.84375 11.0168 8.01682 8.84375 10.6875 8.84375H38.6602C41.3308 8.84375 43.5039 11.0168 43.5039 13.6875V18.2891H41.8086C36.4668 18.2891 32.1211 22.6347 32.1211 27.9766Z" fill="#868686"/>
<path d="M52.3438 49.4102C52.3438 48.0724 51.2596 46.9883 49.9219 46.9883H45.1992C43.8615 46.9883 42.7773 48.0724 42.7773 49.4102C42.7773 50.7479 43.8615 51.832 45.1992 51.832H49.9219C51.2596 51.832 52.3438 50.7479 52.3438 49.4102Z" fill="#3B86C8"/>
</svg>
