<svg width="64" height="64" viewBox="0 0 64 64" fill="none" xmlns="http://www.w3.org/2000/svg">
<g clip-path="url(#clip0_54919_20899)">
<path d="M17.5679 39.155C17.5665 39.152 17.5651 39.1491 17.5635 39.1465L17.5679 39.155C17.5665 39.152 17.5651 39.1491 17.5635 39.1465C17.5651 39.1491 17.5665 39.152 17.5679 39.155L17.5688 39.1568L17.5737 39.1661C17.5755 39.1696 17.5773 39.1728 17.5791 39.1758C17.5757 39.1709 17.573 39.1656 17.5705 39.1605C17.5696 39.1586 17.5688 39.1568 17.5679 39.155L17.5635 39.1465C17.5651 39.1491 17.5665 39.152 17.5679 39.155L17.5679 39.155Z" fill="#43B02A"/>
<path d="M40.5162 14.9361L40.5162 14.9361C40.5175 14.9328 40.5188 14.9295 40.52 14.9268C40.5204 14.9257 40.5209 14.9247 40.5215 14.9238C40.521 14.9247 40.5205 14.9257 40.52 14.9268C40.5189 14.9298 40.5182 14.9333 40.5162 14.9361Z" fill="#868686"/>
<path d="M40.5162 14.9361L40.5162 14.9361C40.5175 14.9328 40.5188 14.9295 40.52 14.9268C40.5204 14.9257 40.5209 14.9247 40.5215 14.9238C40.521 14.9247 40.5205 14.9257 40.52 14.9268C40.5189 14.9298 40.5182 14.9333 40.5162 14.9361Z" fill="#868686"/>
<path fill-rule="evenodd" clip-rule="evenodd" d="M40.532 14.9097C40.5302 14.9126 40.5275 14.9175 40.5241 14.9235L40.532 14.9097Z" fill="#868686"/>
<path fill-rule="evenodd" clip-rule="evenodd" d="M43.4036 13.9388C42.3922 13.4945 41.21 13.8559 40.6143 14.7734C41.2113 13.8591 42.3938 13.4956 43.4036 13.9388ZM40.5348 14.9046C40.5599 14.8596 40.5866 14.816 40.6143 14.7734C40.5881 14.8139 40.5587 14.8619 40.5348 14.9046ZM40.5153 14.9404C40.5166 14.9372 40.5215 14.9238 40.5215 14.9238C40.52 14.9259 40.5162 14.9375 40.5153 14.9404Z" fill="#868686"/>
<path fill-rule="evenodd" clip-rule="evenodd" d="M44.4928 17.0447L44.4873 17.0557L44.4928 17.0447ZM44.4873 17.0557C44.4893 17.0519 44.491 17.0483 44.4928 17.0447L44.4873 17.0557Z" fill="#868686"/>
<path d="M12.6243 34.4451C13.9159 34.64 14.7535 35.8479 14.5926 37.2092L14.5469 37.4833L14.4893 37.8015C14.3774 38.5549 14.4271 39.3811 14.6761 40.2303L14.7948 40.5938C15.0989 41.4405 15.5464 42.4112 16.2211 43.147C16.9916 43.9873 17.956 44.6639 19.0302 45.1106L19.4362 45.2665C20.3864 45.602 21.3663 45.7436 22.3051 45.6962L22.566 45.6966C23.851 45.769 24.8635 46.7182 24.8145 48.1084C24.762 49.591 23.5746 50.8501 22.1623 50.9214C20.458 51.0074 18.7548 50.7248 17.1683 50.1152L16.8524 49.9893C15.1769 49.2926 13.6634 48.2362 12.4367 46.8983C11.2873 45.6445 10.403 44.158 9.87261 42.5304L9.77127 42.2018C9.28802 40.5537 9.17584 38.8008 9.48891 37.0756L9.55704 36.7304L9.6282 36.46C10.0446 35.1372 11.3326 34.2502 12.6243 34.4451Z" fill="#43B02A"/>
<path d="M45.1059 7.90121C44.9413 6.5872 45.7952 5.33653 47.1136 5.03365C48.52 4.71065 49.9223 5.58856 50.2454 6.9949L50.9242 9.95334C51.2469 11.3595 50.3687 12.761 48.9625 13.0841C47.5562 13.4069 46.1548 12.5286 45.8318 11.1223L45.1519 8.16437L45.1059 7.90121Z" fill="#43B02A"/>
<path d="M56.5268 22.6311C55.2828 22.1769 54.5608 20.8458 54.894 19.5346C55.2495 18.1362 56.6713 17.2902 58.0698 17.6456L61.0114 18.3941C62.4096 18.7498 63.2547 20.1715 62.8993 21.5699C62.5437 22.9682 61.1219 23.8132 59.7235 23.4578L56.7819 22.7104L56.5268 22.6311Z" fill="#43B02A"/>
<path d="M56.5572 8.67604C57.6578 7.93997 59.1584 8.14255 60.0203 9.18496C60.9396 10.2972 60.7837 11.9439 59.6715 12.8633L57.3666 14.7683C56.2545 15.6875 54.6077 15.5315 53.6883 14.4195C52.7691 13.3073 52.9251 11.6606 54.0371 10.7412L56.343 8.83567L56.5572 8.67604Z" fill="#43B02A"/>
<path fill-rule="evenodd" clip-rule="evenodd" d="M51.8456 19.3969C51.8418 19.3995 51.8356 19.403 51.8356 19.403C51.8325 19.4049 51.8387 19.4008 51.8356 19.403C51.8317 19.4055 51.8185 19.4143 51.8144 19.4169C51.7992 19.4265 51.782 19.4369 51.7638 19.4479C51.7269 19.4702 51.683 19.496 51.6337 19.5234C51.5353 19.5782 51.4121 19.6417 51.2638 19.7106C50.9666 19.8485 50.5698 20.0052 50.0695 20.1485C49.0643 20.4363 47.6661 20.6623 45.8487 20.5846C44.5454 20.5288 43.4171 20.0772 42.5294 19.6227C41.87 19.2851 41.1891 18.8585 40.6324 18.5096C40.4728 18.4097 40.3235 18.3161 40.1878 18.2328C38.8741 17.4269 38.3064 17.267 37.9246 17.3151L37.7713 17.347C37.6722 17.3757 37.5775 17.4068 37.487 17.4396L38.5421 18.0487C40.3471 19.0909 40.9656 21.399 39.9234 23.2041L37.2415 27.8494C41.457 33.9318 42.0619 42.1444 38.1163 48.9785C32.6649 58.4205 20.5914 61.6556 11.1494 56.2043C1.70735 50.7529 -1.52773 38.6794 3.92363 29.2374C7.86929 22.4033 15.2841 18.8209 22.6594 19.4303L25.3413 14.7851C26.3835 12.98 28.6916 12.3616 30.4967 13.4037L32.4651 14.5402C32.5844 14.4232 32.7168 14.3007 32.8627 14.1752C33.6251 13.52 34.7624 12.7778 36.3167 12.3274L36.581 12.2574C39.2968 11.5959 41.5818 12.9579 42.9203 13.7791C43.1502 13.9201 43.3585 14.0504 43.5525 14.1718C44.0605 14.4896 44.4701 14.7459 44.9109 14.9716C45.4803 15.2631 45.8346 15.3527 46.0717 15.3629C47.3355 15.4169 48.1727 15.2566 48.6314 15.1253C48.8301 15.0684 48.9686 15.0193 49.0406 14.9881C49.0565 14.9781 49.0805 14.9643 49.0965 14.9547C49.1453 14.9257 49.1947 14.8984 49.2446 14.873C50.3766 14.2949 51.7748 14.6185 52.5343 15.6532C52.5633 15.6926 52.5913 15.7331 52.6183 15.7746C53.4061 16.9835 53.0645 18.6031 51.8556 19.3909L51.8456 19.3969ZM34.6722 21.8484L33.5276 23.8309C32.7119 23.1647 31.8321 22.5553 30.8905 22.0116C29.9489 21.468 28.9812 21.0108 27.9964 20.6375L29.141 18.655L34.6722 21.8484ZM33.5908 46.3657C37.5991 39.423 35.2204 30.5455 28.2777 26.5371C21.335 22.5288 12.4575 24.9075 8.44912 31.8502C4.44077 38.7929 6.81951 47.6704 13.7622 51.6788C20.7049 55.6871 29.5824 53.3084 33.5908 46.3657Z" fill="#868686"/>
</g>
<defs>
<clipPath id="clip0_54919_20899">
<rect width="64" height="64" fill="white"/>
</clipPath>
</defs>
</svg>
