<svg width="64" height="64" viewBox="0 0 64 64" fill="none" xmlns="http://www.w3.org/2000/svg">
<path d="M1 13.1094C3.47806 13.1094 5.89848 14.5029 8.1943 17.2514C8.30813 17.3875 8.51568 17.4687 8.75 17.4687C8.98432 17.4687 9.19187 17.3875 9.30558 17.2515C11.6015 14.5029 14.0219 13.1094 16.5 13.1094C18.9781 13.1094 21.3985 14.5029 23.6943 17.2514C23.8081 17.3875 24.0157 17.4687 24.25 17.4687C24.4843 17.4687 24.6919 17.3875 24.8056 17.2515C27.1015 14.5029 29.5219 13.1094 32 13.1094C34.4781 13.1094 36.8985 14.5029 39.1943 17.2514C39.3081 17.3875 39.5157 17.4687 39.75 17.4687C39.9843 17.4687 40.1919 17.3875 40.3056 17.2515C42.6015 14.5029 45.0219 13.1094 47.5 13.1094C49.9781 13.1094 52.3985 14.5029 54.6943 17.2514C54.8081 17.3875 55.0157 17.4687 55.25 17.4687C55.4843 17.4687 55.6919 17.3875 55.8056 17.2515C58.1015 14.5029 60.5219 13.1094 63 13.1094L63 17.9531C62.0662 17.9531 60.799 18.8291 59.5232 20.3566C58.485 21.5995 56.9275 22.3125 55.25 22.3125C53.5725 22.3125 52.015 21.5995 50.9767 20.3565C49.701 18.8291 48.4338 17.9531 47.5 17.9531C46.5662 17.9531 45.299 18.8291 44.0232 20.3566C42.985 21.5995 41.4275 22.3125 39.75 22.3125C38.0725 22.3125 36.515 21.5995 35.4767 20.3565C34.201 18.8291 32.9338 17.9531 32 17.9531C31.0662 17.9531 29.799 18.8291 28.5232 20.3566C27.485 21.5995 25.9275 22.3125 24.25 22.3125C22.5725 22.3125 21.015 21.5995 19.9767 20.3565C18.701 18.8291 17.4338 17.9531 16.5 17.9531C15.5662 17.9531 14.299 18.8291 13.0232 20.3566C11.985 21.5995 10.4275 22.3125 8.75 22.3125C7.07249 22.3125 5.51498 21.5995 4.47672 20.3565C3.201 18.8291 1.93375 17.9531 1 17.9531L1 13.1094ZM1 5.84374C1.93376 5.84374 3.201 6.71974 4.47672 8.24709C5.51498 9.49012 7.07249 10.2031 8.75 10.2031C10.4275 10.2031 11.985 9.49012 13.0232 8.24721C14.299 6.71974 15.5662 5.84375 16.5 5.84375C17.4338 5.84375 18.701 6.71974 19.9767 8.24709C21.015 9.49012 22.5725 10.2031 24.25 10.2031C25.9275 10.2031 27.485 9.49012 28.5232 8.24722C29.799 6.71974 31.0662 5.84375 32 5.84375C32.9338 5.84375 34.201 6.71974 35.4767 8.24709C36.515 9.49012 38.0725 10.2031 39.75 10.2031C41.4275 10.2031 42.985 9.49012 44.0232 8.24722C45.299 6.71974 46.5662 5.84375 47.5 5.84375C48.4338 5.84375 49.701 6.71974 50.9767 8.2471C52.015 9.49012 53.5725 10.2031 55.25 10.2031C56.9275 10.2031 58.485 9.49013 59.5232 8.24722C60.799 6.71974 62.0662 5.84375 63 5.84375L63 1C60.5219 1 58.1015 2.39354 55.8056 5.14213C55.6919 5.27812 55.4843 5.35937 55.25 5.35937C55.0157 5.35937 54.8081 5.27812 54.6943 5.14201C52.3985 2.39354 49.9781 0.999999 47.5 0.999999C45.0219 0.999998 42.6015 2.39354 40.3056 5.14213C40.192 5.27812 39.9843 5.35937 39.75 5.35937C39.5157 5.35937 39.3081 5.27812 39.1943 5.14201C36.8985 2.39354 34.4781 0.999998 32 0.999997C29.5219 0.999997 27.1015 2.39354 24.8056 5.14213C24.692 5.27812 24.4843 5.35937 24.25 5.35937C24.0157 5.35937 23.8081 5.27812 23.6943 5.14201C21.3985 2.39354 18.9781 0.999996 16.5 0.999996C14.0219 0.999996 11.6015 2.39354 9.30558 5.14213C9.192 5.27812 8.98432 5.35937 8.75 5.35937C8.51568 5.35937 8.30813 5.27812 8.1943 5.142C5.89849 2.39354 3.47806 0.999995 1 0.999995L1 5.84374Z" fill="#868686"/>
<path fill-rule="evenodd" clip-rule="evenodd" d="M37.2418 29.3901C36.4636 29.5153 33.4637 30.6083 30.5756 31.8188L25.3244 34.0203L25.6276 31.9842C25.6276 31.9842 25.7581 31.3369 25.6442 30.5409C25.3927 28.782 22.5861 26.8638 22.5861 26.8638C22.5861 26.8638 17.7686 23.1182 16.5445 24.4702C15.3511 25.789 15.6506 26.7233 18.0981 29.3144L20.5084 31.8659L19.8171 35.0054C18.4839 41.0601 19.9582 41.717 27.6458 38.494C30.5161 37.2907 32.8694 36.5411 32.8763 36.828C32.8828 37.1147 31.7945 40.1953 30.4581 43.6737C27.736 50.7597 27.5426 52.0071 29.0039 53.0697C30.0713 53.8462 31.216 53.5443 37.0883 50.9391L40.1037 49.6014L42.5812 51.8855C45.2063 54.3055 46.6217 54.7204 47.8197 53.4209C49.1333 51.996 48.54 50.7909 44.8498 47.3889C40.9456 43.7895 40.948 43.7905 37.1232 45.3866L34.8311 46.3429L37.5211 39.2925C39.0003 35.4147 40.2307 31.8899 40.255 31.4591C40.3247 30.2057 38.7774 29.1429 37.2418 29.3901Z" fill="#F7B801"/>
</svg>
