<svg width="64" height="64" viewBox="0 0 64 64" fill="none" xmlns="http://www.w3.org/2000/svg">
<path d="M32.0006 1.8241C33.9237 1.82415 35.8284 2.20241 37.6051 2.93835C39.3819 3.67435 40.9962 4.75329 42.3561 6.11316C43.7159 7.47302 44.7949 9.08741 45.5309 10.8641C46.2669 12.641 46.6451 14.5463 46.6451 16.4696C46.6451 18.3927 46.2668 20.2974 45.5309 22.0741C44.7949 23.8509 43.716 25.4652 42.3561 26.8251C40.9962 28.185 39.3819 29.2639 37.6051 29.9999C35.8284 30.7358 33.9237 31.1141 32.0006 31.1141C28.1164 31.1141 24.3907 29.5716 21.6442 26.8251C18.8977 24.0786 17.3552 20.3536 17.3551 16.4696C17.3551 12.5854 18.8976 8.85972 21.6442 6.11316C24.3907 3.3666 28.1164 1.8241 32.0006 1.8241ZM32.0006 6.38757C30.6767 6.38757 29.3654 6.6485 28.1422 7.15515C26.919 7.66181 25.8079 8.40451 24.8717 9.3407C23.9355 10.2769 23.1928 11.388 22.6862 12.6112C22.1795 13.8344 21.9186 15.1457 21.9186 16.4696C21.9186 17.7934 22.1796 19.104 22.6862 20.327C23.1928 21.5502 23.9355 22.6623 24.8717 23.5985C25.8078 24.5345 26.9192 25.2765 28.1422 25.7831C29.3654 26.2897 30.6766 26.5507 32.0006 26.5507C34.6743 26.5505 37.2389 25.4891 39.1295 23.5985C41.0201 21.7079 42.0815 19.1433 42.0817 16.4696C42.0817 13.7959 41.0199 11.2314 39.1295 9.3407C37.2389 7.45009 34.6743 6.38769 32.0006 6.38757Z" fill="#868686" stroke="#868686" stroke-width="0.2"/>
<path d="M46.3975 36.3601C52.6131 38.4939 58 41.9855 58 46.835V63H7V46.835C7 41.9855 12.3869 38.4939 18.6344 36.3601L20.6106 40.369L21.3438 41.9855C16.5625 43.4727 13.0563 45.6065 13.0563 46.835V56.8573H26.5075L29.3125 40.466L26.3163 34.388C28.2925 34.1616 30.3644 34 32.5 34C34.6356 34 36.7075 34.1616 38.6838 34.388L35.6875 40.466L38.4925 56.8573H51.9438V46.835C51.9438 45.6065 48.4375 43.4727 43.6562 41.9855L44.3894 40.369L46.3975 36.3601Z" fill="#868686"/>
</svg>
