<svg width="64" height="64" viewBox="0 0 64 64" fill="none" xmlns="http://www.w3.org/2000/svg">
<path d="M57.2065 35.0835C57.4561 38.3032 56.6255 42.0918 55.8398 44.8174C55.5239 45.9126 54.5244 46.6255 53.439 46.6255C53.2095 46.6255 52.9766 46.5938 52.7451 46.5273C51.4185 46.1445 50.6528 44.7593 51.0352 43.4326C52.0474 39.9224 52.4551 36.8071 52.1548 34.8857C52.0601 34.2788 52.1924 33.6577 52.5259 33.1421C52.5903 33.043 59 23.0347 59 16.125C59 9.80811 53.6226 5.02539 46.4922 5C39.8076 5 34.8389 7.92725 30.8628 14.2114C30.1245 15.3784 28.5801 15.7261 27.4136 14.9878C26.2466 14.2495 25.8989 12.7051 26.6372 11.5386C27.4487 10.2563 28.3042 9.08496 29.2036 8.01953C27.6348 7.63916 26.2935 7.13281 25.0391 6.65869C22.6997 5.77393 20.6768 5.00928 17.4297 5C11.2485 5.03125 5 8.85938 5 16.125C5 23.0347 11.4097 33.043 11.4746 33.1431C11.8076 33.6587 11.9399 34.2798 11.8452 34.8857C11.4604 37.3481 12.2427 41.7163 13.8867 46.2856C15.5747 50.9771 17.8716 55.1416 20.0312 57.4258C21.208 58.6704 22.0137 58.9966 22.3379 58.9966H22.3467C22.3672 58.9941 22.3877 58.9932 22.4082 58.9917C22.4146 58.9912 22.4209 58.9897 22.4277 58.9893C22.3594 58.248 22.0835 57.0366 21.8857 56.166C21.2178 53.2314 20.3867 49.5796 21.2456 45.7593C22.2764 41.1729 25.5439 37.5874 30.957 35.103C31.6089 34.8037 32.3574 34.7988 33.0132 35.0898C38.459 37.5039 41.7441 41.0566 42.7764 45.6489C43.6348 49.4658 42.7954 53.1436 42.1216 56.0986C41.9297 56.9404 41.6372 58.2212 41.5684 58.9897C41.5825 58.9912 41.5962 58.9937 41.6104 58.9951C41.6138 58.9956 41.6172 58.9951 41.6211 58.9956C42.1099 59.0312 43.8687 58.2358 46.374 54.1851C47.1006 53.0107 48.6416 52.6479 49.8154 53.374C50.9897 54.1006 51.3525 55.6411 50.6265 56.8154C47.6758 61.585 44.665 63.9976 41.6689 63.9976C41.5273 63.9976 41.3862 63.9907 41.2446 63.98C39.6074 63.9521 38.353 63.4092 37.5171 62.3608C35.999 60.457 36.5771 57.9224 37.2466 54.9868C38.416 49.8613 39.7349 44.0796 32.0176 40.1499C24.29 44.2012 25.6001 49.9556 26.7607 55.0566C27.4214 57.9604 27.9922 60.4678 26.481 62.3613C25.6445 63.4092 24.3867 63.9526 22.7427 63.98C22.6045 63.9902 22.4658 63.9971 22.3271 63.9971C20.3589 63.9971 18.3672 62.9443 16.3979 60.8608C13.75 58.0601 11.1201 53.3647 9.18213 47.9785C7.39551 43.0137 6.54639 38.3936 6.79443 35.0854C5.15918 32.3955 0 23.3389 0 16.125C0 7.00879 7.42871 0.0981445 17.3013 0.000976562C17.3237 0.000488281 17.3462 0 17.3691 0H17.4438C17.4551 0 17.4668 0 17.4785 0.000488281C21.6138 0.0185548 24.3716 1.06104 26.8071 1.98145C29.0542 2.83105 31.0088 3.56689 34.0273 3.62012C37.6104 1.19385 41.7461 0 46.501 0C51.1455 0.0166015 55.4736 1.5752 58.6963 4.38818C62.1167 7.37402 64 11.542 64 16.125C64 23.3364 58.8438 32.3906 57.2065 35.0835Z" fill="#3B86C8"/>
<path d="M52.0733 11.896C53.315 12.9873 53.9449 14.4102 53.9449 16.125C53.9449 17.5059 52.8257 18.625 51.4449 18.625C50.064 18.625 48.9449 17.5059 48.9449 16.125C48.9449 15.8032 48.9082 15.771 48.772 15.6514C48.4092 15.332 47.6138 14.9893 46.4703 14.9824C45.0894 14.9741 43.9766 13.8481 43.9849 12.4673C43.9932 11.0918 45.1109 9.98242 46.4849 9.98242H46.5C48.7051 9.99561 50.6841 10.6753 52.0733 11.896Z" fill="#868686"/>
</svg>
