<svg width="64" height="64" viewBox="0 0 64 64" fill="none" xmlns="http://www.w3.org/2000/svg">
<path d="M53.4954 52.6539C55.577 50.962 57.1658 48.7226 58.0903 46.1774C59.0148 43.6322 59.24 40.8779 58.7414 38.2118L54.3306 14.2265C53.6983 10.7903 51.9079 7.68759 49.2692 5.45494C46.6306 3.22229 43.3095 2.00018 39.8806 2H24.1161C20.6877 2.00088 17.3673 3.22331 14.7292 5.4559C12.0912 7.68849 10.3013 10.7909 9.66905 14.2265L5.25819 38.2118C4.75999 40.8782 4.98559 43.6326 5.91064 46.1779C6.83569 48.7231 8.42505 50.9623 10.5071 52.6539L6.39619 56.8453C6.11534 57.1219 5.89132 57.4527 5.7372 57.8185C5.58309 58.1843 5.50197 58.5777 5.49858 58.9758C5.49518 59.3739 5.56959 59.7687 5.71744 60.1371C5.8653 60.5056 6.08364 60.8404 6.35974 61.1219C6.63584 61.4034 6.96416 61.626 7.32555 61.7767C7.68693 61.9275 8.07415 62.0033 8.4646 61.9999C8.85504 61.9964 9.24091 61.9137 9.59967 61.7566C9.95843 61.5995 10.2829 61.3711 10.5542 61.0847L16.0531 55.4781C17.2446 55.7961 18.4706 55.9602 19.7023 55.9668H44.2914C45.525 55.9617 46.753 55.7985 47.9466 55.4811L53.4425 61.0847C53.9971 61.6308 54.7399 61.933 55.5109 61.9262C56.2819 61.9194 57.0195 61.6041 57.5647 61.0482C58.1099 60.4923 58.4191 59.7403 58.4258 58.9542C58.4325 58.1681 58.1361 57.4108 57.6005 56.8453L53.4954 52.6539ZM15.4443 15.3328C15.8248 13.2707 16.9 11.409 18.4839 10.0694C20.0679 8.72976 22.0611 7.99649 24.1191 7.99632H39.8864C41.9434 7.99789 43.9352 8.73179 45.518 10.0713C47.1007 11.4108 48.175 13.2717 48.5553 15.3328L49.5756 20.8794C47.3803 23.427 44.6773 25.4679 41.647 26.8661C38.6167 28.2642 35.3289 28.9874 32.0027 28.9874C28.6766 28.9874 25.3888 28.2642 22.3585 26.8661C19.3282 25.4679 16.6252 23.427 14.4299 20.8794L15.4443 15.3328ZM51.0753 46.7205C50.2496 47.7381 49.2136 48.557 48.0414 49.1189C46.8692 49.6807 45.5897 49.9715 44.2944 49.9705H19.7052C18.4091 49.9703 17.129 49.6788 15.9559 49.1169C14.7828 48.555 13.7455 47.7364 12.9179 46.7194C12.0903 45.7024 11.4926 44.5119 11.1674 43.2327C10.8422 41.9535 10.7975 40.6169 11.0364 39.3181L13.1272 27.9491C18.4072 32.49 25.0922 34.9808 31.9998 34.9808C38.9074 34.9808 45.5924 32.49 50.8724 27.9491L52.9602 39.3181C53.2013 40.6171 53.1576 41.9544 52.8323 43.2342C52.5069 44.5139 51.9079 45.7045 51.0783 46.7205H51.0753Z" fill="#868686"/>
<path fill-rule="evenodd" clip-rule="evenodd" d="M22.6048 35.4187C21.9375 35.1423 21.2223 35 20.5 35C19.0413 35 17.6424 35.5795 16.6109 36.6109C15.5795 37.6424 15 39.0413 15 40.5C15 41.9587 15.5795 43.3576 16.6109 44.3891C17.6424 45.4205 19.0413 46 20.5 46C21.2223 46 21.9375 45.8577 22.6048 45.5813C23.272 45.3049 23.8784 44.8998 24.3891 44.3891C24.8998 43.8784 25.3049 43.2721 25.5813 42.6048C25.8577 41.9375 26 41.2223 26 40.5C26 39.7777 25.8577 39.0625 25.5813 38.3952C25.3049 37.7279 24.8998 37.1216 24.3891 36.6109C23.8784 36.1002 23.272 35.6951 22.6048 35.4187ZM19.6772 38.5137C19.9381 38.4056 20.2177 38.35 20.5 38.35C21.0702 38.35 21.6171 38.5765 22.0203 38.9797C22.4235 39.3829 22.65 39.9298 22.65 40.5C22.65 41.0702 22.4235 41.6171 22.0203 42.0203C21.6171 42.4235 21.0702 42.65 20.5 42.65C20.2177 42.65 19.9381 42.5944 19.6772 42.4863C19.4164 42.3783 19.1794 42.2199 18.9797 42.0203C18.7801 41.8206 18.6217 41.5836 18.5137 41.3228C18.4056 41.0619 18.35 40.7823 18.35 40.5C18.35 40.2177 18.4056 39.9381 18.5137 39.6772C18.6217 39.4164 18.7801 39.1794 18.9797 38.9797C19.1794 38.7801 19.4164 38.6217 19.6772 38.5137Z" fill="#FE7333"/>
<path fill-rule="evenodd" clip-rule="evenodd" d="M45.6048 35.4187C44.9375 35.1423 44.2223 35 43.5 35C42.0413 35 40.6424 35.5795 39.6109 36.6109C38.5795 37.6424 38 39.0413 38 40.5C38 41.9587 38.5795 43.3576 39.6109 44.3891C40.6424 45.4205 42.0413 46 43.5 46C44.2223 46 44.9375 45.8577 45.6048 45.5813C46.272 45.3049 46.8784 44.8998 47.3891 44.3891C47.8998 43.8784 48.3049 43.2721 48.5813 42.6048C48.8577 41.9375 49 41.2223 49 40.5C49 39.7777 48.8577 39.0625 48.5813 38.3952C48.3049 37.7279 47.8998 37.1216 47.3891 36.6109C46.8784 36.1002 46.272 35.6951 45.6048 35.4187ZM42.6772 38.5137C42.9381 38.4056 43.2177 38.35 43.5 38.35C44.0702 38.35 44.6171 38.5765 45.0203 38.9797C45.4235 39.3829 45.65 39.9298 45.65 40.5C45.65 41.0702 45.4235 41.6171 45.0203 42.0203C44.6171 42.4235 44.0702 42.65 43.5 42.65C43.2177 42.65 42.9381 42.5944 42.6772 42.4863C42.4164 42.3783 42.1794 42.2199 41.9797 42.0203C41.7801 41.8206 41.6217 41.5836 41.5137 41.3228C41.4056 41.0619 41.35 40.7823 41.35 40.5C41.35 40.2177 41.4056 39.9381 41.5137 39.6772C41.6217 39.4164 41.7801 39.1794 41.9797 38.9797C42.1794 38.7801 42.4164 38.6217 42.6772 38.5137Z" fill="#FE7333"/>
</svg>
