<svg width="64" height="64" viewBox="0 0 64 64" fill="none" xmlns="http://www.w3.org/2000/svg">
<path fill-rule="evenodd" clip-rule="evenodd" d="M12 5.0117L17.8833 2H46.1167L52 5.0117L49.6472 10L44.7723 7.50585H19.2277L14.3555 10L12 5.0117ZM29 11C29 9.89543 29.8954 9 31 9H34C35.1046 9 36 9.89543 36 11V12H39.0671C41.9246 12.0001 44.6921 13.0186 46.891 14.8791C49.0899 16.7397 50.5819 19.3253 51.1088 22.1887L54.7845 42.1765C55.2 44.3982 55.0123 46.6935 54.2419 48.8145C53.4715 50.9355 52.1475 52.8017 50.4129 54.2116L53.8337 57.7044C54.2801 58.1756 54.5271 58.8067 54.5215 59.4618C54.5159 60.1169 54.2582 60.7436 53.8039 61.2068C53.3495 61.67 52.7349 61.9328 52.0924 61.9385C51.4499 61.9442 50.8309 61.6924 50.3688 61.2372L45.7888 56.5676C44.7941 56.8321 43.7708 56.9681 42.7429 56.9724H22.2519C21.2255 56.9669 20.2039 56.83 19.2109 56.5651L14.6285 61.2372C14.4024 61.4759 14.132 61.6662 13.8331 61.7972C13.5341 61.9281 13.2125 61.997 12.8872 61.9999C12.5618 62.0028 12.2391 61.9396 11.938 61.8139C11.6368 61.6883 11.3632 61.5028 11.1331 61.2682C10.903 61.0336 10.7211 60.7547 10.5979 60.4476C10.4747 60.1406 10.4127 59.8116 10.4155 59.4798C10.4183 59.1481 10.4859 58.8202 10.6143 58.5154C10.7428 58.2106 10.9294 57.9349 11.1635 57.7044L14.5893 54.2116C12.8542 52.802 11.5297 50.9359 10.7589 48.8149C9.98799 46.6939 9.79999 44.3985 10.2152 42.1765L13.8909 22.1887C14.4177 19.3257 15.9093 16.7404 18.1077 14.8799C20.3061 13.0194 23.0731 12.0007 25.9301 12H29V11ZM18.7036 23.1107C19.0207 21.3923 19.9166 19.8408 21.2366 18.7245C22.5566 17.6081 24.2176 16.9971 25.9325 16.9969H39.072C40.7862 16.9982 42.446 17.6098 43.765 18.7261C45.0839 19.8423 45.9791 21.3931 46.2961 23.1107L47.1464 27.7328C45.3169 29.8558 43.0644 31.5566 40.5392 32.7217C38.0139 33.8869 35.274 34.4895 32.5023 34.4895C29.7305 34.4895 26.9906 33.8869 24.4654 32.7217C21.9402 31.5566 19.6877 29.8558 17.8582 27.7328L18.7036 23.1107ZM48.3961 49.2671C47.708 50.1151 46.8447 50.7975 45.8678 51.2657C44.891 51.7339 43.8247 51.9763 42.7453 51.9754H22.2544C21.1743 51.9752 20.1075 51.7323 19.1299 51.2641C18.1523 50.7958 17.2879 50.1137 16.5982 49.2662C15.9086 48.4187 15.4105 47.4266 15.1395 46.3606C14.8685 45.2946 14.8313 44.1808 15.0304 43.0984L16.7726 33.6242C21.1727 37.4084 26.7435 39.484 32.4998 39.484C38.2562 39.484 43.827 37.4084 48.227 33.6242L49.9669 43.0984C50.1678 44.1809 50.1314 45.2953 49.8602 46.3618C49.5891 47.4283 49.0899 48.4204 48.3986 49.2671H48.3961Z" fill="#868686"/>
<path fill-rule="evenodd" clip-rule="evenodd" d="M23.9337 40.3817C23.3253 40.1297 22.6732 40 22.0147 40C20.6847 40 19.4092 40.5283 18.4688 41.4688C17.5283 42.4092 17 43.6847 17 45.0147C17 46.3447 17.5283 47.6202 18.4688 48.5606C19.4092 49.5011 20.6847 50.0294 22.0147 50.0294C22.6732 50.0294 23.3253 49.8997 23.9337 49.6477C24.5422 49.3957 25.095 49.0263 25.5606 48.5606C26.0263 48.095 26.3957 47.5422 26.6477 46.9338C26.8997 46.3253 27.0294 45.6732 27.0294 45.0147C27.0294 44.3562 26.8997 43.7041 26.6477 43.0957C26.3957 42.4872 26.0263 41.9344 25.5606 41.4688C25.095 41.0031 24.5422 40.6337 23.9337 40.3817ZM21.2645 43.2036C21.5024 43.1051 21.7573 43.0544 22.0147 43.0544C22.5346 43.0544 23.0332 43.2609 23.4008 43.6286C23.7685 43.9962 23.975 44.4948 23.975 45.0147C23.975 45.5346 23.7685 46.0332 23.4008 46.4008C23.0332 46.7685 22.5346 46.975 22.0147 46.975C21.7573 46.975 21.5024 46.9243 21.2645 46.8258C21.0267 46.7273 20.8106 46.5829 20.6286 46.4008C20.4465 46.2188 20.3021 46.0027 20.2036 45.7649C20.1051 45.527 20.0544 45.2721 20.0544 45.0147C20.0544 44.7573 20.1051 44.5024 20.2036 44.2645C20.3021 44.0267 20.4465 43.8106 20.6286 43.6286C20.8106 43.4465 21.0267 43.3021 21.2645 43.2036Z" fill="#FE7333"/>
<path fill-rule="evenodd" clip-rule="evenodd" d="M44.9337 40.3817C44.3253 40.1297 43.6732 40 43.0147 40C41.6847 40 40.4092 40.5283 39.4688 41.4688C38.5283 42.4092 38 43.6847 38 45.0147C38 46.3447 38.5283 47.6202 39.4688 48.5606C40.4092 49.5011 41.6847 50.0294 43.0147 50.0294C43.6732 50.0294 44.3253 49.8997 44.9337 49.6477C45.5422 49.3957 46.095 49.0263 46.5606 48.5606C47.0263 48.095 47.3957 47.5422 47.6477 46.9338C47.8997 46.3253 48.0294 45.6732 48.0294 45.0147C48.0294 44.3562 47.8997 43.7041 47.6477 43.0957C47.3957 42.4872 47.0263 41.9344 46.5606 41.4688C46.095 41.0031 45.5422 40.6337 44.9337 40.3817ZM42.2645 43.2036C42.5024 43.1051 42.7573 43.0544 43.0147 43.0544C43.5346 43.0544 44.0332 43.2609 44.4008 43.6286C44.7685 43.9962 44.975 44.4948 44.975 45.0147C44.975 45.5346 44.7685 46.0332 44.4008 46.4008C44.0332 46.7685 43.5346 46.975 43.0147 46.975C42.7573 46.975 42.5024 46.9243 42.2645 46.8258C42.0267 46.7273 41.8106 46.5829 41.6286 46.4008C41.4465 46.2188 41.3021 46.0027 41.2036 45.7649C41.1051 45.527 41.0544 45.2721 41.0544 45.0147C41.0544 44.7573 41.1051 44.5024 41.2036 44.2645C41.3021 44.0267 41.4465 43.8106 41.6286 43.6286C41.8106 43.4465 42.0267 43.3021 42.2645 43.2036Z" fill="#FE7333"/>
</svg>
