<svg width="64" height="64" viewBox="0 0 64 64" fill="none" xmlns="http://www.w3.org/2000/svg">
<g clip-path="url(#clip0_2_3466)">
<path d="M23.776 63.248C24.7446 62.2645 24.7325 60.6819 23.7489 59.7133L18.7976 54.8371C17.4568 53.4935 16.6395 51.7105 16.4961 49.8158C16.4028 48.583 15.422 47.6036 14.189 47.512C12.2899 47.3709 10.5032 46.5533 9.15649 45.2096L4.28031 40.2583C3.31164 39.2748 1.72912 39.2628 0.745581 40.2313C-0.237828 41.1998 -0.249951 42.7824 0.718587 43.7659L5.60227 48.7248C5.60677 48.7293 5.61127 48.7338 5.61564 48.7383C7.33027 50.4528 9.48379 51.6427 11.8208 52.1906C12.3707 54.5207 13.559 56.6682 15.2689 58.3779C15.2734 58.3824 15.2778 58.3869 15.2824 58.3913L20.2413 63.275C20.7282 63.7544 21.3617 63.9936 21.9949 63.9936C22.6412 63.9936 23.2869 63.7446 23.776 63.248Z" fill="#868686"/>
<path d="M57.7381 57.1193C57.6604 57.1193 57.5828 57.1177 57.505 57.1143C55.9672 57.0483 54.5161 56.4077 53.4188 55.3104L38.5899 40.3955C38.0685 39.9072 37.3518 39.9072 36.8277 40.4006L25.6419 51.6479C23.2095 53.9059 19.8535 50.5647 22.0975 48.1228L33.2881 36.8706C35.6191 34.4409 39.8 34.4401 42.1298 36.8659L56.9584 51.7808C57.1693 51.9917 57.427 52.1075 57.7196 52.12C57.8696 52.1251 58.1308 52.0529 58.3695 51.8243C59.4014 50.8247 59.0453 47.7966 58.1683 46.3029L45.1816 27.4617C44.4956 26.4663 44.6202 25.1225 45.4777 24.2704L56.9371 12.8814C58.3147 11.5038 58.9871 9.98411 58.9871 8.24049C58.9871 5.354 57.1505 5.0202 55.769 5.0202C54.0148 5.0202 52.4897 5.69242 51.1068 7.07537L39.7232 18.5294C38.8711 19.3868 37.5275 19.5116 36.5319 18.8254L17.6905 5.83889C16.2007 4.96333 13.1701 4.60454 12.1691 5.63769C11.9406 5.87626 11.867 6.13683 11.8735 6.28742C11.8861 6.57998 12.002 6.8378 12.2181 7.05388L27.1227 21.8721C29.5529 24.2035 29.5536 28.3841 27.1278 30.7142C27.1233 30.7187 27.1188 30.7232 27.1143 30.7276L15.7508 41.9181C14.7673 42.8867 13.1847 42.8747 12.2162 41.891C11.2475 40.9075 11.2598 39.3249 12.2433 38.3564L23.5983 27.1741C24.0865 26.6482 24.0867 25.9377 23.5931 25.4119L8.68821 10.5937C7.58583 9.49109 6.94522 8.03991 6.87911 6.50212C6.812 4.93996 7.42424 3.36456 8.55911 2.17982C10.8872 -0.413864 16.1764 -0.762913 20.2616 1.55021C20.3212 1.58432 20.3791 1.62094 20.4358 1.65993L37.6495 13.5246L47.5666 3.54614C51.3361 -0.512967 58.4974 -1.27518 61.8597 2.40114C65.403 6.21956 64.2557 12.8402 60.4665 16.4216L50.4827 26.344L62.3473 43.5578C62.3863 43.6143 62.4228 43.6724 62.4571 43.732C64.7701 47.8102 64.4196 53.113 61.8275 55.4343C60.7017 56.5127 59.223 57.1193 57.7381 57.1193Z" fill="#43B02A"/>
</g>
<defs>
<clipPath id="clip0_2_3466">
<rect width="64" height="64" fill="white"/>
</clipPath>
</defs>
</svg>
