<svg width="64" height="64" viewBox="0 0 64 64" fill="none" xmlns="http://www.w3.org/2000/svg">
<g clip-path="url(#clip0_1918_11136)">
<path fill-rule="evenodd" clip-rule="evenodd" d="M35.858 50.4902V57.8325H32.109C31.7688 57.834 31.4322 57.9025 31.1186 58.034C30.8049 58.1655 30.5204 58.3574 30.2813 58.5988C29.9199 58.9594 29.6739 59.4187 29.5742 59.9188C29.4746 60.4188 29.5258 60.937 29.7214 61.408C29.917 61.879 30.2482 62.2816 30.6732 62.565C31.0981 62.8483 31.5978 62.9997 32.109 63H43.8648C44.5534 63 45.2137 62.7272 45.7006 62.2417C46.1875 61.7562 46.4611 61.0977 46.4611 60.4111C46.4611 59.7244 46.1875 59.0659 45.7006 58.5804C45.2137 58.0949 44.5534 57.8221 43.8648 57.8221H40.5105V50.4902H35.858Z" fill="#43B02A"/>
<path fill-rule="evenodd" clip-rule="evenodd" d="M42.2863 39.6788C43.5306 37.2714 44.2459 34.6271 44.3846 31.9223C44.5233 29.2175 44.0822 26.5142 43.0906 23.9928C42.099 21.4714 40.5798 19.1897 38.6343 17.2999C36.6888 15.4102 34.3616 13.9556 31.8079 13.0334C30.8151 10.2355 29.0021 7.79959 26.604 6.04167C24.206 4.28375 21.3336 3.28491 18.3594 3.17472C17.0544 1.99272 15.4062 1.25531 13.6532 1.06915C11.9002 0.88298 10.1332 1.25771 8.60788 2.13914C7.08345 3.02468 5.88128 4.37115 5.17551 5.98352C4.46975 7.59589 4.29703 9.39044 4.68237 11.1072C3.29928 13.7414 2.74101 16.7289 3.07984 19.683C3.41867 22.6371 4.63899 25.4218 6.58282 27.6765C5.99965 31.0456 6.33779 34.5092 7.56165 37.7028C8.78551 40.8965 10.8499 43.7023 13.5376 45.825C16.2253 47.9477 19.437 49.3089 22.8348 49.7654C26.2327 50.2219 29.6912 49.7568 32.8464 48.4191L36.8757 46.089C39.1378 44.3831 40.9868 42.1925 42.2863 39.6788ZM20.0002 18.3666C19.7001 18.2806 19.3858 18.2559 19.0759 18.2941C18.7688 18.3325 18.4723 18.431 18.2036 18.5841C17.9346 18.7458 17.6986 18.9566 17.5078 19.2055C17.321 19.4519 17.1868 19.7338 17.1132 20.0339C17.0459 20.341 17.0459 20.6589 17.1132 20.9659C17.1595 21.2748 17.2691 21.5709 17.4351 21.8358L19.1382 24.7976H19.024C18.7347 24.6943 18.427 24.652 18.1205 24.6733C17.8095 24.69 17.5053 24.7711 17.2274 24.9115C16.9507 25.0486 16.7037 25.2386 16.5005 25.4707C16.2982 25.703 16.1462 25.9745 16.0539 26.2681C15.9536 26.5608 15.9147 26.871 15.9397 27.1794C15.9687 27.4867 16.0568 27.7856 16.1993 28.0596C16.3381 28.3346 16.5326 28.5779 16.7705 28.7742C17.0079 28.9727 17.2836 29.1207 17.5805 29.2091L22.6484 30.8764L30.3021 44.0386C28.5395 44.7031 26.6597 45.0026 24.7773 44.9188C22.7788 44.8311 20.8222 44.3191 19.0379 43.4172C17.2537 42.5152 15.683 41.244 14.4308 39.6885C13.1785 38.1329 12.2735 36.3288 11.7762 34.3967C11.2789 32.4646 11.2007 30.4489 11.5468 28.4842L11.9622 26.1438L10.4149 24.3316C10.0274 23.8681 9.67995 23.3727 9.37637 22.8507C8.54466 21.4239 8.09079 19.8095 8.05748 18.1595C8.00784 16.507 8.38702 14.8697 9.15829 13.4062L9.99947 11.77L9.59446 9.97846C9.43759 9.3048 9.50235 8.59868 9.77915 7.96457C10.056 7.33046 10.5301 6.80204 11.1314 6.4575C11.7289 6.10509 12.4251 5.95606 13.115 6.03291C13.8042 6.11195 14.451 6.40544 14.9635 6.87173L16.3239 8.11442L18.1724 8.18691C19.829 8.24975 21.4427 8.73004 22.8628 9.58297C24.2829 10.4359 25.4631 11.6337 26.2935 13.0645C26.5964 13.5889 26.8501 14.1401 27.0516 14.711L27.8512 16.9582L30.1048 17.7556C32.4353 18.5889 34.5032 20.0224 36.0986 21.9104C37.6939 23.7984 38.7598 26.0738 39.188 28.5055C39.6162 30.9372 39.3915 33.4385 38.5367 35.7556C37.6819 38.0727 36.2275 40.1229 34.321 41.6982L31.4756 36.8103L32.8464 30.079C32.9034 29.7814 32.9034 29.4757 32.8464 29.1781C32.7849 28.8766 32.6688 28.5888 32.5037 28.3289C32.3325 28.0755 32.1139 27.8575 31.8598 27.6868C31.6094 27.515 31.3268 27.3953 31.029 27.3347C30.7291 27.2708 30.4194 27.2671 30.118 27.324C29.8166 27.3809 29.5297 27.4972 29.274 27.6661C29.0174 27.8338 28.7982 28.0523 28.6301 28.3082C28.456 28.5569 28.3358 28.839 28.277 29.1366L27.9447 30.7625L21.4229 19.5058C21.2725 19.2325 21.0717 18.9901 20.831 18.7912C20.5855 18.5954 20.3029 18.451 20.0002 18.3666Z" fill="#43B02A"/>
<path fill-rule="evenodd" clip-rule="evenodd" d="M40.3651 49.3511C40.254 49.0609 40.0844 48.7965 39.8666 48.5744C39.649 48.3482 39.3876 48.1685 39.0981 48.0463C38.8133 47.9221 38.5055 47.8586 38.1946 47.8599C37.8805 47.8595 37.5695 47.923 37.2808 48.0463C36.9958 48.1711 36.7383 48.3506 36.5227 48.5744C36.3057 48.7977 36.136 49.0622 36.0236 49.3521C35.9113 49.6421 35.8585 49.9517 35.8684 50.2624V52.3335H40.5209V50.2624C40.5316 49.9512 40.4786 49.6411 40.3651 49.3511Z" fill="#43B02A"/>
<path fill-rule="evenodd" clip-rule="evenodd" d="M53.3982 27.1483C56.0012 24.8252 58.4699 22.3565 60.7923 19.7543C60.9998 19.2796 61.0573 18.7531 60.9571 18.245C60.857 17.7369 60.6039 17.2713 60.2317 16.9103C59.8595 16.5492 59.3857 16.3098 58.8736 16.2241C58.3615 16.1383 57.8354 16.2101 57.3653 16.4301C54.7903 18.6902 52.3622 21.1114 50.0958 23.6791C49.8159 24.3843 49.8159 25.1694 50.0958 25.8746C50.2346 26.1768 50.4317 26.4487 50.6761 26.6748C50.9204 26.9008 51.207 27.0766 51.5196 27.1921C51.8321 27.3075 52.1645 27.3603 52.4975 27.3475C52.8306 27.3346 53.1578 27.2564 53.4605 27.1173L53.3982 27.1483ZM47.6865 18.3977C49.7208 16.6116 51.6292 14.6878 53.3982 12.6399C53.6024 12.2778 53.7126 11.8706 53.7191 11.4552C53.7255 11.0399 53.6278 10.6295 53.4349 10.2613C53.2421 9.89309 52.9601 9.57872 52.6146 9.34668C52.269 9.11465 51.8709 8.97229 51.4562 8.93252C50.2931 8.83932 50.1062 8.93252 47.4372 11.6457C44.7683 14.3589 44.3944 14.7525 44.2075 15.4774C44.0994 15.9875 44.1465 16.5182 44.3426 17.0015C44.5387 17.4849 44.8749 17.8989 45.3083 18.1906C45.6704 18.3826 46.0677 18.4999 46.4763 18.5355C46.8848 18.5711 47.2964 18.5242 47.6865 18.3977ZM39.1812 12.7331C41.5664 10.6621 43.8404 8.46708 45.9937 6.15717C46.3998 5.75513 46.6506 5.22309 46.7018 4.65477C46.7531 4.08646 46.6017 3.51832 46.2741 3.05044C46.0813 2.72348 45.811 2.44866 45.4869 2.25006C45.1628 2.05147 44.7948 1.93515 44.4152 1.9113C43.2313 1.80775 43.034 1.9113 39.7627 5.12159C36.4915 8.33188 35.858 9.05679 35.6607 9.79205C35.5429 10.3068 35.5852 10.8452 35.7819 11.3354C35.9785 11.8256 36.3202 12.2445 36.7615 12.5363C37.129 12.7348 37.534 12.8547 37.9506 12.8886C38.3672 12.9225 38.7863 12.8695 39.1812 12.7331Z" fill="#868686"/>
</g>
<defs>
<clipPath id="clip0_1918_11136">
<rect width="58" height="62" fill="white" transform="translate(3 1)"/>
</clipPath>
</defs>
</svg>
