<svg width="64" height="64" viewBox="0 0 64 64" fill="none" xmlns="http://www.w3.org/2000/svg">
<path d="M45.8047 42.1406V59.5781C45.8047 60.9157 44.7204 62 43.3828 62C42.0452 62 40.961 60.9157 40.961 59.5781V42.1406C40.961 40.803 42.0452 39.7188 43.3828 39.7188C44.7204 39.7188 45.8047 40.803 45.8047 42.1406ZM48.2266 14.5312C52.2328 14.5312 55.4922 11.2719 55.4922 7.26562C55.4922 3.25936 52.2328 0 48.2266 0C44.2203 0 40.961 3.25936 40.961 7.26562C40.961 11.2719 44.2203 14.5312 48.2266 14.5312ZM48.2266 4.84375C49.562 4.84375 50.6485 5.9302 50.6485 7.26562C50.6485 8.60105 49.562 9.6875 48.2266 9.6875C46.8912 9.6875 45.8047 8.60105 45.8047 7.26562C45.8047 5.9302 46.8912 4.84375 48.2266 4.84375Z" fill="#868686"/>
<path d="M60.336 24.0977V37.2969C60.336 40.4544 58.3114 43.1479 55.4922 44.1475V59.5781C55.4922 60.9157 54.4079 62 53.0703 62C51.7327 62 50.6485 60.9157 50.6485 59.5781V42.1406C50.6485 40.803 51.7327 39.7188 53.0703 39.7188C54.4057 39.7188 55.4922 38.6323 55.4922 37.2969V24.0977C55.4922 22.7622 54.4057 21.6758 53.0703 21.6758H43.4298C41.7877 21.6758 40.3445 22.7838 39.9203 24.3701L36.4934 36.8759C36.0252 38.5846 33.9568 39.2502 32.5799 38.1353C31.8186 37.5189 31.4965 36.509 31.7603 35.5657L35.2408 23.1191C36.2219 19.4502 39.5385 16.8779 43.328 16.8326C43.3461 16.8323 43.3645 16.832 43.3828 16.832H53.0703C57.0766 16.832 60.336 20.0914 60.336 24.0977Z" fill="#868686"/>
<path fill-rule="evenodd" clip-rule="evenodd" d="M14.5625 26.5195C18.5688 26.5195 21.8281 23.2602 21.8281 19.2539C21.8281 15.2476 18.5688 11.9883 14.5625 11.9883C10.5562 11.9883 7.29688 15.2476 7.29688 19.2539C7.29688 23.2602 10.5562 26.5195 14.5625 26.5195ZM16.9844 19.2539C16.9844 17.9185 15.8979 16.832 14.5625 16.832C13.2271 16.832 12.1406 17.9185 12.1406 19.2539C12.1406 20.5893 13.2271 21.6758 14.5625 21.6758C15.8979 21.6758 16.9844 20.5893 16.9844 19.2539Z" fill="#43B02A"/>
<path d="M21.8281 47.5898V59.5781C21.8281 60.9157 20.7439 62 19.4062 62C18.0686 62 16.9844 60.9157 16.9844 59.5781V47.5898C16.9844 46.2522 18.0686 45.168 19.4062 45.168C20.7439 45.168 21.8281 46.2522 21.8281 47.5898Z" fill="#43B02A"/>
<path d="M29.084 42.6479L19.4403 34.4676L19.4307 34.46C18.789 33.9467 17.983 33.6639 17.1613 33.6639H10.9297C9.59427 33.6639 8.50781 34.7504 8.50781 36.0858V43.9569C8.50781 44.6246 9.05104 45.1678 9.71875 45.1678C11.0564 45.1678 12.1406 46.2521 12.1406 47.5897V59.578C12.1406 60.9156 11.0564 61.9999 9.71875 61.9999C8.38115 61.9999 7.29688 60.9156 7.29688 59.578V49.506C5.16018 48.5701 3.66406 46.4351 3.66406 43.957V36.0859C3.66406 32.0797 6.92342 28.8203 10.9297 28.8203H17.1613C19.0764 28.8203 20.9548 29.4785 22.4513 30.6735L32.2155 38.9562C33.2106 39.8003 33.3575 41.2814 32.5474 42.3045C31.6977 43.3777 30.1278 43.5333 29.084 42.6479Z" fill="#43B02A"/>
</svg>
