<svg width="64" height="64" viewBox="0 0 64 64" fill="none" xmlns="http://www.w3.org/2000/svg">
<path d="M46.8672 53.3125C46.8672 58.6543 42.5215 63 37.1797 63H13.6875C8.34566 63 4 58.6543 4 53.3125V10.6875C4 5.34566 8.34566 1 13.6875 1H37.1797C42.5215 1 46.8672 5.34566 46.8672 10.6875C46.8672 12.0252 45.783 13.1094 44.4453 13.1094C43.1076 13.1094 42.0234 12.0252 42.0234 10.6875C42.0234 8.01682 39.8504 5.84375 37.1797 5.84375H13.6875C11.0168 5.84375 8.84375 8.01682 8.84375 10.6875V53.3125C8.84375 55.9832 11.0168 58.1562 13.6875 58.1562H37.1797C39.8504 58.1562 42.0234 55.9832 42.0234 53.3125C42.0234 51.9748 43.1076 50.8906 44.4453 50.8906C45.783 50.8906 46.8672 51.9748 46.8672 53.3125ZM23.0117 51.9951C23.0117 53.3328 24.0959 54.417 25.4336 54.417C26.7713 54.417 27.8555 53.3328 27.8555 51.9951C27.8555 50.6574 26.7713 49.5733 25.4336 49.5733C24.0959 49.5733 23.0117 50.6574 23.0117 51.9951ZM30.2773 12.0342C30.2773 10.6965 29.1932 9.61232 27.8555 9.61232H23.0117C21.674 9.61232 20.5898 10.6965 20.5898 12.0342C20.5898 13.3719 21.674 14.4561 23.0117 14.4561H27.8555C29.1932 14.4561 30.2773 13.3719 30.2773 12.0342Z" fill="#868686"/>
<path d="M58.9094 40.9646C58.8979 40.9069 58.8842 40.8512 58.8674 40.7955C58.1502 37.5875 56.3857 34.7093 53.8521 32.6149C52.8781 31.811 51.8038 31.1369 50.6563 30.6094C51.6981 29.4263 52.3765 27.9678 52.6102 26.4088C52.8439 24.8498 52.6229 23.2565 51.9737 21.8199C51.3245 20.3834 50.2748 19.1645 48.9503 18.3096C47.6259 17.4547 46.0829 17 44.5065 17C42.9301 17 41.3871 17.4547 40.0626 18.3096C38.7382 19.1645 37.6884 20.3834 37.0392 21.8199C36.3901 23.2565 36.1691 24.8498 36.4028 26.4088C36.6364 27.9678 37.3148 29.4263 38.3566 30.6094C37.2064 31.1367 36.1294 31.8108 35.1524 32.6149C32.5641 34.7525 30.7793 37.7064 30.0909 40.992C29.9609 41.61 29.9704 42.2493 30.1188 42.8632C30.2671 43.4771 30.5505 44.0502 30.9483 44.5408C31.3462 45.0313 31.8484 45.4269 32.4185 45.6988C32.9886 45.9706 33.6121 46.1119 34.2437 46.1123H54.7608C55.3886 46.1128 56.0085 45.9726 56.5749 45.7021C57.1414 45.4316 57.6401 45.0376 58.0343 44.5491C58.4382 44.0547 58.7264 43.4762 58.8779 42.856C59.0293 42.2358 59.0401 41.5896 58.9094 40.9646ZM44.5023 21.2144C45.2918 21.2144 46.0637 21.4486 46.7201 21.8872C47.3766 22.3259 47.8883 22.9493 48.1905 23.6788C48.4926 24.4083 48.5717 25.2109 48.4176 25.9853C48.2636 26.7597 47.8834 27.471 47.3251 28.0293C46.7668 28.5876 46.0555 28.9678 45.2811 29.1219C44.5067 29.2759 43.704 29.1968 42.9746 28.8947C42.2451 28.5925 41.6216 28.0809 41.183 27.4244C40.7443 26.7679 40.5102 25.9961 40.5102 25.2065C40.5102 24.1477 40.9308 23.1323 41.6795 22.3837C42.4281 21.635 43.4435 21.2144 44.5023 21.2144ZM54.7608 41.9101H34.2322C34.2217 41.9038 34.2137 41.8941 34.2095 41.8827C34.2053 41.8712 34.2052 41.8587 34.2091 41.8471C34.6913 39.4723 35.9797 37.3372 37.856 35.8036C39.7323 34.27 42.0811 33.4322 44.5044 33.4322C46.9277 33.4322 49.2765 34.27 51.1528 35.8036C53.029 37.3372 54.3175 39.4723 54.7997 41.8471C54.7948 41.8721 54.781 41.8945 54.7608 41.9101Z" fill="#43B02A"/>
</svg>
