<svg width="64" height="64" viewBox="0 0 64 64" fill="none" xmlns="http://www.w3.org/2000/svg">
<path fill-rule="evenodd" clip-rule="evenodd" d="M32.4709 3.33718C28.993 4.26386 26.6503 5.95357 25.1444 7.95136C23.7275 5.69249 21.2959 3.63044 17.2847 2.56169C13.6206 1.5854 10.6091 1.96521 8.22245 3.05979C5.87834 4.13488 4.30817 5.81948 3.33334 7.1984C2.47277 8.4157 2.41907 9.86282 2.96932 11.0541C3.50042 12.2039 4.55379 13.0541 5.81871 13.3771L12.0517 14.9567C11.3246 15.466 10.6 16.0714 9.88374 16.7836C7.17996 19.4722 6.01762 22.2695 5.81323 24.8813C5.61274 27.4432 6.34842 29.6252 7.09346 31.1274C7.74364 32.4382 8.96581 33.1752 10.2559 33.2868C11.5024 33.3946 12.7451 32.9235 13.6495 32.0241L21.9859 23.7346C22.0135 24.7882 22.0731 25.8494 22.1616 26.9151C22.6291 32.5429 23.9137 38.1685 25.7009 42.9559C18.7883 44.696 13.1463 49.2303 9.81077 55.2339C8.40986 54.5534 6.93071 53.7091 5.36368 52.6741C4.36752 52.0161 3.02356 52.2858 2.36188 53.2763C1.7002 54.2669 1.97135 55.6033 2.96751 56.2613C9.91101 60.8475 15.7297 62.2926 20.9585 61.9525C26.0985 61.6182 30.4232 59.5591 34.2531 57.7108L34.3959 57.6419C38.2842 55.7652 41.61 54.16 45.2969 53.9012C48.8805 53.6496 53.0729 54.6754 58.5167 58.8274C59.4656 59.5511 60.8249 59.3729 61.5527 58.4293C62.2805 57.4857 62.1013 56.1341 61.1524 55.4104C57.2045 52.3993 53.6229 50.707 50.2635 49.9839C45.7126 45.2175 38.9795 42.1794 32.0384 42.1794C31.3732 42.1794 30.7155 42.204 30.066 42.2522C28.2664 37.692 26.9406 32.1342 26.4776 26.5607C26.2806 24.1886 26.2425 21.8953 26.3824 19.7058C26.4089 19.29 26.7011 18.9401 27.1048 18.8286L43.9913 14.1657C45.2438 13.832 46.2837 12.9801 46.8065 11.8347C47.3479 10.6486 47.2929 9.21135 46.4408 8.00015C45.4702 6.62034 43.9018 4.92773 41.5553 3.84544C39.1657 2.74327 36.1469 2.35773 32.4709 3.33718ZM22.4753 13.1659L22.2029 13.0967C22.0598 13.0577 21.914 13.0205 21.7655 12.9856L7.17356 9.27696C7.84948 8.42033 8.78714 7.5432 10.0363 6.97031C11.4377 6.32757 13.4043 5.98609 16.1639 6.72137C20.2565 7.81183 21.6994 10.1005 22.2625 11.9995C22.3812 12.3994 22.4628 12.7923 22.5172 13.1659H22.4753ZM42.6019 10.0776L27.207 14.1795C27.217 14.0946 27.2284 14.0089 27.2412 13.9223C27.4175 13.2042 27.6196 12.5028 27.8485 11.8194C28.0107 11.4617 28.2075 11.1068 28.4453 10.7622C29.3039 9.51754 30.8113 8.23771 33.5918 7.49685C36.3597 6.75935 38.3302 7.10504 39.733 7.75207C40.9877 8.33075 41.9271 9.21636 42.6019 10.0776ZM13.8757 56.837C17.5257 50.6431 24.1385 46.4858 32.0384 46.4858C36.0322 46.4858 39.9736 47.7188 43.2683 49.8046C39.433 50.4184 35.9869 52.0844 32.8061 53.6222L32.3623 53.8366C28.4728 55.7136 24.8602 57.3831 20.6759 57.6553C18.6336 57.7881 16.3931 57.5885 13.8757 56.837ZM22.0466 17.5839L10.7768 28.7905C10.3469 27.7977 10.0252 26.5664 10.1309 25.2154C10.2487 23.7106 10.9105 21.8527 12.946 19.8287C14.9723 17.8138 16.8526 17.1335 18.3928 16.9963C19.7704 16.8737 21.0292 17.1736 22.0466 17.5839Z" fill="#89B6DE"/>
<path fill-rule="evenodd" clip-rule="evenodd" d="M44.2032 33.9103C46.9661 33.9103 49.2059 31.6705 49.2059 28.9076C49.2059 26.1447 46.9661 23.905 44.2032 23.905C41.4403 23.905 39.2005 26.1447 39.2005 28.9076C39.2005 31.6705 41.4403 33.9103 44.2032 33.9103ZM44.2032 36.9103C48.623 36.9103 52.2059 33.3274 52.2059 28.9076C52.2059 24.4879 48.623 20.905 44.2032 20.905C39.7834 20.905 36.2005 24.4879 36.2005 28.9076C36.2005 33.3274 39.7834 36.9103 44.2032 36.9103Z" fill="#3B86C8"/>
</svg>
