<svg width="64" height="64" viewBox="0 0 64 64" fill="none" xmlns="http://www.w3.org/2000/svg">
<path fill-rule="evenodd" clip-rule="evenodd" d="M35.2104 8.3317C31.1979 9.40683 29.1501 11.5059 28.1222 13.5669C27.0942 11.5059 25.0464 9.40689 21.034 8.33177C14.5389 6.59142 11.2423 9.77045 9.81391 11.9341C9.21978 12.8341 9.78102 13.9343 10.8226 14.2134L20.7095 16.8625C19.1785 17.2675 17.5329 18.1576 15.8733 19.8171C11.4119 24.2786 12.5676 28.5829 13.7394 30.8531C14.2329 31.8092 15.4642 31.869 16.2251 31.1081L24.8073 22.5259C24.5942 25.6663 24.8078 29.1722 25.2086 32.8824C25.494 35.5244 26.0965 38.1504 26.986 40.6194C21.5102 42.0224 16.9335 45.6701 14.2946 50.5238C13.1632 49.9732 11.968 49.2883 10.701 48.4467C9.90361 47.9171 8.8278 48.1341 8.29813 48.9315C7.76847 49.7289 7.98552 50.8047 8.78293 51.3344C14.3411 55.0263 18.9988 56.1896 23.1844 55.9159C27.2988 55.6467 30.7607 53.9892 33.8265 52.5013L33.9408 52.4458C37.0533 50.9351 39.7156 49.6429 42.6668 49.4345C45.5354 49.232 48.8913 50.0578 53.249 53.4001C54.0086 53.9827 55.0967 53.8393 55.6793 53.0797C56.2619 52.3201 56.1184 51.232 55.3588 50.6494C52.1889 48.218 49.3139 46.8548 46.6175 46.2758C42.9473 42.4046 37.7556 39.9902 32.0001 39.9902C31.4861 39.9902 30.9767 40.0095 30.4724 40.0473C29.5632 37.6944 28.9381 35.1292 28.6552 32.5101C28.0289 26.712 27.958 22.0422 28.9299 18.6149C29.0116 18.6045 29.0939 18.5883 29.1763 18.5663L45.4217 14.2133C46.4634 13.9342 47.0246 12.834 46.4305 11.9341C45.002 9.77038 41.7054 6.59136 35.2104 8.3317Z" fill="#89B6DE"/>
<path d="M52.2059 28.9077C52.2059 33.3275 48.6229 36.9104 44.2032 36.9104C39.7834 36.9104 36.2005 33.3275 36.2005 28.9077C36.2005 24.488 39.7834 20.905 44.2032 20.905C48.6229 20.905 52.2059 24.488 52.2059 28.9077Z" fill="#3B86C8"/>
</svg>
