<svg width="64" height="64" viewBox="0 0 64 64" fill="none" xmlns="http://www.w3.org/2000/svg">
<path fill-rule="evenodd" clip-rule="evenodd" d="M24.6494 27H28.2627C29.0891 27 29.8619 26.6286 30.3835 25.9808C30.9073 25.3304 31.1109 24.4853 30.9418 23.6627C30.4737 21.3853 29.0717 19.4872 27.1957 18.3416C27.8236 17.4738 28.1957 16.4051 28.1957 15.2501C28.1957 12.3552 25.8649 10 22.9999 10C20.135 10 17.8041 12.3552 17.8041 15.2501C17.8041 16.4051 18.1762 17.4738 18.8044 18.3416C16.9285 19.4872 15.5265 21.3853 15.0581 23.663C14.8892 24.4853 15.0925 25.3304 15.6167 25.9808C16.1383 26.6286 16.9111 27 17.7371 27H21.3505H24.6494ZM24.8968 15.2501C24.8968 14.1931 24.046 13.3334 22.9999 13.3334C21.9539 13.3334 21.1031 14.1931 21.1031 15.2501C21.1031 16.3068 21.9539 17.1668 22.9999 17.1668C24.046 17.1668 24.8968 16.3068 24.8968 15.2501ZM23.0431 20.4999H22.9568C20.9429 20.4999 19.1575 21.7964 18.4784 23.6666H27.5214C26.8427 21.7964 25.0569 20.4999 23.0431 20.4999Z" fill="#868686"/>
<path d="M48 13.4219C48 12.0843 46.9157 11 45.5781 11L34.4219 11C33.0843 11 32 12.0843 32 13.4219C32 14.7595 33.0843 15.8438 34.4219 15.8438H45.5781C46.9157 15.8438 48 14.7595 48 13.4219Z" fill="#868686"/>
<circle cx="43" cy="23" r="5" fill="#868686"/>
<path d="M35.5 58.1562H16.6875C14.0167 58.1562 11.8438 55.9833 11.8438 53.3125V10.6875C11.8438 8.01666 14.0167 5.84375 16.6875 5.84375H46.4631C49.134 5.84375 51.3069 8.01666 51.3069 10.6875V28.25C51.3069 29.5876 52.3911 30.6719 53.7287 30.6719C55.0663 30.6719 56.1506 29.5876 56.1506 28.25V10.6875C56.1506 5.34581 51.8048 1 46.4631 1H16.6875C11.3458 1 7 5.34581 7 10.6875V53.3125C7 58.6542 11.3458 63 16.6875 63H35.4999C36.8375 63 37.9218 61.9157 37.9218 60.5781C37.9218 59.2405 36.8375 58.1562 35.5 58.1562Z" fill="#868686"/>
<path d="M11.4219 36.8438C10.0842 36.8438 9 35.7596 9 34.4219C9 33.0842 10.0842 32 11.4219 32C12.7596 32 13.8438 33.0842 13.8438 34.4219C13.8438 35.7596 12.7596 36.8438 11.4219 36.8438Z" fill="#868686"/>
<path d="M19.8984 36.8438C18.5607 36.8438 17.4766 35.7596 17.4766 34.4219C17.4766 33.0842 18.5607 32 19.8984 32C21.2361 32 22.3203 33.0842 22.3203 34.4219C22.3203 35.7596 21.2361 36.8438 19.8984 36.8438Z" fill="#868686"/>
<path d="M28.375 36.8438C27.0373 36.8438 25.9531 35.7596 25.9531 34.4219C25.9531 33.0842 27.0373 32 28.375 32C29.7127 32 30.7969 33.0842 30.7969 34.4219C30.7969 35.7596 29.7127 36.8438 28.375 36.8438Z" fill="#868686"/>
<path d="M56.474 52.5557V51.9611C56.474 50.131 55.7573 48.4214 54.457 47.1476C53.1741 45.8913 51.4665 45.1992 49.6482 45.1992H47.4293C46.3622 45.1992 45.4606 44.2565 45.4606 43.1406V42.2575C45.4606 41.1733 46.3068 40.3555 47.4293 40.3555H49.5276C50.1444 40.3555 50.7825 40.7684 50.7825 41.4595C50.7825 42.7967 51.8667 43.8814 53.2044 43.8814C54.5417 43.8814 55.6263 42.7967 55.6263 41.4595C55.6263 38.557 53.4826 36.1352 50.6591 35.6158V34.0586C50.6591 32.7209 49.5744 31.6367 48.2372 31.6367C46.8995 31.6367 45.8153 32.7209 45.8153 34.0586V35.699C44.6167 35.9824 43.5188 36.5798 42.6281 37.4511C41.3311 38.7202 40.6168 40.4269 40.6168 42.2575V43.1406C40.6168 46.9466 43.6725 50.043 47.4293 50.043H49.6482C50.7598 50.043 51.6302 50.8854 51.6302 51.9611V52.5557C51.6302 53.6081 50.7783 54.4023 49.6482 54.4023H46.0414C45.4464 54.4023 44.8438 54.0282 44.8438 53.3125C44.8438 51.9748 43.7596 50.8906 42.4219 50.8906C41.0846 50.8906 40 51.9748 40 53.3125C40 56.565 42.5368 59.1274 45.8153 59.2404V60.5781C45.8153 61.9158 46.8995 63 48.2372 63C49.5744 63 50.6591 61.9158 50.6591 60.5781V59.1756C53.9906 58.7102 56.474 55.9699 56.474 52.5557Z" fill="#F7B801"/>
<path d="M36.9219 36.8438C35.5842 36.8438 34.5 35.7596 34.5 34.4219C34.5 33.0842 35.5842 32 36.9219 32C38.2596 32 39.3438 33.0842 39.3438 34.4219C39.3438 35.7596 38.2596 36.8438 36.9219 36.8438Z" fill="#868686"/>
</svg>
