<svg width="64" height="64" viewBox="0 0 64 64" fill="none" xmlns="http://www.w3.org/2000/svg">
<path d="M53.3125 5.84375C54.5971 5.84375 55.8292 6.35407 56.7375 7.26245C57.6459 8.17083 58.1562 9.40286 58.1562 10.6875V53.3125C58.1562 54.5971 57.6459 55.8292 56.7375 56.7375C55.8292 57.6459 54.5971 58.1562 53.3125 58.1562H10.6875C9.40286 58.1562 8.17083 57.6459 7.26245 56.7375C6.35407 55.8292 5.84375 54.5971 5.84375 53.3125V10.6875C5.84375 9.40286 6.35407 8.17083 7.26245 7.26245C8.17083 6.35407 9.40286 5.84375 10.6875 5.84375H53.3125ZM53.3125 1H10.6875C8.11822 1 5.65416 2.02064 3.8374 3.8374C2.02064 5.65416 1 8.11822 1 10.6875L1 53.3125C1 55.8818 2.02064 58.3458 3.8374 60.1626C5.65416 61.9794 8.11822 63 10.6875 63H53.3125C55.8818 63 58.3458 61.9794 60.1626 60.1626C61.9794 58.3458 63 55.8818 63 53.3125V10.6875C63 8.11822 61.9794 5.65416 60.1626 3.8374C58.3458 2.02064 55.8818 1 53.3125 1V1Z" fill="#868686"/>
<path d="M52.0689 34.1797C52.7112 34.1797 53.3272 33.9246 53.7814 33.4704C54.2356 33.0162 54.4907 32.4002 54.4907 31.7578C54.4907 31.1155 54.2356 30.4995 53.7814 30.0453C53.3272 29.5911 52.7112 29.336 52.0689 29.336H34.7851V20.0117H52.0689C52.7112 20.0117 53.3272 19.7566 53.7814 19.3024C54.2356 18.8482 54.4907 18.2322 54.4907 17.5899C54.4907 16.9475 54.2356 16.3315 53.7814 15.8773C53.3272 15.4232 52.7112 15.168 52.0689 15.168H49.4375V11.9312C49.4375 11.2888 49.1823 10.6728 48.7281 10.2186C48.274 9.76444 47.6579 9.50928 47.0156 9.50928C46.3733 9.50928 45.7573 9.76444 45.3031 10.2186C44.8489 10.6728 44.5937 11.2888 44.5937 11.9312V15.168H21.3437V11.9312C21.3437 11.2888 21.0886 10.6728 20.6344 10.2186C20.1802 9.76444 19.5642 9.50928 18.9219 9.50928C18.2795 9.50928 17.6635 9.76444 17.2093 10.2186C16.7552 10.6728 16.5 11.2888 16.5 11.9312V15.168H13.1675C11.8536 15.168 10.7359 16.1888 10.6875 17.5015C10.6756 17.8269 10.7295 18.1513 10.8458 18.4554C10.9622 18.7596 11.1387 19.0371 11.3648 19.2714C11.5909 19.5058 11.8619 19.6921 12.1617 19.8193C12.4614 19.9465 12.7837 20.012 13.1094 20.0117H29.9414V29.336H11.9311C11.2888 29.336 10.6728 29.5911 10.2186 30.0453C9.76441 30.4995 9.50925 31.1155 9.50925 31.7578C9.50925 32.4002 9.76441 33.0162 10.2186 33.4704C10.6728 33.9246 11.2888 34.1797 11.9311 34.1797H16.5V43.625H11.9311C11.2888 43.625 10.6728 43.8802 10.2186 44.3344C9.76441 44.7886 9.50925 45.4046 9.50925 46.0469C9.50925 46.6892 9.76441 47.3052 10.2186 47.7594C10.6728 48.2136 11.2888 48.4688 11.9311 48.4688H30.0625V52.6744C30.0625 53.3167 30.3177 53.9327 30.7718 54.3869C31.226 54.8411 31.842 55.0962 32.4844 55.0962C33.1267 55.0962 33.7427 54.8411 34.1969 54.3869C34.6511 53.9327 34.9062 53.3167 34.9062 52.6744V48.4688H51.8012C53.1151 48.4688 54.2328 47.448 54.28 46.1353C54.2919 45.81 54.2381 45.4856 54.1218 45.1816C54.0055 44.8776 53.8291 44.6001 53.6031 44.3658C53.3772 44.1315 53.1063 43.9451 52.8067 43.8178C52.5071 43.6905 52.1849 43.625 51.8594 43.625H49.4375V34.1797H52.0689ZM21.3437 43.625V34.1797H44.5937V43.625H21.3437Z" fill="#EB5757"/>
</svg>
