<svg width="64" height="64" viewBox="0 0 64 64" fill="none" xmlns="http://www.w3.org/2000/svg">
<g clip-path="url(#clip0_2002_11162)">
<path d="M61.652 43.8296L40.2117 7.64804C39.3402 6.22595 38.1289 5.05338 36.6915 4.24052C35.2542 3.42766 33.638 3.00119 31.9948 3.00119C30.3516 3.00119 28.7354 3.42766 27.298 4.24052C25.8606 5.05338 24.6493 6.22595 23.7778 7.64804L2.34861 43.8296C1.49892 45.1969 1.03221 46.7757 0.999087 48.3946C0.965967 50.0135 1.36771 51.6108 2.16073 53.0132C3.00171 54.5301 4.22282 55.7914 5.69881 56.6677C7.17481 57.544 8.85256 58.0038 10.56 57.9998H53.4295C55.1384 58.0035 56.8176 57.5437 58.2953 56.6675C59.773 55.7913 60.9962 54.5302 61.8399 53.0132C62.627 51.6088 63.0253 50.0124 62.9923 48.3948C62.9592 46.7772 62.4959 45.1992 61.652 43.8296ZM56.8556 50.407C56.491 51.0085 55.9793 51.5027 55.3708 51.841C54.7624 52.1793 54.0781 52.35 53.3853 52.3363H10.56C9.87306 52.343 9.19598 52.169 8.59399 51.8311C7.992 51.4932 7.48538 51.0028 7.12294 50.407C6.79001 49.8601 6.61358 49.2289 6.61358 48.585C6.61358 47.941 6.79001 47.3099 7.12294 46.7629L28.5632 10.5814C28.9399 9.99242 29.4545 9.50862 30.0604 9.17376C30.6663 8.8389 31.3444 8.66354 32.0335 8.66354C32.7225 8.66354 33.4006 8.8389 34.0065 9.17376C34.6124 9.50862 35.127 9.99242 35.5037 10.5814L56.8556 46.7629C57.2142 47.3233 57.4062 47.9777 57.4081 48.647C57.3762 49.2726 57.1858 49.879 56.8556 50.407Z" fill="#EB5757"/>
</g>
<path d="M32.0004 41H31.9987C30.0659 41 28.5 42.567 28.5 44.5C28.5 46.433 30.0676 48 32.0004 48C33.9332 48 35.5 46.433 35.5 44.5C35.5 42.567 33.9332 41 32.0004 41Z" fill="#686868"/>
<path d="M32 38C33.933 38 35.5 36.4428 35.5 34.5217V21.4783C35.5 19.5572 33.933 18 32 18C30.067 18 28.5 19.5572 28.5 21.4783V34.5217C28.5 36.4428 30.067 38 32 38Z" fill="#686868"/>
<defs>
<clipPath id="clip0_2002_11162">
<rect width="62" height="55" fill="white" transform="translate(1 3)"/>
</clipPath>
</defs>
</svg>
