<svg width="64" height="64" viewBox="0 0 64 64" fill="none" xmlns="http://www.w3.org/2000/svg">
<path fill-rule="evenodd" clip-rule="evenodd" d="M28.0849 1.21688C28.7181 1.14453 29.427 1.06321 29.6603 1.03606C30.6031 0.926626 35.1176 1.08417 36.3258 1.26875C42.1053 2.15149 47.0072 4.28553 51.414 7.83725C62.3528 16.6536 65.9936 31.6533 60.3135 44.5025C59.1722 47.0844 57.6893 49.4921 56.9622 49.9441C56.2792 50.3687 55.0935 50.35 54.4195 49.9039C53.6625 49.403 53.3529 48.8109 53.3537 47.8658C53.3545 47.1156 53.3885 47.0233 54.0707 45.9268C57.1694 40.946 58.5694 35.1334 58.0155 29.5487C57.6266 25.6272 56.2869 21.5926 54.3207 18.4215C50.9487 12.9832 46.0502 9.09569 40.1267 7.15689C34.6682 5.37018 29.2745 5.36667 23.8323 7.14634C15.8923 9.74284 9.72287 15.9039 7.12989 23.8262C5.33882 29.298 5.33895 34.6767 7.13026 40.1537C10.3482 49.9925 19.117 57.0119 29.4693 58.036C33.5987 58.4445 37.8029 57.8365 41.7188 56.2643C42.8608 55.8059 43.6843 55.4021 45.718 54.3036C45.9434 54.1818 46.3666 54.108 46.8318 54.1093C47.4667 54.1113 47.6607 54.167 48.0949 54.4729C49.0999 55.1808 49.4405 56.4451 48.9172 57.526C48.613 58.1545 48.2685 58.4291 46.7481 59.255C33.6325 66.381 17.1978 63.0931 7.83425 51.4703C4.23612 47.0039 2.12862 42.1474 1.22127 36.2316C0.954774 34.494 0.921326 29.8484 1.16286 28.1119C1.71318 24.1548 2.99804 20.2116 4.77311 17.0321C9.63525 8.32274 18.4953 2.31195 28.0849 1.21688Z" fill="#868686"/>
<path fill-rule="evenodd" clip-rule="evenodd" d="M10.8045 28.4148C12.5122 19.0153 19.7915 12.026 29.2362 10.7175C30.7783 10.5039 34.0295 10.5704 35.5987 10.8478C44.3034 12.3861 51.2528 19.1454 52.9795 27.7532C54.7965 36.8107 50.5965 46.0241 42.5523 50.6269C34.2185 55.3953 23.6425 53.9604 16.8175 47.1354C13.6868 44.0047 11.6047 39.9991 10.8033 35.565C10.4964 33.8668 10.4969 30.1072 10.8045 28.4148ZM20.4126 30.4836C22.9223 31.3604 23.751 31.8178 24.315 32.6375C25.2043 33.93 25.5392 35.9564 25.0683 37.1957C24.852 37.7651 22.5785 41.1185 21.9236 41.8344C21.2511 42.5694 19.9441 42.7186 19.0452 42.163C18.2187 41.6523 16.6299 38.7449 16.0354 36.6557C15.4284 34.5218 15.1875 31.9053 15.5247 31.1074C15.7297 30.6225 16.2744 30.0682 16.7536 29.8569C17.441 29.5541 18.0511 29.6586 20.4126 30.4836ZM36.7841 42.9292C35.1894 40.6534 34.6632 40.0798 33.7916 39.6673C33.0009 39.2931 31.5922 39.178 30.7451 39.4185C29.5229 39.7654 29.0068 40.2684 27.142 42.9292C26.2184 44.2471 25.7783 44.9856 25.7236 45.3092C25.5268 46.4745 26.2807 47.5903 27.5227 47.9716C28.8496 48.3788 30.0396 48.528 31.963 48.528C33.8864 48.528 35.0763 48.3788 36.4032 47.9716C37.6452 47.5903 38.3991 46.4745 38.2023 45.3092C38.1476 44.9857 37.7074 44.2468 36.7841 42.9292ZM47.1459 29.8505C47.7835 30.1174 48.4138 30.9123 48.513 31.5745C48.6974 32.8034 48.33 35.3536 47.6959 37.2476C47.0077 39.3025 45.6373 41.6955 44.8807 42.163C43.982 42.7185 42.6789 42.5699 41.9994 41.8344C41.3617 41.1443 39.074 37.7653 38.8561 37.1917C38.3881 35.9601 38.7229 33.9282 39.6052 32.6458C40.1755 31.817 40.9014 31.4113 43.4068 30.5218C45.8098 29.6686 46.4408 29.5554 47.1459 29.8505ZM43.6253 20.2466C41.8968 18.5394 39.9648 17.2729 37.8793 16.4804C36.6079 15.997 35.3992 16.294 34.7707 17.2438L34.4474 17.7326V20.7105C34.4474 23.6782 34.4484 23.6907 34.7683 24.3729C35.1896 25.2717 35.9259 25.9906 36.8841 26.439C37.5281 26.7404 37.8107 26.8016 38.5385 26.7977C39.3021 26.7937 39.7154 26.6884 41.7188 25.9881C42.9852 25.5454 44.1995 25.065 44.4173 24.9205C44.8979 24.6017 45.416 23.6166 45.4124 23.0284C45.4075 22.2469 44.9857 21.5902 43.6253 20.2466ZM33.2942 29.9747C34.0168 30.4528 34.3262 31.057 34.3262 31.9899C34.3262 32.9349 34.0162 33.5273 33.2597 34.0279C32.5836 34.4754 31.4 34.4928 30.7126 34.0655C29.7952 33.4952 29.3642 32.3628 29.6543 31.2854C29.821 30.666 30.5627 29.8726 31.1402 29.6959C31.7756 29.5014 32.7744 29.6307 33.2942 29.9747ZM29.1533 17.2408C28.9573 16.9448 28.6169 16.6471 28.297 16.4922C27.3322 16.0252 26.4644 16.1844 24.4492 17.1985C22.9917 17.9318 21.6093 18.9463 20.3006 20.2427C18.9408 21.5898 18.5184 22.2484 18.5135 23.0284C18.5099 23.6166 19.028 24.6017 19.5086 24.9205C19.7264 25.0649 20.9407 25.5446 22.2072 25.9866C24.2033 26.6832 24.6266 26.791 25.3874 26.7963C26.1171 26.8014 26.3961 26.7412 27.0418 26.439C28 25.9906 28.7363 25.2717 29.1576 24.3729C29.4775 23.6907 29.4786 23.6782 29.4786 20.7104V17.7324L29.1533 17.2408Z" fill="#43B02A"/>
</svg>
