<svg width="64" height="64" viewBox="0 0 64 64" fill="none" xmlns="http://www.w3.org/2000/svg">
<path d="M32.1072 41.7778V26.7733H47.1116V33.3689L52.1072 35.6089V6.77333C52.1026 5.44986 51.5746 4.18195 50.6388 3.24611C49.7029 2.31027 48.435 1.78246 47.1116 1.77777H12.1072C10.7851 1.78709 9.51991 2.31638 8.58506 3.25123C7.65024 4.18606 7.12092 5.4513 7.1116 6.77333V41.7778C7.1022 42.4405 7.22435 43.0987 7.47096 43.7139C7.71758 44.3294 8.08376 44.8896 8.54835 45.3625C9.01294 45.8354 9.5667 46.2114 10.1776 46.4688C10.7884 46.7262 11.4443 46.8599 12.1072 46.8622H32.1072V41.7778ZM32.1072 6.77333H47.1116V21.7778H32.1072V6.77333ZM27.1116 41.7778H12.1072V26.7733H27.1116V41.7778ZM12.1072 21.7778V6.77333H27.1116V21.7778H12.1072Z" fill="#868686"/>
<path d="M46.0308 39.1262L54.2441 42.8595V49.4018C54.2037 51.7337 53.3268 53.9737 51.773 55.7129C51.0905 56.5454 50.2375 57.2222 49.2715 57.6976C48.3056 58.1728 47.2491 58.4357 46.173 58.4684H45.8885C44.8123 58.4368 43.7552 58.1744 42.7892 57.699C41.8229 57.2236 40.9701 56.5463 40.2885 55.7129C38.7276 53.9779 37.8496 51.7353 37.8174 49.4018V42.8595L46.0308 39.1795V39.1262ZM46.2263 34.184H46.0308C45.9659 34.1938 45.8999 34.1938 45.8352 34.184C45.5294 34.1939 45.2281 34.2603 44.9463 34.3795L34.2796 39.1262C33.9065 39.3003 33.59 39.5762 33.3666 39.9221C33.1433 40.2681 33.0222 40.67 33.0174 41.0818V49.3307C33.053 52.8471 34.3602 56.232 36.6974 58.8595C37.8279 60.203 39.2332 61.2885 40.8187 62.043C42.4041 62.7973 44.133 63.2032 45.8885 63.2329H46.173C47.9259 63.2028 49.6519 62.797 51.2345 62.0425C52.8171 61.288 54.2192 60.2027 55.3463 58.8595C57.6784 56.2499 58.9858 52.8835 59.0263 49.384V41.0818C59.0231 40.6647 58.8996 40.2572 58.6708 39.9084C58.4304 39.5557 58.0898 39.2834 57.693 39.1262L47.0263 34.3795C46.7438 34.2622 46.4428 34.1959 46.1374 34.184H46.2263Z" fill="#43B02A"/>
</svg>
