<svg width="26" height="29" viewBox="0 0 26 29" fill="none" xmlns="http://www.w3.org/2000/svg">
<path d="M23.201 6.05615H22.0811V19.4958H23.201V6.05615Z" fill="#00984A"/>
<path d="M25.1156 8.33821L22.6398 6.35346L20.1647 8.33821L19.2803 7.6292L22.6398 4.93604L26.0001 7.6292L25.1156 8.33821Z" fill="#00984A"/>
<path d="M22.6398 20.6898L19.2803 17.9959L20.1647 17.2876L22.6398 19.2718L25.1156 17.2876L26.0001 17.9959L22.6398 20.6898Z" fill="#00984A"/>
<g clip-path="url(#clip0)">
<path d="M8.3892 21.6577L6.68011 23.3642L5.65381 22.3369C5.60877 22.2922 5.55538 22.2567 5.49666 22.2326C5.43795 22.2085 5.37507 22.1963 5.31161 22.1965C5.24815 22.1967 5.18535 22.2094 5.12681 22.234C5.06827 22.2585 5.01512 22.2943 4.97041 22.3394C4.9257 22.3844 4.89029 22.4379 4.86621 22.4966C4.84213 22.5554 4.82986 22.6184 4.83008 22.6819C4.83031 22.7454 4.84303 22.8082 4.86752 22.8668C4.89201 22.9254 4.92779 22.9786 4.97282 23.0234L5.99913 24.0476C6.18121 24.2272 6.42658 24.3279 6.68222 24.3279C6.93786 24.3279 7.18323 24.2272 7.36531 24.0476L9.07018 22.3394C9.1493 22.2469 9.19065 22.1279 9.18595 22.0063C9.18126 21.8846 9.13087 21.7692 9.04485 21.6831C8.95884 21.597 8.84354 21.5466 8.72199 21.5419C8.60044 21.5372 8.48159 21.5785 8.3892 21.6577Z" fill="#525252"/>
<path d="M2.70117 22.9585C2.70117 24.0483 3.13368 25.0934 3.90356 25.864C4.67343 26.6346 5.71761 27.0675 6.80637 27.0675C7.89514 27.0675 8.93932 26.6346 9.70919 25.864C10.4791 25.0934 10.9116 24.0483 10.9116 22.9585C10.9116 22.8303 10.8607 22.7073 10.7701 22.6167C10.6795 22.526 10.5567 22.4751 10.4286 22.4751C10.3005 22.4751 10.1777 22.526 10.0871 22.6167C9.99653 22.7073 9.94565 22.8303 9.94565 22.9585C9.94554 23.6663 9.70666 24.3534 9.2677 24.9084C8.82874 25.4634 8.21542 25.8538 7.52712 26.0163C6.83881 26.1788 6.11585 26.1039 5.47536 25.8038C4.83488 25.5037 4.3144 24.9959 3.99825 24.3627C3.68211 23.7295 3.58882 23.008 3.7335 22.3152C3.87819 21.6223 4.25237 20.9986 4.79541 20.5452C5.33846 20.0917 6.01856 19.8351 6.72553 19.8169C7.43249 19.7986 8.12489 20.0199 8.69054 20.4447C8.7932 20.5169 8.91988 20.5462 9.04378 20.5266C9.16768 20.5069 9.27907 20.4397 9.35437 20.3393C9.42968 20.2389 9.46299 20.1131 9.44726 19.9885C9.43153 19.8639 9.368 19.7504 9.2701 19.6719C8.66023 19.2139 7.93499 18.9349 7.17565 18.8663C6.4163 18.7976 5.65286 18.942 4.97088 19.2832C4.2889 19.6244 3.71532 20.149 3.31444 20.7981C2.91356 21.4473 2.7012 22.1953 2.70117 22.9585Z" fill="#525252"/>
<path d="M18.1563 3.86722C18.2844 3.86722 18.4072 3.81629 18.4978 3.72563C18.5883 3.63497 18.6392 3.51201 18.6392 3.3838C18.6392 3.2556 18.5883 3.13264 18.4978 3.04198C18.4072 2.95132 18.2844 2.90039 18.1563 2.90039H5.59918C5.47109 2.90039 5.34824 2.95132 5.25767 3.04198C5.16709 3.13264 5.11621 3.2556 5.11621 3.3838V5.31746C5.11621 5.44567 5.16709 5.56863 5.25767 5.65928C5.34824 5.74994 5.47109 5.80087 5.59918 5.80087H18.1563C18.2844 5.80087 18.4072 5.74994 18.4978 5.65928C18.5883 5.56863 18.6392 5.44567 18.6392 5.31746C18.6392 5.18925 18.5883 5.06629 18.4978 4.97563C18.4072 4.88498 18.2844 4.83405 18.1563 4.83405H6.08214V3.86722H18.1563Z" fill="#525252"/>
<path d="M7.04839 6.76807C6.9203 6.76807 6.79746 6.819 6.70689 6.90966C6.61631 7.00031 6.56543 7.12327 6.56543 7.25148C6.56543 7.37969 6.61631 7.50265 6.70689 7.59331C6.79746 7.68396 6.9203 7.7349 7.04839 7.7349H16.7077C16.8358 7.7349 16.9586 7.68396 17.0492 7.59331C17.1398 7.50265 17.1907 7.37969 17.1907 7.25148C17.1907 7.12327 17.1398 7.00031 17.0492 6.90966C16.9586 6.819 16.8358 6.76807 16.7077 6.76807H7.04839Z" fill="#525252"/>
<path d="M19.6053 10.1514H8.98004C8.85195 10.1514 8.7291 10.2023 8.63853 10.293C8.54795 10.3836 8.49707 10.5066 8.49707 10.6348C8.49707 10.763 8.54795 10.886 8.63853 10.9766C8.7291 11.0673 8.85195 11.1182 8.98004 11.1182H19.6053C19.7334 11.1182 19.8562 11.0673 19.9468 10.9766C20.0373 10.886 20.0882 10.763 20.0882 10.6348C20.0882 10.5066 20.0373 10.3836 19.9468 10.293C19.8562 10.2023 19.7334 10.1514 19.6053 10.1514Z" fill="#525252"/>
<path d="M14.7756 13.5357C14.7756 13.4075 14.7247 13.2845 14.6342 13.1938C14.5436 13.1032 14.4207 13.0522 14.2927 13.0522H4.63336C4.50527 13.0522 4.38242 13.1032 4.29185 13.1938C4.20127 13.2845 4.15039 13.4075 4.15039 13.5357C4.15039 13.6639 4.20127 13.7868 4.29185 13.8775C4.38242 13.9681 4.50527 14.0191 4.63336 14.0191H14.2927C14.4207 14.0191 14.5436 13.9681 14.6342 13.8775C14.7247 13.7868 14.7756 13.6639 14.7756 13.5357Z" fill="#525252"/>
<path d="M19.6049 13.0522H16.2242C16.0961 13.0522 15.9732 13.1032 15.8827 13.1938C15.7921 13.2845 15.7412 13.4075 15.7412 13.5357C15.7412 13.6639 15.7921 13.7868 15.8827 13.8775C15.9732 13.9681 16.0961 14.0191 16.2242 14.0191H19.6049C19.733 14.0191 19.8559 13.9681 19.9464 13.8775C20.037 13.7868 20.0879 13.6639 20.0879 13.5357C20.0879 13.4075 20.037 13.2845 19.9464 13.1938C19.8559 13.1032 19.733 13.0522 19.6049 13.0522Z" fill="#525252"/>
<path d="M9.463 16.4361C9.59109 16.4361 9.71394 16.3851 9.80451 16.2945C9.89509 16.2038 9.94597 16.0809 9.94597 15.9527C9.94597 15.8244 9.89509 15.7015 9.80451 15.6108C9.71394 15.5202 9.59109 15.4692 9.463 15.4692H4.63336C4.50527 15.4692 4.38242 15.5202 4.29185 15.6108C4.20127 15.7015 4.15039 15.8244 4.15039 15.9527C4.15039 16.0809 4.20127 16.2038 4.29185 16.2945C4.38242 16.3851 4.50527 16.4361 4.63336 16.4361H9.463Z" fill="#525252"/>
<path d="M11.3951 16.4361H14.7758C14.9039 16.4361 15.0268 16.3851 15.1173 16.2945C15.2079 16.2038 15.2588 16.0809 15.2588 15.9527C15.2588 15.8244 15.2079 15.7015 15.1173 15.6108C15.0268 15.5202 14.9039 15.4692 14.7758 15.4692H11.3951C11.267 15.4692 11.1441 15.5202 11.0536 15.6108C10.963 15.7015 10.9121 15.8244 10.9121 15.9527C10.9121 16.0809 10.963 16.2038 11.0536 16.2945C11.1441 16.3851 11.267 16.4361 11.3951 16.4361Z" fill="#525252"/>
<path d="M22.4993 22.4147C22.3712 22.4147 22.2484 22.4656 22.1578 22.5563C22.0672 22.6469 22.0164 22.7699 22.0164 22.8981V27.551C22.0164 27.6792 21.9655 27.8021 21.8749 27.8928C21.7843 27.9834 21.6615 28.0344 21.5334 28.0344H2.21843C2.09034 28.0344 1.96749 27.9834 1.87692 27.8928C1.78634 27.8021 1.73546 27.6792 1.73546 27.551V1.45024C1.73546 1.32203 1.78634 1.19907 1.87692 1.10842C1.96749 1.01776 2.09034 0.966828 2.21843 0.966828H21.5334C21.6615 0.966828 21.7843 1.01776 21.8749 1.10842C21.9655 1.19907 22.0164 1.32203 22.0164 1.45024V3.09445C22.0164 3.22266 22.0672 3.34562 22.1578 3.43628C22.2484 3.52694 22.3712 3.57787 22.4993 3.57787C22.6274 3.57787 22.7503 3.52694 22.8408 3.43628C22.9314 3.34562 22.9823 3.22266 22.9823 3.09445V1.45024C22.9823 1.06561 22.8296 0.696739 22.5579 0.424766C22.2862 0.152793 21.9177 0 21.5334 0L2.21843 0C1.83416 0 1.46562 0.152793 1.1939 0.424766C0.922182 0.696739 0.769531 1.06561 0.769531 1.45024L0.769531 27.5498C0.769531 27.9344 0.922182 28.3033 1.1939 28.5752C1.46562 28.8472 1.83416 29 2.21843 29H21.5334C21.9177 29 22.2862 28.8472 22.5579 28.5752C22.8296 28.3033 22.9823 27.9344 22.9823 27.5498V22.8969C22.982 22.7689 22.931 22.6462 22.8404 22.5559C22.7499 22.4655 22.6272 22.4147 22.4993 22.4147Z" fill="#525252"/>
</g>
<defs>
<clipPath id="clip0">
<rect x="0.769531" width="22.2128" height="29" fill="white"/>
</clipPath>
</defs>
</svg>
