<svg width="73" height="72" viewBox="0 0 73 72" fill="none" xmlns="http://www.w3.org/2000/svg">
<rect x="6.5" y="6" width="60" height="60" rx="30" fill="white"/>
<path fill-rule="evenodd" clip-rule="evenodd" d="M32.0752 24.375L32.0289 24.375C31.5061 24.375 31.0409 24.3749 30.6594 24.4163C30.2491 24.4607 29.8261 24.5618 29.4425 24.8405C29.2355 24.9909 29.0536 25.1728 28.9032 25.3798C28.6245 25.7634 28.5234 26.1864 28.479 26.5967C28.4376 26.9782 28.4376 27.4434 28.4377 27.9662L28.4377 28.0125V30.2344L27.4101 31.0051L27.2835 31.1C26.4666 31.7118 25.861 32.1654 25.469 32.7956C25.3404 33.0025 25.2312 33.2208 25.1429 33.4478C24.8739 34.1396 24.8744 34.8962 24.8751 35.9168L24.8751 36.075V41.1001L24.8751 41.1527C24.8751 42.2329 24.8751 43.119 24.9522 43.8307C25.0325 44.5715 25.2052 45.2337 25.6271 45.8145C25.87 46.1487 26.164 46.4427 26.4982 46.6856C27.079 47.1075 27.7412 47.2802 28.482 47.3605C29.1937 47.4376 30.0798 47.4376 31.1599 47.4376H31.16H31.2126H41.7876H41.8403H41.8404C42.9205 47.4376 43.8066 47.4376 44.5183 47.3605C45.2591 47.2802 45.9213 47.1075 46.502 46.6856C46.8363 46.4427 47.1303 46.1487 47.3731 45.8145C47.7951 45.2337 47.9678 44.5715 48.0481 43.8307C48.1252 43.119 48.1252 42.2329 48.1251 41.1528V41.1527V41.1001V36.1318L48.1252 35.9702C48.1259 34.9292 48.1264 34.1575 47.8477 33.4548C47.7563 33.2243 47.6433 33.0029 47.5102 32.7937C47.1045 32.1558 46.4792 31.7036 45.6356 31.0936L45.6356 31.0936L45.5047 30.9988L44.5627 30.3167L44.5627 27.9661C44.5627 27.4434 44.5628 26.9782 44.5214 26.5967C44.477 26.1864 44.3759 25.7634 44.0972 25.3798C43.9468 25.1728 43.7648 24.9909 43.5579 24.8405C43.1743 24.5618 42.7513 24.4607 42.341 24.4163C41.9595 24.3749 41.4942 24.375 40.9715 24.375L32.0752 24.375ZM44.5627 32.6319C44.559 33.1465 44.1407 33.5625 43.6252 33.5625C43.1074 33.5625 42.6877 33.1428 42.6877 32.625V28.0125C42.6877 27.4292 42.6864 27.067 42.6573 26.7987C42.6305 26.5508 42.589 26.4939 42.5805 26.4823L42.5803 26.4819C42.5456 26.4341 42.5036 26.3921 42.4558 26.3574L42.4554 26.3572C42.4438 26.3487 42.3869 26.3072 42.139 26.2804C41.8707 26.2513 41.5085 26.25 40.9252 26.25H32.0752C31.4918 26.25 31.1296 26.2513 30.8613 26.2804C30.6135 26.3072 30.5566 26.3487 30.5449 26.3571L30.5446 26.3574C30.4968 26.3921 30.4548 26.4341 30.4201 26.4819L30.4198 26.4823C30.4114 26.4939 30.3699 26.5508 30.343 26.7987C30.314 27.067 30.3127 27.4292 30.3127 28.0125V32.625C30.3127 33.1428 29.893 33.5625 29.3752 33.5625C28.8574 33.5625 28.4377 33.1428 28.4377 32.625V32.5782C27.9716 32.9284 27.67 33.1608 27.4628 33.3416L33.9043 37.5976C34.5465 38.0219 34.9797 38.3072 35.3381 38.5022C35.6821 38.6894 35.8977 38.7591 36.0879 38.7827C36.2452 38.8021 36.4043 38.8034 36.5619 38.7865C36.7524 38.766 36.9692 38.6997 37.3161 38.5181C37.6776 38.3289 38.1153 38.0505 38.7643 37.6366L45.4984 33.3407C45.2935 33.1687 45.0015 32.9507 44.5627 32.6319ZM26.7577 35.1231C26.7516 35.3699 26.7501 35.6785 26.7501 36.075V41.1001C26.7501 42.2459 26.7514 43.0299 26.8163 43.6287C26.8793 44.21 26.993 44.5045 27.144 44.7124C27.2713 44.8875 27.4252 45.0414 27.6003 45.1687C27.8082 45.3197 28.1027 45.4334 28.684 45.4964C29.2828 45.5613 30.0668 45.5626 31.2126 45.5626H41.7876C42.9334 45.5626 43.7175 45.5613 44.3163 45.4964C44.8976 45.4334 45.1921 45.3197 45.3999 45.1687C45.575 45.0414 45.729 44.8875 45.8562 44.7124C46.0072 44.5045 46.121 44.21 46.184 43.6287C46.2488 43.0299 46.2501 42.2459 46.2501 41.1001V36.1318C46.2501 35.6893 46.2483 35.3541 46.2404 35.0913L39.7727 39.2173L39.7396 39.2384L39.7396 39.2384L39.7394 39.2385C39.132 39.626 38.6267 39.9484 38.1857 40.1792C37.7222 40.4219 37.2714 40.596 36.7625 40.6507C36.4615 40.6831 36.1579 40.6806 35.8575 40.6435C35.3495 40.5806 34.9015 40.3993 34.442 40.1492C34.0047 39.9113 33.5046 39.5809 32.9034 39.1836L32.8707 39.162L26.7577 35.1231Z" fill="var(--svg-color)"/>
<path d="M35.5537 32.7451V35.0156C35.5537 35.5171 35.9603 35.9238 36.4619 35.9238C36.9636 35.9238 37.3701 35.5173 37.3701 35.0156V32.7451H39.6406C40.1423 32.7451 40.5488 32.3386 40.5488 31.8369C40.5488 31.3353 40.1423 30.9287 39.6406 30.9287H37.3701V28.6582C37.3701 28.1566 36.9636 27.75 36.4619 27.75C35.9603 27.75 35.5537 28.1566 35.5537 28.6582V30.9287H33.2832C32.7816 30.9287 32.375 31.3353 32.375 31.8369C32.375 32.3386 32.7816 32.7451 33.2832 32.7451H35.5537Z" fill="var(--svg-color-two)"/>
<rect x="6.5" y="6" width="60" height="60" rx="30"  stroke="var(--svg-color-three)" stroke-width="12"/>
</svg>
