<svg width="73" height="72" viewBox="0 0 73 72" fill="none" xmlns="http://www.w3.org/2000/svg">
<rect x="6.5" y="6" width="60" height="60" rx="30" fill="white"/>
<path d="M46.6959 42.613C46.16 45.5172 43.6246 47.625 40.6675 47.625C37.2873 47.625 34.5371 44.8748 34.5371 41.4946C34.5371 38.1144 37.2873 35.3643 40.6675 35.3643C41.228 35.3643 41.7839 35.4402 42.3195 35.5897C42.8026 35.7245 43.0849 36.2255 42.9499 36.7086C42.8151 37.1918 42.314 37.4741 41.8309 37.3391C41.4544 37.2341 41.0629 37.1807 40.6675 37.1807C38.2888 37.1807 36.3535 39.1159 36.3535 41.4946C36.3535 43.8733 38.2888 45.8086 40.6675 45.8086C42.7485 45.8086 44.5327 44.326 44.9096 42.2835C45.0008 41.7901 45.4744 41.4639 45.9675 41.5551C46.4608 41.6461 46.7869 42.1197 46.6959 42.613ZM39.4932 40.4438C39.1384 40.089 38.5635 40.089 38.2089 40.4438C37.8542 40.7984 37.8542 41.3735 38.2088 41.7281L39.5461 43.0654C39.8554 43.3747 40.2627 43.5294 40.67 43.5294C41.0746 43.5294 41.4792 43.3767 41.788 43.071L45.7566 39.1431C46.1131 38.7902 46.116 38.2152 45.7632 37.8586C45.4104 37.5021 44.8353 37.4991 44.4787 37.8521L40.6708 41.6213L39.4932 40.4438Z"  fill="var(--svg-color-two)"/>
<path d="M33.2656 45.8086H29.6328C28.6313 45.8086 27.8164 44.9937 27.8164 43.9922V32.0493H30.4956C32.2483 32.0493 33.6743 30.6233 33.6743 28.8706C33.6743 28.369 33.2678 27.9624 32.7661 27.9624C32.2645 27.9624 31.8579 28.369 31.8579 28.8706C31.8579 29.6218 31.2468 30.2329 30.4956 30.2329H27.9721C28.0562 30.0488 28.1728 29.8789 28.3195 29.7309L31.3185 26.7053C31.642 26.3787 32.0915 26.1914 32.5513 26.1914H40.7986C41.8002 26.1914 42.615 27.0063 42.615 28.0078V32.8213C42.615 33.3229 43.0217 33.7295 43.5232 33.7295C44.0248 33.7295 44.4314 33.3229 44.4314 32.8213V28.0078C44.4314 26.0046 42.8018 24.375 40.7986 24.375H32.5513C31.6103 24.375 30.6907 24.7583 30.0284 25.4265L27.0294 28.4522C26.3656 29.122 26 30.0099 26 30.9529V43.9922C26 45.9954 27.6296 47.625 29.6328 47.625H33.2656C33.7673 47.625 34.1738 47.2184 34.1738 46.7168C34.1738 46.2152 33.7673 45.8086 33.2656 45.8086Z"  fill="var(--svg-color)"/>
<rect x="6.5" y="6" width="60" height="60" rx="30"  stroke="var(--svg-color-three)" stroke-width="12"/>
</svg>