<svg width="72" height="72" viewBox="0 0 72 72" fill="none" xmlns="http://www.w3.org/2000/svg">
<rect x="6" y="6" width="60" height="60" rx="30" fill="white"/>
<path fill-rule="evenodd" clip-rule="evenodd" d="M45.4426 31.1096C43.5871 30.3265 40.6123 30.1817 38.4518 30.6326C36.8057 30.976 34.5469 31.5853 34.5469 33.5554V44.9997C35.5183 48.6663 47.5292 48.5741 47.6247 44.4259V33.5555C47.6247 32.9757 47.3412 31.887 45.4426 31.1096ZM41.0858 45.816C42.5841 45.8306 45.2711 45.4333 45.8083 44.4259L45.8083 33.5554C45.8083 33.4892 45.6207 33.1451 44.7543 32.7904C42.8912 31.9872 39.3475 32.0141 37.4706 32.794C36.5674 33.1527 36.3632 33.5055 36.3632 33.5554C36.3632 33.6054 36.5674 33.9581 37.4706 34.3168C38.8724 34.8923 41.231 35.0616 42.9332 34.7912C43.4291 34.7176 43.8911 35.0606 43.9644 35.5568C44.0378 36.0529 43.6951 36.5147 43.1989 36.5881C41.0247 36.9241 38.1416 36.685 36.3632 35.8114V37.2789C36.3632 37.3631 36.6134 37.6894 37.419 37.996C38.794 38.546 41.254 38.6817 42.9573 38.4239C43.4534 38.3541 43.9133 38.7 43.9831 39.1968C44.053 39.6934 43.7069 40.1527 43.2102 40.2225C41.2023 40.5245 38.4316 40.352 36.7729 39.6936C36.6268 39.638 36.4912 39.5802 36.3632 39.5209V40.9117C36.3632 40.9959 36.6134 41.3222 37.419 41.6288C38.794 42.1788 41.254 42.3145 42.9573 42.0567C43.4534 41.9869 43.9133 42.3328 43.9831 42.8295C44.053 43.3262 43.7069 43.7855 43.2102 43.8553C41.2023 44.1573 38.4316 43.9848 36.7729 43.3264C36.6268 43.2708 36.4912 43.213 36.3632 43.1537V44.4259C36.8978 45.432 39.5891 45.8313 41.0858 45.816Z"  fill="var(--svg-color)"/>
<path d="M37.5436 30.3753C38.0453 30.3753 38.4519 29.9686 38.4517 29.4669C38.4515 28.8118 38.4513 28.1072 38.4513 27.5599C38.504 25.1715 33.9002 24.315 31.4134 24.3806C28.9314 24.3131 24.3171 25.1749 24.3756 27.56V42.0614C24.3756 42.783 24.7893 43.7983 26.7603 44.5375C28.6397 45.2682 31.2123 45.4845 33.4194 45.1346C33.8342 45.0688 34.125 44.7018 34.125 44.2818C34.125 43.6958 33.5709 43.2651 32.9904 43.345C31.164 43.5962 29.0558 43.4406 27.5253 42.8829C26.4872 42.5183 26.2057 42.1334 26.1919 42.0614V40.7592C26.3691 40.841 26.5618 40.9203 26.7732 40.996C28.0817 41.4731 30.0048 41.7257 31.7994 41.6796C33.0019 41.6052 32.9584 39.88 31.7551 39.8638C30.0239 39.9046 27.0092 39.6134 26.1919 38.5501V37.1258C26.3691 37.2076 26.5616 37.287 26.7731 37.3627C28.0916 37.8445 30.0466 38.0979 31.8477 38.0456C33.0498 37.9675 33.001 36.2415 31.7976 36.23C30.2912 36.273 28.6421 36.0778 27.539 35.7054C26.4978 35.3615 26.2135 34.9989 26.1919 34.9162V33.475C26.3712 33.5562 26.5663 33.6347 26.7806 33.7094C28.0852 34.1738 30.044 34.4175 31.8451 34.3681C32.3466 34.3558 32.7429 33.9392 32.7305 33.4378C32.7188 32.936 32.299 32.5392 31.8002 32.5524C30.0558 32.5922 27.0369 32.3321 26.1919 31.2817V29.7785C26.3663 29.8609 26.5557 29.9411 26.7633 30.0181C28.6875 30.7416 31.5657 30.9234 33.8659 30.5489C34.3618 30.4738 34.7029 30.0108 34.6277 29.5149C34.5526 29.019 34.0897 28.6778 33.5937 28.753C31.6427 29.0705 29.2034 28.9405 27.556 28.3725C26.5305 28.0222 26.2285 27.656 26.1936 27.5599C26.9986 26.5299 29.7045 26.1989 31.4134 26.1969C33.1089 26.195 35.8607 26.5383 36.635 27.5652C36.635 28.1738 36.6352 28.8653 36.6355 29.4677C36.6357 29.9691 37.0422 30.3753 37.5436 30.3753Z"  fill="var(--svg-color-two)"/>
<rect x="6" y="6" width="60" height="60" rx="30"  stroke="var(--svg-color-three)" stroke-width="12"/>
</svg>
