<svg width="73" height="72" viewBox="0 0 73 72" fill="none" xmlns="http://www.w3.org/2000/svg">
<rect x="6.5" y="6" width="60" height="60" rx="30" fill="white"/>
<path fill-rule="evenodd" clip-rule="evenodd" d="M34.5775 45.8086H29.6328C28.6312 45.8086 27.8164 44.9938 27.8164 43.9922V28.0078C27.8164 27.0062 28.6312 26.1914 29.6328 26.1914H40.7987C41.8002 26.1914 42.6151 27.0062 42.6151 28.0078V33.0938C42.6151 33.5954 43.0217 34.002 43.5233 34.002C44.0249 34.002 44.4315 33.5954 44.4315 33.0938V28.0078C44.4315 26.0047 42.8018 24.375 40.7987 24.375H29.6328C27.6297 24.375 26 26.0047 26 28.0078V43.9922C26 45.9953 27.6297 47.625 29.6328 47.625H34.5774C35.079 47.625 35.4856 47.2184 35.4856 46.7168C35.4856 46.2152 35.079 45.8086 34.5775 45.8086ZM35.3948 33.457C35.8964 33.457 36.303 33.8636 36.303 34.3652C36.303 34.8668 35.8964 35.2734 35.3948 35.2734H30.536C30.0344 35.2734 29.6278 34.8668 29.6278 34.3652C29.6278 33.8636 30.0344 33.457 30.536 33.457H35.3948ZM29.6278 37.998C29.6278 37.4964 30.0344 37.0898 30.536 37.0898H32.4886C32.9902 37.0898 33.3968 37.4964 33.3968 37.998C33.3968 38.4996 32.9902 38.9062 32.4886 38.9062H30.536C30.0344 38.9062 29.6278 38.4996 29.6278 37.998ZM39.8904 29.8242C40.392 29.8242 40.7987 30.2308 40.7987 30.7324C40.7987 31.234 40.392 31.6406 39.8904 31.6406H30.536C30.0344 31.6406 29.6278 31.234 29.6278 30.7324C29.6278 30.2308 30.0344 29.8242 30.536 29.8242H39.8904Z" fill="#89B6DE"/>
<path d="M46.2094 37.5262L41.7516 35.5344C41.6039 35.4683 41.4481 35.445 41.2979 35.459C41.1477 35.445 40.9917 35.4684 40.8441 35.5344L36.3863 37.5262C36.0592 37.6724 35.8486 37.9971 35.8486 38.3554V41.8139C35.8486 43.2344 36.4098 44.6842 37.3883 45.7916C38.4331 46.9741 39.7997 47.6253 41.2365 47.6253H41.3591C42.796 47.6253 44.1626 46.9741 45.2073 45.7916C46.1858 44.6842 46.747 43.2343 46.747 41.8139V38.3554C46.747 37.9972 46.5365 37.6724 46.2094 37.5262ZM44.9306 38.9443V41.8139C44.9306 43.6997 43.4032 45.8089 41.3591 45.8089H41.2365C39.1924 45.8089 37.665 43.6997 37.665 41.8139V38.9443L41.2978 37.3211L44.9306 38.9443H44.9306Z" fill="#3B86C8"/>
<rect x="6.5" y="6" width="60" height="60" rx="30" stroke="#ECF3FA" stroke-width="12"/>
</svg>
