<svg width="56" height="56" viewBox="0 0 56 56" fill="none" xmlns="http://www.w3.org/2000/svg">
<path fill-rule="evenodd" clip-rule="evenodd" d="M50.0338 16.5897C45.7043 14.7626 38.7631 14.4247 33.7218 15.4766C29.881 16.278 24.6104 17.6997 24.6104 22.2967V48.9999C26.877 57.5555 54.9024 57.3401 55.1253 47.6611V22.2968C55.1253 20.944 54.4637 18.4037 50.0338 16.5897ZM39.8678 50.9046C43.3638 50.9388 49.6335 50.0118 50.8871 47.6611L50.887 22.2965C50.887 22.1421 50.4494 21.3393 48.4277 20.5115C44.0804 18.6376 35.8118 18.7003 31.4324 20.5199C29.3249 21.357 28.8484 22.18 28.8484 22.2966C28.8484 22.4131 29.3249 23.2362 31.4324 24.0731C34.7032 25.4161 40.2068 25.8111 44.1784 25.1801C45.3356 25.0085 46.4135 25.8087 46.5847 26.9664C46.7559 28.1242 45.9562 29.2015 44.7984 29.3728C39.7252 30.1569 32.9981 29.5991 28.8485 27.5606V30.9849C28.8485 31.1812 29.4323 31.9427 31.3119 32.658C34.5203 33.9413 40.2604 34.258 44.2347 33.6564C45.3923 33.4934 46.4653 34.3007 46.6282 35.4597C46.7913 36.6187 45.9838 37.6903 44.8249 37.8533C40.1397 38.5579 33.6747 38.1553 29.8043 36.6191C29.4635 36.4894 29.147 36.3544 28.8485 36.2162V39.4613C28.8485 39.6577 29.4323 40.4192 31.3119 41.1345C34.5203 42.4178 40.2604 42.7345 44.2347 42.1329C45.3923 41.97 46.4653 42.7772 46.6282 43.9362C46.7913 45.0952 45.9838 46.1668 44.8249 46.3297C40.1397 47.0343 33.6747 46.6318 29.8043 45.0956C29.4635 44.9659 29.147 44.8309 28.8485 44.6926V47.6611C30.0958 50.0087 36.3755 50.9405 39.8678 50.9046Z" fill="#645DA2"/>
<path d="M31.6018 14.8751C32.7724 14.8751 33.7212 13.9261 33.7207 12.7555C33.7202 11.2268 33.7196 9.58288 33.7196 8.30572C33.8427 2.73293 23.1005 0.734312 17.2979 0.887416C11.5066 0.729968 0.739816 2.74067 0.876285 8.30593V42.1426C0.876285 43.8262 1.84164 46.1953 6.4408 47.9201C10.8259 49.6251 16.8286 50.1299 21.9786 49.3134C22.9464 49.16 23.625 48.3035 23.625 47.3236V47.3236C23.625 45.9563 22.3321 44.9512 20.9775 45.1376C16.7161 45.7239 11.797 45.3608 8.22571 44.0596C5.80349 43.2087 5.14657 42.3107 5.11447 42.1426V39.1042C5.5279 39.2951 5.97747 39.4801 6.4709 39.6567C9.52398 40.7699 14.0113 41.3593 18.1986 41.2519C21.0044 41.0781 20.9029 37.0527 18.0953 37.015C14.0559 37.1101 7.02144 36.4306 5.11447 33.9495V30.6262C5.5278 30.8171 5.97715 31.0022 6.47047 31.1789C9.54707 32.3032 14.1086 32.8944 18.3113 32.7724C21.1162 32.5903 21.0022 28.563 18.1943 28.5359C14.6795 28.6364 10.8316 28.1808 8.25761 27.3121C5.82828 26.5095 5.1649 25.6634 5.11447 25.4705V22.1077C5.53278 22.2972 5.98796 22.4803 6.48817 22.6545C9.53224 23.7382 14.1026 24.3069 18.3053 24.1917C19.4753 24.1628 20.4002 23.1907 20.3713 22.0208C20.3439 20.85 19.3644 19.9241 18.2004 19.9549C14.1301 20.0479 7.08607 19.441 5.11447 16.99V13.4824C5.52144 13.6749 5.96327 13.862 6.44769 14.0417C10.9374 15.7298 17.6533 16.1539 23.0204 15.2801C24.1775 15.1048 24.9734 14.0246 24.7981 12.8675C24.6227 11.7104 23.5426 10.9141 22.3854 11.0898C17.833 11.8304 12.1414 11.5273 8.29734 10.2018C5.90446 9.38455 5.19976 8.52992 5.11849 8.30582C6.99675 5.90246 13.3106 5.13015 17.298 5.12539C21.2541 5.12104 27.6749 5.92195 29.4816 8.31822C29.4816 9.73827 29.4822 11.3516 29.4828 12.7573C29.4833 13.9272 30.4319 14.8751 31.6018 14.8751V14.8751Z" fill="#3D348B"/>
</svg>
