<svg width="72" height="72" viewBox="0 0 72 72" fill="none" xmlns="http://www.w3.org/2000/svg">
<rect x="6" y="6" width="60" height="60" rx="30" fill="white"/>
<g clip-path="url(#clip0_1914_34546)">
<path d="M32.2034 45.8086H27.2068C26.7878 45.8086 26.535 45.5748 26.4217 45.4354C26.226 45.1947 26.1503 44.8816 26.2138 44.5761C27.1596 40.0335 31.0455 36.6675 35.6197 36.3055C35.7455 36.3133 35.8723 36.3179 36 36.3179C39.2926 36.3179 41.9715 33.639 41.9715 30.3464C41.9715 27.0537 39.2926 24.375 36 24.375C32.7074 24.375 30.0286 27.0537 30.0286 30.3464C30.0286 32.3023 30.9739 34.0415 32.4314 35.1315C31.065 35.6039 29.7827 36.3157 28.6549 37.2435C26.4997 39.0162 25.0012 41.4888 24.4355 44.2059C24.2601 45.0489 24.4703 45.9148 25.0125 46.5815C25.5518 47.2447 26.3516 47.625 27.2068 47.625H32.2034C32.705 47.625 33.1116 47.2184 33.1116 46.7168C33.1116 46.2152 32.705 45.8086 32.2034 45.8086ZM31.845 30.3464C31.845 28.0554 33.7089 26.1914 36 26.1914C38.2911 26.1914 40.155 28.0554 40.155 30.3464C40.155 32.4493 38.5847 34.1921 36.555 34.4644C36.5169 34.4594 36.4782 34.4561 36.4389 34.4561C36.165 34.4561 35.8916 34.4656 35.6195 34.4839C33.5062 34.2911 31.845 32.5093 31.845 30.3464Z" fill="var(--svg-color)"/>
<path fill-rule="evenodd" clip-rule="evenodd" d="M38.9041 37.5664C39.7891 36.1029 41.961 36.1029 42.846 37.5664L46.8372 44.1664C47.7803 45.7259 46.5511 47.5312 44.8662 47.5312H36.8838C35.199 47.5312 33.9697 45.7259 34.9128 44.1664L38.9041 37.5664ZM40.875 38.5312C40.7694 38.5312 40.7027 38.5778 40.6689 38.6336L36.6777 45.2336C36.658 45.2663 36.656 45.2871 36.6563 45.2999C36.6566 45.3162 36.6616 45.3396 36.6777 45.3664C36.7087 45.4176 36.7726 45.4688 36.8838 45.4688H44.8662C44.9774 45.4688 45.0413 45.4176 45.0723 45.3664C45.0885 45.3396 45.0934 45.3162 45.0937 45.2999C45.094 45.2871 45.0921 45.2663 45.0723 45.2336L41.0811 38.6336C41.0473 38.5778 40.9806 38.5312 40.875 38.5312Z" fill="var(--svg-color-two)"/>
</g>
<rect x="6" y="6" width="60" height="60" rx="30"  stroke="var(--svg-color-three)" stroke-width="12"/> 
<defs>
<clipPath id="clip0_1914_34546">
<rect width="24" height="24" fill="white" transform="translate(24 24)"/>
</clipPath>
</defs>
</svg>
