<svg width="56" height="56" viewBox="0 0 56 56" fill="none" xmlns="http://www.w3.org/2000/svg">
<path d="M50.8867 29.8601V19.6882C50.8867 17.351 48.9853 15.4499 46.6484 15.4499H9.35156C7.01471 15.4499 5.11328 17.351 5.11328 19.6882V29.8601H12.2124C13.3829 29.8601 14.3315 30.8087 14.3315 31.9792C14.3315 33.1497 13.3829 34.0984 12.2124 34.0984H5.11328V44.3762C5.11328 46.7131 7.01471 48.6145 9.35156 48.6145H46.6484C48.9853 48.6145 50.8867 46.7131 50.8867 44.3762V42.5749C50.8867 41.4044 51.8354 40.4558 53.0059 40.4558C54.1764 40.4558 55.125 41.4044 55.125 42.5749V44.3762C55.125 49.0499 51.3225 52.8528 46.6484 52.8528H9.35156C4.67745 52.8528 0.875 49.0499 0.875 44.3762V19.6882C0.875 15.0141 4.67745 11.2117 9.35156 11.2117H18.4717V8.44891C18.4717 5.2375 21.0842 2.625 24.2952 2.625H31.7048C34.9158 2.625 37.5283 5.2375 37.5283 8.44891V11.2112H46.6484C51.3225 11.2112 55.125 15.0141 55.125 19.6878V31.9788C55.125 33.1493 54.1764 34.098 53.0059 34.098C52.8606 34.098 52.719 34.0835 52.582 34.0557C52.445 34.0835 52.3035 34.098 52.1582 34.098H43.9995C42.829 34.098 41.8804 33.1493 41.8804 31.9788C41.8804 30.8087 42.829 29.8597 43.9995 29.8597L50.8867 29.8601ZM22.71 11.2117H33.29V8.44891C33.29 7.57477 32.5789 6.86328 31.7048 6.86328H24.2952C23.4211 6.86328 22.71 7.57435 22.71 8.44891V11.2117Z" fill="#89B6DE"/>
<path d="M25.9873 34.0981V39.396C25.9873 40.5661 26.936 41.5151 28.1064 41.5151C29.2769 41.5151 30.2256 40.5665 30.2256 39.396V34.0981H35.5234C36.6939 34.0981 37.6426 33.1495 37.6426 31.979C37.6426 30.8085 36.6939 29.8599 35.5234 29.8599H30.2256V24.562C30.2256 23.3915 29.2769 22.4429 28.1064 22.4429C26.936 22.4429 25.9873 23.3915 25.9873 24.562V29.8599H20.6895C19.519 29.8599 18.5703 30.8085 18.5703 31.979C18.5703 33.1495 19.519 34.0981 20.6895 34.0981H25.9873Z" fill="#3B86C8"/>
</svg>
