<svg width="73" height="73" viewBox="0 0 73 73" fill="none" xmlns="http://www.w3.org/2000/svg">
<g clip-path="url(#clip0_9_4776)">
<path d="M66.5 36.5C66.5 19.9315 53.0685 6.5 36.5 6.5C19.9315 6.5 6.5 19.9315 6.5 36.5C6.5 53.0685 19.9315 66.5 36.5 66.5C53.0685 66.5 66.5 53.0685 66.5 36.5Z" fill="white"/>
<path d="M66.5 36.5C66.5 19.9315 53.0685 6.5 36.5 6.5C19.9315 6.5 6.5 19.9315 6.5 36.5C6.5 53.0685 19.9315 66.5 36.5 66.5C53.0685 66.5 66.5 53.0685 66.5 36.5Z" class="svg-action-stroke" stroke-width="12"/>
<path d="M36.7739 47.3417C36.7739 47.8433 36.3673 48.2499 35.8657 48.2499H30.0078C28.0048 48.2499 26.375 46.6203 26.375 44.6171V28.6328C26.375 26.6296 28.0048 25 30.0078 25H41.1737C43.1769 25 44.8065 26.6296 44.8065 28.6328V35.6259C44.8065 36.1276 44.3999 36.5341 43.8983 36.5341C43.3966 36.5341 42.9901 36.1276 42.9901 35.6259V28.6328C42.9901 27.6313 42.1752 26.8164 41.1737 26.8164H30.0078C29.0063 26.8164 28.1914 27.6313 28.1914 28.6328V44.6171C28.1914 45.6186 29.0063 46.4335 30.0078 46.4335H35.8657C36.3673 46.4335 36.7739 46.8401 36.7739 47.3417ZM41.1787 31.7661C41.1787 32.2677 40.7721 32.6743 40.2705 32.6743H37.5913C37.0896 32.6743 36.6831 32.2677 36.6831 31.7661C36.6831 31.2644 37.0896 30.8579 37.5913 30.8579H40.2705C40.7721 30.8579 41.1787 31.2644 41.1787 31.7661ZM35.7032 29.8924L33.5835 32.4579C33.3071 32.7986 32.8981 33.0104 32.4601 33.0397C32.4253 33.042 32.3904 33.0432 32.3556 33.0432C31.9516 33.0432 31.5585 32.8873 31.2642 32.6071C31.2559 32.5993 31.2477 32.5911 31.2395 32.5828L30.2654 31.5823C29.9154 31.2229 29.9232 30.648 30.2824 30.2981C30.6418 29.9481 31.2167 29.9557 31.5666 30.3151L32.3409 31.1101L34.3028 28.7355C34.6222 28.3488 35.1948 28.2944 35.5813 28.6138C35.968 28.9333 36.0225 29.5057 35.7032 29.8924ZM40.2705 38.2597H37.5913C37.0896 38.2597 36.6831 37.8532 36.6831 37.3515C36.6831 36.8499 37.0896 36.4433 37.5913 36.4433H40.2705C40.7721 36.4433 41.1787 36.8499 41.1787 37.3515C41.1787 37.8532 40.7721 38.2597 40.2705 38.2597ZM35.7032 35.4721L33.5835 38.0378C33.3071 38.3784 32.8981 38.5904 32.4601 38.6194C32.4253 38.6218 32.3904 38.623 32.3556 38.623C31.9514 38.623 31.5585 38.4671 31.264 38.1868C31.2564 38.1795 31.2488 38.1721 31.2413 38.1645L30.2671 37.1695C29.9163 36.8112 29.9223 36.2361 30.2806 35.8853C30.6389 35.5342 31.214 35.5403 31.5649 35.8987L32.3404 36.6906L34.3028 34.3153C34.6222 33.9286 35.1948 33.8743 35.5813 34.1936C35.968 34.513 36.0225 35.0854 35.7032 35.4721ZM35.7032 40.9668L33.5835 43.5324C33.3071 43.873 32.8981 44.085 32.4601 44.1141C32.4253 44.1164 32.3904 44.1176 32.3556 44.1176C31.9514 44.1176 31.5585 43.9617 31.264 43.6814C31.2564 43.6741 31.2488 43.6667 31.2413 43.6591L30.2671 42.6641C29.9163 42.3058 29.9223 41.7307 30.2806 41.3799C30.6389 41.0288 31.214 41.0349 31.5649 41.3934L32.3404 42.1852L34.3028 39.8099C34.6222 39.4232 35.1948 39.3689 35.5813 39.6882C35.968 40.0076 36.0225 40.5801 35.7032 40.9668Z"  class="svg-action-fill2"/>
<path fill-rule="evenodd" clip-rule="evenodd" d="M44.9755 38.1489C46.0372 37.0873 47.7657 37.0873 48.8281 38.1496C49.8903 39.212 49.8903 40.9404 48.8281 42.0029L43.8523 46.9693C43.7415 47.0798 43.604 47.1598 43.4532 47.2016L39.7874 48.217C39.7074 48.2393 39.6258 48.2502 39.5451 48.2502C39.3035 48.2502 39.0681 48.1537 38.8948 47.9761C38.6637 47.7389 38.5796 47.3948 38.6759 47.0778L39.7619 43.503C39.8053 43.3599 39.8834 43.2297 39.9893 43.124L44.9755 38.1489ZM42.7382 45.5149L40.8939 46.0258L41.4337 44.2489L44.798 40.892L46.0827 42.1766L42.7382 45.5149ZM47.3682 40.8934L47.5442 40.7178C47.8977 40.3643 47.8977 39.7881 47.5437 39.4339C47.1894 39.0798 46.6133 39.0798 46.2592 39.4339L46.0838 39.609L47.3682 40.8934Z"  class="svg-action-fill"/>
</g>
<defs>
<clipPath id="clip0_9_4776">
<rect width="73" height="73" fill="white"/>
</clipPath>
</defs>
</svg>
