<svg width="73" height="72" viewBox="0 0 73 72" fill="none" xmlns="http://www.w3.org/2000/svg">
<rect x="6.5" y="6" width="60" height="60" rx="30" fill="white"/>
<path fill-rule="evenodd" clip-rule="evenodd" d="M35.3663 46.4067C35.3657 46.9088 34.9592 47.3154 34.4582 47.3154H34.4572L32.3295 47.3129C32.3224 47.3129 32.3153 47.3129 32.3082 47.3128C30.1361 47.2593 28.286 46.4916 26.9579 45.0924C25.5972 43.6586 24.8779 41.643 24.8779 39.2632C24.8779 37.5282 25.3925 35.8527 26.4073 34.2832C27.1768 33.0929 28.2349 31.9645 29.5518 30.9271C30.8687 29.8897 33.4562 28.3192 33.4562 28.3192L32.2945 25.3062C32.2541 25.2017 32.2335 25.0904 32.2335 24.9783V24.9328C32.2335 24.634 32.38 24.3541 32.6255 24.1842C32.8708 24.0144 33.1839 23.976 33.4629 24.0818C35.5067 24.857 37.4945 24.857 39.5401 24.0818C39.8191 23.9762 40.132 24.0144 40.3775 24.1842C40.6228 24.3541 40.7694 24.634 40.7694 24.9328V24.9783C40.7694 25.0904 40.7488 25.2017 40.7083 25.3062L39.4835 28.4827C39.953 28.7049 40.5978 29.0334 41.3256 29.4688C41.7563 29.7265 41.897 30.2849 41.6398 30.7165C41.3828 31.148 40.8252 31.2888 40.3947 31.0312C39.3609 30.4129 38.5145 30.0326 38.1833 29.8916H34.9122C34.8836 29.8916 34.8449 29.8948 34.7986 29.9009C34.2525 30.1355 32.479 30.9488 30.735 32.3093C28.0536 34.4008 26.6942 36.7405 26.6942 39.2632C26.6942 43.0167 28.8581 45.403 32.3424 45.4932L34.4593 45.4956C34.9608 45.4964 35.367 45.9041 35.3663 46.4067ZM35.3079 28.0718L34.6241 26.2984C35.8739 26.5384 37.1286 26.5382 38.3789 26.2983L37.695 28.0718H35.3079Z"  class="svg-action-fill"/>
<path fill-rule="evenodd" clip-rule="evenodd" d="M31.0002 33.7506C30.9898 33.7502 30.9793 33.75 30.9688 33.75C30.5028 33.75 30.125 34.1278 30.125 34.5938V34.6579V37.5H29.5625C29.0965 37.5 28.7188 37.8778 28.7188 38.3438C28.7188 38.8097 29.0965 39.1875 29.5625 39.1875H30.125V39.75H29.5625C29.0965 39.75 28.7188 40.1278 28.7188 40.5938C28.7188 41.0597 29.0965 41.4375 29.5625 41.4375H30.125V42.4688C30.125 42.9347 30.5028 43.3125 30.9688 43.3125C31.4347 43.3125 31.8125 42.9347 31.8125 42.4688V41.4375H33.5C33.966 41.4375 34.3438 41.0597 34.3438 40.5938C34.3438 40.1278 33.966 39.75 33.5 39.75H31.8125V39.1875H33.2188C34.7203 39.1875 35.9375 37.9703 35.9375 36.4688C35.9375 34.9672 34.7203 33.75 33.2188 33.75H31.0329C31.0219 33.75 31.0111 33.7502 31.0002 33.7506ZM31.8125 35.4375V37.5H33.2188C33.7883 37.5 34.25 37.0383 34.25 36.4688C34.25 35.8992 33.7883 35.4375 33.2188 35.4375H31.8125Z"  class="svg-action-fill"/>
<path d="M43.625 43C44.0391 43 44.375 42.6363 44.375 42.1875C44.375 41.7387 44.0391 41.375 43.625 41.375H42.875V40.5625C42.875 40.1137 42.5391 39.75 42.125 39.75C41.7107 39.75 41.375 40.1137 41.375 40.5625V41.375H40.625C40.2107 41.375 39.875 41.7387 39.875 42.1875C39.875 42.6363 40.2107 43 40.625 43H41.375V43.8125C41.375 44.2613 41.7107 44.625 42.125 44.625C42.5391 44.625 42.875 44.2613 42.875 43.8125V43H43.625Z"  class="svg-action-fill2"/>
<path fill-rule="evenodd" clip-rule="evenodd" d="M40.8023 37.927C40.9429 37.4236 41.4099 37.0538 41.9643 37.0538H42.125H42.2857C42.8401 37.0538 43.3071 37.4236 43.4477 37.927H40.8023ZM39.3318 37.927C39.4904 36.63 40.6085 35.625 41.9643 35.625H42.125H42.2857C43.6415 35.625 44.7596 36.63 44.9182 37.927H45.8214C46.8865 37.927 47.75 38.78 47.75 39.8321V44.5949C47.75 45.6471 46.8865 46.5 45.8214 46.5H38.4286C37.3635 46.5 36.5 45.6471 36.5 44.5949V39.8321C36.5 38.78 37.3635 37.927 38.4286 37.927H39.3318ZM37.9464 39.8321C37.9464 39.5691 38.1623 39.3558 38.4286 39.3558H45.8214C46.0877 39.3558 46.3036 39.5691 46.3036 39.8321V40.4573C46.2958 40.4723 46.2885 40.4876 46.2817 40.5032C46.1255 40.8634 45.9276 40.9624 45.8137 40.9999C45.7446 41.0227 45.6821 41.0294 45.6397 41.0305C45.6199 41.031 45.6064 41.0302 45.6011 41.0298C45.2137 40.9756 44.8513 41.2365 44.7866 41.6198C44.721 42.009 44.9871 42.3771 45.3811 42.4419L45.5 41.7372C45.3811 42.4419 45.3815 42.442 45.382 42.4421L45.3828 42.4422L45.3847 42.4425L45.3887 42.4431L45.3978 42.4445L45.4083 42.446L45.4208 42.4476C45.438 42.4497 45.4594 42.452 45.4844 42.454C45.5342 42.458 45.5995 42.4608 45.6767 42.4588C45.8302 42.455 46.0389 42.4319 46.2711 42.3554C46.2819 42.3519 46.2927 42.3482 46.3036 42.3445V44.5949C46.3036 44.8579 46.0877 45.0712 45.8214 45.0712H38.4286C38.1623 45.0712 37.9464 44.8579 37.9464 44.5949V42.3445C37.9573 42.3482 37.9681 42.3519 37.9789 42.3554C38.2111 42.4319 38.4198 42.455 38.5733 42.4588C38.6505 42.4608 38.7158 42.458 38.7656 42.454C38.7906 42.452 38.812 42.4497 38.8292 42.4476C38.8379 42.4465 38.8455 42.4455 38.8522 42.4445L38.8613 42.4431L38.8653 42.4425L38.8672 42.4422L38.868 42.4421C38.8685 42.442 38.8689 42.4419 38.75 41.7372L38.8689 42.4419C39.2629 42.3771 39.529 42.009 39.4634 41.6198C39.3987 41.2365 39.0363 40.9756 38.6489 41.0298C38.6436 41.0302 38.6301 41.031 38.6103 41.0305C38.5679 41.0294 38.5054 41.0227 38.4363 40.9999C38.3224 40.9624 38.1245 40.8634 37.9683 40.5032C37.9615 40.4876 37.9542 40.4723 37.9464 40.4573V39.8321Z"  class="svg-action-fill"/>
<rect x="6.5" y="6" width="60" height="60" rx="30"  class="svg-action-stroke" stroke-width="12"/>
</svg>
