<svg width="72" height="73" viewBox="0 0 72 73" fill="none" xmlns="http://www.w3.org/2000/svg">
<rect x="6" y="6.5" width="60" height="60" rx="30" fill="white"/>
<rect width="23.2487" height="23.2501" transform="translate(24.375 24.5)" fill="white"/>
<path d="M34.7739 46.8417C34.7739 47.3433 34.3673 47.7499 33.8657 47.7499H28.0078C26.0048 47.7499 24.375 46.1203 24.375 44.1171V28.1328C24.375 26.1296 26.0048 24.5 28.0078 24.5H39.1737C41.1769 24.5 42.8065 26.1296 42.8065 28.1328V35.1259C42.8065 35.6276 42.3999 36.0341 41.8983 36.0341C41.3966 36.0341 40.9901 35.6276 40.9901 35.1259V28.1328C40.9901 27.1313 40.1752 26.3164 39.1737 26.3164H28.0078C27.0063 26.3164 26.1914 27.1313 26.1914 28.1328V44.1171C26.1914 45.1186 27.0063 45.9335 28.0078 45.9335H33.8657C34.3673 45.9335 34.7739 46.3401 34.7739 46.8417ZM39.1787 31.2661C39.1787 31.7677 38.7721 32.1743 38.2705 32.1743H35.5913C35.0896 32.1743 34.6831 31.7677 34.6831 31.2661C34.6831 30.7644 35.0896 30.3579 35.5913 30.3579H38.2705C38.7721 30.3579 39.1787 30.7644 39.1787 31.2661ZM33.7032 29.3924L31.5835 31.9579C31.3071 32.2986 30.8981 32.5104 30.4601 32.5397C30.4253 32.542 30.3904 32.5432 30.3556 32.5432C29.9516 32.5432 29.5585 32.3873 29.2642 32.1071C29.2559 32.0993 29.2477 32.0911 29.2395 32.0828L28.2654 31.0823C27.9154 30.7229 27.9232 30.148 28.2824 29.7981C28.6418 29.4481 29.2167 29.4557 29.5666 29.8151L30.3409 30.6101L32.3028 28.2355C32.6222 27.8488 33.1948 27.7944 33.5813 28.1138C33.968 28.4333 34.0225 29.0057 33.7032 29.3924ZM38.2705 37.7597H35.5913C35.0896 37.7597 34.6831 37.3532 34.6831 36.8515C34.6831 36.3499 35.0896 35.9433 35.5913 35.9433H38.2705C38.7721 35.9433 39.1787 36.3499 39.1787 36.8515C39.1787 37.3532 38.7721 37.7597 38.2705 37.7597ZM33.7032 34.9721L31.5835 37.5378C31.3071 37.8784 30.8981 38.0904 30.4601 38.1194C30.4253 38.1218 30.3904 38.123 30.3556 38.123C29.9514 38.123 29.5585 37.9671 29.264 37.6868C29.2564 37.6795 29.2488 37.6721 29.2413 37.6645L28.2671 36.6695C27.9163 36.3112 27.9223 35.7361 28.2806 35.3853C28.6389 35.0342 29.214 35.0403 29.5649 35.3987L30.3404 36.1906L32.3028 33.8153C32.6222 33.4286 33.1948 33.3743 33.5813 33.6936C33.968 34.013 34.0225 34.5854 33.7032 34.9721ZM33.7032 40.4668L31.5835 43.0324C31.3071 43.373 30.8981 43.585 30.4601 43.6141C30.4253 43.6164 30.3904 43.6176 30.3556 43.6176C29.9514 43.6176 29.5585 43.4617 29.264 43.1814C29.2564 43.1741 29.2488 43.1667 29.2413 43.1591L28.2671 42.1641C27.9163 41.8058 27.9223 41.2307 28.2806 40.8799C28.6389 40.5288 29.214 40.5349 29.5649 40.8934L30.3404 41.6852L32.3028 39.3099C32.6222 38.9232 33.1948 38.8689 33.5813 39.1882C33.968 39.5076 34.0225 40.0801 33.7032 40.4668Z" fill="#69C055"/>
<path fill-rule="evenodd" clip-rule="evenodd" d="M42.9745 37.6497C44.0362 36.588 45.7648 36.588 46.8271 37.6504C47.8893 38.7127 47.8893 40.4411 46.8271 41.5036L41.8514 46.47C41.7405 46.5805 41.603 46.6605 41.4522 46.7024L37.7865 47.7177C37.7065 47.7401 37.6249 47.7509 37.5441 47.7509C37.3026 47.7509 37.0672 47.6544 36.8939 47.4768C36.6627 47.2397 36.5787 46.8956 36.675 46.5786L37.7609 43.0038C37.8044 42.8606 37.8824 42.7304 37.9883 42.6247L42.9745 37.6497ZM40.7372 45.0156L38.893 45.5265L39.4327 43.7497L42.797 40.3927L44.0818 41.6773L40.7372 45.0156ZM45.3673 40.3941L45.5432 40.2185C45.8967 39.865 45.8967 39.2888 45.5427 38.9346C45.1885 38.5806 44.6123 38.5806 44.2583 38.9346L44.0828 39.1097L45.3673 40.3941Z" fill="#009639"/>
<rect x="6" y="6.5" width="60" height="60" rx="30" stroke="#EDF8EA" stroke-width="12"/>
</svg>
