<svg width="56" height="57" viewBox="0 0 56 57" fill="none" xmlns="http://www.w3.org/2000/svg">
<path d="M19.1413 51.3867H7.48245C6.50483 51.3867 5.91503 50.8412 5.65055 50.5159C5.19402 49.9542 5.01729 49.2237 5.16546 48.511C7.37235 37.9116 16.4395 30.0575 27.1126 29.2127C27.4061 29.2309 27.702 29.2417 28 29.2417C35.6827 29.2417 41.9334 22.9911 41.9334 15.3083C41.9334 7.62522 35.6827 1.375 28 1.375C20.3173 1.375 14.0667 7.62522 14.0667 15.3083C14.0667 19.872 16.2723 23.9302 19.6733 26.4736C16.4851 27.5758 13.493 29.2367 10.8615 31.4014C5.83266 35.5379 2.33608 41.3071 1.01617 47.6472C0.606829 49.614 1.09729 51.6346 2.36257 53.1901C3.62081 54.7376 5.48706 55.625 7.48245 55.625H19.1413C20.3118 55.625 21.2604 54.6764 21.2604 53.5059C21.2604 52.3354 20.3118 51.3867 19.1413 51.3867ZM18.305 15.3083C18.305 9.96249 22.6542 5.61328 28 5.61328C33.3459 5.61328 37.6951 9.96249 37.6951 15.3083C37.6951 20.2151 34.0309 24.2816 29.2951 24.9169C29.2061 24.9053 29.1159 24.8975 29.024 24.8975C28.385 24.8975 27.7471 24.9198 27.1122 24.9624C22.1811 24.5125 18.305 20.355 18.305 15.3083Z" fill="#43B02A"/>
<path fill-rule="evenodd" clip-rule="evenodd" d="M34.776 32.1548C36.841 28.74 41.9087 28.7401 43.9738 32.1548L53.2866 47.5548C55.4872 51.1938 52.619 55.4062 48.6877 55.4062H30.062C26.1308 55.4062 23.2625 51.1938 25.4631 47.5548L34.776 32.1548ZM39.3749 34.4062C39.1285 34.4062 38.9728 34.5148 38.894 34.6452L29.5812 50.0452C29.5351 50.1214 29.5306 50.17 29.5312 50.1997C29.5319 50.2378 29.5435 50.2925 29.5812 50.3548C29.6534 50.4743 29.8026 50.5938 30.062 50.5938H48.6877C48.9472 50.5938 49.0963 50.4743 49.1685 50.3548C49.2062 50.2925 49.2179 50.2378 49.2186 50.1997C49.2191 50.17 49.2147 50.1214 49.1685 50.0452L39.8557 34.6452C39.7769 34.5148 39.6212 34.4063 39.3749 34.4062Z" fill="#007A33"/>
</svg>
