<svg width="56" height="57" viewBox="0 0 56 57" fill="none" xmlns="http://www.w3.org/2000/svg">
<path d="M27.0469 26.063C21.6718 26.063 17.2988 30.4359 17.2988 35.811C17.2988 38.7085 18.5701 41.3143 20.5835 43.1014V53.504C20.5835 54.215 20.94 54.8787 21.5331 55.2711C22.1263 55.6638 22.8764 55.7324 23.5308 55.4545L26.9405 54.0069L30.3503 55.4561C30.6165 55.5692 30.8983 55.625 31.179 55.625C31.5889 55.625 31.9964 55.5061 32.3484 55.2733C32.9416 54.8809 33.2983 54.217 33.2983 53.5059V43.2843C35.4342 41.4947 36.7949 38.809 36.7949 35.811C36.7949 30.4359 32.422 26.063 27.0469 26.063ZM29.0601 50.3027L27.7698 49.7543C27.2405 49.5294 26.6424 49.5292 26.1127 49.754L24.8218 50.3021V45.3026C25.5368 45.4702 26.2815 45.5591 27.0469 45.5591C27.7369 45.5591 28.4102 45.4865 29.0601 45.3495V50.3027ZM27.0469 41.3208C24.0088 41.3208 21.5371 38.8491 21.5371 35.811C21.5371 32.7729 24.0088 30.3013 27.0469 30.3013C30.085 30.3013 32.5566 32.7729 32.5566 35.811C32.5566 38.8491 30.085 41.3208 27.0469 41.3208Z" fill="#3B86C8"/>
<path d="M53.0059 33.5977H45.5889V8.18412C45.5889 4.42953 42.5343 1.375 38.7798 1.375H9.35156C4.67759 1.375 0.875 5.17759 0.875 9.85156V14.184C0.875 15.3544 1.82374 16.3032 2.99414 16.3032H8.29199V40.4731C8.29199 43.9112 10.3435 46.9849 13.5186 48.3037C13.7845 48.4141 14.0597 48.4663 14.3307 48.4663C15.1615 48.4663 15.9499 47.9746 16.2886 47.1596C16.7375 46.0788 16.2253 44.8386 15.1444 44.3896C13.5565 43.73 12.5303 42.1927 12.5303 40.4731V16.3032H33.9336C35.104 16.3032 36.0527 15.3544 36.0527 14.184V8.18412C36.0527 6.76652 37.206 5.61328 38.6236 5.61328H38.7799C40.1973 5.61328 41.3506 6.76652 41.3506 8.18412V42.1407C41.3506 43.0501 41.5311 43.9177 41.8561 44.7115H39.6553C38.4849 44.7115 37.5361 45.6603 37.5361 46.8307C37.5361 48.0011 38.4849 48.9498 39.6553 48.9498H48.3438C48.3533 48.9498 48.3624 48.9485 48.3719 48.9484C52.1007 48.9179 55.125 45.8764 55.125 42.1406V35.7168C55.125 34.5464 54.1763 33.5977 53.0059 33.5977ZM31.8145 8.18412V12.0649H5.11328V9.85156C5.11328 7.51457 7.01457 5.61328 9.35156 5.61328H32.3183C31.9935 6.40679 31.8145 7.275 31.8145 8.18412ZM50.8867 42.1406C50.8867 43.5582 49.7335 44.7114 48.3159 44.7114H48.1596C46.7421 44.7114 45.5889 43.5582 45.5889 42.1406V37.836H50.8867V42.1406Z" fill="#89B6DE"/>
</svg>
