<svg width="72" height="72" viewBox="0 0 72 72" fill="none" xmlns="http://www.w3.org/2000/svg">
<rect x="6" y="6" width="60" height="60" rx="30" fill="white"/>
<path fill-rule="evenodd" clip-rule="evenodd" d="M31.6502 26.25H30.1502C29.3112 26.25 28.8894 26.25 28.5939 26.4613L28.5897 26.4643L28.5889 26.4649C28.4934 26.5342 28.4094 26.6182 28.34 26.7137L28.3395 26.7145L28.3365 26.7187C28.1252 27.0142 28.1252 27.436 28.1252 28.275V28.8931V29.775V30.975C28.1252 31.0321 28.1252 31.0872 28.1252 31.1405C28.1252 31.1405 28.1252 31.1405 28.1252 31.1405V34.1096L33.4043 37.5976C34.0465 38.0219 34.4798 38.3072 34.8381 38.5022C35.1821 38.6894 35.3977 38.7591 35.5879 38.7826C35.7453 38.8021 35.9043 38.8034 36.0619 38.7864C36.2525 38.7659 36.4692 38.6997 36.8161 38.518C37.1776 38.3288 37.6153 38.0505 38.2643 37.6365L43.8752 34.0572V31.1931C43.8751 31.1931 43.8751 31.1931 43.875 31.193C43.8752 31.1236 43.8752 31.051 43.8752 30.975V29.775V28.9689V28.275C43.8752 27.436 43.8752 27.0142 43.6639 26.7187L43.6609 26.7145L43.6603 26.7137C43.5909 26.6182 43.5069 26.5342 43.4114 26.4649L43.4107 26.4643L43.4065 26.4613C43.111 26.25 42.6892 26.25 41.8502 26.25H40.3502H39.6132H32.1256H31.6502ZM45.7502 30.1806V29.775C45.7502 27.5252 45.7502 26.4002 45.1772 25.6116C44.9922 25.357 44.7682 25.133 44.5135 24.9479C43.7249 24.375 42.6 24.375 40.3502 24.375H31.6502C29.4003 24.375 28.2754 24.375 27.4868 24.9479C27.2321 25.133 27.0082 25.357 26.8231 25.6116C26.2502 26.4002 26.2502 27.5252 26.2502 29.775V30.1441C25.7429 30.5055 25.3414 30.851 25.0456 31.2909C24.9008 31.506 24.7777 31.7349 24.678 31.9742C24.3737 32.7046 24.3743 33.5153 24.3751 34.609L24.3752 34.7794V41.1L24.3752 41.1527C24.3751 42.2328 24.3751 43.1189 24.4522 43.8307C24.5325 44.5715 24.7052 45.2337 25.1272 45.8144C25.37 46.1487 25.664 46.4427 25.9983 46.6855C26.579 47.1075 27.2412 47.2802 27.982 47.3605C28.6937 47.4376 29.5798 47.4376 30.6599 47.4375H30.66H30.7127H41.2877H41.3403H41.3404C42.4205 47.4376 43.3066 47.4376 44.0183 47.3605C44.7591 47.2802 45.4213 47.1075 46.0021 46.6855C46.3363 46.4427 46.6303 46.1487 46.8732 45.8144C47.2951 45.2337 47.4678 44.5715 47.5481 43.8307C47.6252 43.119 47.6252 42.2329 47.6252 41.1528V41.1527V41.1V34.8354L47.6252 34.6618V34.6617C47.626 33.5481 47.6266 32.7226 47.3125 31.9821C47.2096 31.7395 47.0826 31.5079 46.9335 31.2907C46.6396 30.8627 46.2453 30.5262 45.7502 30.1806ZM26.2502 35.1181V41.1C26.2502 42.2458 26.2514 43.0299 26.3163 43.6287C26.3793 44.21 26.493 44.5045 26.6441 44.7123C26.7713 44.8874 26.9253 45.0414 27.1004 45.1686C27.3082 45.3196 27.6027 45.4334 28.184 45.4964C28.7828 45.5613 29.5669 45.5625 30.7127 45.5625H41.2877C42.4335 45.5625 43.2175 45.5613 43.8163 45.4964C44.3976 45.4334 44.6921 45.3196 44.9 45.1686C45.0751 45.0414 45.229 44.8874 45.3563 44.7123C45.5073 44.5045 45.621 44.21 45.684 43.6287C45.7489 43.0299 45.7502 42.2458 45.7502 41.1V35.0851L39.2727 39.2173L39.2396 39.2384L39.2396 39.2384L39.2394 39.2385C38.632 39.626 38.1268 39.9483 37.6858 40.1792C37.2222 40.4218 36.7714 40.5959 36.2625 40.6507C35.9615 40.683 35.6579 40.6806 35.3575 40.6434C34.8495 40.5805 34.4016 40.3992 33.942 40.1492C33.5047 39.9113 33.0046 39.5808 32.4034 39.1836L32.3707 39.162L26.2502 35.1181Z" fill="#89B6DE"/>
<path d="M30.3751 30.2669C30.3749 30.2608 30.3751 30.2731 30.3751 30.2669V30.2669ZM41.5459 30.2669C41.5008 32.4928 40.2248 34.5946 37.8564 36.36C36.7401 37.192 35.1809 37.192 34.0646 36.36C31.6962 34.5946 30.4202 32.4928 30.3751 30.2669C30.3838 27.3393 33.9533 25.8914 35.9605 28.0011C37.9688 25.8904 41.5377 27.341 41.5459 30.2669ZM39.7295 30.2322C39.6333 28.3339 36.9397 28.3561 36.8687 30.2669C36.8687 30.7685 36.4621 31.1751 35.9605 31.1751C35.4589 31.1751 35.0523 30.7685 35.0523 30.2669C34.9812 28.3553 32.2869 28.335 32.1915 30.2322C32.2385 32.3052 33.8257 33.9164 35.1501 34.9036C35.6272 35.2592 36.2937 35.2592 36.7708 34.9036C38.0953 33.9164 39.6825 32.3052 39.7295 30.2322ZM41.5459 30.2669C41.5461 30.2608 41.5459 30.2731 41.5459 30.2669V30.2669Z" fill="#3B86C8"/>
<rect x="6" y="6" width="60" height="60" rx="30" stroke="#ECF3FA" stroke-width="12"/>
</svg>
