<svg width="56" height="56" viewBox="0 0 56 56" fill="none" xmlns="http://www.w3.org/2000/svg">
<path fill-rule="evenodd" clip-rule="evenodd" d="M17.8504 5.25H14.3504C12.3928 5.25 11.4085 5.25 10.7191 5.74299L10.7093 5.75001L10.7075 5.75133C10.4846 5.91324 10.2887 6.10922 10.1268 6.33206L10.1254 6.33388L10.1184 6.34361C9.62543 7.03307 9.62543 8.01734 9.62543 9.975V11.4173V13.475V16.275C9.62543 16.4081 9.62543 16.5368 9.62558 16.6611C9.62553 16.6611 9.62548 16.6612 9.62543 16.6612V23.5891L21.9433 31.7277C23.4419 32.7178 24.4528 33.3835 25.2889 33.8384C26.0916 34.2752 26.5947 34.4379 27.0385 34.4928C27.4056 34.5383 27.7767 34.5412 28.1445 34.5017C28.5891 34.4538 29.0948 34.2992 29.9043 33.8754C30.7477 33.4339 31.7691 32.7845 33.2833 31.8186L46.3754 23.4667V16.7839C46.3753 16.7839 46.3752 16.7838 46.3751 16.7837C46.3754 16.6218 46.3754 16.4524 46.3754 16.275V13.475V11.594V9.975C46.3754 8.01737 46.3754 7.0331 45.8824 6.34364L45.8754 6.33388L45.8741 6.33206C45.7122 6.10922 45.5162 5.91324 45.2934 5.75133L45.2915 5.75001L45.2818 5.74301C44.5924 5.25 43.6081 5.25 41.6504 5.25H38.1504H36.4308H18.9597H17.8504ZM50.7504 14.4214V13.475C50.7504 8.22537 50.7504 5.60056 49.4135 3.7605C48.9818 3.16624 48.4592 2.64364 47.8649 2.21188C46.0249 0.875 43.4001 0.875 38.1504 0.875H17.8504C12.6008 0.875 9.97599 0.875 8.13593 2.21188C7.54167 2.64364 7.01907 3.16624 6.58731 3.7605C5.25043 5.60056 5.25043 8.22537 5.25043 13.475V14.3363C4.0667 15.1794 3.13001 15.9857 2.43964 17.012C2.10196 17.514 1.8147 18.0481 1.58203 18.6065C0.872015 20.3107 0.873362 22.2024 0.87518 24.7544L0.875368 25.1519V39.9001L0.875366 40.023C0.875319 42.5433 0.875281 44.6109 1.0552 46.2716C1.24248 48.0001 1.6455 49.5453 2.63002 50.9004C3.19671 51.6803 3.88262 52.3663 4.66259 52.9329C6.01767 53.9175 7.56288 54.3205 9.29141 54.5078C10.9521 54.6877 13.0196 54.6876 15.5399 54.6876H15.5399H15.6629H40.3379H40.4608H40.4609C42.9811 54.6876 45.0487 54.6877 46.7093 54.5078C48.4379 54.3205 49.9831 53.9175 51.3381 52.9329C52.1181 52.3663 52.804 51.6803 53.3707 50.9004C54.3552 49.5453 54.7583 48.0001 54.9455 46.2716C55.1255 44.6109 55.1254 42.5434 55.1254 40.0231V40.023V39.9001V25.2827L55.1256 24.8774V24.8774C55.1274 22.2789 55.1288 20.3528 54.3959 18.6249C54.1558 18.0589 53.8595 17.5184 53.5114 17.0116C52.8257 16.013 51.9058 15.2279 50.7504 14.4214ZM5.25037 25.9421V39.9001C5.25037 42.5736 5.25337 44.4031 5.40475 45.8003C5.5517 47.1566 5.81711 47.8438 6.16947 48.3288C6.46631 48.7374 6.8256 49.0967 7.23415 49.3935C7.71913 49.7458 8.40636 50.0113 9.76265 50.1582C11.1599 50.3096 12.9893 50.3126 15.6629 50.3126H40.3379C43.0114 50.3126 44.8408 50.3096 46.2381 50.1582C47.5944 50.0113 48.2816 49.7458 48.7666 49.3935C49.1751 49.0967 49.5344 48.7374 49.8313 48.3288C50.1836 47.8438 50.449 47.1566 50.596 45.8003C50.7474 44.4031 50.7504 42.5736 50.7504 39.9001V25.8652L35.6363 35.507L35.559 35.5562L35.559 35.5563L35.5587 35.5565C34.1414 36.4606 32.9624 37.2127 31.9334 37.7514C30.8519 38.3176 29.8 38.7238 28.6124 38.8516C27.9103 38.9271 27.2018 38.9214 26.5009 38.8347C25.3155 38.6879 24.2703 38.2649 23.198 37.6814C22.1776 37.1263 21.0107 36.3552 19.6079 35.4283L19.5316 35.3779L5.25037 25.9421Z" fill="#89B6DE"/>
<path d="M14.8751 14.6229C14.8748 14.6084 14.8751 14.6372 14.8751 14.6229V14.6229ZM40.9405 14.6229C40.8351 19.8164 37.8579 24.7208 32.3316 28.8399C29.7269 30.7814 26.0888 30.7814 23.484 28.8399C17.9577 24.7208 14.9806 19.8164 14.8751 14.6229C14.8956 7.79181 23.2244 4.41317 27.9078 9.33592C32.5938 4.41105 40.9212 7.79563 40.9405 14.6229ZM36.7022 14.5418C36.4776 10.1125 30.1926 10.1643 30.027 14.6229C30.027 15.7933 29.0782 16.742 27.9078 16.742C26.7374 16.742 25.7887 15.7933 25.7887 14.6229C25.6229 10.1623 19.3361 10.115 19.1134 14.5418C19.2231 19.3787 22.9266 23.1382 26.0169 25.4417C27.1301 26.2715 28.6853 26.2715 29.7986 25.4417C32.8891 23.1382 36.5926 19.3787 36.7022 14.5418ZM40.9405 14.6229C40.9408 14.6084 40.9405 14.6372 40.9405 14.6229V14.6229Z" fill="#3B86C8"/>
</svg>
