<svg width="57" height="56" viewBox="0 0 57 56" fill="none" xmlns="http://www.w3.org/2000/svg">
<path fill-rule="evenodd" clip-rule="evenodd" d="M24.0141 50.8867H12.4766C10.1396 50.8867 8.23828 48.9854 8.23828 46.6484V9.35156C8.23828 7.01457 10.1396 5.11328 12.4766 5.11328H38.5302C40.8672 5.11328 42.7685 7.01457 42.7685 9.35156V21.2188C42.7685 22.3892 43.7173 23.3379 44.8877 23.3379C46.0581 23.3379 47.0068 22.3892 47.0068 21.2188V9.35156C47.0068 4.67759 43.2042 0.875 38.5302 0.875H12.4766C7.80259 0.875 4 4.67759 4 9.35156V46.6484C4 51.3224 7.80259 55.125 12.4766 55.125H24.014C25.1844 55.125 26.1332 54.1763 26.1332 53.0059C26.1332 51.8355 25.1844 50.8867 24.0141 50.8867ZM25.9213 22.0664C27.0917 22.0664 28.0404 23.0151 28.0404 24.1855C28.0404 25.3559 27.0917 26.3047 25.9213 26.3047H14.5839C13.4135 26.3047 12.4648 25.3559 12.4648 24.1855C12.4648 23.0151 13.4135 22.0664 14.5839 22.0664H25.9213ZM12.4648 32.6621C12.4648 31.4917 13.4135 30.543 14.5839 30.543H19.1401C20.3105 30.543 21.2592 31.4917 21.2592 32.6621C21.2592 33.8325 20.3105 34.7812 19.1401 34.7812H14.5839C13.4135 34.7812 12.4648 33.8325 12.4648 32.6621ZM36.411 13.5898C37.5815 13.5898 38.5302 14.5386 38.5302 15.709C38.5302 16.8794 37.5815 17.8281 36.411 17.8281H14.5839C13.4135 17.8281 12.4648 16.8794 12.4648 15.709C12.4648 14.5386 13.4135 13.5898 14.5839 13.5898H36.411Z" fill="#89B6DE"/>
<path d="M51.1555 31.5607L40.754 26.913C40.4095 26.7589 40.0458 26.7045 39.6953 26.7371C39.3449 26.7046 38.9811 26.7592 38.6366 26.913L28.2351 31.5607C27.4719 31.9018 26.9805 32.6595 26.9805 33.4955V41.5653C26.9805 44.8797 28.2899 48.2626 30.573 50.8467C33.0108 53.6057 36.1996 55.1251 39.5523 55.1251H39.8382C43.1909 55.1251 46.3797 53.6057 48.8175 50.8467C51.1006 48.2626 52.41 44.8796 52.41 41.5653V33.4955C52.41 32.6596 51.9187 31.9018 51.1555 31.5607ZM48.1717 34.8696V41.5653C48.1717 45.9656 44.6078 50.8868 39.8381 50.8868H39.5522C34.7826 50.8868 31.2186 45.9655 31.2186 41.5653V34.8696L39.6952 31.0821L48.1718 34.8696H48.1717Z" fill="#3B86C8"/>
</svg>
