<svg width="72" height="72" viewBox="0 0 72 72" fill="none" xmlns="http://www.w3.org/2000/svg">
<rect x="6" y="6" width="60" height="60" rx="30" fill="white"/>
<path d="M46.1959 42.613C45.66 45.5172 43.1246 47.625 40.1675 47.625C36.7873 47.625 34.0371 44.8748 34.0371 41.4946C34.0371 38.1144 36.7873 35.3643 40.1675 35.3643C40.728 35.3643 41.2839 35.4402 41.8195 35.5897C42.3026 35.7245 42.5849 36.2255 42.4499 36.7086C42.3151 37.1918 41.814 37.4741 41.3309 37.3391C40.9544 37.2341 40.5629 37.1807 40.1675 37.1807C37.7888 37.1807 35.8535 39.1159 35.8535 41.4946C35.8535 43.8733 37.7888 45.8086 40.1675 45.8086C42.2485 45.8086 44.0327 44.326 44.4096 42.2835C44.5008 41.7901 44.9744 41.4639 45.4675 41.5551C45.9608 41.6461 46.2869 42.1197 46.1959 42.613ZM38.9932 40.4438C38.6384 40.089 38.0635 40.089 37.7089 40.4438C37.3542 40.7984 37.3542 41.3735 37.7088 41.7281L39.0461 43.0654C39.3554 43.3747 39.7627 43.5294 40.17 43.5294C40.5746 43.5294 40.9792 43.3767 41.288 43.071L45.2566 39.1431C45.6131 38.7902 45.616 38.2152 45.2632 37.8586C44.9104 37.5021 44.3353 37.4991 43.9787 37.8521L40.1708 41.6213L38.9932 40.4438Z"  class="svg-action-fill"/>
<path d="M32.7656 45.8086H29.1328C28.1313 45.8086 27.3164 44.9937 27.3164 43.9922V32.0493H29.9956C31.7483 32.0493 33.1743 30.6233 33.1743 28.8706C33.1743 28.369 32.7678 27.9624 32.2661 27.9624C31.7645 27.9624 31.3579 28.369 31.3579 28.8706C31.3579 29.6218 30.7468 30.2329 29.9956 30.2329H27.4721C27.5562 30.0488 27.6728 29.8789 27.8195 29.7309L30.8185 26.7053C31.142 26.3787 31.5915 26.1914 32.0513 26.1914H40.2986C41.3002 26.1914 42.115 27.0063 42.115 28.0078V32.8213C42.115 33.3229 42.5217 33.7295 43.0232 33.7295C43.5248 33.7295 43.9314 33.3229 43.9314 32.8213V28.0078C43.9314 26.0046 42.3018 24.375 40.2986 24.375H32.0513C31.1103 24.375 30.1907 24.7583 29.5284 25.4265L26.5294 28.4522C25.8656 29.122 25.5 30.0099 25.5 30.9529V43.9922C25.5 45.9954 27.1296 47.625 29.1328 47.625H32.7656C33.2673 47.625 33.6738 47.2184 33.6738 46.7168C33.6738 46.2152 33.2673 45.8086 32.7656 45.8086Z" class="svg-action-fill2"/>
<rect x="6" y="6" width="60" height="60" rx="30"  class="svg-action-stroke" stroke-width="12"/>
</svg>
