<svg width="73" height="72" viewBox="0 0 73 72" fill="none" xmlns="http://www.w3.org/2000/svg">
<rect x="6.5" y="6" width="60" height="60" rx="30" fill="white"/>
<path fill-rule="evenodd" clip-rule="evenodd" d="M32.1502 26.25H30.6502C29.8112 26.25 29.3894 26.25 29.0939 26.4613L29.0897 26.4643L29.0889 26.4649C28.9934 26.5342 28.9094 26.6182 28.84 26.7137L28.8395 26.7145L28.8365 26.7187C28.6252 27.0142 28.6252 27.436 28.6252 28.275V28.8931V29.775V30.975C28.6252 31.0321 28.6252 31.0872 28.6252 31.1405C28.6252 31.1405 28.6252 31.1405 28.6252 31.1405V34.1096L33.9043 37.5976C34.5465 38.0219 34.9798 38.3072 35.3381 38.5022C35.6821 38.6894 35.8977 38.7591 36.0879 38.7826C36.2453 38.8021 36.4043 38.8034 36.5619 38.7864C36.7525 38.7659 36.9692 38.6997 37.3161 38.518C37.6776 38.3288 38.1153 38.0505 38.7643 37.6365L44.3752 34.0572V31.1931C44.3751 31.1931 44.3751 31.1931 44.375 31.193C44.3752 31.1236 44.3752 31.051 44.3752 30.975V29.775V28.9689V28.275C44.3752 27.436 44.3752 27.0142 44.1639 26.7187L44.1609 26.7145L44.1603 26.7137C44.0909 26.6182 44.0069 26.5342 43.9114 26.4649L43.9107 26.4643L43.9065 26.4613C43.611 26.25 43.1892 26.25 42.3502 26.25H40.8502H40.1132H32.6256H32.1502ZM46.2502 30.1806V29.775C46.2502 27.5252 46.2502 26.4002 45.6772 25.6116C45.4922 25.357 45.2682 25.133 45.0135 24.9479C44.2249 24.375 43.1 24.375 40.8502 24.375H32.1502C29.9003 24.375 28.7754 24.375 27.9868 24.9479C27.7321 25.133 27.5082 25.357 27.3231 25.6116C26.7502 26.4002 26.7502 27.5252 26.7502 29.775V30.1441C26.2429 30.5055 25.8414 30.851 25.5456 31.2909C25.4008 31.506 25.2777 31.7349 25.178 31.9742C24.8737 32.7046 24.8743 33.5153 24.8751 34.609L24.8752 34.7794V41.1L24.8752 41.1527C24.8751 42.2328 24.8751 43.1189 24.9522 43.8307C25.0325 44.5715 25.2052 45.2337 25.6272 45.8144C25.87 46.1487 26.164 46.4427 26.4983 46.6855C27.079 47.1075 27.7412 47.2802 28.482 47.3605C29.1937 47.4376 30.0798 47.4376 31.1599 47.4375H31.16H31.2127H41.7877H41.8403H41.8404C42.9205 47.4376 43.8066 47.4376 44.5183 47.3605C45.2591 47.2802 45.9213 47.1075 46.5021 46.6855C46.8363 46.4427 47.1303 46.1487 47.3732 45.8144C47.7951 45.2337 47.9678 44.5715 48.0481 43.8307C48.1252 43.119 48.1252 42.2329 48.1252 41.1528V41.1527V41.1V34.8354L48.1252 34.6618V34.6617C48.126 33.5481 48.1266 32.7226 47.8125 31.9821C47.7096 31.7395 47.5826 31.5079 47.4335 31.2907C47.1396 30.8627 46.7453 30.5262 46.2502 30.1806ZM26.7502 35.1181V41.1C26.7502 42.2458 26.7514 43.0299 26.8163 43.6287C26.8793 44.21 26.993 44.5045 27.1441 44.7123C27.2713 44.8874 27.4253 45.0414 27.6004 45.1686C27.8082 45.3196 28.1027 45.4334 28.684 45.4964C29.2828 45.5613 30.0669 45.5625 31.2127 45.5625H41.7877C42.9335 45.5625 43.7175 45.5613 44.3163 45.4964C44.8976 45.4334 45.1921 45.3196 45.4 45.1686C45.5751 45.0414 45.729 44.8874 45.8563 44.7123C46.0073 44.5045 46.121 44.21 46.184 43.6287C46.2489 43.0299 46.2502 42.2458 46.2502 41.1V35.0851L39.7727 39.2173L39.7396 39.2384L39.7396 39.2384L39.7394 39.2385C39.132 39.626 38.6268 39.9483 38.1858 40.1792C37.7222 40.4218 37.2714 40.5959 36.7625 40.6507C36.4615 40.683 36.1579 40.6806 35.8575 40.6434C35.3495 40.5805 34.9016 40.3992 34.442 40.1492C34.0047 39.9113 33.5046 39.5808 32.9034 39.1836L32.8707 39.162L26.7502 35.1181Z"  class="svg-action-fill"/>
<path d="M30.8751 30.2669C30.8749 30.2608 30.8751 30.2731 30.8751 30.2669V30.2669ZM42.0459 30.2669C42.0008 32.4928 40.7248 34.5946 38.3564 36.36C37.2401 37.192 35.6809 37.192 34.5646 36.36C32.1962 34.5946 30.9202 32.4928 30.8751 30.2669C30.8838 27.3393 34.4533 25.8914 36.4605 28.0011C38.4688 25.8904 42.0377 27.341 42.0459 30.2669ZM40.2295 30.2322C40.1333 28.3339 37.4397 28.3561 37.3687 30.2669C37.3687 30.7685 36.9621 31.1751 36.4605 31.1751C35.9589 31.1751 35.5523 30.7685 35.5523 30.2669C35.4812 28.3553 32.7869 28.335 32.6915 30.2322C32.7385 32.3052 34.3257 33.9164 35.6501 34.9036C36.1272 35.2592 36.7937 35.2592 37.2708 34.9036C38.5953 33.9164 40.1825 32.3052 40.2295 30.2322ZM42.0459 30.2669C42.0461 30.2608 42.0459 30.2731 42.0459 30.2669V30.2669Z"  class="svg-action-fill2"/>
<rect x="6.5" y="6" width="60" height="60" rx="30"  class="svg-action-stroke" stroke-width="12"/>
</svg>
