<svg width="72" height="73" viewBox="0 0 72 73" fill="none" xmlns="http://www.w3.org/2000/svg">
<rect x="6" y="6.5" width="60" height="60" rx="30" fill="white"/>
<g clip-path="url(#clip0_1010_52568)">
<path d="M35.5913 35.4551C33.2877 35.4551 31.4136 37.3292 31.4136 39.6328C31.4136 40.8746 31.9584 41.9914 32.8213 42.7573V47.2155C32.8213 47.5202 32.9741 47.8047 33.2283 47.9728C33.4825 48.1411 33.804 48.1706 34.0844 48.0514L35.5457 47.4311L37.0071 48.0521C37.1211 48.1006 37.2419 48.1245 37.3622 48.1245C37.5379 48.1245 37.7126 48.0736 37.8634 47.9738C38.1176 47.8056 38.2705 47.5211 38.2705 47.2163V42.8356C39.1859 42.0687 39.769 40.9176 39.769 39.6328C39.769 37.3292 37.8949 35.4551 35.5913 35.4551ZM36.4541 45.8435L35.9011 45.6085C35.6743 45.5121 35.418 45.512 35.1909 45.6084L34.6377 45.8433V43.7006C34.9441 43.7724 35.2633 43.8105 35.5913 43.8105C35.887 43.8105 36.1756 43.7794 36.4541 43.7207V45.8435ZM35.5913 41.9941C34.2893 41.9941 33.23 40.9349 33.23 39.6328C33.23 38.3308 34.2893 37.2715 35.5913 37.2715C36.8934 37.2715 37.9526 38.3308 37.9526 39.6328C37.9526 40.9349 36.8934 41.9941 35.5913 41.9941Z" fill="#FE7333"/>
<path d="M46.7168 38.6847H43.5381V27.7932C43.5381 26.1841 42.229 24.875 40.6199 24.875H28.0078C26.0047 24.875 24.375 26.5047 24.375 28.5078V30.3646C24.375 30.8662 24.7816 31.2728 25.2832 31.2728H27.5537V41.6313C27.5537 43.1048 28.4329 44.4221 29.7937 44.9873C29.9076 45.0346 30.0256 45.057 30.1417 45.057C30.4978 45.057 30.8357 44.8462 30.9808 44.497C31.1732 44.0338 30.9537 43.5022 30.4905 43.3098C29.8099 43.0272 29.3701 42.3683 29.3701 41.6313V31.2728H38.543C39.0446 31.2728 39.4512 30.8662 39.4512 30.3646V27.7932C39.4512 27.1857 39.9454 26.6914 40.553 26.6914H40.6199C41.2274 26.6914 41.7217 27.1857 41.7217 27.7932V42.346C41.7217 42.7358 41.7991 43.1076 41.9383 43.4478H40.9951C40.4935 43.4478 40.0869 43.8544 40.0869 44.356C40.0869 44.8576 40.4935 45.2642 40.9951 45.2642H44.7188C44.7228 45.2642 44.7267 45.2637 44.7308 45.2636C46.3289 45.2505 47.625 43.947 47.625 42.346V39.5929C47.625 39.0913 47.2184 38.6847 46.7168 38.6847ZM37.6348 27.7932V29.4564H26.1914V28.5078C26.1914 27.5062 27.0062 26.6914 28.0078 26.6914H37.8507C37.7115 27.0315 37.6348 27.4036 37.6348 27.7932ZM45.8086 42.346C45.8086 42.9535 45.3144 43.4478 44.7068 43.4478H44.6398C44.0323 43.4478 43.5381 42.9535 43.5381 42.346V40.5011H45.8086V42.346Z" fill="#F8C634"/>
</g>
<rect x="6" y="6.5" width="60" height="60" rx="30" stroke="#FFF8E6" stroke-width="12"/>
<defs>
<clipPath id="clip0_1010_52568">
<rect width="24" height="24" fill="white" transform="translate(24 24.5)"/>
</clipPath>
</defs>
</svg>
