<svg width="72" height="72" viewBox="0 0 72 72" fill="none" xmlns="http://www.w3.org/2000/svg">
<rect x="6" y="6" width="60" height="60" rx="30" fill="white"/>
<path d="M35.5918 34.9551C33.2882 34.9551 31.4141 36.8292 31.4141 39.1328C31.4141 40.3746 31.9589 41.4914 32.8218 42.2573V46.7155C32.8218 47.0202 32.9746 47.3047 33.2287 47.4728C33.483 47.6411 33.8045 47.6706 34.0849 47.5514L35.5462 46.9311L37.0075 47.5521C37.1216 47.6006 37.2424 47.6245 37.3627 47.6245C37.5384 47.6245 37.713 47.5736 37.8639 47.4738C38.1181 47.3056 38.271 47.0211 38.271 46.7163V42.3356C39.1864 41.5687 39.7695 40.4176 39.7695 39.1328C39.7695 36.8292 37.8954 34.9551 35.5918 34.9551ZM36.4546 45.3435L35.9016 45.1085C35.6748 45.0121 35.4185 45.012 35.1914 45.1084L34.6382 45.3433V43.2006C34.9446 43.2724 35.2638 43.3105 35.5918 43.3105C35.8875 43.3105 36.1761 43.2794 36.4546 43.2207V45.3435ZM35.5918 41.4941C34.2898 41.4941 33.2305 40.4349 33.2305 39.1328C33.2305 37.8308 34.2898 36.7715 35.5918 36.7715C36.8938 36.7715 37.9531 37.8308 37.9531 39.1328C37.9531 40.4349 36.8938 41.4941 35.5918 41.4941Z" fill="#43B02A"/>
<path d="M46.7168 38.1847H43.5381V27.2932C43.5381 25.6841 42.229 24.375 40.6199 24.375H28.0078C26.0047 24.375 24.375 26.0047 24.375 28.0078V29.8646C24.375 30.3662 24.7816 30.7728 25.2832 30.7728H27.5537V41.1313C27.5537 42.6048 28.4329 43.9221 29.7937 44.4873C29.9076 44.5346 30.0256 44.557 30.1417 44.557C30.4978 44.557 30.8357 44.3462 30.9808 43.997C31.1732 43.5338 30.9537 43.0022 30.4905 42.8098C29.8099 42.5272 29.3701 41.8683 29.3701 41.1313V30.7728H38.543C39.0446 30.7728 39.4512 30.3662 39.4512 29.8646V27.2932C39.4512 26.6857 39.9454 26.1914 40.553 26.1914H40.6199C41.2274 26.1914 41.7217 26.6857 41.7217 27.2932V41.846C41.7217 42.2358 41.7991 42.6076 41.9383 42.9478H40.9951C40.4935 42.9478 40.0869 43.3544 40.0869 43.856C40.0869 44.3576 40.4935 44.7642 40.9951 44.7642H44.7188C44.7228 44.7642 44.7267 44.7637 44.7308 44.7636C46.3289 44.7505 47.625 43.447 47.625 41.846V39.0929C47.625 38.5913 47.2184 38.1847 46.7168 38.1847ZM37.6348 27.2932V28.9564H26.1914V28.0078C26.1914 27.0062 27.0062 26.1914 28.0078 26.1914H37.8507C37.7115 26.5315 37.6348 26.9036 37.6348 27.2932ZM45.8086 41.846C45.8086 42.4535 45.3144 42.9478 44.7068 42.9478H44.6398C44.0323 42.9478 43.5381 42.4535 43.5381 41.846V40.0011H45.8086V41.846Z" fill="#007A33"/>
<rect x="6" y="6" width="60" height="60" rx="30" stroke="#EDF8EA" stroke-width="12"/>
</svg>
