<svg width="73" height="73" viewBox="0 0 73 73" fill="none" xmlns="http://www.w3.org/2000/svg">
<rect x="6.5" y="6.5" width="60" height="60" rx="30" fill="white"/>
<g clip-path="url(#clip0_1010_53187)">
<path d="M36.0913 35.4551C33.7877 35.4551 31.9136 37.3292 31.9136 39.6328C31.9136 40.8746 32.4584 41.9914 33.3213 42.7573V47.2155C33.3213 47.5202 33.4741 47.8047 33.7283 47.9728C33.9825 48.1411 34.304 48.1706 34.5844 48.0514L36.0457 47.4311L37.5071 48.0521C37.6211 48.1006 37.7419 48.1245 37.8622 48.1245C38.0379 48.1245 38.2126 48.0736 38.3634 47.9738C38.6176 47.8056 38.7705 47.5211 38.7705 47.2163V42.8356C39.6859 42.0687 40.269 40.9176 40.269 39.6328C40.269 37.3292 38.3949 35.4551 36.0913 35.4551ZM36.9541 45.8435L36.4011 45.6085C36.1743 45.5121 35.918 45.512 35.6909 45.6084L35.1377 45.8433V43.7006C35.4441 43.7724 35.7633 43.8105 36.0913 43.8105C36.387 43.8105 36.6756 43.7794 36.9541 43.7207V45.8435ZM36.0913 41.9941C34.7893 41.9941 33.73 40.9349 33.73 39.6328C33.73 38.3308 34.7893 37.2715 36.0913 37.2715C37.3934 37.2715 38.4526 38.3308 38.4526 39.6328C38.4526 40.9349 37.3934 41.9941 36.0913 41.9941Z" class="svg-action-fill"/>
<path d="M47.2168 38.6847H44.0381V27.7932C44.0381 26.1841 42.729 24.875 41.1199 24.875H28.5078C26.5047 24.875 24.875 26.5047 24.875 28.5078V30.3646C24.875 30.8662 25.2816 31.2728 25.7832 31.2728H28.0537V41.6313C28.0537 43.1048 28.9329 44.4221 30.2937 44.9873C30.4076 45.0346 30.5256 45.057 30.6417 45.057C30.9978 45.057 31.3357 44.8462 31.4808 44.497C31.6732 44.0338 31.4537 43.5022 30.9905 43.3098C30.3099 43.0272 29.8701 42.3683 29.8701 41.6313V31.2728H39.043C39.5446 31.2728 39.9512 30.8662 39.9512 30.3646V27.7932C39.9512 27.1857 40.4454 26.6914 41.053 26.6914H41.1199C41.7274 26.6914 42.2217 27.1857 42.2217 27.7932V42.346C42.2217 42.7358 42.2991 43.1076 42.4383 43.4478H41.4951C40.9935 43.4478 40.5869 43.8544 40.5869 44.356C40.5869 44.8576 40.9935 45.2642 41.4951 45.2642H45.2188C45.2228 45.2642 45.2267 45.2637 45.2308 45.2636C46.8289 45.2505 48.125 43.947 48.125 42.346V39.5929C48.125 39.0913 47.7184 38.6847 47.2168 38.6847ZM38.1348 27.7932V29.4564H26.6914V28.5078C26.6914 27.5062 27.5062 26.6914 28.5078 26.6914H38.3507C38.2115 27.0315 38.1348 27.4036 38.1348 27.7932ZM46.3086 42.346C46.3086 42.9535 45.8144 43.4478 45.2068 43.4478H45.1398C44.5323 43.4478 44.0381 42.9535 44.0381 42.346V40.5011H46.3086V42.346Z" class="svg-action-fill"/>
</g>
<rect x="6.5" y="6.5" width="60" height="60" rx="30"  stroke-width="12" class="svg-action-stroke" />
<defs>
<clipPath id="clip0_1010_53187">
<rect width="24" height="24" fill="white" transform="translate(24.5 24.5)"/>
</clipPath>
</defs>
</svg>
