<svg width="72" height="72" viewBox="0 0 72 72" fill="none" xmlns="http://www.w3.org/2000/svg">
<rect x="6" y="6" width="60" height="60" rx="30" fill="white"/>
<path d="M45.8086 36.7972V32.4378C45.8086 31.4361 44.9937 30.6214 43.9922 30.6214H28.0078C27.0063 30.6214 26.1914 31.4361 26.1914 32.4378V36.7972H29.2339C29.7355 36.7972 30.1421 37.2037 30.1421 37.7054C30.1421 38.207 29.7355 38.6136 29.2339 38.6136H26.1914V43.0184C26.1914 44.0199 27.0063 44.8348 28.0078 44.8348H43.9922C44.9937 44.8348 45.8086 44.0199 45.8086 43.0184V42.2464C45.8086 41.7448 46.2152 41.3382 46.7168 41.3382C47.2184 41.3382 47.625 41.7448 47.625 42.2464V43.0184C47.625 45.0214 45.9954 46.6512 43.9922 46.6512H28.0078C26.0046 46.6512 24.375 45.0214 24.375 43.0184V32.4378C24.375 30.4346 26.0046 28.805 28.0078 28.805H31.9165V27.621C31.9165 26.2446 33.0361 25.125 34.4122 25.125H37.5878C38.9639 25.125 40.0835 26.2446 40.0835 27.621V28.8048H43.9922C45.9954 28.8048 47.625 30.4346 47.625 32.4376V37.7052C47.625 38.2069 47.2184 38.6134 46.7168 38.6134C46.6545 38.6134 46.5939 38.6072 46.5352 38.5953C46.4764 38.6072 46.4158 38.6134 46.3535 38.6134H42.8569C42.3553 38.6134 41.9487 38.2069 41.9487 37.7052C41.9487 37.2037 42.3553 36.797 42.8569 36.797L45.8086 36.7972ZM33.7329 28.805H38.2671V27.621C38.2671 27.2463 37.9624 26.9414 37.5878 26.9414H34.4122C34.0376 26.9414 33.7329 27.2462 33.7329 27.621V28.805Z" fill="#F8C634"/>
<path d="M35.1372 38.6133V40.8838C35.1372 41.3853 35.5438 41.792 36.0454 41.792C36.5471 41.792 36.9536 41.3854 36.9536 40.8838V38.6133H39.2241C39.7258 38.6133 40.1323 38.2067 40.1323 37.7051C40.1323 37.2034 39.7258 36.7969 39.2241 36.7969H36.9536V34.5264C36.9536 34.0247 36.5471 33.6182 36.0454 33.6182C35.5438 33.6182 35.1372 34.0247 35.1372 34.5264V36.7969H32.8667C32.3651 36.7969 31.9585 37.2034 31.9585 37.7051C31.9585 38.2067 32.3651 38.6133 32.8667 38.6133H35.1372Z" fill="#FE7333"/>
<rect x="6" y="6" width="60" height="60" rx="30" stroke="#FFF8E6" stroke-width="12"/>
</svg>
