<svg width="72" height="73" viewBox="0 0 72 73" fill="none" xmlns="http://www.w3.org/2000/svg">
<rect x="6" y="6.5" width="60" height="60" rx="30" fill="white"/>
<g clip-path="url(#clip0_1010_51135)">
<path d="M32.2034 46.3086H27.2068C26.7878 46.3086 26.535 46.0748 26.4217 45.9354C26.226 45.6947 26.1503 45.3816 26.2138 45.0761C27.1596 40.5335 31.0455 37.1675 35.6197 36.8055C35.7455 36.8133 35.8723 36.8179 36 36.8179C39.2926 36.8179 41.9715 34.139 41.9715 30.8464C41.9715 27.5537 39.2926 24.875 36 24.875C32.7074 24.875 30.0286 27.5537 30.0286 30.8464C30.0286 32.8023 30.9739 34.5415 32.4314 35.6315C31.065 36.1039 29.7827 36.8157 28.6549 37.7435C26.4997 39.5162 25.0012 41.9888 24.4355 44.7059C24.2601 45.5489 24.4703 46.4148 25.0125 47.0815C25.5518 47.7447 26.3516 48.125 27.2068 48.125H32.2034C32.705 48.125 33.1116 47.7184 33.1116 47.2168C33.1116 46.7152 32.705 46.3086 32.2034 46.3086ZM31.845 30.8464C31.845 28.5554 33.7089 26.6914 36 26.6914C38.2911 26.6914 40.155 28.5554 40.155 30.8464C40.155 32.9493 38.5847 34.6921 36.555 34.9644C36.5169 34.9594 36.4782 34.9561 36.4389 34.9561C36.165 34.9561 35.8916 34.9656 35.6195 34.9839C33.5062 34.7911 31.845 33.0093 31.845 30.8464Z" fill="#43B02A"/>
<path fill-rule="evenodd" clip-rule="evenodd" d="M38.9045 38.0664C39.7896 36.6029 41.9614 36.6029 42.8465 38.0664L46.8377 44.6664C47.7808 46.2259 46.5515 48.0312 44.8667 48.0312H36.8843C35.1995 48.0312 33.9702 46.2259 34.9133 44.6664L38.9045 38.0664ZM40.8755 39.0312C40.7699 39.0312 40.7032 39.0778 40.6694 39.1336L36.6782 45.7336C36.6584 45.7663 36.6565 45.7871 36.6568 45.7999C36.6571 45.8162 36.6621 45.8396 36.6782 45.8664C36.7092 45.9176 36.7731 45.9688 36.8843 45.9688H44.8667C44.9779 45.9688 45.0418 45.9176 45.0728 45.8664C45.089 45.8396 45.0939 45.8162 45.0942 45.7999C45.0945 45.7871 45.0926 45.7663 45.0728 45.7336L41.0816 39.1336C41.0478 39.0778 40.9811 39.0312 40.8755 39.0312Z" fill="#007A33"/>
</g>
<rect x="6" y="6.5" width="60" height="60" rx="30" stroke="#EDF8EA" stroke-width="12"/>
<defs>
<clipPath id="clip0_1010_51135">
<rect width="24" height="24" fill="white" transform="translate(24 24.5)"/>
</clipPath>
</defs>
</svg>
