<svg width="72" height="72" viewBox="0 0 72 72" fill="none" xmlns="http://www.w3.org/2000/svg">
<rect x="6" y="6" width="60" height="60" rx="30" fill="white"/>
<g clip-path="url(#clip0_1914_34551)">
<path d="M47.1196 40.4361L39.0795 26.8681C38.7527 26.3348 38.2984 25.8951 37.7594 25.5902C37.2204 25.2854 36.6143 25.1255 35.9981 25.1255C35.3819 25.1255 34.7758 25.2854 34.2368 25.5902C33.6978 25.8951 33.2436 26.3348 32.9168 26.8681L24.8808 40.4361C24.5622 40.9489 24.3872 41.5409 24.3747 42.148C24.3623 42.7551 24.513 43.3541 24.8104 43.88C25.1257 44.4488 25.5836 44.9218 26.1371 45.2504C26.6906 45.5791 27.3198 45.7515 27.9601 45.75H44.0361C44.677 45.7513 45.3067 45.5789 45.8608 45.2504C46.4149 44.9218 46.8737 44.4489 47.19 43.88C47.4852 43.3534 47.6346 42.7547 47.6222 42.1481C47.6098 41.5415 47.436 40.9497 47.1196 40.4361ZM45.3209 42.9027C45.1842 43.1282 44.9923 43.3136 44.7641 43.4404C44.536 43.5673 44.2794 43.6313 44.0196 43.6261H27.9601C27.7025 43.6287 27.4486 43.5634 27.2228 43.4367C26.9971 43.31 26.8071 43.1261 26.6712 42.9027C26.5463 42.6976 26.4802 42.4609 26.4802 42.2194C26.4802 41.9779 26.5463 41.7412 26.6712 41.5361L34.7113 27.9681C34.8525 27.7472 35.0455 27.5658 35.2727 27.4402C35.4999 27.3146 35.7542 27.2489 36.0126 27.2489C36.271 27.2489 36.5253 27.3146 36.7525 27.4402C36.9797 27.5658 37.1727 27.7472 37.314 27.9681L45.3209 41.5361C45.4554 41.7463 45.5274 41.9917 45.5281 42.2427C45.5161 42.4773 45.4447 42.7047 45.3209 42.9027Z"  class="svg-action-fill"/>
</g>
<path d="M36.0002 39.375H35.9995C35.2747 39.375 34.6875 39.9626 34.6875 40.6875C34.6875 41.4124 35.2754 42 36.0002 42C36.725 42 37.3125 41.4124 37.3125 40.6875C37.3125 39.9626 36.725 39.375 36.0002 39.375Z"  class="svg-action-fill"/>
<path d="M36 38.25C36.7249 38.25 37.3125 37.666 37.3125 36.9457V32.0543C37.3125 31.334 36.7249 30.75 36 30.75C35.2751 30.75 34.6875 31.334 34.6875 32.0543V36.9457C34.6875 37.666 35.2751 38.25 36 38.25Z"  class="svg-action-fill"/>
<rect x="6" y="6" width="60" height="60" rx="30"  class="svg-action-stroke"  stroke-width="12"/>
<defs>
<clipPath id="clip0_1914_34551">
<rect width="23.25" height="20.625" fill="white" transform="translate(24.375 25.125)"/>
</clipPath>
</defs>
</svg>
