<svg width="56" height="56" viewBox="0 0 56 56" fill="none" xmlns="http://www.w3.org/2000/svg">
<path d="M27.0469 25.563C21.6718 25.563 17.2988 29.9359 17.2988 35.311C17.2988 38.2085 18.5701 40.8143 20.5835 42.6014V53.004C20.5835 53.715 20.94 54.3787 21.5331 54.7711C22.1263 55.1638 22.8764 55.2324 23.5308 54.9545L26.9405 53.5069L30.3503 54.9561C30.6165 55.0692 30.8983 55.125 31.179 55.125C31.5889 55.125 31.9964 55.0061 32.3484 54.7733C32.9416 54.3809 33.2983 53.717 33.2983 53.0059V42.7843C35.4342 40.9947 36.7949 38.309 36.7949 35.311C36.7949 29.9359 32.422 25.563 27.0469 25.563ZM29.0601 49.8027L27.7698 49.2543C27.2405 49.0294 26.6424 49.0292 26.1127 49.254L24.8218 49.8021V44.8026C25.5368 44.9702 26.2815 45.0591 27.0469 45.0591C27.7369 45.0591 28.4102 44.9865 29.0601 44.8495V49.8027ZM27.0469 40.8208C24.0088 40.8208 21.5371 38.3491 21.5371 35.311C21.5371 32.2729 24.0088 29.8013 27.0469 29.8013C30.085 29.8013 32.5566 32.2729 32.5566 35.311C32.5566 38.3491 30.085 40.8208 27.0469 40.8208Z" fill="#43B02A"/>
<path d="M53.0059 33.0977H45.5889V7.68412C45.5889 3.92953 42.5343 0.875 38.7798 0.875H9.35156C4.67759 0.875 0.875 4.67759 0.875 9.35156V13.684C0.875 14.8544 1.82374 15.8032 2.99414 15.8032H8.29199V39.9731C8.29199 43.4112 10.3435 46.4849 13.5186 47.8037C13.7845 47.9141 14.0597 47.9663 14.3307 47.9663C15.1615 47.9663 15.9499 47.4746 16.2886 46.6596C16.7375 45.5788 16.2253 44.3386 15.1444 43.8896C13.5565 43.2301 12.5303 41.6927 12.5303 39.9731V15.8032H33.9336C35.104 15.8032 36.0527 14.8544 36.0527 13.684V7.68412C36.0527 6.26652 37.206 5.11328 38.6236 5.11328H38.7799C40.1974 5.11328 41.3506 6.26652 41.3506 7.68412V41.6407C41.3506 42.5501 41.5311 43.4177 41.8561 44.2115H39.6553C38.4849 44.2115 37.5361 45.1603 37.5361 46.3307C37.5361 47.5011 38.4849 48.4498 39.6553 48.4498H48.3438C48.3533 48.4498 48.3624 48.4485 48.3719 48.4484C52.1007 48.4179 55.125 45.3764 55.125 41.6406V35.2168C55.125 34.0464 54.1763 33.0977 53.0059 33.0977ZM31.8145 7.68412V11.5649H5.11328V9.35156C5.11328 7.01457 7.01457 5.11328 9.35156 5.11328H32.3183C31.9935 5.90679 31.8145 6.77501 31.8145 7.68412ZM50.8867 41.6406C50.8867 43.0582 49.7335 44.2114 48.3159 44.2114H48.1596C46.7421 44.2114 45.5889 43.0582 45.5889 41.6406V37.336H50.8867V41.6406Z" fill="#007A33"/>
</svg>
