<svg width="73" height="72" viewBox="0 0 73 72" fill="none" xmlns="http://www.w3.org/2000/svg">
<rect x="6.5" y="6" width="60" height="60" rx="30" fill="white"/>
<path fill-rule="evenodd" clip-rule="evenodd" d="M32.0751 24.375L32.0287 24.375C31.506 24.375 31.0408 24.3749 30.6593 24.4163C30.249 24.4607 29.8259 24.5618 29.4423 24.8405C29.2354 24.9909 29.0534 25.1728 28.9031 25.3798C28.6244 25.7634 28.5233 26.1864 28.4788 26.5967C28.4375 26.9782 28.4375 27.4434 28.4376 27.9662L28.4376 28.0125V30.2344L27.41 31.0051L27.2833 31.1C26.4664 31.7118 25.8609 32.1654 25.4689 32.7956C25.3402 33.0025 25.2311 33.2208 25.1428 33.4478C24.8738 34.1396 24.8743 34.8962 24.8749 35.9168L24.875 36.075V41.1001L24.875 41.1527C24.875 42.2329 24.875 43.119 24.9521 43.8307C25.0323 44.5715 25.2051 45.2337 25.627 45.8145C25.8699 46.1487 26.1638 46.4427 26.4981 46.6856C27.0789 47.1075 27.7411 47.2802 28.4819 47.3605C29.1936 47.4376 30.0797 47.4376 31.1598 47.4376H31.1598H31.2125H41.7875H41.8402H41.8402C42.9203 47.4376 43.8064 47.4376 44.5181 47.3605C45.2589 47.2802 45.9212 47.1075 46.5019 46.6856C46.8362 46.4427 47.1302 46.1487 47.373 45.8145C47.795 45.2337 47.9677 44.5715 48.0479 43.8307C48.1251 43.119 48.125 42.2329 48.125 41.1528V41.1527V41.1001V36.1318L48.1251 35.9702C48.1258 34.9292 48.1263 34.1575 47.8476 33.4548C47.7562 33.2243 47.6431 33.0029 47.5101 32.7937C47.1044 32.1558 46.4791 31.7036 45.6355 31.0936L45.6355 31.0936L45.5045 30.9988L44.5626 30.3167L44.5626 27.9661C44.5626 27.4434 44.5626 26.9782 44.5213 26.5967C44.4769 26.1864 44.3757 25.7634 44.097 25.3798C43.9467 25.1728 43.7647 24.9909 43.5578 24.8405C43.1742 24.5618 42.7512 24.4607 42.3409 24.4163C41.9594 24.3749 41.4941 24.375 40.9714 24.375L32.0751 24.375ZM44.5625 32.6319C44.5589 33.1465 44.1405 33.5625 43.6251 33.5625C43.1073 33.5625 42.6876 33.1428 42.6876 32.625V28.0125C42.6876 27.4292 42.6863 27.067 42.6572 26.7987C42.6304 26.5508 42.5889 26.4939 42.5804 26.4823L42.5801 26.4819C42.5454 26.4341 42.5034 26.3921 42.4557 26.3574L42.4553 26.3572C42.4437 26.3487 42.3868 26.3072 42.1389 26.2804C41.8706 26.2513 41.5084 26.25 40.9251 26.25H32.0751C31.4917 26.25 31.1295 26.2513 30.8612 26.2804C30.6134 26.3072 30.5564 26.3487 30.5448 26.3571L30.5444 26.3574C30.4967 26.3921 30.4547 26.4341 30.42 26.4819L30.4197 26.4823C30.4112 26.4939 30.3698 26.5508 30.3429 26.7987C30.3139 27.067 30.3126 27.4292 30.3126 28.0125V32.625C30.3126 33.1428 29.8928 33.5625 29.3751 33.5625C28.8573 33.5625 28.4376 33.1428 28.4376 32.625V32.5782C27.9715 32.9284 27.6698 33.1608 27.4627 33.3416L33.9041 37.5976C34.5464 38.0219 34.9796 38.3072 35.338 38.5022C35.682 38.6894 35.8976 38.7591 36.0878 38.7827C36.2451 38.8021 36.4042 38.8034 36.5618 38.7865C36.7523 38.766 36.969 38.6997 37.316 38.5181C37.6774 38.3289 38.1152 38.0505 38.7641 37.6366L45.4983 33.3407C45.2934 33.1687 45.0013 32.9507 44.5625 32.6319ZM26.7576 35.1231C26.7515 35.3699 26.75 35.6785 26.75 36.075V41.1001C26.75 42.2459 26.7513 43.0299 26.8162 43.6287C26.8792 44.21 26.9929 44.5045 27.1439 44.7124C27.2711 44.8875 27.4251 45.0414 27.6002 45.1687C27.8081 45.3197 28.1026 45.4334 28.6839 45.4964C29.2827 45.5613 30.0667 45.5626 31.2125 45.5626H41.7875C42.9333 45.5626 43.7174 45.5613 44.3162 45.4964C44.8974 45.4334 45.192 45.3197 45.3998 45.1687C45.5749 45.0414 45.7289 44.8875 45.8561 44.7124C46.0071 44.5045 46.1209 44.21 46.1839 43.6287C46.2487 43.0299 46.25 42.2459 46.25 41.1001V36.1318C46.25 35.6893 46.2481 35.3541 46.2403 35.0913L39.7725 39.2173L39.7394 39.2384L39.7394 39.2384L39.7393 39.2385C39.1319 39.626 38.6266 39.9484 38.1856 40.1792C37.7221 40.4219 37.2713 40.596 36.7623 40.6507C36.4614 40.6831 36.1578 40.6806 35.8574 40.6435C35.3494 40.5806 34.9014 40.3993 34.4418 40.1492C34.0045 39.9113 33.5044 39.5809 32.9032 39.1836L32.8705 39.162L26.7576 35.1231Z" fill="#F8C634"/>
<path d="M35.5537 32.7451V35.0156C35.5537 35.5171 35.9603 35.9238 36.4619 35.9238C36.9636 35.9238 37.3701 35.5173 37.3701 35.0156V32.7451H39.6406C40.1423 32.7451 40.5488 32.3386 40.5488 31.8369C40.5488 31.3353 40.1423 30.9287 39.6406 30.9287H37.3701V28.6582C37.3701 28.1566 36.9636 27.75 36.4619 27.75C35.9603 27.75 35.5537 28.1566 35.5537 28.6582V30.9287H33.2832C32.7816 30.9287 32.375 31.3353 32.375 31.8369C32.375 32.3386 32.7816 32.7451 33.2832 32.7451H35.5537Z" fill="#FE7333"/>
<rect x="6.5" y="6" width="60" height="60" rx="30" stroke="#FFF8E6" stroke-width="12"/>
</svg>
