<svg width="56" height="57" viewBox="0 0 56 57" fill="none" xmlns="http://www.w3.org/2000/svg">
<rect width="54.2471" height="54.2503" transform="translate(0.875 0.5)" fill="white"/>
<path d="M25.1391 52.6307C25.1391 53.8011 24.1904 54.7498 23.0199 54.7498H9.35153C4.67785 54.7498 0.875 50.9474 0.875 46.2733V8.97653C0.875 4.30244 4.67785 0.5 9.35153 0.5H35.4053C40.0794 0.5 43.8818 4.30244 43.8818 8.97653V25.2938C43.8818 26.4643 42.9332 27.413 41.7627 27.413C40.5922 27.413 39.6435 26.4643 39.6435 25.2938V8.97653C39.6435 6.63969 37.7421 4.73826 35.4053 4.73826H9.35153C7.01469 4.73826 5.11326 6.63969 5.11326 8.97653V46.2733C5.11326 48.6101 7.01469 50.5115 9.35153 50.5115H23.0199C24.1904 50.5115 25.1391 51.4602 25.1391 52.6307ZM35.4169 16.2875C35.4169 17.458 34.4682 18.4067 33.2977 18.4067H27.0463C25.8758 18.4067 24.9272 17.458 24.9272 16.2875C24.9272 15.117 25.8758 14.1684 27.0463 14.1684H33.2977C34.4682 14.1684 35.4169 15.117 35.4169 16.2875ZM22.6408 11.9156L17.6948 17.9017C17.0499 18.6968 16.0955 19.191 15.0736 19.2593C14.9925 19.2647 14.9109 19.2676 14.8298 19.2676C13.887 19.2676 12.9698 18.9038 12.2831 18.2498C12.2637 18.2316 12.2446 18.2126 12.2256 18.1931L9.9525 15.8587C9.13589 15.0202 9.1541 13.6788 9.99224 12.8622C10.8308 12.0455 12.1722 12.0633 12.9888 12.9019L14.7955 14.757L19.3731 9.21617C20.1185 8.31389 21.4546 8.18682 22.3565 8.93224C23.2587 9.67766 23.3858 11.0133 22.6408 11.9156ZM33.2977 31.4393H27.0463C25.8758 31.4393 24.9272 30.4907 24.9272 29.3202C24.9272 28.1497 25.8758 27.2011 27.0463 27.2011H33.2977C34.4682 27.2011 35.4169 28.1497 35.4169 29.3202C35.4169 30.4907 34.4682 31.4393 33.2977 31.4393ZM22.6408 24.935L17.6948 30.9216C17.0499 31.7162 16.0955 32.2108 15.0736 32.2787C14.9925 32.2841 14.9109 32.287 14.8298 32.287C13.8866 32.287 12.9698 31.9232 12.2827 31.2692C12.2649 31.2523 12.2471 31.2349 12.2297 31.2171L9.95664 28.8955C9.13796 28.0595 9.15203 26.7176 9.9881 25.899C10.8242 25.0799 12.166 25.0939 12.9847 25.9304L14.7942 27.778L19.3731 22.2356C20.1185 21.3333 21.4546 21.2067 22.3565 21.9517C23.2587 22.6971 23.3858 24.0327 22.6408 24.935ZM22.6408 37.7558L17.6948 43.7423C17.0499 44.537 16.0955 45.0316 15.0736 45.0995C14.9925 45.1048 14.9109 45.1077 14.8298 45.1077C13.8866 45.1077 12.9698 44.7439 12.2827 44.09C12.2649 44.073 12.2471 44.0556 12.2297 44.0378L9.95664 41.7163C9.13796 40.8802 9.15203 39.5384 9.9881 38.7197C10.8242 37.9006 12.166 37.9147 12.9847 38.7512L14.7942 40.5988L19.3731 35.0563C20.1185 34.1541 21.4546 34.0274 22.3565 34.7724C23.2587 35.5178 23.3858 36.8535 22.6408 37.7558Z" fill="#69C055"/>
<path fill-rule="evenodd" clip-rule="evenodd" d="M44.2739 31.1809C46.7511 28.7037 50.7845 28.7037 53.2633 31.1826C55.7417 33.6614 55.7417 37.6943 53.2633 40.1735L41.6532 51.7617C41.3945 52.0196 41.0737 52.2062 40.7219 52.3039L32.1684 54.6731C31.9817 54.7252 31.7913 54.7504 31.603 54.7504C31.0393 54.7504 30.4901 54.5253 30.0857 54.111C29.5464 53.5576 29.3502 52.7547 29.5749 52.015L32.1088 43.6738C32.2102 43.3398 32.3923 43.036 32.6394 42.7894L44.2739 31.1809ZM39.0535 48.3682L34.7503 49.5602L36.0097 45.4143L43.8596 37.5813L46.8575 40.5788L39.0535 48.3682ZM49.8569 37.5846L50.2675 37.1749C51.0924 36.35 51.0924 35.0057 50.2663 34.1791C49.4397 33.353 48.0954 33.353 47.2693 34.1791L46.8599 34.5877L49.8569 37.5846Z" fill="#009639"/>
</svg>
