<svg width="57" height="57" viewBox="0 0 57 57" fill="none" xmlns="http://www.w3.org/2000/svg">
<rect width="54.2471" height="54.2503" transform="translate(1.375 0.5)" fill="white"/>
<path d="M25.6391 52.6307C25.6391 53.8011 24.6904 54.7498 23.5199 54.7498H9.85153C5.17785 54.7498 1.375 50.9473 1.375 46.2733V8.97653C1.375 4.30244 5.17785 0.5 9.85153 0.5H35.9053C40.5794 0.5 44.3818 4.30244 44.3818 8.97653V25.2938C44.3818 26.4643 43.4332 27.413 42.2627 27.413C41.0922 27.413 40.1435 26.4643 40.1435 25.2938V8.97653C40.1435 6.63969 38.2421 4.73826 35.9053 4.73826H9.85153C7.51469 4.73826 5.61326 6.63969 5.61326 8.97653V46.2733C5.61326 48.6101 7.51469 50.5115 9.85153 50.5115H23.5199C24.6904 50.5115 25.6391 51.4602 25.6391 52.6307ZM35.9169 16.2875C35.9169 17.458 34.9682 18.4067 33.7977 18.4067H27.5463C26.3758 18.4067 25.4272 17.458 25.4272 16.2875C25.4272 15.117 26.3758 14.1684 27.5463 14.1684H33.7977C34.9682 14.1684 35.9169 15.117 35.9169 16.2875ZM23.1408 11.9156L18.1948 17.9017C17.5499 18.6968 16.5955 19.191 15.5736 19.2593C15.4925 19.2647 15.4109 19.2676 15.3298 19.2676C14.387 19.2676 13.4698 18.9038 12.7831 18.2498C12.7637 18.2316 12.7446 18.2126 12.7256 18.1931L10.4525 15.8587C9.63589 15.0202 9.6541 13.6788 10.4922 12.8622C11.3308 12.0455 12.6722 12.0633 13.4888 12.9019L15.2955 14.757L19.8731 9.21617C20.6185 8.31389 21.9546 8.18682 22.8565 8.93224C23.7587 9.67766 23.8858 11.0133 23.1408 11.9156ZM33.7977 31.4393H27.5463C26.3758 31.4393 25.4272 30.4907 25.4272 29.3202C25.4272 28.1497 26.3758 27.2011 27.5463 27.2011H33.7977C34.9682 27.2011 35.9169 28.1497 35.9169 29.3202C35.9169 30.4907 34.9682 31.4393 33.7977 31.4393ZM23.1408 24.935L18.1948 30.9216C17.5499 31.7162 16.5955 32.2108 15.5736 32.2787C15.4925 32.2841 15.4109 32.287 15.3298 32.287C14.3866 32.287 13.4698 31.9232 12.7827 31.2692C12.7649 31.2523 12.7471 31.2349 12.7297 31.2171L10.4566 28.8955C9.63796 28.0595 9.65203 26.7176 10.4881 25.899C11.3242 25.0799 12.666 25.0939 13.4847 25.9304L15.2942 27.778L19.8731 22.2356C20.6185 21.3333 21.9546 21.2067 22.8565 21.9517C23.7587 22.6971 23.8858 24.0327 23.1408 24.935ZM23.1408 37.7558L18.1948 43.7423C17.5499 44.537 16.5955 45.0316 15.5736 45.0995C15.4925 45.1048 15.4109 45.1077 15.3298 45.1077C14.3866 45.1077 13.4698 44.7439 12.7827 44.09C12.7649 44.073 12.7471 44.0556 12.7297 44.0378L10.4566 41.7163C9.63796 40.8802 9.65203 39.5384 10.4881 38.7197C11.3242 37.9006 12.666 37.9147 13.4847 38.7512L15.2942 40.5988L19.8731 35.0563C20.6185 34.1541 21.9546 34.0274 22.8565 34.7724C23.7587 35.5178 23.8858 36.8535 23.1408 37.7558Z" fill="#3D348B"/>
<path fill-rule="evenodd" clip-rule="evenodd" d="M44.7739 31.1809C47.2511 28.7037 51.2845 28.7037 53.7633 31.1826C56.2417 33.6614 56.2417 37.6943 53.7633 40.1735L42.1532 51.7617C41.8945 52.0196 41.5737 52.2062 41.2219 52.3039L32.6684 54.6731C32.4817 54.7252 32.2913 54.7505 32.103 54.7505C31.5393 54.7505 30.9901 54.5253 30.5857 54.111C30.0464 53.5576 29.8502 52.7547 30.0749 52.015L32.6088 43.6738C32.7102 43.3398 32.8923 43.036 33.1394 42.7894L44.7739 31.1809ZM39.5535 48.3682L35.2503 49.5602L36.5097 45.4143L44.3596 37.5813L47.3575 40.5788L39.5535 48.3682ZM50.3569 37.5846L50.7675 37.1749C51.5924 36.35 51.5924 35.0057 50.7663 34.1791C49.9397 33.353 48.5954 33.353 47.7693 34.1791L47.3599 34.5877L50.3569 37.5846Z" fill="#645DA2"/>
</svg>
