<svg width="57" height="57" viewBox="0 0 57 57" fill="none" xmlns="http://www.w3.org/2000/svg">
<path d="M27.5469 26.063C22.1718 26.063 17.7988 30.4359 17.7988 35.811C17.7988 38.7085 19.0701 41.3143 21.0835 43.1014V53.504C21.0835 54.215 21.44 54.8787 22.0331 55.2711C22.6263 55.6638 23.3764 55.7324 24.0308 55.4545L27.4405 54.0069L30.8503 55.4561C31.1165 55.5692 31.3983 55.625 31.679 55.625C32.0889 55.625 32.4964 55.5061 32.8484 55.2733C33.4416 54.8809 33.7983 54.217 33.7983 53.5059V43.2843C35.9342 41.4947 37.2949 38.809 37.2949 35.811C37.2949 30.4359 32.922 26.063 27.5469 26.063ZM29.5601 50.3027L28.2698 49.7543C27.7405 49.5294 27.1424 49.5292 26.6127 49.754L25.3218 50.3021V45.3026C26.0368 45.4702 26.7815 45.5591 27.5469 45.5591C28.2369 45.5591 28.9102 45.4865 29.5601 45.3495V50.3027ZM27.5469 41.3208C24.5088 41.3208 22.0371 38.8491 22.0371 35.811C22.0371 32.7729 24.5088 30.3013 27.5469 30.3013C30.585 30.3013 33.0566 32.7729 33.0566 35.811C33.0566 38.8491 30.585 41.3208 27.5469 41.3208Z" fill="#645DA2"/>
<path d="M53.5059 33.5977H46.0889V8.18412C46.0889 4.42953 43.0343 1.375 39.2798 1.375H9.85156C5.17759 1.375 1.375 5.17759 1.375 9.85156V14.184C1.375 15.3544 2.32374 16.3032 3.49414 16.3032H8.79199V40.4731C8.79199 43.9112 10.8435 46.9849 14.0186 48.3037C14.2845 48.4141 14.5597 48.4663 14.8307 48.4663C15.6615 48.4663 16.4499 47.9746 16.7886 47.1596C17.2375 46.0788 16.7253 44.8386 15.6444 44.3896C14.0565 43.73 13.0303 42.1927 13.0303 40.4731V16.3032H34.4336C35.604 16.3032 36.5527 15.3544 36.5527 14.184V8.18412C36.5527 6.76652 37.706 5.61328 39.1236 5.61328H39.2799C40.6973 5.61328 41.8506 6.76652 41.8506 8.18412V42.1407C41.8506 43.0501 42.0311 43.9177 42.3561 44.7115H40.1553C38.9849 44.7115 38.0361 45.6603 38.0361 46.8307C38.0361 48.0011 38.9849 48.9498 40.1553 48.9498H48.8438C48.8533 48.9498 48.8624 48.9485 48.8719 48.9484C52.6007 48.9179 55.625 45.8764 55.625 42.1406V35.7168C55.625 34.5464 54.6763 33.5977 53.5059 33.5977ZM32.3145 8.18412V12.0649H5.61328V9.85156C5.61328 7.51457 7.51457 5.61328 9.85156 5.61328H32.8183C32.4935 6.40679 32.3145 7.275 32.3145 8.18412ZM51.3867 42.1406C51.3867 43.5582 50.2335 44.7114 48.8159 44.7114H48.6596C47.2421 44.7114 46.0889 43.5582 46.0889 42.1406V37.836H51.3867V42.1406Z" fill="#3D348B"/>
</svg>
