<svg width="182" height="182" viewBox="0 0 182 182" fill="none" xmlns="http://www.w3.org/2000/svg">
<path d="M74.0869 14.4534L74.1824 14.4272L74.2195 14.3355C75.5146 11.1344 77.7362 8.39302 80.5995 6.46274C83.4627 4.53247 86.8372 3.50124 90.2904 3.50124C93.7435 3.50124 97.118 4.53247 99.9813 6.46274C102.845 8.39302 105.066 11.1344 106.361 14.3355L106.398 14.4271L106.494 14.4533C119.417 18.0076 130.817 25.7061 138.942 36.3666C147.067 47.027 151.467 60.0599 151.468 73.4636V114.648V114.708L151.502 114.759L167.565 138.854L167.731 138.743L167.565 138.854C168.426 140.144 168.92 141.644 168.996 143.194C169.071 144.743 168.724 146.284 167.992 147.652C167.261 149.019 166.171 150.163 164.84 150.96C163.51 151.757 161.987 152.178 160.436 152.178H120.672H120.499L120.474 152.349C119.425 159.606 115.797 166.243 110.254 171.043C104.71 175.842 97.623 178.484 90.2904 178.484C82.9577 178.484 75.8705 175.842 70.3271 171.043C64.7837 166.243 61.1553 159.606 60.1064 152.349L60.0816 152.178H59.9085H20.1445C18.5933 152.178 17.0711 151.757 15.7404 150.96C14.4096 150.163 13.3202 149.019 12.5884 147.652C11.8566 146.284 11.5098 144.743 11.5851 143.194C11.6604 141.644 12.1548 140.144 13.0157 138.854L13.0158 138.854L29.0792 114.759L29.1128 114.708V114.648V73.4635C29.1128 45.2871 48.165 21.55 74.0869 14.4534ZM77.8833 152.378V152.381L77.7035 152.444C78.6228 155.049 80.3275 157.305 82.5827 158.901C84.8378 160.496 87.5323 161.353 90.2948 161.353C93.0573 161.353 95.7518 160.496 98.0069 158.901C100.262 157.305 101.967 155.049 102.886 152.444L102.98 152.178H102.697H78.0336H77.8921H77.8833V152.378ZM36.3659 134.73L36.1587 135.041H36.5324H144.04H144.413L144.206 134.73L135.762 122.06C134.826 120.651 134.329 118.997 134.332 117.305V117.305V73.4635C134.332 61.7831 129.691 50.5811 121.432 42.3217C113.173 34.0624 101.971 29.4224 90.2904 29.4224C78.6099 29.4224 67.4079 34.0624 59.1486 42.3217C50.8893 50.5811 46.2492 61.7831 46.2492 73.4635V117.305C46.2496 118.997 45.7487 120.652 44.8098 122.06L44.9762 122.171L44.8097 122.06L36.3659 134.73Z" fill="#FDF1CC" stroke="white" stroke-width="0.4"/>
</svg>
