<svg width="12" height="9" viewBox="0 0 12 9" fill="none" xmlns="http://www.w3.org/2000/svg">
<path d="M9.31664 3.90082C9.31808 3.90245 9.31955 3.90405 9.32103 3.90565C9.57608 4.18289 9.57608 4.63396 9.31969 4.91265L6.89005 7.56892C6.63532 7.8474 6.63653 8.29759 6.89273 8.57446C7.14893 8.8513 7.5631 8.85002 7.81783 8.57155L10.2461 5.91673C11.5904 4.57174 11.561 4.21459 10.2485 2.90271L7.82084 0.213128C7.69275 0.0711708 7.52339 3.33786e-05 7.35387 3.33786e-05C7.18857 3.33786e-05 7.0231 0.0677233 6.89584 0.203494C6.63794 0.478521 6.63398 0.928711 6.88701 1.209L9.31664 3.90082Z" fill="#878B8F" fill-opacity="0.7"/>
<path d="M0.654184 5.12024H9.07705C9.43834 5.12024 9.7312 4.80191 9.7312 4.40921C9.7312 4.01651 9.43834 3.69818 9.07705 3.69818H0.654184C0.292898 3.69818 3.62396e-05 4.01651 3.62396e-05 4.40921C3.62396e-05 4.80191 0.292898 5.12024 0.654184 5.12024Z" fill="#878B8F" fill-opacity="0.7"/>
</svg>
