<svg width="15" height="13" viewBox="0 0 15 13" fill="none" xmlns="http://www.w3.org/2000/svg">
<path d="M12.9352 5.80285C12.9372 5.80509 12.9392 5.80729 12.9413 5.80949C13.2916 6.19025 13.2916 6.80978 12.9394 7.19255L9.60245 10.8408C9.25259 11.2233 9.25426 11.8416 9.60613 12.2218C9.958 12.6021 10.5268 12.6003 10.8767 12.2178L14.2118 8.5716C15.2616 7.43054 15.2627 5.57458 14.2151 4.432L10.8808 0.738004C10.7049 0.543033 10.4723 0.445328 10.2395 0.445328C10.0124 0.445328 9.78519 0.538297 9.6104 0.724771C9.25619 1.10251 9.25075 1.72082 9.59827 2.10578L12.9352 5.80285Z" fill="#363D44" fill-opacity="0.4"/>
<path d="M1.04102 7.47656H12.6094C13.1056 7.47656 13.5078 7.03936 13.5078 6.5C13.5078 5.96064 13.1056 5.52344 12.6094 5.52344H1.04102C0.544808 5.52344 0.142578 5.96064 0.142578 6.5C0.142578 7.03936 0.544808 7.47656 1.04102 7.47656Z" fill="#363D44" fill-opacity="0.4"/>
</svg>
