<svg width="426" height="178" viewBox="0 0 426 178" fill="none" xmlns="http://www.w3.org/2000/svg">
<path d="M166.31 176.883L420.034 94.2809L420.441 91.3201L152.138 173.247" stroke="#9B9B9A" stroke-miterlimit="10" stroke-linecap="round"/>
<path d="M368.498 78.7633L349.784 65.3672L322.159 70.2607" stroke="#9B9B9A" stroke-miterlimit="10" stroke-linecap="round"/>
<path d="M355.736 69.1653C356.665 68.1655 358.084 68.0131 358.988 68.7589C359.801 69.4132 360.059 70.6447 359.598 71.7604" stroke="#9B9B9A" stroke-miterlimit="10" stroke-linecap="round"/>
<path d="M324.321 71.9067L366.512 79.1047L366.555 93.021L324.321 97.5934V71.9067Z" fill="white" stroke="#9D9D9C" stroke-miterlimit="10"/>
<path d="M366.555 93.021L387.924 95.0532L367.746 99.1826L344.93 95.3519" stroke="#9B9B9A" stroke-miterlimit="10" stroke-linecap="round"/>
<path d="M354.21 94.3318L354.18 79.2774L365.397 80.8584L365.445 92.8341" stroke="#9B9B9A" stroke-miterlimit="10" stroke-linecap="round"/>
<path d="M368.246 78.8059L366.62 78.7633L348.893 66.1902L323.754 70.7158" stroke="#9D9D9C" stroke-width="0.75" stroke-miterlimit="10" stroke-linecap="round"/>
<path d="M354.21 80.6918L364.098 81.9477C364.126 85.691 364.154 89.4336 364.181 93.1755L354.21 94.3318V80.6918Z" fill="white" stroke="#9B9B9A" stroke-miterlimit="10" stroke-linecap="round"/>
<path d="M344.578 78.6231L327.506 76.2048L327.366 88.091L344.395 88.404C344.455 85.1443 344.516 81.8841 344.578 78.6231Z" stroke="#9B9B9A" stroke-miterlimit="10" stroke-linecap="round"/>
<path d="M346.542 79.5071L346.463 95.1873L351.214 94.6732C351.214 89.8271 351.214 84.9811 351.214 80.135L346.542 79.5071Z" stroke="#9B9B9A" stroke-miterlimit="10" stroke-linecap="round"/>
<path d="M347.17 80.4601V92.5272L350.554 92.324C350.554 88.5143 350.547 84.704 350.533 80.893L347.17 80.4601Z" fill="white" stroke="#9B9B9A" stroke-width="0.75" stroke-miterlimit="10" stroke-linecap="round"/>
<path d="M343.81 79.0782L327.508 76.855C327.463 80.5997 327.419 84.345 327.376 88.0909L343.719 88.4039L343.81 79.0782Z" fill="white" stroke="#9B9B9A" stroke-width="0.75" stroke-miterlimit="10" stroke-linecap="round"/>
<path d="M336.64 78.2715V88.1905" stroke="#9B9B9A" stroke-miterlimit="10" stroke-linecap="round"/>
<path d="M336.018 78.1191V88.1967" stroke="#9B9B9A" stroke-miterlimit="10" stroke-linecap="round"/>
<path d="M349.784 65.3672L310.281 66.9299L297.359 72.2441L318.368 70.8988L349.784 65.3672Z" stroke="#9B9B9A" stroke-width="0.75" stroke-miterlimit="10"/>
<path d="M352.57 91.4055L354.21 91.3099" stroke="#9B9B9A" stroke-miterlimit="10" stroke-linecap="round"/>
<path d="M347.046 74.8147V69.275L350.907 70.2749C350.895 72.0212 350.884 73.7668 350.873 75.5118L347.046 74.8147Z" stroke="#9B9B9A" stroke-miterlimit="10" stroke-linecap="round"/>
<path d="M349.93 100.611L350.916 99.7983" stroke="#9B9B9A" stroke-miterlimit="10" stroke-linecap="round"/>
<path d="M350.601 100.541L350.915 100.239" stroke="#9B9B9A" stroke-miterlimit="10" stroke-linecap="round"/>
<path d="M335.459 98.4888L335.844 98.1563" stroke="#9B9B9A" stroke-miterlimit="10" stroke-linecap="round"/>
<path d="M335.294 99.1744L336.597 98.0933" stroke="#9B9B9A" stroke-miterlimit="10" stroke-linecap="round"/>
<path d="M324.321 92.7508L346.475 91.6839C346.475 92.8503 346.469 94.0161 346.459 95.1812L324.317 97.5873L324.321 92.7508Z" fill="white" stroke="#9D9D9C" stroke-miterlimit="10" stroke-linecap="round"/>
<path d="M351.214 94.6732L354.21 94.3318V91.3099L351.208 91.4684L351.214 94.6732Z" fill="white" stroke="#9B9B9A" stroke-miterlimit="10" stroke-linecap="round"/>
<path d="M41.5206 165.074L414.685 89.4423L420.437 91.6777" stroke="#9B9B9A" stroke-miterlimit="10" stroke-linecap="round"/>
<path d="M241.512 50.1238L172.891 1L71.5945 18.9401" stroke="#9B9B9A" stroke-miterlimit="10" stroke-linecap="round"/>
<path d="M194.719 14.9184C198.126 11.2604 203.329 10.6935 206.674 13.4145C209.627 15.8145 210.601 20.3239 208.942 24.4188" stroke="#9B9B9A" stroke-miterlimit="10" stroke-linecap="round"/>
<path d="M269.126 59.0959C268.923 56.387 267.97 47.1446 262.867 41.1152C260.749 38.6075 258.294 37.1138 255.739 36.4595C249.355 34.8439 242.989 39.1724 239.744 42.9726C238.705 44.1906 237.828 45.5384 237.136 46.9821L240.591 50.2681L234.6 50.1157C233.328 55.7778 232.432 61.5176 231.917 67.2977C231.634 70.4618 231.478 73.4918 231.421 76.3734C230.659 74.9021 228.856 71.8681 225.807 70.3765C225.187 70.0737 219.663 67.5314 214.698 73.185C210.21 78.2898 209.721 86.0507 209.651 87.4102C209.518 90.0041 209.751 92.6038 210.345 95.1325L220.155 95.669L282.496 99.9386L310.543 99.7618C312.057 94.6233 312.602 89.2484 312.151 83.9108C312.001 82.2281 310.911 70.031 306.153 67.9359C301.43 65.8549 296.883 75.4021 293.457 72.6485C291.709 71.2422 291.237 67.4278 291.13 64.2698C291.13 63.2537 291.109 55.1677 286.705 50.0893C286.095 49.3739 281.689 44.4947 276.262 47.5267C271.002 50.4815 269.285 58.3115 269.126 59.0959Z" fill="white" stroke="#9D9D9C" stroke-miterlimit="10"/>
<path d="M79.527 24.9797L234.234 51.3716C234.287 68.3809 234.338 85.3902 234.388 102.399L79.527 119.169V24.9797Z" fill="#E7F4F5" stroke="#9D9D9C" stroke-miterlimit="10"/>
<path d="M234.388 102.4L297.148 113.073L215.308 129.799L158.032 110.634" stroke="#9B9B9A" stroke-miterlimit="10" stroke-linecap="round"/>
<path d="M189.124 107.21L189.004 52.0056L230.145 57.7973C230.204 72.429 230.262 87.0674 230.319 101.713" stroke="#9B9B9A" stroke-miterlimit="10" stroke-linecap="round"/>
<path d="M240.591 50.2782L234.6 50.1258L169.594 4.0198L77.4724 20.6085" stroke="#9D9D9C" stroke-miterlimit="10" stroke-linecap="round"/>
<path d="M189.124 57.1877L225.385 61.7987C225.488 75.5199 225.591 89.2425 225.694 102.967L189.124 107.21V57.1877Z" fill="white" stroke="#9B9B9A" stroke-miterlimit="10" stroke-linecap="round"/>
<path d="M153.808 49.6097L91.244 40.7392L90.7257 84.3213L153.178 85.4735L153.808 49.6097Z" stroke="#9B9B9A" stroke-miterlimit="10" stroke-linecap="round"/>
<path d="M161.007 52.8469C160.907 72.0144 160.808 91.1846 160.711 110.358L178.137 108.466L178.1 55.1555L161.007 52.8469Z" stroke="#9B9B9A" stroke-miterlimit="10" stroke-linecap="round"/>
<path d="M163.304 56.3443V100.591L175.716 99.8369L175.643 57.9193L163.304 56.3443Z" fill="white" stroke="#9B9B9A" stroke-miterlimit="10" stroke-linecap="round"/>
<path d="M150.985 51.276L91.2115 43.1209C91.0489 56.8544 90.8856 70.5878 90.7217 84.3213L150.65 85.4735L150.985 51.276Z" fill="white" stroke="#9B9B9A" stroke-miterlimit="10" stroke-linecap="round"/>
<path d="M124.694 48.3151V84.6911" stroke="#9B9B9A" stroke-miterlimit="10" stroke-linecap="round"/>
<path d="M122.411 47.738V84.685" stroke="#9B9B9A" stroke-miterlimit="10" stroke-linecap="round"/>
<path d="M172.891 1L28.0354 6.72667L2 30.6901L73.318 18.6352L172.891 1Z" stroke="#9B9B9A" stroke-miterlimit="10"/>
<path d="M183.11 96.4757L189.126 96.1303" stroke="#9B9B9A" stroke-miterlimit="10" stroke-linecap="round"/>
<path d="M230.305 94.9069L234.37 94.7484" stroke="#9B9B9A" stroke-miterlimit="10" stroke-linecap="round"/>
<path d="M162.853 35.6465V15.3248L177.041 18.9827C176.998 25.3827 176.957 31.782 176.917 38.1807L162.853 35.6465Z" stroke="#9B9B9A" stroke-miterlimit="10" stroke-linecap="round"/>
<path d="M173.429 130.234L177.041 127.257" stroke="#9B9B9A" stroke-miterlimit="10" stroke-linecap="round"/>
<path d="M175.889 129.984L177.041 128.871" stroke="#9B9B9A" stroke-miterlimit="10" stroke-linecap="round"/>
<path d="M89.299 137.219L93.8313 133.685" stroke="#9B9B9A" stroke-miterlimit="10" stroke-linecap="round"/>
<path d="M86.8256 141.846L97.8657 132.592" stroke="#9B9B9A" stroke-miterlimit="10" stroke-linecap="round"/>
<path d="M90.3132 142.007L92.1058 140.285" stroke="#9B9B9A" stroke-miterlimit="10" stroke-linecap="round"/>
<path d="M120.365 122.451L121.787 121.232" stroke="#9B9B9A" stroke-miterlimit="10" stroke-linecap="round"/>
<path d="M119.757 124.965L124.541 120.998" stroke="#9B9B9A" stroke-miterlimit="10" stroke-linecap="round"/>
<path d="M79.527 101.43L160.776 97.5223C160.752 101.798 160.731 106.074 160.71 110.349L79.527 119.169V101.43Z" fill="white" stroke="#9D9D9C" stroke-miterlimit="10" stroke-linecap="round"/>
<path d="M178.137 108.457L189.124 107.21V96.1303L178.112 96.7054L178.137 108.457Z" fill="white" stroke="#9B9B9A" stroke-miterlimit="10" stroke-linecap="round"/>
<path d="M230.319 102.841L234.384 102.4V94.7484L230.319 94.9069C230.314 97.5514 230.314 100.196 230.319 102.841Z" fill="white" stroke="#9B9B9A" stroke-miterlimit="10" stroke-linecap="round"/>
<path d="M258.31 51.904C259.09 50.9834 260.265 50.5038 261.375 50.6948C261.531 50.7213 263.167 51.0241 263.432 52.2495C263.647 53.2656 262.755 54.054 262.684 54.117C263.588 53.8915 264.513 54.241 264.919 54.9116C265.417 55.7245 265.062 56.891 264.023 57.399C264.171 57.4112 265.415 57.525 265.929 58.4029C266.517 59.4068 265.673 60.6037 265.116 61.1321C264.514 61.6637 263.752 61.9804 262.95 62.0324" stroke="#9D9D9C" stroke-miterlimit="10"/>
<path d="M285.106 72.6322C286.038 72.2461 287.087 71.9534 287.526 72.4005C288.107 72.9939 287.12 74.3737 287.699 75.1663C288.024 75.6134 288.87 75.904 291.04 75.3959" stroke="#9D9D9C" stroke-miterlimit="10"/>
<path d="M237.461 80.1167C236.975 81.4847 236.856 82.956 237.116 84.3843" stroke="#9D9D9C" stroke-miterlimit="10"/>
<path d="M324.321 97.5934L316.082 96.9106L324.321 97.5934Z" fill="white"/>
<path d="M324.321 97.5934L316.082 96.9106" stroke="#9D9D9C" stroke-miterlimit="10"/>
<path d="M324.321 71.9067L309.572 72.8577L324.321 71.9067Z" fill="white"/>
<path d="M324.321 71.9067L309.572 72.8577" stroke="#9D9D9C" stroke-miterlimit="10"/>
<path d="M352.603 34.3297C353.131 37.4674 357.192 42.2837 362.927 42.3751C368.395 42.4605 371.87 38.197 372.62 36.685C372.971 35.9471 373.252 35.1776 373.457 34.3866C373.659 33.6311 373.767 32.8538 373.78 32.072C373.78 29.7919 372.74 29.1721 373.022 27.526C373.179 26.6075 373.567 26.4042 374.002 25.5101C375.309 22.5858 374.187 17.7431 373.636 18.6007C373.622 16.4669 372.62 13.6991 368.683 13.6462C369.699 12.5732 366.098 12.3639 362.854 13.4735C361.913 13.7702 360.714 15.1114 359.452 14.9123C358.279 14.7233 357.554 13.6401 357.419 13.4532C356.218 11.6628 357.165 9.61236 356.564 9.38882C356.009 9.1856 354.659 10.7199 354.039 12.307C353.724 13.1199 353.771 13.4816 353.271 14.6115C352.796 15.6865 352.592 15.717 352.34 16.4161C351.934 17.5826 352.34 17.8833 352.194 19.566C352.015 21.527 351.359 21.9578 351.503 23.1751C351.606 23.9418 351.768 24.6994 351.989 25.441V25.441C352.328 26.4327 352.598 26.6603 352.733 27.3614C352.936 28.3917 352.631 29.1233 352.444 29.8975C352.454 29.8854 352.1 31.3506 352.603 34.3297Z" stroke="#020202" stroke-miterlimit="10"/>
<path d="M341.162 56.3138C341.79 55.3079 340.666 53.5033 339.857 52.3978C339.813 51.8619 339.664 51.3399 339.418 50.8615C339.329 50.7314 339.199 50.5384 339.044 50.3026C338.252 49.1097 338.154 48.8801 338.014 48.7114C337.707 48.3395 336.953 47.9392 333.711 48.6342C332.033 48.995 330.389 49.496 328.795 50.1319C328.638 50.2396 326.244 51.8511 324.628 50.8513C324.019 50.4794 323.752 49.8921 323.533 49.3251C322.167 45.7892 322.819 43.6107 322.303 38.8412C322.182 37.9452 322.221 37.0348 322.419 36.1526C322.622 35.2889 322.887 34.1671 323.813 33.4112C324.888 32.5333 326.681 32.3951 327.657 32.3951C328.905 32.3951 328.961 32.2874 328.972 32.2488C329.055 31.948 327.439 31.2449 326.533 30.7673C324.996 29.9687 323.527 29.2046 322.874 27.906C322.045 26.2803 322.431 23.9717 323.653 22.6345C324.297 21.9294 325.098 21.5494 326.002 21.2974C326.476 21.1653 327.74 21.0291 327.817 20.3829C327.816 20.2534 327.787 20.1256 327.732 20.0084C327.677 19.8913 327.597 19.7874 327.498 19.7041C326.917 18.9177 324.321 19.5477 323.571 19.7448C320.273 20.6085 317.677 23.1243 316.661 26.0181C316.153 27.4388 315.989 28.96 316.184 30.4564C316.387 31.9846 316.881 32.4154 317.163 33.97C317.419 35.3824 317.253 36.305 316.875 38.7517C316.265 42.6759 315.968 44.645 315.858 46.0371C315.608 48.9695 315.887 50.4205 315.942 52.4953C315.978 53.7939 317.102 57.5169 320.413 59.7482C321.205 60.279 322.072 60.6867 322.986 60.9573C329.124 59.8742 333.693 58.7748 335.648 58.1956C337.146 57.7526 337.327 57.5514 339.002 57.1165C340.376 56.7568 340.892 56.7467 341.162 56.3138Z" fill="white" stroke="#020202" stroke-miterlimit="10"/>
<path d="M367.685 43.7611C367.632 43.5294 366.897 43.6981 366.569 43.249C366.275 42.8425 366.49 42.1658 366.758 41.607C365.916 41.9673 365.026 42.2042 364.116 42.3101C362.805 42.4611 361.477 42.3407 360.214 41.9565L358.869 43.9074C359.767 44.5823 360.811 45.0374 361.917 45.2364C362.874 45.3987 363.854 45.369 364.799 45.1491C366.334 44.832 367.76 44.0944 367.685 43.7611Z" stroke="#020202" stroke-width="0.75" stroke-miterlimit="10"/>
<path d="M407.31 80.322L397.696 73.4451L383.508 75.9528" stroke="#9B9B9A" stroke-width="0.75" stroke-miterlimit="10" stroke-linecap="round"/>
<path d="M400.755 75.3919C401.233 74.8778 401.96 74.7985 402.43 75.1887C402.639 75.3793 402.782 75.6313 402.839 75.9084C402.896 76.1855 402.864 76.4735 402.747 76.7311" stroke="#9B9B9A" stroke-width="0.75" stroke-miterlimit="10" stroke-linecap="round"/>
<path d="M384.615 76.8002L406.291 80.4967C406.291 82.8811 406.298 85.2642 406.312 87.6459L384.615 89.9971V76.8002Z" fill="white" stroke="#9D9D9C" stroke-width="0.75" stroke-miterlimit="10"/>
<path d="M406.312 87.6459L422.339 88.3348L407.667 90.9766L395.615 88.7941" stroke="#9B9B9A" stroke-width="0.75" stroke-miterlimit="10" stroke-linecap="round"/>
<path d="M399.97 88.3206C399.97 85.7465 399.965 83.1684 399.954 80.5861L405.718 81.399L405.743 87.5504" stroke="#9B9B9A" stroke-width="0.75" stroke-miterlimit="10" stroke-linecap="round"/>
<path d="M407.182 80.3545L406.342 80.3321L397.235 73.8739L384.321 76.1885" stroke="#9D9D9C" stroke-width="0.75" stroke-miterlimit="10" stroke-linecap="round"/>
<path d="M399.971 81.3116L405.052 81.9579C405.065 83.8803 405.08 85.8028 405.096 87.7252L399.971 88.3206V81.3116Z" fill="white" stroke="#9B9B9A" stroke-width="0.75" stroke-miterlimit="10" stroke-linecap="round"/>
<path d="M395.024 80.2508L386.256 79.0072C386.234 81.0393 386.21 83.0749 386.185 85.1138L394.924 85.2744L395.024 80.2508Z" stroke="#9B9B9A" stroke-width="0.75" stroke-miterlimit="10" stroke-linecap="round"/>
<path d="M396.032 80.704L395.989 88.7595L398.428 88.4954V81.0271L396.032 80.704Z" stroke="#9B9B9A" stroke-width="0.75" stroke-miterlimit="10" stroke-linecap="round"/>
<path d="M396.353 81.1938V87.3939L398.092 87.2882C398.092 85.3292 398.092 83.3716 398.092 81.4153L396.353 81.1938Z" fill="white" stroke="#9B9B9A" stroke-width="0.75" stroke-miterlimit="10" stroke-linecap="round"/>
<path d="M394.627 80.4845L386.254 79.3425C386.229 81.2649 386.206 83.1887 386.185 85.1138L394.58 85.2744L394.627 80.4845Z" fill="white" stroke="#9B9B9A" stroke-width="0.75" stroke-miterlimit="10" stroke-linecap="round"/>
<path d="M390.944 80.07V85.1647" stroke="#9B9B9A" stroke-width="0.75" stroke-miterlimit="10" stroke-linecap="round"/>
<path d="M390.621 79.9887V85.1646" stroke="#9B9B9A" stroke-width="0.75" stroke-miterlimit="10" stroke-linecap="round"/>
<path d="M397.696 73.4451L377.41 74.2417L368.134 77.29C372.949 77.0867 378.179 76.6579 383.754 75.906C388.747 75.2374 393.408 74.3839 397.696 73.4451Z" stroke="#9B9B9A" stroke-width="0.75" stroke-miterlimit="10"/>
<path d="M399.127 86.8168L399.971 86.768" stroke="#9B9B9A" stroke-width="0.75" stroke-miterlimit="10" stroke-linecap="round"/>
<path d="M396.29 78.2939V75.4488L398.277 75.9609L398.261 78.6515L396.29 78.2939Z" stroke="#9B9B9A" stroke-width="0.75" stroke-miterlimit="10" stroke-linecap="round"/>
<path d="M397.771 91.5457L398.277 91.1291" stroke="#9B9B9A" stroke-width="0.75" stroke-miterlimit="10" stroke-linecap="round"/>
<path d="M398.117 91.5111L398.277 91.3547" stroke="#9B9B9A" stroke-width="0.75" stroke-miterlimit="10" stroke-linecap="round"/>
<path d="M390.337 90.4564L390.54 90.2857" stroke="#9B9B9A" stroke-width="0.75" stroke-miterlimit="10" stroke-linecap="round"/>
<path d="M390.251 90.808L390.922 90.2532" stroke="#9B9B9A" stroke-width="0.75" stroke-miterlimit="10" stroke-linecap="round"/>
<path d="M384.615 87.5118L395.997 86.9631V88.7596L384.615 89.9972V87.5118Z" fill="white" stroke="#9D9D9C" stroke-width="0.75" stroke-miterlimit="10" stroke-linecap="round"/>
<path d="M398.432 88.4954L399.971 88.3206V86.768L398.428 86.8493L398.432 88.4954Z" fill="white" stroke="#9B9B9A" stroke-width="0.75" stroke-miterlimit="10" stroke-linecap="round"/>
<path d="M384.615 89.9972L371.236 90.428" stroke="#9B9B9A" stroke-width="0.75" stroke-miterlimit="10"/>
<path d="M352.166 26.3128C354.672 25.3959 357.268 24.7488 359.911 24.3822C361.645 24.1505 363.281 24.0692 364.757 22.8235C365.921 21.8359 366.586 20.4642 366.767 20.5658C366.948 20.6674 365.726 22.3134 366.275 23.6018C366.45 24.0083 366.897 24.5915 370.996 25.7377C372.185 26.0689 373.193 26.3128 373.923 26.4774" stroke="#020202" stroke-miterlimit="10"/>
<path d="M359.05 37.0259C359.275 36.7737 360.377 37.4737 362.534 37.5259C364.89 37.5796 366.169 36.8035 366.4 37.0781C366.708 37.4483 364.945 39.4811 362.652 39.4453C360.384 39.4139 358.734 37.3841 359.05 37.0259Z" stroke="#020202" stroke-miterlimit="10"/>
<path d="M355.989 16.0218C356.245 16.3653 357.633 18.1576 360.021 18.3832C360.906 18.4605 361.796 18.321 362.614 17.9768" stroke="#020202" stroke-miterlimit="10"/>
<path d="M365.37 165.623C379.73 165.623 391.371 163.281 391.371 160.392C391.371 157.503 379.73 155.161 365.37 155.161C351.011 155.161 339.37 157.503 339.37 160.392C339.37 163.281 351.011 165.623 365.37 165.623Z" fill="#C4C4C4"/>
<path d="M362.307 152.832C362.382 155.482 362.458 158.132 362.537 160.782L357.85 160.841V159.496L352.013 160.308C350.704 160.39 349.361 160.453 347.985 160.499C346.608 160.546 345.253 160.571 343.92 160.577C343.967 159.991 344.123 159.111 344.765 158.427C345.92 157.185 347.635 157.665 349.527 157.045C350.678 156.667 352.247 155.769 353.753 153.356L362.307 152.832Z" fill="#99D0C3" stroke="#020202" stroke-miterlimit="10"/>
<path d="M369.132 152.548C368.889 155.292 368.645 158.037 368.403 160.782L372.797 161.115L372.884 159.721L378.313 160.898C379.532 161.058 380.788 161.203 382.081 161.333C383.374 161.463 384.646 161.568 385.898 161.65C385.898 161.04 385.798 160.117 385.243 159.37C384.239 158.014 382.601 158.41 380.864 157.656C379.807 157.199 378.392 156.175 377.134 153.592L369.132 152.548Z" fill="#99D0C3" stroke="#020202" stroke-miterlimit="10"/>
<path d="M351.149 91.6148C351.172 92.322 351.188 93.3828 351.137 94.663C351.08 96.1021 350.949 97.5374 350.745 98.9631C350.338 101.898 350.438 104.698 350.556 108.333C350.647 111.191 350.8 111.412 351.369 118.32C351.649 121.774 351.609 121.695 351.885 125.229C352.916 138.41 353.808 143.777 351.905 146.512C351.556 147.016 350.629 148.124 350.731 149.56C350.818 150.78 351.57 151.255 351.416 152.405C351.247 153.684 350.214 154.003 350.369 154.641C350.647 155.773 354.194 155.791 355.363 155.797C358.72 155.813 360.96 155.825 362.2 154.411C363.761 152.627 362.901 149.534 362.661 148.573C359.763 137.148 361.19 101.444 361.509 101.414C361.828 101.383 366.659 140.698 366.462 146.461C366.349 149.265 366.861 152.059 367.96 154.641H378.561C378.596 153.165 378.281 151.703 377.64 150.373C376.994 149.077 376.248 148.447 376.394 147.39C376.541 146.333 377.347 146.187 377.64 145.189C378.116 143.563 376.61 141.814 376.372 141.503C374.896 139.586 372.76 129.035 369.573 100.487C369.373 99.8106 369.237 99.1166 369.167 98.4144C368.972 96.1936 369.39 93.9618 370.376 91.9623L351.149 91.6148Z" fill="#7BBF7A" stroke="#020202" stroke-miterlimit="10"/>
<path d="M373.713 59.8396C373.868 58.8784 374.181 57.0718 374.837 57.0048C375.587 56.9255 376.441 59.1629 377.055 61.1057C378.027 59.4669 379.563 58.2387 381.376 57.651C384.628 56.6349 387.302 58.2058 387.713 58.4639C387.499 57.0928 387.01 55.7792 386.274 54.6027C385.554 53.4769 385.089 53.2818 383.162 50.9164C382.288 49.8454 382.272 49.7458 381.518 48.8395C380.406 47.5023 379.416 46.4801 378.742 45.8156L375.266 44.8178L368.779 42.9523C368.191 43.4664 367.536 43.8997 366.834 44.2407C365.627 44.9016 364.285 45.279 362.911 45.3441C360.85 45.4193 359.659 44.6816 357.759 43.9765C354.781 42.8689 350.908 41.3103 347.731 42.7369C345.81 43.5985 344.522 45.3563 341.912 46.0208C341.658 46.0838 340.896 46.2647 339.361 46.6488C338.308 46.9109 337.869 47.0268 336.969 47.2585C336.172 47.4562 335.377 47.6479 334.583 47.8336C334.305 47.9291 334.028 48.0368 333.752 48.1343C333.47 48.2282 333.194 48.3381 332.925 48.4635C332.219 48.9756 333.097 51.3269 333.097 51.3269C333.463 52.3708 333.689 53.4587 333.768 54.5621C333.905 56.6327 333.536 58.7057 332.693 60.6017C333.429 60.4371 334.603 60.1567 336.038 59.7401C337.337 59.3621 337.847 59.1731 338.357 59.0105C341.461 58.0148 344.916 58.218 347.463 60.3274C348.128 60.9372 348.695 61.646 349.143 62.4286C349.529 63.0205 349.846 63.6538 350.09 64.3165C350.82 66.2877 350.826 68.7995 350.747 70.787C350.609 72.0185 350.357 73.2947 350.125 74.5038C349.892 75.598 349.728 76.7057 349.633 77.8203C349.296 78.8811 348.938 80.1533 348.902 81.1023C348.714 81.7314 348.589 82.3773 348.528 83.0308C348.393 84.4534 348.674 84.7501 348.595 86.2356C348.511 87.7719 348.188 87.9751 348.298 89.0115C348.4 89.8488 348.704 90.6486 349.184 91.3425C349.162 91.3526 349.137 91.3668 349.139 91.3811C349.139 91.501 350.968 91.4624 352.454 91.3628C355.182 91.1799 355.684 90.8568 357.007 91.19C357.907 91.4176 357.899 91.6249 358.781 91.881C360.826 92.4744 362.643 91.881 363.285 91.7082C364.972 91.253 367.915 91.1657 373.425 92.8605C373.299 84.4839 372.955 78.432 372.561 73.7946C372.561 73.7804 372.183 69.3177 373.713 59.8396Z" fill="#99D0C3" stroke="#020202" stroke-miterlimit="10"/>
<path d="M384.678 57.3909C386.272 61.0122 387.866 64.6322 389.461 68.2508C389.292 69.8699 388.977 71.4704 388.52 73.0325C386.81 78.8628 383.601 82.5837 380.282 86.3392C376.949 90.0961 373.177 93.4393 369.047 96.2969C368.724 96.1988 368.425 96.0357 368.167 95.8176C367.909 95.5995 367.699 95.3311 367.549 95.0288C367.333 94.5609 367.272 94.0359 367.376 93.5311L381.26 71.4698C379.334 67.9989 378.21 64.141 377.969 60.179C378.709 59.1268 379.731 58.3056 380.918 57.8107C382.105 57.3158 383.408 57.1674 384.676 57.3827L384.678 57.3909Z" fill="white" stroke="#020202" stroke-miterlimit="10"/>
<path d="M365.437 93.6347C365.599 94.6572 366.019 95.6217 366.657 96.4371C366.98 96.8425 367.354 97.2039 367.77 97.5121" fill="#7BBF7A"/>
<path d="M365.437 93.6347C365.599 94.6572 366.019 95.6217 366.657 96.4371C366.98 96.8425 367.354 97.2039 367.77 97.5121" stroke="#020202" stroke-miterlimit="10"/>
<path d="M364.85 94.8459C364.926 95.4647 365.134 96.06 365.46 96.5916C365.615 96.838 365.802 97.0628 366.017 97.2602" fill="#7BBF7A"/>
<path d="M364.85 94.8459C364.926 95.4647 365.134 96.06 365.46 96.5916C365.615 96.838 365.802 97.0628 366.017 97.2602" stroke="#020202" stroke-miterlimit="10"/>
<path d="M353.511 98.4408L352.359 104.131L353.511 98.4408Z" fill="#7BBF7A"/>
<path d="M353.511 98.4408L352.359 104.131" stroke="#020202" stroke-miterlimit="10"/>
<path d="M354.086 102.389L352.934 108.079L354.086 102.389Z" fill="#7BBF7A"/>
<path d="M354.086 102.389L352.934 108.079" stroke="#020202" stroke-miterlimit="10"/>
<path d="M354.779 144.978C354.849 145.75 354.709 146.526 354.374 147.226C354.04 147.925 353.523 148.522 352.879 148.953" fill="#7BBF7A"/>
<path d="M354.779 144.978C354.849 145.75 354.709 146.526 354.374 147.226C354.04 147.925 353.523 148.522 352.879 148.953" stroke="#020202" stroke-miterlimit="10"/>
<path d="M355.419 146.293C355.466 146.803 355.374 147.317 355.152 147.78C354.931 148.242 354.588 148.636 354.161 148.92" fill="#7BBF7A"/>
<path d="M355.419 146.293C355.466 146.803 355.374 147.317 355.152 147.78C354.931 148.242 354.588 148.636 354.161 148.92" stroke="#020202" stroke-miterlimit="10"/>
<path d="M371.663 138.213C372.303 139.043 372.792 139.98 373.106 140.98C373.359 141.757 373.437 142.58 373.335 143.391" fill="#7BBF7A"/>
<path d="M371.663 138.213C372.303 139.043 372.792 139.98 373.106 140.98C373.359 141.757 373.437 142.58 373.335 143.391" stroke="#020202" stroke-miterlimit="10"/>
<path d="M373.067 139.34C373.491 139.889 373.814 140.508 374.022 141.169C374.189 141.683 374.24 142.227 374.173 142.763" fill="#7BBF7A"/>
<path d="M373.067 139.34C373.491 139.889 373.814 140.508 374.022 141.169C374.189 141.683 374.24 142.227 374.173 142.763" stroke="#020202" stroke-miterlimit="10"/>
<path d="M348.375 87.4996C348.622 86.5627 349.119 85.7107 349.813 85.0348C350.508 84.3589 351.373 83.8846 352.316 83.6629" stroke="#020202" stroke-miterlimit="10" stroke-linecap="round"/>
<path d="M348.536 85.0955C348.727 84.5383 349.089 84.0555 349.57 83.7157C350.032 83.3864 350.56 83.1617 351.117 83.0573" stroke="#020202" stroke-miterlimit="10" stroke-linecap="round"/>
<path d="M358.139 51.1257C358.141 53.6129 358.373 56.0945 358.832 58.5391C359.031 59.5769 359.291 60.6022 359.61 61.6097" stroke="#020202" stroke-miterlimit="10" stroke-linecap="round"/>
<path d="M343.987 45.1572C344.467 45.02 344.974 45.0046 345.462 45.1124C345.949 45.2201 346.402 45.4477 346.78 45.7744C347.157 46.1011 347.448 46.5168 347.624 46.9838C347.801 47.4508 347.859 47.9545 347.792 48.4493" fill="#99D0C3"/>
<path d="M343.987 45.1572C344.467 45.02 344.974 45.0046 345.462 45.1124C345.949 45.2201 346.402 45.4477 346.78 45.7744C347.157 46.1011 347.448 46.5168 347.624 46.9838C347.801 47.4508 347.859 47.9545 347.792 48.4493" stroke="#020202" stroke-miterlimit="10"/>
<path d="M376.221 48.4493C375.034 49.9845 374.427 51.8896 374.508 53.8285C374.603 55.3699 375.062 56.8669 375.845 58.1977" fill="#99D0C3"/>
<path d="M376.221 48.4493C375.034 49.9845 374.427 51.8896 374.508 53.8285C374.603 55.3699 375.062 56.8669 375.845 58.1977" stroke="#020202" stroke-miterlimit="10"/>
<path d="M353.29 91.8667C353.359 92.1228 353.751 93.6794 352.8 95.0939C352.391 95.6912 351.822 96.1605 351.158 96.4473" fill="#7BBF7A"/>
<path d="M353.29 91.8667C353.359 92.1228 353.751 93.6794 352.8 95.0939C352.391 95.6912 351.822 96.1605 351.158 96.4473" stroke="#020202" stroke-miterlimit="10"/>
<path d="M366.773 91.9135C366.669 92.6931 366.747 93.4861 367.002 94.2302C367.395 95.3205 368.138 96.2497 369.116 96.872" fill="#7BBF7A"/>
<path d="M366.773 91.9135C366.669 92.6931 366.747 93.4861 367.002 94.2302C367.395 95.3205 368.138 96.2497 369.116 96.872" stroke="#020202" stroke-miterlimit="10"/>
<path d="M284.876 86.451C285.181 85.38 286.359 81.7363 289.896 79.6676C294.636 76.8977 300.828 78.5783 304.048 82.0107C307.17 85.3394 307.267 90.0723 307.312 92.3098C307.336 93.5412 307.243 94.7722 307.033 95.986C308.104 94.9613 309.443 94.2615 310.895 93.968C311.301 93.8888 314.868 93.2527 317.569 95.86C317.874 96.1567 320.872 99.0464 319.767 101.92C319.252 103.257 318.086 103.976 317.494 104.281C316.433 104.346 314.777 104.44 312.753 104.507C302.241 104.86 293.926 104.224 274.006 101.918L256.71 99.9142C256.109 97.7986 256.119 95.556 256.739 93.4457C256.942 92.7812 258.397 87.9589 261.468 87.4488C264.539 86.9387 266.708 91.0843 269 90.2146C270.171 89.7716 270.706 88.2738 270.976 87.0139C271.037 86.6075 271.586 83.356 274.62 81.6286C275.049 81.3848 278.075 79.7306 281.232 81.3218C284.274 82.852 284.827 86.1157 284.876 86.451Z" fill="#E7F4F5" stroke="#9D9D9C" stroke-miterlimit="10"/>
<path d="M240.597 100.134C240.394 99.2842 239.988 98.1137 239.827 97.0325C239.666 95.9514 239.748 94.9536 240.546 94.4496C239.89 93.1856 239.792 91.9196 240.063 91.375C240.299 90.2369 240.687 88.7331 241.689 88.7514C241.012 87.65 240.784 86.3128 241.908 86.6461C241.341 84.6911 241.272 83.4352 242.9 82.852C241.459 81.4864 241.573 80.1878 243.057 79.4379C241.607 78.8283 242.081 76.0747 243.392 75.5646C242.406 73.821 242.544 72.2847 243.969 71.3987C243.359 70.4842 243.03 68.8889 243.008 67.633C242.985 66.3771 243.276 65.4545 243.912 65.8874C243.239 64.5136 242.796 63.0423 242.784 62.0689C242.772 61.0955 243.329 60.5854 244.292 61.1443C242.384 59.2158 242.977 58.3175 244.949 56.5556C243.026 56.9214 243.89 53.6273 244.465 51.5849C243.597 52.4689 242.788 48.3802 243.827 47.0044C242.778 46.1915 242.969 44.7426 244.219 42.7633C243.406 42.7125 245.152 40.1804 245.182 39.0139C246.146 37.3292 248.784 35.5836 247.656 35.3763C249.688 35.6364 250.654 36.1343 248.995 37.1727C251.164 37.5263 250.906 38.8534 250.048 41.485C251.316 41.3814 251.144 46.8154 250.672 46.9719C251.402 49.8007 252.361 52.6986 251.119 52.2556C252.339 54.0236 252.215 55.7631 251.164 55.4562C252.223 56.5455 252.127 57.9497 251.331 59.1528C252.205 58.9353 252.308 60.4899 251.737 62.8351C252.55 62.0791 252.885 64.4608 252.144 65.8346C253.139 66.1028 254.152 69.6591 252.9 69.6835C254.572 71.8518 255.745 73.2703 253.79 73.9612C256.025 74.4205 256.304 75.1805 254.526 76.5726C255.621 76.5624 256.103 77.4485 255.93 77.7411C256.19 79.1758 256.869 81.6876 255.664 81.781C257.119 83.2625 257.887 84.5611 256.326 84.7663C257.977 86.1299 257.952 87.5402 256.467 88.4506C258.092 89.168 257.686 92.5353 256.7 92.8402C257.716 94.1408 257.548 96.7582 256.7 97.3496C257.513 98.4571 257.393 99.3939 256.497 101.05C256.44 100.073 254.692 100.357 252.522 100.818C252.507 100.229 250.02 100.585 248.548 100.589C247.404 100.436 245.792 100.312 244.414 100.172C243.036 100.032 241.711 99.9629 240.597 100.134Z" fill="#D7E7C0" stroke="#9B9B9A" stroke-miterlimit="10"/>
<path d="M265.017 100.27C264.61 97.9795 264.281 94.6549 264.966 95.4556C264.393 94.6976 264.578 93.1998 264.822 91.3384C264.643 92.007 265.041 91.505 266.11 90.6291C265.114 91.2977 264.964 90.369 265.257 88.8896C265.415 89.0766 266.247 87.2151 267.322 85.6381C265.289 87.6337 266.24 85.1748 267.478 82.7463C266.259 84.2969 267.011 80.4032 267.814 79.4664C267.356 78.3995 267.318 77.0095 268.391 75.9385C267.543 74.4713 267.46 72.4838 268.332 71.2645C267.352 70.2363 267.582 67.6208 268.714 67.249C267.956 66.0825 268.226 64.9851 269.37 63.3634C268.374 62.1197 268.557 60.7216 268.887 59.1548C268.047 59.0064 268.104 56.1451 268.248 55.2754C268.137 53.546 267.984 51.4976 268.694 51.6744C268.346 49.8759 268.393 49.0041 269.602 48.5082C269.208 47.1731 271.269 46.0473 272.078 45.4295C272.137 46.0899 273.208 46.539 273.417 46.9495C273.742 47.7624 274.514 48.9817 274.47 50.6075C274.941 50.9997 275.892 53.5887 275.191 55.249C276.181 56.0964 276.236 58.3419 275.541 59.734C275.89 60.5468 275.966 61.4694 276.151 62.3758C275.947 63.3797 275.671 64.4283 275.76 65.5744C276.138 66.2573 276.673 67.5335 276.167 68.6918C276.98 69.4214 277.203 70.2911 276.624 71.2137C277.529 71.9291 277.437 73.0183 277.338 74.4916C278.027 75.4732 278.433 77.1152 278.274 78.1231C278.911 78.7653 279.354 79.7184 278.963 80.326C279.935 81.4132 280.248 82.6 280.102 84.7338C280.596 85.7327 280.965 86.7895 281.197 87.8796C281.4 88.9404 281.274 89.9118 280.904 90.3833C281.974 91.9866 282.112 93.0881 281.138 94.1001C282.177 94.8723 281.724 96.2989 281.138 97.9186C281.665 98.3799 281.12 99.9914 280.935 101.052C279.633 100.886 278.322 100.802 277.01 100.802C275.62 100.676 273.59 100.063 272.986 100.662C271.234 99.9467 269.196 99.1541 269.011 100.459C267.236 99.0647 265.523 98.7172 265.017 100.27Z" fill="#D7E7C0" stroke="#9B9B9A" stroke-miterlimit="10"/>
<path d="M301.338 102.643C301.613 100.78 301.834 98.0751 301.373 98.7253C301.759 98.1157 301.635 96.8964 301.469 95.3763C301.59 95.9209 301.322 95.5125 300.603 94.8012C301.273 95.3438 301.373 94.598 301.178 93.3787C301.072 93.5331 300.511 92.0171 299.788 90.7369C301.151 92.3626 300.515 90.3609 299.682 88.3856C300.495 89.6476 299.997 86.4794 299.456 85.7153C299.765 84.8496 299.79 83.7157 299.068 82.8459C299.637 81.653 299.694 80.0354 299.107 79.0498C299.767 78.2105 299.613 76.0849 298.851 75.78C299.361 74.833 299.18 73.9409 298.41 72.62C299.078 71.6039 298.954 70.472 298.735 69.1958C299.3 69.0759 299.261 66.7572 299.164 66.0398C299.239 64.6335 299.343 62.9651 298.865 63.1114C299.099 61.6483 299.068 60.937 298.255 60.5346C298.522 59.4474 297.133 58.5309 296.589 58.029C296.55 58.5675 295.829 58.9313 295.688 59.2666C295.469 59.9352 294.951 60.9126 294.979 62.2376C294.664 62.5567 294.026 64.662 294.493 66.0134C293.829 66.7023 293.792 68.5292 294.26 69.6612C294.024 70.3236 293.973 71.0735 293.853 71.8132C293.985 72.6261 294.174 73.4816 294.115 74.4144C293.861 74.9692 293.505 76.0076 293.847 76.9506C293.302 77.544 293.15 78.2512 293.54 79.0031C292.93 79.5843 292.993 80.4703 293.06 81.6693C292.578 82.5759 292.36 83.5996 292.43 84.6241C292.001 85.1463 291.703 85.9206 291.965 86.4144C291.312 87.3004 291.101 88.2657 291.199 90.0032C290.862 90.8267 290.615 91.6837 290.461 92.5597C290.333 93.4254 290.41 94.218 290.664 94.5919C289.943 95.8965 289.851 96.7927 290.506 97.6158C289.806 98.2437 290.111 99.4041 290.506 100.723C290.152 101.097 290.518 102.41 290.638 103.271C291.512 103.137 292.395 103.069 293.28 103.068C294.215 102.966 295.583 102.458 295.989 102.954C297.168 102.371 298.54 101.735 298.664 102.796C299.841 101.658 300.991 101.375 301.338 102.643Z" fill="#D7E7C0" stroke="#9B9B9A" stroke-miterlimit="10"/>
<path d="M286.032 102.276C285.918 102.436 285.559 103.088 286.955 105.121L289.837 105.023L293.292 105.226C294.918 104.741 295.264 104.369 295.257 104.113C295.257 103.946 295.07 103.645 290.418 102.576C287.01 101.8 286.335 101.855 286.032 102.276Z" fill="#DADADA" stroke="#9B9B9A" stroke-miterlimit="10"/>
<path d="M300.44 102.666C300.326 102.824 299.963 103.479 301.363 105.511L307.852 105.793C309.369 105.21 309.682 104.791 309.657 104.511C309.633 104.231 309.265 103.883 304.818 102.977C301.3 102.255 300.7 102.302 300.44 102.666Z" fill="#DADADA" stroke="#9B9B9A" stroke-miterlimit="10"/>
<path d="M293.404 103.972C293.298 104.499 293.729 105.037 294.132 105.423L301.042 105.529C306.395 102.139 306.826 101.192 306.676 100.867C306.472 100.445 305.214 100.908 299.503 101.967C295.668 102.678 293.607 102.958 293.404 103.972Z" fill="#DADADA" stroke="#9B9B9A" stroke-miterlimit="10"/>
<path d="M261.917 99.0749C261.804 99.2334 261.44 99.8878 262.838 101.92L269.285 102.483C270.866 101.735 271.167 101.239 271.126 100.918C271.082 100.546 270.555 100.239 266.287 99.3818C262.822 98.6847 262.19 98.6928 261.917 99.0749Z" fill="#DADADA" stroke="#9B9B9A" stroke-miterlimit="10"/>
<path d="M268.791 99.7841C268.643 99.9589 268.181 100.67 269.714 103.239C271.911 103.558 273.673 103.725 274.927 103.816C275.37 103.846 275.99 103.883 276.492 103.495C277.246 102.912 277.508 101.548 276.984 100.81C276.508 100.126 275.636 100.404 273.171 100.162C270.244 99.8634 269.265 99.2375 268.791 99.7841Z" fill="#DADADA" stroke="#9B9B9A" stroke-miterlimit="10"/>
<path d="M275.771 100.314C274.622 100.912 273.795 102.53 274.218 103.566C274.756 104.883 277.173 104.852 281.886 104.785C283.382 104.765 284.225 104.667 284.896 104.029C285.857 103.111 286.183 101.341 285.492 100.589C284.713 99.7414 283.347 100.949 280.207 100.735C277.724 100.569 276.955 99.6987 275.771 100.314Z" fill="#DADADA" stroke="#9B9B9A" stroke-miterlimit="10"/>
<path d="M240.361 98.703C239.575 98.703 238.959 98.7579 238.709 99.1643C238.353 99.7394 238.876 100.79 239.522 101.353C240.691 102.395 242.441 102.022 243.054 101.892C244.306 101.623 246.168 100.788 246.089 100.01C245.957 98.7437 240.831 98.705 240.361 98.703Z" fill="#DADADA" stroke="#9B9B9A" stroke-miterlimit="10"/>
<path d="M247.969 102.733C248.432 102.578 248.782 102.381 248.743 101.808C248.701 100.995 247.93 99.7557 247.308 99.1501C246.164 98.0426 245.294 98.8737 244.987 99.1664C244.365 99.7618 243.632 101.211 244.018 102.198C244.646 103.802 247.69 102.824 247.969 102.733Z" fill="#DADADA" stroke="#9B9B9A" stroke-miterlimit="10"/>
<path d="M257.735 101.255C257.871 100.786 257.83 100.375 256.838 99.9345C255.432 99.3106 252.684 98.8798 251.125 98.8574C248.28 98.8148 248.93 100.132 249.162 100.595C249.631 101.538 251.448 103.251 253.444 103.759C256.684 104.586 257.651 101.536 257.735 101.255Z" fill="#DADADA" stroke="#9B9B9A" stroke-miterlimit="10"/>
<path fill-rule="evenodd" clip-rule="evenodd" d="M368.916 30.8472C369.018 29.9213 367.148 29.286 366.757 30.1369C366.406 30.8992 366.442 31.6797 366.782 32.5133C367.108 33.3096 368.386 33.2593 368.618 32.6527C368.929 31.8397 368.853 31.4232 368.916 30.8472Z" fill="#231F20"/>
<path fill-rule="evenodd" clip-rule="evenodd" d="M359.3 30.1845C359.054 29.896 358.698 29.6991 358.272 29.8104C356.941 30.1582 357.333 31.8484 357.801 32.6711C358.055 33.1178 358.876 33.2311 359.247 32.8378C359.852 32.1963 360.141 30.9152 359.372 30.2834C359.352 30.2507 359.328 30.2177 359.3 30.1845Z" fill="#231F20"/>
<path fill-rule="evenodd" clip-rule="evenodd" d="M367.69 26.2688L367.497 26.2419C366.901 26.1598 366.161 26.082 365.761 26.4835C365.549 26.6964 365.491 27.0899 365.8 27.2905C366.342 27.6434 366.916 27.5018 367.548 27.528C368.068 27.5497 368.57 27.6185 369.075 27.735C370.185 27.9907 371.101 28.4643 372.063 28.9846C372.189 29.0529 372.308 28.9205 372.245 28.8246C371.662 27.941 370.579 27.219 369.508 26.7815C368.937 26.548 368.314 26.3552 367.69 26.2688Z" fill="#231F20"/>
<path fill-rule="evenodd" clip-rule="evenodd" d="M359.218 26.3877L359.084 26.4001C357.626 26.5413 355.687 26.9433 354.73 28.3323C354.663 28.5371 354.681 28.585 354.697 28.6168L354.702 28.6273C354.715 28.6544 354.722 28.6904 354.8 28.729C354.825 28.7259 354.85 28.7225 354.875 28.7188C355.195 28.6709 355.458 28.5831 355.715 28.4899L355.993 28.3879C356.316 28.2703 356.64 28.1586 356.974 28.0878C357.687 27.9367 358.405 27.8568 359.118 27.8548C359.273 27.8543 359.429 27.8176 359.562 27.7382C359.689 27.6628 359.797 27.55 359.867 27.3913C359.959 27.1859 359.977 27.024 359.91 26.8202C359.859 26.6672 359.765 26.5539 359.646 26.4808C359.524 26.4062 359.375 26.3739 359.218 26.3877Z" fill="#231F20"/>
<path d="M307.713 23.8069L307.622 23.8819V24V53.2367C307.622 54.4407 308.712 55.3675 309.992 55.3675H337.92C339.2 55.3675 340.29 54.4408 340.29 53.2367V17.4065C340.29 16.2025 339.2 15.2758 337.92 15.2758H318.184H318.094L318.025 15.3326L307.713 23.8069Z" fill="#FBFCFF" stroke="black" stroke-width="0.5"/>
<path d="M318 15.5L307.872 23.5989V24L316.662 23.5989C317.729 23.5989 318 22.9035 318 22V15.5Z" fill="#C9CDD3" stroke="black" stroke-width="0.5"/>
<path d="M319.153 41.5714H313.805C313.452 41.5714 313.166 41.2803 313.166 40.921C313.166 40.5617 313.452 40.2706 313.805 40.2706H319.153C319.506 40.2706 319.792 40.5617 319.792 40.921C319.792 41.2803 319.506 41.5714 319.153 41.5714Z" fill="#008B4E"/>
<path d="M329.741 47.3562H313.805C313.452 47.3562 313.166 47.0651 313.166 46.7058C313.166 46.3465 313.452 46.0553 313.805 46.0553H329.741C330.094 46.0553 330.38 46.3465 330.38 46.7058C330.38 47.0651 330.094 47.3562 329.741 47.3562Z" fill="#008B4E"/>
<path d="M328.009 24C325.963 26.8907 324.118 27.6194 320 27.5714V27.6514C320.248 30.2633 321.088 32.7992 322.465 35.0974C323.842 37.3957 325.727 39.4059 328 41C330.271 39.4049 332.156 37.3944 333.533 35.0963C334.91 32.7983 335.75 30.2629 336 27.6514V27.5714C331.899 27.6194 330.055 26.8907 328.009 24Z" stroke="#008B4E" stroke-width="2" stroke-miterlimit="10"/>
<path d="M318.134 15.0089C318.134 15.0089 318.45 17.3543 318.612 17.9239C318.74 18.373 319.079 18.928 319.707 18.8568C321.346 18.6782 320.476 15.8749 320.431 14.9965C320.431 14.9965 320.391 14.2095 319.719 13.9828C319.047 13.7561 318.794 13.9247 318.411 14.2084C318.297 14.3199 318.213 14.449 318.165 14.587C318.117 14.725 318.107 14.8688 318.134 15.0089Z" fill="#EDEDED" stroke="#272827" stroke-width="0.4" stroke-miterlimit="10"/>
<path d="M322.838 14.0754C322.838 14.0754 323.396 17.2531 323.301 17.9915C323.207 18.7299 322.758 18.9641 322.31 19.0926C321.863 19.2212 321.448 19.0313 321.159 18.5738C320.871 18.1163 320.218 14.3156 320.714 13.7121C321.21 13.1087 321.478 13.1478 322.012 13.2787C322.546 13.4097 322.838 14.0754 322.838 14.0754Z" fill="#EDEDED" stroke="#272827" stroke-width="0.4" stroke-miterlimit="10"/>
<path d="M325.332 13.8056C325.332 13.8056 325.727 16.4109 325.586 17.4684C325.502 18.0785 325.378 19.0518 324.4 19.1826C322.947 19.3794 322.953 14.6807 323.291 13.9104C323.529 13.3731 323.922 13.3528 324.517 13.3751C324.69 13.3828 324.856 13.4266 324.999 13.5021C325.142 13.5777 325.257 13.6823 325.332 13.8056Z" fill="#EDEDED" stroke="#272827" stroke-width="0.4" stroke-miterlimit="10"/>
<path d="M327.665 14.3026C327.933 15.1668 327.773 16.4087 327.633 17.2883C327.603 17.5474 327.507 17.8001 327.35 18.0308C327.271 18.1459 327.159 18.2449 327.023 18.3196C326.887 18.3942 326.731 18.4423 326.569 18.4599C325.458 18.517 325.698 16.6625 325.706 16.1314C325.715 15.6947 325.539 14.1728 326.061 13.8599C326.189 13.7599 326.35 13.6918 326.524 13.664C326.699 13.6363 326.879 13.6502 327.041 13.704C327.506 13.7829 327.665 14.2971 327.665 14.3026Z" fill="#EDEDED" stroke="#272827" stroke-width="0.4" stroke-miterlimit="10"/>
</svg>
