<svg width="739" height="404" viewBox="0 0 739 404" fill="none" xmlns="http://www.w3.org/2000/svg">
<mask id="path-1-outside-1" maskUnits="userSpaceOnUse" x="0" y="0" width="739" height="404" fill="black">
<rect fill="white" width="739" height="404"/>
<path fill-rule="evenodd" clip-rule="evenodd" d="M326.471 1H21C9.95431 1 1 9.9543 1 21V383C1 394.046 9.9543 403 21 403H718C729.046 403 738 394.046 738 383V21C738 9.95431 729.046 1 718 1H389.529C386.92 16.0512 373.797 27.4977 358 27.4977C342.203 27.4977 329.08 16.0512 326.471 1Z"/>
</mask>
<path fill-rule="evenodd" clip-rule="evenodd" d="M326.471 1H21C9.95431 1 1 9.9543 1 21V383C1 394.046 9.9543 403 21 403H718C729.046 403 738 394.046 738 383V21C738 9.95431 729.046 1 718 1H389.529C386.92 16.0512 373.797 27.4977 358 27.4977C342.203 27.4977 329.08 16.0512 326.471 1Z" fill="#F3F7F8"/>
<path d="M326.471 1L327.457 0.829246L327.313 0H326.471V1ZM389.529 1V0H388.687L388.543 0.829246L389.529 1ZM21 2H326.471V0H21V2ZM2 21C2 10.5066 10.5066 2 21 2V0C9.40202 0 0 9.40201 0 21H2ZM2 383V21H0V383H2ZM21 402C10.5066 402 2 393.493 2 383H0C0 394.598 9.40202 404 21 404V402ZM718 402H21V404H718V402ZM737 383C737 393.493 728.493 402 718 402V404C729.598 404 739 394.598 739 383H737ZM737 21V383H739V21H737ZM718 2C728.493 2 737 10.5066 737 21H739C739 9.40202 729.598 0 718 0V2ZM389.529 2H718V0H389.529V2ZM388.543 0.829246C386.017 15.4094 373.302 26.4977 358 26.4977V28.4977C374.292 28.4977 387.824 16.6931 390.514 1.17075L388.543 0.829246ZM358 26.4977C342.698 26.4977 329.983 15.4094 327.457 0.829246L325.486 1.17075C328.176 16.6931 341.708 28.4977 358 28.4977V26.4977Z" fill="#D9E1E8" fill-opacity="0.5" mask="url(#path-1-outside-1)"/>
</svg>
