<svg width="23" height="20" viewBox="0 0 23 20" fill="none" xmlns="http://www.w3.org/2000/svg">
<g clip-path="url(#clip0)">
<path fill-rule="evenodd" clip-rule="evenodd" d="M21.3584 11.7497V17.1829L17.0103 12.8039L15.848 13.9733L20.1961 18.3523H2.80395L7.15197 13.9861L5.98967 12.8039L1.64165 17.1829V5.69332L11.5 12.7654L14.5118 10.6058C14.0016 10.3225 13.5212 9.98787 13.078 9.6071L11.5 10.7381L3.71597 5.15127H9.85835V3.50381H0V19.9998H23V11.7497H21.3584Z" fill="#878B8F"/>
<path d="M21.4437 6.15688C20.8934 6.52611 20.2465 6.72275 19.585 6.7219C18.7 6.72077 17.8515 6.36652 17.2256 5.73684C16.5998 5.10716 16.2477 4.25346 16.2466 3.36296C16.2457 2.69742 16.4412 2.04659 16.8082 1.49286C17.1751 0.939126 17.6971 0.507393 18.3081 0.252311C18.9191 -0.00277144 19.5915 -0.0697339 20.2403 0.0599002C20.8892 0.189534 21.4852 0.509936 21.9529 0.980546C22.4206 1.45116 22.7391 2.05081 22.8679 2.70361C22.9968 3.35641 22.9302 4.03299 22.6767 4.64771C22.4232 5.26243 21.9941 5.78765 21.4437 6.15688Z" fill="#36AB4D"/>
</g>
<defs>
<clipPath id="clip0">
<rect width="23" height="20" fill="white"/>
</clipPath>
</defs>
</svg>
