<svg width="23" height="20" viewBox="0 0 23 20" fill="none" xmlns="http://www.w3.org/2000/svg">
<path fill-rule="evenodd" clip-rule="evenodd" d="M21.3584 11.7493V17.1825L17.0103 12.8035L15.848 13.9729L20.1961 18.3519H2.80395L7.15197 13.9857L5.98967 12.8035L1.64165 17.1825V5.69294L11.5 12.7651L14.5118 10.6054C14.0016 10.3221 13.5212 9.9875 13.078 9.60672L11.5 10.7378L3.71597 5.1509H9.85835V3.50344H0V19.9994H23V11.7493H21.3584ZM19.5852 6.72154C20.2467 6.72238 20.8935 6.52574 21.4439 6.15651C21.9942 5.78728 22.4233 5.26206 22.6769 4.64734C22.9304 4.03262 22.9969 3.35604 22.8681 2.70324C22.7393 2.05045 22.4208 1.45079 21.9531 0.98018C21.4853 0.50957 20.8893 0.189168 20.2405 0.059534C19.5917 -0.0701001 18.9193 -0.00313767 18.3083 0.251945C17.6973 0.507027 17.1753 0.938759 16.8083 1.49249C16.4414 2.04622 16.2459 2.69705 16.2468 3.36259C16.2479 4.25309 16.6 5.1068 17.2258 5.73648C17.8517 6.36616 18.7001 6.72041 19.5852 6.72154Z" fill="#878B8F"/>
</svg>
