<svg width="22" height="22" viewBox="0 0 22 22" fill="none" xmlns="http://www.w3.org/2000/svg">
<g clip-path="url(#clip0)">
<path d="M5.46458 22.0002C5.25537 21.9296 5.03401 21.882 4.83809 21.7844C4.15612 21.4452 3.74 20.8941 3.69146 20.1353C3.59956 18.7428 3.54408 17.348 3.47588 15.9538C3.36453 13.6578 3.25395 11.363 3.14414 9.06935C3.12045 8.57687 3.09849 8.08496 3.07421 7.56377C2.95169 7.56377 2.83899 7.56377 2.72745 7.56377C2.29688 7.55574 2.00791 7.27219 2.00791 6.84686C2.00444 6.05188 2.00098 5.25748 2.00791 4.46308C2.00822 4.01048 2.1893 3.57649 2.51143 3.25635C2.83356 2.93621 3.27042 2.75606 3.72613 2.75546C4.92941 2.74742 6.13326 2.75546 7.33711 2.75546H7.54113V2.19869C7.54113 0.878508 8.42075 0.00661647 9.74829 0.00604248C10.5986 0.00604248 11.4492 0.00604248 12.2999 0.00604248C13.5714 0.00604248 14.4591 0.893431 14.4631 2.15621C14.4631 2.34792 14.4631 2.53964 14.4631 2.75546H14.7105C15.8641 2.75546 17.0174 2.75546 18.1706 2.75546C19.2687 2.75546 19.9987 3.485 20.0004 4.57386C20.0004 5.30397 20.0004 6.03428 20.0004 6.76478C20.0004 7.30605 19.7369 7.56837 19.1913 7.56837H18.9358C18.9202 7.8347 18.9035 8.08955 18.8913 8.3444C18.7989 10.2822 18.7068 12.2198 18.6151 14.1572C18.5191 16.1444 18.4313 18.1321 18.3163 20.1187C18.2619 21.0571 17.5736 21.7832 16.6402 21.9669C16.6066 21.9766 16.5739 21.9893 16.5426 22.0048L5.46458 22.0002ZM4.46243 7.57066C4.48497 8.07061 4.5052 8.54644 4.52774 9.02687C4.63793 11.3286 4.7487 13.6307 4.86005 15.9331C4.92247 17.2344 4.98084 18.5356 5.04731 19.8363C5.0762 20.3993 5.32819 20.6243 5.90035 20.6243H16.1299C16.6709 20.6243 16.9229 20.3948 16.957 19.8541C16.9835 19.4327 16.9968 19.0103 17.0147 18.5913C17.0918 16.9611 17.1689 15.331 17.2459 13.7009C17.3407 11.7352 17.4359 9.76904 17.5314 7.80255C17.5349 7.72736 17.5314 7.65217 17.5314 7.57296L4.46243 7.57066ZM18.6162 6.1816V4.63872C18.6162 4.21741 18.5232 4.12615 18.0961 4.12615H3.82438C3.51171 4.12959 3.38977 4.24611 3.38861 4.55205C3.38861 5.04625 3.38861 5.53988 3.38861 6.03409C3.38861 6.08116 3.39786 6.1288 3.40364 6.1816H18.6162ZM8.92761 2.73766H13.0767C13.0767 2.4874 13.0876 2.25149 13.0767 2.01673C13.0682 1.84544 12.9942 1.68383 12.8696 1.56504C12.7451 1.44625 12.5795 1.37929 12.4068 1.37788C11.4706 1.37061 10.5339 1.37061 9.59687 1.37788C9.42525 1.38024 9.26094 1.44722 9.13714 1.56528C9.01334 1.68333 8.93928 1.84366 8.92992 2.01386C8.91721 2.25034 8.92761 2.48626 8.92761 2.73594V2.73766Z" fill="#505953"/>
<path d="M6.85019 14.0944C6.85019 12.6196 6.85019 11.1448 6.85019 9.67007C6.85019 9.14372 7.32063 8.80277 7.78761 8.98587C7.91053 9.03045 8.01778 9.1095 8.09636 9.21342C8.17495 9.31734 8.22148 9.44168 8.23031 9.57134C8.23523 9.6357 8.23639 9.70029 8.23378 9.76478C8.23378 12.65 8.23378 15.5355 8.23378 18.4211C8.23778 18.514 8.23275 18.607 8.21876 18.6989C8.18526 18.866 8.0903 19.0147 7.9524 19.116C7.81451 19.2174 7.64356 19.2641 7.47288 19.247C7.30221 19.2299 7.14405 19.1504 7.02925 19.0238C6.91445 18.8972 6.85123 18.7327 6.85192 18.5623C6.84672 17.6962 6.85192 16.8295 6.85192 15.9633L6.85019 14.0944Z" fill="#505953"/>
<path d="M10.3097 14.0938C10.3097 12.619 10.3097 11.1442 10.3097 9.66947C10.3097 9.14369 10.7802 8.80217 11.2472 8.98585C11.3701 9.03065 11.4772 9.10983 11.5558 9.21383C11.6344 9.31782 11.6809 9.44219 11.6899 9.57189C11.6943 9.63627 11.6953 9.70084 11.6928 9.76533C11.6928 12.6506 11.6928 15.536 11.6928 18.4217C11.697 18.5145 11.692 18.6076 11.6777 18.6995C11.6442 18.8667 11.5492 19.0155 11.4112 19.1168C11.2731 19.2181 11.102 19.2647 10.9313 19.2475C10.7605 19.2303 10.6023 19.1505 10.4876 19.0237C10.3729 18.8969 10.3099 18.7322 10.3109 18.5617C10.3057 17.6812 10.3109 16.8007 10.3109 15.9214L10.3097 14.0938Z" fill="#505953"/>
<path d="M15.1542 14.0938C15.1542 15.569 15.1542 17.0439 15.1542 18.5187C15.1542 18.8292 15.0218 19.0605 14.7386 19.1885C14.4693 19.3102 14.2156 19.258 13.996 19.0651C13.8226 18.9124 13.7648 18.7127 13.7677 18.486C13.7711 17.319 13.7677 16.1516 13.7677 14.9846C13.7677 13.2164 13.7677 11.4479 13.7677 9.67924C13.7677 9.14198 14.2439 8.79873 14.7172 8.98758C14.9929 9.09778 15.1501 9.34862 15.1507 9.69072C15.1538 11.1582 15.1549 12.6259 15.1542 14.0938Z" fill="#505953"/>
</g>
<defs>
<clipPath id="clip0">
<rect width="18" height="22" fill="white" transform="translate(2)"/>
</clipPath>
</defs>
</svg>
