<svg width="73" height="72" viewBox="0 0 73 72" fill="none" xmlns="http://www.w3.org/2000/svg">
<rect x="6.5" y="6" width="60" height="60" rx="30" fill="white"/>
<g clip-path="url(#clip0_5064_161087)">
<path d="M48.125 33.6852V35.4967C48.125 35.9981 47.7184 36.4047 47.2168 36.4047H45.2902C44.9154 37.4619 43.9052 38.2211 42.7211 38.2211C41.2276 38.2211 40.0107 37.0131 39.9967 35.5227C39.9921 35.0319 40.393 34.5998 40.8836 34.5886C41.3968 34.5769 41.816 34.9909 41.8129 35.5022C41.811 35.8486 41.996 36.1732 42.3123 36.3146C42.9771 36.6117 43.6251 36.1324 43.6294 35.5031C43.6329 34.9998 44.0216 34.5885 44.5248 34.5885H46.3086V33.6803C46.3086 33.6765 46.3086 33.673 46.3086 33.6693C46.3178 32.9042 45.816 32.1838 45.0882 31.9176C45.0868 31.9169 45.0853 31.9165 45.0839 31.916L41.8598 30.717C41.739 30.6722 41.6292 30.6021 41.5375 30.5114L37.6967 26.7117C37.3577 26.3763 36.9084 26.1916 36.4316 26.1916H30.5059C30.4896 26.1916 30.4734 26.192 30.4573 26.1928C30.1495 26.2093 29.8788 26.4032 29.7456 26.6814L27.9645 30.3985C27.8132 30.7146 27.4934 30.9154 27.1427 30.9143C26.8929 30.9134 26.6914 31.1186 26.6914 31.3684V33.6803C26.6914 34.1819 27.098 34.5885 27.5996 34.5885H28.2936C28.7966 34.5885 29.1855 35 29.189 35.5031C29.1936 36.1771 29.9363 36.6789 30.6476 36.2394C30.8898 36.0897 31.0159 35.8138 31.0059 35.5295C30.9879 35.0129 31.4012 34.5885 31.9136 34.5885H36.7961C37.2886 34.5885 37.7081 34.9714 37.7255 35.4635C37.7439 35.9802 37.3304 36.4049 36.8178 36.4049H32.6661C32.2913 37.4621 31.2813 38.2213 30.0972 38.2213C28.9128 38.2213 27.9024 37.4617 27.5278 36.404C26.0585 36.3657 24.875 35.1584 24.875 33.6801V31.3682C24.875 30.3282 25.5778 29.4493 26.5334 29.1814L28.2538 25.591C28.2634 25.5713 28.2733 25.5516 28.2843 25.5326C28.7493 24.7328 29.7366 24.375 30.5059 24.375H36.4316C37.39 24.375 38.2929 24.7463 38.9743 25.4203L42.6761 29.0826L45.7145 30.2124C47.1732 30.7472 48.1411 32.1421 48.125 33.6852Z" fill="#43B02A"/>
<path d="M47.2168 45.8086H37.4081V40.0869H39.2245C39.7262 40.0869 40.1328 39.6803 40.1328 39.1787C40.1328 38.6772 39.7262 38.2704 39.2245 38.2704H33.7755C33.2738 38.2704 32.8672 38.6772 32.8672 39.1787C32.8672 39.6803 33.2738 40.0869 33.7755 40.0869H35.5919V45.8086H25.7832C25.2816 45.8086 24.875 46.2152 24.875 46.7168C24.875 47.2184 25.2816 47.625 25.7832 47.625H47.2168C47.7184 47.625 48.125 47.2184 48.125 46.7168C48.125 46.2152 47.7184 45.8086 47.2168 45.8086Z" fill="#69C055"/>
</g>
<rect x="6.5" y="6" width="60" height="60" rx="30" stroke="#EDF8EA" stroke-width="12"/>
<defs>
<clipPath id="clip0_5064_161087">
<rect width="24" height="24" fill="white" transform="translate(24.5 24)"/>
</clipPath>
</defs>
</svg>
