<svg width="47" height="47" viewBox="0 0 47 47" fill="none" xmlns="http://www.w3.org/2000/svg">
<circle cx="23.5" cy="23.5" r="22.5" stroke="#A5A5A3" stroke-width="1.5"/>
<g clip-path="url(#clip0)">
<path d="M22.2342 12.8496C22.819 12.1773 23.445 11.5632 24.3046 11.2717C25.9585 10.7122 27.4525 11.0075 28.6972 12.2505C29.9939 13.5493 30.3159 15.1322 29.6985 16.8887C29.5545 17.2792 29.3825 17.6581 29.1839 18.0226C27.1394 21.9418 25.0912 25.8564 23.0394 29.7665C22.3347 31.11 21.078 31.7116 19.8055 31.3308C18.1637 30.8408 17.3331 29.0457 18.1322 27.4368C19.4677 24.7474 20.9024 22.1101 22.2948 19.4516C22.3069 19.4281 22.3396 19.4157 22.3831 19.3809L23.6968 20.1017L23.4547 20.5731C22.1834 23.0007 20.9121 25.4259 19.6493 27.8598C19.5109 28.1143 19.4282 28.3967 19.4071 28.6872C19.3941 28.914 19.4511 29.1391 19.5699 29.3309C19.6888 29.5226 19.8636 29.6711 20.0694 29.7553C20.2866 29.8489 20.5262 29.873 20.757 29.8245C20.9877 29.776 21.1988 29.6572 21.3625 29.4836C21.476 29.3604 21.5725 29.2218 21.6494 29.0718C23.786 24.9938 25.9205 20.9134 28.0531 16.8304C28.6584 15.6718 28.5628 14.4735 27.823 13.5741C27.5662 13.2584 27.2437 13.0056 26.8791 12.8341C26.5146 12.6627 26.1172 12.577 25.7161 12.5833C25.3151 12.5896 24.9204 12.6877 24.5612 12.8705C24.2019 13.0534 23.8871 13.3162 23.6399 13.6398C23.5003 13.8238 23.3763 14.0197 23.2694 14.2254C20.8963 18.7516 18.5257 23.2794 16.1575 27.809C15.6114 28.8547 15.3935 29.9563 15.695 31.1224C16.103 32.6966 17.0837 33.756 18.5923 34.2236C20.0694 34.6826 21.4497 34.3713 22.5999 33.3119C23.0399 32.8898 23.4082 32.3955 23.6895 31.8493C25.2127 28.9961 26.6995 26.1268 28.1984 23.2625L28.4732 22.739L29.8159 23.4833C29.759 23.6073 29.7021 23.7413 29.6331 23.8728C28.0785 26.85 26.5219 29.8227 24.9632 32.7908C23.6314 35.3277 20.9835 36.5124 18.3041 35.8016C15.1223 34.958 13.2505 31.4077 14.3087 28.2196C14.335 28.119 14.354 28.0166 14.3656 27.9132L22.2342 12.8496Z" fill="#6B7077"/>
</g>
<defs>
<clipPath id="clip0">
<rect width="16" height="25" fill="white" transform="translate(14 11)"/>
</clipPath>
</defs>
</svg>
