<svg width="72" height="73" viewBox="0 0 72 73" fill="none" xmlns="http://www.w3.org/2000/svg">
<rect x="6" y="6.5" width="60" height="60" rx="30" fill="white"/>
<g clip-path="url(#clip0_5064_161082)">
<path fill-rule="evenodd" clip-rule="evenodd" d="M34.0775 46.3086H29.1328C28.1312 46.3086 27.3164 45.4938 27.3164 44.4922V28.5078C27.3164 27.5062 28.1312 26.6914 29.1328 26.6914H40.2987C41.3002 26.6914 42.1151 27.5062 42.1151 28.5078V33.5938C42.1151 34.0954 42.5217 34.502 43.0233 34.502C43.5249 34.502 43.9315 34.0954 43.9315 33.5938V28.5078C43.9315 26.5047 42.3018 24.875 40.2987 24.875H29.1328C27.1297 24.875 25.5 26.5047 25.5 28.5078V44.4922C25.5 46.4953 27.1297 48.125 29.1328 48.125H34.0774C34.579 48.125 34.9856 47.7184 34.9856 47.2168C34.9856 46.7152 34.579 46.3086 34.0775 46.3086ZM34.8948 33.957C35.3964 33.957 35.803 34.3636 35.803 34.8652C35.803 35.3668 35.3964 35.7734 34.8948 35.7734H30.036C29.5344 35.7734 29.1278 35.3668 29.1278 34.8652C29.1278 34.3636 29.5344 33.957 30.036 33.957H34.8948ZM29.1278 38.498C29.1278 37.9964 29.5344 37.5898 30.036 37.5898H31.9886C32.4902 37.5898 32.8968 37.9964 32.8968 38.498C32.8968 38.9996 32.4902 39.4062 31.9886 39.4062H30.036C29.5344 39.4062 29.1278 38.9996 29.1278 38.498ZM39.3904 30.3242C39.892 30.3242 40.2987 30.7308 40.2987 31.2324C40.2987 31.734 39.892 32.1406 39.3904 32.1406H30.036C29.5344 32.1406 29.1278 31.734 29.1278 31.2324C29.1278 30.7308 29.5344 30.3242 30.036 30.3242H39.3904Z" fill="#69C055"/>
<path d="M45.7099 38.026L41.2521 36.0341C41.1044 35.9681 40.9486 35.9447 40.7983 35.9587C40.6482 35.9448 40.4922 35.9682 40.3446 36.0341L35.8868 38.026C35.5597 38.1722 35.3491 38.4969 35.3491 38.8552V42.3137C35.3491 43.7341 35.9103 45.1839 36.8888 46.2914C37.9335 47.4738 39.3002 48.125 40.737 48.125H40.8596C42.2965 48.125 43.6631 47.4738 44.7078 46.2914C45.6863 45.1839 46.2475 43.7341 46.2475 42.3137V38.8552C46.2475 38.4969 46.0369 38.1722 45.7099 38.026ZM44.4311 39.4441V42.3137C44.4311 44.1995 42.9037 46.3086 40.8596 46.3086H40.737C38.6929 46.3086 37.1655 44.1994 37.1655 42.3137V39.4441L40.7983 37.8209L44.4311 39.4441H44.4311Z" fill="#43B02A"/>
</g>
<rect x="6" y="6.5" width="60" height="60" rx="30" stroke="#EDF8EA" stroke-width="12"/>
<defs>
<clipPath id="clip0_5064_161082">
<rect width="24" height="24" fill="white" transform="translate(24 24.5)"/>
</clipPath>
</defs>
</svg>
