<svg width="15" height="12" viewBox="0 0 15 12" fill="none" xmlns="http://www.w3.org/2000/svg">
<path d="M0.69961 4.6L4.69961 0.3C4.89961 0.1 5.09961 0 5.29961 0C5.49961 0 5.79961 0.1 5.89961 0.3C6.19961 0.7 6.19961 1.2 5.89961 1.6L2.99961 4.8H3.09961H13.7996C14.1996 4.7 14.5996 5.1 14.5996 5.6C14.5996 6.1 14.2996 6.5 13.7996 6.5H3.19961H3.09961L5.89961 9.6C6.19961 10 6.19961 10.5 5.89961 10.9C5.59961 11.2 5.09961 11.3 4.79961 11C4.79961 11 4.79961 11 4.69961 10.9L0.69961 6.6C-0.20039 5.5 -0.20039 5.6 0.69961 4.6Z" fill="#363D44"/>
</svg>
