<svg width="22" height="22" viewBox="0 0 22 22" fill="none" xmlns="http://www.w3.org/2000/svg">
<g clip-path="url(#clip0)">
<path d="M21.9987 5.1996C21.9076 5.85527 21.5066 6.31488 21.0557 6.76275C16.693 11.0783 12.3323 15.3964 7.97357 19.717C7.82611 19.8591 7.6467 19.9638 7.45041 20.0223C5.24677 20.6621 3.03902 21.2902 0.830677 21.9218C0.76374 21.9411 0.700326 21.9734 0.63515 21.9993H0.377384C-0.00368806 21.792 -0.0694504 21.6336 0.0503318 21.2144C0.69191 18.9745 1.33466 16.7359 1.97859 14.4987C2.02889 14.3288 2.11954 14.1735 2.24282 14.0461C6.65714 9.57874 11.075 5.11566 15.4964 0.656883C16.3595 -0.214797 17.6166 -0.218906 18.485 0.643382C19.4404 1.59137 20.3869 2.54875 21.3428 3.49674C21.6879 3.84306 21.9171 4.2879 21.9987 4.76992V5.1996ZM7.99412 18.3036L17.764 8.62116L15.9467 6.80913L6.37589 16.3771C6.41875 16.3994 6.47982 16.4358 6.54206 16.4645C6.91315 16.6506 7.28306 16.8373 7.65474 17.0216C7.88256 17.1343 7.99999 17.3086 7.99177 17.5687C7.98649 17.7888 7.99412 18.0095 7.99412 18.3036ZM15.194 6.04956L13.3785 4.22989L3.69018 14.0003C3.94619 14.0003 4.13291 14.0138 4.3161 13.9974C4.66429 13.9657 4.88037 14.1148 5.02364 14.4283C5.2086 14.8391 5.42174 15.233 5.61551 15.6198L15.194 6.04956ZM14.1136 3.43452L18.5485 7.86571C19.2766 7.13256 20.0328 6.39178 20.7627 5.62575C21.115 5.25595 21.0844 4.68657 20.7075 4.30327C19.714 3.29286 18.7121 2.29106 17.7018 1.29788C17.2908 0.892853 16.6907 0.915159 16.272 1.31373C16.1011 1.47632 15.9403 1.65007 15.7712 1.81501C15.2163 2.36209 14.6561 2.90564 14.1136 3.43452ZM2.87167 14.9982C2.65031 15.7748 2.42895 16.5438 2.21581 17.3145C2.21369 17.3438 2.21783 17.3733 2.22795 17.4009C2.23807 17.4285 2.25395 17.4537 2.27452 17.4747C3.01592 18.2222 3.76084 18.9657 4.50928 19.7053C4.53907 19.7304 4.57402 19.7487 4.61167 19.7589C4.64931 19.769 4.68873 19.7708 4.72712 19.764C5.43759 19.5697 6.14454 19.3631 6.85384 19.1659C6.9654 19.1347 6.99887 19.0825 6.99653 18.971C6.98948 18.6417 6.98654 18.3118 6.99653 17.9831C7.00122 17.8445 6.9472 17.7829 6.82977 17.7266C6.37178 17.5064 5.92318 17.2681 5.46402 17.0515C5.23387 16.9502 5.04924 16.7675 4.94555 16.5385C4.7236 16.066 4.48404 15.5993 4.24447 15.1379C4.21453 15.0792 4.14054 15.007 4.08476 15.0059C3.68784 14.9929 3.2868 14.9982 2.87167 14.9982ZM1.22173 20.7713L3.43829 20.1338L1.85646 18.5489L1.22173 20.7713Z" fill="#68756D"/>
</g>
<defs>
<clipPath id="clip0">
<rect width="22" height="22" fill="white"/>
</clipPath>
</defs>
</svg>
