<svg width="20" height="20" viewBox="0 0 20 20" fill="none" xmlns="http://www.w3.org/2000/svg">
<path d="M4.70241 15.0001C4.74408 15.0001 4.78574 14.9959 4.82741 14.9897L8.33158 14.3751C8.37324 14.3667 8.41283 14.348 8.44199 14.3167L17.2732 5.4855C17.2926 5.46622 17.3079 5.44333 17.3183 5.41813C17.3288 5.39293 17.3342 5.36591 17.3342 5.33862C17.3342 5.31134 17.3288 5.28432 17.3183 5.25912C17.3079 5.23392 17.2926 5.21102 17.2732 5.19175L13.8107 1.72716C13.7712 1.68758 13.7191 1.66675 13.6628 1.66675C13.6066 1.66675 13.5545 1.68758 13.5149 1.72716L4.68366 10.5584C4.65241 10.5897 4.63366 10.6272 4.62533 10.6688L4.01074 14.173C3.99048 14.2846 3.99772 14.3995 4.03184 14.5076C4.06596 14.6158 4.12594 14.7141 4.20658 14.7938C4.34408 14.9272 4.51699 15.0001 4.70241 15.0001ZM6.10658 11.3667L13.6628 3.81258L15.1899 5.33966L7.63366 12.8938L5.78158 13.2209L6.10658 11.3667ZM17.667 16.7501H2.33366C1.96491 16.7501 1.66699 17.048 1.66699 17.4167V18.1667C1.66699 18.2584 1.74199 18.3334 1.83366 18.3334H18.167C18.2587 18.3334 18.3337 18.2584 18.3337 18.1667V17.4167C18.3337 17.048 18.0357 16.7501 17.667 16.7501Z" fill="#FE7333"/>
</svg>
