<svg width="22" height="22" viewBox="0 0 22 22" fill="none" xmlns="http://www.w3.org/2000/svg">
<path d="M22 3.73403C21.8741 4.29474 21.7451 4.85466 21.6232 5.41616C21.4293 6.30873 21.2432 7.20288 21.0486 8.09467C20.9196 8.6892 20.567 8.9204 19.9768 8.79457C18.7197 8.52562 17.4631 8.25405 16.2071 7.97986C16.0226 7.93975 15.8365 7.90593 15.6536 7.86032C15.1986 7.74708 14.9382 7.3405 15.0391 6.90798C15.1368 6.48804 15.5465 6.2356 15.9936 6.32761C16.39 6.40625 16.7856 6.49747 17.1819 6.58398C17.5783 6.67048 17.9872 6.75935 18.3905 6.84585C18.4484 6.85478 18.5076 6.8416 18.5563 6.80889C18.2334 6.37951 17.9363 5.92811 17.5838 5.52547C16.297 4.05803 14.6967 3.10883 12.7829 2.75338C9.99898 2.23671 7.52623 2.93268 5.40606 4.81849C3.88394 6.17347 2.98725 7.89021 2.6589 9.90263C2.58854 10.3312 2.58541 10.7677 2.55883 11.2057C2.52678 11.7562 2.07257 12.1077 1.5652 11.9701C1.39874 11.9238 1.25259 11.8226 1.15022 11.6826C1.04785 11.5427 0.995214 11.3723 1.00076 11.1986C0.985341 9.97816 1.20516 8.76625 1.64807 7.6299C2.92471 4.41585 5.21061 2.28232 8.53472 1.37166C11.2834 0.617489 13.9141 1.02249 16.3689 2.48285C17.7599 3.31331 18.9271 4.47445 19.768 5.86441C19.797 5.9116 19.829 5.95642 19.8876 6.0445C19.9658 5.68354 20.0377 5.3619 20.1073 5.04026C20.2199 4.51808 20.3294 3.9959 20.4427 3.47373C20.5342 3.05379 20.7929 2.81079 21.176 2.78012C21.5262 2.7518 21.8171 2.96649 21.9734 3.36756C21.9781 3.37936 21.9906 3.38801 22 3.39902V3.73403Z" fill="#36AB4D"/>
<path d="M4.3213 16.5001C4.69393 17.1261 5.14952 17.6964 5.67509 18.1946C6.98023 19.435 8.51886 20.1915 10.2865 20.3998C12.5188 20.6632 14.5521 20.1073 16.3325 18.6877C17.8135 17.5085 18.7849 15.9786 19.2571 14.1195C19.4524 13.3538 19.4996 12.5674 19.5123 11.778C19.519 11.3185 19.8303 11.0008 20.2494 11C20.6805 11 20.991 11.3338 20.9978 11.8147C21.0292 13.438 20.7276 14.9939 20.0047 16.4411C18.6113 19.2283 16.432 21.0353 13.4416 21.7444C9.53738 22.6716 5.50895 21.0254 3.25264 17.6302L3.09474 17.3936C2.96153 17.8967 2.83955 18.3607 2.72056 18.8247C2.63899 19.1349 2.55966 19.4457 2.47659 19.7558C2.35311 20.2153 1.96322 20.4664 1.55087 20.3569C1.13852 20.2474 0.911768 19.8401 1.03225 19.3738C1.39596 17.9649 1.76465 16.5577 2.13833 15.1524C2.26705 14.6685 2.63524 14.4503 3.10671 14.5774C4.4837 14.949 5.85943 15.325 7.23392 15.7053C7.68294 15.8308 7.92317 16.2351 7.8139 16.6578C7.70464 17.0805 7.29903 17.3002 6.84478 17.1777C6.056 16.9656 5.26873 16.7482 4.4807 16.533C4.44553 16.5253 4.40662 16.5169 4.3213 16.5001Z" fill="#36AB4D"/>
</svg>
