<svg width="250" height="90" viewBox="0 0 250 90" fill="none" xmlns="http://www.w3.org/2000/svg">
<path d="M116.894 47.5047C116.894 47.5047 124.367 46.9867 124.715 46.6873C125.063 46.3879 132.189 44.5285 132.828 44.2351C132.828 44.2351 137.635 41.3188 138.91 39.8008C140.186 38.2828 143.257 35.657 144.704 34.7109C146.152 33.7647 149.758 31.6748 150.094 31.2676C150.43 30.8605 150.266 29.9832 150.903 29.049C151.539 28.1149 151.753 28.0759 151.795 27.7256C151.836 27.3753 151.833 26.528 151.988 26.2885C152.142 26.0489 152.258 25.8603 152.529 26.1328C152.688 26.2906 152.819 26.475 152.915 26.6777C152.915 26.6777 153.108 25.5878 153.572 25.3154C154.036 25.0429 155.389 24.4591 155.775 24.2644C156.162 24.0698 156.197 23.965 156.468 24.2644C156.635 24.4255 156.769 24.6177 156.863 24.8303C156.979 25.0639 156.979 25.1297 156.709 25.492C156.438 25.8543 155.897 26.4262 155.897 26.4262L155.424 27.2256V27.6538C155.866 27.3565 156.279 27.0187 156.658 26.6448C157.083 26.1777 157.276 25.9831 157.47 26.1388C157.663 26.2944 157.663 26.5669 157.122 27.1478C156.581 27.7286 155.579 28.7825 155.579 28.7825C155.449 29.381 155.255 29.9633 154.999 30.5191C154.651 31.1808 154.702 31.2587 153.878 31.7647C153.055 32.2707 152.062 32.3844 151.173 33.3965C150.284 34.4085 147.621 37.0942 146.075 39.0852C144.529 41.0763 141.865 43.4417 140.667 44.3758C139.469 45.31 135.105 48.9269 134.757 49.3161C134.409 49.7053 129.852 52.4689 129.852 52.4689L111.739 59.4721L105.172 57.6756C105.172 57.6756 100.73 55.8073 100.344 55.5798C100.041 55.4257 99.7142 55.3244 99.3776 55.2803C98.6568 55.3147 97.9359 55.2132 97.2521 54.9809C96.4728 54.6748 95.7733 54.1935 95.2068 53.5737C95.0291 53.3957 94.8697 53.2001 94.7311 52.9899C94.3796 53.1219 93.9903 53.1079 93.649 52.9509C93.3687 52.7943 93.0687 52.6765 92.7572 52.6006C92.7572 52.6006 92.0229 52.6395 91.7524 52.3671C91.5836 52.1982 91.4028 52.0421 91.2113 51.9C91.0308 51.9533 90.8411 51.967 90.6549 51.9402C90.4688 51.9133 90.2905 51.8465 90.1322 51.7443C89.8582 51.5582 89.5997 51.3499 89.3592 51.1215C89.3592 51.1215 80.5894 47.2292 78.0803 46.1813C75.5713 45.1333 73.6776 44.1573 72.866 43.8069C72.0544 43.4566 71.1655 42.8758 71.1269 42.3309C71.0882 41.7859 71.1269 41.1632 71.1269 40.6182C71.1269 40.0733 71.1269 39.8008 70.7404 39.72C70.354 39.6392 69.6583 39.5254 69.581 39.2529C69.5037 38.9805 69.6583 38.7469 70.0834 38.9535C70.1822 39.0159 70.3007 39.0385 70.4153 39.0169C70.5299 38.9952 70.6321 38.9309 70.7018 38.8367C70.5367 38.5234 70.3285 38.2351 70.0834 37.9804C69.7861 37.708 68.9627 37.8247 69.0013 37.4774C69.04 37.1301 69.1559 37.178 69.4651 37.1271L69.7624 37.0882C69.7624 37.0882 69.6851 36.6211 69.8397 36.4894C69.9942 36.3576 72.0425 37.2678 72.3517 37.6181C72.6609 37.9684 73.7043 39.0942 73.8589 39.714C73.9543 40.1482 73.9933 40.5931 73.9749 41.0374C73.9749 41.0374 75.2472 41.9356 75.9429 42.1662C76.6385 42.3967 83.2828 43.6423 84.2876 43.9626C85.2924 44.283 88.1879 45.1603 89.0441 45.4028C89.9003 45.6453 93.4082 47.4268 93.4082 47.4268L99.009 49.5646L105.769 50.6155L108.124 50.6545L116.894 47.5047Z" stroke="#626973" stroke-miterlimit="10"/>
<path d="M115.562 57.3067C115.562 57.3067 117.01 55.2108 117.185 53.1149C117.285 51.6965 117.285 50.2727 117.185 48.8543L117.762 48.5549C117.762 48.5549 120.024 48.495 121.356 48.5549C122.135 48.5882 122.91 48.6884 123.672 48.8543C123.66 48.3818 123.742 47.9116 123.911 47.4708C124.08 47.03 124.335 46.6271 124.659 46.2854C125.298 45.6087 125.848 44.5967 126.74 44.2943C127.208 44.1646 127.69 44.0972 128.176 44.0937C129.124 44.0458 130.069 43.9769 131.012 43.8931C131.695 43.8302 132.87 43.926 133.39 43.4949C134.065 42.932 134.466 41.902 134.924 41.1685C135.664 39.9708 136.452 38.8211 137.222 37.6504C137.222 37.6504 138.896 38.6864 138.991 38.7462C139.095 38.7849 139.18 38.8624 139.23 38.9626C139.279 39.0629 139.288 39.1783 139.255 39.2852C139.122 40.6385 139.023 42.0248 139.255 43.3691C139.398 44.1476 139.96 44.8392 139.6 45.5159C138.81 46.9586 137.688 48.1903 136.33 49.1088C135.111 49.9202 133.681 50.6059 132.92 51.9323C132.59 52.5071 132.415 53.1628 132.091 53.7437C131.767 54.3245 131.303 54.4383 130.827 54.8276C130.482 55.109 130.53 55.3395 130.474 55.8426C130.474 56.9294 130.203 57.8187 130.474 58.8995L131.461 62.702C131.525 62.8944 131.548 63.0988 131.526 63.3009C131.492 63.4416 131.435 63.576 131.359 63.6991L130.144 65.9417C133.883 67.3489 137.106 69.2142 140.007 72.0167C142.493 74.412 144.603 77.1845 146.61 80.0049C146.771 77.4659 149.247 75.7114 150.064 73.3041C150.207 72.882 150.32 72.4059 150.674 72.1335C151.444 71.5346 152.41 72.37 152.639 73.1155C152.761 73.6309 152.8 74.1626 152.755 74.6904C152.7 76.8565 152.866 79.0225 153.248 81.1547C153.513 82.6368 153.885 84.1308 153.745 85.6309C153.483 88.4573 150.906 90.2867 148.144 89.9484C146.36 89.7298 144.814 88.622 143.352 87.5531C141.386 86.1259 139.41 84.7137 137.424 83.3164C135.64 82.0499 133.874 80.6068 132.055 79.4241C130.899 78.6666 131.071 78.433 129.507 78.3163C128.488 78.2414 127.465 78.2265 126.442 78.1995C126.701 79.6966 126.306 81.2086 125.753 82.6098C125.265 83.8374 124.659 85.0051 124.213 86.2626C123.895 87.1608 123.654 88.3226 122.652 88.6579C121.693 89.0086 120.667 89.1355 119.652 89.0292C118.633 88.9169 117.681 88.466 116.944 87.7477C116.717 87.5369 116.547 87.271 116.451 86.9752C116.406 86.7839 116.385 86.5878 116.388 86.3914C116.388 82.3942 116.174 78.3881 116.064 74.394C116.046 73.7563 115.538 73.0407 115.389 72.4149C115.178 71.5406 115.44 70.5107 114.857 69.7502C114.693 69.5544 114.503 69.3822 114.292 69.2382C113.521 68.6677 112.701 68.1667 111.843 67.7411C111.129 67.3848 110.356 67.0674 109.83 66.4806C109.185 65.783 108.971 64.8338 108.71 63.9476C108.376 62.9656 107.955 62.0164 107.449 61.1122C106.947 60.1002 106.611 58.8935 105.704 58.157C105.266 57.8391 104.783 57.5898 104.271 57.4174C102.755 56.8186 101.209 56.2198 99.904 55.2587C99.5853 55.3901 99.2435 55.4553 98.8992 55.4503C98.5543 55.4234 98.1916 55.124 97.8676 55.124C96.8982 54.6865 95.9969 54.1096 95.1921 53.4113C95.04 53.2734 94.8675 53.1603 94.6807 53.076C94.3407 52.9889 93.9864 52.9737 93.6403 53.0311C92.3471 53.094 91.4701 52.2945 90.3018 51.9352C90.0278 51.8805 89.7756 51.7462 89.5764 51.549C89.4702 51.393 89.4001 51.215 89.3713 51.028C88.964 49.2316 89.0532 47.4621 89.3297 45.6387C89.4605 44.7704 89.9985 44.5608 90.8161 45.0219C91.256 45.2704 91.6425 45.6357 92.133 45.7584C92.5029 45.8154 92.8781 45.8275 93.2508 45.7943C93.8788 45.7991 94.4969 45.9525 95.0551 46.2422C95.6134 46.5319 96.0961 46.9498 96.4644 47.4621C96.5228 47.5708 96.6132 47.6586 96.7231 47.7136C96.7966 47.7286 96.8725 47.7286 96.946 47.7136C97.9657 47.6387 98.917 47.8663 99.5473 48.7555C99.4343 48.5908 100.933 48.8603 101.001 48.8753C101.631 49.028 102.062 48.7435 102.669 48.8124C103.034 48.8674 103.387 48.9859 103.712 49.1627C103.712 49.1627 104.756 48.7525 105.451 48.8124C106.147 48.8723 107.131 49.513 107.131 49.513L108.29 50.2705C108.29 50.2705 109.854 51.8454 110.838 52.0221C111.444 52.1316 112.04 52.2878 112.622 52.4892C112.622 52.4892 114.129 54.9982 114.536 55.5821C114.944 56.1659 115.562 57.3067 115.562 57.3067Z" fill="#1EA66A"/>
<path d="M150.524 72.2742H150.501C150.319 72.2382 150.135 71.8191 150.072 71.6753C149.884 71.2339 149.872 70.736 150.04 70.2861C150.236 69.7741 150.842 69.5944 151.333 69.5166C151.449 69.4986 152.742 69.4028 152.76 69.4926L152.914 70.2322L153.509 69.2591C154.698 69.1693 155.968 69.0286 157.076 69.5405C157.423 69.6768 157.715 69.9254 157.906 70.2472C158.227 70.8819 157.689 71.358 157.136 71.5646C156.858 71.6686 156.57 71.7409 156.277 71.7801C156.152 71.7899 156.029 71.812 155.908 71.846C155.522 71.9718 155.248 72.2622 154.829 72.3131C154.347 72.3172 153.866 72.2578 153.399 72.1364L152.587 72.8969C152.425 72.627 152.219 72.3861 151.978 72.1843C151.71 72.0554 151.415 71.9957 151.119 72.0107C150.92 72.0167 150.694 72.2801 150.524 72.2742Z" fill="#303B46"/>
<path d="M112.82 68.3102C114.027 68.1908 115.243 68.1908 116.45 68.3102C118.457 68.5108 118.689 68.7443 120.157 68.7833C121.626 68.8222 126.183 67.9659 126.183 67.9659C128.228 66.9569 130.345 66.0736 132.361 65.0167C132.6 64.8694 132.864 64.7679 133.14 64.7173C133.363 64.7044 133.586 64.7433 133.793 64.831C133.999 64.9187 134.182 65.0529 134.329 65.2233C134.775 65.6933 135.033 66.3461 135.313 66.9239C135.771 67.8047 135.945 68.8071 135.812 69.7923C135.661 70.4619 135.43 71.1105 135.122 71.7235C135.076 71.8175 135.044 71.9186 135.03 72.0229C135.026 72.1236 135.036 72.2244 135.06 72.3223C135.218 73.1433 135.241 73.9848 135.128 74.8134C135.128 74.9361 134.623 76.7685 134.391 76.529C134.546 76.7144 134.654 76.935 134.706 77.1717C134.758 77.4085 134.752 77.6544 134.688 77.8883C134.638 78.0979 133.478 80.3674 133.306 80.2566L130.476 78.4392C130.568 78.4991 131.472 77.4362 131.54 77.3554C132.768 75.8882 133.027 74.0379 132.961 72.1666C132.961 72.1666 132.497 70.5348 132.42 70.1066C132.343 69.6785 132.233 68.9389 132.233 68.9389C132.203 68.7473 130.797 68.1455 130.616 68.0407C130.517 68.5734 130.219 69.0479 129.784 69.3669C129.349 69.6858 128.81 69.8252 128.276 69.7563C128.122 69.7148 127.963 69.6967 127.803 69.7024C127.658 69.7305 127.518 69.7831 127.39 69.8581C126.472 70.3192 125.012 70.8821 123.959 70.6456C123.398 70.5198 123.237 70.5917 122.696 70.8222C122.216 71.0427 121.709 71.1968 121.189 71.2803C119.536 71.4989 117.651 70.9001 116.082 70.415C116.248 70.4659 116.646 71.4989 116.765 71.6995C117.048 72.1743 117.357 72.633 117.69 73.0738C118.349 73.9468 119.109 74.7369 119.955 75.4272C121.602 76.739 123.507 77.6822 125.544 78.1937C125.853 78.2972 126.176 78.3517 126.501 78.3554L126.549 79.5141C125.821 79.6056 125.088 79.6456 124.355 79.6339C123.375 79.6221 122.403 79.4513 121.477 79.1279C120.33 78.7386 118.861 77.9991 118.281 77.3314C117.984 77.0035 117.714 76.6521 117.473 76.2805C116.909 76.1159 116.428 75.7426 116.126 75.2355C115.734 74.4541 115.347 73.5588 115.347 73.5588C114.986 73.1847 114.744 72.7103 114.652 72.1965C114.52 71.5042 114.52 70.793 114.652 70.1007L114.631 69.4809L112.82 68.3102Z" fill="#282F38"/>
<path d="M108.328 49.6427C108.328 49.6427 108.185 49.2145 107.682 49.6427C106.838 50.3643 106.606 51.8613 106.377 52.8853C105.97 54.7143 105.735 56.5779 105.676 58.4513C105.676 58.4513 106.098 59.4843 106.794 60.7867C107.165 61.4843 107.525 62.1999 107.953 62.8676C108.015 62.9664 108.223 63.3856 108.363 63.3856C108.661 63.3856 108.661 62.5652 108.661 62.3646C108.8 60.5532 108.788 58.7358 108.937 56.9243C109.08 55.3832 109.373 53.8599 109.811 52.3763L110.159 51.7565L108.328 49.6427Z" fill="#282F38"/>
<path d="M130.125 66.9152C130.467 66.7086 128.781 63.7953 128.638 63.5228C127.464 61.3282 126.343 58.7772 124.063 57.5346L123.677 57.3011C123.677 57.3011 123.599 57.0676 123.677 55.9777C123.714 54.7654 123.571 53.5543 123.252 52.3848C122.954 51.0824 121.789 48.5793 121.789 48.5793L122.826 48.6931L123.68 48.5793C123.65 48.1978 123.731 47.8158 123.915 47.4804C124.209 46.9529 124.548 46.452 124.928 45.9834H121.462L118.459 46.5014L117.651 46.9295L117.255 48.3697L117.187 48.8547L117.764 48.5553L118.691 48.5374C118.846 48.5374 119.158 49.0913 119.22 49.1961C119.57 49.8248 119.749 50.5354 119.738 51.256C119.788 52.8848 119.77 54.5196 119.678 56.1484C119.611 56.8568 119.591 57.569 119.619 58.2802C119.657 58.7473 119.967 59.2143 120.469 60.2233C121.291 61.8365 122.28 63.357 123.421 64.7594C124.64 66.2834 125.859 67.9062 127.88 68.2775L130.125 66.9152Z" fill="#282F38"/>
<path d="M111.777 50.6151L112.669 52.5223C112.669 52.5223 113.802 54.4086 114.191 55.0104C114.581 55.6122 115.285 56.7859 115.285 56.7859L115.568 57.3069C115.983 56.6172 116.353 55.9011 116.677 55.1631C116.908 54.5044 117.271 53.9655 117.271 53.0493C117.271 52.1331 117.271 49.8755 117.271 49.8755L117.027 47.8545L111.777 50.6151Z" fill="#353F49"/>
<path d="M112.664 52.5215C113.484 52.2519 114.268 51.8786 114.995 51.4107C115.946 50.734 116.383 49.722 117.141 48.8896C117.275 49.1891 117.186 49.743 117.186 50.0873C117.186 50.2969 117.29 50.8478 117.186 51.0334C116.86 51.5668 116.425 52.024 115.91 52.3748C115.22 52.7811 114.496 53.1267 113.746 53.4077L113.279 53.5305L112.664 52.5215Z" fill="#3D4855"/>
<path d="M105.814 41.9584C105.814 41.9315 105.814 41.9015 105.814 41.8746C105.793 41.2189 105.969 40.2757 106.376 39.7428C106.875 39.0811 108.989 38.0481 110.163 38.0302C111.338 38.0122 113.056 38.0691 113.906 38.5362C114.756 39.0032 114.97 39.2547 115.277 39.8206C115.583 40.3865 116.65 42.4015 116.823 43.2219C116.92 43.6904 117.058 44.1493 117.236 44.5932C117.504 44.5346 117.785 44.5806 118.021 44.722C118.164 44.8541 118.265 45.0268 118.309 45.2175C118.354 45.4083 118.34 45.6081 118.27 45.7909C118.126 46.1137 117.959 46.4259 117.771 46.725C117.59 47.0065 117.563 47.4646 117.474 47.7819C117.338 48.2185 117.167 48.6431 116.962 49.0514C116.569 49.8536 116.018 50.5667 115.342 51.1473C114.319 52.0025 113.038 52.4819 111.709 52.5066C110.52 52.5276 109.426 51.6353 108.736 50.7311C107.88 49.6233 107.378 48.2071 106.953 46.8807C106.527 45.4807 106.186 44.0559 105.933 42.6141C105.879 42.3984 105.84 42.1794 105.814 41.9584Z" fill="white" stroke="#636974" stroke-width="0.6" stroke-miterlimit="10"/>
<path d="M112.445 48.5063L109.583 48.9899C109.583 49.4734 110.681 50.3994 111.888 50.0428C112.705 49.801 112.717 48.7481 112.445 48.5063Z" fill="#373F46" stroke="#919AA4" stroke-width="0.2"/>
<path d="M112.621 45.3423C112.889 45.2922 113.043 44.905 112.964 44.4774C112.885 44.0498 112.604 43.7437 112.336 43.7938C112.068 43.8439 111.915 44.2311 111.993 44.6587C112.072 45.0863 112.353 45.3923 112.621 45.3423Z" fill="#636974"/>
<path d="M108.333 46.4143C108.601 46.3642 108.754 45.977 108.676 45.5494C108.597 45.1218 108.316 44.8158 108.048 44.8658C107.78 44.9159 107.626 45.3031 107.705 45.7307C107.784 46.1583 108.065 46.4644 108.333 46.4143Z" fill="#636974"/>
<path d="M105.039 43.8608C105.067 43.7832 105.116 43.7154 105.182 43.6662C105.382 43.5003 105.59 43.3454 105.806 43.2021C106.705 42.6388 107.679 42.2083 108.699 41.9237C110.022 41.5233 111.381 41.2584 112.757 41.1332C113.449 41.07 114.143 41.043 114.838 41.0524C115.231 41.0374 115.624 41.088 116 41.2021L116.369 41.9895C116.369 41.9895 115.67 41.9895 115.516 42.1782C115.361 42.3668 115.429 42.6452 115.435 42.8428C115.435 43.1423 115.462 43.4147 115.465 43.7022C115.465 44.3788 115.447 45.1783 115.168 45.798C115.02 46.07 114.813 46.3047 114.563 46.4842C114.312 46.6636 114.024 46.7833 113.72 46.834C113.038 46.9318 112.342 46.8114 111.731 46.4897C111.382 46.3113 111.048 46.1051 110.732 45.8729C110.478 45.6368 110.194 45.4355 109.888 45.2741C109.837 45.2584 109.783 45.2539 109.73 45.2609C109.677 45.2678 109.626 45.2861 109.58 45.3144C109.535 45.3427 109.496 45.3804 109.466 45.4251C109.436 45.4698 109.416 45.5204 109.406 45.5735C109.311 45.8459 109.273 46.4418 109.175 46.9029C109.044 47.5316 108.836 48.2801 108.134 48.4478C107.376 48.6275 106.585 48.1873 106.148 47.5765C105.85 47.1216 105.641 46.6135 105.533 46.0795C105.396 45.5076 105.277 44.9327 105.143 44.3579C105.072 44.1423 104.998 43.9926 105.039 43.8608Z" fill="#DBE8E2" fill-opacity="0.26" stroke="#1EA66A" stroke-width="0.5" stroke-miterlimit="10"/>
<path d="M117.649 46.9204C117.649 46.9204 120.467 46.9983 121.811 46.7258C123.154 46.4534 125.402 45.0132 126.445 43.7676C127.831 42.0271 128.605 39.8726 128.645 37.6417C128.684 35.0159 129.263 32.8362 131.814 32.3302C134.192 31.8601 136.69 32.1745 139.095 31.9859C141.592 31.7852 144.291 30.9888 146.405 29.5906C148.117 28.4648 149.514 26.6564 149.618 24.5994C149.764 21.782 147.603 19.0244 145.076 18.0274C143.482 17.4397 141.768 17.2597 140.088 17.5034C138.625 17.683 137.201 18.1022 135.762 18.4016C134.784 18.6172 133.417 19.0992 132.43 18.8567C132.125 18.7886 131.841 18.647 131.603 18.4442C131.365 18.2413 131.179 17.9832 131.062 17.692C130.965 17.3546 130.948 16.9991 131.012 16.6539C131.076 16.3087 131.22 15.9834 131.431 15.7039C131.857 15.1519 132.357 14.6622 132.917 14.2488C134.169 13.2248 134.918 11.9104 135.509 10.4134C136.063 9.06684 136.191 7.58105 135.875 6.15874C135.489 4.06287 134.519 2.44006 132.516 1.57477C131.029 0.931037 129.308 0.886126 127.735 1.15559C125.518 1.54183 123.464 2.6227 121.656 3.97903C119.435 5.71632 117.405 7.68765 115.6 9.85945C115.416 10.1075 115.195 10.3265 114.946 10.5092C114.861 10.5655 114.761 10.5954 114.659 10.5954C114.558 10.5954 114.458 10.5655 114.373 10.5092C114.298 10.4415 114.242 10.3561 114.209 10.2607C114.098 9.9058 114.028 9.53902 114.001 9.16781C113.778 7.84142 112.684 6.55695 111.346 6.2785C109.931 5.97909 108.299 6.89529 107.184 7.69771C106.07 8.50012 105.151 9.65884 104.321 10.7996C102.728 12.9943 101.41 15.3799 100.4 17.9016C98.2718 23.2101 97.2729 29.2283 99.6482 34.6326C100.578 36.754 101.92 38.6661 103.596 40.2556C103.957 40.605 104.345 40.9253 104.756 41.2137C104.937 41.3364 105.808 41.6388 105.808 41.8844C105.808 41.8844 106.105 40.3154 107.372 39.6148C108.638 38.9142 108.879 38.5639 110.811 38.6028C112.744 38.6417 113.071 38.8483 114.17 39.3394C114.988 39.711 115.636 40.3791 115.987 41.2107C116.248 41.7586 116.816 43.2317 116.816 43.2317L117.185 44.4892C117.185 44.4892 117.779 44.4144 118.014 44.7317C118.249 45.0491 118.526 45.2737 118.264 45.8006C118.002 46.3276 117.649 46.9204 117.649 46.9204Z" fill="white" stroke="#636974" stroke-miterlimit="10"/>
<path d="M103.003 12.752C102.778 13.2304 102.608 13.7325 102.494 14.249C102.142 15.3572 101.882 16.4928 101.715 17.6443C101.347 20.252 101.456 22.9056 102.036 25.4739C102.824 28.8333 104.679 31.7256 106.909 34.3005C107.753 35.3124 108.704 36.229 109.745 37.0341C110.177 37.349 110.624 37.6418 111.086 37.9114C111.52 38.1659 112.147 38.3815 112.498 38.7288C111.71 38.8605 110.818 38.5282 110.001 38.618C109.164 38.7258 108.361 39.0149 107.646 39.4653C106.876 39.9773 106.754 40.0402 106.285 40.7019C106.034 41.0209 105.876 41.4031 105.827 41.8067C105.177 41.5711 104.586 41.1962 104.094 40.7079C103.169 39.8366 102.271 39.1809 101.263 37.5281C100.256 35.8754 99.2419 34.4981 98.8198 32.2465C98.3976 29.995 98.0468 27.4769 98.4422 25.1954C98.8376 22.9139 98.8495 21.9019 99.8365 19.4078C100.823 16.9138 102.099 14.3179 102.099 14.3179L103.003 12.752Z" stroke="#76808B" stroke-miterlimit="10"/>
<path d="M109.479 14.3986C108.977 15.0573 108.462 15.698 107.993 16.3837C107.527 17.0463 107.128 17.7545 106.803 18.4975C106.193 19.978 106.144 21.6324 106.664 23.1473C106.903 23.9168 107.225 24.6577 107.624 25.357C108.023 26.0652 108.465 26.7482 108.947 27.402C109.916 28.7194 110.962 30.0308 111.724 31.5069C110.766 30.1565 109.625 28.9799 108.581 27.6894C107.486 26.4099 106.645 24.9311 106.102 23.333C105.844 22.5117 105.726 21.6521 105.754 20.791C105.792 19.9279 106.008 19.0824 106.39 18.3089C107.145 16.7699 108.305 15.5483 109.479 14.3986Z" fill="#76808B"/>
<path d="M128.666 5.32324C124.867 7.12895 121.411 9.5903 118.454 12.5959C117.469 13.578 116.585 14.6573 115.814 15.8176C115.04 16.9614 114.46 18.2273 114.099 19.5632C113.762 20.9075 113.662 22.3008 113.802 23.6801C113.923 25.0724 114.252 26.4383 114.78 27.7311C115.333 29.0275 115.975 30.284 116.7 31.4917C115.874 30.3398 115.142 29.1222 114.512 27.8509C113.904 26.5502 113.508 25.1589 113.341 23.731C113.152 22.2996 113.225 20.8456 113.555 19.4404C113.916 18.0368 114.513 16.7054 115.318 15.5032C116.116 14.3136 117.033 13.21 118.056 12.2097C119.067 11.2117 120.142 10.2825 121.275 9.42815C123.53 7.70936 126.019 6.32684 128.666 5.32324Z" fill="#76808B"/>
<path d="M131.128 10.1584C130.325 10.9069 129.614 11.7542 128.77 12.4788C127.936 13.1813 127.15 13.9406 126.419 14.7513C124.971 16.375 123.78 18.2128 122.887 20.2006C122.011 22.2062 121.32 24.2889 120.824 26.4223C120.298 28.5571 119.84 30.7189 119.278 32.8566C119.614 30.674 119.917 28.4853 120.372 26.3175C120.793 24.1284 121.455 21.9934 122.346 19.9521C123.267 17.9107 124.53 16.0441 126.08 14.4339C126.855 13.6407 127.694 12.9118 128.586 12.2542C129.478 11.6195 130.236 10.8081 131.128 10.1584Z" fill="#76808B"/>
<path d="M134.371 18.9884C133.207 19.5568 132.099 20.2355 131.062 21.0154C130.024 21.7853 129.079 22.6757 128.247 23.6682C127.836 24.1651 127.456 24.687 127.108 25.2311C126.769 25.7779 126.471 26.3493 126.216 26.9407C125.718 28.1382 125.329 29.3789 125.054 30.6474C124.757 31.9109 124.486 33.1924 124.127 34.4559C123.776 35.7248 123.259 36.9411 122.59 38.0728C121.924 39.1983 121.157 40.2597 120.298 41.2435C119.439 42.2335 118.385 43.0328 117.203 43.5909C118.346 42.9848 119.357 42.154 120.176 41.1477C121.008 40.155 121.748 39.0865 122.385 37.956C123.026 36.8314 123.525 35.6304 123.871 34.3811C124.216 33.1295 124.465 31.851 124.763 30.5786C125.046 29.2965 125.444 28.0429 125.952 26.8329C126.218 26.2301 126.529 25.6485 126.882 25.0934C127.24 24.5409 127.638 24.0156 128.072 23.5215C129.811 21.5579 131.963 20.0094 134.371 18.9884Z" fill="#76808B"/>
<ellipse cx="110.164" cy="46.8584" rx="0.516298" ry="0.390149" transform="rotate(-18.3308 110.164 46.8584)" fill="#C4C4C4" fill-opacity="0.5"/>
<path d="M39.1288 72.5424C39.2365 71.8671 39.294 71.1844 39.3007 70.5001C39.2962 67.1864 38.0089 64.0097 35.721 61.6665C33.4331 59.3234 30.3314 58.0049 27.0959 58.0003C24.9335 57.9859 22.8073 58.5685 20.9409 59.6869C19.0745 60.8053 17.5369 62.4182 16.4897 64.3558C15.1844 63.7578 13.7568 63.4932 12.3296 63.5847C10.9024 63.6762 9.51827 64.1211 8.29597 64.8812C7.07366 65.6413 6.04976 66.6939 5.31217 67.9486C4.57459 69.2033 4.14537 70.6226 4.06137 72.0846C2.7863 72.4217 1.67489 73.2232 0.935132 74.339C0.195377 75.4547 -0.122012 76.8084 0.0423622 78.1465C0.206736 79.4847 0.841613 80.7156 1.82816 81.609C2.81471 82.5023 4.08532 82.9968 5.40218 83H36.5847C37.3024 82.9977 38.0126 82.8498 38.6742 82.5648C39.3358 82.2798 39.9356 81.8633 40.4391 81.3395C40.9426 80.8156 41.3398 80.1948 41.6076 79.5128C41.8754 78.8308 42.0087 78.1013 41.9996 77.3663C41.9925 76.3713 41.7217 75.397 41.2161 74.5474C40.7105 73.6978 39.9891 73.0048 39.1288 72.5424ZM36.5847 81.6092H5.40218C4.862 81.6069 4.3276 81.4951 3.82984 81.2802C3.33207 81.0653 2.88078 80.7515 2.50202 80.3571C2.12326 79.9626 1.82452 79.4952 1.62305 78.9819C1.42157 78.4686 1.32134 77.9195 1.32816 77.3663C1.35728 76.2607 1.79332 75.2073 2.54885 74.4172C3.30439 73.6271 4.3236 73.1586 5.40218 73.1057V72.5776C5.42929 70.5695 6.22725 68.6531 7.62342 67.2429C9.0196 65.8327 10.9017 65.0422 12.8626 65.0424C14.3508 65.059 15.8044 65.5044 17.057 66.3276C17.9202 64.3223 19.3187 62.6073 21.0917 61.3801C22.8647 60.1529 24.94 59.4635 27.0787 59.3911C29.9541 59.3957 32.7104 60.5677 34.7436 62.65C36.7768 64.7323 37.921 67.5553 37.9255 70.5001C37.9517 71.4631 37.8358 72.4246 37.5817 73.3522C38.4417 73.6021 39.2017 74.1258 39.7518 74.8474C40.3019 75.569 40.6135 76.4512 40.6416 77.3663C40.6507 77.9186 40.5526 78.4673 40.353 78.9806C40.1534 79.4938 39.8563 79.9613 39.4789 80.356C39.1015 80.7507 38.6514 81.0647 38.1545 81.2799C37.6577 81.495 37.1241 81.6069 36.5847 81.6092Z" fill="#47535E"/>
<path d="M247.306 30.8539C248.403 29.4868 248.997 27.7847 248.99 26.032C248.996 24.2461 248.389 22.5121 247.272 21.1193C246.154 19.7265 244.593 18.759 242.848 18.3782C242.458 16.8032 241.762 15.3206 240.799 14.015C239.836 12.7095 238.625 11.6066 237.235 10.7695C235.845 9.93248 234.304 9.37764 232.7 9.13678C231.096 8.89591 229.46 8.97374 227.885 9.36581C226.595 9.68451 225.367 10.2147 224.25 10.9348C221.317 9.94901 218.112 10.1644 215.337 11.5341C212.563 12.9037 210.443 15.3162 209.441 18.2442C207.396 18.059 205.361 18.6938 203.784 20.0089C202.207 21.3241 201.217 23.2119 201.032 25.257C200.846 27.3022 201.481 29.3371 202.796 30.9142C204.111 32.4914 205.999 33.4814 208.044 33.6667H208.752H214.052C213.893 34.4122 213.884 35.1819 214.026 35.9309C214.168 36.6798 214.457 37.3931 214.877 38.029C215.298 38.6649 215.841 39.2107 216.474 39.6345C217.108 40.0584 217.819 40.3518 218.567 40.4977C218.952 40.5738 219.343 40.6122 219.735 40.6125H243.25C244.407 40.643 245.546 40.3231 246.518 39.6946C247.49 39.0661 248.249 38.1584 248.696 37.0907C249.143 36.023 249.257 34.8451 249.022 33.7116C248.788 32.5781 248.216 31.5419 247.382 30.7391L247.306 30.8539ZM208.752 32.3655C207.892 32.4128 207.032 32.2843 206.224 31.9879C205.415 31.6915 204.676 31.2333 204.05 30.6414C203.425 30.0495 202.927 29.3364 202.587 28.5455C202.246 27.7546 202.071 26.9026 202.071 26.0415C202.071 25.1805 202.246 24.3285 202.587 23.5376C202.927 22.7467 203.425 22.0336 204.05 21.4417C204.676 20.8498 205.415 20.3916 206.224 20.0952C207.032 19.7988 207.892 19.6703 208.752 19.7176C209.115 19.6891 209.48 19.6891 209.843 19.7176C210.012 19.7475 210.186 19.713 210.331 19.621C210.476 19.5289 210.582 19.3859 210.627 19.2201C211.018 17.8654 211.682 16.6051 212.578 15.5172C213.475 14.4292 214.585 13.5367 215.841 12.8947C217.096 12.2528 218.469 11.875 219.876 11.7847C221.283 11.6944 222.694 11.8936 224.02 12.3699C224.12 12.4252 224.232 12.4542 224.346 12.4542C224.46 12.4542 224.572 12.4252 224.671 12.3699C225.861 11.5666 227.197 11.0055 228.603 10.7188C230.01 10.4321 231.459 10.4254 232.868 10.6991C234.277 10.9727 235.618 11.5214 236.815 12.3137C238.012 13.106 239.041 14.1264 239.844 15.3166C240.638 16.4721 241.197 17.7724 241.489 19.1435C241.522 19.2846 241.596 19.4127 241.701 19.5115C241.807 19.6104 241.94 19.6755 242.082 19.6984C243.58 19.9298 244.947 20.6861 245.939 21.8322C246.931 22.9784 247.483 24.4397 247.497 25.9554C247.503 27.3883 247.017 28.7798 246.12 29.8972C245.598 29.5756 245.03 29.3368 244.436 29.1892C243.811 26.8689 242.299 24.887 240.227 23.6702C238.155 22.4534 235.688 22.099 233.358 22.6834C232.473 22.9231 231.629 23.2905 230.851 23.7741C229.987 23.4903 229.082 23.3481 228.172 23.3531C226.391 23.3586 224.655 23.9125 223.2 24.9396C221.745 25.9667 220.642 27.4171 220.041 29.0935C218.893 29.0101 217.746 29.2739 216.75 29.8505C215.753 30.4272 214.953 31.2901 214.454 32.3272L208.752 32.3655ZM243.192 39.3113H219.658C218.544 39.2377 217.499 38.7431 216.735 37.9276C215.972 37.1122 215.547 36.037 215.547 34.92C215.547 33.803 215.972 32.7278 216.735 31.9123C217.499 31.0969 218.544 30.6022 219.658 30.5286C219.913 30.5097 220.169 30.5097 220.423 30.5286C220.595 30.5533 220.769 30.5143 220.914 30.4191C221.058 30.3239 221.163 30.1791 221.208 30.012C221.64 28.4976 222.553 27.165 223.81 26.2157C225.066 25.2663 226.598 24.7518 228.172 24.75C229.033 24.7514 229.887 24.9002 230.698 25.1901C230.799 25.2421 230.91 25.2692 231.023 25.2692C231.136 25.2692 231.248 25.2421 231.349 25.1901C232.185 24.6139 233.128 24.2101 234.122 24.002C235.116 23.794 236.142 23.7859 237.139 23.9782C238.136 24.1706 239.085 24.5595 239.931 25.1224C240.776 25.6852 241.501 26.4107 242.063 27.2566C242.638 28.0918 243.035 29.0361 243.23 30.0311C243.26 30.1733 243.333 30.3028 243.44 30.4021C243.546 30.5013 243.68 30.5656 243.824 30.586C244.931 30.7326 245.941 31.2967 246.646 32.1629C247.351 33.0291 247.699 34.132 247.619 35.2462C247.538 36.3604 247.035 37.4017 246.212 38.1573C245.389 38.9129 244.309 39.3257 243.192 39.3113Z" fill="#626872"/>
</svg>
