<svg width="251" height="82" viewBox="0 0 251 82" fill="none" xmlns="http://www.w3.org/2000/svg">
<path d="M0 79.6547H149.013C153.28 79.6547 161.623 78.9822 164.996 78.6039C170.134 78.0682 175.315 78.0682 180.453 78.6039C185.781 79.2764 192.705 80.9998 196.436 81.2731C200.166 81.5463 209.623 80.8632 212.418 79.7388C215.213 78.6144 221.739 78.688 227.339 79.7388C232.94 80.7897 243.185 79.7388 245.455 79.7388C247.725 79.7388 249.448 79.7388 249.448 79.7388" stroke="#191919" stroke-miterlimit="10"/>
<path d="M14.4533 79.7376C13.2239 79.7376 20.6635 60.1603 21.2414 58.8572C22.4919 56.062 26.7686 45.9528 30.4359 50.0826C32.5374 52.4786 34.0296 53.1406 35.4902 51.4067C36.9508 49.6728 38.9578 47.6762 40.0191 48.748C41.0804 49.8199 42.9508 48.5379 45.6198 48.4433C48.2888 48.3487 49.0769 48.8741 51.4832 50.3453C53.8895 51.8165 53.7424 51.9426 55.6864 51.144C57.6303 50.3453 59.8895 49.8094 61.14 53.004C62.3904 56.1986 63.4097 57.6697 65.2801 54.3386C67.1505 51.0074 66.478 49.4101 69.2731 50.1352C72.0682 50.8602 73.802 54.265 74.8738 55.1897C75.9456 56.1145 77.5323 57.4596 78.6041 56.2406C79.676 55.0216 81.021 51.1125 82.5446 54.1389C86.0227 61.106 89.5534 68.0311 93.0525 74.9772C93.4841 75.7098 93.7795 76.5144 93.9247 77.3521C94.2084 80.1684 91.9807 79.706 90.0998 79.706H79.056H45.7774L14.4533 79.7376Z" stroke="#191919" stroke-miterlimit="10"/>
<path d="M37.0391 49.7478C37.7051 47.826 38.484 45.9452 39.3718 44.1153C39.8447 43.1485 40.8009 40.2166 42.1564 40.1641C42.8184 40.1641 43.2808 40.7841 43.6275 41.3515L48.0093 48.6444" stroke="#191919" stroke-miterlimit="10"/>
<path d="M37.0273 64.7224C39.6228 62.8519 42.2813 60.9183 43.9626 58.2176C45.1815 56.2526 45.8855 54.0142 47.1149 52.1017C50.4354 47.0576 54.9118 42.8858 59.0519 38.5352C59.7139 37.8417 60.5966 37.0851 61.5213 37.3688C61.9781 37.5712 62.368 37.8992 62.6456 38.3146C66.3509 42.9221 69.7824 47.7433 72.9224 52.7532" stroke="#191919" stroke-miterlimit="10"/>
<path d="M126.794 14.9514C133.617 13.7106 140.536 13.0765 147.471 13.0563C150.623 13.1166 154.929 13.2937 157.68 15.0702C157.802 15.1298 157.909 15.2166 157.992 15.3238C158.076 15.4311 158.134 15.556 158.162 15.689C158.16 15.8975 158.081 16.098 157.941 16.2523C156.862 17.6926 154.934 18.507 153.334 19.1595C150.625 20.2496 147.832 21.117 144.982 21.7532C132.694 24.5763 119.557 25.1444 106.991 25.4502C100.519 25.6642 94.042 25.2267 87.6574 24.1444C84.6104 23.55 83.8297 22.6101 84.2571 21.1468C84.6845 19.6835 90.0044 20.1323 94.7936 19.7511C102.425 19.1616 109.947 17.6661 117.505 16.4761C120.573 15.9883 123.673 15.4486 126.794 14.9514Z" stroke="#191919" stroke-miterlimit="10"/>
<path d="M155.128 13.9486C155.128 13.9486 153.64 14.8135 153.753 16.0874C153.914 16.981 154.368 17.7957 155.043 18.4034C155.043 18.4034 157.711 16.8254 157.932 16.2515C158.154 15.6777 158.602 15.2974 156.913 14.6239L155.128 13.9486Z" fill="#40CF7E"/>
<path d="M126.793 14.9517C126.793 14.9517 117.371 9.72614 114.467 8.27261C111.562 6.81908 110.704 6.09843 109.18 6.06924L105.566 6L116.06 16.7115L121.194 15.8849L126.793 14.9517Z" stroke="#191919" stroke-miterlimit="10"/>
<path d="M133.087 23.8166C132.257 23.8007 131.133 25.9338 130.744 26.5254C126.732 32.4037 122.183 37.8969 117.155 42.9346C116.702 43.4543 116.136 43.8645 115.501 44.1345C114.866 44.4045 114.178 44.5272 113.489 44.4935C112.974 44.4836 111.086 44.2898 110.897 43.7291C110.788 43.4012 111.64 42.2824 111.803 41.9702L115.399 35.3229L121.032 24.9205C121.032 24.9205 123.777 24.8259 127.715 24.4179C131.654 24.0099 133.087 23.8166 133.087 23.8166Z" stroke="#191919" stroke-miterlimit="10"/>
<path d="M87.0231 22.1348L94.7297 23.0813C94.7297 23.0813 87.8382 28.4146 86.8981 28.6594C85.9581 28.9041 83.1713 28.9874 84.0319 27.4063C84.8925 25.8252 87.0231 22.1348 87.0231 22.1348Z" fill="white" stroke="#191919" stroke-miterlimit="10"/>
<path d="M98.912 20.3661C98.912 20.3661 93.775 14.2137 91.4597 12.7294C90.5581 12.1483 89.5125 11.8297 88.44 11.8092C87.3676 11.7886 86.3105 12.067 85.3873 12.613C85.1856 12.7143 90.5082 19.606 90.917 20.2129L98.912 20.3661Z" fill="#40CF7E"/>
<path d="M86.0417 20.2356C86.0417 20.2356 83.2479 17.3968 83.5281 17.0343C83.8083 16.6718 85.8168 16.6157 87.3838 17.1082C88.9509 17.6007 90.7138 19.9362 90.7138 19.9362L86.0417 20.2356Z" stroke="#191919" stroke-miterlimit="10"/>
<path d="M111.053 20.9021L111.024 22.4256C111.016 22.8259 111.334 23.1567 111.735 23.1644L112.281 23.1749C112.681 23.1825 113.012 22.8642 113.02 22.4638L113.049 20.9404C113.057 20.54 112.738 20.2092 112.338 20.2015L111.792 20.191C111.391 20.1834 111.061 20.5017 111.053 20.9021Z" fill="#40CF7E"/>
<path d="M115.993 20.3253L115.964 21.8488C115.956 22.2492 116.275 22.58 116.675 22.5876L117.221 22.5981C117.622 22.6058 117.953 22.2874 117.96 21.887L117.989 20.3636C117.997 19.9632 117.679 19.6324 117.278 19.6247L116.732 19.6143C116.332 19.6066 116.001 19.925 115.993 20.3253Z" fill="#40CF7E"/>
<path d="M120.957 19.5993L120.928 21.1228C120.92 21.5232 121.239 21.854 121.639 21.8616L122.185 21.8721C122.586 21.8798 122.916 21.5614 122.924 21.161L122.953 19.6376C122.961 19.2372 122.643 18.9064 122.242 18.8987L121.696 18.8883C121.296 18.8806 120.965 19.1989 120.957 19.5993Z" fill="#40CF7E"/>
<path d="M125.992 18.9921L125.963 20.5156C125.955 20.9159 126.274 21.2467 126.674 21.2544L127.22 21.2649C127.621 21.2725 127.952 20.9542 127.959 20.5538L127.988 19.0304C127.996 18.63 127.678 18.2992 127.277 18.2915L126.731 18.281C126.331 18.2734 126 18.5917 125.992 18.9921Z" fill="#40CF7E"/>
<path d="M130.882 18.3077L130.853 19.8312C130.846 20.2315 131.164 20.5623 131.564 20.57L132.111 20.5805C132.511 20.5881 132.842 20.2698 132.849 19.8694L132.879 18.3459C132.886 17.9456 132.568 17.6148 132.168 17.6071L131.621 17.5966C131.221 17.589 130.89 17.9073 130.882 18.3077Z" fill="#40CF7E"/>
<path d="M135.822 17.6987L135.793 19.2221C135.786 19.6225 136.104 19.9533 136.504 19.961L137.051 19.9714C137.451 19.9791 137.782 19.6607 137.789 19.2604L137.818 17.7369C137.826 17.3365 137.508 17.0057 137.107 16.9981L136.561 16.9876C136.161 16.9799 135.83 17.2983 135.822 17.6987Z" fill="#40CF7E"/>
<path d="M140.765 17.0045L140.736 18.528C140.728 18.9283 141.047 19.2591 141.447 19.2668L141.993 19.2773C142.394 19.2849 142.725 18.9666 142.732 18.5662L142.761 17.0428C142.769 16.6424 142.451 16.3116 142.05 16.3039L141.504 16.2934C141.104 16.2858 140.773 16.6041 140.765 17.0045Z" fill="#40CF7E"/>
<path d="M145.465 65.1738L241.276 67.2755C241.276 67.2755 246.078 73.7172 247.318 75.6823C248.097 76.9705 248.799 78.304 249.42 79.6755C243.199 79.9067 236.81 80.5267 230.611 80.0328C228.309 79.8542 226.092 79.2867 223.812 79.0555C218.973 78.7229 214.112 79.1268 209.395 80.2535C204.653 81.2209 199.792 81.4619 194.978 80.9681C190.166 80.4847 185.521 78.982 180.677 78.4566C173.899 77.7105 167.258 78.362 160.512 78.961L145.465 65.1738Z" fill="white" stroke="#191919" stroke-miterlimit="10"/>
<path d="M158.168 68.3691H166.312L167.846 74.0017H161.047L158.168 68.3691Z" fill="#40CF7E"/>
<path d="M179.572 69.7144H176.903C176.503 69.7144 176.178 70.0391 176.178 70.4395V72.0788C176.178 72.4793 176.503 72.8039 176.903 72.8039H179.572C179.973 72.8039 180.297 72.4793 180.297 72.0788V70.4395C180.297 70.0391 179.973 69.7144 179.572 69.7144Z" fill="#40CF7E"/>
<path d="M189.597 69.7144H186.928C186.527 69.7144 186.203 70.0391 186.203 70.4395V72.0788C186.203 72.4793 186.527 72.8039 186.928 72.8039H189.597C189.997 72.8039 190.322 72.4793 190.322 72.0788V70.4395C190.322 70.0391 189.997 69.7144 189.597 69.7144Z" fill="#40CF7E"/>
<path d="M199.622 69.7144H196.953C196.552 69.7144 196.228 70.0391 196.228 70.4395V72.0788C196.228 72.4793 196.552 72.8039 196.953 72.8039H199.622C200.022 72.8039 200.347 72.4793 200.347 72.0788V70.4395C200.347 70.0391 200.022 69.7144 199.622 69.7144Z" fill="#40CF7E"/>
<path d="M209.636 69.7144H206.967C206.566 69.7144 206.241 70.0391 206.241 70.4395V72.0788C206.241 72.4793 206.566 72.8039 206.967 72.8039H209.636C210.036 72.8039 210.361 72.4793 210.361 72.0788V70.4395C210.361 70.0391 210.036 69.7144 209.636 69.7144Z" fill="#40CF7E"/>
<path d="M165.449 65.6149C166.777 63.7919 168.197 62.0381 169.705 60.3607C170.146 60.182 233.509 61.1593 234.528 61.1593C235.548 61.1593 236.304 62.1366 237.817 63.818C239.33 65.4993 241.484 67.559 241.484 67.559L165.449 65.6149Z" stroke="#191919" stroke-miterlimit="10"/>
<path d="M180.453 60.5604L184.887 56.0312H228.758C228.758 56.0312 231.511 57.9858 232.961 59.0472C233.819 59.6962 234.579 60.464 235.22 61.3275L180.453 60.5604Z" fill="white" stroke="#191919" stroke-miterlimit="10"/>
<path d="M197.059 56.0308C198.214 54.4965 199.391 52.2582 201.503 52.2057C205.707 52.0901 209.91 52.2057 214.113 52.2057H227.3C227.734 52.7711 228.087 53.3934 228.351 54.0552C228.53 54.7382 228.793 56.0308 228.793 56.0308H197.059Z" stroke="#191919" stroke-miterlimit="10"/>
<path d="M221.92 52.2076H218.105V56.0222H221.92V52.2076Z" fill="white" stroke="#191919" stroke-miterlimit="10"/>
<path d="M224.852 52.2064V56.0315C226.153 56.1261 227.459 56.1261 228.761 56.0315C228.624 54.7112 228.149 53.4483 227.384 52.364C227.163 52.0593 224.852 52.2064 224.852 52.2064Z" fill="white" stroke="#191919" stroke-miterlimit="10"/>
<path d="M177.284 62.5365L171.242 62.4268L171.207 64.381L177.248 64.4908L177.284 62.5365Z" stroke="#191919" stroke-miterlimit="10"/>
<path d="M188.941 62.7488L182.9 62.6392L182.865 64.5934L188.906 64.7031L188.941 62.7488Z" stroke="#191919" stroke-miterlimit="10"/>
<path d="M200.105 62.9397L194.064 62.8301L194.028 64.7843L200.07 64.894L200.105 62.9397Z" stroke="#191919" stroke-miterlimit="10"/>
<path d="M209.999 63.1195L204.819 63.0255L204.784 64.9797L209.963 65.0737L209.999 63.1195Z" stroke="#191919" stroke-miterlimit="10"/>
<path d="M222.959 63.3655L216.918 63.2558L216.882 65.2101L222.923 65.3197L222.959 63.3655Z" stroke="#191919" stroke-miterlimit="10"/>
<path d="M227.872 65.3106L233.909 65.5637L233.991 63.6108L227.954 63.3578L227.872 65.3106Z" stroke="#191919" stroke-miterlimit="10"/>
<path d="M207.819 51.8597C207.819 51.8597 211.402 37.5576 212.022 37.5576C212.642 37.5576 212.862 38.5349 212.862 38.5349L212.379 52.1959L207.819 51.8597Z" stroke="#191919" stroke-miterlimit="10"/>
<path d="M215.574 41.5818H207.777C207.273 41.5818 206.863 41.9911 206.863 42.4961C206.863 43.001 207.273 43.4103 207.777 43.4103H215.574C216.079 43.4103 216.489 43.001 216.489 42.4961C216.489 41.9911 216.079 41.5818 215.574 41.5818Z" fill="white" stroke="#191919" stroke-miterlimit="10"/>
<path d="M194.604 25.8554C195.207 25.1046 195.533 24.1698 195.529 23.2073C195.532 22.2265 195.199 21.2742 194.586 20.5093C193.972 19.7444 193.114 19.213 192.156 19.0039C191.942 18.139 191.56 17.3247 191.031 16.6077C190.502 15.8907 189.837 15.285 189.074 14.8253C188.31 14.3656 187.464 14.0609 186.583 13.9286C185.702 13.7963 184.803 13.8391 183.939 14.0544C183.23 14.2294 182.556 14.5206 181.942 14.9161C180.331 14.3747 178.572 14.493 177.048 15.2452C175.524 15.9974 174.359 17.3223 173.809 18.9303C172.686 18.8286 171.569 19.1772 170.702 19.8995C169.836 20.6218 169.293 21.6585 169.191 22.7817C169.089 23.9049 169.438 25.0224 170.16 25.8886C170.882 26.7547 171.919 27.2984 173.042 27.4002H173.431H176.342C176.254 27.8096 176.249 28.2323 176.327 28.6436C176.405 29.055 176.564 29.4467 176.795 29.7959C177.026 30.1451 177.324 30.4449 177.672 30.6777C178.02 30.9104 178.411 31.0716 178.821 31.1517C179.033 31.1935 179.247 31.2146 179.462 31.2147H192.377C193.012 31.2315 193.638 31.0558 194.172 30.7106C194.705 30.3655 195.122 29.867 195.368 29.2806C195.613 28.6942 195.676 28.0473 195.547 27.4248C195.418 26.8023 195.104 26.2333 194.646 25.7924L194.604 25.8554ZM173.431 26.6856C172.959 26.7116 172.486 26.641 172.042 26.4782C171.598 26.3154 171.192 26.0638 170.849 25.7387C170.505 25.4137 170.232 25.022 170.045 24.5877C169.858 24.1533 169.762 23.6854 169.762 23.2125C169.762 22.7397 169.858 22.2718 170.045 21.8374C170.232 21.4031 170.505 21.0114 170.849 20.6863C171.192 20.3613 171.598 20.1097 172.042 19.9469C172.486 19.7841 172.959 19.7135 173.431 19.7395C173.63 19.7238 173.83 19.7238 174.03 19.7395C174.123 19.7559 174.218 19.737 174.298 19.6864C174.378 19.6359 174.436 19.5573 174.461 19.4663C174.675 18.7223 175.04 18.0301 175.532 17.4326C176.025 16.8352 176.635 16.345 177.324 15.9924C178.013 15.6399 178.767 15.4324 179.54 15.3828C180.313 15.3332 181.087 15.4426 181.816 15.7042C181.871 15.7346 181.932 15.7505 181.995 15.7505C182.057 15.7505 182.119 15.7346 182.173 15.7042C182.827 15.263 183.561 14.9549 184.333 14.7974C185.105 14.64 185.901 14.6363 186.675 14.7866C187.449 14.9369 188.186 15.2382 188.843 15.6733C189.5 16.1085 190.066 16.6689 190.506 17.3225C190.942 17.9571 191.249 18.6712 191.41 19.4242C191.428 19.5017 191.468 19.572 191.526 19.6263C191.584 19.6806 191.657 19.7163 191.736 19.729C192.558 19.856 193.309 20.2714 193.854 20.9008C194.398 21.5303 194.702 22.3328 194.709 23.1652C194.713 23.9522 194.445 24.7163 193.953 25.33C193.667 25.1534 193.355 25.0223 193.028 24.9412C192.685 23.6669 191.855 22.5785 190.717 21.9102C189.579 21.2419 188.224 21.0473 186.944 21.3683C186.459 21.4999 185.995 21.7017 185.568 21.9673C185.093 21.8114 184.596 21.7333 184.096 21.7361C183.118 21.7391 182.165 22.0433 181.366 22.6074C180.567 23.1714 179.961 23.968 179.631 24.8886C179 24.8428 178.37 24.9877 177.823 25.3044C177.276 25.6211 176.837 26.095 176.562 26.6646L173.431 26.6856ZM192.345 30.5002H179.42C178.808 30.4597 178.235 30.1881 177.815 29.7402C177.396 29.2924 177.163 28.7019 177.163 28.0885C177.163 27.475 177.396 26.8845 177.815 26.4367C178.235 25.9889 178.808 25.7172 179.42 25.6768C179.56 25.6664 179.701 25.6664 179.841 25.6768C179.935 25.6903 180.031 25.6689 180.11 25.6166C180.189 25.5644 180.247 25.4848 180.272 25.393C180.509 24.5613 181.01 23.8295 181.7 23.3081C182.391 22.7868 183.232 22.5042 184.096 22.5032C184.569 22.504 185.038 22.5857 185.483 22.7449C185.539 22.7735 185.6 22.7884 185.662 22.7884C185.724 22.7884 185.785 22.7735 185.841 22.7449C186.3 22.4285 186.818 22.2067 187.364 22.0925C187.91 21.9782 188.473 21.9738 189.021 22.0794C189.568 22.185 190.09 22.3986 190.554 22.7077C191.018 23.0168 191.416 23.4153 191.725 23.8798C192.041 24.3385 192.259 24.8571 192.366 25.4035C192.383 25.4816 192.423 25.5528 192.481 25.6073C192.539 25.6618 192.613 25.6971 192.692 25.7083C193.3 25.7888 193.854 26.0986 194.242 26.5743C194.629 27.05 194.82 27.6557 194.776 28.2676C194.732 28.8795 194.455 29.4514 194.004 29.8664C193.552 30.2813 192.959 30.5081 192.345 30.5002Z" fill="black"/>
<path d="M71.7157 8.68017C71.7815 8.27708 71.8166 7.86958 71.8207 7.46118C71.818 5.48325 71.031 3.58712 69.6325 2.18851C68.234 0.789899 66.338 0.00293573 64.3601 0.000155774C63.0383 -0.00844583 61.7386 0.339325 60.5977 1.00689C59.4568 1.67446 58.5169 2.63715 57.8767 3.79372C57.0788 3.43676 56.2062 3.27881 55.3338 3.33343C54.4614 3.38806 53.6152 3.65362 52.8681 4.10733C52.1209 4.56103 51.495 5.18931 51.0441 5.93822C50.5932 6.68713 50.3309 7.53429 50.2795 8.40695C49.5001 8.60817 48.8207 9.08654 48.3685 9.75254C47.9163 10.4185 47.7223 11.2265 47.8228 12.0252C47.9232 12.824 48.3113 13.5587 48.9144 14.0919C49.5175 14.6251 50.2942 14.9203 51.0991 14.9222H70.1605C70.5992 14.9209 71.0333 14.8326 71.4377 14.6624C71.8421 14.4923 72.2088 14.2437 72.5166 13.9311C72.8244 13.6184 73.0672 13.2478 73.2309 12.8407C73.3946 12.4337 73.476 11.9982 73.4705 11.5595C73.4662 10.9656 73.3007 10.3841 72.9916 9.87693C72.6825 9.36981 72.2415 8.95616 71.7157 8.68017ZM70.1605 14.092H51.0991C50.7689 14.0907 50.4423 14.0239 50.138 13.8957C49.8337 13.7674 49.5578 13.5801 49.3263 13.3447C49.0948 13.1092 48.9122 12.8302 48.789 12.5238C48.6659 12.2174 48.6046 11.8897 48.6088 11.5595C48.6266 10.8996 48.8931 10.2709 49.3549 9.79925C49.8168 9.32763 50.4398 9.04801 51.0991 9.01644V8.70118C51.1157 7.50257 51.6035 6.35868 52.4569 5.51698C53.3104 4.67527 54.4609 4.20344 55.6596 4.20355C56.5693 4.21341 57.4578 4.47926 58.2235 4.97067C58.7512 3.77368 59.6061 2.75003 60.6899 2.01755C61.7737 1.28507 63.0423 0.873537 64.3496 0.830326C66.1073 0.833105 67.7922 1.5326 69.035 2.77553C70.2779 4.01845 70.9773 5.70342 70.9801 7.46118C70.9961 8.03598 70.9252 8.6099 70.77 9.16356C71.2956 9.31273 71.7602 9.62529 72.0965 10.056C72.4327 10.4868 72.6232 11.0133 72.6404 11.5595C72.6459 11.8892 72.586 12.2167 72.464 12.523C72.342 12.8294 72.1604 13.1085 71.9297 13.344C71.699 13.5796 71.4238 13.7671 71.1201 13.8955C70.8164 14.0239 70.4902 14.0907 70.1605 14.092Z" fill="black"/>
<path d="M64.3599 2.10173V2.9319C65.5621 2.93464 66.7146 3.41204 67.5667 4.26023C68.4188 5.10842 68.9015 6.25878 68.9098 7.46106H69.7399C69.7343 6.03775 69.1651 4.67463 68.1567 3.67016C67.1484 2.66569 65.7831 2.10172 64.3599 2.10173Z" fill="black"/>
</svg>
