<svg width="10" height="10" viewBox="0 0 10 10" fill="none" xmlns="http://www.w3.org/2000/svg">
<path fill-rule="evenodd" clip-rule="evenodd" d="M7.8288 9.24263C8.21933 9.63315 8.85249 9.63315 9.24302 9.24263C9.63354 8.85211 9.63354 8.21894 9.24302 7.82842L6.4146 5L9.24302 2.17158C9.63354 1.78106 9.63354 1.1479 9.24302 0.757371C8.85249 0.366847 8.21933 0.366847 7.8288 0.757371L5.00039 3.58579L2.17195 0.757348C1.78143 0.366823 1.14826 0.366824 0.757738 0.757348C0.367213 1.14787 0.367213 1.78104 0.757738 2.17156L3.58618 5L0.757737 7.82844C0.367213 8.21896 0.367213 8.85213 0.757737 9.24265C1.14826 9.63318 1.78143 9.63318 2.17195 9.24265L5.00039 6.41421L7.8288 9.24263Z" fill="#009639"/>
</svg>
