<svg width="14" height="14" viewBox="0 0 14 14" fill="none" xmlns="http://www.w3.org/2000/svg">
<path fill-rule="evenodd" clip-rule="evenodd" d="M10.7705 12.6569C11.2912 13.1776 12.1354 13.1776 12.6561 12.6569C13.1768 12.1362 13.1768 11.292 12.6561 10.7713L8.88492 7.00003L12.6561 3.22881C13.1768 2.70811 13.1768 1.86389 12.6561 1.34319C12.1354 0.822493 11.2912 0.822493 10.7705 1.34319L6.9993 5.11441L3.22805 1.34316C2.70735 0.822462 1.86313 0.822462 1.34243 1.34316C0.821731 1.86386 0.82173 2.70808 1.34243 3.22878L5.11368 7.00003L1.34243 10.7713C0.821729 11.292 0.82173 12.1362 1.34243 12.6569C1.86313 13.1776 2.70735 13.1776 3.22805 12.6569L6.9993 8.88565L10.7705 12.6569Z" fill="#292929"/>
</svg>
