<svg width="24" height="24" viewBox="0 0 24 24" fill="none" xmlns="http://www.w3.org/2000/svg">
<path fill-rule="evenodd" clip-rule="evenodd" d="M14.8278 16.2425C15.2184 16.6331 15.8515 16.6331 16.242 16.2425C16.6326 15.852 16.6326 15.2188 16.242 14.8283L13.4136 11.9999L16.242 9.17149C16.6326 8.78096 16.6326 8.1478 16.242 7.75727C15.8515 7.36675 15.2184 7.36675 14.8278 7.75727L11.9994 10.5857L9.17097 7.75725C8.78045 7.36672 8.14729 7.36672 7.75676 7.75725C7.36624 8.14777 7.36624 8.78094 7.75676 9.17146L10.5852 11.9999L7.75676 14.8283C7.36624 15.2189 7.36624 15.852 7.75676 16.2426C8.14728 16.6331 8.78045 16.6331 9.17097 16.2426L11.9994 13.4141L14.8278 16.2425Z" fill="#009639"/>
</svg>
