<svg width="144" height="194" viewBox="0 0 144 194" fill="none" xmlns="http://www.w3.org/2000/svg">
<g clip-path="url(#clip0)">
<path d="M62.5937 152.968C62.7895 152.725 64.7584 155.096 64.8966 155.281C66.5086 158 65.8408 162.951 63.2615 164.894C62.4556 165.461 61.571 165.905 60.6362 166.213C59.5423 166.675 58.3684 166.915 57.1819 166.919C55.9268 166.861 53.6354 165.889 53.7275 164.304C53.7275 163.957 54.499 163.286 54.7063 163.032L57.8728 159.041L62.5937 152.968Z" fill="#F3F9F6" stroke="#2F0E0E" stroke-miterlimit="10"/>
<path d="M81.7536 83.2917C82.5596 83.3842 82.1336 81.3019 81.9033 80.978C81.6166 80.6644 81.253 80.4321 80.8488 80.3042C80.4447 80.1763 80.0141 80.1573 79.6004 80.2492C76.051 80.5684 72.6344 81.7603 69.6519 83.7197C68.961 84.1824 62.8353 89.0411 63.6298 89.7583C61.8451 88.1811 59.7502 86.9987 57.4811 86.2878C56.4043 85.9869 55.3531 85.6001 54.3376 85.131C54.6924 84.8307 55.006 84.4845 55.2703 84.1014C55.4196 83.8832 55.5089 83.6291 55.5291 83.3651C55.5493 83.101 55.4997 82.8362 55.3854 82.5976C54.5449 81.1515 52.5989 82.6785 51.7469 83.2338C52.078 82.991 52.3568 82.6834 52.5666 82.3295C52.7763 81.9757 52.9127 81.5828 52.9674 81.1747C53.0835 80.342 53.0835 79.4971 52.9674 78.6644C52.9803 78.0807 52.7795 77.5127 52.4032 77.0679C52.2064 76.9113 51.9741 76.8061 51.7269 76.7616C51.4798 76.7172 51.2255 76.735 50.9869 76.8134C50.5105 76.9795 50.0803 77.2571 49.7318 77.6232C48.4311 78.9965 47.4379 80.6334 46.8187 82.424C46.4747 83.4323 46.2053 84.4647 46.0126 85.5128C42.9557 85.5632 39.9433 86.2568 37.1695 87.5488C36.8356 87.6992 33.151 89.7815 33.1164 89.7468L30.1687 86.6812C27.9977 84.3954 25.5261 82.4183 22.8225 80.8045C21.9653 80.2815 20.9814 80.0053 19.9784 80.0063C17.9288 80.1451 17.3877 81.9844 18.5621 83.4768C18.2167 83.0372 16.1441 82.8868 15.5454 82.8174C12.7228 82.4592 9.85899 82.6199 7.09373 83.2917C6.28343 83.4516 5.54058 83.855 4.96355 84.4485C4.04239 85.5128 5.82714 88.4742 5.91925 88.3817C1.85464 92.0604 -0.402192 98.2379 0.991059 103.64C1.60809 105.882 2.70461 107.962 4.20412 109.734C5.70362 111.506 7.56998 112.928 9.67297 113.901C13.942 115.803 18.7661 116.026 23.191 114.526C23.7175 119.407 24.6456 124.236 25.966 128.963C27.1174 133.591 25.5745 134.747 23.1564 138.704C19.8633 144.106 17.687 149.589 19.8748 155.94C20.6684 158.19 21.9155 160.252 23.5381 161.995C25.1607 163.739 27.124 165.128 29.3051 166.074C31.096 166.933 33.1125 167.196 35.0624 166.826L36.6859 168.897L44.9763 159.538C47.3483 156.866 49.1446 153.326 51.1366 150.353C52.4723 148.352 53.8655 146.373 55.1436 144.337C55.9661 142.772 56.8693 141.251 57.8495 139.78C60.0718 136.911 63.1001 134.77 65.8406 132.445C69.5022 129.345 72.8874 125.585 74.6376 121.039C75.2853 119.356 75.7037 117.594 75.8812 115.799C75.8812 115.394 75.7315 112.328 76.123 112.247C77.0896 111.973 78.0697 111.749 79.0592 111.576C82.859 110.859 86.6933 110.315 89.8022 107.828C91.268 106.662 92.4779 105.204 93.3558 103.546C94.2336 101.887 94.7604 100.064 94.9031 98.1916C95.3867 90.6491 89.0192 84.113 81.7536 83.2917ZM22.6383 107.169C22.2583 109.343 20.439 109.216 18.5852 109.482C16.8454 109.719 15.0761 109.605 13.3806 109.147C11.9501 108.724 10.6273 107.996 9.50243 107.012C8.3776 106.029 7.47728 104.813 6.86295 103.448C6.24863 102.083 5.93476 100.601 5.9428 99.1026C5.95083 97.6045 6.28057 96.1257 6.9095 94.7674C7.7483 92.9734 9.01566 91.4157 10.5987 90.233C12.1818 89.0502 14.0314 88.2791 15.9829 87.9884C18.6869 87.6095 21.4411 88.0909 23.8588 89.365C24.3424 89.6195 29.3512 92.9396 29.0288 93.3792C26.0466 97.5785 23.5479 102.009 22.6383 107.169ZM88.9962 100.818C88.4088 102.078 87.5622 103.198 86.5122 104.105C85.4623 105.013 84.2329 105.686 82.905 106.081C80.084 107.064 77.1478 107.816 74.2576 106.579C74.0504 106.486 73.4286 103.201 73.2329 102.75C72.7686 101.658 72.1772 100.625 71.4711 99.6723C70.4924 98.3189 69.4676 96.9654 68.3968 95.6813C68.0974 95.3342 70.6306 92.3612 70.8724 92.0951C74.1425 88.6246 80.7288 87.9305 84.8164 90.2095C88.4205 92.2339 90.5506 96.9654 88.9962 100.818Z" fill="#F3F9F6" stroke="#2F0E0E" stroke-miterlimit="10"/>
<path d="M101.327 84.5757C92.7947 79.3584 87.5095 70.0228 88.4882 59.889C89.1676 52.8555 93.3013 48.2281 96.3987 42.3168L101.384 52.8902C100.935 49.2809 100.337 45.2088 100.763 41.6111C101.327 36.5789 104.413 31.6045 107.084 27.4052C110.619 21.7831 116.296 15.6634 115.57 8.65307C114.822 1.92033 115.57 0 115.57 0C115.225 0.867621 119.025 5.95766 119.531 6.76744L126.44 18.4398C126.882 19.1157 127.235 19.8468 127.488 20.6147C127.732 21.7793 127.763 22.9787 127.58 24.1546C126.887 30.1733 127.313 36.269 128.835 42.1317C128.938 42.7129 129.244 43.2381 129.699 43.6124C131.357 44.6883 135.755 38.9041 136.884 37.8977C136.584 38.1522 139.969 45.9955 140.188 46.6317C141.716 51.2076 142.871 55.9004 143.643 60.664C144.434 65.1354 144.089 69.735 142.641 74.037C139.186 83.4767 128.133 89.3071 118.518 89.4922C112.446 89.474 106.498 87.7727 101.327 84.5757Z" fill="#F3D9D3"/>
<path d="M26.2183 186.18C26.2183 186.18 94.2458 88.8557 96.7214 85.9058C99.197 82.9559 103.987 76.4198 103.987 76.4198C104.194 76.1422 103.757 74.3259 103.745 73.9673C103.599 72.1438 103.684 70.309 103.999 68.5071C104.894 64.8914 106.495 61.4902 108.708 58.5005C110.594 55.6575 113.468 53.6238 116.768 52.7974C119.359 52.2953 122.043 52.813 124.264 54.2434C127.799 56.5571 129.112 60.4093 128.605 64.4813C127.833 70.8786 123.251 75.4249 118.115 78.7219C114.926 80.781 113.13 81.5445 112.358 82.3196C111.587 83.0947 36.1553 193.375 36.1553 193.375C36.1553 193.375 29.9029 193.502 29.1429 193.375C28.383 193.248 27.0934 190.68 26.7134 189.014C26.4991 188.078 26.3339 187.132 26.2183 186.18Z" fill="#EAB58C" stroke="#2E1010" stroke-miterlimit="10"/>
<path d="M123.896 54.695C121.779 53.3243 119.218 52.827 116.745 53.3068C113.586 54.0896 110.831 56.0284 109.019 58.7439C106.917 61.5874 105.391 64.8184 104.529 68.253C104.261 69.7292 104.172 71.2324 104.264 72.73L111.794 82.4704C112.243 81.8342 112.52 81.464 112.554 81.4177C113.291 80.6889 114.995 79.9601 118.035 77.9472C122.94 74.8007 127.247 70.4741 128.041 64.3661C128.35 62.5243 128.123 60.6321 127.387 58.9167C126.652 57.2013 125.44 55.7354 123.896 54.695Z" fill="white"/>
<path d="M108.409 63.0817C110.711 61.1961 112.07 60.2822 115.041 60.5482C116.154 60.6185 117.24 60.9201 118.231 61.4338C119.222 61.9476 120.096 62.6623 120.798 63.5328C122.56 65.8465 121.397 67.7784 120.303 70.4738C118.656 74.6153 115.501 75.9687 112.646 79.1963C111.621 80.3531 110.516 84.1707 109.629 85.073C108.742 85.9753 103.112 94.6862 103.112 94.6862C102.375 94.7743 101.629 94.6384 100.97 94.2961C100.311 93.9538 99.7699 93.4207 99.4157 92.7659C98.1376 90.4522 98.7824 89.2954 98.011 88.4046C97.4467 87.8152 96.7468 87.3742 95.9729 87.1206L101.822 79.821C101.822 79.821 104.39 76.443 104.263 74.0368C104.137 71.6306 103.814 69.0972 105.092 66.7951C105.964 65.3649 107.087 64.1064 108.409 63.0817Z" fill="#B78767"/>
<path d="M109.052 59.5072C111.426 57.6119 114.422 56.6828 117.446 56.9044C118.56 56.9761 119.647 57.2794 120.638 57.7952C121.629 58.311 122.503 59.0279 123.204 59.9006C124.007 61.143 124.488 62.5677 124.603 64.0449C124.717 65.522 124.462 67.0044 123.86 68.357C122.202 72.51 118.713 75.055 115.8 78.2825C114.775 79.4394 112.864 80.5962 111.965 81.487C111.067 82.3777 105.46 91.1002 105.46 91.1002C104.724 91.1851 103.979 91.0478 103.321 90.7058C102.662 90.3638 102.12 89.8326 101.764 89.1798C100.486 86.8662 101.119 85.7094 100.359 84.8186C99.7929 84.2256 99.0884 83.7842 98.3093 83.5345L104.182 76.2234C104.182 76.2234 104.182 74.0485 104.055 71.5961C104.005 68.6624 104.665 65.7604 105.978 63.1397C106.762 61.7423 107.806 60.5092 109.052 59.5072Z" fill="#2F0E0E" stroke="#2E1010" stroke-miterlimit="10"/>
<path d="M78.8044 119.5L82.2473 114.63" stroke="#2F0E0E" stroke-width="2" stroke-miterlimit="10" stroke-linecap="round"/>
<path d="M28.7629 192.728L41.5901 174.45" stroke="#2F0E0E" stroke-width="2" stroke-miterlimit="10" stroke-linecap="round"/>
<path d="M39.103 113.346C40.9345 113.346 42.4192 111.854 42.4192 110.014C42.4192 108.174 40.9345 106.683 39.103 106.683C37.2716 106.683 35.7869 108.174 35.7869 110.014C35.7869 111.854 37.2716 113.346 39.103 113.346Z" fill="#2F0E0E"/>
<path d="M65.4597 113.346C67.2912 113.346 68.7759 111.854 68.7759 110.014C68.7759 108.174 67.2912 106.683 65.4597 106.683C63.6283 106.683 62.1436 108.174 62.1436 110.014C62.1436 111.854 63.6283 113.346 65.4597 113.346Z" fill="#2F0E0E"/>
<path d="M51.1006 116.423C51.1006 116.423 47.6463 116.169 46.4948 120.403C45.85 122.797 44.3071 125.643 45.2167 128.142C45.5409 128.897 46.0334 129.567 46.6563 130.101C47.2792 130.634 48.0158 131.017 48.8092 131.219C50.996 131.762 53.2786 131.786 55.4761 131.288C56.343 131.123 57.1617 130.764 57.8713 130.237C58.581 129.711 59.1634 129.03 59.5753 128.246C59.9603 127.31 60.103 126.291 59.9898 125.285C59.7365 121.652 57.2954 117.707 53.772 116.423C52.9061 116.126 51.9665 116.126 51.1006 116.423Z" fill="white"/>
<path d="M52.0224 103.675C52.9533 103.682 53.8665 103.931 54.6735 104.397C55.4805 104.863 56.1539 105.531 56.6282 106.336C58.209 109.343 58.5522 112.853 57.5839 116.111C56.847 118.702 54.9586 120.808 52.0915 120.738C51.1462 120.741 50.2239 120.446 49.4547 119.894C48.8279 119.338 48.3292 118.651 47.9931 117.882C47.6571 117.113 47.4918 116.28 47.5088 115.44C47.5071 113.083 47.6725 110.728 48.0039 108.395C48.0558 107.576 48.2264 106.769 48.5105 106C48.8005 105.307 49.2892 104.715 49.9145 104.301C50.5398 103.887 51.2735 103.669 52.0224 103.675Z" fill="#F7FFFB"/>
<path d="M49.5705 104.844C50.4826 105.506 51.1216 106.482 51.3668 107.585C51.7352 109.749 50.9983 111.993 51.3668 114.226C51.5223 115.248 51.9169 116.22 52.5182 117.06C53.4163 118.217 55.0974 118.483 55.9725 119.478C53.9345 121.548 50.9292 120.97 49.179 118.876C48.544 118.147 48.0866 117.28 47.8433 116.343C47.4786 114.368 47.5296 112.338 47.993 110.385C48.2348 108.823 48.5572 106.012 49.5705 104.844Z" fill="#D8F0E4"/>
<path d="M52.0224 103.675C52.9533 103.682 53.8665 103.931 54.6735 104.397C55.4805 104.863 56.1539 105.531 56.6282 106.336C58.209 109.343 58.5522 112.853 57.5839 116.111C56.847 118.702 54.9586 120.808 52.0915 120.738C51.1462 120.741 50.2239 120.446 49.4547 119.894C48.8279 119.338 48.3292 118.651 47.9931 117.882C47.6571 117.113 47.4918 116.28 47.5088 115.44C47.5071 113.083 47.6725 110.728 48.0039 108.395C48.0558 107.576 48.2264 106.769 48.5105 106C48.8005 105.307 49.2892 104.715 49.9145 104.301C50.5398 103.887 51.2735 103.669 52.0224 103.675Z" stroke="#2F0E0E" stroke-miterlimit="10"/>
<path d="M50.9744 124.891L52.8512 123.989L54.9353 124.891" stroke="#2F0E0E" stroke-miterlimit="10"/>
<path d="M52.8523 123.989L52.9559 120.773" stroke="#2F0E0E" stroke-miterlimit="10"/>
<path d="M48.6834 134.898C48.6834 134.898 55.189 134.631 57.3538 134.898C59.2992 134.995 61.2073 135.471 62.9728 136.297C64.1243 137.072 65.2757 137.072 65.7824 138.738C66.289 140.404 66.8071 141.943 65.7824 143.481C65.3026 144.165 64.6733 144.729 63.9427 145.13C63.2122 145.531 62.3998 145.758 61.5681 145.795C59.7833 146.049 58.4476 146.431 55.926 146.813C53.4043 147.195 51.9995 148.351 50.4681 148.872C49.5099 149.187 48.5331 149.442 47.5434 149.636L46.6338 138.229L48.6834 134.898Z" fill="white"/>
<path d="M29.937 148.872C31.2585 147.423 33.0047 146.435 34.9228 146.049C38.1123 145.402 40.68 145.402 42.1884 146.813C43.6968 148.224 44.8713 148.803 45.2513 151.082C45.6312 153.361 44.8713 155.281 45.2513 156.311C45.4881 156.878 45.5287 157.51 45.3664 158.104C45.3664 158.104 47.8075 157.456 49.0856 158.613C50.3637 159.769 51.3885 160.672 50.997 161.817C50.6055 162.962 50.4903 165.415 48.8323 166.826C47.1742 168.237 45.8961 169.637 43.5932 170.03C41.2903 170.424 39.1256 171.048 37.3408 170.03C36.503 169.592 35.7853 168.953 35.2512 168.171C34.717 167.388 34.3828 166.485 34.278 165.542C33.898 163.356 33.6447 159.526 33.2532 158.104C32.8617 156.681 31.8599 153.476 31.8599 153.476L29.937 148.872Z" fill="white"/>
<path d="M87.9933 135.349C88.2987 134.361 88.4071 133.322 88.3122 132.292C88.2174 131.261 87.9212 130.26 87.4406 129.345C86.8224 128.252 85.9238 127.345 84.8383 126.719C84.5256 126.507 84.1895 126.332 83.8366 126.199C83.6781 126.149 83.5166 126.11 83.353 126.083C82.2963 125.737 81.1527 125.769 80.1174 126.175C79.4953 126.48 78.9416 126.909 78.4902 127.436C78.0389 127.963 77.6992 128.577 77.4921 129.241C77.4599 129.336 77.433 129.432 77.4115 129.53C77.1052 130.43 76.98 131.381 77.043 132.33C77.043 132.827 77.043 133.313 76.9394 133.81C74.7747 137.15 72.5716 140.47 70.3301 143.771C75.4895 143.965 80.5675 142.436 84.7692 139.421C85.7259 138.713 86.5619 137.853 87.2448 136.876C87.557 136.447 87.798 135.971 87.9587 135.465L87.9933 135.349Z" fill="#F3F9F6" stroke="#2F0E0E" stroke-miterlimit="10"/>
<path d="M30.4331 147.842C32.9202 146.188 35.8104 144.788 38.8732 145.228C40.9317 145.534 42.7926 146.628 44.0662 148.282C45.9201 150.734 45.6322 153.43 45.494 156.31L45.5977 157.721L42.6845 158.612C42.6845 158.612 46.5073 156.565 48.6835 158.612C49.6045 159.486 50.317 160.558 50.7677 161.747C50.9535 162.2 51.0434 162.687 51.0315 163.177C51.0196 163.667 50.9062 164.15 50.6986 164.593C50.3899 165.07 50.0001 165.489 49.5471 165.831C48.289 166.964 46.9664 168.022 45.5862 169.001C44.5112 169.852 43.2839 170.488 41.9706 170.875C41.047 171.056 40.0927 170.999 39.1967 170.71C38.3007 170.421 37.4922 169.908 36.8467 169.22C35.861 168.177 35.0797 166.956 34.5438 165.623C33.5166 163.158 32.9619 160.52 32.9087 157.849" stroke="#2F0E0E" stroke-miterlimit="10"/>
<path d="M49.8242 134.932C54.1076 135.129 58.7249 134.018 62.6974 136.181C64.2373 136.975 65.4573 138.279 66.1517 139.872C66.5341 140.715 66.6429 141.658 66.4626 142.567C65.9214 144.95 63.1579 145.367 61.1544 145.714C58.2194 146.205 55.3334 146.956 52.5301 147.958C50.6239 148.8 48.5937 149.324 46.5195 149.508" stroke="#2F0E0E" stroke-miterlimit="10"/>
</g>
<defs>
<clipPath id="clip0">
<rect width="144" height="194" fill="white"/>
</clipPath>
</defs>
</svg>
