<svg width="12" height="12" viewBox="0 0 12 12" fill="none" xmlns="http://www.w3.org/2000/svg">
<path fill-rule="evenodd" clip-rule="evenodd" d="M7.4144 8.12151C7.60966 8.31677 7.92625 8.31677 8.12151 8.12151C8.31677 7.92625 8.31677 7.60966 8.12151 7.4144L6.7073 6.00019L8.12151 4.58599C8.31677 4.39072 8.31677 4.07414 8.12151 3.87888C7.92625 3.68362 7.60966 3.68362 7.4144 3.87888L6.00019 5.29309L4.58598 3.87887C4.39071 3.68361 4.07413 3.68361 3.87887 3.87887C3.68361 4.07413 3.68361 4.39071 3.87887 4.58598L5.29309 6.00019L3.87887 7.41441C3.68361 7.60968 3.68361 7.92626 3.87887 8.12152C4.07413 8.31678 4.39071 8.31678 4.58598 8.12152L6.00019 6.7073L7.4144 8.12151Z" fill="#EB5757"/>
</svg>
