<svg width="30" height="30" viewBox="0 0 30 30" fill="none" xmlns="http://www.w3.org/2000/svg">
<path d="M6.90625 28H24.0938C26.2477 28 28 26.1776 28 23.9375V22.9219C28 22.3609 27.5628 21.9062 27.0234 21.9062C26.4841 21.9062 26.0469 22.3609 26.0469 22.9219V23.9375C26.0469 25.0575 25.1707 25.9688 24.0938 25.9688H6.90625C5.8293 25.9688 4.95312 25.0575 4.95312 23.9375V6.0625C4.95312 4.94247 5.8293 4.03125 6.90625 4.03125H24.0938C25.1707 4.03125 26.0469 4.94247 26.0469 6.0625V7.07812C26.0469 7.63906 26.4841 8.09375 27.0234 8.09375C27.5628 8.09375 28 7.63906 28 7.07812V6.0625C28 3.82244 26.2477 2 24.0938 2H6.90625C4.75234 2 3 3.82244 3 6.0625V23.9375C3 26.1776 4.75234 28 6.90625 28Z" fill="#363D44"/>
<path d="M25.7547 14.275C25.7569 14.2773 25.7591 14.2796 25.7613 14.2819C26.142 14.6779 26.142 15.3222 25.7593 15.7202L22.1321 19.5144C21.7518 19.9122 21.7536 20.5552 22.1361 20.9507C22.5186 21.3462 23.1369 21.3443 23.5172 20.9466L27.1423 17.1545C28.2834 15.9678 28.2846 14.0376 27.1459 12.8493L23.5217 9.00752C23.3305 8.80475 23.0776 8.70314 22.8245 8.70314C22.5778 8.70314 22.3307 8.79983 22.1408 8.99376C21.7557 9.38661 21.7498 10.0296 22.1276 10.43L25.7547 14.275Z" fill="#363D44"/>
<path d="M11.7402 16.0156H22.1406C22.68 16.0156 23.1172 15.5609 23.1172 15C23.1172 14.4391 22.68 13.9844 22.1406 13.9844H11.7402C11.2009 13.9844 10.7637 14.4391 10.7637 15C10.7637 15.5609 11.2009 16.0156 11.7402 16.0156Z" fill="#363D44"/>
</svg>
