<svg width="22" height="23" viewBox="0 0 22 23" fill="none" xmlns="http://www.w3.org/2000/svg">
<path d="M3.4375 23H18.5625C20.4579 23 22 21.3878 22 19.4062V18.5078C22 18.0116 21.6153 17.6094 21.1406 17.6094C20.666 17.6094 20.2812 18.0116 20.2812 18.5078V19.4062C20.2812 20.397 19.5102 21.2031 18.5625 21.2031H3.4375C2.48978 21.2031 1.71875 20.397 1.71875 19.4062V3.59375C1.71875 2.60295 2.48978 1.79688 3.4375 1.79688H18.5625C19.5102 1.79688 20.2812 2.60295 20.2812 3.59375V4.49219C20.2812 4.98839 20.666 5.39062 21.1406 5.39062C21.6153 5.39062 22 4.98839 22 4.49219V3.59375C22 1.61216 20.4579 0 18.5625 0H3.4375C1.54206 0 0 1.61216 0 3.59375V19.4062C0 21.3878 1.54206 23 3.4375 23Z" fill="#363D44"/>
<path d="M20.0239 10.8586C20.0258 10.8607 20.0277 10.8627 20.0297 10.8647C20.3647 11.215 20.3647 11.785 20.0279 12.1371L16.836 15.4935C16.5014 15.8454 16.503 16.4142 16.8395 16.7641C17.1761 17.1139 17.7202 17.1123 18.0549 16.7604L21.245 13.4059C22.2491 12.3561 22.2502 10.6486 21.2481 9.59744L18.0588 6.19896C17.8906 6.01959 17.6681 5.9297 17.4454 5.9297C17.2282 5.9297 17.0108 6.01523 16.8436 6.18679C16.5048 6.5343 16.4996 7.10315 16.832 7.45732L20.0239 10.8586Z" fill="#363D44"/>
<path d="M7.69141 12.3984H16.8438C17.3184 12.3984 17.7031 11.9962 17.7031 11.5C17.7031 11.0038 17.3184 10.6016 16.8438 10.6016H7.69141C7.21677 10.6016 6.83203 11.0038 6.83203 11.5C6.83203 11.9962 7.21677 12.3984 7.69141 12.3984Z" fill="#363D44"/>
</svg>
