<svg width="24" height="24" viewBox="0 0 24 24" fill="none" xmlns="http://www.w3.org/2000/svg">
<path fill-rule="evenodd" clip-rule="evenodd" d="M16.754 4.40937C13.5905 4.13438 10.4092 4.13438 7.24573 4.40937L5.73549 4.54065C4.1753 4.67628 2.91137 5.86353 2.67849 7.41219C2.63289 7.71544 2.59183 8.01921 2.55532 8.32338L2.55498 8.32642C2.27288 10.9475 2.28505 13.9712 2.67849 16.5876C2.91137 18.1362 4.1753 19.3235 5.7355 19.4591L7.24573 19.5904C10.4092 19.8654 13.5905 19.8654 16.754 19.5904L18.2642 19.4591C19.8244 19.3235 21.0883 18.1362 21.3212 16.5876C21.7147 13.9712 21.7269 10.9477 21.4448 8.32658L21.4444 8.32354C21.4079 8.01931 21.3668 7.7155 21.3212 7.41219C21.0883 5.86353 19.8244 4.67628 18.2642 4.54065L16.754 4.40937ZM7.41893 6.40186C10.4671 6.13688 13.5326 6.13688 16.5808 6.40186L18.091 6.53314C18.7302 6.5887 19.248 7.07511 19.3435 7.7096L19.3526 7.77102L13.9424 10.7767C12.7343 11.4479 11.2653 11.4479 10.0572 10.7767L4.64708 7.77106L4.65625 7.7096C4.75166 7.07511 5.26949 6.5887 5.9087 6.53314L7.41893 6.40186ZM14.9137 12.525L19.5897 9.92724C19.7425 12.0485 19.6604 14.1825 19.3435 16.2902C19.248 16.9246 18.7302 17.411 18.091 17.4666L16.5808 17.5979C13.5326 17.8629 10.4671 17.8629 7.41893 17.5979L5.9087 17.4666C5.26949 17.411 4.75166 16.9246 4.65625 16.2901C4.33932 14.1825 4.25724 12.0485 4.41002 9.92727L9.08596 12.525C10.8981 13.5318 13.1015 13.5318 14.9137 12.525Z" fill="#292929"/>
</svg>
