<svg width="52" height="69" viewBox="0 0 52 69" fill="none" xmlns="http://www.w3.org/2000/svg">
<path d="M50.9749 65.4812V67.7667C50.9749 68.4478 50.4227 69 49.7416 69C49.0605 69 48.5083 68.4478 48.5083 67.7667V65.4812C48.5083 59.8088 43.918 55.218 38.2449 55.2182C35.5607 55.2182 33.1254 53.8507 31.7302 51.5601C31.3757 50.9784 31.5601 50.2196 32.1418 49.8652C32.7233 49.5106 33.4823 49.6952 33.8367 50.2768C34.7806 51.8264 36.4285 52.7514 38.2449 52.7514C45.2806 52.7514 50.9749 58.4447 50.9749 65.4812ZM30.3983 55.9309L25.9999 59.336L18.5216 53.5462C20.1359 52.2495 21.1798 50.3635 21.3489 48.2213C22.8247 48.6558 24.3855 48.8899 26.0001 48.8899C35.0959 48.8899 42.4959 41.4899 42.4959 32.3941C42.4959 32.2982 42.4981 23.7589 42.4919 23.6633C42.45 22.9961 41.8936 22.5082 41.2626 22.5082C41.0514 22.5082 39.5318 22.8088 38.0442 21.9139C35.7243 20.5182 35.7124 17.4589 35.7126 17.4282C35.7186 16.4261 34.5855 15.8348 33.7667 16.414C28.6866 20.0102 22.7382 22.4488 16.2791 23.353C15.6046 23.4475 15.1343 24.0708 15.2288 24.7454C15.3151 25.3621 15.8433 25.808 16.4487 25.808C16.6429 25.808 20.642 25.3185 25.1879 23.6674C28.1168 22.6036 30.9231 21.2155 33.5542 19.5306C34.4634 22.9417 37.0128 24.8393 40.0294 25.0106V32.3941C40.0294 40.1299 33.736 46.4233 26.0002 46.4233C18.2645 46.4233 11.9711 40.1299 11.9711 32.3941V23.7417C11.9711 23.0606 11.4188 22.5083 10.7377 22.5083C10.0566 22.5083 9.5044 23.0606 9.5044 23.7417V32.3943C9.5044 38.9528 13.3521 44.6292 18.9086 47.286V47.6113C18.9086 50.4543 16.6047 52.7514 13.7552 52.7514C12.1949 52.7514 10.6576 53.0336 9.20331 53.5896L8.40704 52.9558C2.15851 47.9825 0.988233 39.203 5.24955 32.8065C7.06564 30.0804 8.1169 26.8198 8.1169 23.3311V16.6506C8.1169 8.82959 14.4795 2.46667 22.3002 2.46667H29.7002C37.521 2.46667 43.8836 8.82928 43.8836 16.65V23.3305C43.8836 26.7239 44.8704 29.9937 46.7374 32.7865C50.1518 37.8942 50.1451 44.5978 46.6169 49.7174C46.2304 50.2782 46.3717 51.0463 46.9325 51.4328C47.4934 51.8191 48.2613 51.6779 48.6478 51.117C52.7549 45.1577 52.7597 37.357 48.7879 31.4156C47.1931 29.0299 46.3501 26.2342 46.3501 23.3305V16.65C46.3501 7.46922 38.8809 0 29.7001 0H22.3001C13.1193 0 5.65008 7.46953 5.65008 16.6506V23.3305C5.65008 26.2258 4.8017 29.0296 3.19636 31.4392C-1.77628 38.9043 -0.367046 49.0571 6.79261 54.8218C3.27545 57.1291 1.02508 61.0474 1.02508 65.4812V67.7667C1.02508 68.4478 1.5773 69 2.25841 69C2.93952 69 3.49175 68.4478 3.49175 67.7667V65.4812C3.49175 59.8086 8.08206 55.218 13.7551 55.2182C14.5725 55.2182 15.38 55.0885 16.1544 54.8331L25.245 61.8709C25.6896 62.215 26.3106 62.215 26.755 61.8709L31.9084 57.8813C32.447 57.4642 32.5455 56.6897 32.1285 56.151C31.7116 55.6127 30.9371 55.5139 30.3983 55.9309Z" fill="#008B4E"/>
</svg>
