<svg width="66" height="66" viewBox="0 0 66 66" fill="none" xmlns="http://www.w3.org/2000/svg">
<path d="M11.932 36.6525C11.8396 41.2535 11.9368 38.2653 11.2866 50.3088C11.0682 54.5568 12.1233 56.6429 17.9004 56.7616L46.2497 57.2637C50.7439 57.3473 51.712 55.803 51.8109 52.5599C51.9137 49.4442 52.5081 37.9641 52.0666 34.9162C55.3082 37.172 57.8151 35.3823 57.9888 33.6476C57.9896 33.646 57.9896 33.6444 57.9896 33.6428C58.129 32.0802 56.8605 30.9909 54.6707 28.6355L54.9672 18.8693C57.0565 18.9992 57.7442 17.988 57.772 15.9115C57.835 13.4548 56.9202 12.9161 55.0795 12.8181L50.6148 12.6301C48.5486 12.5336 46.9876 12.9504 46.5979 15.1154C46.2784 16.7274 47.0824 18.2271 48.9048 18.5147C48.8809 19.7953 48.8506 21.075 48.8195 22.3595L37.2621 9.93194C33.7552 6.15968 30.6547 5.45527 26.0752 11.2531C20.2152 18.6526 7.30474 31.1997 7.00832 35.1887C6.84895 37.345 8.99803 39.5777 11.932 36.6525ZM21.7292 26.8928L21.3435 26.5071C21.7499 26.068 22.1571 25.629 22.5635 25.1899L22.9603 25.5867L21.781 26.7661C21.7467 26.8019 21.7332 26.8473 21.7292 26.8928ZM12.744 35.9226L13.9106 37.0892C13.8317 37.1625 13.7528 37.239 13.6715 37.294C13.2492 37.576 13.0914 37.2987 12.7233 36.8987C12.7297 36.5728 12.7352 36.2477 12.744 35.9226ZM14.1927 36.8087L12.9512 35.5672C13.3576 35.1289 13.764 34.6891 14.1711 34.2508L15.3696 35.4493C15.3975 35.4772 15.4341 35.4827 15.4692 35.4907C14.4014 36.5577 14.5951 36.368 14.1927 36.8087ZM19.6654 28.3191L20.2056 28.8594L19.1092 29.9558L18.6112 29.4578C18.9626 29.0785 19.3132 28.6984 19.6654 28.3191ZM26.9254 20.4814L27.4099 20.9658L26.4003 21.9754L25.9549 21.53C26.2784 21.1802 26.6019 20.8312 26.9254 20.4814ZM29.5207 17.6797L30.3949 18.5546L29.5 19.4494L28.6594 18.6096C28.947 18.2996 29.2339 17.9896 29.5207 17.6797ZM29.9893 17.5848L29.7917 17.3872C30.1431 17.0079 30.4945 16.6286 30.8459 16.2493L31.0842 16.4876L29.9909 17.5808C29.9901 17.5824 29.9909 17.584 29.9893 17.5848ZM31.1168 15.9569C31.4332 15.615 31.7503 15.274 32.0667 14.9321C32.1886 15.074 32.324 15.227 32.4484 15.3704C32.3703 15.3114 32.2619 15.3098 32.191 15.3808L31.3662 16.2063L31.1168 15.9569ZM12.0818 50.351C12.6771 39.3331 12.654 40.8001 12.7113 37.4717C13.0795 37.8462 13.4197 37.9418 13.8922 37.6254C14.0189 37.541 14.1361 37.435 14.2508 37.3234C14.3672 37.3123 14.4237 37.239 14.4285 37.141C15.176 36.3385 14.3074 37.2175 16.6764 34.8468C16.7545 34.7688 16.7545 34.6429 16.6764 34.5648C16.5983 34.4867 16.4724 34.4867 16.3943 34.5648L15.6915 35.2676C15.6836 35.2325 15.678 35.1951 15.6501 35.168L14.4413 33.9592C14.8206 33.5504 15.1991 33.1408 15.5784 32.732L15.9274 33.081L15.2357 33.7727C15.1576 33.8508 15.1576 33.9767 15.2357 34.0548C15.313 34.1321 15.4389 34.1329 15.517 34.0548L16.2087 33.3631L16.7792 33.9337C16.8565 34.011 16.9824 34.0118 17.0605 33.9337C17.1386 33.8556 17.1386 33.7297 17.0605 33.6516L16.49 33.081L17.2398 32.332C17.3179 32.2539 17.3179 32.128 17.2398 32.0499C17.1617 31.9726 17.0366 31.971 16.9577 32.0499L16.2079 32.799L15.8477 32.4396C16.2549 32.0005 16.6613 31.5615 17.0677 31.1224L18.1418 32.1973C18.2207 32.2762 18.3466 32.2738 18.4239 32.1973C18.502 32.1193 18.502 31.9934 18.4239 31.9153L17.3386 30.83C17.6717 30.4706 18.0048 30.1112 18.3378 29.7518L18.8255 30.2395L18.3347 30.7304C18.2566 30.8084 18.2566 30.9344 18.3347 31.0124C18.4119 31.0897 18.5378 31.0905 18.6167 31.0124L19.1076 30.5216L19.3116 30.7256C19.3905 30.8045 19.5164 30.8021 19.5937 30.7256C19.6718 30.6475 19.6718 30.5216 19.5937 30.4435L19.3897 30.2395L20.4861 29.143L20.557 29.214C20.6359 29.2929 20.7618 29.2913 20.8391 29.214C20.9172 29.1359 20.9172 29.01 20.8391 28.9319L20.7682 28.861L21.1746 28.4554C21.2527 28.3773 21.2527 28.2514 21.1746 28.1733C21.0965 28.0952 20.9706 28.0952 20.8925 28.1733L20.4869 28.5789L19.9363 28.0283C20.3156 27.6195 20.6941 27.2099 21.0734 26.8011L22.0097 27.7374C22.087 27.8147 22.2129 27.8155 22.2918 27.7374C22.3699 27.6593 22.3699 27.5334 22.2918 27.4553L21.938 27.1015C21.9834 27.0975 22.0288 27.084 22.0639 27.0497L23.2432 25.8704L23.4926 26.1198C23.5715 26.1987 23.6974 26.1963 23.7747 26.1198C23.8528 26.0417 23.8528 25.9158 23.7747 25.8377L23.5253 25.5883L24.0448 25.0688C24.1229 24.9907 24.1229 24.8648 24.0448 24.7867C23.9667 24.7086 23.8408 24.7086 23.7628 24.7867L23.2432 25.3062L22.8352 24.8983C23.2233 24.4791 23.6114 24.06 24.0002 23.6408L24.9054 24.5469C24.9843 24.6257 25.1102 24.6233 25.1875 24.5469C25.2656 24.4688 25.2656 24.3429 25.1875 24.2648L24.2711 23.3484C24.7421 22.84 25.2138 22.3316 25.6847 21.8224L26.1198 22.2575L24.8831 23.4942C24.805 23.5723 24.805 23.6982 24.8831 23.7763C24.9604 23.8536 25.0863 23.8544 25.1652 23.7763L26.4019 22.5396L26.7159 22.8536C26.7931 22.9309 26.9191 22.9316 26.9979 22.8536C27.076 22.7755 27.076 22.6496 26.9979 22.5715L26.684 22.2575L27.6936 21.2479L28.2068 21.7611C28.284 21.8384 28.4099 21.8392 28.488 21.7611C28.5661 21.683 28.5661 21.5571 28.488 21.479L27.9047 20.8957C27.8968 20.8599 27.8912 20.8232 27.8633 20.7953C27.8354 20.7674 27.7988 20.7618 27.7629 20.7539L27.1979 20.1889C27.5956 19.7594 27.9932 19.3307 28.39 18.902L29.2195 19.7315L28.4992 20.4519C28.4211 20.53 28.4211 20.6559 28.4992 20.7332C28.5765 20.8105 28.7024 20.8112 28.7813 20.7332L29.5016 20.0128L29.6211 20.1323C29.6984 20.2096 29.8243 20.2104 29.9032 20.1323C29.9813 20.0542 29.9813 19.9283 29.9032 19.8503L29.7837 19.7307L30.6786 18.8359L31.0993 19.2566C31.1782 19.3355 31.3041 19.3331 31.3806 19.2566C31.4587 19.1785 31.4587 19.0526 31.3806 18.9745L30.928 18.5211C30.9383 18.4598 30.9296 18.3976 30.8818 18.3498C30.8347 18.3028 30.7718 18.294 30.7104 18.3036L30.269 17.8645C30.2698 17.8637 30.2722 17.8637 30.273 17.8629L31.3662 16.7697L32.4898 17.8932C32.5671 17.9705 32.693 17.9713 32.7719 17.8932C32.85 17.8151 32.85 17.6892 32.7719 17.6111L31.6475 16.4876L32.4731 15.662C32.5416 15.5935 32.5392 15.4915 32.4874 15.4142C38.2167 22.0288 44.4201 28.6331 51.1367 34.2022C51.6363 36.5752 51.4706 38.7506 51.2483 45.4728C51.2355 45.4807 51.2188 45.4783 51.2076 45.4895L50.4969 46.2003C50.4355 46.1899 50.3733 46.1987 50.3255 46.2465C50.2777 46.2943 50.2698 46.3589 50.2809 46.421C50.2092 46.4991 50.2084 46.6194 50.2841 46.6951C50.3702 46.7812 50.4387 46.7565 50.5136 46.7166L51.1782 47.3812C51.1798 47.3828 51.1829 47.382 51.1845 47.3836L51.1837 47.4115C51.1056 47.3589 51.0029 47.3565 50.9351 47.425L50.4881 47.8729L50.4419 47.8266C50.3638 47.7493 50.2379 47.7485 50.1598 47.8266C50.0817 47.9047 50.0817 48.0306 50.1598 48.1079L50.206 48.1541L50.0769 48.284C49.9988 48.3621 49.9988 48.488 50.0769 48.5653C50.1534 48.6418 50.2801 48.6442 50.3582 48.5653L50.4873 48.4362L50.8897 48.8386C50.9558 48.9048 51.0363 48.9183 51.1359 48.8538L51.112 49.5701C51.0929 49.5797 51.0698 49.5781 51.0539 49.594L50.6538 49.9941L50.1502 49.4896C50.0721 49.4116 49.9462 49.4116 49.8682 49.4896C49.7901 49.5677 49.7901 49.6936 49.8682 49.7717L50.3726 50.2753L49.5367 51.112C49.5351 51.1136 49.5359 51.1168 49.5335 51.1192L49.194 50.7797C49.1159 50.7016 48.99 50.7016 48.9119 50.7797C48.8338 50.8578 48.8338 50.9837 48.9119 51.0618L49.7072 51.8571L48.9494 52.6149L48.1956 51.8611C48.1175 51.783 47.9916 51.783 47.9135 51.8611C47.8354 51.9391 47.8354 52.065 47.9135 52.1431L48.6673 52.897L47.8051 53.7591L46.7142 52.6683L47.1668 52.2157C47.2449 52.1376 47.2449 52.0117 47.1668 51.9336C47.0888 51.8555 46.9629 51.8555 46.8848 51.9336L46.4322 52.3862L45.9907 51.9447C45.9126 51.8666 45.7867 51.8666 45.7086 51.9447C45.6305 52.0228 45.6305 52.1487 45.7086 52.2268L46.1501 52.6683L45.0799 53.7384L44.4671 53.1256L44.5293 53.0635C44.6074 52.9854 44.6074 52.8595 44.5293 52.7814C44.4512 52.7033 44.3253 52.7033 44.2472 52.7814L42.8958 54.1337L42.7037 53.9416C42.6256 53.8635 42.4997 53.8635 42.4216 53.9416C42.3436 54.0197 42.3436 54.1456 42.4216 54.2237L42.6137 54.4157L41.8352 55.1943L41.165 54.5241C41.0869 54.4468 40.961 54.4452 40.8829 54.5241C40.8048 54.6022 40.8048 54.7281 40.8829 54.8062L41.5531 55.4763L40.6614 56.368L40.1929 56.36L39.867 42.3954C39.8048 39.2614 38.6319 38.6231 36.2788 38.6582C29.457 38.8271 29.6666 38.8191 27.8211 38.8669C24.6433 38.9315 23.1803 39.8582 23.2687 44.1197C23.3046 45.2911 23.5667 54.8668 23.5835 56.066L17.9139 55.9656C12.5623 55.8556 11.889 54.097 12.0818 50.351ZM51.0841 50.4259L50.9359 50.2777L51.0945 50.1192L51.0841 50.4259ZM51.01 52.6133C51.0044 52.6053 51.006 52.5942 50.9989 52.587L49.81 51.3981C49.8116 51.3965 49.8148 51.3973 49.8164 51.3949L50.6522 50.5582L50.8961 50.8021C50.963 50.869 51.0044 50.8578 51.0682 50.8475L51.0124 52.5344C51.0132 52.5607 51.0108 52.5862 51.01 52.6133ZM50.9303 53.4117C50.8523 53.3336 50.7264 53.3336 50.6483 53.4117L50.1964 53.8635L49.2299 52.897L49.9877 52.1392L50.7168 52.8683C50.7925 52.944 50.916 52.948 50.9973 52.8691C50.9885 53.0739 50.9742 53.2755 50.955 53.4723C50.9455 53.4516 50.9471 53.4284 50.9303 53.4117ZM49.9144 54.1448L49.0522 55.007L48.0856 54.0404L48.9478 53.1782L49.9144 54.1448ZM51.1463 48.5334L50.7694 48.1557L51.1726 47.7517L51.1463 48.5334ZM51.2021 46.8425L50.81 46.4505L51.2284 46.0321L51.2021 46.8425ZM47.523 54.0404L46.4529 55.1106L45.362 54.0197L46.4322 52.9495L47.523 54.0404ZM42.73 56.0883L42.118 55.4755L42.8966 54.697L43.5093 55.3098L42.73 56.0883ZM42.4782 56.3999L41.216 56.3776L41.836 55.7576L42.4782 56.3999ZM43.1786 54.4157L44.1867 53.4077L44.7994 54.0205L43.7922 55.0277L43.1786 54.4157ZM33.4866 39.5235L34.7082 39.4932L34.0819 40.1188L33.4866 39.5235ZM30.7184 39.5921C31.183 39.5809 31.6459 39.5689 32.1105 39.5578L32.3806 39.5514L31.5288 40.4032L30.7184 39.5921ZM30.2331 39.604C30.2395 39.6446 30.2483 39.6853 30.2793 39.7164L31.928 41.365C32.0053 41.4423 32.1312 41.4431 32.2101 41.365C32.2882 41.2869 32.2882 41.161 32.2101 41.0829L31.8109 40.6837L32.9528 39.5419C32.9575 39.5474 32.9551 39.5562 32.9607 39.5618L33.8149 40.416C33.7759 40.4909 33.7743 40.5809 33.8372 40.6439C33.9233 40.7299 33.9902 40.7044 34.0651 40.6662L34.2078 40.8088C34.2867 40.8877 34.4126 40.8861 34.4899 40.8088C34.568 40.7307 34.568 40.6048 34.4899 40.5268L34.3632 40.4001L35.1847 39.5793C35.1975 39.5666 35.1951 39.549 35.203 39.5347L35.7592 40.0909L35.5911 40.259C35.513 40.3371 35.513 40.463 35.5911 40.5411C35.6684 40.6184 35.7943 40.6192 35.8732 40.5411L36.0413 40.373L36.5712 40.9029C36.6485 40.9802 36.7752 40.981 36.8533 40.9029C36.9314 40.8248 36.9314 40.6989 36.8533 40.6208L36.3234 40.0909L36.9513 39.463C38.5872 39.5363 39.0327 40.3451 39.0725 42.4121L39.3976 56.3441L24.3883 56.0764C24.3867 55.913 24.3827 55.8971 24.3787 55.7481L25.0847 55.0421L25.1995 55.1568C25.2768 55.2341 25.4027 55.2349 25.4815 55.1568C25.5596 55.0787 25.5596 54.9528 25.4815 54.8747L25.3668 54.76L26.4394 53.6874C26.5174 53.6093 26.5174 53.4834 26.4394 53.4061C26.3613 53.328 26.2354 53.328 26.1573 53.4061L25.0847 54.4787L24.3261 53.7201C24.3229 53.6093 24.3205 53.4978 24.3174 53.3862L25.0592 52.6444L25.5158 53.1009C25.5931 53.1782 25.719 53.179 25.7979 53.1009C25.876 53.0229 25.876 52.897 25.7979 52.8189L25.3413 52.3623L26.4888 51.2148C26.5668 51.1367 26.5668 51.0108 26.4888 50.9327C26.4107 50.8554 26.2848 50.8546 26.2067 50.9327L25.0592 52.0802L24.2624 51.2833C24.256 51.0626 24.2512 50.8427 24.2448 50.6228L25.111 49.7566L25.7341 50.3797C25.8114 50.457 25.9373 50.4578 26.0162 50.3797C26.0943 50.3016 26.0943 50.1757 26.0162 50.0976L25.3931 49.4745L26.4935 48.3741C26.5716 48.296 26.5716 48.1701 26.4935 48.0928C26.4154 48.0147 26.2895 48.0147 26.2115 48.0928L25.111 49.1932L24.201 48.2832C24.2066 48.2784 24.2146 48.2808 24.2201 48.2753L25.4457 47.0497L25.7429 47.3469C25.8218 47.4258 25.9477 47.4234 26.025 47.3469C26.1031 47.2688 26.1031 47.1429 26.025 47.0649L25.727 46.7692L27.5677 44.9277C27.6458 44.8496 27.6458 44.7237 27.5677 44.6456C27.4896 44.5675 27.3637 44.5675 27.2856 44.6456L25.4449 46.4871L24.3859 45.4281L25.625 44.189L26.323 44.8871C26.4003 44.9644 26.5262 44.9652 26.6051 44.8871C26.6832 44.809 26.6832 44.6831 26.6051 44.605L25.9071 43.907L27.0689 42.7452L27.9079 43.5842C27.9852 43.6615 28.1111 43.6623 28.19 43.5842C28.2681 43.5061 28.2681 43.3802 28.19 43.3022L27.3135 42.4264C27.3183 42.3706 27.3047 42.3141 27.2609 42.271C27.2179 42.228 27.1613 42.2145 27.1055 42.2184L26.4991 41.6129L27.6872 40.4248L28.6689 41.4065L28.2689 41.8073C28.1908 41.8854 28.1908 42.0113 28.2689 42.0894C28.3478 42.1683 28.4737 42.1659 28.551 42.0894L28.9518 41.6886L29.3056 42.0424C29.3829 42.1196 29.5088 42.1204 29.5877 42.0424C29.6658 41.9643 29.6658 41.8384 29.5877 41.7603L29.2331 41.4065L30.4594 40.1801C30.5375 40.102 30.5375 39.9761 30.4594 39.898C30.3813 39.82 30.2554 39.82 30.1773 39.898L28.951 41.1244L27.9693 40.1427L28.1382 39.9729C28.2163 39.8949 28.2163 39.769 28.1382 39.6909C28.1159 39.6686 28.0848 39.667 28.0569 39.6574C28.7821 39.6391 29.508 39.6223 30.2331 39.604ZM35.7003 39.4693L36.2955 39.455C36.3274 39.4542 36.3632 39.455 36.3959 39.455L36.0405 39.8104L35.7003 39.4693ZM24.0671 44.099C24.0576 43.6265 24.0608 43.138 24.1014 42.6639L24.4935 43.0559L24.2472 43.3022C24.1691 43.3802 24.1691 43.5061 24.2472 43.5842C24.3245 43.6615 24.4504 43.6623 24.5293 43.5842L24.7755 43.338L25.3445 43.907L24.1054 45.1461L24.0958 45.1365C24.0855 44.7915 24.0775 44.444 24.0671 44.099ZM25.0568 43.0567L26.2186 41.8949L26.7876 42.4639L25.6258 43.6257L25.0568 43.0567ZM25.1636 46.7692L24.1668 47.7661C24.1492 47.0824 24.1301 46.3995 24.111 45.7166L25.1636 46.7692ZM24.2759 51.8634L24.7763 52.3639L24.3014 52.838C24.2935 52.5137 24.2855 52.1878 24.2759 51.8634ZM24.2289 50.0745C24.2185 49.6642 24.2058 49.2538 24.1954 48.8426L24.8281 49.4753L24.2289 50.0745ZM24.3405 54.2986L24.8026 54.7608L24.3644 55.199C24.3564 54.8994 24.3476 54.599 24.3405 54.2986ZM27.8577 39.6917L27.688 39.8614L27.4992 39.6725C27.6115 39.6686 27.7247 39.6654 27.8402 39.663C27.8705 39.6622 27.9008 39.6614 27.931 39.6606C27.9063 39.6709 27.8777 39.6717 27.8577 39.6917ZM26.9653 39.702L27.4059 40.1427L26.2178 41.3308L25.154 40.267C25.6401 39.8957 26.2601 39.7578 26.9653 39.702ZM24.8648 40.5403L25.9373 41.6129L24.7755 42.7746L24.1652 42.1643C24.268 41.5364 24.4751 40.9682 24.8648 40.5403ZM46.2648 56.4668L42.977 56.4086C42.977 56.4078 42.9762 56.407 42.9762 56.4062L43.7914 55.5911L44.2799 56.0795C44.3572 56.1568 44.4831 56.1576 44.562 56.0795C44.6401 56.0015 44.6401 55.8756 44.562 55.7975L44.0735 55.309L45.0807 54.3018L46.1716 55.3927L45.5843 55.9799C45.5062 56.058 45.5062 56.1839 45.5843 56.262C45.6616 56.3393 45.7875 56.3401 45.8664 56.262L46.4537 55.6755L46.6059 55.8277C46.6832 55.905 46.8091 55.9058 46.888 55.8277C46.966 55.7497 46.966 55.6238 46.888 55.5457L46.7358 55.3935L47.8059 54.3233L48.7725 55.2899L48.1231 55.9393C48.045 56.0174 48.045 56.1433 48.1231 56.2206C48.2004 56.2979 48.3263 56.2987 48.4051 56.2206L49.0546 55.5712L49.4833 55.9999C48.6091 56.427 47.4426 56.4891 46.2648 56.4668ZM49.8347 55.7887L49.3351 55.2883L50.1972 54.4261L50.3733 54.6022C50.4506 54.6795 50.5765 54.6803 50.6546 54.6022C50.7327 54.5241 50.7327 54.3982 50.6546 54.3201L50.4785 54.1432L50.9272 53.6946C50.8092 54.6173 50.5654 55.2811 49.8347 55.7887ZM49.598 23.1954C49.6187 22.397 49.6745 20.016 49.7016 18.5857C49.8379 18.5904 49.9781 18.5968 50.1144 18.6016L50.6196 19.106L50.5168 19.2088C50.4387 19.2869 50.4387 19.4128 50.5168 19.4909C50.5941 19.5682 50.72 19.569 50.7989 19.4909L50.9009 19.3889L51.7304 20.2176C51.8077 20.2949 51.9336 20.2957 52.0125 20.2176C52.0905 20.1395 52.0905 20.0136 52.0125 19.9355L51.1829 19.1068L51.6276 18.6622C52.3352 18.694 52.2547 18.6964 52.4627 18.7076L52.5169 18.7618L51.8467 19.4319C51.7686 19.51 51.7686 19.6359 51.8467 19.714C51.924 19.7913 52.0499 19.7921 52.1288 19.714L52.7989 19.0438L53.328 19.573L52.3655 20.5355C52.2874 20.6136 52.2874 20.7395 52.3655 20.8176C52.4428 20.8949 52.5687 20.8957 52.6475 20.8176L53.6101 19.855L53.9097 20.1546C53.995 20.2399 54.0572 20.2152 54.1313 20.1794L54.1082 20.9316L53.4197 21.62L53.026 21.2264C52.8412 21.0415 52.5575 21.3212 52.744 21.5085L53.1376 21.9021L52.7352 22.3045C52.6571 22.3826 52.6571 22.5085 52.7352 22.5858C52.8125 22.6631 52.9384 22.6639 53.0173 22.5858L53.4197 22.1834L53.9783 22.742C53.999 22.7627 54.0269 22.7627 54.0524 22.7723L53.9002 27.8075C51.6419 25.3899 50.9487 24.6385 49.598 23.1954ZM54.0667 22.2671L53.701 21.9005L54.0898 21.5117L54.0667 22.2671ZM53.0938 18.7474C53.0946 18.7466 53.0946 18.7466 53.0938 18.7474C53.4253 18.7665 53.7536 18.7841 54.0898 18.8088L53.6077 19.2909L53.0786 18.7618L53.0938 18.7474ZM54.156 19.306L54.14 19.8224L53.8898 19.5722L54.156 19.306ZM51.0849 18.6398L50.9001 18.8247L50.7001 18.6247C50.8291 18.6303 50.9566 18.6351 51.0849 18.6398ZM51.8411 14.0182C51.8364 14.0229 51.8379 14.0309 51.8332 14.0365L51.3288 13.5321L51.3957 13.4651C51.3973 13.4636 51.3965 13.4612 51.3981 13.4604L52.3591 13.501L51.8411 14.0182ZM53.6611 13.5552L53.4157 13.8006L53.1488 13.5337L53.6611 13.5552ZM50.5797 13.4245L50.6626 13.4277L50.7662 13.5313L50.4586 13.8381C50.3805 13.9162 50.3805 14.0421 50.4586 14.1194C50.5359 14.1966 50.6618 14.1974 50.7407 14.1194L51.0475 13.8126L51.6021 14.3672C51.6794 14.4445 51.8053 14.4453 51.8834 14.3672C51.8953 14.3552 51.8929 14.3385 51.9009 14.3241C51.975 14.3592 52.038 14.3847 52.1224 14.2994L52.7368 13.6851L53.1336 14.0819L53.0181 14.1974C52.94 14.2755 52.94 14.4014 53.0181 14.4787C53.0954 14.556 53.2213 14.5568 53.3002 14.4787L53.4157 14.3632L53.6412 14.5887C53.7185 14.666 53.8444 14.6668 53.9233 14.5887C54.0014 14.5106 54.0014 14.3847 53.9233 14.3066L53.6978 14.0811L54.1193 13.6596C54.1424 13.6365 54.1448 13.6046 54.1544 13.5751L55.0413 13.6126C56.3967 13.6851 57.0294 13.8373 56.9752 15.8915V15.8971C56.9505 17.9418 56.3616 18.188 54.6142 18.0462C52.8236 17.8964 51.0554 17.8334 49.3279 17.7729C48.8354 17.7514 48.4051 17.6032 48.0689 17.3545L49.4259 15.9975C49.504 15.9194 49.504 15.7935 49.4259 15.7154C49.3478 15.6373 49.2219 15.6373 49.1438 15.7154L49.0267 15.8326C49.0195 15.8214 49.0219 15.8063 49.0115 15.7959L48.449 15.2325L49.3064 14.3751L49.5622 14.6309L49.1526 15.0405C49.0745 15.1186 49.0745 15.2445 49.1526 15.3226C49.2299 15.3999 49.3558 15.4007 49.4347 15.3226L49.8442 14.913C49.9431 15.0118 50.0642 15.0015 50.1391 14.9258C50.2172 14.8477 50.2172 14.7218 50.1391 14.6445L50.1255 14.6309L50.2745 14.4819C50.3526 14.4038 50.3526 14.2779 50.2745 14.1998C50.1964 14.1217 50.0705 14.1217 49.9925 14.1998L49.8442 14.3488L48.986 13.4914C49.4912 13.3855 50.0642 13.4022 50.5797 13.4245ZM47.5956 16.8135L47.8211 17.039L47.778 17.082C47.6975 16.9888 47.7748 17.1266 47.5956 16.8135ZM48.586 13.6158C48.5956 13.6397 48.5956 13.666 48.6147 13.6859L49.0243 14.0955L48.1669 14.9529L47.7191 14.505C47.6999 14.4859 47.6728 14.4859 47.6489 14.4755C47.9071 13.9879 48.2043 13.7679 48.586 13.6158ZM47.3804 15.2628C47.4075 15.1146 47.4442 14.9736 47.4904 14.8397L47.8856 15.2349L47.6681 15.4525C47.59 15.5306 47.59 15.6565 47.6681 15.7346C47.7462 15.8119 47.8721 15.8126 47.9501 15.7346L48.1677 15.517L48.7303 16.0804C48.7406 16.0907 48.755 16.0884 48.7669 16.0955L48.1031 16.7593L47.3477 16.0039C47.3262 15.7672 47.3294 15.5218 47.3804 15.2628ZM7.80436 35.2477C8.06254 31.7089 21.2224 18.6677 26.7007 11.7472C30.877 6.46009 33.399 6.94458 36.6788 10.4746C36.6907 10.4873 53.9591 29.0594 53.9775 29.0594C56.2222 31.4746 57.2971 32.4157 57.1959 33.5703C57.0852 34.658 55.7369 35.3393 54.6078 35.1799C50.4785 34.5799 35.1847 17.333 32.379 14.0747C32.2268 13.8978 31.9487 13.8859 31.7846 14.0644C25.217 21.165 18.639 28.2657 12.0611 35.3568L11.685 35.7632C8.93907 38.7068 7.70316 36.5991 7.80436 35.2477Z" fill="black"/>
<path d="M33.1381 50.634L31.9357 51.8364C31.8576 51.9145 31.8576 52.0404 31.9357 52.1185C32.013 52.1958 32.1389 52.1966 32.2178 52.1185L33.4202 50.9161L34.4115 51.9073C34.4888 51.9846 34.6147 51.9854 34.6936 51.9073C34.7716 51.8292 34.7716 51.7033 34.6936 51.6252L33.7023 50.634L34.3159 50.0204L35.1414 50.8459L34.7175 51.2699C34.6394 51.3479 34.6394 51.4739 34.7175 51.5519C34.7948 51.6292 34.9207 51.63 34.9995 51.5519L35.4235 51.128L35.99 51.6946C36.0673 51.7719 36.1932 51.7727 36.2721 51.6946C36.3502 51.6165 36.3502 51.4906 36.2721 51.4125L35.7055 50.8459L36.5311 50.0204L37.2506 50.74C37.3279 50.8173 37.4538 50.818 37.5327 50.74C37.6108 50.6619 37.6108 50.536 37.5327 50.4579L36.8132 49.7383L37.4514 49.1001C37.5295 49.022 37.5295 48.8961 37.4514 48.818C37.3733 48.7399 37.2474 48.7399 37.1694 48.818L36.5311 49.4562L35.7055 48.6307L36.0904 48.2458C36.1685 48.1677 36.1685 48.0418 36.0904 47.9638C36.0123 47.8857 35.8864 47.8857 35.8083 47.9638L35.4235 48.3486L34.8338 47.7582L35.5462 47.0458C35.6243 46.9677 35.6243 46.8418 35.5462 46.7637C35.4681 46.6856 35.3422 46.6856 35.2649 46.7637L33.3047 48.7239H33.3039V48.7247L32.6449 49.3837C32.6074 49.4212 32.5907 49.4698 32.5891 49.5176L31.9349 48.8674C31.8568 48.7893 31.7309 48.7893 31.6528 48.8674C31.5747 48.9455 31.5747 49.0714 31.6528 49.1495L33.1381 50.634ZM36.2474 49.7383L35.4219 50.5639L34.5963 49.7383L35.4219 48.9128L36.2474 49.7383ZM35.1406 48.6315L34.3151 49.457L33.7246 48.8674L34.5501 48.0418L35.1406 48.6315ZM32.9246 49.6674L33.4433 49.1487L34.033 49.7383L33.4194 50.3519L32.7899 49.7224C32.8393 49.7208 32.8871 49.7041 32.9246 49.6674Z" fill="black"/>
<path d="M14.5793 29.6372L15.9746 28.2419L16.2248 28.4921C16.3021 28.5694 16.428 28.5702 16.5069 28.4921C16.5849 28.414 16.5849 28.2881 16.5069 28.21L16.2566 27.9598L17.3714 26.845L17.5714 27.0442C17.6487 27.1215 17.7746 27.1223 17.8527 27.0442C17.9308 26.9661 17.9308 26.8402 17.8527 26.7622L17.6527 26.5629L18.9101 25.3055L19.1125 25.5079C19.1898 25.5852 19.3157 25.586 19.3946 25.5079C19.4727 25.4298 19.4727 25.3039 19.3946 25.2258L19.193 25.0242L20.4082 23.809L20.774 24.1748C20.8513 24.2521 20.9772 24.2529 21.056 24.1748C21.1341 24.0967 21.1341 23.9708 21.056 23.8927L20.6903 23.527L21.6338 22.5835L21.9947 22.9445C22.072 23.0218 22.1979 23.0226 22.2768 22.9445C22.3549 22.8664 22.3549 22.7405 22.2768 22.6624L21.9158 22.3014L22.9454 21.2719L23.1764 21.503C23.2553 21.5819 23.3812 21.5795 23.4585 21.503C23.5366 21.4249 23.5366 21.299 23.4585 21.2209L23.2274 20.9898L24.5319 19.6854C24.61 19.6073 24.61 19.4814 24.5319 19.4033C24.4538 19.3252 24.3279 19.3252 24.2506 19.4033L22.9462 20.7077L22.4888 20.2495C22.4115 20.1722 22.2856 20.1715 22.2067 20.2495C22.1286 20.3276 22.1286 20.4535 22.2067 20.5316L22.6641 20.9898L21.6345 22.0193L21.4903 21.8751C21.4122 21.797 21.2855 21.7978 21.2082 21.8751C21.1301 21.9532 21.1301 22.0791 21.2082 22.1564L21.3525 22.3006L20.409 23.2441L20.0082 22.8433C19.9301 22.7652 19.8042 22.7652 19.7269 22.8433C19.6488 22.9214 19.6488 23.0473 19.7269 23.1254L20.1277 23.5262L18.9125 24.7414L18.4687 24.2975C18.3898 24.2186 18.2639 24.2202 18.1866 24.2975C18.1085 24.3756 18.1085 24.5015 18.1866 24.5796L18.6304 25.0234L17.373 26.2809L16.7013 25.6091C16.6232 25.531 16.4973 25.531 16.4192 25.6091C16.3411 25.6872 16.3411 25.8131 16.4192 25.8912L17.0909 26.5629L15.9762 27.6777L15.4471 27.1486C15.369 27.0705 15.2431 27.0705 15.165 27.1486C15.0869 27.2267 15.0869 27.3526 15.165 27.4307L15.6941 27.9598L14.2988 29.3551C14.2207 29.4332 14.2207 29.5591 14.2988 29.6372C14.3753 29.7145 14.5012 29.7153 14.5793 29.6372Z" fill="black"/>
<path d="M39.7222 18.847L39.2449 19.3243C39.1668 19.4024 39.1668 19.5283 39.2449 19.6064C39.3221 19.6837 39.4481 19.6845 39.5269 19.6064L40.0042 19.1291L41.0083 20.1331L40.7286 20.4128C40.6505 20.4909 40.6505 20.6168 40.7286 20.6949C40.8059 20.7722 40.9318 20.773 41.0107 20.6949L41.2904 20.4152L42.4187 21.5436L42.1637 21.7986C42.0856 21.8766 42.0856 22.0025 42.1637 22.0806C42.241 22.1579 42.3669 22.1587 42.4458 22.0806L42.7008 21.8256L43.8785 23.0034L43.4012 23.4815C43.3231 23.5596 43.3231 23.6855 43.4012 23.7636C43.4777 23.8401 43.6044 23.8425 43.6833 23.7636L44.1606 23.2855L45.4124 24.5373L44.7869 25.1628C44.7088 25.2409 44.7088 25.3668 44.7869 25.4449C44.8642 25.5222 44.9901 25.523 45.069 25.4449L45.6945 24.8194L46.4969 25.6218C46.5742 25.6991 46.7001 25.6999 46.779 25.6218C46.8571 25.5437 46.8571 25.4178 46.779 25.3397L45.9766 24.5373L46.9097 23.6042C46.9878 23.5261 46.9878 23.4002 46.9097 23.3221C46.8316 23.244 46.7057 23.244 46.6276 23.3221L45.6945 24.2552L44.4427 23.0034L44.9503 22.495C45.0284 22.4169 45.0284 22.291 44.9503 22.2129C44.8722 22.134 44.7463 22.1356 44.6682 22.2129L44.1606 22.7213L42.9836 21.5436L43.6841 20.8431C43.7622 20.765 43.7622 20.6391 43.6841 20.5618C43.606 20.4838 43.4801 20.4838 43.4028 20.5618L42.6992 21.2607L41.5708 20.1323L42.1972 19.506C42.2753 19.4279 42.2753 19.302 42.1972 19.2239C42.1191 19.1459 41.9932 19.1459 41.9151 19.2239L41.2888 19.8503L40.2847 18.8462L41.2139 17.9171C41.2919 17.839 41.2919 17.7131 41.2139 17.6358C41.1358 17.5577 41.0099 17.5577 40.9318 17.6358L40.0027 18.565L39.0799 17.6422C39.0018 17.5641 38.8759 17.5641 38.7978 17.6422C38.7197 17.7203 38.7197 17.8462 38.7978 17.9235L39.7222 18.847Z" fill="black"/>
<path d="M31.8457 32.8771C31.8967 32.8771 31.9477 32.858 31.9867 32.8189L33.2545 31.5511C33.264 31.579 33.2664 31.6101 33.2879 31.6316L34.4665 32.8093L33.7501 33.5257C33.672 33.6038 33.672 33.7297 33.7501 33.8078C33.7892 33.8468 33.8394 33.866 33.8912 33.866C33.9422 33.866 33.9932 33.8468 34.0322 33.8078L34.7494 33.0914L36.6881 35.0293C36.7271 35.0684 36.7773 35.0875 36.8291 35.0875C36.8801 35.0875 36.9311 35.0684 36.9702 35.0293C37.0483 34.9513 37.0483 34.8254 36.9702 34.7473L35.0314 32.8093L36.1677 31.6738L36.4689 31.975C37.0028 32.5089 37.3702 32.8038 37.779 32.8348C37.8013 32.8364 37.8236 32.8372 37.8459 32.8372C38.2778 32.8372 38.6794 32.5265 39.144 32.0611L40.1575 31.0475L40.5719 31.4619C40.6109 31.5009 40.6611 31.5201 40.7129 31.5201C40.7639 31.5201 40.8149 31.5009 40.854 31.4619C40.9321 31.3838 40.9321 31.2579 40.854 31.1798L40.4396 30.7654L40.7345 30.4706C40.8125 30.3925 40.8125 30.2666 40.7345 30.1893C40.6564 30.1112 40.5305 30.1112 40.4524 30.1893L40.1575 30.4842L38.7575 29.0841L38.8818 28.9598C38.9599 28.8817 38.9599 28.7558 38.8818 28.6785C38.8037 28.6004 38.6778 28.6004 38.5997 28.6785L38.4754 28.8028L37.6594 27.9869C37.5813 27.9088 37.4554 27.9088 37.3773 27.9869C37.2993 28.0649 37.2993 28.1908 37.3773 28.2689L38.1933 29.0849L37.8818 29.3965L36.6466 28.1614L36.9558 27.8522C37.0339 27.7741 37.0339 27.6482 36.9558 27.5701C36.8777 27.492 36.7518 27.492 36.6737 27.5701L36.3646 27.8793L36.0769 27.5916C35.9988 27.5135 35.8729 27.5135 35.7956 27.5916C35.7175 27.6697 35.7175 27.7956 35.7956 27.8737L36.0833 28.1614L34.6505 29.5941L33.637 28.5805C33.5589 28.5032 33.4338 28.5016 33.3557 28.5805C33.2776 28.6586 33.2776 28.7845 33.3557 28.8626L34.3693 29.8762L31.707 32.5384C31.6289 32.6165 31.6289 32.7424 31.707 32.8205C31.7437 32.8572 31.7947 32.8771 31.8457 32.8771ZM38.4738 29.3654L39.8739 30.7654L38.8603 31.779C38.3742 32.2659 38.0587 32.454 37.8068 32.4372C37.5232 32.4157 37.2036 32.148 36.7486 31.693L36.4474 31.3918L37.881 29.959L38.9017 30.9806C38.9408 31.0196 38.991 31.0388 39.0428 31.0388C39.0938 31.0388 39.1448 31.0196 39.1838 30.9806C39.2619 30.9025 39.2619 30.7766 39.1838 30.6993L38.1622 29.6778L38.4738 29.3654ZM36.3638 28.4418L37.5989 29.677L36.1653 31.1097L34.9302 29.8746L36.3638 28.4418ZM35.8841 31.3918L34.7478 32.5281L33.7103 31.4906C33.7796 31.4125 33.7764 31.293 33.7015 31.218C33.6792 31.1957 33.6489 31.1941 33.621 31.1846L34.649 30.1567L35.8841 31.3918Z" fill="black"/>
<path d="M19.9828 41.5571L19.5159 42.024L19.4593 41.9667C19.382 41.8894 19.2553 41.8886 19.1772 41.9667C19.0991 42.0447 19.0991 42.1706 19.1772 42.2487L19.2346 42.3061L18.6258 42.9149L18.4035 42.6926C18.3254 42.6145 18.1995 42.6145 18.1222 42.6926C18.0441 42.7707 18.0441 42.8966 18.1222 42.9747L18.3445 43.197L17.1094 44.4321L16.6895 44.0121C16.6114 43.9341 16.4855 43.9341 16.4082 44.0121C16.3301 44.0902 16.3301 44.2161 16.4082 44.2942L16.8281 44.7142L16.0791 45.4632C16.001 45.5413 16.001 45.6672 16.0791 45.7453C16.1564 45.8226 16.2823 45.8234 16.3604 45.7453L17.1094 44.9962L17.8178 45.7046C17.8951 45.7819 18.021 45.7827 18.0991 45.7046C18.1772 45.6265 18.1772 45.5006 18.0991 45.4226L17.3907 44.7142L18.6258 43.4791L19.2107 44.0639C19.288 44.1412 19.4139 44.142 19.4928 44.0639C19.5708 43.9859 19.5708 43.86 19.4928 43.7819L18.9079 43.197L19.5159 42.589L19.7207 42.7938C19.7948 42.8671 19.9103 42.8719 19.99 42.8049C20.1509 42.6703 20.3278 42.5316 20.1876 42.3659C20.1127 42.279 19.9988 42.2623 19.8689 42.3778L19.7979 42.3069L20.2649 41.84C20.343 41.7619 20.343 41.636 20.2649 41.5579C20.1868 41.4798 20.0601 41.4798 19.9828 41.5571Z" fill="black"/>
</svg>
