<svg width="23" height="24" viewBox="0 0 23 24" fill="none" xmlns="http://www.w3.org/2000/svg">
<path fill-rule="evenodd" clip-rule="evenodd" d="M20.4379 18.9372C20.829 19.2938 21.4351 19.2658 21.7917 18.8747C22.1483 18.4836 22.1203 17.8774 21.7292 17.5208L18.8502 14.8959C19.6163 14.4554 20.0775 13.8879 20.0775 13.2685C20.0775 11.8675 17.7177 10.7318 14.8067 10.7318C14.6344 10.7318 14.4641 10.7357 14.296 10.7435L11.964 8.61724C12.8696 8.1617 13.4259 7.54399 13.4259 6.86374C13.4259 5.46272 11.0661 4.32697 8.15511 4.32697C7.86233 4.32697 7.57513 4.33846 7.29535 4.36055L5.43755 2.66668C5.04644 2.31008 4.4403 2.33805 4.0837 2.72916C3.72711 3.12027 3.75508 3.72641 4.14619 4.08301L4.97644 4.84001C4.97364 4.84103 4.97084 4.84205 4.96803 4.84308L6.50141 6.23042L20.4379 18.9372ZM2.88428 6.86374C2.88428 6.52229 3.02444 6.1966 3.27859 5.89926L7.09125 9.3488C4.69022 9.11196 2.88428 8.08935 2.88428 6.86374ZM9.53586 13.2685C9.53586 12.8462 9.75027 12.448 10.1296 12.0978L14.2096 15.7892C11.5797 15.6465 9.53586 14.5724 9.53586 13.2685ZM14.8024 17.2365C15.1422 17.2365 15.4608 17.22 15.7586 17.1907L16.9478 18.2666C16.3288 18.3981 15.6146 18.4824 14.8024 18.4824C11.8966 18.4824 10.2069 17.3201 9.76891 16.9656C9.50152 16.7491 9.46023 16.3569 9.67669 16.0895C9.89315 15.8221 10.2854 15.7808 10.5528 15.9973C10.825 16.2176 12.2466 17.2365 14.8024 17.2365ZM18.9813 20.1064L17.9928 19.2121C17.2961 19.5319 16.2643 19.8344 14.8536 19.8344C12.3058 19.8344 10.8331 18.7632 10.5528 18.5363C10.2854 18.3199 9.89315 18.3612 9.67669 18.6286C9.46023 18.8959 9.50152 19.2882 9.76891 19.5046C10.1988 19.8527 11.9397 21.0802 14.8536 21.0802C16.7869 21.0802 18.14 20.577 18.9813 20.1064ZM3.90121 9.59249C3.63381 9.37603 3.24157 9.41732 3.02511 9.68471C2.80865 9.9521 2.84994 10.3443 3.11733 10.5608C3.55528 10.9153 5.24498 12.0776 8.1508 12.0776C8.49482 12.0776 8.77371 11.7987 8.77371 11.4547C8.77371 11.1107 8.49482 10.8318 8.1508 10.8318C5.59499 10.8318 4.17343 9.81286 3.90121 9.59249ZM3.90121 12.1315C3.63381 11.9151 3.24157 11.9563 3.02511 12.2237C2.80865 12.4911 2.84994 12.8834 3.11733 13.0998C3.54723 13.4478 5.28812 14.6754 8.202 14.6754C8.54603 14.6754 8.82492 14.3965 8.82492 14.0525C8.82492 13.7084 8.54603 13.4295 8.202 13.4295C5.65426 13.4295 4.18148 12.3584 3.90121 12.1315ZM3.90121 14.758C3.63381 14.5415 3.24157 14.5828 3.02511 14.8502C2.80865 15.1176 2.84994 15.5098 3.11733 15.7263C3.54723 16.0743 5.28812 17.3018 8.202 17.3018C8.54603 17.3018 8.82492 17.023 8.82492 16.6789C8.82492 16.3349 8.54603 16.056 8.202 16.056C5.65426 16.056 4.18148 14.9849 3.90121 14.758Z" fill="#009639"/>
</svg>
