<svg width="24" height="24" viewBox="0 0 24 24" fill="none" xmlns="http://www.w3.org/2000/svg">
<path fill-rule="evenodd" clip-rule="evenodd" d="M17.6495 21.0029C19.3064 21.0029 20.6495 19.6598 20.6495 18.0029V8.00293C20.6495 6.51086 19.5603 5.2732 18.1336 5.04177C18.1135 4.84738 18.0748 4.65808 18.0193 4.47583C17.9145 4.13247 17.5513 3.93901 17.2079 4.04374C16.8645 4.14847 16.6711 4.51172 16.7758 4.85509C16.7906 4.90342 16.8032 4.95273 16.8137 5.00293H9.64954C7.99269 5.00293 6.64954 6.34608 6.64954 8.00293V17.667C6.5997 17.6566 6.55075 17.644 6.50275 17.6294C6.15939 17.5247 5.79613 17.7181 5.6914 18.0615C5.58667 18.4049 5.78013 18.7681 6.12349 18.8728C6.3458 18.9406 6.57862 18.9832 6.81836 18.9976C7.22867 20.1656 8.34132 21.0029 9.64954 21.0029H17.6495ZM9.64954 19.7029H17.6495C18.5884 19.7029 19.3495 18.9418 19.3495 18.0029V8.00293C19.3495 7.06405 18.5884 6.30293 17.6495 6.30293H9.64954C8.71066 6.30293 7.94954 7.06405 7.94954 8.00293V18.0029C7.94954 18.9418 8.71066 19.7029 9.64954 19.7029Z" fill="#A4A4A4"/>
<path d="M5.37358 16.5002C5.47831 16.8436 5.28485 17.2068 4.94148 17.3116C4.59812 17.4163 4.23486 17.2228 4.13013 16.8795C4.04536 16.6016 4 16.3072 4 16.0034V15.0597C4 14.7007 4.29102 14.4097 4.65 14.4097C5.00899 14.4097 5.3 14.7007 5.3 15.0597V16.0034C5.3 16.1773 5.32589 16.3439 5.37358 16.5002Z" fill="#A4A4A4"/>
<path d="M5.3 11.9453C5.3 12.3043 5.00899 12.5953 4.65 12.5953C4.29102 12.5953 4 12.3043 4 11.9453V10.0578C4 9.69884 4.29102 9.40783 4.65 9.40783C5.00899 9.40783 5.3 9.69884 5.3 10.0578V11.9453Z" fill="#A4A4A4"/>
<path d="M5.3 6.94347C5.3 7.30246 5.00899 7.59347 4.65 7.59347C4.29102 7.59347 4 7.30246 4 6.94347V5.99973C4 5.62984 4.05523 5.27168 4.15833 4.93364C4.26306 4.59027 4.62631 4.39682 4.96968 4.50155C5.31305 4.60628 5.50651 4.96953 5.40178 5.3129C5.33575 5.52937 5.3 5.75978 5.3 5.99973V6.94347Z" fill="#A4A4A4"/>
<path d="M6.96318 3.7515C6.61981 3.85623 6.25655 3.66278 6.15182 3.31941C6.04709 2.97604 6.24055 2.61279 6.58392 2.50805C6.92195 2.40495 7.28012 2.34973 7.65 2.34973H8.29618C8.65517 2.34973 8.94618 2.64074 8.94618 2.99973C8.94618 3.35871 8.65517 3.64973 8.29618 3.64973H7.65C7.41005 3.64973 7.17964 3.68548 6.96318 3.7515Z" fill="#A4A4A4"/>
<path d="M16.0234 2.48002C16.3668 2.58475 16.5603 2.948 16.4555 3.29137C16.3508 3.63474 15.9875 3.82819 15.6442 3.72346C15.4875 3.67567 15.3205 3.64973 15.1463 3.64973H14.3781C14.0191 3.64973 13.7281 3.35871 13.7281 2.99973C13.7281 2.64074 14.0191 2.34973 14.3781 2.34973H15.1463C15.4505 2.34973 15.7452 2.39515 16.0234 2.48002Z" fill="#A4A4A4"/>
<path d="M10.4286 3.64973C10.0696 3.64973 9.77859 3.35871 9.77859 2.99973C9.77859 2.64074 10.0696 2.34973 10.4286 2.34973H11.843C12.202 2.34973 12.493 2.64074 12.493 2.99973C12.493 3.35871 12.202 3.64973 11.843 3.64973H10.4286Z" fill="#A4A4A4"/>
</svg>
