<svg width="24" height="24" viewBox="0 0 24 24" fill="none" xmlns="http://www.w3.org/2000/svg">
<path d="M6.4104 5.49019C6.15656 5.23634 5.745 5.23634 5.49116 5.49019C5.23732 5.74403 5.23732 6.15558 5.49116 6.40942L11.0818 12L5.59162 17.4902C5.33778 17.744 5.33778 18.1556 5.59163 18.4094C5.84547 18.6633 6.25702 18.6633 6.51086 18.4094L12.001 12.9193L17.4912 18.4094C17.745 18.6633 18.1566 18.6633 18.4104 18.4094C18.6642 18.1556 18.6642 17.744 18.4104 17.4902L12.9203 12L18.5109 6.40942C18.7647 6.15558 18.7647 5.74403 18.5109 5.49019C18.257 5.23634 17.8455 5.23634 17.5916 5.49019L12.001 11.0808L6.4104 5.49019Z" fill="#292929"/>
</svg>
