<svg width="23" height="24" viewBox="0 0 23 24" fill="none" xmlns="http://www.w3.org/2000/svg">
<path fill-rule="evenodd" clip-rule="evenodd" d="M2.875 7.2085C2.875 5.62068 4.16218 4.3335 5.75 4.3335H17.25C18.8378 4.3335 20.125 5.62068 20.125 7.2085V13.9189C20.125 15.5067 18.8378 16.7939 17.25 16.7939H13.4167V18.4209H14.7116C15.0556 18.4209 15.3345 18.6998 15.3345 19.0439C15.3345 19.3879 15.0556 19.6668 14.7116 19.6668H8.28844C7.9444 19.6668 7.6655 19.3879 7.6655 19.0439C7.6655 18.6998 7.9444 18.4209 8.28844 18.4209H9.58333V16.7939H5.75C4.16218 16.7939 2.875 15.5067 2.875 13.9189V7.2085ZM4.16565 14.3C4.33724 15.0159 4.98148 15.5481 5.75 15.5481H17.25C18.0185 15.5481 18.6628 15.0159 18.8343 14.3H4.16565Z" fill="#009639"/>
</svg>
