<svg width="24" height="24" viewBox="0 0 24 24" fill="none" xmlns="http://www.w3.org/2000/svg">
<path fill-rule="evenodd" clip-rule="evenodd" d="M12.65 2.66953C12.65 2.31055 12.359 2.01953 12 2.01953C11.641 2.01953 11.35 2.31055 11.35 2.66953V4.64966H4.32996C3.97098 4.64966 3.67996 4.94067 3.67996 5.29966C3.67996 5.65864 3.97098 5.94966 4.32996 5.94966H5.02259L5.77997 17.4396C5.87997 19.0196 7.18997 20.2496 8.76997 20.2496H15.13C16.71 20.2496 18.03 19.0196 18.12 17.4396L18.8958 5.94966H19.68C20.0389 5.94966 20.33 5.65864 20.33 5.29966C20.33 4.94067 20.0389 4.64966 19.68 4.64966H12.65V2.66953ZM10.8299 9.11973C10.8299 8.76074 10.5389 8.46973 10.1799 8.46973C9.82095 8.46973 9.52994 8.76074 9.52994 9.11973V15.4697C9.52994 15.8287 9.82095 16.1197 10.1799 16.1197C10.5389 16.1197 10.8299 15.8287 10.8299 15.4697V9.11973ZM13.8299 8.46973C14.1889 8.46973 14.4799 8.76074 14.4799 9.11973V15.4697C14.4799 15.8287 14.1889 16.1197 13.8299 16.1197C13.4709 16.1197 13.1799 15.8287 13.1799 15.4697V9.11973C13.1799 8.76074 13.4709 8.46973 13.8299 8.46973Z" fill="#868686"/>
</svg>
