<svg width="20" height="20" viewBox="0 0 20 20" fill="none" xmlns="http://www.w3.org/2000/svg">
<path d="M11.6745 4.70051C11.6745 5.91879 9.62245 6.90639 7.09115 6.90639C4.55984 6.90639 2.50781 5.91879 2.50781 4.70051C2.50781 3.48224 4.55984 2.49463 7.09115 2.49463C9.62245 2.49463 11.6745 3.48224 11.6745 4.70051Z" fill="#43B02A"/>
<path d="M17.4585 10.2699C17.4585 11.4882 15.4064 12.4758 12.8751 12.4758C10.3438 12.4758 8.2918 11.4882 8.2918 10.2699C8.2918 9.05162 10.3438 8.06401 12.8751 8.06401C15.4064 8.06401 17.4585 9.05162 17.4585 10.2699Z" fill="#43B02A"/>
<path d="M8.41426 12.7229C8.60249 12.4904 8.94357 12.4545 9.17608 12.6427C9.4128 12.8343 10.6489 13.7203 12.8714 13.7203C15.108 13.7203 16.2908 12.8978 16.5644 12.6571C16.7889 12.4594 17.1312 12.4813 17.3288 12.7059C17.5265 12.9304 17.5046 13.2727 17.28 13.4703C16.8184 13.8766 15.384 14.8037 12.8714 14.8037C10.3446 14.8037 8.87528 13.793 8.49445 13.4847C8.26193 13.2965 8.22603 12.9554 8.41426 12.7229Z" fill="#43B02A"/>
<path d="M9.17608 14.8506C8.94357 14.6624 8.60249 14.6983 8.41426 14.9308C8.22603 15.1633 8.26193 15.5044 8.49445 15.6926C8.86828 15.9952 10.3821 17.0627 12.9159 17.0627C15.4449 17.0627 16.832 16.0725 17.28 15.6782C17.5046 15.4806 17.5265 15.1383 17.3288 14.9138C17.1312 14.6892 16.7889 14.6673 16.5644 14.865C16.2772 15.1177 15.1361 15.9793 12.9159 15.9793C10.7005 15.9793 9.4198 15.0479 9.17608 14.8506Z" fill="#43B02A"/>
<path d="M3.3921 7.07334C3.15958 6.88511 2.8185 6.92102 2.63028 7.15353C2.44205 7.38605 2.47795 7.72713 2.71047 7.91536C3.09129 8.22365 4.5606 9.23431 7.08739 9.23431C7.38655 9.23431 7.62906 8.9918 7.62906 8.69264C7.62906 8.39349 7.38655 8.15098 7.08739 8.15098C4.86495 8.15098 3.62882 7.26497 3.3921 7.07334Z" fill="#43B02A"/>
<path d="M2.63028 9.36138C2.8185 9.12886 3.15958 9.09296 3.3921 9.28119C3.63582 9.47848 4.91649 10.4099 7.13192 10.4099C7.43107 10.4099 7.67359 10.6524 7.67359 10.9516C7.67359 11.2507 7.43107 11.4932 7.13192 11.4932C4.59811 11.4932 3.08429 10.4258 2.71047 10.1232C2.47795 9.93497 2.44205 9.59389 2.63028 9.36138Z" fill="#43B02A"/>
<path d="M3.3921 11.5651C3.15958 11.3768 2.8185 11.4127 2.63028 11.6453C2.44205 11.8778 2.47795 12.2189 2.71047 12.4071C3.08429 12.7097 4.59811 13.7771 7.13192 13.7771C7.43107 13.7771 7.67359 13.5346 7.67359 13.2355C7.67359 12.9363 7.43107 12.6938 7.13192 12.6938C4.91649 12.6938 3.63582 11.7624 3.3921 11.5651Z" fill="#43B02A"/>
</svg>
