<svg width="23" height="24" viewBox="0 0 23 24" fill="none" xmlns="http://www.w3.org/2000/svg">
<path d="M13.4059 2.44266C12.8228 2.34326 12.2276 2.53063 11.8066 2.94609L3.68763 10.9579C2.62051 12.0109 3.16551 13.8287 4.63597 14.1209L8.31739 14.8525C8.65181 14.919 8.87066 15.242 8.80842 15.5772L8.09681 19.4104C7.90966 20.4185 8.58381 21.3847 9.59456 21.557C10.1776 21.6564 10.7729 21.4691 11.1939 21.0536L19.3128 13.0418C20.38 11.9888 19.835 10.171 18.3645 9.87877L14.6831 9.14715C14.3487 9.08069 14.1298 8.75771 14.192 8.42248L14.9037 4.58929C15.0908 3.58119 14.4167 2.61497 13.4059 2.44266Z" fill="#009639"/>
</svg>
