<svg width="24" height="25" viewBox="0 0 24 25" fill="none" xmlns="http://www.w3.org/2000/svg">
<path fill-rule="evenodd" clip-rule="evenodd" d="M11.6243 3.6301C14.8969 3.43247 18.373 5.33997 18.8894 9.56727C18.9258 9.86495 18.9478 10.1418 18.9513 10.3911C18.9701 11.7374 18.5422 13.0996 17.93 14.3586C17.3157 15.622 16.4969 16.82 15.6877 17.8493C14.877 18.8804 14.0659 19.755 13.458 20.3714C13.1537 20.68 12.8993 20.925 12.7202 21.0935C12.6305 21.1778 12.5597 21.2431 12.5107 21.2878C12.4853 21.3109 12.4599 21.3339 12.4343 21.3567L12.4323 21.3585C12.1863 21.5764 11.8156 21.5758 11.5696 21.3579C11.5435 21.3347 11.5177 21.3113 11.4919 21.2878C11.4429 21.2431 11.372 21.1778 11.2824 21.0935C11.1032 20.925 10.8489 20.68 10.5446 20.3714C9.93672 19.755 9.1256 18.8804 8.31495 17.8493C7.50571 16.82 6.6869 15.622 6.07259 14.3585C5.46047 13.0996 5.03253 11.7374 5.05138 10.3911C5.11094 6.13761 8.35333 3.82764 11.6243 3.6301ZM7.85079 10.6002C7.85079 8.30818 9.70881 6.45016 12.0008 6.45016C14.2928 6.45016 16.1508 8.30818 16.1508 10.6002C16.1508 12.8921 14.2928 14.7502 12.0008 14.7502C9.70881 14.7502 7.85079 12.8921 7.85079 10.6002Z" fill="#A4A4A4"/>
</svg>
