<svg width="24" height="25" viewBox="0 0 24 25" fill="none" xmlns="http://www.w3.org/2000/svg">
<path fill-rule="evenodd" clip-rule="evenodd" d="M2.89552 17.9727C3.10786 17.9727 3.29705 17.8386 3.36733 17.6382L7.28062 6.4818C7.4194 6.08616 7.95422 6.02675 8.17643 6.3823L11.576 11.8216C11.7718 12.1349 12.2282 12.1349 12.424 11.8216L15.8236 6.3823C16.0458 6.02675 16.5806 6.08616 16.7194 6.4818L20.6327 17.6382C20.703 17.8386 20.8921 17.9727 21.1045 17.9727H21.5C21.7761 17.9727 22 18.1966 22 18.4727V19C22 19.2761 21.7761 19.5 21.5 19.5H16.25C15.9739 19.5 15.75 19.2761 15.75 19V18.2205C15.75 18.0837 15.8609 17.9727 15.9978 17.9727C16.1761 17.9727 16.296 17.7901 16.2252 17.6265L15.4782 15.9C15.3233 15.5421 14.8365 15.4914 14.6112 15.8098L12.4082 18.9232C12.2089 19.2048 11.7911 19.2048 11.5918 18.9232L9.38882 15.8098C9.16352 15.4914 8.67665 15.5421 8.52177 15.9L7.77478 17.6265C7.704 17.7901 7.82394 17.9727 8.0022 17.9727C8.13906 17.9727 8.25 18.0837 8.25 18.2205V19C8.25 19.2761 8.02614 19.5 7.75 19.5H2.5C2.22386 19.5 2 19.2761 2 19V18.4727C2 18.1966 2.22386 17.9727 2.5 17.9727H2.89552Z" fill="#A4A4A4"/>
</svg>
