<svg width="24" height="24" viewBox="0 0 24 24" fill="none" xmlns="http://www.w3.org/2000/svg">
<path fill-rule="evenodd" clip-rule="evenodd" d="M7.57519 0.375004L7.52885 0.375002C7.00613 0.374966 6.54089 0.374935 6.15938 0.416268C5.7491 0.460719 5.32606 0.561824 4.94246 0.840525C4.73553 0.990869 4.55355 1.17285 4.40321 1.37978C4.12451 1.76338 4.0234 2.18642 3.97895 2.5967C3.93762 2.9782 3.93765 3.44345 3.93769 3.96617L3.93769 4.0125V6.23437L2.91011 7.00506L2.78347 7.09996C1.96655 7.71179 1.36097 8.16535 0.969008 8.79561C0.840367 9.00246 0.731197 9.2208 0.642904 9.44783C0.373879 10.1396 0.374385 10.8962 0.375067 11.9168L0.375138 12.075V17.1001L0.375137 17.1527C0.375117 18.2329 0.3751 19.119 0.452211 19.8307C0.532471 20.5715 0.705195 21.2337 1.12713 21.8145C1.37 22.1487 1.66396 22.4427 1.99823 22.6856C2.57898 23.1075 3.24121 23.2802 3.98201 23.3605C4.69372 23.4376 5.57981 23.4376 6.65992 23.4376H6.65995H6.71264H17.2876H17.3403H17.3404C18.4205 23.4376 19.3066 23.4376 20.0183 23.3605C20.7591 23.2802 21.4213 23.1075 22.002 22.6856C22.3363 22.4427 22.6303 22.1487 22.8731 21.8145C23.2951 21.2337 23.4678 20.5715 23.5481 19.8307C23.6252 19.119 23.6252 18.2329 23.6251 17.1528V17.1527V17.1001V12.1318L23.6252 11.9702C23.6259 10.9292 23.6264 10.1575 23.3477 9.45481C23.2563 9.22429 23.1433 9.00292 23.0102 8.79365C22.6045 8.15577 21.9792 7.70359 21.1356 7.09359L21.1356 7.09358L21.0047 6.99885L20.0627 6.31672L20.0627 3.96615C20.0627 3.44344 20.0628 2.9782 20.0214 2.5967C19.977 2.18642 19.8759 1.76338 19.5972 1.37978C19.4468 1.17285 19.2648 0.99087 19.0579 0.840525C18.6743 0.561824 18.2513 0.460719 17.841 0.416268C17.4595 0.374935 16.9942 0.374966 16.4715 0.375002L7.57519 0.375004ZM20.0627 8.63187C20.059 9.14647 19.6407 9.5625 19.1252 9.5625C18.6074 9.5625 18.1877 9.14277 18.1877 8.625V4.0125C18.1877 3.42916 18.1864 3.06696 18.1573 2.79866C18.1305 2.5508 18.089 2.49387 18.0805 2.48226L18.0803 2.48188C18.0456 2.43412 18.0036 2.39213 17.9558 2.35743L17.9554 2.35715C17.9438 2.34869 17.8869 2.30721 17.639 2.28036C17.3707 2.25129 17.0085 2.25 16.4252 2.25H7.57519C6.99185 2.25 6.62964 2.25129 6.36135 2.28036C6.11349 2.30721 6.05656 2.34869 6.04495 2.35715L6.04456 2.35743C5.99681 2.39213 5.95481 2.43412 5.92012 2.48187L5.91983 2.48226C5.91137 2.49388 5.8699 2.55081 5.84304 2.79866C5.81397 3.06696 5.81269 3.42916 5.81269 4.0125V8.625C5.81269 9.14277 5.39295 9.5625 4.87519 9.5625C4.35742 9.5625 3.93769 9.14277 3.93769 8.625V8.5782C3.47162 8.92842 3.16995 9.16078 2.96279 9.34164L9.40427 13.5976C10.0465 14.0219 10.4797 14.3072 10.8381 14.5022C11.1821 14.6894 11.3977 14.7591 11.5879 14.7827C11.7452 14.8021 11.9043 14.8034 12.0619 14.7865C12.2524 14.766 12.4692 14.6997 12.8161 14.5181C13.1776 14.3289 13.6153 14.0505 14.2643 13.6366L20.9984 9.34066C20.7935 9.16869 20.5015 8.95071 20.0627 8.63187ZM2.25772 11.1231C2.25165 11.3699 2.25014 11.6785 2.25014 12.075V17.1001C2.25014 18.2459 2.25142 19.0299 2.3163 19.6287C2.37928 20.21 2.49303 20.5045 2.64404 20.7124C2.77125 20.8875 2.92524 21.0414 3.10033 21.1687C3.30818 21.3197 3.60271 21.4334 4.18397 21.4964C4.78279 21.5613 5.56683 21.5626 6.71264 21.5626H17.2876C18.4334 21.5626 19.2175 21.5613 19.8163 21.4964C20.3976 21.4334 20.6921 21.3197 20.8999 21.1687C21.075 21.0414 21.229 20.8875 21.3562 20.7124C21.5072 20.5045 21.621 20.21 21.684 19.6287C21.7488 19.0299 21.7501 18.2459 21.7501 17.1001V12.1318C21.7501 11.6893 21.7483 11.3541 21.7404 11.0913L15.2727 15.2173L15.2396 15.2384L15.2396 15.2384L15.2394 15.2385C14.632 15.626 14.1267 15.9484 13.6857 16.1792C13.2222 16.4219 12.7714 16.596 12.2625 16.6507C11.9615 16.6831 11.6579 16.6806 11.3575 16.6435C10.8495 16.5806 10.4015 16.3993 9.94197 16.1492C9.50467 15.9113 9.00457 15.5809 8.40336 15.1836L8.37066 15.162L2.25772 11.1231Z" fill="#009639"/>
<path d="M11.0537 8.74512V11.0156C11.0537 11.5171 11.4603 11.9238 11.9619 11.9238C12.4636 11.9238 12.8701 11.5173 12.8701 11.0156V8.74512H15.1406C15.6423 8.74512 16.0488 8.33855 16.0488 7.83691C16.0488 7.33527 15.6423 6.92871 15.1406 6.92871H12.8701V4.6582C12.8701 4.15656 12.4636 3.75 11.9619 3.75C11.4603 3.75 11.0537 4.15656 11.0537 4.6582V6.92871H8.7832C8.28156 6.92871 7.875 7.33527 7.875 7.83691C7.875 8.33855 8.28156 8.74512 8.7832 8.74512H11.0537Z" fill="#009639"/>
</svg>
