<svg width="23" height="24" viewBox="0 0 23 24" fill="none" xmlns="http://www.w3.org/2000/svg">
<path d="M21.0832 11.9998C21.0832 17.2841 16.7841 21.5832 11.4998 21.5832C6.21559 21.5832 1.9165 17.2841 1.9165 11.9998C1.9165 6.71559 6.21559 2.4165 11.4998 2.4165C16.7841 2.4165 21.0832 6.71559 21.0832 11.9998ZM19.1665 11.9998C19.1665 7.77263 15.727 4.33317 11.4998 4.33317C7.27263 4.33317 3.83317 7.77263 3.83317 11.9998C3.83317 16.227 7.27263 19.6665 11.4998 19.6665C15.727 19.6665 19.1665 16.227 19.1665 11.9998Z" fill="#686868"/>
<path d="M15.0526 9.80268L12.8551 12.0001L15.0526 14.1975C15.4273 14.5722 15.4273 15.178 15.0526 15.5527C14.8657 15.7396 14.6204 15.8334 14.375 15.8334C14.1297 15.8334 13.8844 15.7396 13.6975 15.5527L11.5 13.3551L9.30256 15.5527C9.11569 15.7396 8.87038 15.8334 8.62505 15.8334C8.37971 15.8334 8.13441 15.7396 7.94754 15.5527C7.57283 15.178 7.57283 14.5722 7.94754 14.1975L10.145 12.0001L7.94754 9.80268C7.57283 9.42797 7.57283 8.82224 7.94754 8.44754C8.32224 8.07283 8.92785 8.07283 9.30256 8.44754L11.5 10.6451L13.6975 8.44754C14.0722 8.07283 14.6779 8.07283 15.0526 8.44754C15.4273 8.82224 15.4273 9.42797 15.0526 9.80268Z" fill="#686868"/>
</svg>
