<svg width="10" height="10" viewBox="0 0 10 10" fill="none" xmlns="http://www.w3.org/2000/svg">
<path fill-rule="evenodd" clip-rule="evenodd" d="M7.82783 9.24262C8.21835 9.63315 8.85152 9.63315 9.24204 9.24262C9.63257 8.8521 9.63257 8.21893 9.24204 7.82841L6.41363 4.99999L9.24204 2.17158C9.63257 1.78105 9.63257 1.14789 9.24204 0.757363C8.85152 0.366839 8.21835 0.366839 7.82783 0.757363L4.99941 3.58578L2.17097 0.75734C1.78045 0.366816 1.14729 0.366816 0.756761 0.75734C0.366237 1.14786 0.366237 1.78103 0.756761 2.17155L3.5852 4.99999L0.756761 7.82843C0.366236 8.21896 0.366236 8.85212 0.756761 9.24265C1.14728 9.63317 1.78045 9.63317 2.17097 9.24265L4.99941 6.41421L7.82783 9.24262Z" fill="#EB5757"/>
</svg>
