<svg width="24" height="24" viewBox="0 0 24 24" fill="none" xmlns="http://www.w3.org/2000/svg">
<path fill-rule="evenodd" clip-rule="evenodd" d="M0.65625 2.8125C0.65625 1.51808 1.70558 0.46875 3 0.46875H3.9375C4.50704 0.46875 4.96875 0.930456 4.96875 1.5V2.625C4.96875 3.09099 4.59099 3.46875 4.125 3.46875C3.65901 3.46875 3.28125 3.09099 3.28125 2.625V2.15625H3C2.63756 2.15625 2.34375 2.45006 2.34375 2.8125V3.98086C2.34375 5.03121 2.37727 6.06625 2.49302 7.06107C2.5041 7.09672 2.51294 7.13352 2.51936 7.17133L2.51937 7.17141L2.5195 7.17216L2.52015 7.17596L2.52298 7.19236C2.52554 7.2071 2.52943 7.22928 2.53456 7.25802C2.54482 7.31552 2.56003 7.39914 2.57951 7.50181C2.61856 7.70766 2.67432 7.98765 2.74137 8.28619C2.80879 8.5864 2.88561 8.89621 2.96608 9.16454C3.05194 9.45085 3.12389 9.62707 3.16644 9.70008C3.38568 10.0762 3.9525 10.3819 4.74183 10.5737C5.47805 10.7527 6.17779 10.7777 6.34487 10.7808C6.36066 10.7811 6.37282 10.781 6.38821 10.7804C6.54922 10.7741 7.21032 10.737 7.906 10.5539C8.6512 10.3577 9.18695 10.0581 9.39641 9.69948C9.44384 9.61826 9.51635 9.44522 9.601 9.1799C9.6811 8.92882 9.75754 8.64226 9.82465 8.36586C9.89139 8.09098 9.94688 7.83463 9.98573 7.64659C10.0051 7.55282 10.0202 7.47664 10.0304 7.42436C10.0355 7.39824 10.0393 7.37812 10.0419 7.36481L10.0447 7.35005L10.0453 7.34669L10.0454 7.34612L10.0454 7.34605L10.0454 7.34603C10.0517 7.3121 10.06 7.27903 10.07 7.2469C10.1856 6.27052 10.2188 5.25426 10.2188 4.22105V2.8125C10.2188 2.45006 9.92494 2.15625 9.5625 2.15625H9.46875V2.625C9.46875 3.09099 9.09099 3.46875 8.625 3.46875C8.15901 3.46875 7.78125 3.09099 7.78125 2.625V1.5C7.78125 0.930456 8.24296 0.46875 8.8125 0.46875H9.5625C10.8569 0.46875 11.9062 1.51808 11.9062 2.8125V4.22105C11.9062 6.90578 11.7044 9.88659 10.1468 12.3708C9.73431 13.0287 9.22843 13.685 8.6239 14.1878C8.21734 14.5259 7.74736 14.8095 7.21875 14.9652V18.0946C7.21875 20.2174 8.93966 21.9384 11.0625 21.9384C13.1853 21.9384 14.9062 20.2174 14.9062 18.0946V17.3908V14.6952C14.9062 14.2292 15.284 13.8514 15.75 13.8514C16.216 13.8514 16.5938 14.2292 16.5938 14.6952V17.3908V18.0946C16.5938 21.1494 14.1173 23.6259 11.0625 23.6259C8.00768 23.6259 5.53125 21.1494 5.53125 18.0946V14.9902C4.25761 14.6549 3.28263 13.5658 2.61328 12.5726C0.876822 9.99613 0.65625 6.82069 0.65625 3.98086V2.8125ZM6.35887 13.4064C5.74923 13.4181 5.10517 13.0091 4.46926 12.243C5.3301 12.4374 6.10422 12.4641 6.31283 12.468C6.36082 12.4689 6.40559 12.4685 6.45395 12.4666C6.65521 12.4588 7.37904 12.4191 8.18867 12.2229C7.98162 12.4802 7.76632 12.7061 7.54484 12.8904C7.13082 13.2347 6.73798 13.3992 6.35887 13.4064Z" fill="#292929"/>
<path fill-rule="evenodd" clip-rule="evenodd" d="M18.1875 0.373047C16.3753 0.373047 14.9062 1.84212 14.9062 3.6543V6.60809V9.30374C14.9062 9.76973 15.284 10.1475 15.75 10.1475C16.216 10.1475 16.5938 9.76973 16.5938 9.30374V6.60809V3.6543C16.5938 2.77409 17.3073 2.06055 18.1875 2.06055C19.0677 2.06055 19.7812 2.77409 19.7812 3.6543V9.78049C18.5877 10.142 17.7188 11.2507 17.7188 12.5624C17.7188 14.1674 19.0199 15.4686 20.625 15.4686C22.2301 15.4686 23.5312 14.1674 23.5312 12.5624C23.5312 11.2507 22.6623 10.142 21.4688 9.78049V3.6543C21.4688 1.84211 19.9997 0.373047 18.1875 0.373047ZM20.625 11.3436C19.9519 11.3436 19.4062 11.8893 19.4062 12.5624C19.4062 13.2355 19.9519 13.7811 20.625 13.7811C21.2981 13.7811 21.8438 13.2355 21.8438 12.5624C21.8438 11.8893 21.2981 11.3436 20.625 11.3436Z" fill="#292929"/>
</svg>
