<svg width="10" height="17" viewBox="0 0 10 17" fill="none" xmlns="http://www.w3.org/2000/svg">
<path d="M9.28179 0.00353713L7.0862 0C4.61953 0 3.02546 1.64211 3.02546 4.18372V6.1127H0.817892C0.627131 6.1127 0.472656 6.26798 0.472656 6.45952V9.25438C0.472656 9.44592 0.627308 9.60102 0.817892 9.60102H3.02546V16.6534C3.02546 16.8449 3.17994 17 3.3707 17H6.25095C6.44171 17 6.59618 16.8447 6.59618 16.6534V9.60102H9.17734C9.3681 9.60102 9.52258 9.44592 9.52258 9.25438L9.52364 6.45952C9.52364 6.36755 9.48717 6.27948 9.42253 6.21439C9.35789 6.14931 9.26982 6.1127 9.17822 6.1127H6.59618V4.47748C6.59618 3.69153 6.78271 3.29254 7.80239 3.29254L9.28144 3.29201C9.47203 3.29201 9.6265 3.13673 9.6265 2.94537V0.350176C9.6265 0.158994 9.4722 0.00389085 9.28179 0.00353713Z" fill="#C9CACA"/>
</svg>
