<svg width="32" height="32" viewBox="0 0 32 32" fill="none" xmlns="http://www.w3.org/2000/svg">
<path fill-rule="evenodd" clip-rule="evenodd" d="M6.88284 28.0008H25.1176C28.1867 28.0008 30.1124 24.6873 28.5931 22.0207L19.4757 6.01792C17.9413 3.32476 14.0591 3.32475 12.5247 6.01792L3.40735 22.0207C1.88808 24.6873 3.81382 28.0008 6.88284 28.0008ZM16.8667 18.8375C16.8667 19.3162 16.4786 19.7042 16 19.7042C15.5214 19.7042 15.1333 19.3162 15.1333 18.8375V11.9759C15.1333 11.4973 15.5214 11.1092 16 11.1092C16.4786 11.1092 16.8667 11.4973 16.8667 11.9759V18.8375ZM17 22.5092C17 23.0615 16.5523 23.5092 16 23.5092C15.4477 23.5092 15 23.0615 15 22.5092C15 21.9569 15.4477 21.5092 16 21.5092C16.5523 21.5092 17 21.9569 17 22.5092Z" fill="#EB5757"/>
</svg>
