<svg width="20" height="20" viewBox="0 0 20 20" fill="none" xmlns="http://www.w3.org/2000/svg">
<path fill-rule="evenodd" clip-rule="evenodd" d="M7.76702 1.75678C9.11997 1.50897 10.5167 1.78421 11.6739 2.52672C12.6147 3.13031 13.3401 4.00596 13.7595 5.02798C14.2035 4.99204 14.6515 5.01539 15.0915 5.09834C15.7857 5.2292 16.4442 5.50541 17.0238 5.90878C17.6034 6.31214 18.0909 6.83353 18.4541 7.43861C18.8174 8.0437 19.0483 8.71876 19.1315 9.41937C19.2147 10.12 19.1484 10.8303 18.937 11.5034C18.7256 12.1766 18.3738 12.7974 17.9048 13.325C17.4358 13.8527 16.8602 14.2751 16.216 14.5645C15.5718 14.854 14.8734 15.0039 14.167 15.0043C13.7065 15.0047 13.333 14.6321 13.3327 14.1722C13.3324 13.7123 13.7054 13.3392 14.1659 13.3389C14.6368 13.3386 15.1024 13.2386 15.5319 13.0457C15.9614 12.8527 16.3451 12.5711 16.6577 12.2194C16.9704 11.8676 17.2049 11.4537 17.3459 11.005C17.4868 10.5562 17.531 10.0827 17.4755 9.61558C17.4201 9.14851 17.2662 8.69846 17.024 8.29507C16.7818 7.89169 16.4568 7.5441 16.0704 7.27518C15.684 7.00627 15.245 6.82213 14.7822 6.73489C14.3233 6.64839 13.8514 6.6591 13.397 6.76627L12.301 7.06423C11.8566 7.18501 11.3984 6.92319 11.2775 6.47943C11.1565 6.03567 11.4187 5.57802 11.863 5.45724L12.0952 5.39412C11.7956 4.80054 11.3409 4.29254 10.7726 3.92794C9.97143 3.4139 9.0045 3.22334 8.06784 3.39491C7.13118 3.56648 6.29488 4.08732 5.72848 4.85187C5.16735 5.60929 4.9127 6.54974 5.01462 7.48577C5.01767 7.50166 5.02244 7.52574 5.02893 7.55623C5.04246 7.61981 5.0629 7.70866 5.09003 7.80774C5.14988 8.02639 5.22157 8.21645 5.28463 8.31706C5.52897 8.70688 5.41063 9.22071 5.02031 9.46474C4.62999 9.70877 4.1155 9.59058 3.87116 9.20076C3.7801 9.05547 3.70498 8.89544 3.64367 8.74039C3.36814 8.91848 3.1281 9.15041 2.93944 9.42513C2.59443 9.92752 2.44498 10.5384 2.51918 11.1431C2.59337 11.7478 2.8861 12.3046 3.34236 12.7089C3.79835 13.113 4.38631 13.337 4.99589 13.3389H5.82858C6.28907 13.3389 6.66237 13.7117 6.66237 14.1716C6.66237 14.6315 6.28907 15.0043 5.82858 15.0043H4.99479L4.99258 15.0043C3.97623 15.0017 2.99583 14.6284 2.23559 13.9547C1.47536 13.281 0.987606 12.3532 0.863984 11.3457C0.740361 10.3382 0.989375 9.32023 1.56424 8.48314C2.00643 7.83924 2.618 7.33643 3.32532 7.02591C3.3368 5.89134 3.70541 4.78257 4.38794 3.86128C5.20608 2.75694 6.41407 2.0046 7.76702 1.75678ZM9.99752 10.008C10.458 10.008 10.8313 10.3808 10.8313 10.8407V16.6027L11.5611 16.0195C11.9207 15.7322 12.4454 15.7905 12.7331 16.1496C13.0207 16.5087 12.9624 17.0327 12.6028 17.32L10.5184 18.9855C10.2139 19.2288 9.78117 19.2288 9.47665 18.9855L7.39218 17.32C7.0326 17.0327 6.9743 16.5087 7.26197 16.1496C7.54963 15.7905 8.07433 15.7322 8.43391 16.0195L9.16373 16.6027V10.8407C9.16373 10.3808 9.53703 10.008 9.99752 10.008Z" fill="#292929"/>
</svg>
