<svg width="24" height="24" viewBox="0 0 24 24" fill="none" xmlns="http://www.w3.org/2000/svg">
<path d="M9.81555 2.07362L9.91101 2.04748L9.94814 1.95573C10.106 1.56567 10.3767 1.23163 10.7256 0.996415C11.0745 0.761205 11.4856 0.635547 11.9064 0.635547C12.3272 0.635547 12.7384 0.761205 13.0873 0.996415C13.4362 1.23163 13.7069 1.56567 13.8647 1.95573L13.9018 2.04735L13.9971 2.07356C15.6647 2.53217 17.1356 3.52552 18.1839 4.90106C19.2323 6.27659 19.8001 7.95824 19.8002 9.68773V15.1186V15.1792L19.8338 15.2296L21.952 18.4069L21.9521 18.407C22.0481 18.551 22.1033 18.7184 22.1117 18.8913C22.1201 19.0642 22.0814 19.2362 21.9997 19.3888C21.9181 19.5415 21.7965 19.6691 21.648 19.7581C21.4995 19.847 21.3296 19.894 21.1565 19.894H15.9128H15.7397L15.7149 20.0654C15.5825 20.981 15.1247 21.8184 14.4253 22.424C13.7258 23.0296 12.8316 23.363 11.9064 23.363C10.9812 23.363 10.087 23.0296 9.38756 22.424C8.68812 21.8184 8.2303 20.981 8.09796 20.0654L8.07319 19.894H7.90002H2.65642C2.48327 19.894 2.31339 19.847 2.16487 19.7581C2.01635 19.6691 1.89477 19.5415 1.8131 19.3888C1.73143 19.2362 1.69273 19.0642 1.70113 18.8913C1.70953 18.7184 1.76471 18.551 1.86079 18.407L1.86083 18.4069L3.97908 15.2296L4.01267 15.1792V15.1186V9.68772C4.01267 6.05234 6.47084 2.9893 9.81555 2.07362ZM10.2703 20.094V20.0944L10.0829 20.1605C10.2161 20.5379 10.463 20.8647 10.7897 21.0959C11.1164 21.327 11.5068 21.4512 11.907 21.4512C12.3072 21.4512 12.6976 21.327 13.0243 21.0959C13.351 20.8647 13.5979 20.5379 13.7311 20.1605L13.8252 19.894H13.5425H10.413H10.2715H10.2703V20.094ZM5.92517 15.469V15.469C5.92522 15.6579 5.86931 15.8426 5.76452 15.9997L5.7645 15.9998L4.65103 17.6706L4.44382 17.9815H4.81745H18.9942H19.3679L19.1607 17.6706L18.0474 16C18.0473 16 18.0473 15.9999 18.0472 15.9998C17.9429 15.8426 17.8873 15.658 17.8877 15.4693V15.469V9.68772C17.8877 8.10139 17.2575 6.58004 16.1358 5.45834C15.0141 4.33663 13.4928 3.70647 11.9064 3.70647C10.3201 3.70647 8.79874 4.33663 7.67704 5.45834C6.55534 6.58004 5.92517 8.10139 5.92517 9.68772V15.469Z" fill="#69C055" stroke="white" stroke-width="0.4"/>
</svg>
