<svg width="16" height="21" viewBox="0 0 16 21" fill="none" xmlns="http://www.w3.org/2000/svg">
<path d="M15 18.6672V19.6678C15 19.7559 14.9636 19.8404 14.8989 19.9027C14.8342 19.965 14.7464 20 14.6549 20C14.5633 20 14.4755 19.965 14.4108 19.9027C14.3461 19.8404 14.3097 19.7559 14.3097 19.6678V18.6672C14.3099 18.3035 14.2356 17.9434 14.0911 17.6074C13.9466 17.2713 13.7347 16.966 13.4675 16.7089C13.2003 16.4517 12.8831 16.2478 12.5339 16.1087C12.1848 15.9696 11.8106 15.8981 11.4327 15.8983C11.0657 15.8998 10.7045 15.8096 10.3845 15.6367C10.0644 15.4637 9.7965 15.2138 9.60679 14.9114C9.55913 14.8361 9.54449 14.7457 9.56611 14.66C9.58773 14.5743 9.64383 14.5004 9.72207 14.4545C9.80032 14.4087 9.89429 14.3946 9.98332 14.4154C10.0723 14.4362 10.1491 14.4902 10.1968 14.5655C10.325 14.7703 10.5063 14.9395 10.723 15.0564C10.9397 15.1734 11.1843 15.2341 11.4327 15.2326C11.9013 15.2324 12.3654 15.3211 12.7984 15.4937C13.2314 15.6662 13.6248 15.9192 13.9561 16.2382C14.2874 16.5572 14.5501 16.9359 14.7292 17.3527C14.9084 17.7695 15.0004 18.2162 15 18.6672ZM8.96809 15.3318C8.97776 15.3745 8.97858 15.4187 8.9705 15.4617C8.96241 15.5047 8.94558 15.5458 8.92096 15.5825C8.89635 15.6193 8.86444 15.651 8.82706 15.6758C8.78968 15.7007 8.74757 15.7182 8.70315 15.7274C8.26193 15.8204 7.80558 15.8255 7.36224 15.7423C6.91889 15.6591 6.49796 15.4894 6.12541 15.2436C5.92707 15.4522 5.68532 15.6183 5.41589 15.7311C5.14646 15.8439 4.85538 15.9009 4.56158 15.8983C3.79966 15.8997 3.06949 16.1921 2.53141 16.7113C1.99332 17.2305 1.69131 17.9339 1.69169 18.6672V19.6678C1.68604 19.7524 1.64714 19.8317 1.5829 19.8897C1.51866 19.9477 1.43391 19.9799 1.34585 19.9799C1.25779 19.9799 1.17303 19.9477 1.10879 19.8897C1.04456 19.8317 1.00566 19.7524 1 19.6678V18.6672C1 18.2164 1.09228 17.77 1.27157 17.3536C1.45086 16.9371 1.71365 16.5587 2.04493 16.24C2.3762 15.9213 2.76947 15.6685 3.20227 15.4962C3.63506 15.3238 4.09891 15.2351 4.56731 15.2353C4.75705 15.2357 4.945 15.2 5.12039 15.1303C5.29578 15.0607 5.45515 14.9584 5.58939 14.8293C5.72362 14.7002 5.83007 14.5469 5.90264 14.3782C5.97521 14.2095 6.01246 14.0286 6.01228 13.846V13.7592C5.2493 13.4085 4.60065 12.8634 4.13665 12.1831C3.67266 11.5028 3.41102 10.7133 3.38011 9.90004C3.07229 9.8298 2.79797 9.66191 2.60132 9.4234C2.40468 9.18489 2.29714 8.88964 2.29603 8.58517V6.86646C2.27741 6.02158 2.40773 3.90732 4.01453 2.42154C5.99366 0.585686 9.17001 0.70284 11.4986 1.7834C11.5495 1.80804 11.5934 1.84436 11.6264 1.88916C11.6594 1.93397 11.6804 1.98588 11.6876 2.04034C11.6948 2.0948 11.688 2.15013 11.6678 2.20146C11.6476 2.25279 11.6145 2.29855 11.5716 2.33471C12.7546 2.60969 13.7789 3.31902 14.4257 4.31115C14.4864 4.38532 14.5151 4.47906 14.5059 4.57302C14.4998 4.65232 14.4648 4.72699 14.4071 4.7839C13.9864 5.19156 13.751 5.74331 13.7527 6.31791V8.59068C13.7527 8.6343 13.7437 8.67749 13.7264 8.71779C13.709 8.75809 13.6836 8.79471 13.6516 8.82555C13.6195 8.8564 13.5815 8.88086 13.5396 8.89756C13.4977 8.91425 13.4529 8.92284 13.4075 8.92284C13.3622 8.92284 13.3173 8.91425 13.2755 8.89756C13.2336 8.88086 13.1955 8.8564 13.1635 8.82555C13.1314 8.79471 13.106 8.75809 13.0887 8.71779C13.0713 8.67749 13.0624 8.6343 13.0624 8.59068V6.32067C13.0603 5.66096 13.2979 5.0213 13.734 4.51238C13.4053 4.06052 12.9793 3.68202 12.4851 3.40259C11.9909 3.12316 11.4401 2.94933 10.8699 2.89291L10.2541 2.83089C10.1776 2.82293 10.1061 2.7907 10.0507 2.7393C9.99537 2.68789 9.95936 2.62022 9.94836 2.54695C9.93737 2.47368 9.95202 2.39897 9.99 2.33459C10.028 2.27022 10.0871 2.21983 10.1581 2.19137L10.4345 2.08249C6.83572 0.875123 2.98773 2.22031 2.98773 6.86233V8.59068C2.98837 8.71666 3.0249 8.84007 3.09332 8.94747C3.16174 9.05488 3.25945 9.14217 3.37582 9.19987V7.04288C3.37658 6.42534 3.63181 5.83331 4.08552 5.39664C4.53923 4.95997 5.15438 4.71433 5.79603 4.71361H10.204C10.8464 4.71324 11.4626 4.9584 11.9173 5.39518C12.3719 5.83196 12.6277 6.42463 12.6285 7.04288V9.76634C12.623 10.4554 12.4516 11.1338 12.1278 11.7483C11.8039 12.3628 11.3365 12.8968 10.7621 13.3081C10.1878 13.7195 9.52212 13.997 8.81749 14.1191C8.11287 14.2411 7.38844 14.2043 6.7011 14.0114C6.68149 14.2463 6.61996 14.4761 6.51923 14.6909C6.81424 14.886 7.14756 15.021 7.49874 15.0876C7.84991 15.1542 8.21152 15.151 8.56137 15.0782C8.60566 15.0689 8.65143 15.068 8.69606 15.0757C8.74069 15.0834 8.7833 15.0995 8.82147 15.123C8.85964 15.1466 8.89261 15.1772 8.91851 15.213C8.9444 15.2488 8.96271 15.2892 8.97238 15.3318H8.96809ZM8 13.5263C9.04261 13.5252 10.0422 13.1261 10.7794 12.4165C11.5167 11.707 11.9314 10.745 11.9325 9.74153V7.04288C11.9321 6.60179 11.7499 6.17886 11.4258 5.86696C11.1017 5.55506 10.6623 5.37967 10.204 5.37931H5.79603C5.33772 5.37967 4.89828 5.55506 4.5742 5.86696C4.25012 6.17886 4.06789 6.60179 4.06751 7.04288V9.74153C4.06865 10.745 4.48333 11.707 5.22057 12.4165C5.95781 13.1261 6.95739 13.5252 8 13.5263ZM14.5 19.2599H1.46317C1.3753 19.2653 1.29287 19.3028 1.23264 19.3646C1.1724 19.4264 1.13888 19.508 1.13888 19.5927C1.13888 19.6775 1.1724 19.759 1.23264 19.8209C1.29287 19.8827 1.3753 19.9201 1.46317 19.9256H14.5C14.5473 19.9285 14.5947 19.9221 14.6393 19.9067C14.6839 19.8913 14.7248 19.8672 14.7593 19.836C14.7939 19.8048 14.8214 19.7671 14.8403 19.7253C14.8591 19.6834 14.8688 19.6383 14.8688 19.5927C14.8688 19.5471 14.8591 19.502 14.8403 19.4601C14.8214 19.4183 14.7939 19.3806 14.7593 19.3494C14.7248 19.3182 14.6839 19.2942 14.6393 19.2788C14.5947 19.2634 14.5473 19.2569 14.5 19.2599Z" fill="#363D44" stroke="#363D44" stroke-width="0.6"/>
</svg>
