<svg width="40" height="40" viewBox="0 0 40 40" fill="none" xmlns="http://www.w3.org/2000/svg">
<path fill-rule="evenodd" clip-rule="evenodd" d="M20 33.1875C16.5025 33.1875 13.1482 31.7981 10.675 29.325C8.20189 26.8518 6.8125 23.4975 6.8125 20C6.8125 16.5025 8.20189 13.1482 10.675 10.675C13.1482 8.20189 16.5025 6.8125 20 6.8125C23.4975 6.8125 26.8518 8.20189 29.325 10.675C31.7981 13.1482 33.1875 16.5025 33.1875 20C33.1875 23.4975 31.7981 26.8518 29.325 29.325C26.8518 31.7981 23.4975 33.1875 20 33.1875ZM20 36.5C24.3761 36.5 28.5729 34.7616 31.6673 31.6673C34.7616 28.5729 36.5 24.3761 36.5 20C36.5 15.6239 34.7616 11.4271 31.6673 8.33274C28.5729 5.23839 24.3761 3.5 20 3.5C15.6239 3.5 11.4271 5.23839 8.33274 8.33274C5.23839 11.4271 3.5 15.6239 3.5 20C3.5 24.3761 5.23839 28.5729 8.33274 31.6673C11.4271 34.7616 15.6239 36.5 20 36.5ZM29.7964 10.2036C29.837 10.2442 29.8773 10.285 29.9173 10.3261C29.8773 10.2851 29.837 10.2442 29.7964 10.2037C29.7964 10.2037 29.7964 10.2036 29.7964 10.2036ZM30.7167 11.2198C32.7366 13.6851 33.8542 16.7849 33.8542 20C33.8542 23.6744 32.3945 27.1982 29.7964 29.7964C27.1982 32.3945 23.6744 33.8542 20 33.8542C17.6748 33.8542 15.4099 33.2697 13.4017 32.182C15.4099 33.2697 17.6748 33.8542 20 33.8542C23.6744 33.8542 27.1983 32.3946 29.7964 29.7964C32.3946 27.1983 33.8542 23.6744 33.8542 20C33.8542 16.785 32.7367 13.6851 30.7167 11.2198ZM27.5411 6.07785C25.246 4.83476 22.6575 4.16671 20 4.16671C15.8008 4.16671 11.7735 5.83486 8.80418 8.80418C5.83486 11.7735 4.16671 15.8008 4.16671 20C4.16671 23.1495 5.10502 26.2022 6.82685 28.7843C5.105 26.2021 4.16667 23.1494 4.16667 20C4.16667 15.8007 5.83482 11.7735 8.80414 8.80414C11.7735 5.83482 15.8007 4.16667 20 4.16667C22.6574 4.16667 25.246 4.83473 27.5411 6.07785Z" fill="#292929"/>
<path d="M17.5 27.5016C17.5 27.1735 17.5647 26.8486 17.6903 26.5454C17.8159 26.2423 18.0001 25.9669 18.2322 25.7349C18.4644 25.5029 18.74 25.3189 19.0433 25.1933C19.3466 25.0677 19.6717 25.0031 20 25.0031C20.3283 25.0031 20.6534 25.0677 20.9567 25.1933C21.26 25.3189 21.5356 25.5029 21.7678 25.7349C21.9999 25.9669 22.1841 26.2423 22.3097 26.5454C22.4353 26.8486 22.5 27.1735 22.5 27.5016C22.5 28.1642 22.2366 28.7997 21.7678 29.2682C21.2989 29.7368 20.663 30 20 30C19.337 30 18.7011 29.7368 18.2322 29.2682C17.7634 28.7997 17.5 28.1642 17.5 27.5016ZM17.745 12.4984C17.7117 12.1832 17.7451 11.8646 17.843 11.5631C17.9409 11.2616 18.1011 10.9841 18.3133 10.7485C18.5255 10.5129 18.7848 10.3245 19.0745 10.1956C19.3642 10.0666 19.6779 10 19.995 10C20.3122 10 20.6258 10.0666 20.9155 10.1956C21.2052 10.3245 21.4645 10.5129 21.6767 10.7485C21.8889 10.9841 22.0491 11.2616 22.147 11.5631C22.2449 11.8646 22.2783 12.1832 22.245 12.4984L21.37 21.2605C21.3406 21.6047 21.183 21.9253 20.9284 22.159C20.6738 22.3927 20.3407 22.5223 19.995 22.5223C19.6493 22.5223 19.3162 22.3927 19.0616 22.159C18.807 21.9253 18.6494 21.6047 18.62 21.2605L17.745 12.4984Z" fill="#292929"/>
</svg>
