<svg width="40" height="40" viewBox="0 0 40 40" fill="none" xmlns="http://www.w3.org/2000/svg">
<rect width="40.0002" height="39.9992" rx="19.9996" fill="#43B02A"/>
<path d="M13.0273 16.4492C12.0809 16.6995 11.2541 17.3045 10.7021 18.1505C10.1501 18.9964 9.91104 20.0251 10.0297 21.0433C10.1484 22.0615 10.6168 22.9991 11.3467 23.6799C12.0767 24.3608 13.018 24.738 13.9939 24.7407H14.9945M19.9975 29.9998V20.5334V29.9998ZM19.9975 29.9998L17.496 27.8961L19.9975 29.9998ZM19.9975 29.9998L22.499 27.8961L19.9975 29.9998Z" stroke="white" stroke-width="2" stroke-linecap="round" stroke-linejoin="round"/>
<path d="M23.8314 14.3686C23.4894 12.945 22.6453 11.7114 21.4701 10.9178C20.2949 10.1242 18.8767 9.83006 17.5028 10.0949C16.1289 10.3598 14.9023 11.1639 14.0715 12.3442C13.2407 13.5245 12.868 14.9927 13.0288 16.4511C13.0288 16.4511 13.1819 17.3788 13.4951 17.9048" stroke="white" stroke-width="2" stroke-linecap="round" stroke-linejoin="round"/>
<path d="M25.0015 24.7408C25.708 24.7403 26.4064 24.5825 27.0506 24.2779C27.6949 23.9732 28.2705 23.5286 28.7395 22.9732C29.2086 22.4179 29.5604 21.7644 29.7718 21.0558C29.9833 20.3472 30.0496 19.5996 29.9663 18.8622C29.8831 18.1247 29.6522 17.4141 29.2889 16.7772C28.9256 16.1403 28.4381 15.5915 27.8585 15.167C27.2789 14.7424 26.6203 14.4517 25.9261 14.3139C25.2319 14.1762 24.5178 14.1945 23.8308 14.3678L22.5 14.7486" stroke="white" stroke-width="2" stroke-linecap="round" stroke-linejoin="round"/>
</svg>
