<svg width="24" height="24" viewBox="0 0 24 24" fill="none" xmlns="http://www.w3.org/2000/svg">
<path d="M6.02517 15.4687V15.4687V9.68747C6.02517 8.12767 6.6448 6.63175 7.74775 5.5288C8.8507 4.42585 10.3466 3.80622 11.9064 3.80622C13.4662 3.80622 14.9621 4.42585 16.0651 5.5288C17.168 6.63175 17.7877 8.12767 17.7877 9.68747V15.4687V15.4689C17.7873 15.6774 17.8487 15.8813 17.964 16.055L6.02517 15.4687ZM6.02517 15.4687C6.02522 15.6774 5.96347 15.8814 5.84772 16.055L5.84771 16.055L4.73424 17.7258L4.63064 17.8812H4.81745H18.9942H19.181L19.0774 17.7258L17.9641 16.0551L6.02517 15.4687ZM9.78914 1.97692L9.83687 1.96386L9.85544 1.91798C10.0207 1.50945 10.3042 1.1596 10.6697 0.913254C11.0351 0.666909 11.4657 0.535303 11.9064 0.535303C12.3471 0.535303 12.7778 0.666909 13.1432 0.913254C13.5086 1.1596 13.7921 1.50945 13.9574 1.91798L13.9759 1.96379L14.0236 1.97689C15.7123 2.44131 17.2018 3.44725 18.2635 4.8402C19.3251 6.23315 19.9001 7.93609 19.9002 9.68748V15.1184V15.1487L19.917 15.1739L22.0352 18.3512L22.0352 18.3513C22.1414 18.5103 22.2023 18.6952 22.2116 18.8862C22.2209 19.0772 22.1781 19.2672 22.0879 19.4358C21.9977 19.6044 21.8634 19.7453 21.6994 19.8436C21.5353 19.9419 21.3477 19.9938 21.1564 19.9937H15.9128H15.8262L15.8139 20.0794C15.6781 21.0189 15.2084 21.878 14.4907 22.4994C13.7731 23.1207 12.8557 23.4627 11.9064 23.4627C10.9572 23.4627 10.0397 23.1207 9.3221 22.4994C8.60449 21.878 8.13477 21.0189 7.99899 20.0794L7.9866 19.9937H7.90002H2.65642C2.46518 19.9938 2.27753 19.9419 2.11349 19.8436C1.94944 19.7453 1.81514 19.6044 1.72493 19.4358C1.63471 19.2672 1.59197 19.0772 1.60124 18.8862C1.61052 18.6952 1.67148 18.5103 1.77761 18.3513L1.77763 18.3512L3.89588 15.1739L3.91267 15.1487V15.1184V9.68747C3.91267 6.00591 6.40207 2.9042 9.78914 1.97692ZM10.2703 20.0937V20.0941L10.1772 20.127C10.3035 20.4849 10.5377 20.7948 10.8475 21.014C11.1573 21.2332 11.5275 21.3509 11.907 21.3509C12.2865 21.3509 12.6567 21.2332 12.9665 21.014C13.2763 20.7948 13.5105 20.4849 13.6368 20.127L13.6839 19.9937H13.5425H10.3422H10.2715H10.2703V20.0937Z" fill="#C3C3C3" stroke="white" stroke-width="0.2"/>
</svg>
