<svg width="24" height="24" viewBox="0 0 24 24" fill="none" xmlns="http://www.w3.org/2000/svg">
<path d="M21.4385 9.98706C20.0968 7.75106 17.0857 4 11.9971 4C6.90947 4 3.8983 7.75106 2.55567 9.98706C1.81087 11.2281 1.81087 12.771 2.55567 14.012C3.8983 16.248 6.90947 19.999 11.9971 19.999C17.0857 19.999 20.0968 16.248 21.4385 14.012C22.1833 12.771 22.1833 11.2291 21.4385 9.98706ZM19.7239 12.983C18.5993 14.857 16.1009 18 11.9971 18C7.8942 18 5.39488 14.856 4.27019 12.983C3.90629 12.377 3.90629 11.623 4.27019 11.016C5.39488 9.14299 7.8942 5.99902 11.9971 5.99902C16.1009 5.99902 18.5993 9.14199 19.7239 11.016C20.0878 11.623 20.0878 12.377 19.7239 12.983ZM11.9971 7.5C9.51675 7.5 7.49831 9.519 7.49831 12C7.49831 14.481 9.51675 16.5 11.9971 16.5C14.4774 16.5 16.4958 14.481 16.4958 12C16.4958 9.519 14.4774 7.5 11.9971 7.5ZM11.9971 14.5C10.6194 14.5 9.49776 13.379 9.49776 12C9.49776 10.621 10.6194 9.5 11.9971 9.5C13.3747 9.5 14.4964 10.621 14.4964 12C14.4964 13.379 13.3747 14.5 11.9971 14.5Z" fill="#292929"/>
<rect x="5.96777" y="2.56055" width="1.92413" height="22.641" rx="0.962067" transform="rotate(-31.5056 5.96777 2.56055)" fill="white"/>
<rect x="5.26367" y="2.85156" width="1.92413" height="22.641" rx="0.962067" transform="rotate(-31.5056 5.26367 2.85156)" fill="#292929"/>
</svg>
