<svg width="20" height="20" viewBox="0 0 20 20" fill="none" xmlns="http://www.w3.org/2000/svg">
<path d="M7.33333 2.50391C6.43587 2.50391 5.70833 3.23144 5.70833 4.12891V5.0445C5.70833 5.34365 5.95085 5.58617 6.25 5.58617C6.54915 5.58617 6.79167 5.34365 6.79167 5.0445V4.12891C6.79167 3.82975 7.03418 3.58724 7.33333 3.58724H12.6667C12.9658 3.58724 13.2083 3.82975 13.2083 4.12891V5.0445C13.2083 5.34365 13.4509 5.58617 13.75 5.58617C14.0492 5.58617 14.2917 5.34365 14.2917 5.0445V4.12891C14.2917 3.23144 13.5641 2.50391 12.6667 2.50391H7.33333Z" fill="#292929"/>
<path d="M15.5798 9.56638C15.5798 10.0266 15.2067 10.3997 14.7464 10.3997C14.2862 10.3997 13.9131 10.0266 13.9131 9.56638C13.9131 9.10614 14.2862 8.73305 14.7464 8.73305C15.2067 8.73305 15.5798 9.10614 15.5798 9.56638Z" fill="#292929"/>
<path fill-rule="evenodd" clip-rule="evenodd" d="M14.1667 16.4157C14.1667 17.014 13.6816 17.499 13.0833 17.499H6.91667C6.31836 17.499 5.83333 17.014 5.83333 16.4157L5.83333 14.999H5C3.61929 14.999 2.5 13.8797 2.5 12.499V9.16567C2.5 7.78496 3.61929 6.66567 5 6.66567H15C16.3807 6.66567 17.5 7.78496 17.5 9.16567V12.499C17.5 13.8797 16.3807 14.999 15 14.999H14.1667V16.4157ZM13.0833 16.4157L6.91667 16.4157L6.91667 11.9157L13.0833 11.9157L13.0833 16.4157ZM14.1667 13.9157H15C15.7824 13.9157 16.4167 13.2814 16.4167 12.499V9.16567C16.4167 8.38327 15.7824 7.749 15 7.749H5C4.2176 7.749 3.58333 8.38327 3.58333 9.16567V12.499C3.58333 13.2814 4.2176 13.9157 5 13.9157H5.83333L5.83333 11.4157C5.83333 11.0935 6.0945 10.8323 6.41667 10.8323L13.5833 10.8323C13.9055 10.8323 14.1667 11.0935 14.1667 11.4157V13.9157Z" fill="#292929"/>
</svg>
