<svg width="40" height="40" viewBox="0 0 40 40" fill="none" xmlns="http://www.w3.org/2000/svg">
<rect width="40" height="40" rx="20" fill="#EB5757"/>
<path d="M17.5 27.5016C17.5 27.1735 17.5647 26.8486 17.6903 26.5454C17.8159 26.2423 18.0001 25.9669 18.2322 25.7349C18.4644 25.5029 18.74 25.3189 19.0433 25.1933C19.3466 25.0677 19.6717 25.0031 20 25.0031C20.3283 25.0031 20.6534 25.0677 20.9567 25.1933C21.26 25.3189 21.5356 25.5029 21.7678 25.7349C21.9999 25.9669 22.1841 26.2423 22.3097 26.5454C22.4353 26.8486 22.5 27.1735 22.5 27.5016C22.5 28.1642 22.2366 28.7997 21.7678 29.2682C21.2989 29.7368 20.663 30 20 30C19.337 30 18.7011 29.7368 18.2322 29.2682C17.7634 28.7997 17.5 28.1642 17.5 27.5016ZM17.745 12.4984C17.7117 12.1832 17.7451 11.8646 17.843 11.5631C17.9409 11.2616 18.1011 10.9841 18.3133 10.7485C18.5255 10.5129 18.7848 10.3245 19.0745 10.1956C19.3642 10.0666 19.6779 10 19.995 10C20.3122 10 20.6258 10.0666 20.9155 10.1956C21.2052 10.3245 21.4645 10.5129 21.6767 10.7485C21.8889 10.9841 22.0491 11.2616 22.147 11.5631C22.2449 11.8646 22.2783 12.1832 22.245 12.4984L21.37 21.2605C21.3406 21.6047 21.183 21.9253 20.9284 22.159C20.6738 22.3927 20.3407 22.5223 19.995 22.5223C19.6493 22.5223 19.3162 22.3927 19.0616 22.159C18.807 21.9253 18.6494 21.6047 18.62 21.2605L17.745 12.4984Z" fill="white"/>
</svg>
