<svg width="24" height="24" viewBox="0 0 24 24" fill="none" xmlns="http://www.w3.org/2000/svg">
<path d="M11.8652 22.7168C11.8652 23.2184 11.4587 23.625 10.957 23.625H5.13281C3.12962 23.625 1.5 21.9954 1.5 19.9922V4.00781C1.5 2.00462 3.12962 0.375 5.13281 0.375H17.7568C19.76 0.375 21.3896 2.00462 21.3896 4.00781V10.0474C21.3896 10.549 20.9831 10.9556 20.4814 10.9556C19.9798 10.9556 19.5732 10.549 19.5732 10.0474V4.00781C19.5732 3.00631 18.7583 2.19141 17.7568 2.19141H5.13281C4.13131 2.19141 3.31641 3.00631 3.31641 4.00781V19.9922C3.31641 20.9937 4.13131 21.8086 5.13281 21.8086H10.957C11.4587 21.8086 11.8652 22.2152 11.8652 22.7168ZM6.99835 12.1816C6.99835 11.68 6.54265 11.2734 6.04101 11.2734C5.53937 11.2734 5.13281 11.68 5.13281 12.1816C5.13281 12.6833 5.53937 13.0898 6.04101 13.0898C6.54265 13.0898 6.99835 12.6833 6.99835 12.1816ZM10.582 12.1816C10.582 11.68 10.1755 11.2734 9.67383 11.2734C9.17219 11.2734 8.76562 11.68 8.76562 12.1816C8.76562 12.6833 9.17219 13.0898 9.67383 13.0898C10.1755 13.0898 10.582 12.6833 10.582 12.1816ZM6.99463 15.6328C6.99463 15.1312 6.54265 14.7246 6.04101 14.7246C5.53937 14.7246 5.13281 15.1312 5.13281 15.6328C5.13281 16.1345 5.53937 16.541 6.04101 16.541C6.54265 16.541 6.99463 16.1345 6.99463 15.6328ZM10.582 15.6328C10.582 15.1312 10.1755 14.7246 9.67383 14.7246C9.17219 14.7246 8.76562 15.1312 8.76562 15.6328C8.76562 16.1345 9.17219 16.541 9.67383 16.541C10.1755 16.541 10.582 16.1345 10.582 15.6328ZM6.04101 18.1758C5.53937 18.1758 5.13281 18.5823 5.13281 19.084C5.13281 19.5856 5.53937 19.9922 6.04101 19.9922C6.54265 19.9922 6.94922 19.5856 6.94922 19.084C6.94922 18.5823 6.54265 18.1758 6.04101 18.1758ZM9.62842 18.1758C9.12678 18.1758 8.72021 18.5823 8.72021 19.084C8.72021 19.5856 9.12678 19.9922 9.62842 19.9922C10.1301 19.9922 10.5366 19.5856 10.5366 19.084C10.5366 18.5823 10.1301 18.1758 9.62842 18.1758ZM16.8486 9.45703H6.04101C5.53937 9.45703 5.13281 9.05047 5.13281 8.54883V4.91602C5.13281 4.41438 5.53937 4.00781 6.04101 4.00781H16.8486C17.3503 4.00781 17.7568 4.41438 17.7568 4.91602V8.54883C17.7568 9.05047 17.3503 9.45703 16.8486 9.45703ZM15.9404 5.82422H6.94922V7.64062H15.9404V5.82422Z" fill="#69C055"/>
<path d="M22.4594 13.5262L18.0016 11.5344C17.8539 11.4683 17.6981 11.445 17.5479 11.459C17.3977 11.445 17.2417 11.4684 17.0941 11.5344L12.6363 13.5262C12.3092 13.6724 12.0986 13.9971 12.0986 14.3554V17.8139C12.0986 19.2344 12.6598 20.6842 13.6383 21.7916C14.6831 22.9741 16.0497 23.6253 17.4865 23.6253H17.6091C19.046 23.6253 20.4126 22.9741 21.4573 21.7916C22.4358 20.6842 22.997 19.2343 22.997 17.8139V14.3554C22.997 13.9972 22.7865 13.6724 22.4594 13.5262ZM21.1806 14.9443V17.8139C21.1806 19.6997 19.6532 21.8089 17.6091 21.8089H17.4865C15.4424 21.8089 13.915 19.6997 13.915 17.8139V14.9443L17.5478 13.3211L21.1806 14.9443H21.1806Z" fill="#69C055"/>
</svg>
