<svg width="16" height="17" viewBox="0 0 16 17" fill="none" xmlns="http://www.w3.org/2000/svg">
<path fill-rule="evenodd" clip-rule="evenodd" d="M6.21606 1.89435C7.29784 1.69595 8.41457 1.9163 9.3399 2.51075C10.0921 2.99397 10.6721 3.695 11.0074 4.51322C11.3624 4.48444 11.7206 4.50314 12.0725 4.56955C12.6275 4.67431 13.1541 4.89544 13.6175 5.21837C14.0809 5.5413 14.4706 5.95871 14.7611 6.44313C15.0516 6.92755 15.2362 7.468 15.3027 8.0289C15.3692 8.58979 15.3162 9.15842 15.1472 9.69736C14.9781 10.2363 14.6968 10.7333 14.3219 11.1557C13.9469 11.5781 13.4867 11.9163 12.9716 12.148C12.4565 12.3798 11.8981 12.4998 11.3333 12.5001C10.9651 12.5004 10.6664 12.2021 10.6662 11.8339C10.6659 11.4657 10.9642 11.1671 11.3324 11.1668C11.7089 11.1665 12.0812 11.0865 12.4246 10.9321C12.768 10.7776 13.0748 10.5521 13.3248 10.2705C13.5747 9.98893 13.7623 9.65758 13.875 9.29829C13.9877 8.939 14.023 8.55991 13.9786 8.18598C13.9343 7.81205 13.8112 7.45175 13.6176 7.1288C13.4239 6.80585 13.1641 6.52758 12.8552 6.31229C12.5462 6.09701 12.1952 5.94959 11.8252 5.87975C11.4583 5.81049 11.0809 5.81906 10.7176 5.90487L9.84124 6.1434C9.48597 6.2401 9.11959 6.03049 9.02289 5.67522C8.92619 5.31996 9.13581 4.95357 9.49107 4.85687L9.67673 4.80634C9.43721 4.33113 9.07362 3.92444 8.61924 3.63254C7.97863 3.22101 7.20551 3.06845 6.45659 3.20581C5.70767 3.34316 5.03899 3.76014 4.58612 4.37222C4.13746 4.9786 3.93385 5.73151 4.01534 6.48088C4.01778 6.4936 4.0216 6.51288 4.02679 6.5373C4.0376 6.58819 4.05395 6.65932 4.07564 6.73865C4.12349 6.91369 4.18081 7.06586 4.23123 7.1464C4.4266 7.45848 4.33198 7.86985 4.01989 8.06522C3.70781 8.26058 3.29644 8.16596 3.10108 7.85388C3.02826 7.73756 2.9682 7.60945 2.91918 7.48531C2.69888 7.62789 2.50695 7.81357 2.3561 8.03351C2.08025 8.43571 1.96075 8.92481 2.02008 9.40891C2.0794 9.89301 2.31345 10.3388 2.67826 10.6625C3.04286 10.986 3.51297 11.1653 4.00037 11.1668H4.66615C5.03434 11.1668 5.33282 11.4653 5.33282 11.8335C5.33282 12.2017 5.03434 12.5001 4.66615 12.5001H3.99949L3.99772 12.5001C3.18508 12.498 2.40119 12.1992 1.79333 11.6598C1.18547 11.1205 0.795486 10.3777 0.696642 9.57109C0.597798 8.76447 0.7969 7.94953 1.25654 7.27936C1.6101 6.76387 2.09909 6.36133 2.66464 6.11272C2.67382 5.20441 2.96855 4.31675 3.51427 3.57917C4.16843 2.69505 5.13429 2.09274 6.21606 1.89435ZM7.99949 8.50014C8.36768 8.50014 8.66615 8.79862 8.66615 9.16681V13.7797L9.24969 13.3129C9.5372 13.0829 9.95673 13.1295 10.1867 13.417C10.4167 13.7045 10.3701 14.124 10.0826 14.3541L8.41595 15.6874C8.17247 15.8822 7.8265 15.8822 7.58302 15.6874L5.91636 14.3541C5.62885 14.124 5.58224 13.7045 5.81224 13.417C6.04225 13.1295 6.46178 13.0829 6.74928 13.3129L7.33282 13.7797V9.16681C7.33282 8.79862 7.6313 8.50014 7.99949 8.50014Z" fill="#43B02A"/>
</svg>
