<svg width="24" height="24" viewBox="0 0 24 24" fill="none" xmlns="http://www.w3.org/2000/svg">
<path fill-rule="evenodd" clip-rule="evenodd" d="M4.05043 16.2343H19.9496V5.41937H19.2686C18.767 5.41937 18.3604 5.00732 18.3604 4.4989C18.3604 3.99067 18.767 3.57862 19.2686 3.57862C19.5982 3.57862 19.9253 3.57862 20.2518 3.57862C21.0795 3.57862 21.7508 4.25813 21.7518 5.09703L21.766 16.8398L23.3507 19.7774C23.7321 20.4843 23.7149 21.325 23.3046 22.0263C22.8815 22.7493 22.1358 23.1812 21.3097 23.1812H2.69025C1.86418 23.1812 1.11846 22.7493 0.695407 22.0263C0.28512 21.325 0.267914 20.4843 0.649287 19.7774L2.23403 16.8398V5.09887C2.23403 4.25926 2.90585 3.57861 3.73427 3.57861C4.17743 3.57861 4.31222 3.57862 4.7314 3.57862C5.23304 3.57862 5.6396 3.99067 5.6396 4.4989C5.6396 5.00732 5.23304 5.41937 4.7314 5.41937H4.05043V16.2343ZM14.2737 20.4683C14.7592 20.4683 15.1546 20.8568 15.1794 21.3426H21.3097C21.5737 21.3426 21.7076 21.1468 21.7422 21.0873C21.7899 21.006 21.8552 20.8422 21.7571 20.6605L20.3859 18.119H3.61406L2.24289 20.6605C2.1448 20.8422 2.21008 21.006 2.25779 21.0873C2.29238 21.1468 2.42631 21.3426 2.69025 21.3426H8.8206C8.84544 20.8568 9.24082 20.4683 9.72632 20.4683H14.2737Z" fill="#C3C3C3"/>
<path d="M12.8212 5.54987H13.5191C13.9727 5.54987 14.3403 5.92248 14.3403 6.38214C14.3403 6.84179 13.9727 7.2144 13.5191 7.2144H12C11.5465 7.2144 11.1788 6.84179 11.1788 6.38214V4.46794C11.1788 4.00828 11.5465 3.63567 12 3.63567C12.4535 3.63567 12.8212 4.00828 12.8212 4.46794V5.54987Z" fill="#C3C3C3"/>
<path fill-rule="evenodd" clip-rule="evenodd" d="M6.375 6.38214C6.375 3.23861 8.89837 0.681152 12 0.681152C15.1016 0.681152 17.625 3.23861 17.625 6.38214C17.625 9.52567 15.1016 12.0831 12 12.0831C8.89837 12.0831 6.375 9.52567 6.375 6.38214ZM8.01734 6.38214C8.01734 8.60785 9.80395 10.4186 12 10.4186C14.1961 10.4186 15.9827 8.60785 15.9827 6.38214C15.9827 4.15642 14.1961 2.34567 12 2.34567C9.80395 2.34567 8.01734 4.15642 8.01734 6.38214Z" fill="#C3C3C3"/>
</svg>
