<svg width="24" height="24" viewBox="0 0 24 24" fill="none" xmlns="http://www.w3.org/2000/svg">
<path d="M12 14C15.033 14 17.5 11.532 17.5 8.5C17.5 5.468 15.033 3 12 3C8.967 3 6.5 5.468 6.5 8.5C6.5 11.532 8.967 14 12 14ZM12 5C13.93 5 15.5 6.57 15.5 8.5C15.5 10.43 13.93 12 12 12C10.07 12 8.5 10.43 8.5 8.5C8.5 6.57 10.07 5 12 5ZM20 18.967V19.9998C20 20.5522 19.5522 21 18.9998 21C18.4475 21 17.9998 20.5525 17.9995 20.0002L17.999 18.967C17.999 17.568 17.072 16.358 15.746 16.025C15.554 15.977 15.349 16.001 15.185 16.095C13.204 17.197 10.786 17.191 8.82397 16.101C8.65097 16.002 8.447 15.977 8.255 16.025C6.926 16.358 6 17.568 6 18.967V20C6 20.5523 5.55228 21 5 21C4.44772 21 4 20.5523 4 20V18.967C4 16.65 5.54903 14.642 7.76703 14.085C8.45403 13.91 9.19803 14.011 9.80603 14.358C11.155 15.106 12.836 15.1121 14.204 14.3521C14.803 14.0091 15.547 13.909 16.235 14.084C18.451 14.642 20 16.649 20 18.967Z" fill="#292929"/>
</svg>
