<svg width="64" height="64" viewBox="0 0 64 64" fill="none" xmlns="http://www.w3.org/2000/svg">
<rect width="64" height="64" rx="32" fill="#F0F0F0"/>
<path d="M41.707 32.7073L34.707 39.7073C34.512 39.9023 34.256 40.0003 34 40.0003C33.744 40.0003 33.488 39.9023 33.293 39.7073C32.902 39.3163 32.902 38.6842 33.293 38.2933L38.586 33.0003H23C22.447 33.0003 22 32.5533 22 32.0003C22 31.4473 22.447 31.0003 23 31.0003H38.586L33.293 25.7073C32.902 25.3163 32.902 24.6842 33.293 24.2932C33.684 23.9022 34.316 23.9022 34.707 24.2932L41.707 31.2933C42.098 31.6842 42.098 32.3163 41.707 32.7073Z" fill="#292929"/>
</svg>
