<svg width="24" height="24" viewBox="0 0 24 24" fill="none" xmlns="http://www.w3.org/2000/svg">
<path fill-rule="evenodd" clip-rule="evenodd" d="M2.06445 8.4375C2.06445 7.7644 2.61011 7.21875 3.2832 7.21875H14.9344C15.157 7.21875 15.3645 7.3316 15.4854 7.51849L18.3245 11.9062H14.813C14.4505 11.9062 14.1567 11.6124 14.1567 11.25V9.75C14.1567 9.28401 13.779 8.90625 13.313 8.90625C12.847 8.90625 12.4692 9.28401 12.4692 9.75V11.25C12.4692 12.5444 13.5185 13.5938 14.813 13.5938H19.5871L21.684 15.2168C21.8446 15.3411 21.9386 15.5327 21.9386 15.7358V18.375C21.9386 18.7374 21.6447 19.0312 21.2823 19.0312H19.7985C19.5029 17.7945 18.3903 16.875 17.063 16.875C15.5097 16.875 14.2505 18.1342 14.2505 19.6875C14.2505 21.2408 15.5097 22.5 17.063 22.5C18.2522 22.5 19.2691 21.7619 19.6804 20.7188H21.2823C22.5767 20.7188 23.6261 19.6694 23.6261 18.375V15.7358C23.6261 15.0106 23.2904 14.3263 22.7169 13.8824L20.5057 12.1708L16.9022 6.60175C16.4703 5.93428 15.7295 5.53125 14.9344 5.53125H3.2832C1.67813 5.53125 0.376953 6.83242 0.376953 8.4375V17.8125C0.376953 19.4176 1.67813 20.7188 3.2832 20.7188H4.32054C4.73186 21.7619 5.74871 22.5 6.93797 22.5C8.12786 22.5 9.14517 21.7611 9.55606 20.7171C9.57384 20.7182 9.59177 20.7188 9.60984 20.7188H12.3755C12.8415 20.7188 13.2192 20.341 13.2192 19.875C13.2192 19.409 12.8415 19.0312 12.3755 19.0312H9.6735C9.37788 17.7945 8.26531 16.875 6.93797 16.875C5.61063 16.875 4.49805 17.7945 4.20244 19.0312H3.2832C2.61011 19.0312 2.06445 18.4856 2.06445 17.8125V8.4375ZM6.93797 20.8125C7.55929 20.8125 8.06297 20.3088 8.06297 19.6875C8.06297 19.0662 7.55929 18.5625 6.93797 18.5625C6.31665 18.5625 5.81297 19.0662 5.81297 19.6875C5.81297 20.3088 6.31665 20.8125 6.93797 20.8125ZM17.063 20.8125C17.6843 20.8125 18.188 20.3088 18.188 19.6875C18.188 19.0662 17.6843 18.5625 17.063 18.5625C16.4416 18.5625 15.938 19.0662 15.938 19.6875C15.938 20.3088 16.4416 20.8125 17.063 20.8125Z" fill="#009639"/>
<path fill-rule="evenodd" clip-rule="evenodd" d="M9.65625 3.9375C9.65625 2.74664 10.6216 1.78125 11.8125 1.78125H12.5625C13.7534 1.78125 14.7188 2.74664 14.7188 3.9375C14.7188 4.40349 14.341 4.78125 13.875 4.78125C13.409 4.78125 13.0312 4.40349 13.0312 3.9375C13.0312 3.67862 12.8214 3.46875 12.5625 3.46875H11.8125C11.5536 3.46875 11.3438 3.67862 11.3438 3.9375C11.3438 4.40349 10.966 4.78125 10.5 4.78125C10.034 4.78125 9.65625 4.40349 9.65625 3.9375Z" fill="#009639"/>
<path fill-rule="evenodd" clip-rule="evenodd" d="M6.09375 14.0625C6.55974 14.0625 6.9375 13.6847 6.9375 13.2187V12.1875H7.96874C8.43473 12.1875 8.81249 11.8097 8.81249 11.3438C8.81249 10.8778 8.43473 10.5 7.96874 10.5H6.9375V9.46875C6.9375 9.00276 6.55974 8.625 6.09375 8.625C5.62776 8.625 5.25 9.00276 5.25 9.46875L5.25 10.5H4.21875C3.75276 10.5 3.375 10.8778 3.375 11.3438C3.375 11.8097 3.75276 12.1875 4.21875 12.1875H5.25L5.25 13.2187C5.25 13.6847 5.62776 14.0625 6.09375 14.0625Z" fill="#009639"/>
</svg>
