<svg width="40" height="40" viewBox="0 0 40 40" fill="none" xmlns="http://www.w3.org/2000/svg">
<rect width="40" height="40" rx="20" fill="#43B02A"/>
<path fill-rule="evenodd" clip-rule="evenodd" d="M24.7147 27.0717C25.3655 27.7226 26.4208 27.7226 27.0717 27.0717C27.7226 26.4208 27.7226 25.3655 27.0717 24.7147L22.3577 20.0006L27.0717 15.2866C27.7226 14.6357 27.7226 13.5805 27.0717 12.9296C26.4208 12.2787 25.3655 12.2787 24.7147 12.9296L20.0006 17.6436L15.2866 12.9296C14.6357 12.2787 13.5804 12.2787 12.9296 12.9296C12.2787 13.5804 12.2787 14.6357 12.9296 15.2866L17.6436 20.0006L12.9296 24.7147C12.2787 25.3656 12.2787 26.4209 12.9296 27.0717C13.5804 27.7226 14.6357 27.7226 15.2866 27.0717L20.0006 22.3577L24.7147 27.0717Z" fill="white"/>
</svg>
