<svg width="20" height="21" viewBox="0 0 20 21" fill="none" xmlns="http://www.w3.org/2000/svg">
<path d="M18.3329 10.4999C18.3329 10.9607 17.9604 11.3332 17.4995 11.3332H4.5112L8.92201 15.744C9.24784 16.0699 9.24784 16.5966 8.92201 16.9224C8.75951 17.0849 8.5462 17.1666 8.33287 17.1666C8.11953 17.1666 7.90622 17.0849 7.74372 16.9224L1.91039 11.0891C1.58456 10.7633 1.58456 10.2365 1.91039 9.91072L7.74372 4.07738C8.06956 3.75155 8.59617 3.75155 8.92201 4.07738C9.24784 4.40322 9.24784 4.92993 8.92201 5.25577L4.5112 9.66657H17.4995C17.9604 9.66657 18.3329 10.0391 18.3329 10.4999Z" fill="#292929"/>
</svg>
