<svg width="21" height="20" viewBox="0 0 21 20" fill="none" xmlns="http://www.w3.org/2000/svg">
<path d="M5.20241 15.0013C5.24408 15.0013 5.28574 14.9971 5.32741 14.9909L8.83158 14.3763C8.87324 14.368 8.91283 14.3492 8.94199 14.318L17.7732 5.48672C17.7926 5.46745 17.8079 5.44455 17.8183 5.41935C17.8288 5.39415 17.8342 5.36713 17.8342 5.33984C17.8342 5.31256 17.8288 5.28554 17.8183 5.26034C17.8079 5.23514 17.7926 5.21224 17.7732 5.19297L14.3107 1.72839C14.2712 1.6888 14.2191 1.66797 14.1628 1.66797C14.1066 1.66797 14.0545 1.6888 14.0149 1.72839L5.18366 10.5596C5.15241 10.5909 5.13366 10.6284 5.12533 10.6701L4.51074 14.1742C4.49048 14.2858 4.49772 14.4007 4.53184 14.5089C4.56596 14.617 4.62594 14.7153 4.70658 14.7951C4.84408 14.9284 5.01699 15.0013 5.20241 15.0013ZM6.60658 11.368L14.1628 3.8138L15.6899 5.34089L8.13366 12.8951L6.28158 13.2221L6.60658 11.368ZM18.167 16.7513H2.83366C2.46491 16.7513 2.16699 17.0492 2.16699 17.418V18.168C2.16699 18.2596 2.24199 18.3346 2.33366 18.3346H18.667C18.7587 18.3346 18.8337 18.2596 18.8337 18.168V17.418C18.8337 17.0492 18.5357 16.7513 18.167 16.7513Z" fill="#292929"/>
</svg>
