<svg width="24" height="24" viewBox="0 0 24 24" fill="none" xmlns="http://www.w3.org/2000/svg">
<path d="M12 12C12.1 12 12.2 12 12.3 12C12.4 12 12.4 12 12.5 12.1C12.6 12.1 12.6 12.2 12.7 12.2L15.2 14.2C15.4 14.4 15.6 14.7 15.6 15C15.6 15.2 15.5 15.4 15.4 15.6C15.1 16 14.4 16.1 14 15.8L13 15.1V22C13 22.6 12.6 23 12 23C11.4 23 11 22.6 11 22V15.1L10.1 15.8C9.7 16.1 9 16.1 8.7 15.6C8.6 15.4 8.5 15.2 8.5 15C8.5 14.7 8.6 14.4 8.9 14.2L11.4 12.2C11.5 12.1 11.5 12.1 11.6 12.1C11.7 12.1 11.7 12 11.8 12C11.9 12 11.9 12 12 12Z" fill="white"/>
<path d="M7 18H6C4.8 18 3.6 17.5 2.7 16.7C1.8 15.9 1.2 14.8 1.1 13.6C1 12.4 1.3 11.2 1.9 10.2C2.5 9.20001 3.6 8.50001 4.8 8.20001C5.3 8.00001 5.9 8.30001 6 8.90001C6.1 9.40001 5.8 10 5.3 10.1C4.6 10.3 4 10.7 3.6 11.3C3.2 11.9 3 12.6 3.1 13.4C3.2 14.1 3.5 14.8 4.1 15.3C4.6 15.7 5.3 16 6 16H7C7.6 16 8 16.4 8 17C8 17.6 7.6 18 7 18Z" fill="white"/>
<path d="M5.49976 11.5C5.19976 11.5 4.79976 11.3 4.69976 11C4.29976 10.4 4.09976 9.50005 3.99976 9.30005C3.89976 7.60005 4.29976 5.90005 5.29976 4.60005C6.29977 3.30005 7.69976 2.40005 9.39976 2.10005C10.9998 1.80005 12.5998 2.10005 13.9998 3.00005C15.3998 3.90005 16.3998 5.30005 16.7998 6.90005C16.8998 7.40005 16.5998 8.00005 16.0998 8.10005C15.5998 8.20005 14.9998 7.90005 14.8998 7.40005C14.5998 6.30005 13.8998 5.30005 12.9998 4.70005C11.9998 4.10005 10.8998 3.90005 9.79977 4.10005C8.59976 4.30005 7.59976 4.90005 6.89976 5.80005C6.19976 6.70005 5.89976 7.90005 5.99976 9.00005C5.99976 9.20005 6.19976 9.70005 6.29976 10C6.59976 10.5 6.49976 11.1 5.99976 11.4C5.89976 11.5 5.69976 11.5 5.49976 11.5Z" fill="white"/>
<path d="M16.9998 18C16.3998 18 15.9998 17.6 15.9998 17C15.9998 16.4 16.3998 16 16.9998 16C17.5998 16 18.0998 15.9 18.5998 15.6C19.0998 15.4 19.5998 15 19.9998 14.6C20.3998 14.2 20.6998 13.7 20.7998 13.1C20.9998 12.6 20.9998 12 20.9998 11.4C20.8998 10.8 20.7998 10.3 20.4998 9.80001C20.1998 9.30001 19.7998 8.90001 19.3998 8.60001C18.8998 8.30001 18.3998 8.10001 17.8998 8.00001C17.2998 7.90001 16.7998 7.90001 16.1998 8.00001L14.8998 8.40001C14.3998 8.50001 13.7998 8.20001 13.6998 7.70001C13.5998 7.20001 13.8998 6.60001 14.3998 6.50001L15.6998 6.10001C16.5998 5.90001 17.3998 5.90001 18.1998 6.00001C18.9998 6.20001 19.7998 6.50001 20.4998 7.00001C21.1998 7.50001 21.7998 8.10001 22.1998 8.80001C22.5998 9.50001 22.8998 10.3 22.9998 11.2C23.0998 12 22.9998 12.9 22.7998 13.7C22.4998 14.5 22.0998 15.3 21.5998 15.9C20.9998 16.5 20.3998 17 19.5998 17.4C18.6998 17.8 17.8998 18 16.9998 18Z" fill="white"/>
</svg>
