<svg width="24" height="24" viewBox="0 0 24 24" fill="none" xmlns="http://www.w3.org/2000/svg">
<path fill-rule="evenodd" clip-rule="evenodd" d="M10.0775 21.8086H5.13281C4.13125 21.8086 3.31641 20.9938 3.31641 19.9922V4.00781C3.31641 3.00625 4.13125 2.19141 5.13281 2.19141H16.2987C17.3002 2.19141 18.1151 3.00625 18.1151 4.00781V9.09375C18.1151 9.59535 18.5217 10.002 19.0233 10.002C19.5249 10.002 19.9315 9.59535 19.9315 9.09375V4.00781C19.9315 2.00468 18.3018 0.375 16.2987 0.375H5.13281C3.12968 0.375 1.5 2.00468 1.5 4.00781V19.9922C1.5 21.9953 3.12968 23.625 5.13281 23.625H10.0774C10.579 23.625 10.9856 23.2184 10.9856 22.7168C10.9856 22.2152 10.579 21.8086 10.0775 21.8086ZM10.8948 9.45703C11.3964 9.45703 11.803 9.86363 11.803 10.3652C11.803 10.8668 11.3964 11.2734 10.8948 11.2734H6.03596C5.53436 11.2734 5.12775 10.8668 5.12775 10.3652C5.12775 9.86363 5.53436 9.45703 6.03596 9.45703H10.8948ZM5.12775 13.998C5.12775 13.4964 5.53436 13.0898 6.03596 13.0898H7.98859C8.49019 13.0898 8.8968 13.4964 8.8968 13.998C8.8968 14.4996 8.49019 14.9062 7.98859 14.9062H6.03596C5.53436 14.9062 5.12775 14.4996 5.12775 13.998ZM15.3904 5.82422C15.892 5.82422 16.2987 6.23082 16.2987 6.73242C16.2987 7.23402 15.892 7.64062 15.3904 7.64062H6.03596C5.53436 7.64062 5.12775 7.23402 5.12775 6.73242C5.12775 6.23082 5.53436 5.82422 6.03596 5.82422H15.3904Z" fill="#292929"/>
<path d="M21.7094 13.5262L17.2516 11.5344C17.1039 11.4683 16.9481 11.445 16.7979 11.459C16.6477 11.445 16.4917 11.4684 16.3441 11.5344L11.8863 13.5262C11.5592 13.6724 11.3486 13.9971 11.3486 14.3554V17.8139C11.3486 19.2344 11.9098 20.6842 12.8883 21.7916C13.9331 22.9741 15.2997 23.6253 16.7365 23.6253H16.8591C18.296 23.6253 19.6626 22.9741 20.7073 21.7916C21.6858 20.6842 22.247 19.2343 22.247 17.8139V14.3554C22.247 13.9972 22.0365 13.6724 21.7094 13.5262ZM20.4306 14.9443V17.8139C20.4306 19.6997 18.9032 21.8089 16.8591 21.8089H16.7365C14.6924 21.8089 13.165 19.6997 13.165 17.8139V14.9443L16.7978 13.3211L20.4306 14.9443H20.4306Z" fill="#292929"/>
</svg>
