<svg width="20" height="16" viewBox="0 0 20 16" fill="none" xmlns="http://www.w3.org/2000/svg">
<path fill-rule="evenodd" clip-rule="evenodd" d="M14.7541 0.409492C11.5906 0.134499 8.4093 0.134499 5.24585 0.409492L3.73562 0.540774C2.17543 0.676398 0.911492 1.86365 0.678611 3.41231C0.633009 3.71557 0.591953 4.01933 0.555445 4.3235L0.555099 4.32654C0.273 6.94761 0.285171 9.9713 0.678611 12.5877C0.911492 14.1363 2.17543 15.3236 3.73562 15.4592L5.24585 15.5905C8.4093 15.8655 11.5907 15.8655 14.7541 15.5905L16.2643 15.4592C17.8245 15.3236 19.0885 14.1363 19.3213 12.5877C19.7148 9.97129 19.727 6.94778 19.4449 4.3267L19.4445 4.32366C19.408 4.01944 19.367 3.71562 19.3213 3.41231C19.0885 1.86365 17.8245 0.676398 16.2643 0.540773L14.7541 0.409492ZM5.41905 2.40198C8.46725 2.137 11.5327 2.137 14.5809 2.40198L16.0911 2.53326C16.7303 2.58882 17.2482 3.07524 17.3436 3.70972L17.3527 3.77114L11.9425 6.77683C10.7344 7.44799 9.26546 7.44799 8.05737 6.77683L2.6472 3.77118L2.65637 3.70972C2.75179 3.07524 3.26961 2.58882 3.90882 2.53326L5.41905 2.40198ZM12.9138 8.52514L17.5898 5.92736C17.7426 8.04865 17.6605 10.1826 17.3436 12.2903C17.2482 12.9248 16.7303 13.4112 16.0911 13.4667L14.5809 13.598C11.5327 13.863 8.46725 13.863 5.41905 13.598L3.90882 13.4667C3.26961 13.4112 2.75179 12.9248 2.65637 12.2903C2.33944 10.1826 2.25736 8.04867 2.41014 5.9274L7.08608 8.52514C8.89822 9.53188 11.1017 9.53188 12.9138 8.52514Z" fill="#43B02A"/>
</svg>
