<svg width="22" height="22" viewBox="0 0 22 22" fill="none" xmlns="http://www.w3.org/2000/svg">
<path d="M21.4811 4.86719C14.0168 3.38361 14.4999 3.46108 14.3309 3.48953C14.2768 3.49855 13.6143 3.63171 12.0702 3.94053C11.4228 2.07379 9.64678 0.729858 7.5625 0.729858C5.47628 0.729858 3.69884 2.07633 3.05297 3.94581L0.770172 3.49219C0.372281 3.4133 0 3.71748 0 4.12439V19.2494C0 19.5569 0.217293 19.8216 0.518891 19.8815C7.92017 21.3526 7.43561 21.2577 7.48468 21.2636C7.64032 21.2828 7.15932 21.3623 14.4379 19.9066L21.2298 21.2565C21.6279 21.3356 22 21.0309 22 20.6244V5.49939C22 5.19186 21.7827 4.92718 21.4811 4.86719ZM7.5625 2.01892C9.48161 2.01892 11.043 3.58023 11.043 5.49939C11.043 7.11858 8.45204 11.2288 7.5625 12.5888C6.67395 11.2303 4.08203 7.11893 4.08203 5.49939C4.08203 3.58023 5.64339 2.01892 7.5625 2.01892ZM1.28906 4.90956L2.80199 5.21021C2.79623 5.3059 2.79297 5.40224 2.79297 5.49935C2.79297 6.57417 3.49607 8.30869 4.94248 10.8021C5.78707 12.258 6.61968 13.508 6.91797 13.9483V19.8391L1.28906 18.7203V4.90956ZM8.20703 13.9483C8.50528 13.508 9.33793 12.258 10.1825 10.8021C11.6289 8.30869 12.332 6.57417 12.332 5.49939C12.332 5.40039 12.3286 5.30216 12.3227 5.20467L13.793 4.91055V18.721L8.20703 19.8382V13.9483ZM20.7109 19.8391L15.082 18.7204V4.9096L20.7109 6.02838V19.8391Z" fill="#444846"/>
<path d="M7.5625 7.51893C8.67608 7.51893 9.58203 6.61297 9.58203 5.49939C9.58203 4.38581 8.67608 3.47986 7.5625 3.47986C6.44892 3.47986 5.54297 4.38581 5.54297 5.49939C5.54297 6.61297 6.44892 7.51893 7.5625 7.51893ZM7.5625 4.76892C7.96529 4.76892 8.29297 5.0966 8.29297 5.49939C8.29297 5.90218 7.96529 6.22986 7.5625 6.22986C7.15971 6.22986 6.83203 5.90218 6.83203 5.49939C6.83203 5.0966 7.15971 4.76892 7.5625 4.76892Z" fill="#444846"/>
</svg>
