<svg width="70" height="70" viewBox="0 0 70 70" fill="none" xmlns="http://www.w3.org/2000/svg">
<path d="M11 35C11 21.7452 21.7452 11 35 11C48.2548 11 59 21.7452 59 35C59 48.2548 48.2548 59 35 59C21.7452 59 11 48.2548 11 35Z" fill="white"/>
<path d="M46.3322 36.6343C46.1619 36.1624 45.6413 35.9182 45.1696 36.0883C44.6978 36.2587 44.4533 36.7792 44.6236 37.251C44.7464 37.5911 44.8086 37.949 44.8086 38.315V41.6299H41.9607L39.0479 38.7171C38.8776 38.5468 38.6467 38.4512 38.4058 38.4512H31.5943C31.3534 38.4512 31.1224 38.5468 30.9521 38.7171L28.0393 41.6299H25.1914V38.315C25.1914 36.5873 26.597 35.1817 28.3247 35.1817H34.8741C35.3757 35.1817 35.7823 34.7751 35.7823 34.2735C35.7823 33.7718 35.3757 33.3653 34.8741 33.3653H28.3247C28.0343 33.3653 27.75 33.3906 27.4731 33.4389L28.8986 30.6128C29.46 29.5095 30.5778 28.8242 31.8158 28.8242H33.742C34.2436 28.8242 34.6502 28.4177 34.6502 27.916C34.6502 27.4144 34.2436 27.0078 33.742 27.0078H31.8158C29.8908 27.0078 28.1527 28.0735 27.2782 29.792L24.6974 34.9088C24.6839 34.9355 24.6722 34.9622 24.6617 34.9894C23.8626 35.8687 23.375 37.036 23.375 38.315V45.7168C23.375 46.2185 23.7816 46.625 24.2832 46.625H27.916C28.4177 46.625 28.8242 46.2185 28.8242 45.7168V43.4463H41.1758V45.7168C41.1758 46.2185 41.5824 46.625 42.084 46.625H45.7169C46.2185 46.625 46.6251 46.2185 46.6251 45.7168V38.315C46.6251 37.7381 46.5264 37.1726 46.3322 36.6343ZM31.9705 40.2676H38.0296L39.3919 41.6299H30.6082L31.9705 40.2676ZM27.0078 44.8086H25.1914V43.4463H27.0078V44.8086ZM44.8086 44.8086H42.9922V43.4463H44.8086V44.8086ZM42.084 37.543C42.5857 37.543 42.9922 37.9496 42.9922 38.4512C42.9922 38.9528 42.5857 39.3594 42.084 39.3594C41.5824 39.3594 41.1758 38.9528 41.1758 38.4512C41.1758 37.9496 41.5824 37.543 42.084 37.543ZM27.916 37.543C28.4177 37.543 28.8242 37.9496 28.8242 38.4512C28.8242 38.9528 28.4177 39.3594 27.916 39.3594C27.4144 39.3594 27.0078 38.9528 27.0078 38.4512C27.0078 37.9496 27.4144 37.543 27.916 37.543Z" fill="#686868"/>
<path d="M46.2096 25.651L41.7518 23.6591C41.6042 23.5931 41.4483 23.5697 41.2981 23.5837C41.1479 23.5698 40.992 23.5932 40.8444 23.6591L36.3866 25.651C36.0595 25.7972 35.8489 26.1219 35.8489 26.4802V29.9387C35.8489 31.3591 36.4101 32.8089 37.3886 33.9164C38.4333 35.0988 39.7999 35.75 41.2368 35.75H41.3594C42.7962 35.75 44.1628 35.0988 45.2076 33.9164C46.1861 32.8089 46.7473 31.3591 46.7473 29.9387V26.4802C46.7473 26.1219 46.5367 25.7972 46.2096 25.651ZM44.9308 27.0691V29.9387C44.9308 31.8245 43.4034 33.9336 41.3593 33.9336H41.2367C39.1927 33.9336 37.6652 31.8244 37.6652 29.9387V27.0691L41.298 25.4459L44.9309 27.0691H44.9308Z" fill="#43B02A"/>
<path d="M35 48C27.8203 48 22 42.1797 22 35H0C0 54.33 15.67 70 35 70V48ZM48 35C48 42.1797 42.1797 48 35 48V70C54.33 70 70 54.33 70 35H48ZM35 22C42.1797 22 48 27.8203 48 35H70C70 15.67 54.33 0 35 0V22ZM35 0C15.67 0 0 15.67 0 35H22C22 27.8203 27.8203 22 35 22V0Z" fill="#1E0202" fill-opacity="0.05"/>
</svg>
