<svg width="24" height="24" viewBox="0 0 24 24" fill="none" xmlns="http://www.w3.org/2000/svg">
<path fill-rule="evenodd" clip-rule="evenodd" d="M10.0775 21.8086H5.13281C4.13125 21.8086 3.31641 20.9938 3.31641 19.9922V4.00781C3.31641 3.00625 4.13125 2.19141 5.13281 2.19141H16.2987C17.3002 2.19141 18.1151 3.00625 18.1151 4.00781V9.09375C18.1151 9.59535 18.5217 10.002 19.0233 10.002C19.5249 10.002 19.9315 9.59535 19.9315 9.09375V4.00781C19.9315 2.00468 18.3018 0.375 16.2987 0.375H5.13281C3.12968 0.375 1.5 2.00468 1.5 4.00781V19.9922C1.5 21.9953 3.12968 23.625 5.13281 23.625H10.0774C10.579 23.625 10.9856 23.2184 10.9856 22.7168C10.9856 22.2152 10.579 21.8086 10.0775 21.8086ZM10.8948 9.45703C11.3964 9.45703 11.803 9.86363 11.803 10.3652C11.803 10.8668 11.3964 11.2734 10.8948 11.2734H6.03596C5.53436 11.2734 5.12775 10.8668 5.12775 10.3652C5.12775 9.86363 5.53436 9.45703 6.03596 9.45703H10.8948ZM5.12775 13.998C5.12775 13.4964 5.53436 13.0898 6.03596 13.0898H7.98859C8.49019 13.0898 8.8968 13.4964 8.8968 13.998C8.8968 14.4996 8.49019 14.9062 7.98859 14.9062H6.03596C5.53436 14.9062 5.12775 14.4996 5.12775 13.998ZM15.3904 5.82422C15.892 5.82422 16.2987 6.23082 16.2987 6.73242C16.2987 7.23402 15.892 7.64062 15.3904 7.64062H6.03596C5.53436 7.64062 5.12775 7.23402 5.12775 6.73242C5.12775 6.23082 5.53436 5.82422 6.03596 5.82422H15.3904Z" fill="#69C055"/>
<path d="M21.7099 13.526L17.2521 11.5341C17.1044 11.4681 16.9486 11.4447 16.7983 11.4587C16.6482 11.4448 16.4922 11.4682 16.3446 11.5341L11.8868 13.526C11.5597 13.6722 11.3491 13.9969 11.3491 14.3552V17.8137C11.3491 19.2341 11.9103 20.6839 12.8888 21.7914C13.9335 22.9738 15.3002 23.625 16.737 23.625H16.8596C18.2965 23.625 19.6631 22.9738 20.7078 21.7914C21.6863 20.6839 22.2475 19.2341 22.2475 17.8137V14.3552C22.2475 13.9969 22.0369 13.6722 21.7099 13.526ZM20.4311 14.9441V17.8137C20.4311 19.6995 18.9037 21.8086 16.8596 21.8086H16.737C14.6929 21.8086 13.1655 19.6994 13.1655 17.8137V14.9441L16.7983 13.3209L20.4311 14.9441H20.4311Z" fill="#69C055"/>
</svg>
