<svg width="24" height="24" viewBox="0 0 24 24" fill="none" xmlns="http://www.w3.org/2000/svg">
<path d="M22.0589 11.7651C21.2491 11.3602 20.1926 11.1372 19.084 11.1372C17.9753 11.1372 16.9188 11.3602 16.1091 11.7651C15.0991 12.27 14.543 13.0146 14.543 13.8618C14.543 13.8888 14.5435 13.9156 14.5446 13.9423C14.5435 13.9608 14.543 13.9792 14.543 13.998V15.1202C13.7664 14.7764 12.8115 14.5884 11.8184 14.5884C10.7097 14.5884 9.65322 14.8113 8.84346 15.2163C7.83344 15.7211 7.27734 16.4658 7.27734 17.313C7.27734 17.3238 7.27788 17.3345 7.27805 17.3453C7.27788 17.3497 7.27734 17.354 7.27734 17.3584V20.9004C7.27734 21.7476 7.83344 22.4922 8.84346 22.9971C9.65322 23.402 10.7097 23.625 11.8184 23.625C12.927 23.625 13.9835 23.402 14.7933 22.9971C15.0404 22.8736 15.26 22.7356 15.4512 22.5855C15.6424 22.7356 15.862 22.8736 16.1091 22.9971C16.9188 23.402 17.9753 23.625 19.084 23.625C20.1926 23.625 21.2491 23.402 22.0589 22.9971C23.0689 22.4922 23.625 21.7476 23.625 20.9004V13.8618C23.625 13.0146 23.0689 12.27 22.0589 11.7651ZM13.981 21.3724C13.4267 21.6497 12.6384 21.8086 11.8184 21.8086C10.9983 21.8086 10.21 21.6497 9.6557 21.3724C9.19149 21.1404 9.09375 20.9318 9.09375 20.9004V19.525C9.86537 19.8563 10.8204 20.0376 11.8184 20.0376C11.8522 20.0376 11.8861 20.0374 11.9198 20.0371C12.4215 20.031 12.8232 19.6199 12.8174 19.1182C12.8115 18.6168 12.3991 18.2153 11.8985 18.2207C11.8719 18.221 11.8451 18.2212 11.8184 18.2212C10.9983 18.2212 10.2102 18.0623 9.65588 17.785C9.19149 17.553 9.09375 17.3444 9.09375 17.313C9.09375 17.2816 9.19149 17.073 9.6557 16.841C10.21 16.5637 10.9983 16.4048 11.8184 16.4048C12.6288 16.4048 13.413 16.5699 13.9698 16.858C14.4071 17.0842 14.543 17.3039 14.543 17.3584V20.9004C14.543 20.9318 14.4452 21.1404 13.981 21.3724ZM21.8086 20.9004C21.8086 20.9318 21.7109 21.1404 21.2466 21.3724C20.6923 21.6497 19.904 21.8086 19.084 21.8086C18.2639 21.8086 17.4756 21.6497 16.9213 21.3724C16.4571 21.1404 16.3594 20.9318 16.3594 20.9004V19.525C17.131 19.8563 18.086 20.0376 19.084 20.0376C19.1182 20.0376 19.1523 20.0374 19.1862 20.0369C19.6876 20.0307 20.0892 19.619 20.083 19.1175C20.0766 18.6159 19.6669 18.2139 19.1635 18.2207C19.137 18.221 19.1106 18.2212 19.084 18.2212C18.2639 18.2212 17.4756 18.0623 16.9213 17.785C16.4571 17.553 16.3594 17.3444 16.3594 17.313V16.0747C17.1308 16.4058 18.0864 16.5864 19.084 16.5864C19.1182 16.5864 19.1523 16.5862 19.1862 16.5857C19.6876 16.5795 20.0892 16.1678 20.083 15.6663C20.0768 15.1686 19.6713 14.7695 19.1752 14.7695C19.1713 14.7695 19.1674 14.7695 19.1635 14.7695C19.137 14.7698 19.1106 14.77 19.084 14.77C18.2639 14.77 17.4758 14.6111 16.9215 14.3338C16.4571 14.1018 16.3594 13.8932 16.3594 13.8618C16.3594 13.8304 16.4571 13.6218 16.9213 13.3898C17.4756 13.1125 18.2639 12.9536 19.084 12.9536C19.904 12.9536 20.6923 13.1125 21.2466 13.3898C21.7109 13.6218 21.8086 13.8304 21.8086 13.8618V20.9004Z" fill="#C3C3C3"/>
<path d="M23.625 4.00781V9.09375C23.625 9.59539 23.2184 10.002 22.7168 10.002C22.2152 10.002 21.8086 9.59539 21.8086 9.09375V4.00781C21.8086 3.00631 20.9937 2.19141 19.9922 2.19141H4.00781C3.00631 2.19141 2.19141 3.00631 2.19141 4.00781V13.3623C2.19141 14.3638 3.00631 15.1787 4.00781 15.1787H4.68896C5.19061 15.1787 5.59717 15.5853 5.59717 16.0869C5.59717 16.5886 5.19061 16.9951 4.68896 16.9951H4.00781C2.00462 16.9951 0.375 15.3655 0.375 13.3623V4.00781C0.375 2.00462 2.00462 0.375 4.00781 0.375H19.9922C21.9954 0.375 23.625 2.00462 23.625 4.00781ZM14.5414 8.78422C14.5424 8.74945 14.543 8.7145 14.543 8.67956C14.543 7.10209 13.4022 5.81872 12 5.81872C10.5978 5.81872 9.45703 7.10209 9.45703 8.67956C9.45703 9.74794 9.98173 10.7204 10.8263 11.2172C11.2585 11.4716 11.4028 12.0282 11.1486 12.4605C10.9793 12.7482 10.6762 12.9084 10.3649 12.9084C10.2084 12.9084 10.0498 12.8679 9.90528 12.7828C8.50838 11.9612 7.64062 10.3888 7.64062 8.67956C7.64062 6.10058 9.59628 4.00231 12 4.00231C14.4037 4.00231 16.3594 6.10058 16.3594 8.67956C16.3594 8.73402 16.3585 8.7883 16.3567 8.84222C16.3519 8.99353 16.3402 9.1459 16.3219 9.29508C16.2607 9.793 15.8077 10.1471 15.31 10.086C14.8121 10.0248 14.458 9.5718 14.519 9.07388C14.5307 8.97881 14.5382 8.88124 14.5414 8.78422ZM4.77979 7.50439C5.28143 7.50439 5.68799 7.91096 5.68799 8.4126C5.68799 8.91424 5.28143 9.3208 4.77979 9.3208C4.27814 9.3208 3.87158 8.91424 3.87158 8.4126C3.87158 7.91096 4.27814 7.50439 4.77979 7.50439ZM19.311 9.3208C18.8094 9.3208 18.4028 8.91424 18.4028 8.4126C18.4028 7.91096 18.8094 7.50439 19.311 7.50439C19.8127 7.50439 20.2192 7.91096 20.2192 8.4126C20.2192 8.91424 19.8127 9.3208 19.311 9.3208Z" fill="#C3C3C3"/>
</svg>
