<svg width="24" height="24" viewBox="0 0 64 64" fill="none" xmlns="http://www.w3.org/2000/svg">
<path d="M59.6315 62.9989H4.27997C3.71056 62.9984 3.15083 62.8516 2.65454 62.5724C2.15825 62.2932 1.74207 61.8911 1.44598 61.4047C1.15397 60.908 1 60.3423 1 59.7661C1 59.1899 1.15397 58.6242 1.44598 58.1276L18.6714 25.6224V7.64274H17.5643C16.6835 7.64274 15.8388 7.29281 15.216 6.66993C14.5931 6.04706 14.2432 5.20225 14.2432 4.32137C14.2432 3.44049 14.5931 2.59568 15.216 1.97281C15.8388 1.34993 16.6835 1 17.5643 1H46.3471C47.2279 1 48.0726 1.34993 48.6955 1.97281C49.3183 2.59568 49.6682 3.44049 49.6682 4.32137C49.6682 5.20225 49.3183 6.04706 48.6955 6.66993C48.0726 7.29281 47.2279 7.64274 46.3471 7.64274H45.2401V25.6224L62.554 58.1276C62.846 58.6242 63 59.1899 63 59.7661C63 60.3423 62.846 60.908 62.554 61.4047C62.2503 61.9041 61.8201 62.3145 61.3069 62.5944C60.7937 62.8744 60.2158 63.0139 59.6315 62.9989V62.9989ZM9.81512 56.3562H54.0963L38.9964 28.0138C38.7358 27.5387 38.5987 27.0057 38.5979 26.4638V7.64274H25.3135V26.4638C25.3127 27.0057 25.1756 27.5387 24.915 28.0138L9.81512 56.3562Z" fill="#C3C3C3"/>
</svg>
