<svg width="24" height="24" viewBox="0 0 24 24" fill="none" xmlns="http://www.w3.org/2000/svg">
<path fill-rule="evenodd" clip-rule="evenodd" d="M7.64994 2.25H6.14994C5.31096 2.25 4.88912 2.25 4.59364 2.46128L4.58946 2.46429L4.58868 2.46486C4.49317 2.53425 4.40918 2.61823 4.33979 2.71374L4.33923 2.71452L4.33623 2.71869C4.12494 3.01417 4.12494 3.436 4.12494 4.275V4.89312V5.775V6.975C4.12494 7.03206 4.12494 7.08718 4.12501 7.14047C4.12498 7.14049 4.12496 7.1405 4.12494 7.14052V10.1096L9.40404 13.5976C10.0463 14.0219 10.4795 14.3072 10.8379 14.5022C11.1819 14.6894 11.3975 14.7591 11.5877 14.7826C11.745 14.8021 11.9041 14.8034 12.0617 14.7864C12.2522 14.7659 12.4689 14.6997 12.8159 14.518C13.1773 14.3288 13.6151 14.0505 14.264 13.6365L19.8749 10.0572V7.19312C19.8749 7.19309 19.8748 7.19305 19.8748 7.19302C19.8749 7.12363 19.8749 7.05103 19.8749 6.975V5.775V4.96886V4.275C19.8749 3.43602 19.8749 3.01418 19.6637 2.7187L19.6607 2.71452L19.6601 2.71374C19.5907 2.61823 19.5067 2.53425 19.4112 2.46486L19.4104 2.46429L19.4063 2.46129C19.1108 2.25 18.6889 2.25 17.8499 2.25H16.3499H15.6129H8.12533H7.64994ZM21.7499 6.18059V5.775C21.7499 3.52516 21.7499 2.40024 21.177 1.61164C20.992 1.35696 20.768 1.13299 20.5133 0.947949C19.7247 0.375 18.5998 0.375 16.3499 0.375H7.64994C5.4001 0.375 4.27518 0.375 3.48658 0.947949C3.2319 1.13299 3.00793 1.35696 2.82289 1.61164C2.24994 2.40024 2.24994 3.52516 2.24994 5.775V6.14414C1.74263 6.50545 1.34119 6.85101 1.04531 7.29086C0.900598 7.50599 0.777484 7.73489 0.677767 7.97423C0.373477 8.70457 0.374054 9.51532 0.374833 10.609L0.374913 10.7794V17.1L0.374913 17.1527C0.374893 18.2328 0.374876 19.1189 0.451986 19.8307C0.532247 20.5715 0.704971 21.2337 1.12691 21.8144C1.36977 22.1487 1.66374 22.4427 1.99801 22.6855C2.57876 23.1075 3.24099 23.2802 3.98179 23.3605C4.6935 23.4376 5.57958 23.4376 6.6597 23.4375H6.65973H6.71241H17.2874H17.3401H17.3401C18.4202 23.4376 19.3063 23.4376 20.018 23.3605C20.7588 23.2802 21.4211 23.1075 22.0018 22.6855C22.3361 22.4427 22.6301 22.1487 22.8729 21.8144C23.2949 21.2337 23.4676 20.5715 23.5478 19.8307C23.6249 19.119 23.6249 18.2329 23.6249 17.1528V17.1527V17.1V10.8354L23.625 10.6618V10.6617C23.6258 9.5481 23.6264 8.72261 23.3123 7.98209C23.2094 7.73951 23.0824 7.50788 22.9332 7.29067C22.6393 6.86271 22.2451 6.52624 21.7499 6.18059ZM2.24991 11.1181V17.1C2.24991 18.2458 2.2512 19.0299 2.31608 19.6287C2.37905 20.21 2.49281 20.5045 2.64382 20.7123C2.77103 20.8874 2.92501 21.0414 3.10011 21.1686C3.30795 21.3196 3.60248 21.4334 4.18375 21.4964C4.78256 21.5613 5.56661 21.5625 6.71241 21.5625H17.2874C18.4332 21.5625 19.2173 21.5613 19.8161 21.4964C20.3973 21.4334 20.6919 21.3196 20.8997 21.1686C21.0748 21.0414 21.2288 20.8874 21.356 20.7123C21.507 20.5045 21.6208 20.21 21.6838 19.6287C21.7486 19.0299 21.7499 18.2458 21.7499 17.1V11.0851L15.2724 15.2173L15.2393 15.2384L15.2393 15.2384L15.2392 15.2385C14.6318 15.626 14.1265 15.9483 13.6855 16.1792C13.222 16.4218 12.7712 16.5959 12.2622 16.6507C11.9613 16.683 11.6577 16.6806 11.3573 16.6434C10.8493 16.5805 10.4013 16.3992 9.94175 16.1492C9.50444 15.9113 9.00435 15.5808 8.40313 15.1836L8.37044 15.162L2.24991 11.1181Z" fill="#C3C3C3"/>
<path d="M6.37506 6.26694C6.37492 6.26076 6.37506 6.27307 6.37506 6.26694V6.26694ZM17.5459 6.26694C17.5008 8.49276 16.2248 10.5946 13.8564 12.36C12.7401 13.192 11.1809 13.192 10.0646 12.36C7.69617 10.5946 6.42024 8.49276 6.37506 6.26694C6.38382 3.33935 9.95333 1.89136 11.9605 4.00111C13.9688 1.89045 17.5377 3.34098 17.5459 6.26694ZM15.7295 6.2322C15.6333 4.33392 12.9397 4.35613 12.8687 6.26694C12.8687 6.76854 12.4621 7.17514 11.9605 7.17514C11.4589 7.17514 11.0523 6.76854 11.0523 6.26694C10.9812 4.35526 8.28692 4.33501 8.19146 6.2322C8.23846 8.30517 9.82568 9.91636 11.1501 10.9036C11.6272 11.2592 12.2937 11.2592 12.7708 10.9036C14.0953 9.91636 15.6825 8.30517 15.7295 6.2322ZM17.5459 6.26694C17.5461 6.26076 17.5459 6.27307 17.5459 6.26694V6.26694Z" fill="#C3C3C3"/>
</svg>
