<svg width="22" height="17" viewBox="0 0 22 17" fill="none" xmlns="http://www.w3.org/2000/svg">
<path d="M21.4739 2.01137C20.7038 2.35269 19.8775 2.58417 19.0093 2.68751C19.8958 2.15653 20.5743 1.31433 20.8959 0.31386C20.0644 0.80558 19.1466 1.16263 18.1686 1.35619C17.3854 0.520513 16.2715 0 15.0359 0C12.6655 0 10.7436 1.92246 10.7436 4.29217C10.7436 4.62826 10.7815 4.95652 10.8547 5.27041C7.28802 5.09122 4.12532 3.38195 2.00856 0.784651C1.63854 1.41764 1.42805 2.1552 1.42805 2.94252C1.42805 4.43211 2.18637 5.74644 3.33694 6.51539C2.63352 6.49186 1.97195 6.29831 1.39277 5.97658V6.0302C1.39277 8.10959 2.8728 9.84502 4.83527 10.24C4.47571 10.3368 4.09656 10.3904 3.70432 10.3904C3.42716 10.3904 3.15913 10.3629 2.89632 10.3106C3.44282 12.0173 5.02747 13.2584 6.90498 13.2924C5.4367 14.4433 3.58535 15.1272 1.57451 15.1272C1.22805 15.1272 0.886782 15.1063 0.550781 15.0684C2.45051 16.2886 4.70586 17 7.12987 17C15.0255 17 19.3414 10.4584 19.3414 4.78523L19.3271 4.22942C20.1703 3.62779 20.8999 2.8719 21.4739 2.01137Z" fill="#C9CACA"/>
</svg>
