<svg width="24" height="24" viewBox="0 0 24 24" fill="none" xmlns="http://www.w3.org/2000/svg">
<path fill-rule="evenodd" clip-rule="evenodd" d="M14.8288 16.2425C15.2193 16.6331 15.8525 16.6331 16.243 16.2425C16.6335 15.852 16.6335 15.2188 16.243 14.8283L13.4146 11.9999L16.243 9.17149C16.6335 8.78096 16.6335 8.1478 16.243 7.75727C15.8525 7.36675 15.2193 7.36675 14.8288 7.75727L12.0004 10.5857L9.17195 7.75725C8.78143 7.36672 8.14826 7.36672 7.75774 7.75725C7.36721 8.14777 7.36721 8.78094 7.75774 9.17146L10.5862 11.9999L7.75774 14.8283C7.36721 15.2189 7.36721 15.852 7.75774 16.2426C8.14826 16.6331 8.78143 16.6331 9.17195 16.2426L12.0004 13.4141L14.8288 16.2425Z" fill="#5D737E"/>
</svg>
