<svg width="20" height="20" viewBox="0 0 20 20" fill="none" xmlns="http://www.w3.org/2000/svg">
<path d="M17.5678 4.20241L17.302 3.93655L13.8209 0.455517L13.5551 0.189655C13.4347 0.0693103 13.2678 0 13.0971 0H3.08954C2.68058 0 2.24023 0.315862 2.24023 1.00897V13.4483V19.1507V19.3103C2.24023 19.599 2.53058 19.8803 2.87403 19.969C2.89127 19.9734 2.90782 19.98 2.92575 19.9834C2.97954 19.9941 3.03437 20 3.08954 20H16.9082C16.9633 20 17.0182 19.9941 17.072 19.9834C17.0899 19.98 17.1064 19.9734 17.1237 19.969C17.4671 19.8803 17.7575 19.599 17.7575 19.3103V19.1507V13.4483V4.82C17.7575 4.55552 17.7258 4.36034 17.5678 4.20241ZM16.5282 4.13793H13.6195V1.22931L16.5282 4.13793ZM3.08954 19.3103C3.06506 19.3103 3.04299 19.3014 3.02127 19.2934C2.96748 19.2679 2.92989 19.2141 2.92989 19.1507V14.1379H17.0678V19.1507C17.0678 19.2141 17.0302 19.2676 16.9764 19.2934C16.9547 19.3014 16.9326 19.3103 16.9082 19.3103H3.08954ZM2.92989 13.4483V1.00897C2.92989 0.934138 2.94127 0.689655 3.08954 0.689655H12.9499C12.9385 0.733103 12.9299 0.777931 12.9299 0.824483V4.82759H16.933C16.9795 4.82759 17.024 4.81897 17.0675 4.80759C17.0675 4.81276 17.0678 4.81483 17.0678 4.82V13.4483H2.92989Z" fill="black"/>
<path d="M7.59999 15.429C7.48516 15.3349 7.35551 15.2638 7.21102 15.2169C7.06654 15.1697 6.92033 15.1462 6.77275 15.1462H5.77344V18.6207H6.3393V17.3666H6.75895C6.94102 17.3666 7.10792 17.34 7.25861 17.2866C7.4093 17.2331 7.53826 17.1576 7.64516 17.0604C7.75206 16.9631 7.83516 16.8428 7.89516 16.6997C7.95482 16.5566 7.98482 16.3973 7.98482 16.2211C7.98482 16.0545 7.9493 15.9045 7.87861 15.7707C7.80792 15.6369 7.71482 15.5235 7.59999 15.429ZM7.38551 16.5769C7.35068 16.6728 7.30551 16.7473 7.24895 16.8007C7.1924 16.8542 7.13033 16.8928 7.06275 16.9162C6.99516 16.9397 6.92654 16.9518 6.85757 16.9518H6.33895V15.5752H6.76309C6.90757 15.5752 7.02378 15.598 7.11206 15.6435C7.19999 15.689 7.26826 15.7456 7.31723 15.8131C7.36585 15.8807 7.39792 15.9514 7.41378 16.0252C7.4293 16.099 7.43723 16.1642 7.43723 16.2207C7.43723 16.3624 7.41999 16.4811 7.38551 16.5769Z" fill="black"/>
<path d="M11.0174 15.6552C10.8712 15.5014 10.6874 15.3776 10.4657 15.2852C10.244 15.1928 9.98706 15.1462 9.69499 15.1462H8.64844V18.6207H9.96361C10.0074 18.6207 10.075 18.6152 10.1664 18.6042C10.2574 18.5931 10.3581 18.5683 10.4681 18.5287C10.5781 18.4893 10.6919 18.4304 10.8098 18.3518C10.9277 18.2731 11.0336 18.1656 11.1281 18.0287C11.2226 17.8918 11.3002 17.7221 11.3615 17.5193C11.4229 17.3166 11.4536 17.0721 11.4536 16.7862C11.4536 16.5787 11.4174 16.3766 11.3453 16.1804C11.2726 15.9845 11.1636 15.8093 11.0174 15.6552ZM10.605 17.838C10.4353 18.0831 10.1588 18.2056 9.77533 18.2056H9.2143V15.5749H9.5443C9.81464 15.5749 10.0346 15.6104 10.2043 15.6811C10.374 15.7518 10.5084 15.8445 10.6074 15.9593C10.7064 16.0742 10.7729 16.2021 10.8077 16.3435C10.8422 16.4849 10.8595 16.628 10.8595 16.7724C10.8595 17.2376 10.7746 17.5931 10.605 17.838Z" fill="black"/>
<path d="M12.2734 18.6207H12.8486V17.0556H14.3007V16.669H12.8486V15.5752H14.4465V15.1462H12.2734V18.6207Z" fill="black"/>
<path d="M13.2495 7.91758C12.9326 7.91758 12.5437 7.95895 12.0916 8.04102C11.4606 7.37137 10.8019 6.39344 10.3371 5.43344C10.7982 3.4924 10.5675 3.21758 10.4657 3.08792C10.3575 2.94999 10.2047 2.7262 10.0309 2.7262C9.95815 2.7262 9.75953 2.7593 9.68056 2.78551C9.48194 2.85171 9.37505 3.00482 9.28953 3.20447C9.04574 3.77447 9.38022 4.7462 9.72436 5.49516C9.43022 6.66516 8.93677 8.06551 8.41815 9.20206C7.11125 9.80068 6.41712 10.3886 6.35436 10.9496C6.3316 11.1538 6.37988 11.4534 6.73884 11.7227C6.83712 11.7962 6.95229 11.8352 7.07229 11.8352C7.37401 11.8352 7.67884 11.6041 8.0316 11.1086C8.28884 10.7472 8.56505 10.2545 8.85332 9.64275C9.77677 9.23896 10.9192 8.87413 11.8975 8.66964C12.4423 9.19275 12.9302 9.45758 13.3495 9.45758C13.6585 9.45758 13.9233 9.31551 14.115 9.04689C14.3147 8.76723 14.3602 8.51689 14.2495 8.30206C14.1168 8.04378 13.7895 7.91758 13.2495 7.91758ZM7.07987 11.2531C6.9185 11.1293 6.92781 11.0459 6.93125 11.0145C6.95263 10.8227 7.25298 10.4824 7.98987 10.0683C7.43125 11.1 7.13125 11.2369 7.07987 11.2531ZM9.90746 3.34895C9.92229 3.34413 10.2678 3.72861 9.94056 4.45792C9.44884 3.95482 9.87367 3.36033 9.90746 3.34895ZM9.1947 8.87516C9.5447 8.04102 9.87022 7.11999 10.1168 6.26689C10.504 6.96275 10.9692 7.63792 11.4347 8.17861C10.6988 8.35137 9.91539 8.59516 9.1947 8.87516ZM13.6433 8.70999C13.5371 8.85861 13.3068 8.86206 13.2261 8.86206C13.0423 8.86206 12.9737 8.75275 12.6926 8.53654C12.9244 8.50689 13.143 8.4993 13.3171 8.4993C13.6237 8.4993 13.6799 8.54447 13.7223 8.56723C13.7147 8.59171 13.6947 8.63792 13.6433 8.70999Z" fill="black"/>
</svg>
