<svg width="70" height="70" viewBox="0 0 70 70" fill="none" xmlns="http://www.w3.org/2000/svg">
<path d="M11 35C11 21.7452 21.7452 11 35 11C48.2548 11 59 21.7452 59 35C59 48.2548 48.2548 59 35 59C21.7452 59 11 48.2548 11 35Z" fill="white"/>
<path fill-rule="evenodd" clip-rule="evenodd" d="M25.0219 23.4821C24.8486 23.5521 24.7944 24.6777 24.7932 28.2372C24.791 34.4848 24.5719 37.3281 23.8874 39.9821C23.2299 42.5325 23.2181 42.9849 23.7777 44.1868C24.4071 45.5384 25.9965 46.6184 27.3561 46.6184C27.6721 46.6184 29.2016 46.3173 30.755 45.9492L33.5794 45.28L37.0454 45.9563C39.9453 46.5221 40.8818 46.6313 42.7823 46.6247C45.3427 46.616 45.9819 46.3949 46.4059 45.3711C47.0393 43.8418 45.7844 42.4395 43.7825 42.4395C43.3719 42.4395 42.3762 41.8279 39.784 39.9837C37.8855 38.633 35.9914 37.1731 35.5749 36.7396C34.3452 35.4596 34.2428 34.8566 34.2428 28.9067C34.2428 25.1755 34.1839 23.739 34.0247 23.5799C33.8667 23.4218 32.6303 23.3658 29.5279 23.3762C27.1746 23.384 25.1469 23.4318 25.0219 23.4821ZM32.9709 28.9034V32.9915H29.5188H26.0667V28.9034V24.8154H29.5188H32.9709V28.9034ZM33.1248 35.0355C33.2831 35.6039 33.2366 35.6794 31.8824 37.0539L30.4758 38.4819L28.2711 37.0049C26.2765 35.6685 26.0667 35.4765 26.0667 34.9865V34.445H29.5135H32.9606L33.1248 35.0355ZM32.6241 41.7614C29.4294 44.9902 29.1676 45.1647 27.5202 45.161C25.8312 45.1574 25.8606 45.108 30.0364 40.9254L33.9154 37.0405L34.7769 37.8775L35.6385 38.7148L32.6241 41.7614ZM27.7889 38.3167L29.5028 39.4628L27.2656 41.6947C24.8946 44.0602 24.7948 44.0994 24.7948 42.668C24.7948 42.3105 25.007 41.1111 25.2663 40.003C25.5256 38.8947 25.7723 37.804 25.8148 37.5792C25.8572 37.3545 25.9331 37.1704 25.9833 37.1704C26.0336 37.1704 26.8461 37.6862 27.7889 38.3167ZM38.7829 40.9897C38.7842 41.0417 38.059 41.807 37.1718 42.6902L35.5586 44.296L34.6029 44.091C34.0773 43.9782 33.3519 43.9373 32.9911 44.0002C32.3581 44.1105 32.4146 44.0342 34.5923 41.8346L36.8495 39.5547L37.8152 40.2248C38.3463 40.5935 38.7818 40.9376 38.7829 40.9897ZM41.0962 42.5659L42.0711 43.2375L41.0893 44.2193L40.1076 45.2012L39.0374 44.9888C37.1148 44.6072 37.1431 44.7271 38.6225 43.2378C39.3565 42.4991 39.9939 41.8944 40.0391 41.8944C40.0842 41.8944 40.5598 42.1965 41.0962 42.5659ZM45.0534 44.5289V45.074L43.6015 45.1278L42.1496 45.1817L42.7821 44.5291C43.349 43.9442 43.4994 43.8823 44.234 43.9302C45.0115 43.9811 45.0534 44.0118 45.0534 44.5289Z" fill="#868686"/>
<path fill-rule="evenodd" clip-rule="evenodd" d="M42.1588 36.1021C41.9946 35.9786 41.8861 35.7948 41.8574 35.5913C41.8286 35.3878 41.8819 35.1811 42.0054 35.0169L42.9373 33.7783C43.0609 33.614 43.2446 33.5056 43.4481 33.4768C43.6517 33.4481 43.8583 33.5013 44.0225 33.6249C44.1868 33.7485 44.2952 33.9322 44.324 34.1357C44.3527 34.3393 44.2995 34.5459 44.1759 34.7101L43.2441 35.9487C43.1205 36.113 42.9367 36.2214 42.7332 36.2502C42.5297 36.279 42.3231 36.2257 42.1588 36.1021ZM39.2156 34.8577C38.9464 34.6551 38.9212 34.4665 38.8302 33.7857C38.8103 33.6365 38.7872 33.4638 38.7577 33.2621C38.7288 33.0577 38.7823 32.8503 38.9063 32.6853C39.0304 32.5204 39.2149 32.4115 39.4193 32.3827C39.6236 32.3538 39.8311 32.4073 39.996 32.5313C40.1609 32.6554 40.2698 32.8399 40.2987 33.0443L40.4521 34.1295C40.4742 34.2818 40.4505 34.4373 40.384 34.5761C40.3175 34.7149 40.2111 34.8308 40.0785 34.9089C39.9458 34.987 39.7929 35.0239 39.6392 35.0148C39.4856 35.0056 39.3381 34.951 39.2156 34.8577ZM43.9018 38.2216C43.9532 38.3668 44.0466 38.4933 44.1701 38.5851C44.4419 38.7896 44.618 38.7632 45.3578 38.6522C45.4946 38.6317 45.6507 38.6083 45.8302 38.583C46.0345 38.5541 46.219 38.4452 46.3431 38.2803C46.4672 38.1153 46.5207 37.9079 46.4918 37.7035C46.4629 37.4992 46.354 37.3147 46.1891 37.1906C46.0242 37.0665 45.8167 37.013 45.6124 37.0419L44.5271 37.1953C44.3746 37.2162 44.2318 37.2821 44.1169 37.3845C44.0019 37.4869 43.9201 37.6212 43.8818 37.7703C43.8435 37.9194 43.8505 38.0765 43.9018 38.2216Z" fill="#FE7333"/>

</svg>
