<svg width="18" height="17" viewBox="0 0 18 17" fill="none" xmlns="http://www.w3.org/2000/svg">
<path fill-rule="evenodd" clip-rule="evenodd" d="M15.3714 0.0255127H2.75484C1.55632 0.0255127 0.576172 0.912586 0.576172 2.20398V14.8208C0.576172 16.1122 1.55632 16.9993 2.75484 16.9993H15.3714C16.5696 16.9993 17.5499 16.1122 17.5499 14.8208V2.20398C17.5499 0.912586 16.5696 0.0255127 15.3714 0.0255127ZM12.1768 2.67606C12.1768 2.25553 12.5203 1.91186 12.9406 1.91186H14.8591C15.2795 1.91186 15.6233 2.25553 15.6233 2.67606V4.50511C15.6233 4.92546 15.2795 5.26931 14.8591 5.26931H12.9406C12.5203 5.26931 12.1768 4.92546 12.1768 4.50511V2.67606ZM15.6315 7.20392H14.1376C14.279 7.66541 14.3555 8.15426 14.3555 8.66001C14.3555 11.4833 11.9929 13.7719 9.07916 13.7719C6.16555 13.7719 3.80337 11.4833 3.80337 8.66001C3.80337 8.15391 3.8797 7.66524 4.02122 7.20392H2.46229V14.3739C2.46229 14.7449 2.76588 15.0487 3.1371 15.0487H14.9571C15.3283 15.0487 15.6319 14.7451 15.6319 14.3739V7.20392H15.6315ZM5.67022 8.47523C5.67022 6.65089 7.19656 5.17215 9.07913 5.17215C10.962 5.17215 12.4884 6.65089 12.4884 8.47523C12.4884 10.2996 10.9619 11.7783 9.07913 11.7783C7.19656 11.7783 5.67022 10.2996 5.67022 8.47523Z" fill="#C9CACA"/>
</svg>
