<svg width="24" height="24" viewBox="0 0 24 24" fill="none" xmlns="http://www.w3.org/2000/svg">
<path d="M22.0589 11.7647C21.2491 11.3597 20.1926 11.1367 19.084 11.1367C17.9753 11.1367 16.9188 11.3597 16.1091 11.7647C15.0991 12.2695 14.543 13.0141 14.543 13.8613C14.543 13.8883 14.5435 13.9151 14.5446 13.9419C14.5435 13.9603 14.543 13.9788 14.543 13.9976V15.1197C13.7664 14.7759 12.8115 14.5879 11.8184 14.5879C10.7097 14.5879 9.65322 14.8109 8.84346 15.2158C7.83344 15.7207 7.27734 16.4653 7.27734 17.3125C7.27734 17.3233 7.27788 17.334 7.27805 17.3448C7.27788 17.3492 7.27734 17.3535 7.27734 17.3579V20.8999C7.27734 21.7471 7.83344 22.4917 8.84346 22.9966C9.65322 23.4015 10.7097 23.6245 11.8184 23.6245C12.927 23.6245 13.9835 23.4015 14.7933 22.9966C15.0404 22.8731 15.26 22.7351 15.4512 22.585C15.6424 22.7351 15.862 22.8731 16.1091 22.9966C16.9188 23.4015 17.9753 23.6245 19.084 23.6245C20.1926 23.6245 21.2491 23.4015 22.0589 22.9966C23.0689 22.4917 23.625 21.7471 23.625 20.8999V13.8613C23.625 13.0141 23.0689 12.2695 22.0589 11.7647ZM13.981 21.3719C13.4267 21.6492 12.6384 21.8081 11.8184 21.8081C10.9983 21.8081 10.21 21.6492 9.6557 21.3719C9.19149 21.1399 9.09375 20.9313 9.09375 20.8999V19.5245C9.86537 19.8558 10.8204 20.0371 11.8184 20.0371C11.8522 20.0371 11.8861 20.0369 11.9198 20.0366C12.4215 20.0305 12.8232 19.6194 12.8174 19.1177C12.8115 18.6163 12.3991 18.2148 11.8985 18.2202C11.8719 18.2205 11.8451 18.2207 11.8184 18.2207C10.9983 18.2207 10.2102 18.0618 9.65588 17.7845C9.19149 17.5525 9.09375 17.3439 9.09375 17.3125C9.09375 17.2811 9.19149 17.0725 9.6557 16.8405C10.21 16.5632 10.9983 16.4043 11.8184 16.4043C12.6288 16.4043 13.413 16.5694 13.9698 16.8575C14.4071 17.0837 14.543 17.3035 14.543 17.3579V20.8999C14.543 20.9313 14.4452 21.1399 13.981 21.3719ZM21.8086 20.8999C21.8086 20.9313 21.7109 21.1399 21.2466 21.3719C20.6923 21.6492 19.904 21.8081 19.084 21.8081C18.2639 21.8081 17.4756 21.6492 16.9213 21.3719C16.4571 21.1399 16.3594 20.9313 16.3594 20.8999V19.5245C17.131 19.8558 18.086 20.0371 19.084 20.0371C19.1182 20.0371 19.1523 20.0369 19.1862 20.0364C19.6876 20.0302 20.0892 19.6185 20.083 19.117C20.0766 18.6154 19.6669 18.2134 19.1635 18.2202C19.137 18.2205 19.1106 18.2207 19.084 18.2207C18.2639 18.2207 17.4756 18.0618 16.9213 17.7845C16.4571 17.5525 16.3594 17.3439 16.3594 17.3125V16.0742C17.1308 16.4054 18.0864 16.5859 19.084 16.5859C19.1182 16.5859 19.1523 16.5858 19.1862 16.5852C19.6876 16.579 20.0892 16.1673 20.083 15.6658C20.0768 15.1681 19.6713 14.769 19.1752 14.769C19.1713 14.769 19.1674 14.769 19.1635 14.769C19.137 14.7694 19.1106 14.7695 19.084 14.7695C18.2639 14.7695 17.4758 14.6106 16.9215 14.3333C16.4571 14.1013 16.3594 13.8927 16.3594 13.8613C16.3594 13.8299 16.4571 13.6213 16.9213 13.3893C17.4756 13.1121 18.2639 12.9531 19.084 12.9531C19.904 12.9531 20.6923 13.1121 21.2466 13.3893C21.7109 13.6213 21.8086 13.8299 21.8086 13.8613V20.8999Z" fill="#009639"/>
<path d="M23.625 4.00781V9.09375C23.625 9.59539 23.2184 10.002 22.7168 10.002C22.2152 10.002 21.8086 9.59539 21.8086 9.09375V4.00781C21.8086 3.00631 20.9937 2.19141 19.9922 2.19141H4.00781C3.00631 2.19141 2.19141 3.00631 2.19141 4.00781V13.3623C2.19141 14.3638 3.00631 15.1787 4.00781 15.1787H4.68896C5.19061 15.1787 5.59717 15.5853 5.59717 16.0869C5.59717 16.5886 5.19061 16.9951 4.68896 16.9951H4.00781C2.00462 16.9951 0.375 15.3655 0.375 13.3623V4.00781C0.375 2.00462 2.00462 0.375 4.00781 0.375H19.9922C21.9954 0.375 23.625 2.00462 23.625 4.00781ZM14.5414 8.78422C14.5424 8.74945 14.543 8.7145 14.543 8.67956C14.543 7.10209 13.4022 5.81872 12 5.81872C10.5978 5.81872 9.45703 7.10209 9.45703 8.67956C9.45703 9.74794 9.98173 10.7204 10.8263 11.2172C11.2585 11.4716 11.4028 12.0282 11.1486 12.4605C10.9793 12.7482 10.6762 12.9084 10.3649 12.9084C10.2084 12.9084 10.0498 12.8679 9.90528 12.7828C8.50838 11.9612 7.64062 10.3888 7.64062 8.67956C7.64062 6.10058 9.59628 4.00231 12 4.00231C14.4037 4.00231 16.3594 6.10058 16.3594 8.67956C16.3594 8.73402 16.3585 8.7883 16.3567 8.84222C16.3519 8.99353 16.3402 9.1459 16.3219 9.29508C16.2607 9.793 15.8077 10.1471 15.31 10.086C14.8121 10.0248 14.458 9.5718 14.519 9.07388C14.5307 8.97881 14.5382 8.88124 14.5414 8.78422ZM4.77979 7.50439C5.28143 7.50439 5.68799 7.91096 5.68799 8.4126C5.68799 8.91424 5.28143 9.3208 4.77979 9.3208C4.27814 9.3208 3.87158 8.91424 3.87158 8.4126C3.87158 7.91096 4.27814 7.50439 4.77979 7.50439ZM19.311 9.3208C18.8094 9.3208 18.4028 8.91424 18.4028 8.4126C18.4028 7.91096 18.8094 7.50439 19.311 7.50439C19.8127 7.50439 20.2192 7.91096 20.2192 8.4126C20.2192 8.91424 19.8127 9.3208 19.311 9.3208Z" fill="#009639"/>
</svg>
