<svg width="24" height="24" viewBox="0 0 24 24" fill="none" xmlns="http://www.w3.org/2000/svg">
<path d="M6.4483 10.8648C6.44817 10.8587 6.4483 10.871 6.4483 10.8648V10.8648ZM17.6192 10.8648C17.574 13.0907 16.2981 15.1925 13.9297 16.9579C12.8133 17.7899 11.2541 17.7899 10.1378 16.9579C7.76942 15.1925 6.49349 13.0907 6.4483 10.8648C6.45707 7.93725 10.0266 6.48926 12.0337 8.59901C14.042 6.48835 17.6109 7.93888 17.6192 10.8648ZM15.8028 10.8301C15.7065 8.93182 13.0129 8.95403 12.9419 10.8648C12.9419 11.3664 12.5353 11.773 12.0337 11.773C11.5321 11.773 11.1255 11.3664 11.1255 10.8648C11.0545 8.95316 8.36016 8.93291 8.26471 10.8301C8.31171 12.9031 9.89892 14.5143 11.2234 15.5015C11.7004 15.8571 12.367 15.8571 12.8441 15.5015C14.1686 14.5143 15.7558 12.9031 15.8028 10.8301ZM17.6192 10.8648C17.6193 10.8587 17.6192 10.871 17.6192 10.8648V10.8648Z" fill="#C3C3C3"/>
<path d="M23.6135 12C23.6032 22.3188 11.0715 27.5093 3.76843 20.22C-0.740836 15.8929 -0.741563 8.10689 3.76861 3.77985C11.0723 -3.50933 23.6038 1.68173 23.6135 12ZM21.7971 12C21.7971 6.59151 17.397 2.19141 11.9886 2.19141C-1.02383 2.7302 -1.02006 21.2717 11.9886 21.8086C17.397 21.8086 21.7971 17.4084 21.7971 12Z" fill="#C3C3C3"/>
</svg>
