<svg width="34" height="34" viewBox="0 0 34 34" fill="none" xmlns="http://www.w3.org/2000/svg">
<path d="M24.8452 12.4883C25.4968 13.14 25.4968 14.1934 24.8452 14.8451L16.5118 23.1784C16.1868 23.5034 15.7602 23.6667 15.3335 23.6667C14.9068 23.6667 14.4802 23.5034 14.1552 23.1784L9.15516 18.1784C8.5035 17.5268 8.5035 16.4733 9.15516 15.8217C9.80683 15.17 10.8602 15.17 11.5118 15.8217L15.3335 19.6435L22.4885 12.4883C23.1402 11.8367 24.1935 11.8367 24.8452 12.4883ZM33.6668 17C33.6668 26.19 26.1902 33.6667 17.0002 33.6667C7.81016 33.6667 0.333496 26.19 0.333496 17C0.333496 7.81004 7.81016 0.333374 17.0002 0.333374C26.1902 0.333374 33.6668 7.81004 33.6668 17ZM30.3335 17C30.3335 9.64837 24.3518 3.66671 17.0002 3.66671C9.6485 3.66671 3.66683 9.64837 3.66683 17C3.66683 24.3517 9.6485 30.3334 17.0002 30.3334C24.3518 30.3334 30.3335 24.3517 30.3335 17Z" fill="#292929"/>
</svg>
