<svg width="20" height="16" viewBox="0 0 20 16" fill="none" xmlns="http://www.w3.org/2000/svg">
<path fill-rule="evenodd" clip-rule="evenodd" d="M14.7545 0.40937C11.591 0.134377 8.40967 0.134377 5.24622 0.40937L3.73598 0.540652C2.17579 0.676276 0.911859 1.86353 0.678977 3.41219C0.633375 3.71544 0.59232 4.01921 0.555811 4.32338L0.555465 4.32642C0.273367 6.94748 0.285537 9.97118 0.678977 12.5876C0.911859 14.1362 2.17579 15.3235 3.73598 15.4591L5.24622 15.5904C8.40967 15.8654 11.591 15.8654 14.7545 15.5904L16.2647 15.4591C17.8249 15.3235 19.0888 14.1362 19.3217 12.5876C19.7152 9.97117 19.7273 6.94765 19.4452 4.32658L19.4449 4.32354C19.4084 4.01931 19.3673 3.7155 19.3217 3.41219C19.0888 1.86353 17.8249 0.676276 16.2647 0.540651L14.7545 0.40937ZM5.41942 2.40186C8.46762 2.13688 11.5331 2.13688 14.5813 2.40186L16.0915 2.53314C16.7307 2.5887 17.2485 3.07511 17.3439 3.7096L17.3531 3.77102L11.9429 6.77671C10.7348 7.44787 9.26583 7.44787 8.05774 6.77671L2.64757 3.77106L2.65674 3.7096C2.75215 3.07511 3.26998 2.5887 3.90919 2.53314L5.41942 2.40186ZM12.9142 8.52502L17.5902 5.92724C17.743 8.04852 17.6609 10.1825 17.3439 12.2902C17.2485 12.9246 16.7307 13.411 16.0915 13.4666L14.5813 13.5979C11.5331 13.8629 8.46762 13.8629 5.41942 13.5979L3.90919 13.4666C3.26998 13.411 2.75215 12.9246 2.65674 12.2901C2.3398 10.1825 2.25773 8.04855 2.41051 5.92727L7.08645 8.52502C8.89858 9.53176 11.102 9.53176 12.9142 8.52502Z" fill="#43b02a"/>
</svg>
