<svg width="24" height="24" viewBox="0 0 24 24" fill="none" xmlns="http://www.w3.org/2000/svg">
<path d="M23.3322 13.6343C23.1619 13.1624 22.6413 12.9182 22.1696 13.0883C21.6978 13.2587 21.4533 13.7792 21.6236 14.251C21.7464 14.5911 21.8086 14.949 21.8086 15.315V18.6299H18.9607L16.0479 15.7171C15.8776 15.5468 15.6467 15.4512 15.4058 15.4512H8.59426C8.35337 15.4512 8.12242 15.5468 7.95213 15.7171L5.03931 18.6299H2.19141V15.315C2.19141 13.5873 3.597 12.1817 5.32472 12.1817H11.8741C12.3757 12.1817 12.7823 11.7751 12.7823 11.2735C12.7823 10.7718 12.3757 10.3653 11.8741 10.3653H5.32472C5.03434 10.3653 4.75 10.3906 4.4731 10.4389L5.89856 7.61278C6.45998 6.50946 7.57785 5.82422 8.81581 5.82422H10.742C11.2436 5.82422 11.6502 5.41766 11.6502 4.91602C11.6502 4.41438 11.2436 4.00781 10.742 4.00781H8.81581C6.89084 4.00781 5.15266 5.07353 4.27815 6.79203L1.6974 11.9088C1.68392 11.9355 1.67221 11.9622 1.66174 11.9894C0.862628 12.8687 0.375 14.036 0.375 15.315V22.7168C0.375 23.2185 0.781564 23.625 1.28321 23.625H4.91603C5.41767 23.625 5.82423 23.2185 5.82423 22.7168V20.4463H18.1758V22.7168C18.1758 23.2185 18.5824 23.625 19.084 23.625H22.7169C23.2185 23.625 23.6251 23.2185 23.6251 22.7168V15.315C23.6251 14.7381 23.5264 14.1726 23.3322 13.6343ZM8.97049 17.2676H15.0296L16.3919 18.6299H7.60818L8.97049 17.2676ZM4.00782 21.8086H2.19141V20.4463H4.00782V21.8086ZM21.8086 21.8086H19.9922V20.4463H21.8086V21.8086ZM19.084 14.543C19.5857 14.543 19.9922 14.9496 19.9922 15.4512C19.9922 15.9528 19.5857 16.3594 19.084 16.3594C18.5824 16.3594 18.1758 15.9528 18.1758 15.4512C18.1758 14.9496 18.5824 14.543 19.084 14.543ZM4.91603 14.543C5.41767 14.543 5.82423 14.9496 5.82423 15.4512C5.82423 15.9528 5.41767 16.3594 4.91603 16.3594C4.41439 16.3594 4.00782 15.9528 4.00782 15.4512C4.00782 14.9496 4.41439 14.543 4.91603 14.543Z" fill="#009639"/>
<path d="M23.2094 2.65123L18.7516 0.659355C18.6039 0.593329 18.4481 0.569988 18.2979 0.583974C18.1477 0.570033 17.9917 0.59342 17.8441 0.659355L13.3863 2.65123C13.0592 2.7974 12.8486 3.12213 12.8486 3.48042V6.9389C12.8486 8.35937 13.4098 9.80918 14.3883 10.9166C15.4331 12.0991 16.7997 12.7503 18.2365 12.7503H18.3591C19.796 12.7503 21.1626 12.0991 22.2073 10.9166C23.1858 9.80918 23.747 8.35933 23.747 6.9389V3.48042C23.747 3.12218 23.5365 2.7974 23.2094 2.65123ZM21.9306 4.06934V6.9389C21.9306 8.82474 20.4032 10.9339 18.3591 10.9339H18.2365C16.1924 10.9339 14.665 8.82469 14.665 6.9389V4.06934L18.2978 2.44611L21.9306 4.06934H21.9306Z" fill="#009639"/>
</svg>
