<svg width="24" height="24" viewBox="0 0 24 24" fill="none" xmlns="http://www.w3.org/2000/svg">
<path d="M11.8652 22.7168C11.8652 23.2184 11.4587 23.625 10.957 23.625H5.13281C3.12962 23.625 1.5 21.9954 1.5 19.9922V4.00781C1.5 2.00462 3.12962 0.375 5.13281 0.375H17.7568C19.76 0.375 21.3896 2.00462 21.3896 4.00781V10.0474C21.3896 10.549 20.9831 10.9556 20.4814 10.9556C19.9798 10.9556 19.5732 10.549 19.5732 10.0474V4.00781C19.5732 3.00631 18.7583 2.19141 17.7568 2.19141H5.13281C4.13131 2.19141 3.31641 3.00631 3.31641 4.00781V19.9922C3.31641 20.9937 4.13131 21.8086 5.13281 21.8086H10.957C11.4587 21.8086 11.8652 22.2152 11.8652 22.7168ZM6.99835 12.1816C6.99835 11.68 6.54265 11.2734 6.04101 11.2734C5.53937 11.2734 5.13281 11.68 5.13281 12.1816C5.13281 12.6833 5.53937 13.0898 6.04101 13.0898C6.54265 13.0898 6.99835 12.6833 6.99835 12.1816ZM10.582 12.1816C10.582 11.68 10.1755 11.2734 9.67383 11.2734C9.17219 11.2734 8.76562 11.68 8.76562 12.1816C8.76562 12.6833 9.17219 13.0898 9.67383 13.0898C10.1755 13.0898 10.582 12.6833 10.582 12.1816ZM6.99463 15.6328C6.99463 15.1312 6.54265 14.7246 6.04101 14.7246C5.53937 14.7246 5.13281 15.1312 5.13281 15.6328C5.13281 16.1345 5.53937 16.541 6.04101 16.541C6.54265 16.541 6.99463 16.1345 6.99463 15.6328ZM10.582 15.6328C10.582 15.1312 10.1755 14.7246 9.67383 14.7246C9.17219 14.7246 8.76562 15.1312 8.76562 15.6328C8.76562 16.1345 9.17219 16.541 9.67383 16.541C10.1755 16.541 10.582 16.1345 10.582 15.6328ZM6.04101 18.1758C5.53937 18.1758 5.13281 18.5823 5.13281 19.084C5.13281 19.5856 5.53937 19.9922 6.04101 19.9922C6.54265 19.9922 6.94922 19.5856 6.94922 19.084C6.94922 18.5823 6.54265 18.1758 6.04101 18.1758ZM9.62842 18.1758C9.12678 18.1758 8.72021 18.5823 8.72021 19.084C8.72021 19.5856 9.12678 19.9922 9.62842 19.9922C10.1301 19.9922 10.5366 19.5856 10.5366 19.084C10.5366 18.5823 10.1301 18.1758 9.62842 18.1758ZM16.8486 9.45703H6.04101C5.53937 9.45703 5.13281 9.05047 5.13281 8.54883V4.91602C5.13281 4.41438 5.53937 4.00781 6.04101 4.00781H16.8486C17.3503 4.00781 17.7568 4.41438 17.7568 4.91602V8.54883C17.7568 9.05047 17.3503 9.45703 16.8486 9.45703ZM15.9404 5.82422H6.94922V7.64062H15.9404V5.82422Z" fill="#69C055"/>
<path d="M22.4599 13.526L18.0021 11.5341C17.8544 11.4681 17.6986 11.4447 17.5483 11.4587C17.3982 11.4448 17.2422 11.4682 17.0946 11.5341L12.6368 13.526C12.3097 13.6722 12.0991 13.9969 12.0991 14.3552V17.8137C12.0991 19.2341 12.6603 20.6839 13.6388 21.7914C14.6835 22.9738 16.0502 23.625 17.487 23.625H17.6096C19.0465 23.625 20.4131 22.9738 21.4578 21.7914C22.4363 20.6839 22.9975 19.2341 22.9975 17.8137V14.3552C22.9975 13.9969 22.7869 13.6722 22.4599 13.526ZM21.1811 14.9441V17.8137C21.1811 19.6995 19.6537 21.8086 17.6096 21.8086H17.487C15.4429 21.8086 13.9155 19.6994 13.9155 17.8137V14.9441L17.5483 13.3209L21.1811 14.9441H21.1811Z" fill="#69C055"/>
</svg>
