<svg width="70" height="70" viewBox="0 0 70 70" fill="none" xmlns="http://www.w3.org/2000/svg">
<path d="M11 35C11 21.7452 21.7452 11 35 11C48.2548 11 59 21.7452 59 35C59 48.2548 48.2548 59 35 59C21.7452 59 11 48.2548 11 35Z" fill="white"/>
<path fill-rule="evenodd" clip-rule="evenodd" d="M45.7168 35.5794C45.2152 35.5794 44.8086 35.986 44.8086 36.4876V40.7969C44.8086 41.1432 44.6162 41.4544 44.3065 41.6092L44.2955 41.6149L39.0344 44.3362C38.781 44.461 38.4794 44.4603 38.2267 44.3339L32.5857 41.5134C31.8227 41.132 30.9117 41.132 30.1487 41.5134L30.1327 41.5216L26.499 43.4291C26.0932 43.6283 25.7509 43.4655 25.6221 43.386C25.4927 43.3059 25.1914 43.0704 25.1914 42.6133V33.9601C25.1914 33.6139 25.3838 33.3026 25.6935 33.1478L25.7045 33.1422L30.9656 30.4209C31.219 30.296 31.5206 30.2968 31.7733 30.4232L35.1829 32.128C35.6314 32.3522 36.1771 32.1704 36.4014 31.7218C36.6257 31.2732 36.4439 30.7276 35.9953 30.5033L32.5857 28.7985C31.8227 28.4171 30.9117 28.4171 30.1487 28.7985L30.1376 28.8042L24.875 31.5262C23.9496 31.9917 23.375 32.9237 23.375 33.9601V42.6134C23.375 43.5646 23.8581 44.431 24.6672 44.9311C25.4762 45.4311 26.4673 45.4757 27.3181 45.0504L27.3341 45.0422L30.9676 43.1348C31.2206 43.0109 31.5213 43.012 31.7734 43.1381L37.4144 45.9586C37.7959 46.1493 38.2144 46.2447 38.6329 46.2447C39.0514 46.2447 39.4699 46.1493 39.8513 45.9586L39.8624 45.9529L45.125 43.2309C46.0504 42.7653 46.625 41.8333 46.625 40.7969V36.4876C46.625 35.986 46.2184 35.5794 45.7168 35.5794ZM31.3672 39.4131C30.8656 39.4131 30.459 39.0065 30.459 38.5049V33.2659C30.459 32.7643 30.8656 32.3577 31.3672 32.3577C31.8688 32.3577 32.2754 32.7643 32.2754 33.2659V38.5049C32.2754 39.0065 31.8688 39.4131 31.3672 39.4131ZM39.541 36.4876V41.4912C39.541 41.9928 39.1344 42.3994 38.6328 42.3994C38.1312 42.3994 37.7246 41.9928 37.7246 41.4912V36.4876C37.7246 35.986 38.1312 35.5794 38.6328 35.5794C39.1344 35.5794 39.541 35.986 39.541 36.4876Z" fill="#F7B801"/>
<path fill-rule="evenodd" clip-rule="evenodd" d="M37.543 28.2964C37.543 25.7925 39.58 23.7554 42.084 23.7554C44.5879 23.7554 46.625 25.7925 46.625 28.2963C46.625 29.6947 45.8706 31.5765 44.3826 33.8895C43.8758 34.6775 43.0165 35.1479 42.084 35.1479C41.1515 35.1479 40.2922 34.6775 39.7853 33.8895C38.2974 31.5765 37.543 29.6947 37.543 28.2964ZM42.084 33.3316C42.4004 33.3316 42.6814 33.1768 42.855 32.9069C44.1148 30.9485 44.8086 29.3112 44.8086 28.2964C44.8086 26.794 43.5863 25.5718 42.084 25.5718C40.5816 25.5718 39.3594 26.794 39.3594 28.2964C39.3594 29.3112 40.0532 30.9485 41.313 32.9068C41.4866 33.1768 41.7676 33.3316 42.084 33.3316ZM42.9922 28.2964C42.9922 28.798 42.5856 29.2046 42.084 29.2046C41.5824 29.2046 41.1758 28.798 41.1758 28.2964C41.1758 27.7948 41.5824 27.3882 42.084 27.3882C42.5856 27.3882 42.9922 27.7948 42.9922 28.2964Z" fill="#868686"/>
</svg>
