<svg width="24" height="24" viewBox="0 0 64 64" fill="none" xmlns="http://www.w3.org/2000/svg">
<path d="M24.375 58.1562H16.6875C14.0168 58.1562 11.8437 55.9832 11.8437 53.3125V21.4648H18.9883C23.6622 21.4648 27.4648 17.6622 27.4648 12.9883C27.4648 11.6506 26.3807 10.5664 25.043 10.5664C23.7053 10.5664 22.6211 11.6506 22.6211 12.9883C22.6211 14.9915 20.9915 16.6211 18.9883 16.6211H12.2591C12.4833 16.1301 12.7941 15.6769 13.1852 15.2824L21.1826 7.2141C22.0454 6.34326 23.2441 5.84375 24.4701 5.84375H46.4628C49.134 5.84375 51.3066 8.01682 51.3066 10.6875V23.5234C51.3066 24.8611 52.3912 25.9453 53.7285 25.9453C55.0662 25.9453 56.1503 24.8611 56.1503 23.5234V10.6875C56.1503 5.34566 51.8047 1 46.4628 1H24.4701C21.9608 1 19.5086 2.0222 17.7423 3.80408L9.74495 11.8724C7.9749 13.6586 7 16.0265 7 18.5411V53.3125C7 58.6543 11.3457 63 16.6875 63H24.375C25.7127 63 26.7969 61.9158 26.7969 60.5781C26.7969 59.2404 25.7127 58.1562 24.375 58.1562Z" fill="#009639"/>
<path fill-rule="evenodd" clip-rule="evenodd" d="M56.5 34.5783V44.8097C56.4999 48.8855 54.8999 53.0556 52.1035 56.2433C49.1198 59.6439 45.2395 61.4971 41.1807 61.4972H40.8193C36.8846 61.4971 33.1226 59.7583 30.1787 56.5607L29.8965 56.2462C27.1015 53.0584 25.5001 48.8868 25.5 44.8126V34.5812C25.4998 34.1584 25.6215 33.745 25.8496 33.3908C26.0777 33.0365 26.4034 32.7566 26.7852 32.5851L39.874 26.6925L40.0859 26.6105C40.3016 26.5395 40.5272 26.5023 40.7549 26.5021H41.0361L41.0708 26.4975L41.0827 26.4976L41.1045 26.4982L41.135 26.4991L41.1621 26.5001L41.1904 26.5012L41.2193 26.5019L41.2461 26.5021C41.5507 26.5023 41.8576 26.568 42.1338 26.6925L55.2168 32.5822C55.5983 32.7539 55.9225 33.0337 56.1504 33.3878C56.3783 33.7421 56.5001 34.1555 56.5 34.5783ZM48.4424 52.9767C50.4531 50.6877 51.6122 47.7122 51.6123 44.8097V36.3624L41.2061 31.6779L41.001 31.5851L40.7959 31.6779L30.3877 36.3624V44.8097C30.3878 47.7125 31.5486 50.6865 33.5576 52.9767C35.569 55.2694 38.1482 56.5664 40.8193 56.5665H41.1807C43.8566 56.5664 46.43 55.2674 48.4424 52.9767Z" fill="#009639"/>
</svg>
