<svg width="24" height="24" viewBox="0 0 24 24" fill="none" xmlns="http://www.w3.org/2000/svg">
<path d="M21.8086 12.7972V8.43781C21.8086 7.43612 20.9937 6.6214 19.9922 6.6214H4.00781C3.00631 6.6214 2.19141 7.43612 2.19141 8.43781V12.7972H5.23389C5.73553 12.7972 6.14209 13.2037 6.14209 13.7054C6.14209 14.207 5.73553 14.6136 5.23389 14.6136H2.19141V19.0184C2.19141 20.0199 3.00631 20.8348 4.00781 20.8348H19.9922C20.9937 20.8348 21.8086 20.0199 21.8086 19.0184V18.2464C21.8086 17.7448 22.2152 17.3382 22.7168 17.3382C23.2184 17.3382 23.625 17.7448 23.625 18.2464V19.0184C23.625 21.0214 21.9954 22.6512 19.9922 22.6512H4.00781C2.00462 22.6512 0.375 21.0214 0.375 19.0184V8.43781C0.375 6.43462 2.00462 4.805 4.00781 4.805H7.91646V3.62096C7.91646 2.24464 9.0361 1.125 10.4122 1.125H13.5878C14.9639 1.125 16.0835 2.24464 16.0835 3.62096V4.80482H19.9922C21.9954 4.80482 23.625 6.43462 23.625 8.43763V13.7052C23.625 14.2069 23.2184 14.6134 22.7168 14.6134C22.6545 14.6134 22.5939 14.6072 22.5352 14.5953C22.4764 14.6072 22.4158 14.6134 22.3535 14.6134H18.8569C18.3553 14.6134 17.9487 14.2069 17.9487 13.7052C17.9487 13.2037 18.3553 12.797 18.8569 12.797L21.8086 12.7972ZM9.73286 4.805H14.2671V3.62096C14.2671 3.24633 13.9624 2.94141 13.5878 2.94141H10.4122C10.0376 2.94141 9.73286 3.24615 9.73286 3.62096V4.805Z" fill="#009639"/>
<path d="M11.1377 14.6133V16.8838C11.1377 17.3853 11.5443 17.792 12.0459 17.792C12.5475 17.792 12.9541 17.3854 12.9541 16.8838V14.6133H15.2246C15.7262 14.6133 16.1328 14.2067 16.1328 13.7051C16.1328 13.2034 15.7262 12.7969 15.2246 12.7969H12.9541V10.5264C12.9541 10.0247 12.5475 9.61816 12.0459 9.61816C11.5443 9.61816 11.1377 10.0247 11.1377 10.5264V12.7969H8.86719C8.36555 12.7969 7.95898 13.2034 7.95898 13.7051C7.95898 14.2067 8.36555 14.6133 8.86719 14.6133H11.1377Z" fill="#009639"/>
</svg>
