<svg width="30" height="17" viewBox="0 0 30 17" fill="none" xmlns="http://www.w3.org/2000/svg">
<path d="M29.4963 15.3049C29.4604 15.2276 29.4269 15.1634 29.3959 15.1119C28.8814 14.1853 27.8982 13.048 26.4469 11.6996L26.4163 11.6687L26.4009 11.6536L26.3854 11.638H26.3698C25.7112 11.0101 25.2941 10.588 25.1194 10.3718C24.7998 9.96008 24.7282 9.54331 24.9029 9.12102C25.0263 8.80196 25.4898 8.12817 26.2924 7.0987C26.7146 6.55312 27.049 6.11585 27.2959 5.78642C29.0767 3.41893 29.8487 1.90607 29.6119 1.24725L29.5199 1.0933C29.4581 1.00061 29.2986 0.915815 29.0415 0.838485C28.7839 0.761317 28.4546 0.748556 28.0531 0.799983L23.6067 0.830698C23.5347 0.805174 23.4318 0.807553 23.2978 0.838485C23.164 0.869417 23.097 0.884938 23.097 0.884938L23.0196 0.923602L22.9582 0.970054C22.9067 1.00077 22.8501 1.05479 22.7883 1.13202C22.7268 1.20897 22.6754 1.29927 22.6343 1.40218C22.1502 2.64763 21.5998 3.80558 20.9821 4.87598C20.6012 5.51425 20.2514 6.0674 19.932 6.53576C19.613 7.00396 19.3454 7.34892 19.1294 7.57004C18.9131 7.79137 18.7179 7.96869 18.5426 8.10264C18.3675 8.23664 18.2339 8.29326 18.1414 8.27255C18.0486 8.25184 17.9613 8.23129 17.8786 8.21074C17.7346 8.11805 17.6188 7.992 17.5314 7.83247C17.4437 7.67295 17.3847 7.47216 17.3538 7.23027C17.3231 6.98822 17.3049 6.78003 17.2997 6.60498C17.2949 6.43015 17.2971 6.18286 17.3075 5.8638C17.3183 5.54459 17.3231 5.3286 17.3231 5.21537C17.3231 4.82417 17.3307 4.39961 17.346 3.94158C17.3616 3.48355 17.3742 3.12064 17.3847 2.85328C17.3952 2.58566 17.4001 2.30251 17.4001 2.00401C17.4001 1.7055 17.3819 1.4714 17.346 1.30149C17.3105 1.1318 17.2561 0.96708 17.1843 0.807391C17.1121 0.647864 17.0064 0.52446 16.8678 0.436856C16.7289 0.349359 16.5561 0.279924 16.3506 0.228335C15.805 0.104877 15.1103 0.0380923 14.2661 0.0277095C12.3517 0.00716026 11.1216 0.13078 10.5761 0.398407C10.36 0.511482 10.1644 0.665979 9.98947 0.861413C9.80415 1.08794 9.7783 1.21156 9.91209 1.2319C10.5298 1.32442 10.967 1.54576 11.2244 1.89569L11.3171 2.08112C11.3893 2.21491 11.4613 2.45176 11.5334 2.79137C11.6053 3.13097 11.6518 3.50664 11.6722 3.91817C11.7236 4.66967 11.7236 5.31297 11.6722 5.84812C11.6207 6.38348 11.572 6.80025 11.5256 7.09876C11.4791 7.39726 11.4097 7.63915 11.3171 7.82436C11.2244 8.00963 11.1627 8.12287 11.1317 8.16397C11.1009 8.20506 11.0751 8.23097 11.0547 8.24113C10.9209 8.2924 10.7818 8.31852 10.6377 8.31852C10.4935 8.31852 10.3186 8.24638 10.1128 8.10221C9.90706 7.95804 9.69351 7.76001 9.47217 7.5078C9.25084 7.25553 9.00122 6.903 8.72321 6.45016C8.44541 5.99732 8.15718 5.46212 7.85868 4.84456L7.61171 4.39669C7.45732 4.10857 7.24642 3.68904 6.97879 3.13849C6.711 2.58771 6.47431 2.05495 6.26855 1.5403C6.1863 1.32415 6.06273 1.15959 5.89807 1.04636L5.82079 0.999905C5.76942 0.958806 5.68695 0.915166 5.57382 0.86866C5.46053 0.822208 5.34232 0.788896 5.2187 0.768401L0.98831 0.799117C0.556019 0.799117 0.262706 0.89705 0.108262 1.09265L0.0464521 1.18517C0.0155742 1.23671 0 1.31901 0 1.4323C0 1.54554 0.0308779 1.68452 0.0926879 1.84908C0.710247 3.3005 1.38183 4.70028 2.10743 6.04864C2.83304 7.39699 3.46357 8.48313 3.99867 9.30607C4.53387 10.1296 5.07939 10.9069 5.63525 11.6374C6.19111 12.3683 6.55905 12.8366 6.73907 13.0424C6.91931 13.2486 7.06088 13.4027 7.16379 13.5056L7.54985 13.8761C7.79687 14.1231 8.15962 14.419 8.63825 14.7638C9.117 15.1087 9.647 15.4483 10.2285 15.7831C10.8102 16.1174 11.4869 16.3902 12.2589 16.6011C13.0309 16.8123 13.7822 16.897 14.5131 16.8561H16.2886C16.6487 16.825 16.9215 16.7118 17.107 16.5164L17.1684 16.439C17.2097 16.3776 17.2484 16.2821 17.2841 16.1537C17.3202 16.025 17.3382 15.8833 17.3382 15.7291C17.3276 15.2866 17.3613 14.8878 17.4383 14.5327C17.5153 14.1778 17.603 13.9101 17.7011 13.7299C17.7991 13.5498 17.9097 13.3979 18.0329 13.2747C18.1563 13.1512 18.2442 13.0764 18.2958 13.0507C18.3471 13.0248 18.388 13.0072 18.4189 12.9967C18.6659 12.9144 18.9566 12.9941 19.2915 13.2362C19.626 13.4781 19.9398 13.7767 20.2334 14.1317C20.5267 14.487 20.8792 14.8856 21.2909 15.3281C21.7028 15.7708 22.0629 16.0998 22.3716 16.3163L22.6803 16.5015C22.8864 16.6252 23.154 16.7384 23.4835 16.8413C23.8123 16.9442 24.1004 16.9699 24.3478 16.9185L28.3001 16.8568C28.6911 16.8568 28.9953 16.7921 29.211 16.6637C29.4272 16.535 29.5557 16.3933 29.5971 16.2391C29.6384 16.0848 29.6406 15.9097 29.6049 15.7139C29.5683 15.5186 29.5322 15.3821 29.4963 15.3049Z" fill="#C9CACA"/>
</svg>
