<svg width="24" height="24" viewBox="0 0 24 24" fill="none" xmlns="http://www.w3.org/2000/svg">
<path d="M23.3322 13.6343C23.1619 13.1624 22.6413 12.9182 22.1696 13.0883C21.6978 13.2587 21.4533 13.7792 21.6236 14.251C21.7464 14.5911 21.8086 14.949 21.8086 15.315V18.6299H18.9607L16.0479 15.7171C15.8776 15.5468 15.6467 15.4512 15.4058 15.4512H8.59426C8.35337 15.4512 8.12242 15.5468 7.95213 15.7171L5.03931 18.6299H2.19141V15.315C2.19141 13.5873 3.597 12.1817 5.32472 12.1817H11.8741C12.3757 12.1817 12.7823 11.7751 12.7823 11.2735C12.7823 10.7718 12.3757 10.3653 11.8741 10.3653H5.32472C5.03434 10.3653 4.75 10.3906 4.4731 10.4389L5.89856 7.61278C6.45998 6.50946 7.57785 5.82422 8.81581 5.82422H10.742C11.2436 5.82422 11.6502 5.41766 11.6502 4.91602C11.6502 4.41438 11.2436 4.00781 10.742 4.00781H8.81581C6.89084 4.00781 5.15266 5.07353 4.27815 6.79203L1.6974 11.9088C1.68392 11.9355 1.67221 11.9622 1.66174 11.9894C0.862628 12.8687 0.375 14.036 0.375 15.315V22.7168C0.375 23.2185 0.781564 23.625 1.28321 23.625H4.91603C5.41767 23.625 5.82423 23.2185 5.82423 22.7168V20.4463H18.1758V22.7168C18.1758 23.2185 18.5824 23.625 19.084 23.625H22.7169C23.2185 23.625 23.6251 23.2185 23.6251 22.7168V15.315C23.6251 14.7381 23.5264 14.1726 23.3322 13.6343ZM8.97049 17.2676H15.0296L16.3919 18.6299H7.60818L8.97049 17.2676ZM4.00782 21.8086H2.19141V20.4463H4.00782V21.8086ZM21.8086 21.8086H19.9922V20.4463H21.8086V21.8086ZM19.084 14.543C19.5857 14.543 19.9922 14.9496 19.9922 15.4512C19.9922 15.9528 19.5857 16.3594 19.084 16.3594C18.5824 16.3594 18.1758 15.9528 18.1758 15.4512C18.1758 14.9496 18.5824 14.543 19.084 14.543ZM4.91603 14.543C5.41767 14.543 5.82423 14.9496 5.82423 15.4512C5.82423 15.9528 5.41767 16.3594 4.91603 16.3594C4.41439 16.3594 4.00782 15.9528 4.00782 15.4512C4.00782 14.9496 4.41439 14.543 4.91603 14.543Z" fill="#69C055"/>
<path d="M23.2099 2.65098L18.7521 0.659111C18.6044 0.593085 18.4486 0.569744 18.2983 0.58373C18.1482 0.569789 17.9922 0.593175 17.8446 0.659111L13.3868 2.65098C13.0597 2.79716 12.8491 3.12189 12.8491 3.48017V6.93865C12.8491 8.35913 13.4103 9.80894 14.3888 10.9164C15.4335 12.0988 16.8002 12.75 18.237 12.75H18.3596C19.7965 12.75 21.1631 12.0988 22.2078 10.9164C23.1863 9.80894 23.7475 8.35908 23.7475 6.93865V3.48017C23.7475 3.12193 23.5369 2.79716 23.2099 2.65098ZM21.9311 4.0691V6.93865C21.9311 8.82449 20.4037 10.9336 18.3596 10.9336H18.237C16.1929 10.9336 14.6655 8.82445 14.6655 6.93865V4.0691L18.2983 2.44586L21.9311 4.0691H21.9311Z" fill="#69C055"/>
</svg>
