<svg width="24" height="24" viewBox="0 0 24 24" fill="none" xmlns="http://www.w3.org/2000/svg">
<path d="M19.8235 19.9884L19.8235 19.9884C20.4728 19.2295 20.8304 18.2629 20.8304 17.2637V16.6365C20.8304 16.6365 20.8304 16.6365 20.8304 16.6364C20.8306 16.301 20.7646 15.9689 20.6364 15.659C20.5081 15.349 20.3201 15.0674 20.0829 14.8302C19.8458 14.593 19.5643 14.4048 19.2544 14.2764C18.9445 14.148 18.6124 14.0819 18.277 14.0819H5.73047C5.73045 14.0819 5.73044 14.0819 5.73042 14.0819C5.39502 14.0817 5.06287 14.1477 4.75296 14.2759C4.44303 14.4042 4.1614 14.5923 3.92417 14.8294C3.68694 15.0665 3.49875 15.348 3.37036 15.6579C3.24196 15.9678 3.17588 16.2999 3.17588 16.6353L3.17588 17.2659L3.17588 17.2659C3.17642 18.2633 3.53265 19.2278 4.18054 19.9861C5.91368 22.0169 8.54886 23.0103 11.9999 23.0103C15.4498 23.0103 18.086 22.0169 19.8235 19.9884ZM5.01224 16.6364L5.01224 16.6363C5.01212 16.5421 5.03057 16.4487 5.06655 16.3616C5.10253 16.2745 5.15533 16.1953 5.22194 16.1286C5.28853 16.0619 5.36763 16.009 5.45469 15.9729C5.54176 15.9368 5.63508 15.9183 5.72933 15.9183H18.2768C18.4669 15.9185 18.649 15.9942 18.7833 16.1286C18.9176 16.2631 18.993 16.4453 18.993 16.6353V17.2637V17.2637C18.9931 17.8251 18.7927 18.3681 18.4279 18.7947C17.0832 20.3663 14.9694 21.1739 11.9999 21.1739C9.03037 21.1739 6.91878 20.3663 5.57742 18.7937L5.57734 18.7936C5.21312 18.3677 5.01224 17.8256 5.01224 17.2659L5.01224 16.6364ZM14.1255 1.41925C13.4516 1.14011 12.7293 0.996436 11.9999 0.996436C10.5267 0.996436 9.1139 1.58164 8.07222 2.62332C7.03054 3.665 6.44533 5.07782 6.44533 6.55098C6.44533 8.02414 7.03054 9.43696 8.07222 10.4786C9.1139 11.5203 10.5267 12.1055 11.9999 12.1055C12.7293 12.1055 13.4516 11.9619 14.1255 11.6827C14.7994 11.4036 15.4117 10.9944 15.9275 10.4786C16.4433 9.96285 16.8525 9.35052 17.1316 8.67661C17.4108 8.00271 17.5544 7.28041 17.5544 6.55098C17.5544 5.82155 17.4108 5.09926 17.1316 4.42535C16.8525 3.75144 16.4433 3.13911 15.9275 2.62332C15.4117 2.10754 14.7994 1.69839 14.1255 1.41925ZM10.577 3.11583C11.0281 2.92897 11.5116 2.8328 11.9999 2.8328C12.986 2.8328 13.9317 3.22453 14.629 3.92183C15.3263 4.61912 15.7181 5.56486 15.7181 6.55098C15.7181 7.5371 15.3263 8.48284 14.629 9.18013C13.9317 9.87743 12.986 10.2692 11.9999 10.2692C11.5116 10.2692 11.0281 10.173 10.577 9.98613C10.1259 9.79928 9.71599 9.5254 9.37073 9.18013C9.02546 8.83487 8.75158 8.42498 8.56473 7.97387C8.37787 7.52276 8.2817 7.03926 8.2817 6.55098C8.2817 6.0627 8.37787 5.57921 8.56473 5.12809C8.75158 4.67698 9.02546 4.26709 9.37073 3.92183C9.71599 3.57656 10.1259 3.30269 10.577 3.11583Z" fill="#C3C3C3" stroke="#C3C3C3" stroke-width="0.2"/>
</svg>
