<svg width="70" height="70" viewBox="0 0 70 70" fill="none" xmlns="http://www.w3.org/2000/svg">
<path d="M11 35C11 21.7452 21.7452 11 35 11C48.2548 11 59 21.7452 59 35C59 48.2548 48.2548 59 35 59C21.7452 59 11 48.2548 11 35Z" fill="white"/>
<path fill-rule="evenodd" clip-rule="evenodd" d="M34.9999 27.975C34.7944 27.975 34.5972 27.8933 34.4519 27.748C34.3066 27.6027 34.2249 27.4055 34.2249 27.2V25.65C34.2249 25.4445 34.3066 25.2473 34.4519 25.102C34.5972 24.9567 34.7944 24.875 34.9999 24.875C35.2054 24.875 35.4026 24.9567 35.5479 25.102C35.6932 25.2473 35.7749 25.4445 35.7749 25.65V27.2C35.7749 27.4055 35.6932 27.6027 35.5479 27.748C35.4026 27.8933 35.2054 27.975 34.9999 27.975ZM31.8999 28.75C31.5629 28.75 31.4294 28.6144 30.9473 28.1251L30.9473 28.125C30.8417 28.0178 30.7194 27.8937 30.5746 27.7503C30.4287 27.6043 30.3467 27.4064 30.3467 27.2C30.3467 26.9936 30.4287 26.7957 30.5746 26.6498C30.7205 26.5038 30.9185 26.4218 31.1249 26.4218C31.3312 26.4218 31.5292 26.5038 31.6751 26.6498L32.4501 27.4248C32.5594 27.5332 32.6339 27.6716 32.6642 27.8226C32.6945 27.9735 32.6791 28.13 32.6201 28.2722C32.5611 28.4144 32.4611 28.5357 32.3328 28.6208C32.2045 28.7059 32.0538 28.7509 31.8999 28.75ZM37.667 28.6208C37.7952 28.7059 37.946 28.7509 38.0999 28.75C38.44 28.75 38.5648 28.623 39.0893 28.0896C39.1863 27.991 39.297 27.8784 39.4251 27.7503C39.5711 27.6043 39.6531 27.4064 39.6531 27.2C39.6531 26.9936 39.5711 26.7957 39.4251 26.6498C39.2792 26.5038 39.0813 26.4218 38.8749 26.4218C38.6685 26.4218 38.4706 26.5038 38.3246 26.6498L37.5496 27.4248C37.4403 27.5332 37.3658 27.6716 37.3355 27.8226C37.3052 27.9735 37.3206 28.13 37.3796 28.2722C37.4387 28.4144 37.5387 28.5357 37.667 28.6208Z" fill="#009639"/>
<path d="M35.93 36.6704C37.0848 37.2439 37.1932 37.3602 37.573 37.2362L39.774 36.4999H45.85C46.0555 36.4999 46.2527 36.4183 46.398 36.2729C46.5433 36.1276 46.625 35.9304 46.625 35.7249C46.625 35.5194 46.5433 35.3222 46.398 35.1769C46.2527 35.0316 46.0555 34.9499 45.85 34.9499H40.983L42.9748 31.4624C43.043 31.3441 43.1413 31.246 43.2598 31.178C43.3782 31.1099 43.5124 31.0744 43.649 31.0749H45.85C46.0555 31.0749 46.2527 30.9933 46.398 30.8479C46.5433 30.7026 46.625 30.5054 46.625 30.2999C46.625 30.0944 46.5433 29.8972 46.398 29.7519C46.2527 29.6066 46.0555 29.5249 45.85 29.5249H43.649C43.2399 29.5254 42.8381 29.6339 42.4843 29.8394C42.1305 30.0448 41.8372 30.34 41.634 30.6952L39.123 35.0817L37.387 35.6629L36.1237 35.0352C35.9783 34.9607 35.8131 34.9341 35.6516 34.9591C35.4902 34.9842 35.3408 35.0596 35.2248 35.1747L34.845 35.5544L33.7987 35.0352C33.6533 34.9607 33.4881 34.9341 33.3266 34.9591C33.1652 34.9842 33.0158 35.0596 32.8997 35.1747L32.4657 35.6164L31.7837 35.3839L34.7752 32.4002C34.9212 32.2542 35.0032 32.0563 35.0032 31.8499C35.0032 31.6435 34.9212 31.4456 34.7752 31.2997C34.6293 31.1537 34.4314 31.0717 34.225 31.0717C34.0186 31.0717 33.8207 31.1537 33.6747 31.2997L30.5205 34.4617L28.366 30.6952C28.1628 30.34 27.8695 30.0448 27.5157 29.8394C27.1619 29.6339 26.7601 29.5254 26.351 29.5249H24.15C23.9445 29.5249 23.7473 29.6066 23.602 29.7519C23.4567 29.8972 23.375 30.0944 23.375 30.2999C23.375 30.5054 23.4567 30.7026 23.602 30.8479C23.7473 30.9933 23.9445 31.0749 24.15 31.0749H26.351C26.4876 31.0744 26.6218 31.1099 26.7402 31.178C26.8586 31.246 26.957 31.3441 27.0252 31.4624L29.017 34.9499H24.15C23.9445 34.9499 23.7473 35.0316 23.602 35.1769C23.4567 35.3222 23.375 35.5194 23.375 35.7249C23.375 35.9304 23.4567 36.1276 23.602 36.2729C23.7473 36.4183 23.9445 36.4999 24.15 36.4999H30.226L32.427 37.2362C32.5609 37.2782 32.7037 37.2832 32.8402 37.2504C32.9767 37.2177 33.1018 37.1484 33.202 37.0502L33.5817 36.6704L34.2017 36.9804V38.0499H33.45C33.2445 38.0499 33.0473 38.1316 32.902 38.2769C32.7567 38.4222 32.675 38.6194 32.675 38.8249C32.675 39.0304 32.7567 39.2276 32.902 39.3729C33.0473 39.5183 33.2445 39.5999 33.45 39.5999H34.225V40.6694C33.3492 40.2354 33.6902 40.2509 31.714 40.9097C31.4897 40.2905 31.0741 39.7588 30.5274 39.3917C29.9807 39.0247 29.3313 38.8412 28.6733 38.868C28.0153 38.8947 27.383 39.1303 26.8679 39.5406C26.3528 39.9509 25.9817 40.5146 25.8085 41.1499H24.15C23.9445 41.1499 23.7473 41.2316 23.602 41.3769C23.4567 41.5222 23.375 41.7194 23.375 41.9249C23.375 42.1304 23.4567 42.3276 23.602 42.4729C23.7473 42.6183 23.9445 42.6999 24.15 42.6999H25.8085C25.9913 43.3733 26.3959 43.9654 26.9569 44.3803C27.5179 44.7952 28.2024 45.0087 28.8998 44.9863C29.5972 44.9639 30.2667 44.7069 30.7999 44.2568C31.3331 43.8067 31.6988 43.1899 31.838 42.5062L33.388 41.9869C34.7055 42.6457 34.8063 42.7619 35.155 42.6767C35.869 42.4828 36.5725 42.2526 37.263 41.9869L38.1542 42.4287C38.2802 43.1191 38.6366 43.7464 39.1653 44.2079C39.694 44.6694 40.3637 44.9379 41.0648 44.9694C41.7659 45.0009 42.457 44.7936 43.0249 44.3813C43.5929 43.969 44.0042 43.3763 44.1915 42.6999H45.85C46.0555 42.6999 46.2527 42.6183 46.398 42.4729C46.5433 42.3276 46.625 42.1304 46.625 41.9249C46.625 41.7194 46.5433 41.5222 46.398 41.3769C46.2527 41.2316 46.0555 41.1499 45.85 41.1499H44.1915C44.0234 40.5224 43.6625 39.9635 43.1597 39.5523C42.6568 39.141 42.0375 38.8981 41.3891 38.8578C40.7408 38.8176 40.0961 38.982 39.5463 39.3279C38.9964 39.6738 38.5691 40.1838 38.3247 40.7857C37.201 40.2199 37.5962 40.2432 35.775 40.8477V39.5999H36.55C36.7555 39.5999 36.9527 39.5183 37.098 39.3729C37.2433 39.2276 37.325 39.0304 37.325 38.8249C37.325 38.6194 37.2433 38.4222 37.098 38.2769C36.9527 38.1316 36.7555 38.0499 36.55 38.0499H35.775V36.8177L35.93 36.6704ZM28.8 43.4749C28.4934 43.4749 28.1938 43.384 27.9389 43.2137C27.684 43.0434 27.4853 42.8013 27.368 42.5181C27.2507 42.2348 27.22 41.9232 27.2798 41.6225C27.3396 41.3218 27.4872 41.0457 27.704 40.8289C27.9208 40.6121 28.1969 40.4645 28.4976 40.4047C28.7983 40.3449 29.1099 40.3756 29.3932 40.4929C29.6764 40.6102 29.9185 40.8089 30.0888 41.0638C30.2591 41.3187 30.35 41.6183 30.35 41.9249C30.35 42.336 30.1867 42.7302 29.896 43.0209C29.6053 43.3116 29.2111 43.4749 28.8 43.4749ZM41.2 40.3749C41.5066 40.3749 41.8062 40.4658 42.0611 40.6361C42.316 40.8064 42.5147 41.0485 42.632 41.3317C42.7493 41.615 42.78 41.9266 42.7202 42.2273C42.6604 42.528 42.5128 42.8041 42.296 43.0209C42.0792 43.2377 41.8031 43.3853 41.5024 43.4451C41.2017 43.5049 40.8901 43.4742 40.6068 43.3569C40.3236 43.2396 40.0815 43.0409 39.9112 42.786C39.7409 42.5311 39.65 42.2315 39.65 41.9249C39.65 41.5138 39.8133 41.1196 40.104 40.8289C40.3947 40.5382 40.7889 40.3749 41.2 40.3749Z" fill="#868686"/>
</svg>
