<svg width="24" height="24" viewBox="0 0 24 24" fill="none" xmlns="http://www.w3.org/2000/svg">
<path fill-rule="evenodd" clip-rule="evenodd" d="M4.05043 16.2348H19.9496V5.41986H19.2686C18.767 5.41986 18.3604 5.00781 18.3604 4.49939C18.3604 3.99116 18.767 3.5791 19.2686 3.5791C19.5982 3.5791 19.9253 3.5791 20.2518 3.5791C21.0795 3.57911 21.7508 4.25862 21.7518 5.09751L21.766 16.8403L23.3507 19.7779C23.7321 20.4848 23.7149 21.3254 23.3046 22.0268C22.8815 22.7498 22.1358 23.1817 21.3097 23.1817H2.69025C1.86418 23.1817 1.11846 22.7498 0.695407 22.0268C0.28512 21.3254 0.267914 20.4848 0.649287 19.7779L2.23403 16.8403V5.09936C2.23403 4.25975 2.90585 3.5791 3.73427 3.5791C4.17743 3.5791 4.31222 3.5791 4.7314 3.5791C5.23304 3.5791 5.6396 3.99116 5.6396 4.49939C5.6396 5.00781 5.23304 5.41986 4.7314 5.41986H4.05043V16.2348ZM14.2737 20.4688C14.7592 20.4688 15.1546 20.8573 15.1794 21.3431H21.3097C21.5737 21.3431 21.7076 21.1473 21.7422 21.0878C21.7899 21.0065 21.8552 20.8427 21.7571 20.661L20.3859 18.1194H3.61406L2.24289 20.661C2.1448 20.8427 2.21008 21.0065 2.25779 21.0878C2.29238 21.1473 2.42631 21.3431 2.69025 21.3431H8.8206C8.84544 20.8573 9.24082 20.4688 9.72632 20.4688H14.2737Z" fill="#69C055"/>
<path d="M12.8212 5.55036H13.5191C13.9727 5.55036 14.3403 5.92297 14.3403 6.38262C14.3403 6.84228 13.9727 7.21488 13.5191 7.21488H12C11.5465 7.21488 11.1788 6.84228 11.1788 6.38262V4.46842C11.1788 4.00877 11.5465 3.63616 12 3.63616C12.4535 3.63616 12.8212 4.00877 12.8212 4.46842V5.55036Z" fill="#69C055"/>
<path fill-rule="evenodd" clip-rule="evenodd" d="M6.375 6.38263C6.375 3.23909 8.89837 0.681641 12 0.681641C15.1016 0.681641 17.625 3.23909 17.625 6.38263C17.625 9.52616 15.1016 12.0836 12 12.0836C8.89837 12.0836 6.375 9.52616 6.375 6.38263ZM8.01734 6.38263C8.01734 8.60834 9.80395 10.4191 12 10.4191C14.1961 10.4191 15.9827 8.60834 15.9827 6.38263C15.9827 4.15691 14.1961 2.34616 12 2.34616C9.80395 2.34616 8.01734 4.15691 8.01734 6.38263Z" fill="#69C055"/>
</svg>
