<svg width="24" height="24" viewBox="0 0 24 24" fill="none" xmlns="http://www.w3.org/2000/svg">
<g clip-path="url(#clip0_3919_7)">
<path d="M22.3618 23.6246H1.60499C1.39146 23.6244 1.18156 23.5693 0.995452 23.4646C0.809344 23.3599 0.653277 23.2092 0.542241 23.0267C0.432739 22.8405 0.375 22.6284 0.375 22.4123C0.375 22.1962 0.432739 21.9841 0.542241 21.7978L7.00176 9.60841V2.86603H6.58662C6.25632 2.86603 5.93955 2.7348 5.70599 2.50123C5.47243 2.26765 5.34122 1.95084 5.34122 1.62051C5.34122 1.29018 5.47243 0.973382 5.70599 0.739803C5.93955 0.506223 6.25632 0.375 6.58662 0.375H17.3802C17.7105 0.375 18.0272 0.506223 18.2608 0.739803C18.4944 0.973382 18.6256 1.29018 18.6256 1.62051C18.6256 1.95084 18.4944 2.26765 18.2608 2.50123C18.0272 2.7348 17.7105 2.86603 17.3802 2.86603H16.965V9.60841L23.4578 21.7978C23.5673 21.9841 23.625 22.1962 23.625 22.4123C23.625 22.6284 23.5673 22.8405 23.4578 23.0267C23.3438 23.214 23.1825 23.3679 22.9901 23.4729C22.7977 23.5779 22.5809 23.6302 22.3618 23.6246ZM3.68067 21.1336H20.2861L14.6237 10.5052C14.5259 10.327 14.4745 10.1272 14.4742 9.92394V2.86603H9.49258V9.92394C9.49226 10.1272 9.44087 10.327 9.34313 10.5052L3.68067 21.1336Z" fill="#009639"/>
</g>
<defs>
<clipPath id="clip0_3919_7">
<rect width="24" height="24" fill="white"/>
</clipPath>
</defs>
</svg>
