<svg width="24" height="24" viewBox="0 0 24 24" fill="none" xmlns="http://www.w3.org/2000/svg">
<path d="M23.3569 12.2934C23.1797 12.4693 22.9483 12.5573 22.7168 12.5573C22.4833 12.5573 22.2501 12.4679 22.0725 12.2893L21.3545 11.5665V14.8732C21.3545 15.3749 20.9479 15.7814 20.4463 15.7814C19.9446 15.7814 19.5381 15.3749 19.5381 14.8732V9.73818L12.6309 2.78548C12.292 2.4951 11.7928 2.49404 11.4526 2.78299L4.46069 9.76107C4.46086 9.76993 4.46193 9.77845 4.46193 9.78732V19.4143C4.46193 20.4158 5.27683 21.2307 6.27833 21.2307H17.7217C18.7232 21.2307 19.5381 20.4158 19.5381 19.4143C19.5381 18.9126 19.9446 18.506 20.4463 18.506C20.9479 18.506 21.3545 18.9126 21.3545 19.4143C21.3545 21.4174 19.7248 23.0471 17.7217 23.0471H6.27833C4.27514 23.0471 2.64553 21.4174 2.64553 19.4143V11.5727L1.92482 12.292C1.56987 12.6464 0.994799 12.6458 0.640388 12.2907C0.285976 11.9358 0.286686 11.3607 0.641629 11.0063L10.1909 1.47586C10.2031 1.4638 10.2157 1.45191 10.2285 1.44038C11.2658 0.516925 12.8273 0.520295 13.8606 1.44801C13.8733 1.45954 13.8859 1.47142 13.898 1.48366L23.361 11.0091C23.7146 11.365 23.7128 11.94 23.3569 12.2934Z" fill="#69C055"/>
</svg>
