<svg width="24" height="24" viewBox="0 0 24 24" fill="none" xmlns="http://www.w3.org/2000/svg">
<path fill-rule="evenodd" clip-rule="evenodd" d="M6.08643 21.8086H5.13281C4.13125 21.8086 3.31641 20.9938 3.31641 19.9922V4.00781C3.31641 3.00625 4.13125 2.19141 5.13281 2.19141H16.2987C17.3002 2.19141 18.1151 3.00625 18.1151 4.00781V10.0928C18.1151 10.5944 18.5217 11.001 19.0233 11.001C19.5249 11.001 19.9315 10.5944 19.9315 10.0928V4.00781C19.9315 2.00468 18.3018 0.375 16.2987 0.375H5.13281C3.12968 0.375 1.5 2.00468 1.5 4.00781V19.9922C1.5 21.9953 3.12968 23.625 5.13281 23.625H6.08643C6.58803 23.625 6.99463 23.2184 6.99463 22.7168C6.99463 22.2152 6.58803 21.8086 6.08643 21.8086ZM11.7576 9.45703C12.2592 9.45703 12.6658 9.86363 12.6658 10.3652C12.6658 10.8668 12.2592 11.2734 11.7576 11.2734H6.03596C5.53436 11.2734 5.12775 10.8668 5.12775 10.3652C5.12775 9.86363 5.53436 9.45703 6.03596 9.45703H11.7576ZM5.12775 13.998C5.12775 13.4964 5.53436 13.0898 6.03596 13.0898H9.26512C9.76672 13.0898 10.1733 13.4964 10.1733 13.998C10.1733 14.4996 9.76672 14.9062 9.26512 14.9062H6.03596C5.53436 14.9062 5.12775 14.4996 5.12775 13.998ZM15.3904 5.82422C15.892 5.82422 16.2987 6.23082 16.2987 6.73242C16.2987 7.23402 15.892 7.64062 15.3904 7.64062H6.03596C5.53436 7.64062 5.12775 7.23402 5.12775 6.73242C5.12775 6.23082 5.53436 5.82422 6.03596 5.82422H15.3904Z" fill="#C3C3C3"/>
<path fill-rule="evenodd" clip-rule="evenodd" d="M22.1645 20.1582L22.1369 20.089L20.8033 17.8809L17.4931 12.5212C17.028 11.7683 16.2223 11.3188 15.3376 11.3188C14.4531 11.3188 13.6473 11.7683 13.1823 12.5212L8.71284 19.7576C8.22286 20.551 8.20147 21.5109 8.65576 22.3253C9.10963 23.1391 9.93673 23.625 10.8683 23.625H12.1261C12.6277 23.625 13.0343 23.2184 13.0343 22.7168C13.0343 22.2152 12.6277 21.8086 12.1261 21.8086H10.8683C10.4884 21.8086 10.3038 21.5512 10.2421 21.4405C10.1802 21.3296 10.0579 21.0365 10.2582 20.7121L14.7277 13.4757C14.9175 13.1684 15.2175 13.1353 15.3377 13.1353C15.4578 13.1353 15.7579 13.1684 15.9477 13.4757L19.2508 18.8237L20.497 20.8872C20.5581 21.0896 20.523 21.3132 20.399 21.4962C20.3199 21.6129 20.1379 21.8086 19.8071 21.8086H18.5744C18.0728 21.8086 17.6662 22.2152 17.6662 22.7168C17.6662 23.2184 18.0728 23.625 18.5744 23.625H19.8071C20.6484 23.625 21.4318 23.2101 21.9027 22.5151C22.3765 21.8158 22.4744 20.9347 22.1645 20.1582ZM16.2132 22.7168C16.2132 22.2152 15.8066 21.8086 15.305 21.8086H15.3046C14.803 21.8086 14.3966 22.2152 14.3966 22.7168C14.3966 23.2184 14.8034 23.625 15.305 23.625C15.8066 23.625 16.2132 23.2184 16.2132 22.7168ZM16.213 19.9922C16.213 20.4938 15.8064 20.9004 15.3048 20.9004C14.8032 20.9004 14.3966 20.4938 14.3966 19.9922V16.5864C14.3966 16.0848 14.8032 15.6782 15.3048 15.6782C15.8064 15.6782 16.213 16.0848 16.213 16.5864V19.9922Z" fill="#C3C3C3"/>
</svg>
