<svg width="70" height="70" viewBox="0 0 70 70" fill="none" xmlns="http://www.w3.org/2000/svg">
<path d="M11 35C11 21.7452 21.7452 11 35 11C48.2548 11 59 21.7452 59 35C59 48.2548 48.2548 59 35 59C21.7452 59 11 48.2548 11 35Z" fill="white"/>
<path d="M35.0002 46.7001C27.9502 46.7001 27.0502 41.7501 27.0502 37.4001C27.0502 35.8251 27.3502 34.3626 27.9502 33.0876C27.3502 33.3876 26.7877 33.7626 26.5627 34.1376C25.8502 35.1876 25.1377 36.8001 25.1377 36.8376C24.9502 37.2501 24.4627 37.4751 24.0127 37.2501C23.6002 37.0626 23.4127 36.5751 23.6002 36.1251C23.6377 36.0501 24.3877 34.3626 25.1752 33.2001C25.8127 32.2626 27.1252 31.5876 28.1002 31.1751C27.5002 31.1001 26.9002 30.8376 26.1877 30.4626C24.6502 29.5626 23.8252 27.2751 23.7502 27.0126C23.5627 26.5626 23.7877 26.1126 24.2377 25.9626C24.6877 25.8126 25.1752 26.0376 25.2877 26.4876C25.4752 27.0126 26.1502 28.5501 26.9752 29.0376C28.0252 29.6376 28.5877 29.7126 29.6752 29.4126C29.7127 29.3751 29.7502 29.3376 29.7877 29.3001C29.3002 28.9626 28.8502 28.5876 28.4002 28.1001C27.2377 26.8626 26.3752 24.5001 26.3377 24.4251C26.1877 23.9751 26.4127 23.4876 26.8252 23.3376C27.2752 23.1876 27.7627 23.4126 27.9127 23.8251C28.1377 24.4251 28.8502 26.1126 29.6002 26.9001C30.1627 27.4626 30.6502 27.8751 31.2877 28.1751C31.6627 26.0001 32.7127 23.3001 35.0002 23.3001C37.2877 23.3001 38.3377 26.0001 38.7127 28.2126C39.3502 27.9126 39.8377 27.5001 40.4002 26.9376C41.1502 26.1501 41.8627 24.4626 42.0877 23.8626C42.2377 23.4126 42.7252 23.1876 43.1752 23.3751C43.6252 23.5251 43.8502 24.0126 43.6627 24.4626C43.6252 24.5751 42.7627 26.9376 41.6002 28.1376C41.1502 28.6251 40.7002 29.0001 40.2127 29.3376C40.2502 29.3751 40.2877 29.4126 40.3252 29.4501C41.4127 29.7876 41.9752 29.6751 43.0252 29.0751C43.8502 28.5876 44.5252 27.0501 44.7127 26.5251C44.8627 26.0751 45.3502 25.8501 45.7627 26.0001C46.2127 26.1501 46.4377 26.6376 46.2877 27.0501C46.2127 27.3126 45.3877 29.6376 43.8502 30.5001C43.1752 30.9126 42.5752 31.1376 41.9377 31.2126C42.9127 31.6251 44.2627 32.3001 44.8627 33.2376C45.6502 34.4001 46.4002 36.0876 46.4377 36.1626C46.6252 36.5751 46.4377 37.1001 46.0252 37.2876C45.6127 37.4751 45.0877 37.2876 44.9002 36.8751C44.9002 36.8751 44.1877 35.2251 43.4752 34.1751C43.2877 33.8751 42.8752 33.5751 42.4252 33.3126C42.9877 34.5501 43.3252 35.9751 43.3252 37.4376C43.3252 40.4001 42.8752 42.4251 41.8252 43.8876C40.4752 45.8001 38.2627 46.7001 35.0002 46.7001ZM35.0002 29.8251C31.4752 29.8251 28.7002 33.1626 28.7002 37.4001C28.7002 43.7001 31.2127 44.9751 35.0002 44.9751C40.5502 44.9751 41.6752 42.0876 41.6752 37.4001C41.6752 33.3126 38.6002 29.8251 35.0002 29.8251ZM35.0002 24.9501C33.9502 24.9501 33.2377 26.7876 32.9752 28.4376C34.2502 28.0626 35.7502 28.0626 37.0627 28.4376C36.7627 26.7876 36.0502 24.9501 35.0002 24.9501Z" fill="#868686"/>
<path fill-rule="evenodd" clip-rule="evenodd" d="M31.438 32.2999C31.888 32.1874 32.338 32.4499 32.4505 32.8999C32.713 33.8749 33.7255 34.5124 35.0005 34.5124C36.2755 34.5124 37.3255 33.8749 37.5505 32.8999C37.663 32.4499 38.113 32.1874 38.563 32.2999C39.013 32.4124 39.2755 32.8624 39.163 33.3124C38.7505 34.9999 37.288 35.8999 35.8255 36.1249V43.2499C35.8255 43.6999 35.4505 44.0749 35.0005 44.0749C34.5505 44.0749 34.1755 43.6999 34.1755 43.2499V36.1624C32.713 35.9374 31.2505 35.0374 30.838 33.3499C30.688 32.8624 30.9505 32.4124 31.438 32.2999Z" fill="#3B86C8"/>

</svg>
