<svg width="24" height="24" viewBox="0 0 24 24" fill="none" xmlns="http://www.w3.org/2000/svg">
<path d="M9.76274 1.88047C9.93549 1.45348 10.2318 1.08781 10.6138 0.830336C10.9957 0.572858 11.4458 0.435303 11.9064 0.435303C12.367 0.435303 12.8172 0.572858 13.1991 0.830336C13.581 1.08781 13.8774 1.45348 14.0501 1.88047C15.7599 2.3507 17.2681 3.36921 18.343 4.77958C19.4179 6.18995 20.0001 7.91418 20.0002 9.68747V15.1184L22.1184 18.2958C22.2346 18.4699 22.3013 18.6723 22.3115 18.8814C22.3216 19.0905 22.2748 19.2984 22.1761 19.483C22.0773 19.6675 21.9303 19.8218 21.7507 19.9294C21.5712 20.037 21.3658 20.0938 21.1564 20.0937H15.9128C15.7736 21.057 15.292 21.9379 14.5562 22.575C13.8204 23.2121 12.8797 23.5627 11.9064 23.5627C10.9331 23.5627 9.99244 23.2121 9.25664 22.575C8.52085 21.9379 8.03923 21.057 7.90002 20.0937H2.65642C2.44709 20.0938 2.24168 20.037 2.0621 19.9294C1.88252 19.8218 1.73551 19.6675 1.63676 19.483C1.538 19.2984 1.49121 19.0905 1.50136 18.8814C1.51152 18.6723 1.57824 18.4699 1.69442 18.2958L3.81267 15.1184V9.68747C3.81267 5.95972 6.3333 2.81935 9.76274 1.88047ZM10.2715 20.0937C10.3909 20.4321 10.6123 20.7251 10.9053 20.9324C11.1982 21.1396 11.5482 21.2509 11.907 21.2509C12.2658 21.2509 12.6158 21.1396 12.9087 20.9324C13.2017 20.7251 13.4231 20.4321 13.5425 20.0937H10.2703H10.2715ZM11.9064 3.90622C10.3731 3.90622 8.90266 4.51532 7.81846 5.59951C6.73427 6.68371 6.12517 8.15419 6.12517 9.68747V15.4687C6.12522 15.6971 6.05763 15.9204 5.93092 16.1104L4.81745 17.7812H18.9942L17.8808 16.1104C17.7545 15.9203 17.6873 15.697 17.6877 15.4687V9.68747C17.6877 8.15419 17.0786 6.68371 15.9944 5.59951C14.9102 4.51532 13.4397 3.90622 11.9064 3.90622Z" fill="#292929"/>
</svg>
