<svg width="32" height="32" viewBox="0 0 32 32" fill="none" xmlns="http://www.w3.org/2000/svg">
<path fill-rule="evenodd" clip-rule="evenodd" d="M4 16C4 9.37258 9.37258 4 16 4C22.6274 4 28 9.37258 28 16C28 22.6274 22.6274 28 16 28C9.37258 28 4 22.6274 4 16ZM14.3866 20.3865C14.7599 20.7598 15.3733 20.7465 15.7333 20.3598L21.6266 13.9598C21.9466 13.5998 21.9199 13.0532 21.5733 12.7332C21.2266 12.4132 20.6666 12.4265 20.3466 12.7865L15.0266 18.5732L11.8266 15.3732C11.4933 15.0398 10.9333 15.0398 10.5999 15.3732C10.2666 15.7065 10.2666 16.2665 10.5999 16.5998L14.3866 20.3865Z" fill="#43B02A"/>
</svg>
