<svg width="32" height="32" viewBox="0 0 32 32" fill="none" xmlns="http://www.w3.org/2000/svg">
<path fill-rule="evenodd" clip-rule="evenodd" d="M4 16C4 9.37258 9.37258 4 16 4C22.6274 4 28 9.37258 28 16C28 22.6274 22.6274 28 16 28C9.37258 28 4 22.6274 4 16ZM16 9.66667C15.3741 9.66667 14.8667 10.1741 14.8667 10.8C14.8667 11.4259 15.3741 11.9333 16 11.9333C16.6259 11.9333 17.1333 11.4259 17.1333 10.8C17.1333 10.1741 16.6259 9.66667 16 9.66667ZM18.8 21.3333C18.8 21.8856 18.3523 22.3333 17.8 22.3333H17.7333C16.2237 22.3333 15 21.1096 15 19.6V14.6C15 14.0477 15.4477 13.6 16 13.6C16.5523 13.6 17 14.0477 17 14.6V19.6C17 20.005 17.3283 20.3333 17.7333 20.3333H17.8C18.3523 20.3333 18.8 20.781 18.8 21.3333Z" fill="#3B86C8"/>
</svg>
