<svg width="32" height="32" viewBox="0 0 32 32" fill="none" xmlns="http://www.w3.org/2000/svg">
<path fill-rule="evenodd" clip-rule="evenodd" d="M4 16C4 9.37258 9.37258 4 16 4C22.6274 4 28 9.37258 28 16C28 22.6274 22.6274 28 16 28C9.37258 28 4 22.6274 4 16ZM16 9.66667C16.5523 9.66667 17 10.1144 17 10.6667V17.3333C17 17.8856 16.5523 18.3333 16 18.3333C15.4477 18.3333 15 17.8856 15 17.3333V10.6667C15 10.1144 15.4477 9.66667 16 9.66667ZM16 22.2667C16.6259 22.2667 17.1333 21.7593 17.1333 21.1334C17.1333 20.5074 16.6259 20 16 20C15.3741 20 14.8667 20.5074 14.8667 21.1334C14.8667 21.7593 15.3741 22.2667 16 22.2667Z" fill="#EB5757"/>
</svg>
