<svg width="33" height="19" viewBox="0 0 33 19" fill="none" xmlns="http://www.w3.org/2000/svg">
<path d="M28.7224 12.0815C28.5559 12.0211 28.3778 12.0002 28.202 12.0204C28.0151 12.0204 27.9022 11.7947 27.9022 11.7947C27.9022 11.7947 27.3431 10.2521 27.2286 10.2521C27.1141 10.2521 26.8194 10.5915 26.5954 10.8918C26.5044 11.0123 26.3865 11.2584 26.2501 11.3297C26.0531 11.4315 26.1221 11.3212 25.9537 11.3297C25.6169 11.3551 25.2801 11.3399 25.0241 11.0853C24.8186 10.88 24.6873 10.6118 24.4801 10.4065C24.273 10.2011 23.9496 10.0671 23.7004 10.2096C23.6091 10.2759 23.5224 10.3485 23.441 10.4268C23.1329 10.6661 22.7 10.6118 22.3144 10.5558C20.5208 10.3013 18.7003 10.3148 16.8882 10.3301C12.459 10.3624 8.0315 10.3912 3.60231 10.3827C1.61507 10.3827 0.254317 11.3806 0.175164 13.4289C0.139798 14.3555 0.175164 15.5129 0.872383 16.212C1.50392 16.8518 2.50091 16.8909 3.39854 16.8909C8.91117 16.9124 14.4227 16.9259 19.9331 16.9316C21.6576 16.9316 23.3821 16.9316 25.1066 16.9316C25.8544 16.9316 26.6021 16.9316 27.3498 16.9027C27.9309 16.879 28.8824 17.0334 29.0053 16.2341C29.0643 15.8438 28.938 15.4178 28.9127 15.0275C28.8807 14.5063 28.8858 13.9834 28.9279 13.4628C28.9727 13.1378 28.9789 12.8085 28.9464 12.482C28.9076 12.258 28.8335 12.1409 28.7224 12.0815Z" fill="white" stroke="#434B52" stroke-width="0.7" stroke-miterlimit="10"/>
<path d="M20.2638 10.3521C19.9225 9.86665 19.5447 9.40824 19.1338 8.98093C17.6181 7.27371 15.3446 6.34034 13.071 6.20627C11.2051 6.09427 9.33571 6.49138 7.60782 7.18546C6.79726 7.51899 6.04283 7.97696 5.37133 8.54309C5.02272 8.8265 4.68927 9.12857 4.36087 9.43743C4.20425 9.58507 3.59123 10.3895 3.4043 10.3895H4.15204L19.5346 10.3521C19.7769 10.3795 20.0215 10.3795 20.2638 10.3521Z" fill="white" stroke="#434B52" stroke-width="0.7" stroke-miterlimit="10"/>
<path d="M9.08008 6.67773V10.3807" stroke="#434B52" stroke-width="0.7" stroke-miterlimit="10"/>
<path d="M12.7095 12.1338H11.1399C10.9753 12.1338 10.8418 12.2683 10.8418 12.4342V12.4359C10.8418 12.6018 10.9753 12.7362 11.1399 12.7362H12.7095C12.8741 12.7362 13.0076 12.6018 13.0076 12.4359V12.4342C13.0076 12.2683 12.8741 12.1338 12.7095 12.1338Z" fill="#434B52"/>
<path d="M22.1165 8.52947L20.2656 5.88889L23.1993 6.48964L22.2293 1.41211L25.4762 4.97079L27.0829 2.68998V6.3403" fill="white"/>
<path d="M22.1165 8.52947L20.2656 5.88889L23.1993 6.48964L22.2293 1.41211L25.4762 4.97079L27.0829 2.68998V6.3403" stroke="#434B52" stroke-width="0.7" stroke-miterlimit="10"/>
<path d="M32.3557 0.169922H29.4961C29.2329 0.169922 29.0195 0.384942 29.0195 0.650183V18.3503C29.0195 18.6155 29.2329 18.8305 29.4961 18.8305H32.3557C32.619 18.8305 32.8323 18.6155 32.8323 18.3503V0.650183C32.8323 0.384942 32.619 0.169922 32.3557 0.169922Z" fill="white" stroke="#434B52" stroke-width="0.7" stroke-miterlimit="10"/>
<path d="M6.34555 12.8857C5.76498 12.8857 5.19746 13.0592 4.71473 13.3842C4.23201 13.7093 3.85577 14.1712 3.6336 14.7117C3.41143 15.2522 3.3533 15.847 3.46656 16.4207C3.57982 16.9945 3.85939 17.5216 4.26991 17.9352C4.68044 18.3489 5.20347 18.6306 5.77288 18.7448C6.34229 18.8589 6.9325 18.8003 7.46888 18.5764C8.00525 18.3526 8.46369 17.9734 8.78624 17.487C9.10878 17.0006 9.28094 16.4287 9.28094 15.8437C9.2805 15.0593 8.97109 14.3072 8.42069 13.7526C7.8703 13.198 7.12393 12.8862 6.34555 12.8857ZM6.31692 17.2845C6.04379 17.2845 5.77679 17.2028 5.5497 17.0499C5.3226 16.897 5.1456 16.6797 5.04107 16.4254C4.93655 16.1711 4.9092 15.8913 4.96249 15.6214C5.01577 15.3515 5.1473 15.1035 5.34043 14.9089C5.53356 14.7143 5.77963 14.5818 6.04751 14.5281C6.31539 14.4744 6.59305 14.5019 6.84539 14.6072C7.09773 14.7126 7.31341 14.8909 7.46515 15.1198C7.61689 15.3486 7.69788 15.6177 7.69788 15.8929C7.69788 16.262 7.55239 16.6159 7.29341 16.8769C7.03443 17.1378 6.68317 17.2845 6.31692 17.2845Z" fill="white" stroke="#434B52" stroke-width="0.7" stroke-miterlimit="10"/>
<path d="M23.6717 12.8857C23.0912 12.8857 22.5236 13.0592 22.0409 13.3842C21.5582 13.7093 21.1819 14.1712 20.9598 14.7117C20.7376 15.2522 20.6795 15.847 20.7927 16.4207C20.906 16.9945 21.1856 17.5216 21.5961 17.9352C22.0066 18.3489 22.5296 18.6306 23.0991 18.7448C23.6685 18.8589 24.2587 18.8003 24.795 18.5764C25.3314 18.3526 25.7899 17.9734 26.1124 17.487C26.435 17.0006 26.6071 16.4287 26.6071 15.8437C26.6071 15.0592 26.2978 14.3068 25.7474 13.7521C25.1969 13.1974 24.4502 12.8857 23.6717 12.8857ZM23.6431 17.2845C23.3699 17.2848 23.1027 17.2035 22.8754 17.0508C22.6481 16.8981 22.4708 16.6808 22.366 16.4266C22.2613 16.1723 22.2337 15.8925 22.2868 15.6224C22.3399 15.3524 22.4713 15.1043 22.6643 14.9095C22.8574 14.7147 23.1034 14.582 23.3714 14.5282C23.6393 14.4744 23.9171 14.5018 24.1695 14.6071C24.4219 14.7124 24.6377 14.8907 24.7895 15.1196C24.9413 15.3485 25.0224 15.6176 25.0224 15.8929C25.0224 16.2617 24.8771 16.6154 24.6185 16.8763C24.3599 17.1372 24.0091 17.284 23.6431 17.2845Z" fill="white" stroke="#434B52" stroke-width="0.7" stroke-miterlimit="10"/>
<path d="M6.31629 17.1144C7.03247 17.1144 7.61305 16.5294 7.61305 15.8077C7.61305 15.086 7.03247 14.501 6.31629 14.501C5.60011 14.501 5.01953 15.086 5.01953 15.8077C5.01953 16.5294 5.60011 17.1144 6.31629 17.1144Z" stroke="#6E6E6D" stroke-miterlimit="10"/>
<path d="M23.6444 17.1144C24.3606 17.1144 24.9412 16.5294 24.9412 15.8077C24.9412 15.086 24.3606 14.501 23.6444 14.501C22.9282 14.501 22.3477 15.086 22.3477 15.8077C22.3477 16.5294 22.9282 17.1144 23.6444 17.1144Z" stroke="#6E6E6D" stroke-miterlimit="10"/>
</svg>
