<svg width="48" height="49" viewBox="0 0 48 49" fill="none" xmlns="http://www.w3.org/2000/svg">
<g clip-path="url(#clip0_1116_17900)">
<path d="M39.9844 9.51465H32.1675V8.51563C32.1653 6.58932 31.3991 4.74255 30.0371 3.38044C28.6749 2.01835 26.8281 1.25216 24.9019 1.25H23.0981C21.1719 1.25216 19.3251 2.01835 17.9629 3.38044C16.6009 4.74255 15.8347 6.58932 15.8325 8.51563V9.51465H8.01563C6.08932 9.51681 4.24255 10.283 2.88044 11.6451C1.51835 13.0072 0.752164 14.854 0.75 16.7803V40.4844C0.752164 42.4107 1.51835 44.2575 2.88044 45.6196C4.24255 46.9816 6.08932 47.7479 8.01563 47.75H25.3975C25.8792 47.75 26.3412 47.5587 26.6819 47.218C27.0225 46.8773 27.2139 46.4153 27.2139 45.9336C27.2139 45.4519 27.0225 44.9899 26.6819 44.6492C26.3412 44.3085 25.8792 44.1172 25.3975 44.1172H8.01563C7.05251 44.116 6.12919 43.7328 5.44816 43.0519C4.76715 42.3708 4.38401 41.4475 4.38281 40.4844V21.4121H14.3731V33.4531C14.3731 33.9348 14.5644 34.3969 14.9051 34.7375C15.2457 35.0781 15.7077 35.2695 16.1895 35.2695C16.6712 35.2695 17.1332 35.0781 17.4739 34.7375C17.8145 34.3969 18.0059 33.9348 18.0059 33.4531V21.4121H29.9941V23.7031C29.9941 24.1848 30.1855 24.6469 30.5261 24.9875C30.8668 25.3281 31.3288 25.5195 31.8105 25.5195C32.2923 25.5195 32.7543 25.3281 33.0949 24.9875C33.4356 24.6469 33.6269 24.1848 33.6269 23.7031V21.4121H43.6172V23.5215C43.6172 24.0032 43.8085 24.4652 44.1492 24.8059C44.4899 25.1465 44.9519 25.3379 45.4336 25.3379C45.9153 25.3379 46.3773 25.1465 46.718 24.8059C47.0587 24.4652 47.25 24.0032 47.25 23.5215V16.7803C47.2479 14.854 46.4816 13.0072 45.1196 11.6451C43.7575 10.283 41.9107 9.51681 39.9844 9.51465ZM19.4653 8.51563C19.4665 7.55251 19.8497 6.62919 20.5307 5.94816C21.2117 5.26715 22.1351 4.88401 23.0981 4.88281H24.9019C25.8649 4.88401 26.7883 5.26715 27.4693 5.94816C28.1503 6.62919 28.5335 7.55251 28.5347 8.51563V9.51465H19.4653V8.51563ZM43.6172 17.7793H4.38281V16.7803C4.38281 15.8168 4.76556 14.8928 5.44684 14.2115C6.12812 13.5302 7.05215 13.1475 8.01563 13.1475H39.9844C40.9479 13.1475 41.8719 13.5302 42.5532 14.2115C43.2344 14.8928 43.6172 15.8168 43.6172 16.7803V17.7793Z" fill="#868686"/>
<path d="M37.5004 29.7048L43.662 32.4553V37.3641C43.662 39.0405 42.9856 40.7688 41.8061 42.1001C40.6265 43.4316 39.1375 44.1663 37.6099 44.1663H37.3901C35.8652 44.1663 34.3725 43.4324 33.1939 42.1001C32.0152 40.7679 31.338 39.0405 31.338 37.3641V32.4553L37.5004 29.7048ZM37.6503 26C37.6 26 37.5497 26 37.5004 26.0072C37.4511 26.0144 37.4009 26 37.3507 26C37.1225 26.0001 36.8969 26.0484 36.6887 26.1416L28.7125 29.702C28.4259 29.8297 28.1823 30.0376 28.0115 30.3007C27.8407 30.5636 27.7499 30.8704 27.75 31.184V37.366C27.75 39.9041 28.7547 42.4953 30.5047 44.4744C32.374 46.5853 34.8175 47.75 37.3901 47.75H37.6099C40.1807 47.75 42.626 46.5853 44.4953 44.4727C46.2463 42.4935 47.25 39.9033 47.25 37.3641V31.1821C47.2501 30.8688 47.1593 30.5621 46.9887 30.2991C46.8181 30.0361 46.5748 29.8281 46.2884 29.7003L38.3159 26.1416C38.1076 26.0484 37.882 26.0001 37.6539 26H37.6503Z" fill="#FE7333"/>
</g>
<defs>
<clipPath id="clip0_1116_17900">
<rect width="48" height="48" fill="white" transform="translate(0 0.5)"/>
</clipPath>
</defs>
</svg>
