<svg width="20" height="20" viewBox="0 0 20 20" fill="none" xmlns="http://www.w3.org/2000/svg">
<path d="M5.18221 9.37747C5.18221 9.22747 5.24054 9.0858 5.3572 8.97747C5.5822 8.77747 5.92387 8.79414 6.12387 9.0108L9.459 12.1994L9.459 3.87565C9.459 3.5765 9.70151 3.33398 10.0007 3.33398C10.2998 3.33398 10.5423 3.5765 10.5423 3.87565V12.1467L13.5822 8.94413C13.7822 8.71913 14.1239 8.71079 14.3489 8.91079C14.5655 9.11079 14.5822 9.45246 14.3822 9.67746L10.434 13.859C10.2007 14.1173 9.80066 14.1173 9.56733 13.859L5.32387 9.74413C5.22387 9.6358 5.18221 9.5108 5.18221 9.37747Z" fill="#292929"/>
<path d="M3.625 16.2507C3.625 15.9515 3.86751 15.709 4.16667 15.709H15.8333C16.1325 15.709 16.375 15.9515 16.375 16.2507C16.375 16.5498 16.1325 16.7923 15.8333 16.7923H4.16667C3.86751 16.7923 3.625 16.5498 3.625 16.2507Z" fill="#292929"/>
</svg>
