<svg width="34" height="34" viewBox="0 0 34 34" fill="none" xmlns="http://www.w3.org/2000/svg">
<g clip-path="url(#clip0_2973_27564)">
<path d="M25.8702 10.5906C25.4729 10.2151 24.9469 10.0059 24.4002 10.0059C23.8535 10.0059 23.3276 10.2151 22.9302 10.5906L14.5602 18.5906L11.5602 15.7306C11.1629 15.3551 10.6369 15.1459 10.0902 15.1459C9.54353 15.1459 9.01755 15.3551 8.62024 15.7306C8.4222 15.9168 8.2642 16.1414 8.15588 16.3908C8.04756 16.6401 7.9912 16.9088 7.99024 17.1806C7.98984 17.4541 8.04554 17.7248 8.1539 17.9759C8.26226 18.2271 8.42098 18.4533 8.62024 18.6406L13.0802 22.9006C13.4744 23.2817 14.002 23.4934 14.5502 23.4906C15.0979 23.4903 15.6243 23.279 16.0202 22.9006L25.8602 13.4806C26.0569 13.2938 26.2135 13.0689 26.3205 12.8196C26.4276 12.5704 26.4827 12.3019 26.4827 12.0306C26.4827 11.7594 26.4276 11.4909 26.3205 11.2417C26.2135 10.9924 26.0569 10.7675 25.8602 10.5806L25.8702 10.5906Z" fill="#43B02A"/>
</g>
<defs>
<clipPath id="clip0_2973_27564">
<rect width="18.5" height="13.49" fill="white" transform="translate(8 10)"/>
</clipPath>
</defs>
</svg>