<svg width="41" height="41" viewBox="0 0 41 41" fill="none" xmlns="http://www.w3.org/2000/svg">
<path d="M28.6302 18.4794L20.8712 26.0296H17.8568V24.7393C19.1468 23.8018 20.041 22.4226 20.3664 20.8683H20.5C21.1945 20.8723 21.8624 20.603 22.3577 20.1195C22.853 19.6359 23.1354 18.9774 23.1432 18.2877C23.1419 17.6629 22.9063 17.0609 22.4824 16.5992V14.3872C22.4785 12.1218 21.5685 9.95063 19.9526 8.35148C18.3366 6.75232 16.1472 5.85612 13.8659 5.86003C11.5846 5.86394 9.39828 6.76764 7.78794 8.37233C6.1776 9.97702 5.27513 12.1512 5.27907 14.4167V16.6287C4.8531 17.0897 4.61492 17.6915 4.61083 18.3172C4.62643 19.0056 4.91532 19.66 5.41458 20.1378C5.91385 20.6157 6.58302 20.8782 7.27635 20.8683H7.41C7.74115 22.424 8.64039 23.8029 9.93444 24.7393V26.0296H6.61554C4.87789 26.0178 3.20628 26.69 1.96647 27.8991C0.726653 29.1082 0.0195942 30.7557 0 32.4812V40.2232C0.00195482 40.3959 0.0724378 40.5609 0.196153 40.6824C0.319868 40.8039 0.486832 40.872 0.660811 40.872H27.1155C27.2895 40.872 27.4565 40.8039 27.5802 40.6824C27.7039 40.5609 27.7744 40.3959 27.7763 40.2232V32.4812C27.7638 31.0002 27.2414 29.568 26.296 28.4226C25.3505 27.2771 24.0389 26.4873 22.579 26.1844L29.3578 19.5485H41V18.2877H29.1202C29.0296 18.2841 28.9393 18.2993 28.8549 18.3323C28.7705 18.3653 28.694 18.4154 28.6302 18.4794ZM10.2686 27.3273L12.845 30.343L10.3057 31.5817L8.82072 27.3273H10.2686ZM13.7657 34.4278H14.0033L15.065 39.5891H12.7039L13.7657 34.4278ZM14.1369 33.1374H13.632L12.9267 31.7439L13.8845 31.272L14.8497 31.7439L14.1369 33.1374ZM14.9314 30.3356L17.5004 27.3199H18.9185L17.4707 31.5743L14.9314 30.3356ZM20.5 19.578V16.9974C20.8446 16.9974 21.1751 17.1333 21.4188 17.3753C21.6625 17.6173 21.7993 17.9455 21.7993 18.2877C21.7993 18.6299 21.6625 18.9581 21.4188 19.2001C21.1751 19.4421 20.8446 19.578 20.5 19.578ZM5.95473 18.2877C5.95569 18.1166 5.9907 17.9475 6.05774 17.7899C6.12477 17.6323 6.22251 17.4895 6.34534 17.3696C6.46816 17.2497 6.61364 17.1551 6.77342 17.0912C6.9332 17.0273 7.10412 16.9954 7.27635 16.9974V19.578C7.10412 19.5799 6.9332 19.5481 6.77342 19.4842C6.61364 19.4203 6.46816 19.3257 6.34534 19.2058C6.22251 19.0858 6.12477 18.943 6.05774 18.7854C5.9907 18.6279 5.95569 18.4587 5.95473 18.2877ZM7.27635 15.707C7.05327 15.7096 6.83134 15.7393 6.61554 15.7955V14.4167C6.67589 12.5412 7.46856 10.7626 8.82585 9.45713C10.1831 8.15165 11.9986 7.42169 13.8882 7.42169C15.7777 7.42169 17.5932 8.15165 18.9505 9.45713C20.3078 10.7626 21.1005 12.5412 21.1608 14.4167V15.7955C20.9449 15.7398 20.723 15.7101 20.5 15.707C20.499 15.6218 20.4812 15.5376 20.4474 15.4593C20.4137 15.3809 20.3648 15.3099 20.3034 15.2504C20.242 15.1908 20.1694 15.1438 20.0898 15.1121C20.0102 15.0804 19.925 15.0646 19.8392 15.0656C19.3279 15.065 18.8236 14.9477 18.3652 14.7227C17.9069 14.4977 17.5068 14.171 17.1959 13.7679L16.4163 12.7577C16.3508 12.6815 16.2694 12.6203 16.1778 12.5783C16.0861 12.5363 15.9864 12.5146 15.8855 12.5146C15.7845 12.5146 15.6848 12.5363 15.5931 12.5783C15.5015 12.6203 15.4201 12.6815 15.3546 12.7577L14.5601 13.7974C14.2481 14.1987 13.8476 14.5237 13.3894 14.7474C12.9312 14.971 12.4275 15.0875 11.9169 15.0877H7.93716C7.76762 15.0856 7.6039 15.149 7.48059 15.2646C7.35728 15.3802 7.28404 15.5388 7.27635 15.707ZM8.59797 19.578V16.3559H11.902C12.6187 16.3563 13.3258 16.1937 13.9694 15.8805C14.6129 15.5674 15.1756 15.1121 15.6145 14.5494L15.8817 14.2029L16.1416 14.5421C16.8852 15.5023 17.978 16.1349 19.1858 16.3043V19.578C19.1345 20.9372 18.5547 22.2238 17.5682 23.1675C16.5817 24.1111 15.2653 24.6383 13.8956 24.6383C12.5259 24.6383 11.2095 24.1111 10.223 23.1675C9.23649 22.2238 8.65668 20.9372 8.6054 19.578H8.59797ZM13.8845 26.0296C14.7963 26.0292 15.6983 25.8435 16.5351 25.484V26.4425L13.8845 29.5393L11.2189 26.4425V25.484C12.0604 25.8455 12.9677 26.0312 13.8845 26.0296ZM1.32162 32.4812C1.33534 31.0999 1.90058 29.7805 2.89318 28.8128C3.88578 27.8451 5.22458 27.3081 6.61554 27.3199H7.46197L9.29591 32.6656C9.32566 32.7535 9.37426 32.8339 9.43835 32.9014C9.50244 32.9689 9.5805 33.0217 9.66715 33.0563C9.74762 33.088 9.83306 33.1055 9.91959 33.1079C10.0227 33.1041 10.1238 33.079 10.2166 33.0342L11.7016 32.2969L12.496 33.8453L11.3229 39.5669H5.27907V35.7107H3.96487V39.5817H1.32162V32.4812ZM26.4547 32.4812V39.5817H23.8412V35.7107H22.4824V39.5817H16.4163L15.2432 33.86L16.0377 32.3116L17.5598 33.049C17.6518 33.0958 17.7534 33.121 17.8568 33.1227C17.9433 33.1202 18.0287 33.1028 18.1092 33.0711C18.1958 33.0365 18.2739 32.9836 18.338 32.9161C18.4021 32.8487 18.4507 32.7682 18.4804 32.6803L20.3144 27.3126H21.1608C21.8502 27.3067 22.5339 27.4358 23.1731 27.6924C23.8122 27.949 24.3942 28.3281 24.8858 28.808C25.3774 29.288 25.7689 29.8594 26.0381 30.4897C26.3073 31.1199 26.4489 31.7966 26.4547 32.4812Z"/>
<path d="M39.6785 15.7071V6.67486C39.6775 6.58965 39.6597 6.50547 39.6259 6.42711C39.5922 6.34876 39.5433 6.27777 39.4819 6.2182C39.4205 6.15864 39.3479 6.11166 39.2683 6.07994C39.1887 6.04823 39.1035 6.03241 39.0177 6.03339H36.3744C36.288 6.03143 36.2021 6.04652 36.1216 6.07779C36.041 6.10906 35.9676 6.15589 35.9054 6.21555C35.8433 6.27522 35.7937 6.34654 35.7595 6.42538C35.7253 6.50422 35.7072 6.58902 35.7062 6.67486V15.7071H34.3846V10.5458C34.3836 10.4606 34.3658 10.3764 34.332 10.2981C34.2983 10.2197 34.2493 10.1487 34.188 10.0892C34.1266 10.0296 34.054 9.98262 33.9744 9.95091C33.8947 9.9192 33.8096 9.90338 33.7238 9.90435H31.0805C30.9947 9.90338 30.9096 9.9192 30.8299 9.95091C30.7503 9.98262 30.6777 10.0296 30.6163 10.0892C30.555 10.1487 30.506 10.2197 30.4723 10.2981C30.4386 10.3764 30.4207 10.4606 30.4197 10.5458V15.7071H29.0981V12.485C29.0981 12.3992 29.081 12.3142 29.0477 12.235C29.0144 12.1558 28.9656 12.0839 28.9041 12.0236C28.8426 11.9632 28.7697 11.9156 28.6896 11.8834C28.6095 11.8512 28.5237 11.8352 28.4373 11.8362H25.7866C25.7002 11.8352 25.6144 11.8512 25.5343 11.8834C25.4542 11.9156 25.3813 11.9632 25.3198 12.0236C25.2583 12.0839 25.2095 12.1558 25.1762 12.235C25.1429 12.3142 25.1258 12.3992 25.1258 12.485V15.7071H23.8413V16.9974H41.0001V15.7071H39.6785ZM37.0353 7.32371H38.3569V15.7071H37.0353V7.32371ZM31.7413 11.1947H33.063V15.7071H31.7413V11.1947ZM26.4549 13.1265H27.7765V15.7071H26.4549V13.1265Z"/>
<path d="M30.0335 4.74299H33.7459C33.9211 4.74246 34.0891 4.67361 34.2137 4.55129L35.6987 3.07663V4.74299H37.0277V1.5135C37.0268 1.42766 37.0087 1.34286 36.9745 1.26402C36.9403 1.18518 36.8907 1.11386 36.8285 1.05419C36.7663 0.994526 36.6929 0.947702 36.6124 0.916432C36.5319 0.885163 36.4459 0.870069 36.3595 0.872025H33.0629V2.16235H34.7706L33.449 3.45267H29.7811C29.6071 3.45201 29.4395 3.51804 29.3133 3.637L25.3262 7.50797L26.2543 8.42226L30.0335 4.74299Z"/>
</svg>
