<svg width="70" height="70" viewBox="0 0 70 70" fill="none" xmlns="http://www.w3.org/2000/svg">
<rect x="5.5" y="5.5" width="59" height="59" rx="29.5" fill="white"/>
<path d="M46.3569 35.2934C46.1797 35.4693 45.9483 35.5573 45.7168 35.5573C45.4833 35.5573 45.2501 35.4679 45.0725 35.2893L44.3545 34.5665V37.8732C44.3545 38.3749 43.9479 38.7814 43.4463 38.7814C42.9446 38.7814 42.5381 38.3749 42.5381 37.8732V32.7382L35.6309 25.7855C35.292 25.4951 34.7928 25.494 34.4526 25.783L27.4607 32.7611C27.4609 32.7699 27.4619 32.7784 27.4619 32.7873V42.4143C27.4619 43.4158 28.2768 44.2307 29.2783 44.2307H40.7217C41.7232 44.2307 42.5381 43.4158 42.5381 42.4143C42.5381 41.9126 42.9446 41.506 43.4463 41.506C43.9479 41.506 44.3545 41.9126 44.3545 42.4143C44.3545 44.4174 42.7249 46.0471 40.7217 46.0471H29.2783C27.2751 46.0471 25.6455 44.4174 25.6455 42.4143V34.5727L24.9248 35.292C24.5699 35.6464 23.9948 35.6458 23.6404 35.2907C23.286 34.9358 23.2867 34.3607 23.6416 34.0063L33.1909 24.4759C33.2031 24.4638 33.2157 24.4519 33.2285 24.4404C34.2658 23.5169 35.8273 23.5203 36.8606 24.448C36.8733 24.4595 36.8859 24.4714 36.898 24.4837L46.361 34.0091C46.7146 34.365 46.7128 34.94 46.3569 35.2934Z" fill="#868686"/>
<path fill-rule="evenodd" clip-rule="evenodd" d="M37.716 33.2713C37.4242 33.3182 36.2993 33.7281 35.2162 34.182L33.247 35.0076L33.3607 34.2441C33.3607 34.2441 33.4096 34.0013 33.3669 33.7029C33.2726 33.0433 32.2201 32.3239 32.2201 32.3239C32.2201 32.3239 30.4136 30.9193 29.9546 31.4263C29.507 31.9209 29.6193 32.2712 30.5372 33.2429L31.441 34.1997L31.1818 35.377C30.6818 37.6475 31.2347 37.8939 34.1175 36.6852C35.1939 36.234 36.0764 35.9529 36.079 36.0605C36.0814 36.168 35.6733 37.3232 35.1721 38.6276C34.1514 41.2849 34.0788 41.7527 34.6268 42.1511C35.0271 42.4423 35.4564 42.3291 37.6585 41.3522L38.7892 40.8505L39.7183 41.7071C40.7027 42.6146 41.2335 42.7701 41.6828 42.2828C42.1753 41.7485 41.9529 41.2966 40.569 40.0208C39.1049 38.6711 39.1059 38.6714 37.6716 39.27L36.812 39.6286L37.8208 36.9847C38.3755 35.5305 38.8369 34.2087 38.846 34.0472C38.8721 33.5772 38.2919 33.1786 37.716 33.2713Z" fill="#645DA2"/>
<rect x="5.5" y="5.5" width="59" height="59" rx="29.5" stroke="#D8D6E8" stroke-width="11"/>
</svg>
