    <svg
      xmlns="http://www.w3.org/2000/svg"
    >
      <symbol
        id="esia"
        viewBox="0 0 25 24"
      >
             <path
          d="M23.491 7.96099C23.3939 6.72414 22.4227 5.13843 21.4514 4.37728C20.3593 3.59833 19.2245 2.8784 18.0521 2.22071C16.8887 1.54516 15.6891 0.931138 14.4586 0.381281C13.8013 0.118613 13.0965 -0.010849 12.3866 0.000711296V1.52763C13.0112 1.51754 13.6315 1.63052 14.2099 1.85977C15.2928 2.33964 16.3484 2.87551 17.3722 3.46508C18.4039 4.03906 19.4025 4.66738 20.3637 5.34719C21.2183 6.01144 22.073 7.39533 22.1585 8.47478C22.1585 8.47478 22.3579 10.0801 22.3864 11.9816C22.3846 13.1559 22.3181 14.3293 22.187 15.4967C21.9882 16.719 21.3405 17.83 20.3637 18.6243C20.3637 18.6243 19.0246 19.5653 17.3722 20.534C16.3482 21.1233 15.2926 21.6592 14.2099 22.1393C13.6323 22.3712 13.0115 22.4842 12.3866 22.4715V23.9989C13.0967 24.0135 13.8022 23.8839 14.4586 23.6183C15.6889 23.0681 16.8885 22.4541 18.0521 21.7789C19.9298 20.6689 21.4514 19.5906 21.4514 19.5906C22.5615 18.6805 23.2975 17.4075 23.5234 16.0069C23.6724 14.6693 23.748 13.3247 23.75 11.9792C23.7176 9.80039 23.491 7.96099 23.491 7.96099Z"
          fill="#D9D9D9"
        />
        <path
          d="M23.491 7.96099C23.3939 6.72414 22.4227 5.13843 21.4514 4.37728C20.3593 3.59833 19.2245 2.8784 18.0521 2.22071C16.8887 1.54516 15.6891 0.931138 14.4586 0.381281C13.8013 0.118613 13.0965 -0.010849 12.3866 0.000711296V1.52763C13.0112 1.51754 13.6315 1.63052 14.2099 1.85977C15.2928 2.33964 16.3484 2.87551 17.3722 3.46508C18.4039 4.03906 19.4025 4.66738 20.3637 5.34719C21.2183 6.01144 22.073 7.39533 22.1585 8.47478C22.1585 8.47478 22.3579 10.0801 22.3864 11.9816C22.3846 13.1559 22.3181 14.3293 22.187 15.4967C21.9882 16.719 21.3405 17.83 20.3637 18.6243C20.3637 18.6243 19.0246 19.5653 17.3722 20.534C16.3482 21.1233 15.2926 21.6592 14.2099 22.1393C13.6323 22.3712 13.0115 22.4842 12.3866 22.4715V23.9989C13.0967 24.0135 13.8022 23.8839 14.4586 23.6183C15.6889 23.0681 16.8885 22.4541 18.0521 21.7789C19.9298 20.6689 21.4514 19.5906 21.4514 19.5906C22.5615 18.6805 23.2975 17.4075 23.5234 16.0069C23.6724 14.6693 23.748 13.3247 23.75 11.9792C23.7176 9.80039 23.491 7.96099 23.491 7.96099Z"
          fill="url(#paint0_linear_1360_28394)"
        />
        <path
          d="M12.3866 1.52763V0.000711296C11.6768 -0.010849 10.9721 0.11861 10.3148 0.381278C9.08427 0.931135 7.88472 1.54516 6.72125 2.2207C5.5489 2.8784 4.41413 3.59833 3.32194 4.37727C2.35071 5.13842 1.37947 6.72414 1.28237 7.96098H2.70556C2.96222 6.98825 3.68596 5.90969 4.40973 5.34719C5.37085 4.66738 6.36948 4.03905 7.40113 3.46508C8.42495 2.87551 9.4806 2.33963 10.5634 1.85976C11.1419 1.63052 11.762 1.51754 12.3866 1.52763Z"
          fill="#D9D9D9"
        />
        <path
          d="M12.3866 1.52763V0.000711296C11.6768 -0.010849 10.9721 0.11861 10.3148 0.381278C9.08427 0.931135 7.88472 1.54516 6.72125 2.2207C5.5489 2.8784 4.41413 3.59833 3.32194 4.37727C2.35071 5.13842 1.37947 6.72414 1.28237 7.96098H2.70556C2.96222 6.98825 3.68596 5.90969 4.40973 5.34719C5.37085 4.66738 6.36948 4.03905 7.40113 3.46508C8.42495 2.87551 9.4806 2.33963 10.5634 1.85976C11.1419 1.63052 11.762 1.51754 12.3866 1.52763Z"
          fill="url(#paint1_linear_1360_28394)"
        />
        <path
          d="M12.3866 23.9989V22.4715C11.7618 22.4842 11.1411 22.3712 10.5634 22.1393C9.48075 21.6591 8.42515 21.1233 7.40113 20.534C5.74874 19.5653 4.40973 18.6243 4.40973 18.6243C3.57074 17.9421 2.97454 17.0262 2.69705 16.0069H1.25C1.47588 17.4075 2.2119 18.6805 3.32194 19.5906C3.32194 19.5906 4.84355 20.6689 6.72125 21.7789C7.88492 22.454 9.08447 23.068 10.3148 23.6183C10.9712 23.8839 11.6766 24.0135 12.3866 23.9989Z"
          fill="#D9D9D9"
        />
        <path
          d="M12.3866 23.9989V22.4715C11.7618 22.4842 11.1411 22.3712 10.5634 22.1393C9.48075 21.6591 8.42515 21.1233 7.40113 20.534C5.74874 19.5653 4.40973 18.6243 4.40973 18.6243C3.57074 17.9421 2.97454 17.0262 2.69705 16.0069H1.25C1.47588 17.4075 2.2119 18.6805 3.32194 19.5906C3.32194 19.5906 4.84355 20.6689 6.72125 21.7789C7.88492 22.454 9.08447 23.068 10.3148 23.6183C10.9712 23.8839 11.6766 24.0135 12.3866 23.9989Z"
          fill="url(#paint2_linear_1360_28394)"
        />
        <path
          d="M14.2099 1.85977C13.6315 1.63052 13.0112 1.51754 12.3866 1.52763V2.2207C12.9143 2.2207 13.2975 2.2207 14.2869 2.70375C16.0938 3.58589 17.6137 4.37727 19.1692 5.34719C20.1547 5.96168 20.6685 6.15953 21.4428 7.94137C21.4428 7.94137 21.7752 10.3965 21.7752 11.9741C21.7752 13.5518 21.4428 16.0069 21.4428 16.0069C20.6637 17.8069 20.1498 18.004 19.1607 18.6207C17.6052 19.5906 16.0852 20.382 14.2784 21.2641C13.289 21.7472 12.9058 21.7472 12.3781 21.7472C11.8505 21.7472 11.4673 21.7472 10.4779 21.2641C8.67102 20.382 7.15108 19.5906 5.59554 18.6207C4.60643 18.004 4.09256 17.8069 3.31344 16.0069H2.69705C2.97454 17.0262 3.57074 17.9421 4.40973 18.6243C4.40973 18.6243 5.74874 19.5653 7.40113 20.534C8.42515 21.1233 9.48075 21.6591 10.5634 22.1393C11.1411 22.3712 11.7618 22.4842 12.3866 22.4715C13.0115 22.4842 13.6323 22.3712 14.2099 22.1393C15.2926 21.6592 16.3482 21.1233 17.3722 20.534C19.0246 19.5653 20.3637 18.6243 20.3637 18.6243C21.3405 17.83 21.9882 16.719 22.187 15.4967C22.3181 14.3293 22.3846 13.1559 22.3864 11.9816C22.3579 10.0801 22.1585 8.47478 22.1585 8.47478C22.073 7.39533 21.2183 6.01144 20.3637 5.34719C19.4025 4.66738 18.4039 4.03906 17.3722 3.46508C16.3484 2.87551 15.2928 2.33964 14.2099 1.85977Z"
          fill="#D9D9D9"
        />
        <path
          d="M14.2099 1.85977C13.6315 1.63052 13.0112 1.51754 12.3866 1.52763V2.2207C12.9143 2.2207 13.2975 2.2207 14.2869 2.70375C16.0938 3.58589 17.6137 4.37727 19.1692 5.34719C20.1547 5.96168 20.6685 6.15953 21.4428 7.94137C21.4428 7.94137 21.7752 10.3965 21.7752 11.9741C21.7752 13.5518 21.4428 16.0069 21.4428 16.0069C20.6637 17.8069 20.1498 18.004 19.1607 18.6207C17.6052 19.5906 16.0852 20.382 14.2784 21.2641C13.289 21.7472 12.9058 21.7472 12.3781 21.7472C11.8505 21.7472 11.4673 21.7472 10.4779 21.2641C8.67102 20.382 7.15108 19.5906 5.59554 18.6207C4.60643 18.004 4.09256 17.8069 3.31344 16.0069H2.69705C2.97454 17.0262 3.57074 17.9421 4.40973 18.6243C4.40973 18.6243 5.74874 19.5653 7.40113 20.534C8.42515 21.1233 9.48075 21.6591 10.5634 22.1393C11.1411 22.3712 11.7618 22.4842 12.3866 22.4715C13.0115 22.4842 13.6323 22.3712 14.2099 22.1393C15.2926 21.6592 16.3482 21.1233 17.3722 20.534C19.0246 19.5653 20.3637 18.6243 20.3637 18.6243C21.3405 17.83 21.9882 16.719 22.187 15.4967C22.3181 14.3293 22.3846 13.1559 22.3864 11.9816C22.3579 10.0801 22.1585 8.47478 22.1585 8.47478C22.073 7.39533 21.2183 6.01144 20.3637 5.34719C19.4025 4.66738 18.4039 4.03906 17.3722 3.46508C16.3484 2.87551 15.2928 2.33964 14.2099 1.85977Z"
          fill="url(#paint3_linear_1360_28394)"
        />
        <path
          d="M12.3866 1.52763C11.762 1.51754 11.1419 1.63052 10.5634 1.85976C9.4806 2.33963 8.42495 2.87551 7.40113 3.46508C6.36948 4.03905 5.37085 4.66738 4.40973 5.34719C3.68596 5.90969 2.96222 6.98825 2.70556 7.96098H3.32194C4.10107 6.16097 4.61494 5.96393 5.60405 5.34719C7.15959 4.37727 8.67953 3.58589 10.4864 2.70375C11.4758 2.2207 11.859 2.2207 12.3866 2.2207V1.52763Z"
          fill="#D9D9D9"
        />
        <path
          d="M12.3866 1.52763C11.762 1.51754 11.1419 1.63052 10.5634 1.85976C9.4806 2.33963 8.42495 2.87551 7.40113 3.46508C6.36948 4.03905 5.37085 4.66738 4.40973 5.34719C3.68596 5.90969 2.96222 6.98825 2.70556 7.96098H3.32194C4.10107 6.16097 4.61494 5.96393 5.60405 5.34719C7.15959 4.37727 8.67953 3.58589 10.4864 2.70375C11.4758 2.2207 11.859 2.2207 12.3866 2.2207V1.52763Z"
          fill="url(#paint4_linear_1360_28394)"
        />
        <path
          d="M1.25 9.3498C1.25 9.18412 1.38431 9.0498 1.55 9.0498H9.95C10.1157 9.0498 10.25 9.18412 10.25 9.3498V11.1498C10.25 11.3155 10.1157 11.4498 9.95 11.4498H1.55C1.38431 11.4498 1.25 11.3155 1.25 11.1498V9.3498Z"
          fill="#1068B2"
        />
        <path
          d="M1.25 12.9504C1.25 12.7847 1.38431 12.6504 1.55 12.6504H17.45C17.6157 12.6504 17.75 12.7847 17.75 12.9504V14.7504C17.75 14.9161 17.6157 15.0504 17.45 15.0504H1.55C1.38431 15.0504 1.25 14.9161 1.25 14.7504V12.9504Z"
          fill="#EF3054"
        />
        <defs>
          <linearGradient
            id="paint0_linear_1360_28394"
            x1="17.9673"
            y1="-0.08736"
            x2="17.9673"
            y2="23.9674"
            gradientUnits="userSpaceOnUse"
          >
            <stop stop-color="#0F67B1" />
            <stop
              offset="0.4"
              stop-color="#0F67B1"
            />
            <stop
              offset="0.66"
              stop-color="#EE2F53"
            />
            <stop
              offset="1"
              stop-color="#EE2F53"
            />
          </linearGradient>
          <linearGradient
            id="paint1_linear_1360_28394"
            x1="17.9673"
            y1="-0.08736"
            x2="17.9673"
            y2="23.9674"
            gradientUnits="userSpaceOnUse"
          >
            <stop stop-color="#0F67B1" />
            <stop
              offset="0.4"
              stop-color="#0F67B1"
            />
            <stop
              offset="0.66"
              stop-color="#EE2F53"
            />
            <stop
              offset="1"
              stop-color="#EE2F53"
            />
          </linearGradient>
          <linearGradient
            id="paint2_linear_1360_28394"
            x1="17.9673"
            y1="-0.08736"
            x2="17.9673"
            y2="23.9674"
            gradientUnits="userSpaceOnUse"
          >
            <stop stop-color="#0F67B1" />
            <stop
              offset="0.4"
              stop-color="#0F67B1"
            />
            <stop
              offset="0.66"
              stop-color="#EE2F53"
            />
            <stop
              offset="1"
              stop-color="#EE2F53"
            />
          </linearGradient>
          <linearGradient
            id="paint3_linear_1360_28394"
            x1="17.9673"
            y1="-0.08736"
            x2="17.9673"
            y2="23.9674"
            gradientUnits="userSpaceOnUse"
          >
            <stop stop-color="#0F67B1" />
            <stop
              offset="0.4"
              stop-color="#0F67B1"
            />
            <stop
              offset="0.66"
              stop-color="#EE2F53"
            />
            <stop
              offset="1"
              stop-color="#EE2F53"
            />
          </linearGradient>
          <linearGradient
            id="paint4_linear_1360_28394"
            x1="17.9673"
            y1="-0.08736"
            x2="17.9673"
            y2="23.9674"
            gradientUnits="userSpaceOnUse"
          >
            <stop stop-color="#0F67B1" />
            <stop
              offset="0.4"
              stop-color="#0F67B1"
            />
            <stop
              offset="0.66"
              stop-color="#EE2F53"
            />
            <stop
              offset="1"
              stop-color="#EE2F53"
            />
          </linearGradient>
        </defs>
      </symbol>
      <symbol
        id="alfa"
        viewBox="0 0 25 24"
      >
             <g clip-path="url(#clip0_1360_28562)">
                <path
                  d="M12.4702 6.60742L11.0527 10.8254H13.8727L12.5227 6.60742H12.4702Z"
                  fill="#EF3124"
                />
                <path
                  fill-rule="evenodd"
                  clip-rule="evenodd"
                  d="M19.4675 0.000978827H5.53251C4.53729 3.4231e-05 3.56421 0.29463 2.73664 0.847415C1.90906 1.4002 1.26427 2.18628 0.884007 3.10598C0.630567 3.71752 0.500082 4.373 0.500007 5.03498V18.9565C0.498375 19.9535 0.792518 20.9287 1.34522 21.7585C1.89792 22.5884 2.68435 23.2357 3.60501 23.6185C4.21551 23.8735 4.87101 24.0025 5.53251 24.0025H19.4675C20.1286 24.0029 20.7833 23.8729 21.3942 23.6201C22.005 23.3672 22.56 22.9964 23.0274 22.5288C23.4948 22.0613 23.8655 21.5062 24.1182 20.8953C24.3708 20.2843 24.5006 19.6296 24.5 18.9685V5.03348C24.4988 3.69914 23.9682 2.4198 23.0247 1.47628C22.0812 0.532761 20.8018 0.00217038 19.4675 0.000978827ZM17.5535 17.581H7.44351V19.681H17.5535V17.581ZM12.578 4.30448C13.718 4.30448 14.048 4.98698 14.3375 5.84648L17.324 14.737H15.11L14.4425 12.622H10.46L9.74001 14.737H7.65051L10.7795 5.84648C11.081 4.98098 11.4395 4.30448 12.578 4.30448Z"
                  fill="#EF3124"
                />
              </g>
              <defs>
                <clipPath id="clip0_1360_28562">
                  <rect
                    width="24"
                    height="24"
                    fill="white"
                    transform="translate(0.5 0.000976562)"
                  />
                </clipPath>
              </defs>
      </symbol>
      <symbol
        id="mobile"
        viewBox="0 0 16 19"
      >
 <path
                fill-rule="evenodd"
                clip-rule="evenodd"
                d="M2.82353 4.75C3.12021 1.90957 5.42908 0 8.47061 0C11.4939 0 13.8189 1.90957 14.1176 4.75H10.945C10.614 3.66765 9.71379 2.92215 8.48069 2.92215C7.24954 2.92215 6.33527 3.66765 6.00025 4.75H2.82353ZM8.11956 13.5032L10.8068 6.65H16V19H12.3421V10.5628L9.10666 19H6.61721L3.43741 10.6333V19H0V6.65H5.4302L8.11956 13.5032Z"
                fill="#5400BA"
              />
      </symbol>
            <symbol
        id="sber"
        viewBox="0 0 23 22"
      >
  <path
                fill-rule="evenodd"
                clip-rule="evenodd"
                d="M11.5 0.000976562C14.1169 0.000976562 16.5208 0.915694 18.4094 2.44146L16.2699 4.01846C14.9113 3.08815 13.2684 2.54243 11.5 2.54243C6.83705 2.54243 3.04343 6.33866 3.04343 11.0021C3.04343 15.6655 6.83705 19.4596 11.5 19.4596C16.1652 19.4596 19.9588 15.6655 19.9588 11.0021C19.9588 10.9263 19.9565 10.8506 19.9551 10.7749L22.3233 9.02935C22.4398 9.66786 22.5 10.3287 22.5 11.0021C22.5 17.077 17.575 22.001 11.5 22.001C5.42576 22.001 0.5 17.077 0.5 11.0021C0.5 4.92501 5.42576 0.000976562 11.5 0.000976562ZM20.2032 4.27609C20.7236 4.94802 21.1683 5.6801 21.5232 6.46191L11.5002 13.8502L7.31233 11.2233V8.06415L11.5002 10.691L20.2032 4.27609Z"
                fill="#26C93C"
              />
      </symbol>
      <symbol
        id="ppl"
        viewBox="0 0 24 24"
      >
              <path
                d="M12 14C15.033 14 17.5 11.532 17.5 8.5C17.5 5.468 15.033 3 12 3C8.967 3 6.5 5.468 6.5 8.5C6.5 11.532 8.967 14 12 14ZM12 5C13.93 5 15.5 6.57 15.5 8.5C15.5 10.43 13.93 12 12 12C10.07 12 8.5 10.43 8.5 8.5C8.5 6.57 10.07 5 12 5ZM20 18.967V19.9998C20 20.5522 19.5522 21 18.9998 21C18.4475 21 17.9998 20.5525 17.9995 20.0002L17.999 18.967C17.999 17.568 17.072 16.358 15.746 16.025C15.554 15.977 15.349 16.001 15.185 16.095C13.204 17.197 10.786 17.191 8.82397 16.101C8.65097 16.002 8.447 15.977 8.255 16.025C6.926 16.358 6 17.568 6 18.967V20C6 20.5523 5.55228 21 5 21C4.44772 21 4 20.5523 4 20V18.967C4 16.65 5.54903 14.642 7.76703 14.085C8.45403 13.91 9.19803 14.011 9.80603 14.358C11.155 15.106 12.836 15.1121 14.204 14.3521C14.803 14.0091 15.547 13.909 16.235 14.084C18.451 14.642 20 16.649 20 18.967Z"
                fill="var(--black,#292929)"
              />
      </symbol>            

    </svg>


