<svg width="24" height="24" viewBox="0 0 24 24" fill="none" xmlns="http://www.w3.org/2000/svg">
<g clip-path="url(#clip0_3332_32071)">
<path d="M19.64 5.25C19.4065 4.92063 19.0788 4.66962 18.7 4.53L12.7 2.27C12.2471 2.10987 11.7529 2.10987 11.3 2.27L5.3 4.53C4.92118 4.66962 4.59348 4.92063 4.36 5.25C4.12263 5.57489 3.99638 5.96766 4 6.37V11.15C3.99487 13.4689 4.69214 15.7351 6 17.65C7.20779 19.5279 8.98943 20.9659 11.08 21.75C11.2217 21.8042 11.3694 21.8411 11.52 21.86C11.8514 21.9113 12.1886 21.9113 12.52 21.86C12.6864 21.8284 12.8479 21.7746 13 21.7C15.061 20.9012 16.8129 19.4646 18 17.6C19.2982 15.6991 19.9951 13.4519 20 11.15V6.37C20.0036 5.96766 19.8774 5.57489 19.64 5.25ZM18 11.15C18.0025 11.9253 17.9084 12.6979 17.72 13.45C17.5543 14.1733 17.313 14.8772 17 15.55C16.6839 16.1594 16.298 16.7299 15.85 17.25C15.3046 17.8721 14.683 18.4231 14 18.89C13.3988 19.3407 12.7213 19.6794 12 19.89C10.2318 19.3135 8.71425 18.1489 7.7 16.59C6.59051 14.9931 5.99719 13.0945 6 11.15V6.37L12 4.15L18 6.4V11.15Z" fill="black"/>
</g>
<defs>
<clipPath id="clip0_3332_32071">
<rect width="16" height="19.7" fill="white" transform="translate(4 2.15002)"/>
</clipPath>
</defs>
</svg>
