<svg width="24" height="24" viewBox="0 0 24 24" fill="none" xmlns="http://www.w3.org/2000/svg">
<path d="M10.999 4C10.999 3.447 11.447 3 11.999 3H15.999C18.756 3 20.999 5.243 20.999 8V16C20.999 18.757 18.756 21 15.999 21H11.999C11.447 21 10.999 20.553 10.999 20C10.999 19.447 11.447 19 11.999 19H15.999C17.653 19 18.999 17.654 18.999 16V8C18.999 6.346 17.653 5 15.999 5H11.999C11.447 5 10.999 4.553 10.999 4ZM3.07697 11.618C2.97597 11.862 2.97597 12.138 3.07697 12.382C3.12797 12.505 3.20098 12.615 3.29398 12.708L7.29297 16.707C7.68397 17.098 8.31598 17.098 8.70698 16.707C9.09798 16.316 9.09798 15.684 8.70698 15.293L6.41398 13H14C14.552 13 15 12.553 15 12C15 11.447 14.552 11 14 11H6.41398L8.70698 8.70703C9.09798 8.31603 9.09798 7.68397 8.70698 7.29297C8.51198 7.09797 8.25597 7 7.99997 7C7.74398 7 7.48797 7.09797 7.29297 7.29297L3.29398 11.292C3.20098 11.385 3.12697 11.495 3.07697 11.618Z" fill="#292929"/>
</svg>
