<svg width="139" height="40" viewBox="0 0 139 40" fill="none" xmlns="http://www.w3.org/2000/svg">
<path d="M65.7565 5.17321C64.8087 3.69965 63.4567 2.54715 61.8711 1.86118C60.0102 1.07034 58.0098 0.683514 55.996 0.725072H46.8926V27.4139H52.0543V19.827H55.996C58.0098 19.8686 60.0102 19.4818 61.8711 18.6909C63.458 17.9978 64.8098 16.8388 65.7565 15.3597C66.6628 13.8296 67.125 12.0661 67.0891 10.2761C67.1318 8.47911 66.6692 6.70757 65.7565 5.17321ZM61.9086 10.2761C61.9512 10.9702 61.84 11.6652 61.5831 12.3089C61.3263 12.9526 60.9306 13.5282 60.4258 13.9925C59.0819 14.9495 57.4587 15.4049 55.8271 15.2826H52.0731V5.25024H55.8271C57.4609 5.13362 59.0843 5.59584 60.4258 6.55965C60.943 7.01647 61.3509 7.58927 61.6178 8.23372C61.8847 8.87817 62.0035 9.57698 61.9649 10.2761" fill="#D2D9D5"/>
<path d="M74.4315 22.9268V16.0708H85.181V11.6415H74.4315V5.20921H86.7623V0.722046H69.2544V27.4139H87.2894V22.9268H74.4315Z" fill="#D2D9D5"/>
<path d="M107.489 21.1456C105.984 22.2124 104.185 22.7707 102.348 22.741C100.721 22.7687 99.1143 22.3715 97.6824 21.5877C96.3366 20.8386 95.2209 19.7278 94.4579 18.3776C93.6792 16.9555 93.2804 15.3521 93.3008 13.7259C93.2806 12.0936 93.6793 10.484 94.4579 9.05491C95.2022 7.67067 96.3208 6.53038 97.6824 5.76793C99.1125 4.97745 100.72 4.57363 102.348 4.59539C104.053 4.57532 105.726 5.05603 107.166 5.97938L110.22 2.28874C109.527 1.83042 108.79 1.44403 108.02 1.13542C106.154 0.365501 104.155 -0.0200319 102.14 0.00131902C99.6348 -0.0322668 97.162 0.576031 94.951 1.76975C92.8649 2.90542 91.1213 4.59266 89.9056 6.65215C88.643 8.78115 87.9865 11.2228 88.0089 13.7066C87.9968 16.1831 88.6527 18.6158 89.9056 20.7419C91.1027 22.8145 92.8424 24.511 94.9321 25.6435C97.1431 26.8373 99.6158 27.4456 102.121 27.412C104.144 27.4345 106.15 27.0422 108.02 26.2586C108.846 25.9223 109.635 25.497 110.372 24.99L107.489 21.1456Z" fill="#D2D9D5"/>
<path d="M136.631 6.67068C135.419 4.59939 133.679 2.9048 131.597 1.76858C129.38 0.606187 126.924 0 124.432 0C121.941 0 119.485 0.606187 117.267 1.76858C115.183 2.90157 113.446 4.60543 112.253 6.68991C111.009 8.80795 110.36 11.2356 110.375 13.7066C110.36 16.1777 111.009 18.6053 112.253 20.7234C113.446 22.8079 115.183 24.5117 117.267 25.6447C119.485 26.8071 121.941 27.4133 124.432 27.4133C126.924 27.4133 129.38 26.8071 131.597 25.6447C133.679 24.5085 135.419 22.8139 136.631 20.7426C137.871 18.6162 138.521 16.1833 138.509 13.7066C138.528 11.2291 137.878 8.79431 136.631 6.67068ZM133.25 13.7066C133.285 15.3215 132.91 16.9179 132.161 18.3396C131.421 19.6938 130.329 20.8116 129.006 21.5692C127.615 22.3266 126.064 22.7227 124.489 22.7227C122.914 22.7227 121.362 22.3266 119.972 21.5692C118.628 20.8202 117.516 19.7015 116.76 18.3396C115.992 16.9234 115.597 15.3266 115.615 13.7066C115.599 12.0808 115.993 10.4783 116.76 9.05445C117.491 7.67783 118.584 6.53881 119.916 5.76716C121.3 4.98975 122.853 4.5822 124.432 4.5822C126.011 4.5822 127.565 4.98975 128.949 5.76716C130.302 6.53019 131.415 7.67 132.161 9.05445C132.928 10.4783 133.322 12.0808 133.306 13.7066" fill="#D2D9D5"/>
<path d="M51.221 35.2029H48.5344V39.6775H46.8926V33.9062H51.221V35.2029Z" fill="#D2D9D5"/>
<path d="M61.3982 38.5634H59.0453L58.6031 39.6775H56.9932L59.4522 33.9062H61.009L63.4858 39.6775H61.8405L61.3982 38.5634ZM60.9383 37.358L60.2306 35.5317L59.5053 37.358H60.9383Z" fill="#D2D9D5"/>
<path d="M74.3944 34.1625C74.798 34.3192 75.14 34.5799 75.3765 34.9112C75.6295 35.2447 75.7584 35.6409 75.7449 36.0434C75.7543 36.4455 75.6258 36.8406 75.3765 37.1756C75.1388 37.5017 74.7966 37.7562 74.3944 37.9061C73.9105 38.0922 73.3862 38.1795 72.8597 38.1618H71.7957V39.6775H69.9746V33.9069H72.9211C73.4468 33.8981 73.969 33.9851 74.4558 34.1625H74.3944ZM73.6577 36.6643C73.7493 36.5829 73.822 36.4861 73.8715 36.3796C73.9211 36.273 73.9466 36.1588 73.9466 36.0434C73.9466 35.9281 73.9211 35.8138 73.8715 35.7073C73.822 35.6007 73.7493 35.504 73.6577 35.4226C73.5423 35.3356 73.4088 35.2698 73.2648 35.2291C73.1209 35.1884 72.9693 35.1734 72.8188 35.1852H71.7957V36.8835H72.8188C73.1189 36.9031 73.4168 36.8252 73.6577 36.6643Z" fill="#D2D9D5"/>
<path d="M85.9303 38.5634H83.5838L83.1427 39.6775H81.5195L83.9895 33.9062H85.5421L88.0122 39.6775H86.3714L85.9303 38.5634ZM85.4716 37.358L84.7482 35.5317L84.0425 37.358H85.4716Z" fill="#D2D9D5"/>
<path d="M100.996 33.9062V39.6775H99.2707V37.4311H96.9507V39.6775H95.2251V33.9062H96.9507V36.0796H99.2707V33.9062H100.996Z" fill="#D2D9D5"/>
<path d="M113.26 35.2029H111.523V39.6775H109.947V35.2029H108.21V33.9062H113.26V35.2029Z" fill="#D2D9D5"/>
<path d="M119.751 33.9062H121.433V37.3032L123.937 33.9062H125.523V39.6775H123.86V36.2987L121.357 39.6775H119.751V33.9062Z" fill="#D2D9D5"/>
<path d="M137.064 33.9063V39.6775H135.237V38.2164H134.345L133.265 39.6775H131.314L132.643 37.979C132.228 37.8303 131.874 37.5758 131.626 37.2485C131.395 36.8999 131.28 36.5012 131.294 36.0979C131.284 35.6869 131.407 35.2819 131.646 34.9291C131.894 34.5918 132.247 34.3253 132.663 34.162C133.159 33.9897 133.687 33.9029 134.22 33.9063H137.064ZM133.058 36.0796C133.045 36.2 133.063 36.3212 133.109 36.4349C133.156 36.5485 133.231 36.6517 133.328 36.7371C133.558 36.8956 133.846 36.9736 134.137 36.9563H135.237V35.13H134.158C133.431 35.13 133.058 35.4222 133.058 36.0249" fill="#D2D9D5"/>
<path d="M38.9557 27.0256L38.6729 24.631C38.2917 20.627 36.8176 16.8047 34.4115 13.5816C32.3219 10.9183 29.5538 8.86665 26.3979 7.64206V0.722046L23.9089 1.00488C19.8684 1.36685 16.0091 2.84919 12.7653 5.28511C10.1195 7.40166 8.09903 10.1977 6.92001 13.3742H0L0.282834 15.7688C0.644803 19.8093 2.12714 23.6686 4.56306 26.9125C6.67961 29.5583 9.4757 31.5787 12.6521 32.7578V39.6778L15.0845 39.3949C19.1233 39.0395 22.9827 37.5636 26.2282 35.1336C28.8705 33.006 30.8898 30.2049 32.0734 27.0256H38.9557ZM23.5318 31.7584C21.5967 33.2327 19.3537 34.2511 16.9701 34.7376V20.5016H12.6521V28.0438C10.8222 27.141 9.20804 25.8548 7.91936 24.2727C6.44604 22.3252 5.43385 20.0687 4.95903 17.6733H19.195V13.3742H11.6528C12.5513 11.5468 13.8384 9.93799 15.4239 8.66026C17.3601 7.17591 19.6116 6.1566 22.0045 5.68107V20.1056H26.3979V12.3371C28.2278 13.2399 29.842 14.5261 31.1306 16.1082C32.5445 18.0798 33.504 20.34 33.9401 22.7266H19.8927V27.0256H27.3407C26.4429 28.8588 25.1559 30.474 23.5695 31.7584" fill="#D2D9D5"/>
</svg>
