<svg width="167" height="48" viewBox="0 0 167 48" fill="none" xmlns="http://www.w3.org/2000/svg">
<g clip-path="url(#clip0_667_7480)">
<path d="M123.513 27.2835C125.715 27.3098 127.87 26.6474 129.676 25.389L133.126 29.9172C132.239 30.5447 131.286 31.0732 130.284 31.4931C128.039 32.4107 125.632 32.87 123.207 32.8439C120.208 32.8827 117.247 32.1623 114.601 30.7497C112.099 29.4101 110.012 27.4088 108.569 24.9642C107.128 22.4231 106.37 19.5515 106.37 16.6301C106.37 13.7086 107.128 10.8371 108.569 8.29593C110.034 5.85371 112.135 3.85544 114.648 2.51468C117.294 1.10233 120.255 0.383334 123.254 0.424776C125.671 0.398102 128.068 0.855957 130.305 1.77132C131.234 2.16398 132.12 2.64927 132.952 3.21981L129.294 7.57805C127.563 6.49658 125.558 5.9335 123.517 5.95539C121.564 5.92663 119.635 6.39745 117.914 7.32318C116.302 8.20291 114.968 9.51518 114.062 11.1122C113.153 12.8071 112.677 14.7004 112.677 16.6237C112.677 18.547 113.153 20.4404 114.062 22.1352C114.968 23.7323 116.302 25.0445 117.914 25.9242C119.634 26.8463 121.561 27.3142 123.513 27.2835Z" fill="#009639"/>
<path fill-rule="evenodd" clip-rule="evenodd" d="M79.1745 6.12107C78.0328 4.38212 76.3986 3.02301 74.4807 2.21735C72.2292 1.2758 69.8056 0.815671 67.3657 0.866543H56.3512V32.3894H62.5954V23.4308H67.3657C69.8085 23.4832 72.2352 23.0231 74.4892 22.08C76.4062 21.2724 78.0379 19.91 79.1745 18.1678C80.2438 16.3436 80.8075 14.2674 80.8075 12.1529C80.8075 10.0385 80.2438 7.9622 79.1745 6.13805V6.12107ZM74.5232 12.1657C74.5232 14.0602 73.8945 15.5342 72.6584 16.5451C71.4223 17.5561 69.5363 18.0871 67.0896 18.0871H62.5954V6.22301H67.0896C69.5363 6.22301 71.4096 6.74549 72.6584 7.76496C73.9073 8.78443 74.5232 10.2499 74.5232 12.1487V12.1657Z" fill="#009639"/>
<path d="M89.9639 27.0754V18.9961H102.945V13.7713H89.9639V6.18053H104.852V0.866546H83.7197V32.3894H105.473V27.0754H89.9639Z" fill="#009639"/>
<path fill-rule="evenodd" clip-rule="evenodd" d="M164.5 8.30017C163.039 5.85342 160.937 3.85275 158.421 2.51468C155.737 1.14091 152.765 0.424519 149.749 0.424519C146.734 0.424519 143.762 1.14091 141.078 2.51468C138.56 3.8583 136.459 5.86673 135.003 8.32141C133.559 10.8499 132.799 13.7116 132.799 16.6237C132.799 19.5358 133.559 22.3975 135.003 24.926C136.457 27.3829 138.559 29.3931 141.078 30.737C143.762 32.1108 146.734 32.8272 149.749 32.8272C152.765 32.8272 155.737 32.1108 158.421 30.737C160.934 29.4008 163.036 27.4051 164.5 24.9642C165.947 22.429 166.709 19.5601 166.709 16.6407C166.709 13.7213 165.947 10.8524 164.5 8.31716V8.30017ZM160.418 16.6428C160.443 18.5622 159.964 20.4547 159.029 22.131C158.134 23.7355 156.81 25.0593 155.206 25.954C153.523 26.852 151.644 27.3218 149.737 27.3218C147.829 27.3218 145.951 26.852 144.268 25.954C142.665 25.057 141.342 23.7338 140.445 22.131C139.536 20.4437 139.06 18.5572 139.06 16.6407C139.06 14.7242 139.536 12.8377 140.445 11.1504C141.342 9.54762 142.665 8.22442 144.268 7.32743C145.952 6.43228 147.83 5.96416 149.737 5.96416C151.644 5.96416 153.522 6.43228 155.206 7.32743C156.81 8.22209 158.134 9.54586 159.029 11.1504C159.965 12.8281 160.443 14.722 160.418 16.6428Z" fill="#009639"/>
<path d="M58.3519 42.24H61.6099L61.6184 40.6301H56.3512V47.8131H58.3519V42.24Z" fill="#009639"/>
<path fill-rule="evenodd" clip-rule="evenodd" d="M74.0814 46.4156H71.0443L70.4793 47.8088H68.4064L71.5795 40.6258H73.5802L76.7618 47.8088H74.6379L74.0814 46.4156ZM73.4867 44.9161L72.565 42.618L71.6389 44.9288L73.4867 44.9161Z" fill="#009639"/>
<path fill-rule="evenodd" clip-rule="evenodd" d="M90.3638 41.8928C90.092 41.4778 89.705 41.1512 89.2503 40.9529H89.2545C88.7179 40.724 88.1386 40.6125 87.5554 40.6258H84.2719V47.8258H86.2981V45.9526H87.5511C88.1344 45.9659 88.7137 45.8544 89.2503 45.6255C89.705 45.4272 90.092 45.1006 90.3638 44.6856C90.6356 44.2706 90.7803 43.7853 90.7803 43.2892C90.7803 42.7931 90.6356 42.3078 90.3638 41.8928ZM88.6235 43.7294C88.5684 43.8634 88.4834 43.983 88.3752 44.0793C88.1036 44.2799 87.769 44.3764 87.4322 44.3512H86.3023V42.2485H87.4322C87.7695 42.2245 88.1041 42.3225 88.3752 42.5246C88.4829 42.6231 88.5673 42.7444 88.6224 42.8796C88.6775 43.0147 88.7019 43.1604 88.6938 43.3062C88.7028 43.4508 88.6787 43.5955 88.6235 43.7294Z" fill="#009639"/>
<path fill-rule="evenodd" clip-rule="evenodd" d="M103.599 46.4156H100.562L99.9972 47.8088H97.9243L101.097 40.6258H103.098L106.28 47.8088H104.156L103.599 46.4156ZM103.005 44.9288L102.079 42.6308L101.157 44.9288H103.005Z" fill="#009639"/>
<path d="M121.436 47.8131V40.6301H119.405V43.3274H116.632V40.6301H114.601V47.8131H116.632V45.0096H119.405V47.8131H121.436Z" fill="#009639"/>
<path d="M136.146 42.24H133.95V47.8131H131.949V42.24H129.74V40.6301H136.146V42.24Z" fill="#009639"/>
<path d="M146.098 40.6301H144.098V47.8131H146.018L148.974 43.6035V47.8131H150.975V40.6301H149.068L146.098 44.8481V40.6301Z" fill="#009639"/>
<path fill-rule="evenodd" clip-rule="evenodd" d="M164.36 40.6258V47.8089H162.355V46.0035H161.242L160.061 47.8089H157.937L159.394 45.7062C158.943 45.5179 158.56 45.1981 158.294 44.7887C158.042 44.349 157.909 43.8511 157.909 43.3444C157.909 42.8377 158.042 42.3398 158.294 41.9002C158.563 41.4804 158.952 41.1517 159.411 40.9572C159.947 40.7274 160.527 40.6145 161.11 40.6258H164.36ZM159.967 43.3274C159.957 43.4786 159.979 43.6304 160.031 43.7725C160.084 43.9146 160.167 44.0438 160.273 44.1515C160.518 44.3539 160.831 44.4543 161.148 44.4319H162.359V42.2273H161.17C160.371 42.2273 159.967 42.5926 159.967 43.3274Z" fill="#009639"/>
<path fill-rule="evenodd" clip-rule="evenodd" d="M46.6322 29.6538L46.9763 32.5465H38.6294C37.2002 36.3791 34.7625 39.7546 31.5738 42.3165C28.0864 45.0648 23.6389 46.8106 18.1508 47.4605L15.2581 47.8046V39.4704C11.4257 38.0387 8.05053 35.5998 5.48814 32.4106C2.73982 28.9232 0.993981 24.4757 0.34407 18.9876L0 16.0949H8.34266C9.76963 12.2611 12.2077 8.8851 15.3982 6.32495C18.8857 3.57663 23.3331 1.83079 28.8212 1.17663L31.714 0.832563V9.17097C35.5477 10.5979 38.9237 13.036 41.4839 16.2265C44.2322 19.7182 45.9823 24.1614 46.6322 29.6538ZM20.4446 41.828C23.3293 41.2463 26.045 40.0192 28.388 38.2386L28.3667 38.2598C30.2932 36.7191 31.8603 34.7766 32.9586 32.5678H23.8046V27.3855H40.9912C40.4095 24.5008 39.1824 21.7851 37.4018 19.4421C35.8625 17.5088 33.92 15.9345 31.7097 14.829V23.9745H26.5317V6.8007C23.6467 7.38152 20.9308 8.60874 18.5883 10.3901C16.6606 11.9296 15.0933 13.8724 13.9965 16.0821H23.1462V21.2687H5.96814C6.54486 24.1542 7.77088 26.8706 9.55327 29.212C11.0962 31.1359 13.0401 32.7 15.2496 33.7954V24.6499H20.4446V41.828Z" fill="#009639"/>
</g>
<defs>
<clipPath id="clip0_667_7480">
<rect width="166.938" height="48" fill="white"/>
</clipPath>
</defs>
</svg>
