<svg width="48" height="68" viewBox="0 0 48 68" fill="none" xmlns="http://www.w3.org/2000/svg">
<path d="M47.8114 63.2827V66.8214C47.8114 67.1329 47.6877 67.4317 47.4674 67.652C47.2471 67.8723 46.9483 67.9961 46.6367 67.9961C46.3252 67.9961 46.0264 67.8723 45.8061 67.652C45.5858 67.4317 45.4621 67.1329 45.4621 66.8214V63.2827C45.4627 61.9966 45.2099 60.7229 44.718 59.5346C44.2261 58.3462 43.5048 57.2665 42.5954 56.3571C41.686 55.4476 40.6062 54.7264 39.4179 54.2345C38.2295 53.7426 36.9559 53.4898 35.6698 53.4904C34.4205 53.4957 33.1913 53.177 32.1021 52.5653C31.0128 51.9536 30.1008 51.0699 29.4552 50.0005C29.2929 49.7342 29.2431 49.4143 29.3167 49.1113C29.3903 48.8083 29.5812 48.5469 29.8475 48.3847C30.1138 48.2224 30.4337 48.1726 30.7367 48.2462C31.0397 48.3198 31.3011 48.5107 31.4633 48.777C31.8996 49.5013 32.5168 50.0997 33.2543 50.5133C33.9918 50.9269 34.8242 51.1416 35.6698 51.1362C37.2648 51.1355 38.8444 51.4493 40.3181 52.0595C41.7918 52.6698 43.1307 53.5646 44.2584 54.6927C45.386 55.8208 46.2802 57.1601 46.8899 58.634C47.4996 60.108 47.8127 61.6876 47.8114 63.2827V63.2827ZM27.2813 51.4871C27.3142 51.6382 27.317 51.7943 27.2895 51.9464C27.2619 52.0986 27.2046 52.2438 27.1209 52.3738C27.0371 52.5038 26.9285 52.6159 26.8013 52.7038C26.674 52.7917 26.5307 52.8536 26.3795 52.886C24.8778 53.2152 23.3246 53.2332 21.8156 52.939C20.3066 52.6447 18.874 52.0444 17.6059 51.1751C16.9309 51.9129 16.1081 52.5004 15.191 52.8993C14.274 53.2981 13.2833 53.4996 12.2833 53.4904C9.69005 53.4956 7.20485 54.5297 5.37343 56.3657C3.54201 58.2017 2.51408 60.6894 2.51538 63.2827V66.8214C2.49612 67.1205 2.36373 67.401 2.14509 67.606C1.92646 67.8111 1.63798 67.9251 1.33826 67.9251C1.03854 67.9251 0.750056 67.8111 0.53142 67.606C0.312784 67.401 0.18039 67.1205 0.161133 66.8214V63.2827C0.161133 61.6885 0.475223 60.1098 1.08546 58.637C1.69569 57.1642 2.59012 55.826 3.71764 54.699C4.84516 53.5719 6.18369 52.678 7.65675 52.0684C9.12982 51.4587 10.7086 51.1453 12.3028 51.1459C12.9486 51.1472 13.5883 51.021 14.1853 50.7746C14.7822 50.5282 15.3247 50.1664 15.7815 49.71C16.2384 49.2536 16.6007 48.7115 16.8477 48.1148C17.0947 47.5181 17.2215 46.8785 17.2209 46.2327V45.9256C14.624 44.6853 12.4163 42.7577 10.837 40.3519C9.25777 37.946 8.36727 35.1538 8.26207 32.2778C7.21435 32.0294 6.28069 31.4357 5.61139 30.5922C4.94209 29.7487 4.57608 28.7046 4.57229 27.6278V21.5497C4.50893 18.5618 4.95248 11.0847 10.4213 5.83034C17.1575 -0.662108 27.9685 -0.247799 35.894 3.57358C36.0675 3.66071 36.2169 3.78915 36.3291 3.9476C36.4413 4.10605 36.5128 4.28965 36.5374 4.48224C36.5619 4.67483 36.5388 4.8705 36.4699 5.05204C36.4011 5.23357 36.2887 5.39539 36.1426 5.52327C40.1689 6.49572 43.6553 9.00425 45.8569 12.5129C46.0632 12.7752 46.161 13.1067 46.1298 13.439C46.109 13.7194 45.9899 13.9835 45.7935 14.1847C44.3614 15.6264 43.5603 17.5777 43.566 19.6097V27.6473C43.566 27.8016 43.5356 27.9543 43.4766 28.0969C43.4175 28.2394 43.331 28.3689 43.2219 28.4779C43.1129 28.587 42.9834 28.6736 42.8408 28.7326C42.6983 28.7916 42.5456 28.822 42.3913 28.822C42.2371 28.822 42.0843 28.7916 41.9418 28.7326C41.7993 28.6736 41.6698 28.587 41.5607 28.4779C41.4516 28.3689 41.3651 28.2394 41.306 28.0969C41.247 27.9543 41.2166 27.8016 41.2166 27.6473V19.6195C41.2095 17.2865 42.0181 15.0243 43.5026 13.2245C42.3836 11.6265 40.9339 10.288 39.2518 9.2998C37.5698 8.3116 35.6948 7.69687 33.7542 7.49733L31.6583 7.27799C31.398 7.24982 31.1545 7.13587 30.9661 6.95407C30.7777 6.77227 30.6551 6.53296 30.6177 6.27384C30.5803 6.01473 30.6302 5.75052 30.7594 5.52285C30.8887 5.29519 31.09 5.117 31.3317 5.01635L32.2724 4.63129C20.0236 0.361477 6.92654 5.11871 6.92654 21.5351V27.6473C6.92875 28.0929 7.05305 28.5293 7.28594 28.9091C7.51882 29.2889 7.85138 29.5977 8.24745 29.8017V22.1736C8.25003 19.9897 9.11873 17.896 10.663 16.3517C12.2072 14.8074 14.301 13.9387 16.4849 13.9362H31.4877C33.6741 13.9349 35.7716 14.8019 37.319 16.3465C38.8665 17.8912 39.7372 19.9871 39.7397 22.1736V31.805C39.7211 34.2417 39.1377 36.6409 38.0356 38.8142C36.9334 40.9875 35.3423 42.8756 33.3874 44.3304C31.4325 45.7851 29.167 46.7668 26.7687 47.1983C24.3704 47.6299 21.9048 47.4996 19.5654 46.8176C19.4986 47.6482 19.2892 48.4611 18.9463 49.2206C19.9504 49.9105 21.0849 50.3878 22.2802 50.6233C23.4754 50.8589 24.7062 50.8476 25.897 50.5902C26.0477 50.5572 26.2035 50.5543 26.3554 50.5815C26.5073 50.6087 26.6523 50.6656 26.7822 50.7488C26.9121 50.8321 27.0244 50.9402 27.1125 51.0669C27.2006 51.1935 27.2629 51.3363 27.2959 51.4871H27.2813ZM23.9863 45.1019C27.5349 45.098 30.9371 43.6866 33.4463 41.1773C35.9556 38.6681 37.367 35.2659 37.3709 31.7173V22.1736C37.3696 20.6137 36.7493 19.118 35.6463 18.015C34.5433 16.9119 33.0476 16.2917 31.4877 16.2904H16.4849C14.925 16.2917 13.4293 16.9119 12.3263 18.015C11.2232 19.118 10.603 20.6137 10.6017 22.1736V31.7173C10.6056 35.2659 12.017 38.6681 14.5262 41.1773C17.0355 43.6866 20.4377 45.098 23.9863 45.1019V45.1019ZM35.8989 65.3786H32.3699C32.0708 65.3979 31.7903 65.5303 31.5853 65.7489C31.3803 65.9675 31.2662 66.256 31.2662 66.5557C31.2662 66.8555 31.3803 67.1439 31.5853 67.3626C31.7903 67.5812 32.0708 67.7136 32.3699 67.7329H35.8989C36.0598 67.7432 36.2212 67.7205 36.373 67.666C36.5248 67.6115 36.6638 67.5265 36.7815 67.4162C36.8991 67.3059 36.9929 67.1726 37.057 67.0246C37.1211 66.8766 37.1542 66.717 37.1542 66.5557C37.1542 66.3944 37.1211 66.2349 37.057 66.0869C36.9929 65.9389 36.8991 65.8056 36.7815 65.6953C36.6638 65.585 36.5248 65.4999 36.373 65.4455C36.2212 65.391 36.0598 65.3682 35.8989 65.3786Z" fill="#008B4E"/>
</svg>
