<svg width="24" height="32" viewBox="0 0 24 32" fill="none" xmlns="http://www.w3.org/2000/svg">
<path d="M24 12.2667C24 19.0414 16.5217 32 12 32C7.47826 32 0 19.0414 0 12.2667C0 5.49197 5.37258 0 12 0C18.6274 0 24 5.49197 24 12.2667Z" fill="#43B02A"/>
<circle cx="12" cy="12" r="9" fill="white"/>
<path d="M13.3263 5.35169C12.9207 5.28254 12.5066 5.41289 12.2137 5.7019L6.56574 11.2753C5.82339 12.0079 6.20252 13.2724 7.22545 13.4757L9.78643 13.9847C10.0191 14.0309 10.1713 14.2556 10.128 14.4888L9.63299 17.1553C9.5028 17.8566 9.97177 18.5288 10.6749 18.6486C11.0805 18.7178 11.4946 18.5874 11.7875 18.2984L17.4354 12.725C18.1778 11.9925 17.7987 10.7279 16.7757 10.5246L14.2147 10.0157C13.9821 9.96945 13.8299 9.74477 13.8732 9.51157L14.3682 6.845C14.4984 6.14371 14.0294 5.47156 13.3263 5.35169Z" fill="#43B02A"/>
</svg>
