<svg width="24" height="32" viewBox="0 0 24 32" fill="none" xmlns="http://www.w3.org/2000/svg">
<path d="M24 12.2667C24 19.0414 16.5217 32 12 32C7.47826 32 0 19.0414 0 12.2667C0 5.49197 5.37258 0 12 0C18.6274 0 24 5.49197 24 12.2667Z" fill="#43B02A"/>
<circle cx="12" cy="12" r="9" fill="white"/>
<path fill-rule="evenodd" clip-rule="evenodd" d="M12 7.18384C11.3471 6.67595 10.5356 6.375 9.65625 6.375C7.49889 6.375 5.75 8.18631 5.75 10.4207C5.75 14.2628 10.4086 16.8986 11.6818 17.5473C11.8851 17.6509 12.1149 17.6509 12.3182 17.5473C13.5914 16.8986 18.25 14.2628 18.25 10.4207C18.25 8.18631 16.5011 6.375 14.3438 6.375C13.4644 6.375 12.6529 6.67595 12 7.18384Z" fill="#43B02A"/>
</svg>
