<svg width="24" height="24" viewBox="0 0 24 24" fill="none" xmlns="http://www.w3.org/2000/svg">
<path d="M20.0327 11.3188C19.9554 10.5905 20.1473 9.8592 20.5729 9.26022C20.9985 8.66123 21.6289 8.23513 22.3474 8.06077C21.6492 6.31375 20.5171 4.76925 19.0558 3.57014C18.6749 4.21294 18.068 4.69421 17.3511 4.92189C16.6342 5.14957 15.8577 5.10768 15.17 4.80424C14.4824 4.5008 13.9319 3.9571 13.6239 3.27714C13.3158 2.59717 13.2718 1.82867 13.5003 1.11862C12.5635 0.983832 11.6134 0.963825 10.6716 1.05905C9.73204 1.15622 8.8083 1.36864 7.92166 1.69141C8.277 2.33755 8.3826 3.0896 8.21876 3.80716C8.05491 4.52473 7.63282 5.15874 7.03128 5.59083C6.42974 6.02293 5.68988 6.22356 4.94984 6.15528C4.20979 6.08699 3.52015 5.75446 3.00967 5.21976C1.82541 6.69151 1.03844 8.43699 0.722656 10.2923C1.45408 10.3257 2.14916 10.6176 2.68174 11.1149C3.21432 11.6122 3.54908 12.2821 3.62527 13.0029C3.70145 13.7236 3.514 14.4476 3.09695 15.0432C2.6799 15.6389 2.06088 16.0668 1.35228 16.2493C2.04716 17.9982 3.17985 19.5434 4.64391 20.7399C5.0248 20.0971 5.63173 19.6159 6.34862 19.3882C7.0655 19.1605 7.84203 19.2024 8.52968 19.5058C9.21732 19.8093 9.76781 20.353 10.0759 21.0329C10.3839 21.7129 10.4279 22.4814 10.1994 23.1914C11.1359 23.3308 12.0865 23.3509 13.0281 23.251C13.9661 23.1533 14.8882 22.9409 15.7734 22.6187C15.4276 21.9728 15.329 21.2251 15.4959 20.513C15.6627 19.8009 16.0836 19.1724 16.6813 18.7431C17.279 18.3138 18.0132 18.1125 18.7489 18.1763C19.4846 18.2401 20.1723 18.5647 20.6854 19.0903C21.8767 17.6214 22.673 15.8779 23.0002 14.0223C22.2588 14.0034 21.5495 13.7189 21.0038 13.2218C20.4581 12.7247 20.1131 12.0485 20.0327 11.3188V11.3188Z" stroke="black" stroke-width="0.8" stroke-linecap="round" stroke-linejoin="round"/>
<path d="M16.4167 11.69C16.5107 12.5816 16.3355 13.4807 15.9132 14.2737C15.4909 15.0666 14.8406 15.7179 14.0443 16.145C13.2481 16.5721 12.3418 16.7559 11.44 16.6731C10.5382 16.5903 9.68151 16.2447 8.9782 15.68C8.27488 15.1153 7.75656 14.3568 7.4888 13.5005C7.22103 12.6442 7.21585 11.7285 7.4739 10.8693C7.73195 10.01 8.24165 9.24586 8.93852 8.67337C9.6354 8.10088 10.4882 7.7458 11.3889 7.65304C12.5965 7.52869 13.8045 7.88411 14.7473 8.64115C15.6901 9.39819 16.2906 10.4949 16.4167 11.69V11.69Z" stroke="black" stroke-linecap="round" stroke-linejoin="round"/>
</svg>
