<svg width="23" height="27" viewBox="0 0 23 27" fill="none" xmlns="http://www.w3.org/2000/svg">
<path d="M11.1908 27L7.17554 24.9924C5.01456 23.9209 3.19694 22.2655 1.92871 20.2138C0.660485 18.162 -0.00764039 15.7961 6.59186e-05 13.3841V3.67055H0.736413C3.99004 3.66031 7.16818 2.68938 9.87204 0.879588L11.1908 0L12.5256 0.889884C15.245 2.70603 18.4425 3.67382 21.7127 3.67055H22.3814V13.3841C22.3892 15.7961 21.721 18.162 20.4528 20.2138C19.1846 22.2655 17.367 23.9209 15.206 24.9924L11.1908 27ZM0.895321 4.5658V13.3841C0.888116 15.6298 1.51018 17.8325 2.69099 19.7427C3.87181 21.6529 5.56415 23.1941 7.57616 24.1916L11.1908 25.9991L14.8053 24.1916C16.8174 23.1941 18.5097 21.6529 19.6905 19.7427C20.8713 17.8325 21.4934 15.6298 21.4862 13.3841V4.5658C18.1163 4.52481 14.8308 3.50626 12.0287 1.63384L11.1908 1.07431L10.3694 1.62399C7.56362 3.50296 4.27186 4.52509 0.895321 4.5658Z" fill="black"/>
<path d="M19.3035 6.20636C16.5024 5.85868 13.8134 4.89351 11.4306 3.38049L11.1907 3.22919L10.9517 3.38049C8.56826 4.89344 5.87865 5.85832 3.07701 6.20546L2.68578 6.25425V13.3841C2.67976 15.297 3.20973 17.1734 4.2156 18.8006C5.22148 20.4278 6.66305 21.7406 8.37692 22.5904L11.1907 23.9973L14.0045 22.5904C15.7184 21.7406 17.1599 20.4278 18.1658 18.8006C19.1717 17.1734 19.7016 15.297 19.6956 13.3841V6.2556L19.3035 6.20636ZM18.8004 13.3841C18.8058 15.1306 18.3219 16.8438 17.4036 18.3294C16.4852 19.815 15.1691 21.0137 13.6043 21.7896L11.1907 22.9964L8.7771 21.7878C7.21261 21.0121 5.89665 19.8137 4.9783 18.3284C4.05995 16.8431 3.57592 15.1303 3.58104 13.3841V7.04074C6.27937 6.65288 8.86937 5.7153 11.1907 4.28604C13.5121 5.71526 16.1021 6.65312 18.8004 7.04163V13.3841Z" fill="black"/>
</svg>
