<svg width="36" height="36" viewBox="0 0 36 36" fill="none" xmlns="http://www.w3.org/2000/svg">
<path d="M22.6794 24.1394C22.6807 23.4171 22.946 22.7197 23.4263 22.176C23.9066 21.6322 24.5695 21.2789 25.2925 21.1811C24.7896 19.3969 23.8383 17.7678 22.5274 16.4458C22.0794 17.0163 21.4377 17.4067 20.7211 17.5449C20.0045 17.683 19.2617 17.5595 18.63 17.1972C17.9984 16.8349 17.5208 16.2584 17.2856 15.5743C17.0505 14.8903 17.0737 14.145 17.351 13.4766C15.5386 13.0182 13.6388 13.0182 11.8264 13.4766C12.1194 14.1491 12.1527 14.9046 11.92 15.5997C11.6873 16.2948 11.2049 16.8812 10.5642 17.2475C9.92358 17.6138 9.16935 17.7345 8.44472 17.5867C7.7201 17.4389 7.07552 17.0329 6.63336 16.4458C5.32418 17.7686 4.37401 19.3975 3.87109 21.1811C4.60258 21.2693 5.27617 21.6194 5.76474 22.1654C6.2533 22.7114 6.52304 23.4155 6.52304 24.1449C6.52304 24.8742 6.2533 25.5783 5.76474 26.1243C5.27617 26.6703 4.60258 27.0204 3.87109 27.1086C4.37519 28.8901 5.32527 30.5169 6.63336 31.8384C7.08074 31.2666 7.72244 30.8748 8.43946 30.7357C9.15648 30.5965 9.90016 30.7194 10.5326 31.0817C11.165 31.4439 11.6433 32.0208 11.8786 32.7055C12.114 33.3901 12.0906 34.136 11.8126 34.8049C13.6249 35.2638 15.5248 35.2638 17.3371 34.8049C17.0603 34.1359 17.0379 33.3902 17.2741 32.706C17.5102 32.0219 17.989 31.4457 18.6216 31.0842C19.2542 30.7228 19.9977 30.6006 20.7144 30.7403C21.4311 30.8799 22.0723 31.2721 22.5192 31.8439C23.8316 30.5217 24.7855 28.8929 25.2925 27.1086C24.5676 27.0106 23.9032 26.6557 23.4226 26.1096C22.9421 25.5636 22.678 24.8635 22.6794 24.1394V24.1394Z" stroke="#008B4E" stroke-width="1.3" stroke-linecap="round" stroke-linejoin="round"/>
<path d="M19.0967 24.1391C19.0973 25.024 18.8326 25.8892 18.3363 26.6251C17.8399 27.3611 17.1342 27.9349 16.3083 28.2737C15.4825 28.6126 14.5736 28.7014 13.6967 28.5289C12.8198 28.3564 12.0144 27.9304 11.3822 27.3047C10.75 26.6789 10.3196 25.8817 10.1453 25.0138C9.97101 24.1459 10.0607 23.2463 10.4031 22.4289C10.7455 21.6114 11.3251 20.9129 12.0687 20.4216C12.8123 19.9303 13.6864 19.6684 14.5804 19.6689C15.7782 19.6689 16.927 20.1399 17.7739 20.9782C18.6209 21.8165 19.0967 22.9535 19.0967 24.1391V24.1391Z" stroke="#008B4E" stroke-width="1.6" stroke-linecap="round" stroke-linejoin="round"/>
<path d="M30.7988 8.38527C30.7527 7.95075 30.8672 7.51441 31.1211 7.15702C31.375 6.79964 31.7512 6.5454 32.1799 6.44137C31.7633 5.399 31.0878 4.47746 30.2159 3.762C29.9887 4.14554 29.6265 4.43269 29.1988 4.56853C28.7711 4.70438 28.3078 4.67939 27.8975 4.49834C27.4872 4.31729 27.1587 3.99289 26.9749 3.58718C26.7911 3.18148 26.7649 2.72295 26.9012 2.29929C26.3422 2.21887 25.7754 2.20693 25.2135 2.26375C24.6528 2.32173 24.1017 2.44847 23.5727 2.64105C23.7847 3.02657 23.8477 3.47529 23.7499 3.90343C23.6522 4.33156 23.4003 4.70985 23.0414 4.96766C22.6825 5.22547 22.2411 5.34518 21.7995 5.30444C21.358 5.2637 20.9465 5.06529 20.6419 4.74626C19.9353 5.62439 19.4658 6.66584 19.2773 7.77285C19.7137 7.79276 20.1285 7.96689 20.4462 8.26363C20.764 8.56036 20.9637 8.96004 21.0092 9.39009C21.0547 9.82015 20.9428 10.2521 20.694 10.6075C20.4451 10.9629 20.0758 11.2182 19.653 11.3271C20.0676 12.3706 20.7434 13.2926 21.617 14.0065C21.8442 13.6229 22.2064 13.3358 22.6341 13.1999C23.0618 13.0641 23.5252 13.0891 23.9354 13.2701C24.3457 13.4512 24.6742 13.7756 24.858 14.1813C25.0418 14.587 25.068 15.0455 24.9317 15.4692C25.4904 15.5523 26.0576 15.5643 26.6195 15.5047C27.1791 15.4464 27.7293 15.3197 28.2575 15.1274C28.0511 14.7421 27.9923 14.2959 28.0919 13.8711C28.1914 13.4462 28.4426 13.0712 28.7992 12.815C29.1558 12.5589 29.5939 12.4388 30.0328 12.4768C30.4718 12.5149 30.8821 12.7086 31.1882 13.0222C31.899 12.1457 32.3741 11.1055 32.5694 9.99836C32.127 9.98704 31.7038 9.81734 31.3782 9.52072C31.0526 9.2241 30.8467 8.82068 30.7988 8.38527V8.38527Z" stroke="#008B4E" stroke-width="0.8" stroke-linecap="round" stroke-linejoin="round"/>
<path d="M28.6404 8.60681C28.6965 9.13875 28.592 9.67522 28.34 10.1484C28.0881 10.6215 27.7 11.01 27.2249 11.2649C26.7499 11.5197 26.2091 11.6294 25.6711 11.58C25.133 11.5306 24.6218 11.3244 24.2022 10.9875C23.7826 10.6505 23.4733 10.198 23.3135 9.68704C23.1538 9.17611 23.1507 8.62977 23.3047 8.11711C23.4586 7.60444 23.7627 7.14849 24.1785 6.80691C24.5943 6.46533 25.1031 6.25347 25.6406 6.19812C26.3611 6.12392 27.0818 6.33599 27.6444 6.78768C28.2069 7.23937 28.5652 7.89371 28.6404 8.60681V8.60681Z" stroke="#008B4E" stroke-linecap="round" stroke-linejoin="round"/>
</svg>
