<svg width="21" height="26" viewBox="0 0 21 26" fill="none" xmlns="http://www.w3.org/2000/svg">
<g clip-path="url(#clip0)">
<path d="M14.62 1.77C14.0631 1.19841 13.3954 0.746586 12.6577 0.442224C11.92 0.137863 11.1279 -0.0126206 10.33 4.76663e-07C9.53201 -0.0132104 8.73975 0.137004 8.00198 0.4414C7.2642 0.745796 6.59652 1.19794 6.04 1.77C5.47098 2.32621 5.02141 2.99265 4.71879 3.72857C4.41617 4.46448 4.26686 5.2544 4.28 6.05C4.26608 6.84719 4.41499 7.63884 4.71762 8.37649C5.02024 9.11414 5.47022 9.78227 6.04 10.34C6.59677 10.9089 7.2631 11.3591 7.99872 11.6633C8.73435 11.9676 9.52401 12.1195 10.32 12.11C11.1176 12.1203 11.909 11.9687 12.6463 11.6645C13.3837 11.3603 14.0517 10.9097 14.61 10.34C15.1797 9.78171 15.6303 9.1137 15.9345 8.37634C16.2387 7.63898 16.3903 6.84759 16.38 6.05C16.3908 5.25472 16.2404 4.46549 15.938 3.72991C15.6355 2.99432 15.1871 2.32762 14.62 1.77ZM10.33 11.22C9.30747 11.22 8.3079 10.9168 7.4577 10.3487C6.6075 9.78061 5.94485 8.97317 5.55354 8.02847C5.16224 7.08378 5.05985 6.04426 5.25934 5.04138C5.45883 4.0385 5.95122 3.1173 6.67426 2.39426C7.39729 1.67122 8.3185 1.17883 9.32138 0.97934C10.3243 0.779855 11.3638 0.882238 12.3085 1.27354C13.2532 1.66485 14.0606 2.3275 14.6287 3.1777C15.1968 4.0279 15.5 5.02747 15.5 6.05C15.5 6.72893 15.3663 7.40122 15.1065 8.02847C14.8466 8.65573 14.4658 9.22566 13.9857 9.70574C13.5057 10.1858 12.9357 10.5666 12.3085 10.8265C11.6812 11.0863 11.0089 11.22 10.33 11.22Z" fill="white"/>
<path d="M20.93 19.34C20.8936 18.8066 20.8268 18.2758 20.73 17.75C20.633 17.2092 20.5027 16.6748 20.34 16.15C20.1678 15.6335 19.9468 15.1346 19.68 14.66C19.4109 14.1839 19.074 13.7493 18.68 13.37C18.2703 12.9797 17.7878 12.6739 17.26 12.47C16.678 12.253 16.0611 12.1445 15.44 12.15C15.0728 12.1823 14.7241 12.3252 14.44 12.56L13.44 13.22C13.0231 13.4716 12.5763 13.6698 12.11 13.81C11.0578 14.1565 9.92222 14.1565 8.87 13.81C8.40437 13.668 7.95776 13.4699 7.54 13.22L6.54 12.56C6.25523 12.3263 5.90686 12.1835 5.54 12.15C4.92219 12.1453 4.30874 12.2537 3.73 12.47C3.1979 12.6713 2.71163 12.9773 2.3 13.37C1.90946 13.7524 1.57302 14.1865 1.3 14.66C1.03222 15.1328 0.814383 15.6321 0.65 16.15C0.482612 16.6735 0.35229 17.2082 0.26 17.75C0.156167 18.2753 0.0827113 18.8062 0.0400001 19.34C0.0400001 19.82 0.0400001 20.34 0.0400001 20.82C0.00959852 21.4012 0.100601 21.9823 0.307207 22.5264C0.513813 23.0704 0.831492 23.5655 1.24 23.98C2.11208 24.7744 3.26121 25.1945 4.44 25.15H16.55C17.7257 25.194 18.8716 24.7738 19.74 23.98C20.1577 23.5704 20.4842 23.0772 20.6979 22.5326C20.9116 21.988 21.0077 21.4044 20.98 20.82C20.98 20.31 20.97 19.81 20.93 19.34ZM19.09 23.46C18.7913 23.7549 18.434 23.9838 18.0413 24.1319C17.6485 24.2801 17.2291 24.3441 16.81 24.32H4.17C3.75259 24.3427 3.33504 24.2779 2.94413 24.1299C2.55322 23.9818 2.19757 23.7536 1.9 23.46C1.60536 23.1446 1.37735 22.7731 1.22958 22.3676C1.08182 21.9621 1.01734 21.531 1.04 21.1C1.04 20.57 1.04 20.04 1.04 19.54C1.07334 18.9969 1.13677 18.4561 1.23 17.92C1.31266 17.3822 1.43296 16.8509 1.59 16.33C1.73159 15.8562 1.91915 15.3973 2.15 14.96C2.38746 14.558 2.68795 14.1967 3.04 13.89C3.32261 13.599 3.66334 13.3707 4.04 13.22C4.42781 13.0623 4.84141 12.9775 5.26 12.97L5.56 13.17L6.64 13.93C7.18315 14.2807 7.76758 14.5628 8.38 14.77C9.78463 15.2632 11.3154 15.2632 12.72 14.77C13.3346 14.5639 13.9196 14.2781 14.46 13.92L15.54 13.17L15.85 12.97C16.2653 12.9776 16.6757 13.0624 17.06 13.22C17.4352 13.3735 17.7754 13.6014 18.06 13.89C18.3628 14.2089 18.6186 14.5691 18.82 14.96C19.0466 15.3993 19.234 15.8577 19.38 16.33C19.5276 16.8534 19.6477 17.3841 19.74 17.92C19.83 18.5 19.9 19.05 19.93 19.54C19.96 20.03 19.98 20.54 19.98 21.1C19.9987 21.5331 19.9295 21.9655 19.7765 22.3711C19.6235 22.7767 19.39 23.1471 19.09 23.46Z" fill="white"/>
</g>
<defs>
<clipPath id="clip0">
<rect width="20.98" height="25.15" fill="#36AB4D"/>
</clipPath>
</defs>
</svg>
