<svg width="18" height="18" viewBox="0 0 18 18" fill="none" xmlns="http://www.w3.org/2000/svg">
<path d="M5.33338 6.24385C4.7907 6.60646 4.15268 6.8 3.5 6.8C2.62479 6.8 1.78542 6.45232 1.16655 5.83345C0.547678 5.21458 0.2 4.37521 0.2 3.5C0.2 2.84732 0.393542 2.2093 0.75615 1.66662C1.11876 1.12394 1.63415 0.700968 2.23714 0.451198C2.84014 0.201429 3.50366 0.136079 4.1438 0.26341C4.78393 0.390742 5.37194 0.705036 5.83345 1.16655C6.29496 1.62806 6.60926 2.21606 6.73659 2.8562C6.86392 3.49634 6.79857 4.15986 6.5488 4.76286C6.29903 5.36585 5.87606 5.88124 5.33338 6.24385ZM4.42175 2.11029C4.14891 1.92798 3.82814 1.83068 3.5 1.83068C3.05998 1.83068 2.63798 2.00547 2.32684 2.31662C2.0157 2.62776 1.8409 3.04975 1.8409 3.48977C1.8409 3.81791 1.9382 4.13868 2.12051 4.41152C2.30281 4.68436 2.56193 4.89701 2.86509 5.02258C3.16825 5.14816 3.50184 5.18101 3.82367 5.117C4.14551 5.05298 4.44113 4.89496 4.67316 4.66294C4.90519 4.43091 5.0632 4.13529 5.12722 3.81345C5.19124 3.49162 5.15838 3.15803 5.03281 2.85487C4.90724 2.5517 4.69458 2.29259 4.42175 2.11029Z" fill="white" stroke="#36AB4D" stroke-width="0.4"/>
<path d="M14.5 11.2L14.5001 11.2C14.9335 11.1999 15.3626 11.2851 15.763 11.4509C16.1635 11.6167 16.5273 11.8598 16.8338 12.1662C17.1402 12.4727 17.3833 12.8365 17.5491 13.237C17.7149 13.6374 17.8001 14.0666 17.8 14.4999V14.5C17.8 15.1527 17.6065 15.7907 17.2439 16.3334C16.8812 16.8761 16.3659 17.299 15.7629 17.5488C15.1599 17.7986 14.4963 17.8639 13.8562 17.7366C13.2161 17.6093 12.6281 17.295 12.1665 16.8335C11.705 16.3719 11.3907 15.7839 11.2634 15.1438C11.1361 14.5037 11.2014 13.8401 11.4512 13.2371C11.701 12.6341 12.1239 12.1188 12.6666 11.7562C13.2093 11.3935 13.8473 11.2 14.5 11.2ZM13.5787 15.8888C13.8513 16.0712 14.1719 16.1687 14.4999 16.1689C14.7178 16.169 14.9336 16.1263 15.135 16.043C15.3363 15.9597 15.5193 15.8375 15.6735 15.6835C15.8276 15.5295 15.9499 15.3465 16.0333 15.1452C16.1168 14.9439 16.1597 14.7281 16.1597 14.5102C16.1597 14.1822 16.0624 13.8616 15.8802 13.5888C15.698 13.3161 15.4391 13.1035 15.136 12.9779C14.833 12.8523 14.4996 12.8194 14.1779 12.8833C13.8561 12.9472 13.5606 13.1051 13.3286 13.337C13.0966 13.5688 12.9385 13.8642 12.8744 14.1859C12.8102 14.5076 12.8429 14.8411 12.9683 15.1442C13.0936 15.4473 13.3061 15.7064 13.5787 15.8888Z" fill="white" stroke="#36AB4D" stroke-width="0.4"/>
<path d="M1.49845 16.5038L1.49725 16.5026C1.40222 16.4083 1.32697 16.2958 1.27592 16.172C1.22488 16.0481 1.19907 15.9153 1.20003 15.7813C1.20098 15.6473 1.22867 15.5148 1.28146 15.3917C1.33426 15.2686 1.4111 15.1572 1.50747 15.0643L1.50749 15.0643L1.51007 15.0617L15.073 1.48738C15.2648 1.30132 15.5219 1.19812 15.789 1.20003C16.0565 1.20193 16.3125 1.30913 16.5017 1.49849C16.6909 1.68786 16.7981 1.94419 16.8 2.21206C16.8019 2.47948 16.6987 2.7369 16.5128 2.92884L2.95081 16.5022C2.75565 16.6921 2.49454 16.7988 2.2224 16.7999L2.22078 16.7999C2.0867 16.8016 1.95366 16.7762 1.82957 16.7253C1.70548 16.6745 1.59287 16.5991 1.49845 16.5038Z" fill="white" stroke="#36AB4D" stroke-width="0.4"/>
</svg>
