<svg width="29" height="29" viewBox="0 0 29 29" fill="none" xmlns="http://www.w3.org/2000/svg">
<g clip-path="url(#clip0)">
<path d="M25.3335 17.2634L25.3128 16.9797C24.9806 12.6551 22.967 9.94409 21.1906 7.55286C19.5457 5.33864 18.125 3.42652 18.125 0.605185C18.125 0.378631 17.9982 0.171561 17.797 0.0676857C17.5952 -0.0367558 17.3527 -0.0196509 17.1693 0.113733C14.5014 2.0229 12.2754 5.24071 11.4978 8.31097C10.9579 10.4485 10.8865 12.8515 10.8765 14.4386C8.41272 13.9123 7.85461 10.2267 7.84872 10.1866C7.82097 9.9954 7.70418 9.829 7.53426 9.73815C7.36259 9.64849 7.16079 9.64198 6.98674 9.72812C6.85754 9.79065 3.81555 11.3364 3.63855 17.5088C3.62615 17.7142 3.62558 17.9195 3.62558 18.1254C3.62558 24.1214 8.50414 28.9999 14.5002 28.9999C20.4962 28.9999 25.3748 24.1214 25.3748 18.1254C25.3748 17.8245 25.3542 17.5437 25.3335 17.2634ZM14.5002 27.7917C12.5013 27.7917 10.8753 26.0595 10.8753 23.9302C10.8753 23.8577 10.8747 23.7845 10.88 23.6948C10.9042 22.7969 11.0747 22.1839 11.2618 21.7762C11.6122 22.5291 12.2393 23.2211 13.2565 23.2211C13.5904 23.2211 13.8607 22.9508 13.8607 22.6169C13.8607 21.7567 13.8784 20.7644 14.0925 19.8687C14.2831 19.074 14.7386 18.2297 15.3156 17.5525C15.5722 18.4315 16.0726 19.143 16.5611 19.8375C17.2602 20.831 17.9829 21.8582 18.1098 23.6098C18.1175 23.7136 18.1252 23.8181 18.1252 23.9302C18.125 26.0595 16.4991 27.7917 14.5002 27.7917ZM18.3183 27.0023C18.9454 26.1471 19.3334 25.09 19.3334 23.9302C19.3334 23.7881 19.3245 23.6559 19.3068 23.4087C19.1635 21.4364 18.3062 20.2175 17.5493 19.142C16.9044 18.2263 16.3481 17.4352 16.3481 16.313C16.3481 16.0835 16.2182 15.874 16.0129 15.772C15.8088 15.6693 15.5622 15.6923 15.3799 15.831C14.2212 16.7065 13.2548 18.1803 12.9173 19.5874C12.745 20.309 12.6849 21.0895 12.6636 21.7314C12.2447 21.2807 12.1149 20.4453 12.1138 20.4341C12.0866 20.24 11.9675 20.0706 11.7934 19.9804C11.6206 19.8907 11.4135 19.8883 11.2394 19.978C11.0872 20.0559 9.74973 20.8229 9.67304 23.6442C9.66772 23.7398 9.66715 23.8353 9.66715 23.9303C9.66715 25.0901 10.0551 26.1472 10.6822 27.0024C7.24631 25.5187 4.83402 22.0996 4.83402 18.1255C4.83402 17.9443 4.83345 17.7638 4.8458 17.5626C4.94962 13.9412 6.10839 12.1453 6.86474 11.353C7.39215 13.241 8.77391 15.7089 11.4796 15.7089C11.8135 15.7089 12.0838 15.4386 12.0838 15.1047C12.0838 13.0828 12.1292 10.7465 12.6696 8.60719C13.2832 6.18351 14.964 3.56636 16.993 1.79465C17.3299 4.38235 18.7393 6.27974 20.2208 8.27325C21.982 10.6438 23.8027 13.0952 24.1077 17.0646L24.1283 17.3537C24.1472 17.6051 24.1667 17.8558 24.1667 18.1254C24.1665 22.0995 21.7542 25.5187 18.3183 27.0023Z" fill="white"/>
</g>
<defs>
<clipPath id="clip0">
<rect width="29" height="29" fill="white"/>
</clipPath>
</defs>
</svg>
