<svg width="35" height="35" viewBox="0 0 35 35" fill="none" xmlns="http://www.w3.org/2000/svg">
<path d="M31.6428 16.0226L18.8428 3.22256C18.6346 3.01436 18.297 3.01436 18.0887 3.22256L14.3554 6.95589C14.1472 7.16416 14.1472 7.50176 14.3554 7.71002C14.5636 7.91822 14.9012 7.91822 15.1095 7.71002L18.462 4.35376L30.8887 16.7767C31.1006 16.9814 31.4382 16.9755 31.6428 16.7636C31.8424 16.5569 31.8424 16.2292 31.6428 16.0226Z" fill="#ffffff"/>
<path d="M7.64196 14.4228C7.43369 14.2146 7.09609 14.2146 6.88782 14.4228L5.28782 16.0228C5.07596 16.2274 5.07009 16.565 5.27469 16.7769C5.47929 16.9888 5.81696 16.9946 6.02882 16.79C6.03329 16.7858 6.03762 16.7814 6.04196 16.7769L7.64196 15.1769C7.85016 14.9686 7.85016 14.631 7.64196 14.4228Z" fill="#ffffff"/>
<path d="M28.5972 17.6003C28.3027 17.6003 28.0639 17.8391 28.0639 18.1336V31.1907C28.0721 31.6513 27.936 32.1031 27.6745 32.4824C27.5065 32.7455 27.2234 32.9131 26.9119 32.9336H10.0201C9.70788 32.9137 9.42375 32.7461 9.25535 32.4824C8.99315 32.1033 8.85621 31.6515 8.86388 31.1907V17.4669C8.86388 17.1724 8.62508 16.9336 8.33055 16.9336C8.03601 16.9336 7.79721 17.1724 7.79721 17.4669V31.1907C7.78728 31.8805 7.99701 32.5555 8.39615 33.1181C8.76588 33.6543 9.36915 33.9819 10.0201 34.0003H26.9119C27.5621 33.9813 28.1644 33.6537 28.5337 33.1181C28.9321 32.5552 29.1411 31.8802 29.1305 31.1907V18.1336C29.1305 17.8391 28.8917 17.6003 28.5972 17.6003Z" fill="#ffffff"/>
<path d="M27.445 2H26.5533C25.5985 2.023 24.8426 2.81473 24.8637 3.7696V7.10453C24.8637 7.39907 25.1025 7.63787 25.397 7.63787C25.6916 7.63787 25.9304 7.39907 25.9304 7.10453V3.7696C25.9097 3.40393 26.1878 3.09013 26.5533 3.06667H27.445C27.8088 3.09233 28.0844 3.40553 28.0637 3.7696V10.5333C28.0637 10.8279 28.3025 11.0667 28.597 11.0667C28.8916 11.0667 29.1304 10.8279 29.1304 10.5333V3.7696C29.1516 2.81633 28.3982 2.02533 27.445 2Z" fill="#ffffff"/>
<path d="M13.5924 12.4L11.9177 9.46667H13.1295C13.424 9.4668 13.6629 9.22813 13.6631 8.9336C13.6631 8.85073 13.6439 8.76907 13.6068 8.69493L10.4068 2.29493C10.3165 2.11413 10.1316 1.99993 9.92948 2H3.52948C3.23495 2.00213 2.99788 2.2426 3.00001 2.53713C3.00101 2.6772 3.05708 2.81133 3.15615 2.9104L6.51081 6.26667H4.59615C4.30161 6.2688 4.06455 6.50927 4.06668 6.8038C4.06768 6.94387 4.12375 7.078 4.22281 7.17707L7.04415 10H5.66281C5.44788 10.0008 5.25448 10.1305 5.17215 10.3291C5.08955 10.5284 5.13528 10.7579 5.28788 10.9104L11.9545 17.5771C12.1627 17.7855 12.5003 17.7857 12.7088 17.5775C12.8613 17.4252 12.9071 17.1961 12.8249 16.9968L11.2628 13.2H13.1295C13.424 13.2006 13.6633 12.9623 13.6639 12.6677C13.6641 12.5737 13.6394 12.4814 13.5924 12.4ZM10.4628 12.1333C10.1683 12.1332 9.92935 12.3719 9.92928 12.6665C9.92928 12.7363 9.94295 12.8054 9.96948 12.8699L10.8228 14.9376L6.95241 11.0667H8.32948C8.62401 11.0666 8.86275 10.8278 8.86268 10.5332C8.86268 10.3918 8.80648 10.2563 8.70655 10.1563L5.88575 7.33333H7.79615C8.09068 7.33327 8.32941 7.09447 8.32935 6.79987C8.32935 6.65847 8.27315 6.52293 8.17321 6.42293L4.81908 3.06667H9.60201L12.2687 8.4H10.9961C10.7016 8.3994 10.4623 8.63773 10.4617 8.93227C10.4615 9.02627 10.4862 9.1186 10.5332 9.2L12.2121 12.1333H10.4628Z" fill="#ffffff"/>
<path d="M25.576 23.8979L22.4021 22.7688L23.8485 19.7288C23.9776 19.4641 23.8676 19.1447 23.6029 19.0157C23.4569 18.9445 23.2864 18.9437 23.1397 19.0136L20.0997 20.46L18.9707 17.2861C18.8718 17.0087 18.5667 16.8639 18.2893 16.9627C18.1383 17.0165 18.0196 17.1353 17.9659 17.2861L16.8368 20.46L13.7968 19.0136C13.5309 18.8869 13.2126 18.9996 13.0859 19.2655C13.0167 19.4107 13.0167 19.5794 13.0859 19.7245L14.5323 22.7645L11.3584 23.8936C11.0809 23.9925 10.9361 24.2975 11.035 24.575C11.0887 24.7259 11.2075 24.8447 11.3584 24.8984L14.5323 26.0275L13.0859 29.0675C12.9545 29.3311 13.0616 29.6513 13.3252 29.7827C13.4721 29.8559 13.6444 29.8575 13.7925 29.7869L16.8325 28.3405L17.9616 31.5144C18.0605 31.7919 18.3655 31.9367 18.643 31.8378C18.7939 31.7841 18.9127 31.6653 18.9664 31.5144L20.0955 28.3405L23.1355 29.7869C23.3995 29.9175 23.7194 29.8093 23.8499 29.5453C23.9234 29.3968 23.9237 29.2226 23.8507 29.0739L22.4043 26.0339L25.5781 24.9048C25.7906 24.8283 25.9319 24.6261 25.9307 24.4003C25.9306 24.1747 25.7886 23.9735 25.576 23.8979ZM21.488 25.2243C21.2105 25.3229 21.0655 25.6279 21.1641 25.9054C21.1703 25.9226 21.1773 25.9395 21.1851 25.956L22.2411 28.1773L20.0219 27.1203C19.7559 26.9937 19.4377 27.1067 19.3111 27.3726C19.3032 27.3891 19.2962 27.4059 19.2901 27.4232L18.464 29.7421L17.6421 27.4243C17.5435 27.1467 17.2385 27.0017 16.961 27.1004C16.9438 27.1065 16.9269 27.1135 16.9104 27.1213L14.6891 28.1773L15.7451 25.956C15.8717 25.6901 15.7587 25.3718 15.4927 25.2452C15.4763 25.2373 15.4593 25.2303 15.4421 25.2243L13.1243 24.4003L15.4421 23.5763C15.7197 23.4776 15.8647 23.1727 15.766 22.8951C15.7599 22.8779 15.7529 22.8611 15.7451 22.8445L14.6891 20.6232L16.9104 21.6792C17.1763 21.8058 17.4946 21.6928 17.6212 21.4269C17.6291 21.4104 17.6361 21.3935 17.6421 21.3763L18.464 19.0584L19.288 21.3763C19.3867 21.6538 19.6916 21.7988 19.9691 21.7001C19.9863 21.694 20.0032 21.687 20.0197 21.6792L22.2411 20.6232L21.1851 22.8445C21.0585 23.1105 21.1715 23.4287 21.4374 23.5553C21.4539 23.5632 21.4707 23.5702 21.488 23.5763L23.808 24.4003L21.488 25.2243Z" fill="#ffffff"/>
</svg>
