<svg width="29" height="29" viewBox="0 0 29 29" fill="none" xmlns="http://www.w3.org/2000/svg">
<g clip-path="url(#clip0)">
<path d="M17.3087 0H2.34055C1.05039 0 0 1.05039 0 2.34055V26.6594C0 27.9496 1.05039 29 2.34055 29H17.3087C18.5988 29 19.6492 27.9496 19.6492 26.6594V2.34055C19.6435 1.05039 18.5931 0 17.3087 0ZM18.713 26.6594H18.7073C18.7073 27.4358 18.0793 28.0638 17.303 28.0638H2.34055C1.56417 28.0638 0.93622 27.4358 0.93622 26.6594V2.34055C0.93622 1.56417 1.56417 0.93622 2.34055 0.93622H17.3087C18.085 0.93622 18.713 1.56417 18.713 2.34055V26.6594Z" fill="#008B4E"/>
<path d="M2.33984 11.2285V14.9677H6.07902V11.2285H2.33984ZM5.1485 14.0315H3.27606V12.159H5.1485V14.0315Z" fill="#008B4E"/>
<path d="M13.5625 11.2285V14.9677H17.3017V11.2285H13.5625ZM16.3712 14.0315H14.4987V12.159H16.3712V14.0315Z" fill="#008B4E"/>
<path d="M7.95312 11.2285V14.9677H11.6923V11.2285H7.95312ZM10.7618 14.0315H8.88935V12.159H10.7618V14.0315Z" fill="#008B4E"/>
<path d="M2.33984 16.8408V20.58H6.07902V16.8408H2.33984ZM5.1485 19.6495H3.27606V17.777H5.1485V19.6495Z" fill="#008B4E"/>
<path d="M13.5625 16.8408V26.1916H17.3017V16.8408H13.5625ZM16.3712 25.2611H14.4987V17.777H16.3712V25.2611Z" fill="#008B4E"/>
<path d="M7.95312 16.8408V20.58H11.6923V16.8408H7.95312ZM10.7618 19.6495H8.88935V17.777H10.7618V19.6495Z" fill="#008B4E"/>
<path d="M2.33984 22.4521V26.1913H6.07902V22.4521H2.33984ZM5.1485 25.2608H3.27606V23.3884H5.1485V25.2608Z" fill="#008B4E"/>
<path d="M7.95312 22.4521V26.1913H11.6923V22.4521H7.95312ZM10.7618 25.2608H8.88935V23.3884H10.7618V25.2608Z" fill="#008B4E"/>
<path d="M2.33984 2.80859V9.35643H17.308V2.80859H2.33984ZM16.3717 8.4145H3.27606V3.73911H16.3717V8.4145Z" fill="#008B4E"/>
<path d="M10.2917 5.61133H9.35547V6.54755H10.2917V5.61133Z" fill="#008B4E"/>
<path d="M12.1589 5.61133H11.2227V6.54755H12.1589V5.61133Z" fill="#008B4E"/>
<path d="M8.4206 5.61133H7.48438V6.54755H8.4206V5.61133Z" fill="#008B4E"/>
<path d="M25.7234 0C23.9195 0 22.4467 1.46713 22.4467 3.27677V4.21299H20.5742V11.697H21.5104V5.1435H22.4467V25.4492L25.7234 28.726L29.0002 25.4492V3.27677C29.0002 1.46713 27.5331 0 25.7234 0ZM25.7234 27.4016L24.0451 25.7232H27.4018L25.7234 27.4016ZM28.064 24.7927H23.3886V21.9841H28.064V24.7927ZM28.064 21.0478H23.3886V5.1435H28.064V21.0478ZM28.0697 4.20728H28.064H23.3886V3.27677C23.3886 1.98661 24.439 0.93622 25.7291 0.93622C27.0193 0.93622 28.0697 1.98661 28.0697 3.27677V4.20728Z" fill="#008B4E"/>
</g>
<defs>
<clipPath id="clip0">
<rect width="29" height="29" fill="white"/>
</clipPath>
</defs>
</svg>
