<svg width="35" height="36" viewBox="0 0 35 36" fill="none" xmlns="http://www.w3.org/2000/svg">
<path d="M24.5842 16.6899L18.2362 22.8672H15.7698V21.8115C16.8253 21.0445 17.5569 19.916 17.8231 18.6444H17.9324C18.5007 18.6476 19.0471 18.4274 19.4523 18.0318C19.8575 17.6361 20.0886 17.0973 20.095 16.533C20.0939 16.0218 19.9012 15.5294 19.5544 15.1516V13.3418C19.5511 11.4883 18.8066 9.71201 17.4845 8.40365C16.1625 7.09528 14.3711 6.36204 12.5047 6.36524C10.6382 6.36844 8.84945 7.10782 7.53193 8.42071C6.21441 9.7336 5.47605 11.5125 5.47927 13.366V15.1757C5.13076 15.5529 4.9359 16.0453 4.93255 16.5572C4.94531 17.1204 5.18167 17.6558 5.59015 18.0467C5.99862 18.4377 6.54612 18.6525 7.11337 18.6444H7.22271C7.49365 19.9172 8.22938 21.0454 9.28811 21.8115V22.8672H6.57272C5.15105 22.8575 3.7834 23.4075 2.76904 24.3967C1.75467 25.3859 1.17619 26.7339 1.16016 28.1456V34.4798C1.16176 34.6211 1.21942 34.7561 1.32064 34.8555C1.42186 34.9549 1.55846 35.0106 1.70081 35.0106H23.345C23.4873 35.0106 23.6239 34.9549 23.7252 34.8555C23.8264 34.7561 23.884 34.6211 23.8856 34.4798V28.1456C23.8754 26.9339 23.448 25.7622 22.6744 24.825C21.9009 23.8878 20.8278 23.2417 19.6333 22.9939L25.1795 17.5646H34.7047V16.533H24.9852C24.911 16.5301 24.8371 16.5426 24.7681 16.5696C24.699 16.5966 24.6364 16.6375 24.5842 16.6899ZM9.56148 23.9289L11.6694 26.3962L9.59185 27.4097L8.37691 23.9289H9.56148ZM12.4227 29.7382H12.6171L13.4857 33.961H11.554L12.4227 29.7382ZM12.7264 28.6825H12.3133L11.7362 27.5424L12.5199 27.1563L13.3096 27.5424L12.7264 28.6825ZM13.3764 26.3902L15.4782 23.9229H16.6385L15.4539 27.4036L13.3764 26.3902ZM17.9324 17.5887V15.4774C18.2144 15.4774 18.4848 15.5886 18.6841 15.7866C18.8835 15.9845 18.9955 16.2531 18.9955 16.533C18.9955 16.813 18.8835 17.0815 18.6841 17.2795C18.4848 17.4775 18.2144 17.5887 17.9324 17.5887ZM6.03207 16.533C6.03286 16.3931 6.0615 16.2547 6.11635 16.1258C6.1712 15.9969 6.25116 15.88 6.35165 15.7819C6.45214 15.6838 6.57117 15.6064 6.70189 15.5541C6.83262 15.5018 6.97246 15.4758 7.11337 15.4774V17.5887C6.97246 17.5903 6.83262 17.5642 6.70189 17.512C6.57117 17.4597 6.45214 17.3823 6.35165 17.2842C6.25116 17.1861 6.1712 17.0692 6.11635 16.9403C6.0615 16.8114 6.03286 16.673 6.03207 16.533ZM7.11337 14.4217C6.93085 14.4238 6.74928 14.4481 6.57272 14.4941V13.366C6.6221 11.8315 7.27063 10.3763 8.38111 9.30825C9.49159 8.24015 10.9769 7.64294 12.5229 7.64294C14.0689 7.64294 15.5542 8.24015 16.6647 9.30825C17.7752 10.3763 18.4237 11.8315 18.4731 13.366V14.4941C18.2964 14.4484 18.1149 14.4241 17.9324 14.4217C17.9316 14.3519 17.917 14.2831 17.8894 14.219C17.8618 14.1549 17.8218 14.0968 17.7716 14.048C17.7214 13.9993 17.662 13.9609 17.5968 13.9349C17.5316 13.909 17.462 13.896 17.3918 13.8968C16.9735 13.8964 16.5608 13.8004 16.1858 13.6163C15.8109 13.4322 15.4835 13.1649 15.2292 12.8351L14.5913 12.0087C14.5377 11.9463 14.4711 11.8962 14.3961 11.8619C14.3212 11.8275 14.2396 11.8097 14.157 11.8097C14.0744 11.8097 13.9928 11.8275 13.9178 11.8619C13.8428 11.8962 13.7763 11.9463 13.7227 12.0087L13.0727 12.8592C12.8174 13.1876 12.4897 13.4535 12.1148 13.6365C11.7399 13.8195 11.3278 13.9148 10.9101 13.9149H7.65402C7.5153 13.9132 7.38136 13.9651 7.28047 14.0597C7.17958 14.1542 7.11966 14.284 7.11337 14.4217ZM8.19467 17.5887V14.9525H10.8979C11.4842 14.9528 12.0628 14.8198 12.5893 14.5636C13.1158 14.3074 13.5762 13.9349 13.9353 13.4746L14.154 13.191L14.3666 13.4685C14.9749 14.2541 15.869 14.7717 16.8572 14.9103V17.5887C16.8152 18.7008 16.3409 19.7535 15.5338 20.5255C14.7266 21.2975 13.6496 21.7289 12.529 21.7289C11.4083 21.7289 10.3313 21.2975 9.52419 20.5255C8.71707 19.7535 8.2427 18.7008 8.20074 17.5887H8.19467ZM12.5199 22.8672C13.2658 22.8669 14.0039 22.7149 14.6885 22.4208V23.205L12.5199 25.7386L10.339 23.205V22.4208C11.0274 22.7166 11.7698 22.8685 12.5199 22.8672ZM2.24145 28.1456C2.25268 27.0155 2.71513 25.936 3.52724 25.1443C4.33934 24.3525 5.43469 23.9132 6.57272 23.9229H7.26524L8.76569 28.2964C8.79003 28.3684 8.82979 28.4342 8.88223 28.4894C8.93466 28.5446 8.99853 28.5878 9.06942 28.6162C9.13527 28.6421 9.20516 28.6564 9.27596 28.6584C9.3603 28.6553 9.44306 28.6347 9.51895 28.5981L10.7339 27.9948L11.3839 29.2616L10.4241 33.9429H5.47927V30.7879H4.40405V33.9549H2.24145V28.1456ZM22.8043 28.1456V33.9549H20.666V30.7879H19.5544V33.9549H14.5913L13.6315 29.2737L14.2815 28.0069L15.5268 28.6101C15.6021 28.6484 15.6853 28.6691 15.7698 28.6705C15.8406 28.6684 15.9105 28.6541 15.9764 28.6282C16.0473 28.5999 16.1111 28.5567 16.1636 28.5015C16.216 28.4463 16.2558 28.3804 16.2801 28.3085L17.7806 23.9168H18.4731C19.0371 23.9121 19.5965 24.0177 20.1194 24.2276C20.6423 24.4375 21.1185 24.7477 21.5207 25.1404C21.9229 25.5331 22.2433 26.0006 22.4635 26.5162C22.6838 27.0319 22.7996 27.5855 22.8043 28.1456Z" fill="#ffffff"/>
<path d="M33.6253 14.4226V7.03278C33.6245 6.96306 33.6099 6.89419 33.5823 6.83008C33.5547 6.76597 33.5147 6.7079 33.4645 6.65916C33.4142 6.61042 33.3549 6.57199 33.2897 6.54604C33.2245 6.5201 33.1549 6.50715 33.0847 6.50795H30.9221C30.8514 6.50635 30.781 6.5187 30.7152 6.54428C30.6493 6.56987 30.5892 6.60818 30.5383 6.65699C30.4875 6.70581 30.4469 6.76416 30.4189 6.82866C30.3909 6.89317 30.3761 6.96255 30.3753 7.03278V14.4226H29.294V10.1998C29.2933 10.1301 29.2786 10.0613 29.251 9.99715C29.2234 9.93304 29.1834 9.87496 29.1332 9.82623C29.083 9.77749 29.0236 9.73905 28.9584 9.71311C28.8933 9.68716 28.8236 9.67422 28.7534 9.67502H26.5908C26.5206 9.67422 26.4509 9.68716 26.3858 9.71311C26.3206 9.73905 26.2612 9.77749 26.211 9.82623C26.1608 9.87496 26.1208 9.93304 26.0932 9.99715C26.0656 10.0613 26.0509 10.1301 26.0502 10.1998V14.4226H24.9689V11.7864C24.9689 11.7162 24.9548 11.6466 24.9276 11.5818C24.9003 11.517 24.8604 11.4582 24.8101 11.4089C24.7599 11.3595 24.7002 11.3205 24.6346 11.2942C24.5691 11.2679 24.4989 11.2547 24.4282 11.2555H22.2595C22.1888 11.2547 22.1187 11.2679 22.0531 11.2942C21.9875 11.3205 21.9279 11.3595 21.8776 11.4089C21.8273 11.4582 21.7874 11.517 21.7602 11.5818C21.7329 11.6466 21.7189 11.7162 21.7189 11.7864V14.4226H20.668V15.4783H34.7066V14.4226H33.6253ZM31.4627 7.56364H32.544V14.4226H31.4627V7.56364ZM27.1315 10.7307H28.2127V14.4226H27.1315V10.7307ZM22.8063 12.3112H23.8876V14.4226H22.8063V12.3112Z" fill="#ffffff"/>
<path d="M25.7342 5.45236H28.7715C28.9149 5.45192 29.0523 5.3956 29.1542 5.29552L30.3692 4.08901V5.45236H31.4565V2.81012C31.4558 2.73989 31.441 2.67051 31.413 2.60601C31.385 2.5415 31.3444 2.48315 31.2935 2.43433C31.2427 2.38552 31.1826 2.34721 31.1167 2.32163C31.0509 2.29604 30.9805 2.28369 30.9098 2.28529H28.2127V3.34098H29.6098L28.5285 4.39667H25.5276C25.3853 4.39613 25.2482 4.45015 25.1449 4.54749L21.8828 7.71455L22.6422 8.46259L25.7342 5.45236Z" fill="#ffffff"/>
</svg>
