<svg width="22" height="23" viewBox="0 0 22 23" fill="none" xmlns="http://www.w3.org/2000/svg">
<path d="M19.1671 0H2.83293C1.27084 0 0 1.32861 0 2.9617V20.0383C0 21.6714 1.27084 23 2.83293 23H19.1671C20.7292 23 22 21.6714 22 20.0383V2.9617C22 1.32861 20.7292 0 19.1671 0ZM21.2343 20.0383C21.2343 21.23 20.307 22.1995 19.1671 22.1995H2.83293C1.69301 22.1995 0.76566 21.23 0.76566 20.0383V2.9617C0.76566 1.76997 1.69301 0.800463 2.83293 0.800463H19.1671C20.307 0.800463 21.2343 1.76997 21.2343 2.9617V20.0383Z" fill="white"/>
<path d="M19.9834 11.0997H19.1666C18.9552 11.0997 18.7838 11.2789 18.7838 11.5C18.7838 11.721 18.9552 11.9002 19.1666 11.9002H19.9834C20.1948 11.9002 20.3663 11.721 20.3663 11.5C20.3662 11.279 20.1948 11.0997 19.9834 11.0997Z" fill="white"/>
<path d="M17.5336 11.0997H11.3829V4.6694C11.3829 4.44839 11.2115 4.2692 11 4.2692C10.7886 4.2692 10.6172 4.44839 10.6172 4.6694V11.0997H2.01624C1.80483 11.0997 1.63338 11.2789 1.63338 11.5C1.63338 11.721 1.80479 11.9002 2.01624 11.9002H10.6172V20.8921C10.6172 21.1131 10.7886 21.2923 11 21.2923C11.2114 21.2923 11.3828 21.1131 11.3828 20.8921V11.9003H17.5336C17.745 11.9003 17.9164 11.7211 17.9164 11.5C17.9164 11.279 17.745 11.0997 17.5336 11.0997Z" fill="white"/>
<path d="M11.0002 1.70766C10.7888 1.70766 10.6174 1.88685 10.6174 2.10791V2.96188C10.6174 3.18298 10.7888 3.36213 11.0002 3.36213C11.2116 3.36213 11.3831 3.18294 11.3831 2.96188V2.10791C11.3831 1.88685 11.2116 1.70766 11.0002 1.70766Z" fill="white"/>
<path d="M8.14151 5.54988H6.07425V3.38864C6.07425 3.16763 5.90284 2.98839 5.69144 2.98839C5.48003 2.98839 5.30858 3.16758 5.30858 3.38864V5.54988H3.24127C3.02987 5.54988 2.85842 5.72907 2.85842 5.95013C2.85842 6.17119 3.02982 6.35034 3.24127 6.35034H5.30854V8.51158C5.30854 8.73259 5.47994 8.91179 5.69139 8.91179C5.90284 8.91179 6.0742 8.73259 6.0742 8.51158V6.35034H8.14147C8.35288 6.35034 8.52428 6.17115 8.52428 5.95013C8.52428 5.72912 8.35292 5.54988 8.14151 5.54988Z" fill="white"/>
<path d="M18.7586 5.54988H13.8583C13.6469 5.54988 13.4755 5.72907 13.4755 5.95014C13.4755 6.1712 13.6469 6.35034 13.8583 6.35034H18.7586C18.97 6.35034 19.1414 6.17115 19.1414 5.95014C19.1414 5.72912 18.97 5.54988 18.7586 5.54988Z" fill="white"/>
<path d="M18.7586 15.3689H13.8583C13.6469 15.3689 13.4755 15.5481 13.4755 15.7691C13.4755 15.9901 13.6469 16.1694 13.8583 16.1694H18.7586C18.97 16.1694 19.1414 15.9902 19.1414 15.7691C19.1414 15.5481 18.97 15.3689 18.7586 15.3689Z" fill="white"/>
<path d="M18.7586 17.9304H13.8583C13.6469 17.9304 13.4755 18.1096 13.4755 18.3306C13.4755 18.5516 13.6469 18.7308 13.8583 18.7308H18.7586C18.97 18.7308 19.1414 18.5517 19.1414 18.3306C19.1414 18.1096 18.97 17.9304 18.7586 17.9304Z" fill="white"/>
<path d="M6.23288 17.0499L8.00396 15.1983C8.15345 15.042 8.15345 14.7885 8.00396 14.6323C7.85447 14.476 7.61204 14.476 7.4626 14.6323L5.69151 16.4839L3.92042 14.6323C3.77094 14.476 3.52851 14.476 3.37906 14.6323C3.22957 14.7886 3.22957 15.042 3.37906 15.1983L5.15015 17.0499L3.37906 18.9015C3.22957 19.0577 3.22957 19.3112 3.37906 19.4674C3.45378 19.5456 3.5518 19.5847 3.64976 19.5847C3.74773 19.5847 3.8457 19.5456 3.92047 19.4674L5.69155 17.6158L7.46264 19.4674C7.53736 19.5456 7.63538 19.5847 7.73334 19.5847C7.83131 19.5847 7.92928 19.5456 8.00405 19.4674C8.15354 19.3112 8.15354 19.0577 8.00405 18.9015L6.23288 17.0499Z" fill="white"/>
</svg>
