<svg width="33" height="33" viewBox="0 0 33 33" fill="none" xmlns="http://www.w3.org/2000/svg">
<path d="M27.0439 8.80566H24.3898C24.7666 8.34611 25.0049 7.78972 25.0772 7.20092C25.1495 6.61211 25.0528 6.01496 24.7982 5.47861C24.5437 4.94226 24.1417 4.48865 23.6389 4.17028C23.1361 3.85191 22.553 3.68182 21.9571 3.67969C20.2067 3.67969 18.6669 4.65863 17.5019 6.50824C17.2521 6.90575 17.0299 7.31975 16.8367 7.74736C16.6437 7.32001 16.4221 6.90604 16.1734 6.50824C15.0066 4.65863 13.4605 3.67969 11.7158 3.67969C11.1199 3.68182 10.5368 3.85191 10.034 4.17028C9.53118 4.48865 9.12924 4.94226 8.8747 5.47861C8.62017 6.01496 8.52344 6.61211 8.59573 7.20092C8.66801 7.78972 8.90635 8.34611 9.28315 8.80566H6.5954C5.84184 8.80581 5.11918 9.10386 4.58633 9.63429C4.05348 10.1647 3.75406 10.8841 3.75391 11.6342V15.9235C3.75391 16.0739 3.8139 16.218 3.92069 16.3243C4.02748 16.4306 4.17232 16.4904 4.32334 16.4904H5.46791V26.9826C5.46799 27.3543 5.54161 27.7222 5.68458 28.0655C5.82755 28.4088 6.03706 28.7207 6.30114 28.9834C6.56523 29.246 6.87871 29.4543 7.22368 29.5964C7.56866 29.7384 7.93837 29.8114 8.31169 29.8112H25.3561C26.1096 29.8109 26.8322 29.5128 27.365 28.9824C27.8978 28.452 28.1973 27.7327 28.1976 26.9826V16.4824H29.3171C29.4681 16.4824 29.613 16.4227 29.7198 16.3164C29.8266 16.2101 29.8866 16.0659 29.8866 15.9156V11.6285C29.885 10.8791 29.5849 10.161 29.0519 9.63172C28.5189 9.10245 27.7967 8.80536 27.0439 8.80566ZM21.9571 4.80544C23.0482 4.80544 23.9633 5.72203 23.9633 6.80243C23.9633 7.92252 23.0937 8.79942 21.9856 8.79942H17.6209C18.1271 7.48718 19.4567 4.80544 21.9571 4.80544ZM9.70396 6.80243C9.70396 5.71636 10.6247 4.80544 11.7101 4.80544C14.2054 4.80544 15.535 7.48718 16.0378 8.80566H11.6748C10.5735 8.80566 9.70396 7.92252 9.70396 6.80243ZM27.061 26.9821C27.0597 27.4316 26.8795 27.8623 26.5601 28.18C26.2406 28.4978 25.8077 28.6766 25.3561 28.6775H8.31169C7.86019 28.6766 7.42741 28.4978 7.10794 28.1802C6.78847 27.8627 6.60829 27.4321 6.60679 26.9826V16.4824H27.061V26.9821ZM28.7488 15.3504H4.88937V11.6285C4.89012 11.1784 5.07012 10.747 5.38992 10.4287C5.70972 10.1105 6.14322 9.93144 6.5954 9.93084H27.0496C27.5016 9.93174 27.9348 10.1109 28.2544 10.4291C28.5739 10.7473 28.7538 11.1786 28.7545 11.6285V15.351L28.7488 15.3504Z" fill="#008B4E"/>
<path d="M14.6093 22.1961C14.9949 22.1961 15.3717 22.0823 15.6923 21.8691C16.0128 21.6558 16.2626 21.3528 16.4102 20.9983C16.5577 20.6437 16.5963 20.2536 16.5211 19.8772C16.4459 19.5008 16.2602 19.1551 15.9876 18.8837C15.715 18.6124 15.3677 18.4276 14.9896 18.3527C14.6115 18.2778 14.2196 18.3163 13.8634 18.4631C13.5073 18.61 13.2028 18.8587 12.9887 19.1778C12.7745 19.4968 12.6602 19.872 12.6602 20.2557C12.6602 20.7703 12.8655 21.2639 13.2311 21.6278C13.5966 21.9916 14.0924 22.1961 14.6093 22.1961ZM14.6093 19.4412C14.7701 19.4412 14.9272 19.4886 15.0608 19.5775C15.1944 19.6664 15.2986 19.7927 15.3601 19.9405C15.4216 20.0883 15.4377 20.251 15.4063 20.4079C15.375 20.5648 15.2976 20.7089 15.1839 20.822C15.0703 20.9352 14.9255 21.0122 14.7679 21.0434C14.6102 21.0746 14.4469 21.0586 14.2984 20.9974C14.1499 20.9362 14.023 20.8325 13.9337 20.6995C13.8444 20.5664 13.7968 20.4101 13.7968 20.2501C13.7968 20.0355 13.8824 19.8298 14.0348 19.6781C14.1871 19.5264 14.3938 19.4412 14.6093 19.4412Z" fill="#008B4E"/>
<path d="M19.0318 22.7168C18.6462 22.7168 18.2692 22.8306 17.9486 23.0439C17.6279 23.2572 17.378 23.5603 17.2304 23.9149C17.0829 24.2696 17.0443 24.6598 17.1195 25.0363C17.1947 25.4128 17.3804 25.7586 17.6531 26.0301C17.9258 26.3015 18.2732 26.4864 18.6514 26.5612C19.0296 26.6361 19.4217 26.5977 19.7779 26.4508C20.1342 26.3039 20.4387 26.0551 20.653 25.736C20.8672 25.4168 20.9815 25.0415 20.9815 24.6577C20.9816 24.4028 20.9312 24.1504 20.8333 23.9148C20.7353 23.6793 20.5917 23.4653 20.4106 23.2851C20.2296 23.1049 20.0146 22.9619 19.778 22.8644C19.5414 22.7669 19.2879 22.7167 19.0318 22.7168ZM19.0318 25.4722C18.8711 25.4721 18.714 25.4246 18.5805 25.3356C18.4469 25.2467 18.3429 25.1203 18.2815 24.9725C18.22 24.8247 18.204 24.6621 18.2355 24.5052C18.2669 24.3483 18.3443 24.2042 18.458 24.0912C18.5716 23.9781 18.7164 23.9011 18.874 23.87C19.0317 23.8388 19.195 23.8548 19.3435 23.9161C19.4919 23.9773 19.6188 24.081 19.708 24.214C19.7973 24.347 19.8449 24.5034 19.8449 24.6633C19.8449 24.7696 19.8239 24.8748 19.783 24.973C19.7422 25.0712 19.6823 25.1604 19.6067 25.2355C19.5312 25.3106 19.4416 25.3702 19.3429 25.4108C19.2443 25.4514 19.1385 25.4723 19.0318 25.4722Z" fill="#008B4E"/>
<path d="M13.3532 25.9075C13.4059 25.9604 13.4688 26.0022 13.538 26.0305C13.6073 26.0587 13.6815 26.0728 13.7564 26.0719C13.9073 26.0713 14.052 26.0123 14.1601 25.9075L20.4684 19.628C20.5721 19.5217 20.6297 19.3791 20.6286 19.2309C20.6276 19.0827 20.568 18.9409 20.4627 18.8361C20.3574 18.7313 20.215 18.672 20.0661 18.6709C19.9172 18.6699 19.7739 18.7272 19.6672 18.8305L13.3589 25.11C13.3052 25.1615 13.2623 25.2232 13.2329 25.2915C13.2035 25.3598 13.188 25.4332 13.1875 25.5075C13.187 25.5818 13.2014 25.6555 13.2298 25.7242C13.2583 25.7928 13.3002 25.8552 13.3532 25.9075Z" fill="#008B4E"/>
</svg>
