<svg width="35" height="35" viewBox="0 0 35 35" fill="none" xmlns="http://www.w3.org/2000/svg">
<path d="M26.2401 6.4856H23.1164V6.1326C23.1097 5.00032 22.1906 4.08118 21.0583 4.08785H20.0259C19.3599 2.39609 17.4484 1.56354 15.7566 2.22958C14.9041 2.56261 14.2314 3.23531 13.8983 4.08785H12.886C11.767 4.08785 10.8612 4.99366 10.8612 6.11262C10.8612 6.11928 10.8612 6.12594 10.8612 6.13926V6.49226H7.73744C6.21886 6.49226 5 7.75109 5 9.26966V31.2757C5 32.7743 6.2122 33.9932 7.71746 33.9999C7.72412 33.9999 7.73078 33.9999 7.7441 33.9999H26.2401C27.7387 34.0132 28.9709 32.8076 28.9776 31.3024C28.9776 31.2957 28.9776 31.2891 28.9776 31.2757V9.263C28.9776 7.74442 27.7521 6.4856 26.2401 6.4856ZM12.1933 6.1326C12.18 5.75295 12.4797 5.43325 12.8593 5.41993C12.866 5.41993 12.8793 5.41993 12.886 5.41993H14.3779C14.6909 5.41993 14.9574 5.20014 15.024 4.90042C15.2438 3.9613 16.0164 3.32856 16.9488 3.32856C17.8746 3.32856 18.6739 3.98128 18.867 4.8871C18.9336 5.20014 19.2001 5.41993 19.5198 5.41993H21.0517C21.4513 5.41327 21.7776 5.73297 21.7776 6.1326V8.75015H12.1933V6.1326ZM27.6455 31.2691C27.6455 32.035 27.0261 32.6545 26.2668 32.6611C26.2601 32.6611 26.2468 32.6611 26.2401 32.6611H7.73744C6.97149 32.6744 6.33875 32.0617 6.33209 31.2957C6.33209 31.2891 6.33209 31.2757 6.33209 31.2691V9.263C6.33209 8.47707 6.95817 7.81769 7.73744 7.81769H10.8612V9.43618C10.8479 9.77586 11.1143 10.0689 11.4606 10.0822C11.4739 10.0822 11.4873 10.0822 11.4939 10.0822H22.4503C22.81 10.0956 23.1097 9.80916 23.1164 9.4495C23.1164 9.44284 23.1164 9.44284 23.1164 9.43618V7.81769H26.2401C27.0261 7.81769 27.6455 8.48373 27.6455 9.263V31.2691Z" fill="#008B4E"/>
<path d="M17.7529 25.6016H9.96683C9.6005 25.6016 9.30078 25.9013 9.30078 26.2676C9.30078 26.6339 9.59384 26.9337 9.96683 26.9337H17.7529C18.1192 26.9337 18.4189 26.6339 18.4189 26.2676C18.4189 25.9013 18.1192 25.6016 17.7529 25.6016Z" fill="#008B4E"/>
<path d="M24.007 28.3984H9.96683C9.6005 28.3984 9.30078 28.6982 9.30078 29.0645C9.30078 29.4308 9.6005 29.7305 9.96683 29.7305H24.0137C24.38 29.7305 24.6797 29.4308 24.6797 29.0645C24.6797 28.6982 24.38 28.3984 24.007 28.3984Z" fill="#008B4E"/>
<path d="M25.6488 16.5765L24.1169 15.8838L22.7515 13.7059C22.2986 12.9799 21.4927 12.5403 20.6335 12.5469H15.3385C14.5592 12.5469 13.8266 12.9066 13.3537 13.5194L11.5953 15.8305L8.63807 16.6365C7.75223 16.8762 7.13281 17.6821 7.13281 18.6013V19.7602C7.13281 20.8858 8.04529 21.805 9.17757 21.805H9.24417C9.69708 23.1171 11.1357 23.8164 12.4478 23.3568C13.1738 23.1037 13.7466 22.5309 13.9997 21.805H19.7477C20.2006 23.1171 21.6392 23.8164 22.9513 23.3568C23.6773 23.1037 24.2501 22.5309 24.5032 21.805H24.8029C25.9286 21.7983 26.841 20.8858 26.8477 19.7602V18.4348C26.8477 17.6355 26.3748 16.9095 25.6488 16.5765ZM11.6219 22.158C10.9692 22.158 10.4364 21.6251 10.4364 20.9724C10.4364 20.3197 10.9692 19.7868 11.6219 19.7868C12.2747 19.7868 12.8075 20.3197 12.8075 20.9724C12.8075 21.6251 12.2747 22.1513 11.6219 22.158ZM22.1321 22.158C21.4794 22.158 20.9466 21.6251 20.9466 20.9724C20.9466 20.3197 21.4794 19.7868 22.1321 19.7868C22.7848 19.7868 23.3177 20.3197 23.3177 20.9724C23.311 21.6251 22.7848 22.1513 22.1321 22.158ZM24.8029 20.4729H24.5965C24.3167 19.1075 22.9847 18.235 21.6259 18.5147C20.6402 18.7145 19.8676 19.4871 19.6678 20.4729H14.093C13.8132 19.1075 12.4878 18.2283 11.1224 18.508C10.1367 18.7079 9.36406 19.4805 9.15759 20.4662C8.77128 20.4529 8.4649 20.1398 8.4649 19.7602V18.6013C8.4649 18.2816 8.67803 18.0018 8.98441 17.9219L12.1614 17.0561C12.3013 17.0161 12.4279 16.9362 12.5144 16.8163L14.4127 14.3319C14.6325 14.0455 14.9788 13.879 15.3385 13.879H20.6335C21.0331 13.8724 21.4061 14.0788 21.6193 14.4185L23.0912 16.7697C23.1578 16.8829 23.2644 16.9695 23.3776 17.0228L25.0893 17.802C25.3424 17.9153 25.5023 18.1684 25.5023 18.4414V19.7602H25.5156C25.5156 20.1532 25.1959 20.4729 24.8029 20.4729Z" fill="#008B4E"/>
</svg>
