<svg width="30" height="27" viewBox="0 0 30 27" fill="none" xmlns="http://www.w3.org/2000/svg">
<path d="M23.1259 20.1651C23.0385 20.0831 22.9224 20.0365 22.8011 20.0349C22.6796 20.0359 22.5633 20.0826 22.4763 20.1651C22.4326 20.2062 22.3977 20.2553 22.3737 20.3097C22.3496 20.364 22.3369 20.4224 22.3362 20.4816C22.3394 20.6007 22.3894 20.7141 22.4759 20.7984C22.5624 20.8826 22.6788 20.9314 22.8011 20.9345C22.8618 20.9338 22.9218 20.9214 22.9775 20.898C23.0333 20.8746 23.0837 20.8406 23.1259 20.798C23.2107 20.7133 23.2586 20.5999 23.2596 20.4816C23.2579 20.3634 23.2101 20.2502 23.1259 20.1651Z" fill="white"/>
<path d="M11.6065 21.4683C11.2602 21.4683 10.9215 21.5683 10.6335 21.7558C10.3455 21.9433 10.121 22.2098 9.98848 22.5215C9.85592 22.8333 9.82124 23.1764 9.88882 23.5074C9.95639 23.8383 10.1232 24.1424 10.3681 24.381C10.6131 24.6196 10.9251 24.7821 11.2649 24.8479C11.6046 24.9138 11.9567 24.88 12.2768 24.7508C12.5968 24.6217 12.8703 24.403 13.0628 24.1224C13.2552 23.8418 13.3579 23.512 13.3579 23.1745C13.3579 22.722 13.1734 22.288 12.845 21.968C12.5165 21.648 12.071 21.4683 11.6065 21.4683ZM11.6065 23.9501C11.4428 23.9501 11.2827 23.9027 11.1466 23.8141C11.0104 23.7255 10.9043 23.5995 10.8416 23.4521C10.779 23.3048 10.7626 23.1426 10.7945 22.9861C10.8265 22.8297 10.9053 22.6859 11.0211 22.5731C11.1369 22.4603 11.2844 22.3835 11.445 22.3524C11.6056 22.3213 11.7721 22.3372 11.9234 22.3983C12.0747 22.4593 12.204 22.5627 12.2949 22.6954C12.3859 22.828 12.4345 22.9839 12.4345 23.1435C12.4388 23.252 12.4205 23.3602 12.3808 23.4617C12.3411 23.5631 12.2808 23.6558 12.2035 23.734C12.1262 23.8122 12.0335 23.8744 11.9309 23.9169C11.8283 23.9593 11.718 23.9812 11.6065 23.9811V23.9501Z" fill="white"/>
<path d="M20.0366 21.4683C19.6905 21.4695 19.3525 21.5706 19.0653 21.7588C18.7781 21.9471 18.5546 22.214 18.4231 22.5258C18.2915 22.8377 18.2577 23.1806 18.326 23.5112C18.3943 23.8417 18.5616 24.1452 18.8068 24.3832C19.052 24.6212 19.364 24.7831 19.7036 24.8484C20.0432 24.9137 20.395 24.8796 20.7146 24.7503C21.0343 24.6209 21.3074 24.4022 21.4996 24.1218C21.6918 23.8413 21.7943 23.5117 21.7943 23.1745C21.7943 22.9499 21.7488 22.7275 21.6604 22.5201C21.572 22.3127 21.4424 22.1243 21.2791 21.9658C21.1158 21.8073 20.922 21.6817 20.7088 21.5964C20.4955 21.511 20.2671 21.4675 20.0366 21.4683ZM20.0366 23.9501C19.8728 23.9501 19.7128 23.9028 19.5766 23.8141C19.4405 23.7255 19.3343 23.5995 19.2717 23.4521C19.209 23.3048 19.1926 23.1426 19.2246 22.9861C19.2565 22.8297 19.3354 22.6859 19.4511 22.5731C19.5669 22.4603 19.7145 22.3835 19.8751 22.3524C20.0357 22.3213 20.2021 22.3372 20.3534 22.3983C20.5047 22.4593 20.634 22.5627 20.725 22.6954C20.8159 22.828 20.8645 22.984 20.8645 23.1435C20.8688 23.252 20.8505 23.3602 20.8109 23.4617C20.7712 23.5632 20.7109 23.6558 20.6336 23.734C20.5562 23.8122 20.4635 23.8744 20.3609 23.9169C20.2584 23.9593 20.148 23.9812 20.0366 23.9811V23.9501Z" fill="white"/>
<path d="M26.4281 9.57573C26.3074 9.55392 26.1827 9.57952 26.0813 9.64694C25.9799 9.71436 25.91 9.81813 25.8868 9.93559L22.992 17.5218C22.9725 17.6242 22.9163 17.7165 22.8336 17.7823C22.7508 17.8482 22.6467 17.8834 22.5399 17.8816H9.26123L7.46527 10.2501H23.321C23.3862 10.2576 23.4523 10.2515 23.5149 10.2324C23.5775 10.2132 23.6352 10.1813 23.6843 10.1388C23.7333 10.0963 23.7726 10.0441 23.7995 9.98581C23.8264 9.92748 23.8403 9.86426 23.8403 9.80031C23.8403 9.73637 23.8264 9.67314 23.7995 9.61481C23.7726 9.55647 23.7333 9.50434 23.6843 9.46185C23.6352 9.41936 23.5775 9.38746 23.5149 9.36827C23.4523 9.34908 23.3862 9.34302 23.321 9.35049H7.24873L6.75835 7.27199C6.69005 6.97495 6.51953 6.7096 6.27509 6.52C6.03066 6.3304 5.72701 6.22794 5.41456 6.22964H3.14732C3.02571 6.22964 2.90908 6.2767 2.82309 6.36048C2.73709 6.44425 2.68878 6.55788 2.68878 6.67636C2.68878 6.79484 2.73709 6.90846 2.82309 6.99224C2.90908 7.07601 3.02571 7.12308 3.14732 7.12308H5.41456C5.51855 7.12222 5.61966 7.15631 5.70087 7.21959C5.78207 7.28288 5.8384 7.37151 5.86037 7.47053L8.95553 20.5868C8.98087 20.6853 9.03899 20.7728 9.12081 20.8356C9.20262 20.8985 9.30351 20.9332 9.40771 20.9342H21.1579C21.2812 20.9342 21.3994 20.8865 21.4866 20.8016C21.5738 20.7166 21.6228 20.6014 21.6228 20.4813C21.6211 20.3623 21.5714 20.2487 21.4844 20.1651C21.3974 20.0814 21.2801 20.0346 21.1579 20.0346H9.77072L9.47776 18.7937H22.5399C22.861 18.7936 23.172 18.6845 23.4196 18.4852C23.6671 18.286 23.8357 18.0089 23.8964 17.7017L26.7911 10.1279C26.8061 10.0684 26.8085 10.0065 26.7981 9.946C26.7878 9.88552 26.765 9.82772 26.731 9.77609C26.6971 9.72446 26.6527 9.68008 26.6007 9.64564C26.5486 9.6112 26.4899 9.58742 26.4281 9.57573Z" fill="white"/>
</svg>
