<svg width="26" height="23" viewBox="0 0 26 23" fill="none" xmlns="http://www.w3.org/2000/svg">
<g clip-path="url(#clip0)">
<path d="M9.87625 19.8054L9.86001 19.7996H9.84279H9.50962C6.00648 19.7996 3.19618 17.5232 3.19618 14.7692V5.13042C3.19618 2.37639 6.00648 0.1 9.50962 0.1H18.4866H18.5866C22.0896 0.1 24.9 2.37639 24.9 5.13042V14.7692C24.9 17.5232 22.0896 19.7996 18.5866 19.7996H18.5743H18.4743V19.8996V22.8584L9.87625 19.8054ZM16.9865 18.6495H18.5866C21.2255 18.6495 23.4122 16.9286 23.4122 14.7692V5.13042C23.4122 2.97104 21.2255 1.25011 18.5866 1.25011H9.50962C6.87061 1.25011 4.68393 2.97104 4.68393 5.13042V14.7692C4.68393 16.9286 6.87061 18.6495 9.50962 18.6495H10.1833L16.8531 21.0178L16.9865 21.0652V20.9236V18.6495Z" fill="black" stroke="white" stroke-width="0.2"/>
<path d="M15.0594 13.5105V13.5105C15.0594 13.9265 14.6288 14.2993 14.0483 14.2993C13.4679 14.2993 13.0371 13.9265 13.0371 13.5105C13.0371 13.0945 13.4679 12.7216 14.0483 12.7216C14.6288 12.7216 15.0595 13.0945 15.0594 13.5105Z" fill="black" stroke="white" stroke-width="0.2"/>
<path d="M13.3117 5.54711H14.7994V11.6575H13.3117V5.54711Z" fill="black" stroke="white" stroke-width="0.2"/>
</g>
<defs>
<clipPath id="clip0">
<rect width="26" height="23" fill="white"/>
</clipPath>
</defs>
</svg>
