<svg width="33" height="33" viewBox="0 0 33 33" fill="none" xmlns="http://www.w3.org/2000/svg">
<path d="M27.1216 16.9031C27.0281 16.9024 26.9353 16.9203 26.8487 16.9557C26.7621 16.9912 26.6834 17.0435 26.6173 17.1097C26.5511 17.1758 26.4987 17.2545 26.4633 17.3411C26.4278 17.4277 26.41 17.5205 26.4107 17.6141V22.5166C26.4107 22.9835 26.3188 23.4457 26.1401 23.877C25.9615 24.3082 25.6997 24.7001 25.3696 25.0302C25.0395 25.3602 24.6476 25.6221 24.2164 25.8007C23.7851 25.9794 23.3229 26.0713 22.8561 26.0713H15.178C14.9895 26.0713 14.8086 26.1462 14.6753 26.2795C14.542 26.4129 14.4671 26.5937 14.4671 26.7822V28.1927L12.7608 26.4865C12.7039 26.3636 12.6133 26.2594 12.4995 26.1859C12.3858 26.1125 12.2536 26.0727 12.1182 26.0713H7.49995C7.03315 26.0713 6.57092 25.9794 6.13965 25.8007C5.70838 25.6221 5.31651 25.3602 4.98643 25.0302C4.65635 24.7001 4.39452 24.3082 4.21588 23.877C4.03724 23.4457 3.9453 22.9835 3.9453 22.5166V11.5683C3.9453 10.6256 4.31981 9.72142 4.98643 9.05479C5.65306 8.38817 6.5572 8.01366 7.49995 8.01366H14.6832C14.8717 8.01366 15.0526 7.93876 15.1859 7.80543C15.3192 7.67211 15.3941 7.49128 15.3941 7.30273C15.3941 7.11418 15.3192 6.93335 15.1859 6.80002C15.0526 6.6667 14.8717 6.5918 14.6832 6.5918H7.49995C6.18102 6.5948 4.91697 7.12008 3.98434 8.0527C3.05172 8.98533 2.52644 10.2494 2.52344 11.5683L2.52344 22.5166C2.52644 23.8356 3.05172 25.0996 3.98434 26.0323C4.91697 26.9649 6.18102 27.4902 7.49995 27.4932H11.7542L14.6775 30.4108C14.7427 30.4775 14.8206 30.5304 14.9065 30.5666C14.9925 30.6027 15.0848 30.6213 15.178 30.6213C15.2713 30.6208 15.3638 30.6035 15.451 30.5701C15.5803 30.5147 15.6906 30.4228 15.7684 30.3056C15.8462 30.1884 15.8881 30.051 15.8889 29.9103V27.4932H22.8561C24.175 27.4902 25.439 26.9649 26.3717 26.0323C27.3043 25.0996 27.8296 23.8356 27.8326 22.5166V17.6141C27.8333 17.5205 27.8155 17.4277 27.78 17.3411C27.7445 17.2545 27.6922 17.1758 27.626 17.1097C27.5599 17.0435 27.4812 16.9912 27.3946 16.9557C27.308 16.9203 27.2152 16.9024 27.1216 16.9031Z" fill="#008B4E"/>
<path d="M22.0777 16.2598H7.07421C6.88566 16.2598 6.70483 16.3347 6.57151 16.468C6.43818 16.6013 6.36328 16.7821 6.36328 16.9707C6.36328 17.1592 6.43818 17.3401 6.57151 17.4734C6.70483 17.6067 6.88566 17.6816 7.07421 17.6816H22.0777C22.2662 17.6816 22.4471 17.6067 22.5804 17.4734C22.7137 17.3401 22.7886 17.1592 22.7886 16.9707C22.7886 16.7821 22.7137 16.6013 22.5804 16.468C22.4471 16.3347 22.2662 16.2598 22.0777 16.2598Z" fill="#008B4E"/>
<path d="M22.5769 20.4515C22.5112 20.3846 22.4329 20.3315 22.3465 20.2952C22.26 20.2589 22.1672 20.2402 22.0735 20.2402C21.9798 20.2402 21.887 20.2589 21.8006 20.2952C21.7142 20.3315 21.6358 20.3846 21.5702 20.4515C21.5034 20.5167 21.4504 20.5945 21.4142 20.6805C21.378 20.7664 21.3594 20.8587 21.3594 20.952C21.3594 21.0453 21.378 21.1376 21.4142 21.2235C21.4504 21.3095 21.5034 21.3873 21.5702 21.4525C21.7053 21.574 21.8817 21.6391 22.0634 21.6345C22.245 21.63 22.418 21.5561 22.5468 21.428C22.6756 21.2999 22.7505 21.1273 22.7561 20.9457C22.7617 20.7641 22.6976 20.5873 22.5769 20.4515Z" fill="#008B4E"/>
<path d="M19.2795 20.2412H7.07421C6.88566 20.2412 6.70483 20.3161 6.57151 20.4494C6.43818 20.5828 6.36328 20.7636 6.36328 20.9521C6.36328 21.1407 6.43818 21.3215 6.57151 21.4548C6.70483 21.5882 6.88566 21.6631 7.07421 21.6631H19.2795C19.468 21.6631 19.6489 21.5882 19.7822 21.4548C19.9155 21.3215 19.9904 21.1407 19.9904 20.9521C19.9904 20.7636 19.9155 20.5828 19.7822 20.4494C19.6489 20.3161 19.468 20.2412 19.2795 20.2412Z" fill="#008B4E"/>
<path d="M17.4538 12.2783H7.07421C6.88566 12.2783 6.70483 12.3532 6.57151 12.4865C6.43818 12.6199 6.36328 12.8007 6.36328 12.9893C6.36328 13.1778 6.43818 13.3586 6.57151 13.492C6.70483 13.6253 6.88566 13.7002 7.07421 13.7002H17.4538C17.6424 13.7002 17.8232 13.6253 17.9565 13.492C18.0898 13.3586 18.1647 13.1778 18.1647 12.9893C18.1647 12.8007 18.0898 12.6199 17.9565 12.4865C17.8232 12.3532 17.6424 12.2783 17.4538 12.2783Z" fill="#008B4E"/>
<path d="M25.1959 12.9436C27.5305 12.9436 29.4231 10.879 29.4231 8.33215C29.4231 5.78532 27.5305 3.7207 25.1959 3.7207C22.8613 3.7207 20.9688 5.78532 20.9688 8.33215C20.9688 10.879 22.8613 12.9436 25.1959 12.9436Z" stroke="#008B4E" stroke-width="2"/>
</svg>
