<svg width="34" height="34" viewBox="0 0 34 34" fill="none" xmlns="http://www.w3.org/2000/svg">
<path d="M11.9871 24.4161L10.1367 26.773L9.07931 25.4262C9.01322 25.342 8.94714 25.342 8.88105 25.2579C8.81496 25.1737 8.74888 25.1737 8.68279 25.1737C8.64691 25.1682 8.61053 25.1729 8.57624 25.1874C8.54196 25.202 8.51064 25.226 8.48453 25.2579L8.35236 25.4262C8.28627 25.5104 8.28627 25.5946 8.22018 25.6787C8.1541 25.7629 8.1541 25.8471 8.1541 25.9312C8.14978 25.9769 8.15346 26.0233 8.16489 26.067C8.17632 26.1106 8.1952 26.1505 8.22018 26.1838C8.22018 26.2679 8.28627 26.3521 8.35236 26.4363L9.47583 27.8673C9.66606 28.1224 9.92676 28.2734 10.2028 28.2881C10.4788 28.2734 10.7395 28.1224 10.9297 27.8673L12.7802 25.5104C12.8632 25.3628 12.9092 25.1868 12.9123 25.0053C12.9142 24.9273 12.9035 24.8497 12.8809 24.7771C12.8583 24.7046 12.8242 24.6387 12.7809 24.5835C12.7376 24.5283 12.6859 24.485 12.6289 24.4562C12.572 24.4274 12.511 24.4138 12.4497 24.4161C12.3823 24.3545 12.3014 24.3213 12.2184 24.3213C12.1354 24.3213 12.0545 24.3545 11.9871 24.4161Z" fill="#008B4E"/>
<path d="M5.77344 26.2819C5.77784 27.4314 6.2264 28.537 7.0296 29.3781C7.42753 29.7916 7.90928 30.1198 8.44423 30.3419C8.97917 30.564 9.55563 30.6751 10.137 30.6681C10.7183 30.6751 11.2947 30.564 11.8297 30.3419C12.3646 30.1198 12.8464 29.7916 13.2443 29.3781C14.0475 28.537 14.4961 27.4314 14.5005 26.2819C14.4868 26.1448 14.4416 26.0126 14.3682 25.8949C14.2579 25.8037 14.1159 25.7575 13.9716 25.7659C13.8311 25.7792 13.6955 25.8233 13.5749 25.8949C13.5015 26.0126 13.4563 26.1448 13.4426 26.2819C13.4444 27.0301 13.1883 27.7571 12.7154 28.346C12.2625 28.9386 11.6048 29.3511 10.8642 29.5071C10.1289 29.682 9.35357 29.5903 8.68245 29.2491C7.98726 28.9258 7.42707 28.3792 7.09572 27.701C6.74188 27.0242 6.64807 26.2463 6.83126 25.5079C7.04961 24.8103 7.46148 24.1852 8.02131 23.7018C8.58339 23.2062 9.31325 22.9306 10.0708 22.9277C10.8292 22.9128 11.5718 23.1392 12.1865 23.5728C12.2385 23.6219 12.3011 23.659 12.3698 23.6814C12.4384 23.7037 12.5114 23.7107 12.5832 23.7018C12.6513 23.703 12.7185 23.6855 12.7769 23.6513C12.8353 23.6171 12.8828 23.5675 12.9137 23.5083C12.9871 23.3906 13.0323 23.2583 13.046 23.1213C13.0472 23.0548 13.0293 22.9893 12.9942 22.9322C12.9591 22.8752 12.9083 22.829 12.8476 22.7987C12.2008 22.3068 11.418 22.0148 10.5998 21.9602C9.77837 21.884 8.9519 22.0407 8.21965 22.4117C7.49133 22.7891 6.87616 23.3448 6.43458 24.0243C6.00862 24.7045 5.7801 25.4848 5.77344 26.2819Z" fill="#008B4E"/>
<path d="M21.1491 8.71895C21.2794 8.70526 21.4051 8.66006 21.517 8.58673C21.585 8.46612 21.6269 8.33053 21.6396 8.19004C21.6269 8.04956 21.585 7.91397 21.517 7.79336C21.4557 7.66113 21.333 7.66113 21.1491 7.66113H8.64279C8.51252 7.67483 8.38679 7.72002 8.27495 7.79336C8.20695 7.91397 8.16504 8.04956 8.15234 8.19004V10.3057C8.16504 10.4462 8.20695 10.5818 8.27495 10.7024C8.33626 10.8346 8.45887 10.8346 8.64279 10.8346H21.1491C21.2794 10.8209 21.4051 10.7757 21.517 10.7024C21.594 10.5865 21.6367 10.4482 21.6396 10.3057C21.6269 10.1652 21.585 10.0296 21.517 9.909C21.4557 9.77678 21.333 9.77678 21.1491 9.77678H9.13323V8.71895H21.1491Z" fill="#008B4E"/>
<path d="M10.2152 11.6279C10.0885 11.6485 9.96627 11.7162 9.85752 11.8261C9.79139 12.0068 9.75063 12.21 9.73828 12.4206C9.75063 12.6311 9.79139 12.8343 9.85752 13.015C9.95697 13.1551 10.0851 13.226 10.2152 13.2132H19.5751C19.7018 13.1927 19.8241 13.1249 19.9328 13.015C19.9989 12.8343 20.0397 12.6311 20.052 12.4206C20.0397 12.21 19.9989 12.0068 19.9328 11.8261C19.8732 11.6279 19.754 11.6279 19.5751 11.6279H10.2152Z" fill="#008B4E"/>
<path d="M23.5152 14.8008H12.6275C12.493 14.8111 12.3632 14.845 12.2477 14.9C12.1682 14.9869 12.1241 15.0906 12.1211 15.1975C12.1342 15.3028 12.1775 15.4045 12.2477 15.495C12.311 15.5941 12.4376 15.5941 12.6275 15.5941H23.5152C23.6497 15.5839 23.7795 15.55 23.895 15.495C23.9745 15.4081 24.0186 15.3044 24.0216 15.1975C24.0085 15.0921 23.9652 14.9904 23.895 14.9C23.7795 14.845 23.6497 14.8111 23.5152 14.8008Z" fill="#008B4E"/>
<path d="M18.4665 17.5783C18.4531 17.473 18.409 17.3713 18.3374 17.2808C18.2728 17.1816 18.1436 17.1816 17.9499 17.1816H7.87599C7.73877 17.1919 7.60633 17.2258 7.48853 17.2808C7.40742 17.3677 7.3624 17.4714 7.35938 17.5783C7.37275 17.6837 7.4169 17.7854 7.48853 17.8758C7.5531 17.975 7.68226 17.975 7.87599 17.975H18.0145C18.1517 17.9647 18.2841 17.9308 18.4019 17.8758C18.4019 17.7767 18.4665 17.6775 18.4665 17.5783Z" fill="#008B4E"/>
<path d="M23.4856 17.1816H19.7981C19.6556 17.1919 19.5181 17.2258 19.3958 17.2808C19.3116 17.3677 19.2649 17.4714 19.2617 17.5783C19.2756 17.6837 19.3214 17.7854 19.3958 17.8758C19.4629 17.975 19.5969 17.975 19.7981 17.975H23.4856C23.628 17.9647 23.7655 17.9308 23.8878 17.8758C23.972 17.7889 24.0188 17.6852 24.0219 17.5783C24.008 17.473 23.9622 17.3713 23.8878 17.2808C23.7655 17.2258 23.628 17.1919 23.4856 17.1816Z" fill="#008B4E"/>
<path d="M13.1661 20.3549C13.3096 20.3446 13.4481 20.3108 13.5713 20.2558C13.6561 20.169 13.7031 20.0654 13.7063 19.9586C13.6923 19.8533 13.6462 19.7517 13.5713 19.6613C13.4586 19.5913 13.3135 19.5558 13.1661 19.5623H7.89954C7.75606 19.5725 7.61759 19.6064 7.49442 19.6613C7.40676 19.7471 7.35938 19.8514 7.35938 19.9586C7.35938 20.0658 7.40676 20.1701 7.49442 20.2558C7.56194 20.3549 7.69698 20.3549 7.89954 20.3549H13.1661Z" fill="#008B4E"/>
<path d="M14.947 20.3549H18.0199C18.1386 20.3446 18.2532 20.3108 18.3551 20.2558C18.4253 20.169 18.4642 20.0654 18.4668 19.9586C18.4553 19.8533 18.4171 19.7517 18.3551 19.6613C18.2619 19.5913 18.1418 19.5558 18.0199 19.5623H14.947C14.8282 19.5725 14.7137 19.6064 14.6117 19.6613C14.5392 19.7471 14.5 19.8514 14.5 19.9586C14.5 20.0658 14.5392 20.1701 14.6117 20.2558C14.7137 20.3108 14.8282 20.3446 14.947 20.3549Z" fill="#008B4E"/>
<path d="M25.3557 25.1725H26.3402V6.63169C26.3428 6.45418 26.3059 6.27804 26.2319 6.11388C26.1579 5.94973 26.0482 5.80096 25.9095 5.67656C25.7804 5.54152 25.6187 5.4357 25.4371 5.36745C25.2556 5.2992 25.0592 5.27038 24.8634 5.28327H5.60293C5.23174 5.29459 4.8794 5.43533 4.61837 5.67656C4.47966 5.80096 4.36999 5.94973 4.29596 6.11388C4.22193 6.27804 4.18508 6.45418 4.18762 6.63169V30.9033C4.18508 31.0808 4.22193 31.257 4.29596 31.4211C4.36999 31.5853 4.47966 31.734 4.61837 31.8585C4.74747 31.9935 4.90916 32.0993 5.0907 32.1676C5.27223 32.2358 5.46865 32.2646 5.66446 32.2517H24.9249C25.1191 32.2525 25.3115 32.2181 25.491 32.1506C25.6706 32.0831 25.8337 31.9838 25.971 31.8585C26.1083 31.7331 26.2171 31.5842 26.291 31.4202C26.3649 31.2563 26.4026 31.0806 26.4018 30.9033V25.1725H25.3557V30.9033C25.3429 31.0227 25.3008 31.1379 25.2326 31.2404C25.1299 31.3199 24.9977 31.3601 24.8634 31.3528H5.60293C5.47217 31.3412 5.34597 31.3027 5.23372 31.2404C5.16546 31.1379 5.12339 31.0227 5.11065 30.9033V6.63169C5.12339 6.5123 5.16546 6.39708 5.23372 6.29459C5.29525 6.18222 5.41832 6.18222 5.60293 6.18222H24.8634C24.9941 6.19385 25.1203 6.23226 25.2326 6.29459C25.3557 6.35077 25.3557 6.51932 25.3557 6.63169V25.1725Z" fill="#008B4E"/>
<path d="M28.0807 2.9005H8.05879C7.86234 2.89817 7.6674 2.93195 7.48573 2.99982C7.30405 3.06769 7.13941 3.16824 7.00173 3.29541C6.863 3.40941 6.75248 3.5488 6.67745 3.70439C6.60242 3.85997 6.5646 4.02822 6.56647 4.19804V4.87501H7.56135V4.19804C7.56347 4.09339 7.6077 3.99307 7.68571 3.91596C7.73223 3.86651 7.78922 3.82605 7.85331 3.79698C7.9174 3.7679 7.98728 3.75081 8.05879 3.74672H28.0807C28.2129 3.75841 28.3404 3.79697 28.4538 3.85955C28.5782 3.91596 28.5782 4.02879 28.5782 4.14162V26.9895C28.5761 27.0941 28.5318 27.1944 28.4538 27.2715C28.3404 27.3341 28.2129 27.3727 28.0807 27.3844H26.775V28.287H28.0807C28.278 28.2946 28.4746 28.2633 28.6572 28.1951C28.8397 28.1269 29.0037 28.0235 29.1378 27.8921C29.2809 27.7813 29.3944 27.6425 29.4698 27.4862C29.5452 27.3298 29.5805 27.16 29.5731 26.9895V4.19804C29.5605 3.85773 29.4048 3.53472 29.1378 3.29541C29.0001 3.16824 28.8355 3.06769 28.6538 2.99982C28.4721 2.93195 28.2772 2.89817 28.0807 2.9005Z" fill="#008B4E"/>
</svg>
