<svg width="25" height="25" viewBox="0 0 25 25" fill="none" xmlns="http://www.w3.org/2000/svg">
<path d="M21.415 3.80285C21.2732 3.65606 21.0414 3.65403 20.8972 3.79824C20.7529 3.94245 20.7509 4.17836 20.8926 4.3251C22.7945 6.29436 23.9498 8.8187 24.2108 11.5319C23.5188 10.8604 22.5915 10.4717 21.6006 10.4717C20.5704 10.4717 19.609 10.892 18.9092 11.6129C18.7837 8.67424 18.1589 5.94052 17.1175 3.82153C16.5244 2.61455 15.8281 1.67394 15.0647 1.0275C16.8014 1.41736 18.4242 2.20636 19.8479 3.36531C20.0057 3.49382 20.2362 3.46779 20.3626 3.30719C20.489 3.14653 20.4633 2.91206 20.3054 2.7835C19.2205 1.90031 18.01 1.21235 16.7076 0.738733C15.3598 0.24853 13.9441 0 12.5 0C9.16118 0 6.02217 1.32282 3.66118 3.72481C1.30024 6.12675 0 9.32028 0 12.7171C0 12.8887 0.115234 13.0381 0.279102 13.079C0.443066 13.1198 0.613037 13.0415 0.691016 12.8893C1.21924 11.8577 2.25723 11.2169 3.3999 11.2169C4.54228 11.2169 5.58008 11.8577 6.10835 12.8892C6.17144 13.0124 6.29658 13.0897 6.43311 13.0897C6.56963 13.0897 6.69478 13.0124 6.75786 12.8892C7.28608 11.8577 8.32407 11.2169 9.4668 11.2169C10.1832 11.2169 10.8583 11.4689 11.3926 11.9112V22.1044C11.3926 22.4586 11.1096 22.7467 10.7617 22.7467C10.5928 22.7467 10.4339 22.6798 10.3146 22.5588C10.2172 22.4597 10.1538 22.3302 10.1359 22.1941C10.0551 21.5784 9.49727 21.1442 8.89189 21.2264C8.28662 21.3087 7.85986 21.8766 7.94072 22.4925C8.02261 23.1162 8.30962 23.7058 8.74932 24.1531C9.28774 24.6993 10.0025 25 10.7618 25C12.3309 25 13.6074 23.701 13.6074 22.1044V11.9113C14.1417 11.4689 14.8171 11.2169 15.5337 11.2169C16.6761 11.2169 17.7139 11.8577 18.2421 12.8892C18.3052 13.0124 18.4304 13.0897 18.5669 13.0897C18.7034 13.0897 18.8286 13.0124 18.8917 12.8892C19.4199 11.8577 20.4579 11.2169 21.6006 11.2169C22.743 11.2169 23.7808 11.8577 24.309 12.8892C24.3731 13.0144 24.4996 13.0897 24.6337 13.0897C24.6626 13.0897 24.6918 13.0862 24.7209 13.0789C24.8847 13.0381 25 12.8887 25 12.717C25 9.36231 23.7269 6.1965 21.415 3.80285ZM3.3999 10.4717C2.40869 10.4717 1.48105 10.8606 0.788965 11.5322C1.05283 8.78199 2.23335 6.23127 4.1791 4.25173C5.78359 2.61937 7.76992 1.51671 9.93306 1.02949C9.17056 1.67587 8.4751 2.61579 7.88252 3.82158C6.84111 5.94057 6.21636 8.67434 6.09087 11.613C5.39111 10.892 4.42993 10.4717 3.3999 10.4717ZM6.82593 11.562C6.95469 8.75889 7.55098 6.16242 8.5376 4.15481C9.52837 2.13885 10.7937 0.954129 12.1337 0.770924V11.5883C11.4361 10.8823 10.485 10.4717 9.46675 10.4717C8.46113 10.4717 7.52114 10.8723 6.82593 11.562ZM10.7617 24.2549C10.1976 24.2549 9.66655 24.0313 9.26675 23.6258C8.94048 23.2939 8.72739 22.8564 8.66665 22.3939C8.63926 22.1853 8.78384 21.9929 8.98892 21.965C9.19341 21.9371 9.38262 22.0842 9.40996 22.2926C9.44883 22.5898 9.58618 22.8715 9.79707 23.086C10.055 23.3477 10.3976 23.4918 10.7618 23.4918C11.5135 23.4918 12.125 22.8694 12.125 22.1044V12.7952C12.1422 12.8262 12.159 12.8575 12.1752 12.8893C12.2383 13.0124 12.3635 13.0897 12.5 13.0897C12.6365 13.0897 12.7617 13.0125 12.8248 12.8893C12.841 12.8575 12.8578 12.8262 12.875 12.7952V22.1044C12.875 23.2901 11.927 24.2549 10.7617 24.2549ZM15.5337 10.4717C14.5152 10.4717 13.5639 10.8823 12.8662 11.5883V0.770924C14.2063 0.954129 15.4716 2.1389 16.4624 4.15481C17.449 6.16237 18.0453 8.75884 18.174 11.562C17.479 10.8723 16.5392 10.4717 15.5337 10.4717Z" fill="white"/>
</svg>
