<svg width="39" height="40" viewBox="0 0 39 40" fill="none" xmlns="http://www.w3.org/2000/svg">
<path d="M30.3494 29.5922C30.2317 29.4751 30.0752 29.4086 29.9117 29.4062C29.748 29.4077 29.5912 29.4743 29.474 29.5922C29.4151 29.6508 29.3681 29.7209 29.3357 29.7984C29.3032 29.8759 29.2861 29.9593 29.2852 30.0437C29.2895 30.2137 29.3569 30.3755 29.4735 30.4958C29.59 30.616 29.7469 30.6855 29.9117 30.69C29.9935 30.6891 30.0744 30.6714 30.1495 30.6379C30.2247 30.6045 30.2926 30.556 30.3494 30.4952C30.4637 30.3743 30.5282 30.2125 30.5297 30.0437C30.5274 29.875 30.4629 29.7136 30.3494 29.5922Z" fill="#008B4E"/>
<path d="M14.8251 31.4521C14.3583 31.4521 13.902 31.5949 13.5138 31.8625C13.1257 32.13 12.8232 32.5103 12.6445 32.9551C12.4659 33.4 12.4191 33.8896 12.5102 34.3619C12.6013 34.8342 12.8261 35.268 13.1562 35.6085C13.4863 35.949 13.9068 36.1809 14.3647 36.2748C14.8225 36.3688 15.2971 36.3205 15.7284 36.1363C16.1597 35.952 16.5283 35.6399 16.7877 35.2395C17.047 34.8391 17.1854 34.3684 17.1854 33.8869C17.1854 33.2411 16.9368 32.6219 16.4941 32.1653C16.0515 31.7087 15.4511 31.4521 14.8251 31.4521ZM14.8251 34.9936C14.6045 34.9936 14.3887 34.9261 14.2053 34.7996C14.0218 34.6731 13.8788 34.4934 13.7943 34.2831C13.7099 34.0727 13.6878 33.8413 13.7308 33.6181C13.7739 33.3948 13.8801 33.1897 14.0362 33.0288C14.1922 32.8678 14.391 32.7582 14.6075 32.7138C14.8239 32.6693 15.0483 32.6921 15.2521 32.7793C15.456 32.8664 15.6303 33.0139 15.7529 33.2032C15.8755 33.3924 15.9409 33.615 15.9409 33.8426C15.9467 33.9974 15.9221 34.1519 15.8686 34.2967C15.8152 34.4415 15.7339 34.5736 15.6297 34.6852C15.5255 34.7968 15.4005 34.8856 15.2623 34.9462C15.124 35.0068 14.9754 35.0379 14.8251 35.0378V34.9936Z" fill="#008B4E"/>
<path d="M26.1877 31.4522C25.7212 31.4539 25.2657 31.5982 24.8787 31.8668C24.4917 32.1354 24.1905 32.5162 24.0132 32.9613C23.8358 33.4063 23.7903 33.8956 23.8823 34.3673C23.9744 34.839 24.1999 35.272 24.5303 35.6116C24.8607 35.9512 25.2813 36.1822 25.7389 36.2755C26.1965 36.3687 26.6707 36.32 27.1015 36.1354C27.5322 35.9509 27.9004 35.6388 28.1593 35.2386C28.4183 34.8384 28.5565 34.3681 28.5565 33.8869C28.5565 33.5664 28.4952 33.2491 28.3761 32.9531C28.2569 32.6571 28.0823 32.3883 27.8622 32.1621C27.6421 31.9359 27.3809 31.7568 27.0935 31.6349C26.8062 31.5131 26.4983 31.451 26.1877 31.4522ZM26.1877 34.9936C25.967 34.9936 25.7513 34.9261 25.5678 34.7996C25.3843 34.6731 25.2413 34.4934 25.1568 34.2831C25.0724 34.0728 25.0503 33.8413 25.0933 33.6181C25.1364 33.3948 25.2426 33.1897 25.3987 33.0288C25.5547 32.8678 25.7535 32.7582 25.97 32.7138C26.1864 32.6694 26.4108 32.6922 26.6146 32.7793C26.8185 32.8664 26.9928 33.0139 27.1154 33.2032C27.238 33.3925 27.3034 33.615 27.3034 33.8426C27.3092 33.9974 27.2846 34.1519 27.2311 34.2967C27.1777 34.4415 27.0964 34.5736 26.9922 34.6852C26.888 34.7968 26.763 34.8856 26.6248 34.9462C26.4866 35.0068 26.3379 35.038 26.1877 35.0378V34.9936Z" fill="#008B4E"/>
<path d="M34.8017 14.4818C34.639 14.4507 34.471 14.4872 34.3343 14.5834C34.1976 14.6796 34.1034 14.8277 34.0721 14.9953L30.1709 25.8205C30.1446 25.9666 30.0689 26.0983 29.9574 26.1923C29.8458 26.2863 29.7056 26.3365 29.5615 26.334H11.6662L9.24578 15.4441H30.6143C30.7022 15.4548 30.7912 15.4462 30.8756 15.4188C30.96 15.3914 31.0378 15.3459 31.1039 15.2852C31.17 15.2246 31.2229 15.1502 31.2591 15.067C31.2953 14.9837 31.3141 14.8935 31.3141 14.8023C31.3141 14.711 31.2953 14.6208 31.2591 14.5376C31.2229 14.4543 31.17 14.3799 31.1039 14.3193C31.0378 14.2587 30.96 14.2132 30.8756 14.1858C30.7912 14.1584 30.7022 14.1497 30.6143 14.1604H8.95396L8.29308 11.1945C8.20103 10.7706 7.97122 10.392 7.6418 10.1214C7.31238 9.85084 6.90316 9.70464 6.48208 9.70706H3.42656C3.26267 9.70706 3.10548 9.77422 2.98959 9.89377C2.8737 10.0133 2.80859 10.1755 2.80859 10.3445C2.80859 10.5136 2.8737 10.6757 2.98959 10.7953C3.10548 10.9148 3.26267 10.982 3.42656 10.982H6.48208C6.62222 10.9807 6.75849 11.0294 6.86793 11.1197C6.97737 11.21 7.05328 11.3365 7.08289 11.4778L11.2542 30.1941C11.2883 30.3346 11.3667 30.4595 11.4769 30.5492C11.5872 30.6389 11.7232 30.6884 11.8636 30.6899H27.6991C27.8652 30.6899 28.0246 30.6218 28.1421 30.5006C28.2596 30.3794 28.3256 30.215 28.3256 30.0436C28.3233 29.8737 28.2563 29.7116 28.1391 29.5923C28.0218 29.473 27.8637 29.4061 27.6991 29.4062H12.3528L11.958 27.6355H29.5615C29.9943 27.6353 30.4135 27.4796 30.7471 27.1953C31.0807 26.9109 31.3079 26.5156 31.3897 26.0772L35.2909 15.2698C35.3111 15.1848 35.3143 15.0965 35.3003 15.0102C35.2864 14.9239 35.2556 14.8414 35.2099 14.7677C35.1642 14.694 35.1044 14.6307 35.0342 14.5816C34.9641 14.5324 34.8849 14.4985 34.8017 14.4818Z" fill="#008B4E"/>
</svg>
