<svg xmlns="http://www.w3.org/2000/svg" width="32" height="32" viewBox="0 0 32 32" fill="none">
<path fill-rule="evenodd" clip-rule="evenodd" d="M19.7708 21.6569C20.2915 22.1776 21.1357 22.1776 21.6564 21.6569C22.1771 21.1362 22.1771 20.292 21.6564 19.7713L17.8852 16L21.6564 12.2288C22.1771 11.7081 22.1771 10.8639 21.6564 10.3432C21.1357 9.82249 20.2915 9.82249 19.7708 10.3432L15.9995 14.1144L12.2283 10.3432C11.7076 9.82246 10.8634 9.82246 10.3427 10.3432C9.82197 10.8639 9.82197 11.7081 10.3427 12.2288L14.1139 16L10.3427 19.7713C9.82197 20.292 9.82197 21.1362 10.3427 21.6569C10.8634 22.1776 11.7076 22.1776 12.2283 21.6569L15.9995 17.8856L19.7708 21.6569Z" fill="#43B02A"/>
</svg>