<svg width="271" height="271" viewBox="0 0 271 271" fill="none" xmlns="http://www.w3.org/2000/svg">
<path d="M246.255 144.502V95.2769C246.255 83.9662 237.054 74.7667 225.745 74.7667H45.2549C33.9462 74.7667 24.7446 83.9662 24.7446 95.2769V144.502H59.0993C64.7637 144.502 69.3544 149.092 69.3544 154.757C69.3544 160.421 64.7637 165.012 59.0993 165.012H24.7446V214.749C24.7446 226.058 33.9462 235.259 45.2549 235.259H225.745C237.054 235.259 246.255 226.058 246.255 214.749V206.032C246.255 200.368 250.846 195.777 256.51 195.777C262.175 195.777 266.766 200.368 266.766 206.032V214.749C266.766 237.367 248.364 255.77 225.745 255.77H45.2549C22.6355 255.77 4.23438 237.367 4.23438 214.749V95.2769C4.23438 72.6576 22.6355 54.2564 45.2549 54.2564H89.39V40.8867C89.39 25.3458 102.033 12.7031 117.572 12.7031H153.428C168.967 12.7031 181.61 25.3458 181.61 40.8867V54.2544H225.745C248.364 54.2544 266.766 72.6576 266.766 95.2749V154.755C266.766 160.419 262.175 165.01 256.51 165.01C255.807 165.01 255.122 164.94 254.459 164.805C253.796 164.94 253.111 165.01 252.408 165.01H212.926C207.262 165.01 202.671 160.419 202.671 154.755C202.671 149.092 207.262 144.5 212.926 144.5L246.255 144.502ZM109.9 54.2564H161.1V40.8867C161.1 36.6565 157.659 33.2134 153.428 33.2134H117.572C113.341 33.2134 109.9 36.6545 109.9 40.8867V54.2564Z" fill="#ECF3FA"/>
<path d="M125.757 165.013V190.65C125.757 196.313 130.348 200.906 136.012 200.906C141.677 200.906 146.267 196.315 146.267 190.65V165.013H171.905C177.57 165.013 182.16 160.422 182.16 154.757C182.16 149.093 177.57 144.502 171.905 144.502H146.267V118.865C146.267 113.2 141.677 108.609 136.012 108.609C130.348 108.609 125.757 113.2 125.757 118.865V144.502H100.119C94.455 144.502 89.8643 149.093 89.8643 154.757C89.8643 160.422 94.455 165.013 100.119 165.013H125.757Z" fill="#ECF3FA"/>
</svg>
