<svg width="22" height="27" viewBox="0 0 22 27" fill="none" xmlns="http://www.w3.org/2000/svg">
<path d="M14.425 0.09375H7.575C7.48129 0.0937496 7.38947 0.120907 7.31 0.172125L0.735 4.41056C0.663088 4.45691 0.603788 4.52136 0.562678 4.59785C0.521569 4.67434 0.5 4.76036 0.5 4.84781V14.1342C0.500118 15.5108 0.782058 16.8719 1.32737 18.1284C1.87269 19.3848 2.6691 20.5084 3.6645 21.4257C3.99936 21.7381 4.35635 22.0244 4.7325 22.2821L10.7225 26.402C10.8047 26.4585 10.9012 26.4887 11 26.4887C11.0988 26.4887 11.1953 26.4585 11.2775 26.402L17.268 22.2821C17.6431 22.0252 17.9991 21.7398 18.333 21.4282C19.329 20.5108 20.126 19.3869 20.6717 18.13C21.2175 16.873 21.4997 15.5114 21.5 14.1342V4.84781C21.5 4.76036 21.4784 4.67434 21.4373 4.59785C21.3962 4.52136 21.3369 4.45691 21.265 4.41056L14.69 0.172125C14.6105 0.120907 14.5187 0.0937496 14.425 0.09375ZM4.5 20.8038V18.9553C4.50188 18.3903 4.68277 17.8415 5.01512 17.3924C5.34748 16.9432 5.81308 16.6184 6.341 16.4674L8.7 15.8054L10.5 17.3522V21.75H5.7615L5.2875 21.4241C5.01313 21.2339 4.75015 21.0268 4.5 20.8038ZM15 8.31848C14.5995 8.26071 14.2188 8.10299 13.8908 7.85903C13.5628 7.61507 13.2975 7.29224 13.118 6.91856L12.9475 6.56639C12.912 6.49345 12.8603 6.43023 12.7965 6.38193C12.7328 6.33362 12.6588 6.30161 12.5807 6.28853C12.5026 6.27544 12.4226 6.28165 12.3473 6.30665C12.272 6.33165 12.2035 6.37472 12.1475 6.43233L11.318 7.28672C10.9938 7.62287 10.6082 7.88937 10.1834 8.07081C9.75866 8.25225 9.30324 8.34502 8.8435 8.34375H7V7.3125C7 6.21848 7.42143 5.16927 8.17157 4.39568C8.92172 3.6221 9.93913 3.1875 11 3.1875C12.0609 3.1875 13.0783 3.6221 13.8284 4.39568C14.5786 5.16927 15 6.21848 15 7.3125V8.31848ZM7.5 9.375H8.8435C9.43462 9.37672 10.0202 9.25747 10.5663 9.02416C11.1124 8.79085 11.6082 8.44812 12.025 8.01581L12.375 7.65487C12.8504 8.45899 13.6139 9.03754 14.5 9.26517V9.89062C14.5 10.8479 14.1313 11.7659 13.4749 12.4428C12.8185 13.1197 11.9283 13.5 11 13.5C10.0717 13.5 9.1815 13.1197 8.52513 12.4428C7.86875 11.7659 7.5 10.8479 7.5 9.89062V9.375ZM11 14.5312C11.3366 14.5302 11.6721 14.4901 12 14.4116V15.0469C12.0008 15.1199 12.0168 15.1919 12.0469 15.258C12.077 15.3241 12.1205 15.3827 12.1745 15.43L11 16.4391L9.8255 15.4305C9.8795 15.3831 9.92302 15.3244 9.95313 15.2582C9.98323 15.192 9.99921 15.12 10 15.0469V14.4116C10.3279 14.4901 10.6634 14.5302 11 14.5312ZM11 25.3532L7.2605 22.7812H14.7395L11 25.3532ZM16.713 21.4241L16.239 21.75H11.5V17.3512L13.3 15.8043L15.657 16.4654C16.1856 16.6161 16.6518 16.9411 16.9846 17.3907C17.3173 17.8403 17.4984 18.3897 17.5 18.9553V20.8038C17.25 21.0267 16.9872 21.2338 16.713 21.4241ZM20.5 14.1342C20.496 16.1933 19.7878 18.185 18.5 19.7587V18.9553C18.4976 18.1641 18.2442 17.3953 17.7786 16.7664C17.3129 16.1376 16.6606 15.683 15.921 15.4723L13 14.6529V14.0414C13.7498 13.6578 14.381 13.0661 14.8227 12.3328C15.2643 11.5996 15.4989 10.7538 15.5 9.89062V9.375C15.6326 9.375 15.7598 9.32068 15.8536 9.22398C15.9473 9.12728 16 8.99613 16 8.85938V7.3125C16 5.94498 15.4732 4.63347 14.5355 3.66648C13.5979 2.6995 12.3261 2.15625 11 2.15625C9.67392 2.15625 8.40215 2.6995 7.46447 3.66648C6.52678 4.63347 6 5.94498 6 7.3125V8.85938C6 8.99613 6.05268 9.12728 6.14645 9.22398C6.24021 9.32068 6.36739 9.375 6.5 9.375V9.89062C6.50114 10.7538 6.73571 11.5996 7.17735 12.3328C7.61899 13.0661 8.25018 13.6578 9 14.0414V14.6529L6.077 15.4728C5.33789 15.6839 4.68602 16.1385 4.22076 16.7673C3.7555 17.396 3.50238 18.1644 3.5 18.9553V19.7592C2.21178 18.1856 1.50351 16.1936 1.5 14.1342V5.13347L7.7185 1.125H14.281L20.5 5.13347V14.1342Z" fill="#4E555C"/>
</svg>
