<svg width="271" height="271" viewBox="0 0 271 271" fill="none" xmlns="http://www.w3.org/2000/svg">
<path d="M263.459 153.953C261.537 148.625 255.658 145.867 250.332 147.787C245.004 149.712 242.244 155.589 244.167 160.917C245.553 164.757 246.256 168.798 246.256 172.931V210.362H214.098L181.208 177.471C179.285 175.548 176.677 174.469 173.957 174.469H97.0435C94.3235 174.469 91.7156 175.548 89.7928 177.471L56.9022 210.362H24.7447V172.931C24.7447 153.422 40.6161 137.55 60.125 137.55H134.078C139.742 137.55 144.333 132.96 144.333 127.295C144.333 121.631 139.742 117.04 134.078 117.04H60.125C56.8461 117.04 53.6354 117.326 50.5087 117.871L66.6045 85.9601C72.9439 73.5016 85.5665 65.7642 99.5452 65.7642H121.295C126.959 65.7642 131.55 61.1734 131.55 55.5091C131.55 49.8447 126.959 45.2539 121.295 45.2539H99.5452C77.8091 45.2539 58.1821 57.2877 48.3075 76.6924L19.1664 134.47C19.0142 134.77 18.882 135.073 18.7638 135.379C9.74051 145.308 4.23438 158.489 4.23438 172.931V256.51C4.23438 262.174 8.82516 266.765 14.4895 266.765H55.5101C61.1745 266.765 65.7653 262.174 65.7653 256.51V230.872H205.235V256.51C205.235 262.174 209.826 266.765 215.491 266.765H256.511C262.175 266.765 266.766 262.174 266.766 256.51V172.931C266.766 166.417 265.653 160.032 263.459 153.953ZM101.292 194.979H169.709L185.092 210.362H85.909L101.292 194.979ZM45.255 246.255H24.7447V230.872H45.255V246.255ZM246.256 246.255H225.746V230.872H246.256V246.255ZM215.491 164.214C221.155 164.214 225.746 168.804 225.746 174.469C225.746 180.133 221.155 184.724 215.491 184.724C209.826 184.724 205.235 180.133 205.235 174.469C205.235 168.804 209.826 164.214 215.491 164.214ZM55.5101 164.214C61.1745 164.214 65.7653 168.804 65.7653 174.469C65.7653 180.133 61.1745 184.724 55.5101 184.724C49.8458 184.724 45.255 180.133 45.255 174.469C45.255 168.804 49.8458 164.214 55.5101 164.214Z" fill="#EDF8EA"/>
<path d="M262.076 29.9336L211.74 7.44204C210.073 6.6965 208.313 6.43294 206.617 6.59087C204.921 6.43345 203.16 6.69752 201.493 7.44204L151.157 29.9336C147.464 31.5842 145.086 35.2509 145.086 39.2965V78.3486C145.086 94.3881 151.423 110.759 162.471 123.264C174.268 136.616 189.7 143.969 205.924 143.969H207.308C223.533 143.969 238.964 136.616 250.761 123.264C261.81 110.759 268.147 94.3876 268.147 78.3486V39.2965C268.147 35.2514 265.769 31.5842 262.076 29.9336ZM247.636 45.9465V78.3486C247.636 99.6428 230.39 123.458 207.308 123.458H205.924C182.843 123.458 165.596 99.6423 165.596 78.3486V45.9465L206.616 27.6175L247.637 45.9465H247.636Z" fill="#EDF8EA"/>
</svg>
