<svg width="271" height="271" viewBox="0 0 271 271" fill="none" xmlns="http://www.w3.org/2000/svg">
<path d="M263.835 86.0742L190.244 11.302C190.095 11.153 189.947 11.0092 189.793 10.8704C185.062 6.61044 178.93 4.2477 172.569 4.23443C166.208 4.22116 160.066 6.55829 155.318 10.7985C155.154 10.9475 154.995 11.1016 154.836 11.2557L133.976 32.8218C132.287 34.7976 131.409 37.3416 131.519 39.9406C131.629 42.5395 132.719 44.9999 134.569 46.8252C136.419 48.6505 138.891 49.7049 141.487 49.7756C144.082 49.8462 146.608 48.928 148.554 47.206L169.112 25.9379C170.074 25.1492 171.279 24.7182 172.522 24.7182C173.765 24.7182 174.97 25.1492 175.932 25.9379L232.067 82.9611H167.005C164.402 83.1262 161.96 84.2784 160.175 86.1832C158.39 88.088 157.397 90.6024 157.397 93.215C157.397 95.8275 158.39 98.3419 160.175 100.247C161.96 102.152 164.402 103.304 167.005 103.469H236.072V174.707C236.227 177.322 237.373 179.779 239.276 181.576C241.179 183.373 243.695 184.374 246.31 184.374C248.925 184.374 251.441 183.373 253.344 181.576C255.247 179.779 256.393 177.322 256.548 174.707V103.53C258.564 103.523 260.534 102.92 262.21 101.798C263.887 100.675 265.196 99.082 265.973 97.2181C266.751 95.3542 266.963 93.302 266.582 91.3181C266.202 89.3342 265.246 87.5066 263.835 86.0639V86.0742Z" fill="#ECEBF4"/>
<path d="M188.489 133.445C188.489 139.108 183.907 143.699 178.254 143.699C172.601 143.699 168.019 139.108 168.019 133.445C168.019 127.782 172.601 123.191 178.254 123.191C183.907 123.191 188.489 127.782 188.489 133.445Z" fill="#ECEBF4"/>
<path d="M221.748 133.445C221.748 139.108 217.166 143.699 211.513 143.699C205.86 143.699 201.278 139.108 201.278 133.445C201.278 127.782 205.86 123.191 211.513 123.191C217.166 123.191 221.748 127.782 221.748 133.445Z" fill="#ECEBF4"/>
<path d="M178.254 184.714C183.907 184.714 188.489 180.123 188.489 174.46C188.489 168.797 183.907 164.206 178.254 164.206C172.601 164.206 168.019 168.797 168.019 174.46C168.019 180.123 172.601 184.714 178.254 184.714Z" fill="#ECEBF4"/>
<path d="M221.748 174.46C221.748 180.123 217.166 184.714 211.513 184.714C205.86 184.714 201.278 180.123 201.278 174.46C201.278 168.797 205.86 164.206 211.513 164.206C217.166 164.206 221.748 168.797 221.748 174.46Z" fill="#ECEBF4"/>
<path d="M178.254 225.729C183.907 225.729 188.489 221.138 188.489 215.475C188.489 209.812 183.907 205.221 178.254 205.221C172.601 205.221 168.019 209.812 168.019 215.475C168.019 221.138 172.601 225.729 178.254 225.729Z" fill="#ECEBF4"/>
<path d="M221.748 215.475C221.748 221.138 217.166 225.729 211.513 225.729C205.86 225.729 201.278 221.138 201.278 215.475C201.278 209.812 205.86 205.221 211.513 205.221C217.166 205.221 221.748 209.812 221.748 215.475Z" fill="#ECEBF4"/>
<path d="M239.053 218.485C240.977 216.558 243.585 215.476 246.305 215.476C249.016 215.484 251.614 216.567 253.53 218.488C255.446 220.41 256.525 223.013 256.53 225.729C256.522 236.605 252.208 247.033 244.535 254.726C236.861 262.42 226.455 266.749 215.599 266.766H138.363C135.761 266.6 133.319 265.448 131.534 263.543C129.749 261.639 128.756 259.124 128.756 256.512C128.756 253.899 129.749 251.385 131.534 249.48C133.319 247.575 135.761 246.423 138.363 246.258H215.579C221.005 246.247 226.205 244.083 230.042 240.239C233.879 236.396 236.039 231.186 236.05 225.75C236.05 223.025 237.13 220.412 239.053 218.485Z" fill="#ECEBF4"/>
<path fill-rule="evenodd" clip-rule="evenodd" d="M91.4117 233.633C102.847 232.218 113.866 228.266 123.648 222.016C136.122 214.046 146.065 202.672 152.304 189.232C158.544 175.793 160.822 160.847 158.869 146.155C156.916 131.462 150.815 117.634 141.283 106.298C143.502 94.3758 142.098 82.0601 137.253 70.9457C132.408 59.8313 124.344 50.4298 114.105 43.9583C111.954 37.0849 107.669 31.0788 101.874 26.8145C96.0788 22.5502 89.0764 20.2505 81.8862 20.25L81.9118 20.2654C74.7209 20.2616 67.7165 22.5576 61.9187 26.8191C56.1208 31.0807 51.8324 37.0852 49.6778 43.9583C39.4391 50.4298 31.375 59.8313 26.5296 70.9457C21.6841 82.0601 20.2804 94.3758 22.5 106.298C12.9677 117.634 6.86626 131.462 4.91367 146.155C2.96109 160.847 5.23867 175.793 11.4783 189.232C17.718 202.672 27.6601 214.046 40.1344 222.016C49.9354 228.278 60.9791 232.234 72.4384 233.642V245.579H57.1624C54.3663 245.579 51.6846 246.692 49.7074 248.672C47.7302 250.653 46.6195 253.34 46.6195 256.141C46.6195 258.942 47.7302 261.629 49.7074 263.61C51.6846 265.59 54.3663 266.703 57.1624 266.703H105.103C107.899 266.703 110.581 265.59 112.558 263.61C114.535 261.629 115.646 258.942 115.646 256.141C115.646 253.34 114.535 250.653 112.558 248.672C110.581 246.692 107.899 245.579 105.103 245.579H91.4117V233.633ZM89.7477 43.358C87.4714 41.6851 84.7195 40.7881 81.8964 40.7989L81.9118 40.8143C79.0888 40.8035 76.3368 41.7005 74.0605 43.3734C71.7843 45.0462 70.1039 47.4067 69.2664 50.1075L67.0204 57.2996L60.6464 61.3324C54.9267 64.9214 50.213 69.91 46.9493 75.8282C43.6856 81.7465 41.9793 88.3996 41.9911 95.161C42.0001 97.6365 42.2369 100.106 42.6988 102.538L44.4474 112.114L38.1862 119.552C31.1736 127.895 26.6855 138.07 25.2501 148.881C23.8146 159.692 25.4916 170.689 30.0837 180.578C34.6757 190.467 41.9918 198.835 51.1708 204.7C57.6665 208.849 64.9039 211.623 72.4384 212.889V150.679L57.9778 134.435C57.1204 133.508 56.4561 132.419 56.0236 131.232C55.5912 130.045 55.3994 128.783 55.4593 127.52C55.5193 126.258 55.8298 125.02 56.3728 123.88C56.9158 122.739 57.6803 121.718 58.6217 120.877C59.563 120.035 60.6624 119.39 61.8554 118.98C63.0484 118.569 64.3112 118.4 65.57 118.484C66.8287 118.568 68.0581 118.903 69.1864 119.468C70.3147 120.033 71.3191 120.818 72.141 121.777L72.4384 122.116V107.973C72.3966 106.699 72.611 105.429 73.0689 104.239C73.5269 103.05 74.2189 101.965 75.104 101.048C75.989 100.132 77.049 99.4034 78.2208 98.9058C79.3926 98.4082 80.6523 98.1517 81.925 98.1517C83.1978 98.1517 84.4575 98.4082 85.6293 98.9058C86.8011 99.4034 87.8611 100.132 88.7461 101.048C89.6312 101.965 90.3232 103.05 90.7812 104.239C91.2391 105.429 91.4535 106.699 91.4117 107.973V161.195L95.914 156.124C96.7432 155.193 97.7476 154.434 98.8697 153.891C99.9917 153.348 101.21 153.032 102.453 152.961C103.697 152.89 104.943 153.064 106.12 153.475C107.296 153.886 108.381 154.526 109.311 155.356C110.241 156.187 110.998 157.193 111.54 158.317C112.082 159.442 112.397 160.662 112.468 161.908C112.54 163.154 112.365 164.402 111.955 165.581C111.545 166.76 110.906 167.846 110.077 168.777L91.4117 189.758V212.88C98.9256 211.609 106.143 208.839 112.622 204.7C121.801 198.835 129.117 190.467 133.709 180.578C138.301 170.689 139.978 159.692 138.543 148.881C137.107 138.07 132.619 127.895 125.607 119.552L119.345 112.114L121.12 102.533C121.573 100.102 121.801 97.634 121.802 95.161C121.818 88.3984 120.115 81.7431 116.854 75.8221C113.593 69.9011 108.881 64.9092 103.162 61.3169L96.7878 57.2842L94.5418 50.0921C93.7044 47.3912 92.0239 45.0308 89.7477 43.358Z" fill="#ECEBF4"/>
</svg>
