<svg width="271" height="271" viewBox="0 0 271 271" fill="none" xmlns="http://www.w3.org/2000/svg">
<path d="M135.5 267.613C55.894 267.613 45.7315 211.719 45.7315 162.601C45.7315 144.816 49.119 128.302 55.894 113.905C49.119 117.293 42.7674 121.527 40.2268 125.762C32.1815 137.618 24.1362 155.826 24.1362 156.249C22.019 160.907 16.5143 163.448 11.4331 160.907C6.77526 158.79 4.65807 153.285 6.77526 148.204C7.19869 147.357 15.6674 128.302 24.5596 115.176C31.7581 104.59 46.5784 96.9679 57.5878 92.3101C50.8128 91.4632 44.0378 88.4991 35.9924 84.2648C18.6315 74.1023 9.31588 48.2726 8.46901 45.3085C6.35182 40.2273 8.89244 35.146 13.9737 33.4523C19.0549 31.7585 24.5596 34.2991 25.8299 39.3804C27.9471 45.3085 35.569 62.6694 44.8846 68.1741C56.7409 74.9491 63.0924 75.796 75.3721 72.4085C75.7956 71.9851 76.219 71.5616 76.6424 71.1382C71.1378 67.3273 66.0565 63.0929 60.9753 57.5882C47.8487 43.6148 38.1096 16.9382 37.6862 16.0913C35.9924 11.0101 38.5331 5.50538 43.1909 3.81163C48.2721 2.11788 53.7768 4.65851 55.4706 9.31632C58.0112 16.0913 66.0565 35.146 74.5253 44.0382C80.8768 50.3898 86.3815 55.0476 93.5799 58.4351C97.8143 33.8757 109.671 3.3882 135.5 3.3882C161.33 3.3882 173.186 33.8757 177.421 58.8585C184.619 55.471 190.124 50.8132 196.475 44.4616C204.944 35.5694 212.989 16.5148 215.53 9.73976C217.224 4.65851 222.728 2.11788 227.81 4.23507C232.891 5.92882 235.432 11.4335 233.314 16.5148C232.891 17.7851 223.152 44.4616 210.025 58.0116C204.944 63.5163 199.863 67.7507 194.358 71.5616C194.782 71.9851 195.205 72.4085 195.628 72.832C207.908 76.6429 214.26 75.3726 226.116 68.5976C235.432 63.0929 243.053 45.7319 245.171 39.8038C246.864 34.7226 252.369 32.1819 257.027 33.8757C262.108 35.5694 264.649 41.0741 262.955 45.7319C262.108 48.696 252.792 74.9491 235.432 84.6882C227.81 89.346 221.035 91.8866 213.836 92.7335C224.846 97.3913 240.089 105.013 246.864 115.599C255.757 128.726 264.225 147.78 264.649 148.627C266.766 153.285 264.649 159.213 259.991 161.33C255.333 163.448 249.405 161.33 247.288 156.673C247.288 156.673 239.242 138.041 231.197 126.185C229.08 122.798 224.422 119.41 219.341 116.446C225.692 130.419 229.503 146.51 229.503 163.024C229.503 196.476 224.422 219.341 212.566 235.855C197.322 257.451 172.339 267.613 135.5 267.613ZM135.5 77.0663C95.6971 77.0663 64.3628 114.752 64.3628 162.601C64.3628 233.738 92.7331 248.135 135.5 248.135C198.169 248.135 210.872 215.53 210.872 162.601C210.872 116.446 176.15 77.0663 135.5 77.0663ZM135.5 22.0194C123.644 22.0194 115.599 42.7679 112.635 61.3991C127.032 57.1648 143.969 57.1648 158.789 61.3991C155.402 42.7679 147.357 22.0194 135.5 22.0194Z" fill="#ECF3FA"/>
<path fill-rule="evenodd" clip-rule="evenodd" d="M95.273 105.012C100.354 103.742 105.435 106.706 106.706 111.787C109.67 122.797 121.103 129.995 135.5 129.995C149.896 129.995 161.753 122.797 164.293 111.787C165.564 106.706 170.645 103.742 175.726 105.012C180.807 106.282 183.771 111.364 182.501 116.445C177.843 135.5 161.329 145.662 144.815 148.203V228.656C144.815 233.737 140.581 237.972 135.5 237.972C130.418 237.972 126.184 233.737 126.184 228.656V148.626C109.67 146.086 93.1558 135.923 88.498 116.868C86.8042 111.364 89.7683 106.282 95.273 105.012Z" fill="#ECF3FA"/>
</svg>
