<svg width="66" height="66" viewBox="0 0 66 66" fill="none" xmlns="http://www.w3.org/2000/svg">
<path d="M3.54047 44.8509C3.49352 46.8523 5.25565 48.3603 7.0132 48.8137C7.44027 48.9293 8.30932 49.0266 9.85962 49.132C9.85161 49.3942 9.84817 49.6575 9.85962 49.9025L9.93634 52.1685C10.0554 55.537 11.158 56.8743 15.1471 56.682L15.2674 56.6751C17.9501 56.5286 19.5485 55.6767 19.2634 52.9631L18.9954 49.7159V49.5201C28.5148 49.7881 40.8119 49.93 48.3012 50.0228L48.0676 52.9493C47.7803 55.6801 49.3603 56.5274 52.0636 56.6751L52.1873 56.682C56.181 56.8743 57.2722 55.529 57.3935 52.1673L57.4702 49.9083C57.4782 49.7365 57.4714 49.5545 57.4702 49.3759C59.0423 48.6396 60.122 47.276 60.248 45.8012C60.4357 43.7471 58.8236 42.0583 57.2412 41.353C57.7153 39.5794 58.045 35.1426 57.5779 32.4965C56.971 29.1979 55.2387 26.7842 52.0373 25.7366C51.9022 24.5916 52.2125 26.6022 49.9981 15.118C48.8462 9.29235 46.8746 8.04088 41.484 8.0031C35.482 7.97791 29.4411 8.10729 23.4803 8.35232C18.6027 8.57216 17.0616 9.80874 16.1868 14.5616C14.1315 25.8431 14.3663 24.6431 14.1327 25.6759C9.70963 26.6205 8.81425 30.0635 8.47076 34.5552C8.38832 35.7013 8.12726 38.8294 8.83944 40.7141C5.20298 40.9671 3.57482 43.0487 3.54047 44.8509ZM16.6917 49.9243L16.1959 49.4285C16.5303 49.44 16.8658 49.4526 17.2024 49.4629C17.1738 49.4766 17.1406 49.4743 17.1165 49.4984L16.6917 49.9243ZM14.4727 50.2083L13.5923 49.3278C13.7835 49.3358 13.9712 49.3438 14.1659 49.3518C14.2541 49.3552 14.3445 49.3587 14.435 49.3621C14.7166 49.3736 14.9983 49.3839 15.2857 49.3953L14.4727 50.2083ZM11.474 54.3451C11.2485 53.894 11.1557 53.3398 11.1145 52.7215L12.1061 53.713L11.474 54.3451ZM12.4335 49.2762C12.5251 49.2808 12.619 49.2843 12.7129 49.2888C12.7244 49.2888 12.7358 49.29 12.7461 49.29L12.816 49.361L12.1118 50.0651L11.2634 49.2167C11.6355 49.2385 12.0294 49.2579 12.4335 49.2762ZM15.2055 55.5324L15.0887 55.5393C13.8235 55.5954 12.532 55.5885 11.8015 54.8271L12.5664 54.0623C12.658 54.0657 12.7232 54.0371 12.7782 53.9821C12.8366 53.9237 12.8606 53.847 12.8583 53.7703L13.5591 53.0696C13.6713 52.9574 13.6713 52.7765 13.5591 52.6642C13.4468 52.552 13.2659 52.552 13.1537 52.6642L12.5091 53.3089L11.071 51.8708L11.0023 49.8556C11.0012 49.827 11.0023 49.7949 11.0012 49.7663L11.7053 50.4705L11.3103 50.8655C11.1981 50.9777 11.1981 51.1586 11.3103 51.2708C11.4225 51.383 11.6034 51.383 11.7145 51.2708L12.1095 50.8758L12.6041 51.3704C12.7163 51.4826 12.8973 51.4826 13.0083 51.3704C13.1205 51.2582 13.1205 51.0773 13.0083 50.9651L12.5137 50.4705L13.2179 49.7663L14.0972 50.6468C14.1304 50.68 14.1762 50.6834 14.2174 50.6972C14.2312 50.7384 14.2334 50.783 14.2667 50.8162C14.3789 50.9285 14.5598 50.9285 14.672 50.8162L15.7208 49.7674L16.283 50.3296L16.2578 50.3537C16.1456 50.4659 16.1456 50.6468 16.2578 50.759C16.37 50.8712 16.5509 50.8712 16.6631 50.759L16.7272 50.6949C16.7513 50.7017 16.7707 50.7235 16.7948 50.7235C16.8681 50.7235 16.9413 50.696 16.9974 50.6399C17.0719 50.5655 17.0787 50.4647 17.0535 50.3697L17.5184 49.9048C17.6306 49.7926 17.6306 49.6117 17.5184 49.4995C17.5001 49.4812 17.4737 49.4846 17.4531 49.472C17.5848 49.4766 17.7165 49.4812 17.8493 49.4846L18.1218 53.0696C18.3325 55.0595 17.3386 55.4133 15.2055 55.5324ZM50.0176 54.4058L49.1748 53.5631C49.1806 53.4005 49.1886 53.2379 49.2069 53.057L49.2848 52.0998L49.2985 52.1135C49.3111 52.1593 49.3168 52.2085 49.3523 52.2452C49.389 52.2818 49.437 52.2864 49.484 52.299L50.6416 53.4566C50.7503 53.5653 50.8133 53.5379 50.9083 53.5138L50.0176 54.4058ZM49.3455 51.3509L49.4519 50.0399H49.4554L50.3027 50.8884L49.5928 51.5983L49.3455 51.3509ZM50.2786 50.0525C50.566 50.0571 50.5626 50.0571 51.127 50.064L50.7091 50.4819L50.2786 50.0525ZM52.2468 55.5393L52.1255 55.5324C51.5014 55.4981 50.9118 55.466 50.3759 55.2759C50.2729 55.2393 50.1813 55.1901 50.0885 55.1431L51.8759 53.357C51.9881 53.2448 51.9881 53.0638 51.8759 52.9516C51.7636 52.8394 51.5827 52.8394 51.4705 52.9516L51.1041 53.318C51.1282 53.2241 51.1213 53.1245 51.0469 53.0512L49.9981 52.0036L50.708 51.2937L51.814 52.3997C51.9262 52.512 52.1071 52.512 52.2194 52.3997C52.3316 52.2875 52.3316 52.1066 52.2194 51.9944L51.1133 50.8884L51.6858 50.3159C51.7522 50.2495 51.7659 50.1613 51.7533 50.0743L52.3327 50.0823H52.3419L52.8789 50.6193L52.351 51.1471C52.2388 51.2594 52.2388 51.4403 52.351 51.5525C52.4632 51.6647 52.6441 51.6647 52.7563 51.5525L53.2842 51.0246L53.7445 51.4849C53.8567 51.5971 54.0376 51.5971 54.1498 51.4849C54.262 51.3727 54.262 51.1918 54.1498 51.0796L53.6895 50.6193L54.2345 50.0743C54.3753 50.0674 55.036 50.0136 55.1104 50.0045L55.3795 50.2735L54.6593 50.9937C54.5471 51.1059 54.5471 51.2868 54.6593 51.399C54.7715 51.5112 54.9524 51.5112 55.0646 51.399L55.7848 50.6788L56.1592 51.0544C56.1936 51.0887 56.2405 51.0922 56.284 51.1059L56.2497 52.1272C56.1501 54.8443 55.5879 55.6904 52.2468 55.5393ZM56.3172 50.1453L56.3092 50.3915L56.1901 50.2724L56.3172 50.1453ZM53.4078 50.0915L53.2853 50.214L53.1628 50.0915H53.4078ZM17.3134 14.7665C18.0817 10.5873 19.1477 9.69309 23.5296 9.49616C29.8682 9.23739 36.374 9.12862 41.4783 9.14808C46.3284 9.18358 47.8318 10.0686 48.8726 15.3367C49.0123 16.0615 49.1565 16.7863 49.2974 17.511L48.4638 18.3446L48.1077 17.9885C47.9955 17.8763 47.8146 17.8763 47.7024 17.9885C47.5902 18.1007 47.5902 18.2816 47.7024 18.3938L48.0585 18.7499L47.7024 19.106C47.5902 19.2182 47.5902 19.3991 47.7024 19.5113C47.8146 19.6235 47.9955 19.6235 48.1077 19.5113L48.4638 19.1552L49.1977 19.8892C49.31 20.0014 49.4909 20.0014 49.6019 19.8892C49.7141 19.7769 49.7141 19.596 49.6019 19.4838L48.868 18.7499L49.429 18.1889C49.7084 19.6212 49.9878 21.0536 50.2694 22.486C50.266 22.4814 50.2672 22.4745 50.2626 22.4711C50.1504 22.3589 49.9695 22.3589 49.8573 22.4711L48.3218 24.0065C48.2096 24.1187 48.2096 24.2996 48.3218 24.4118C48.434 24.524 48.615 24.524 48.7272 24.4118L50.2626 22.8764C50.3004 22.8386 50.3061 22.7894 50.3187 22.7413C50.3473 22.8844 50.8122 25.2706 50.8408 25.4034C50.4847 25.3255 49.6122 25.1813 48.9539 25.1137C48.9046 25.1091 48.8554 25.1011 48.8062 25.0965C48.7627 24.9294 47.2524 23.4626 47.1299 23.3413L48.4318 22.0394L49.0088 22.6165C49.121 22.7287 49.3019 22.7287 49.4141 22.6165C49.5264 22.5043 49.5264 22.3234 49.4141 22.2112L48.8371 21.6341L49.16 21.3112C49.2722 21.199 49.2722 21.0181 49.16 20.9059C49.0478 20.7937 48.8668 20.7937 48.7546 20.9059L48.4318 21.2288L47.1769 19.9739C47.0646 19.8617 46.8837 19.8617 46.7727 19.9739C46.7463 20.0002 46.7463 20.038 46.7326 20.0701C46.7005 20.0838 46.6628 20.0838 46.6364 20.1101L45.2693 21.4772L43.9514 20.1594C43.8392 20.0472 43.6583 20.0472 43.5461 20.1594C43.5003 20.2052 43.4854 20.2659 43.4774 20.3265C43.4179 20.3346 43.3572 20.3494 43.3103 20.3952L39.9955 23.71L39.857 23.5714C39.7448 23.4592 39.5639 23.4592 39.4528 23.5714C39.3406 23.6836 39.3406 23.8645 39.4528 23.9767L39.5914 24.1153L39.2673 24.4393C39.1814 24.5252 39.1826 24.6454 39.2284 24.7496C38.8654 24.7439 38.5002 24.7519 38.1372 24.7485C38.1315 24.6832 38.112 24.6168 38.0617 24.5664L37.6724 24.1771L40.465 21.3845C40.5772 21.2723 40.5772 21.0914 40.465 20.9792C40.3528 20.867 40.1719 20.867 40.0597 20.9792L37.2476 23.7912C37.1377 23.7283 37.0025 23.7248 36.9087 23.8187C36.8148 23.9126 36.8182 24.0477 36.8812 24.1576L36.2927 24.7462C29.796 24.721 23.2742 24.9019 16.7994 25.337C16.275 25.3736 15.5593 25.4423 15.3521 25.4675C15.4277 25.1503 17.2551 15.0894 17.3134 14.7665ZM46.744 24.9637C46.3456 24.9465 45.9426 24.9442 45.543 24.9294L46.7269 23.7455L48.0127 25.0313C47.6051 25.0038 47.1574 24.9809 46.744 24.9637ZM41.089 24.8023L40.402 24.1153L42.013 22.5043L43.1282 23.6195L42.3072 24.4405C42.1973 24.5504 42.1985 24.7244 42.3038 24.8366C41.8985 24.8263 41.4943 24.8103 41.089 24.8023ZM40.2554 24.7782C40.0883 24.7748 39.9211 24.7668 39.7539 24.7633L39.9978 24.5195L40.2554 24.7782ZM43.7167 20.8006C43.7293 20.788 43.7259 20.7685 43.7362 20.7525L44.8651 21.8814L43.5324 23.2142L42.4172 22.099L43.7167 20.8006ZM46.9765 20.5819L48.0299 21.6341L46.7292 22.9348L45.6769 21.8826L46.9765 20.5819ZM46.3238 23.3401L44.9865 24.6775C44.9819 24.6717 44.9842 24.6637 44.9785 24.6591L43.9377 23.6195L45.2705 22.2879L46.3238 23.3401ZM42.7126 24.8446L43.5335 24.0237L44.406 24.8962C43.8392 24.8767 43.2725 24.863 42.7046 24.8481C42.7068 24.8458 42.7103 24.8469 42.7126 24.8446ZM37.2682 24.5824L37.4342 24.7485C37.3243 24.7473 37.2132 24.7485 37.1033 24.7485L37.2682 24.5824ZM9.61345 34.6388C10.1264 27.9395 12.0271 26.8209 16.8795 26.4808C26.7939 25.8133 36.8251 25.6896 46.6971 26.1087C51.4728 26.3022 55.4207 27.0957 56.4523 32.7004C56.8977 35.2227 56.5119 39.6447 56.1672 40.982C54.3765 40.5034 52.6968 40.6099 44.256 40.6202V30.5581C44.256 30.2421 43.9995 29.9856 43.6835 29.9856C43.3675 29.9856 43.111 30.2421 43.111 30.5581V40.6213L39.2639 40.6259V30.5569C39.2639 30.2409 39.0074 29.9845 38.6914 29.9845C38.3754 29.9845 38.1189 30.2409 38.1189 30.5569V40.6271L34.2718 40.6316V30.5569C34.2718 30.2409 34.0153 29.9845 33.6993 29.9845C33.3833 29.9845 33.1268 30.2409 33.1268 30.5569V40.6328L29.2797 40.6374V30.5558C29.2797 30.2398 29.0232 29.9833 28.7072 29.9833C28.3911 29.9833 28.1347 30.2398 28.1347 30.5558V40.6385L24.2875 40.6431V30.5558C24.2875 30.2398 24.0311 29.9833 23.715 29.9833C23.399 29.9833 23.1425 30.2398 23.1425 30.5558V40.6442C22.862 40.6442 10.3382 40.6591 10.0577 40.6637C9.27912 39.0184 9.52071 35.9361 9.61345 34.6388ZM9.73253 41.8201C10.1997 41.8018 51.5587 41.756 52.0339 41.7549C53.3506 41.7549 55.3142 41.7423 56.7569 42.388C58.0244 42.9479 59.2392 44.2658 59.1076 45.6993V45.7028C58.9873 47.1008 57.7427 48.0649 56.7054 48.469C56.7031 48.469 56.7008 48.4702 56.6985 48.4702C56.6848 48.4748 56.671 48.4793 56.6562 48.4851C55.1265 49.0633 53.6185 48.974 48.9161 48.8858C48.5543 48.9763 18.8305 48.3706 18.4401 48.3591C17.3581 48.3236 16.2646 48.287 15.209 48.2481C13.4491 48.1816 11.7946 48.1095 10.4676 48.0259C9.35583 47.9549 7.81926 47.8473 7.30631 47.7088C6.01134 47.3756 4.65339 46.2695 4.68545 44.8761C4.71064 43.5216 5.96668 41.9094 9.73253 41.8201Z" fill="black"/>
<path d="M51.4703 36.2956C52.8374 35.6808 53.7007 34.1591 53.5221 32.6775C53.1225 29.3479 48.5597 28.4216 46.8881 31.56C46.1827 32.8824 46.3774 34.3812 47.3953 35.4701C48.4086 36.5544 50.1192 36.9036 51.4703 36.2956ZM47.8991 32.0993C49.0326 29.9765 52.1115 30.5226 52.3863 32.8137C52.5042 33.795 51.9088 34.8426 51.0008 35.2514C50.1009 35.6579 48.9112 35.414 48.2323 34.6881C47.5487 33.9576 47.4251 32.9889 47.8991 32.0993Z" fill="black"/>
<path d="M17.2343 36.2956C18.6014 35.6808 19.4647 34.1591 19.2872 32.6775C18.8865 29.3479 14.326 28.4216 12.6532 31.56C11.9479 32.8824 12.1425 34.3812 13.1604 35.4701C14.1726 36.5544 15.8832 36.9036 17.2343 36.2956ZM13.6619 32.0993C14.7955 29.9765 17.8743 30.5226 18.1491 32.8137C18.267 33.795 17.6716 34.8426 16.7637 35.2514C15.8649 35.6579 14.6741 35.414 13.9951 34.6881C13.3127 33.9576 13.1879 32.9889 13.6619 32.0993Z" fill="black"/>
<path d="M54.7902 25.74C59.764 27.9521 61.4082 24.6454 60.917 22.4631C60.3766 20.0586 58.0007 18.8873 55.4726 18.553C53.0693 18.2347 51.6678 19.4026 52.609 22.1952C53.0201 23.4077 53.233 25.0462 54.7902 25.74ZM55.3226 19.6888C58.2812 20.0781 59.5144 21.4418 59.8006 22.7138C60.0983 24.0374 59.3209 26.5072 55.2562 24.6935C54.2314 24.2378 54.0895 22.9966 53.6944 21.8299C53.1643 20.2533 53.3601 19.4209 55.3226 19.6888Z" fill="black"/>
<path d="M6.4647 25.3805C7.93601 26.3606 9.73134 25.9026 11.3435 25.1858C12.8903 24.4977 13.109 22.8844 13.5247 21.641C14.4647 18.8575 13.0701 17.6816 10.6622 17.9976C9.32258 18.1763 8.25202 18.5209 7.38756 19.051C4.52969 20.8006 4.59839 24.0775 6.45669 25.3736C6.45784 25.3759 6.46127 25.3782 6.4647 25.3805ZM7.9841 20.0288C8.71001 19.5823 9.63516 19.2915 10.8122 19.1346C13.456 18.7694 12.6591 20.496 12.2274 21.9639C11.9412 22.9382 11.6927 23.7787 10.8786 24.1393C9.70386 24.6614 8.21538 25.1652 7.10589 24.4313C5.88649 23.5737 5.88077 21.3158 7.9841 20.0288Z" fill="black"/>
<path d="M21.3873 17.8602L22.451 16.7966L23.257 17.6026L21.9987 18.861C21.8865 18.9732 21.8865 19.1541 21.9987 19.2663C22.1109 19.3785 22.2918 19.3785 22.404 19.2663L23.6624 18.0079L25.0753 19.4209C25.1875 19.5331 25.3684 19.5331 25.4806 19.4209C25.5928 19.3086 25.5928 19.1277 25.4806 19.0155L24.0677 17.6026L25.7645 15.9058L26.8202 16.9614L25.705 18.0778C25.5928 18.19 25.5928 18.3709 25.705 18.4831C25.8172 18.5953 25.9981 18.5953 26.1103 18.4831L27.2255 17.3668L28.0293 18.1705C28.1415 18.2827 28.3224 18.2827 28.4346 18.1705C28.5468 18.0583 28.5468 17.8774 28.4346 17.7652L27.6297 16.9614L29.0415 15.5497L30.088 16.5962C30.2002 16.7084 30.3811 16.7084 30.4933 16.5962C30.6055 16.484 30.6055 16.3031 30.4933 16.1909L29.4468 15.1443L30.0342 14.557C30.1464 14.4448 30.1464 14.2639 30.0342 14.1516C29.922 14.0394 29.7411 14.0394 29.6288 14.1516L29.0415 14.739L27.9858 13.6833L28.7358 12.9334C28.848 12.8212 28.848 12.6403 28.7358 12.5281C28.6236 12.4159 28.4426 12.4159 28.3304 12.5281L27.5805 13.278L27.1774 12.875C27.0652 12.7628 26.8843 12.7628 26.7721 12.875C26.6599 12.9872 26.6599 13.1681 26.7721 13.2803L27.1752 13.6833L25.7634 15.0951L24.6825 14.0142C24.5703 13.902 24.3894 13.902 24.2772 14.0142C24.165 14.1265 24.165 14.3074 24.2772 14.4196L25.3581 15.5004L23.6612 17.1973L22.854 16.3912L23.9154 15.3298C24.0276 15.2176 24.0276 15.0367 23.9154 14.9245C23.8032 14.8123 23.6223 14.8123 23.5101 14.9245L22.4487 15.9859L22.1876 15.7249C22.0754 15.6126 21.8945 15.6126 21.7823 15.7249C21.6701 15.8371 21.6701 16.018 21.7823 16.1302L22.0434 16.3912L20.9797 17.4549C20.8675 17.5671 20.8675 17.748 20.9797 17.8602C21.0942 17.9713 21.2751 17.9713 21.3873 17.8602ZM27.5816 14.0875L28.6373 15.1432L27.2255 16.555L26.1699 15.4993L27.5816 14.0875Z" fill="black"/>
</svg>
