<svg width="66" height="66" viewBox="0 0 66 66" fill="none" xmlns="http://www.w3.org/2000/svg">
<path d="M62.7465 34.2038C62.8847 33.2257 62.8927 32.2203 62.8806 31.3357L62.6876 18.7643C62.5831 11.888 60.7864 8.8634 52.4056 9.00472C42.8773 9.17118 33.4209 9.47548 24.2987 9.90793C17.3479 10.2199 15.3777 11.734 12.213 18.8924C11.2624 21.0405 10.2804 23.2624 8.7397 24.8745C8.44521 25.1788 8.13445 25.4632 7.81865 25.7192C7.81774 25.7202 7.81774 25.7214 7.81659 25.7224C7.81567 25.7234 7.81453 25.7247 7.81361 25.7247C5.4309 27.705 0.222038 30.0658 1.19075 34.8823C0.269706 35.8219 -0.0868869 37.0734 0.0176158 38.3304C0.387271 42.7686 4.81443 42.3409 8.28066 42.3319C8.12528 47.6809 12.1603 50.2512 16.0276 49.6249C19.495 49.0549 22.2471 46.0524 22.2613 42.2888L44.0227 42.2217C43.5657 52.666 58.0787 51.6438 57.9994 42.1786C60.2875 42.1622 63.3142 42.3264 64.5826 39.9602C65.6472 37.9694 64.5451 35.3847 62.7465 34.2038ZM59.132 33.1232C58.876 33.1055 58.7724 33.0991 58.4892 33.0911C58.3705 33.0879 58.2524 33.0834 58.1358 33.0824C58.0505 33.0814 57.9683 33.0814 57.8848 33.0814C57.7913 33.0814 57.6949 33.0792 57.6025 33.0804L56.4204 31.797L57.9795 30.1043L59.1728 31.3999L58.4841 32.1476C58.3847 32.2556 58.3847 32.43 58.4841 32.538C58.5827 32.645 58.7431 32.646 58.8437 32.538L59.5324 31.7903L61.0486 33.4365C60.5467 33.2954 59.847 33.175 59.132 33.1232ZM52.3762 32.7637L51.3037 31.5992L52.497 30.3036L53.8273 31.748L53.0028 32.6432C52.9033 32.7512 52.9033 32.9257 53.0028 33.0336C53.1013 33.1406 53.2617 33.1416 53.3624 33.0336L54.1869 32.1384L55.0553 33.0812C55.0786 33.1065 55.11 33.1053 55.1384 33.1187C54.2813 33.1309 53.3438 33.1429 52.3751 33.1541C52.3751 33.1541 52.376 33.1541 52.3771 33.1531C52.4757 33.0451 52.4757 32.8707 52.3762 32.7637ZM52.0279 33.1575C51.3241 33.1653 50.5978 33.174 49.8464 33.1817L50.9453 31.9886L52.0178 33.1531C52.0196 33.1563 52.0247 33.1553 52.0279 33.1575ZM57.0186 29.0633L57.6188 29.7149L56.0597 31.4076L55.4595 30.756L57.0186 29.0633ZM55.7001 31.7978L55.1455 32.3999L54.5453 31.7483L55.0999 31.1461L55.7001 31.7978ZM55.4139 33.0814C55.4778 33.012 55.485 32.9194 55.4666 32.8311L56.0588 32.1882L56.8916 33.0924C56.4021 33.1001 55.878 33.1078 55.3367 33.1165C55.363 33.1023 55.3926 33.1033 55.4139 33.0814ZM58.3368 29.7149L59.0284 28.964L60.2217 30.2596L59.5312 31.0115L58.3368 29.7149ZM61.7086 21.1771L61.4881 20.9377L61.7015 20.706L61.7086 21.1771ZM61.803 27.3288L61.3967 26.8876L61.7897 26.4609L61.803 27.3288ZM10.9608 23.6824L11.0298 23.7573L10.6267 24.1949C10.7424 24.0275 10.8522 23.8553 10.9608 23.6824ZM11.9784 21.8608L12.3776 22.293L11.3894 23.3659L11.2462 23.2104C11.5042 22.7715 11.749 22.3216 11.9784 21.8608ZM10.1127 25.5336L10.7647 26.2415C10.8632 26.3484 11.0236 26.3494 11.1242 26.2415C11.2237 26.1335 11.2237 25.9591 11.1242 25.8511L10.4722 25.1432L11.3903 24.1464L12.0027 24.8113C12.1012 24.9183 12.2616 24.9192 12.3622 24.8113C12.4617 24.7033 12.4617 24.5291 12.3622 24.4221L11.7499 23.7573L12.7381 22.6844L13.0926 23.0693C13.1911 23.1763 13.3516 23.1773 13.4522 23.0693C13.5516 22.9613 13.5516 22.7871 13.4522 22.6789L13.0976 22.294L13.3892 21.9775C13.4886 21.8695 13.4886 21.6953 13.3892 21.5871C13.2897 21.4791 13.1293 21.4791 13.0296 21.5871L12.736 21.9036L12.2252 21.349C12.2628 21.2696 12.3024 21.1912 12.34 21.1119L13.1627 20.2199L14.0819 21.2179C14.1805 21.3249 14.3409 21.3258 14.4404 21.2179C14.5398 21.1099 14.5398 20.9357 14.4404 20.8287L13.5212 19.8307L14.6159 18.6431L15.072 19.1383L14.5064 19.7523C14.4069 19.8603 14.4069 20.0345 14.5064 20.1427C14.6049 20.2497 14.7653 20.2507 14.8659 20.1427L15.4519 19.5065C15.5464 19.5583 15.6298 19.5936 15.7393 19.4744C15.8186 19.3883 15.8165 19.2649 15.7689 19.1624L16.8515 17.9857C16.951 17.8778 16.951 17.7036 16.8515 17.5966C16.752 17.4886 16.5916 17.4886 16.4919 17.5966L15.4297 18.7499L14.9736 18.2547L15.1157 18.1004C15.2152 17.9925 15.2152 17.8183 15.1157 17.7101C15.0172 17.6031 14.8568 17.6008 14.7562 17.7101L14.6141 17.8643L14.0799 17.2843C14.092 17.2589 14.1042 17.2336 14.1165 17.2094C14.1908 17.0562 14.2648 16.9019 14.3409 16.7519C14.4028 16.6317 14.4679 16.516 14.5309 16.3968C14.6141 16.2403 14.6964 16.0825 14.7827 15.9303C14.8446 15.821 14.9118 15.7163 14.9757 15.6093C15.0266 15.5232 15.0784 15.4384 15.1311 15.3545L15.3901 15.6357L15.0731 15.9808C14.9737 16.0888 14.9737 16.2629 15.0731 16.3712C15.1717 16.4782 15.3321 16.4792 15.4315 16.3712L15.7494 16.0261L16.959 17.3393C17.0575 17.4463 17.2179 17.4473 17.3185 17.3393C17.418 17.2313 17.418 17.0572 17.3185 16.9489L16.109 15.6357L17.4517 14.1779L18.3342 15.136L18.1229 15.3655C18.0235 15.4734 18.0235 15.6476 18.1229 15.7558C18.2215 15.8628 18.3819 15.8638 18.4825 15.7558L18.6938 15.5264L19.0543 15.9178C19.1528 16.0248 19.3133 16.0258 19.4139 15.9178C19.5133 15.8098 19.5133 15.6357 19.4139 15.5274L19.0534 15.1328L19.7583 14.3675L20.5657 15.244C20.5778 15.2572 20.5962 15.254 20.6104 15.2639C20.6145 15.3289 20.6326 15.3941 20.6784 15.4426C20.777 15.5496 20.9374 15.5506 21.038 15.4426L21.5326 14.9056L22.018 15.4326C22.1165 15.5396 22.2769 15.5406 22.3775 15.4326C22.477 15.3247 22.477 15.1505 22.3775 15.0435L21.8921 14.5165L22.5645 13.7865C22.664 13.6785 22.664 13.5043 22.5645 13.3961C22.5208 13.3486 22.4639 13.3311 22.4071 13.3254C26.3729 14.2087 26.5883 17.2356 26.4025 20.142C26.1059 24.7665 24.0118 23.2878 21.3591 23.4985C19.7728 23.6197 18.43 24.5075 17.1311 25.3654C15.7072 26.3071 12.9883 28.3415 9.37084 26.338L10.1127 25.5336ZM15.7696 14.421C16.194 13.8651 16.442 13.6325 16.7131 13.3724L17.094 13.786L15.7503 15.2438L15.4313 14.8974C15.4425 14.881 15.4535 14.8653 15.4648 14.8499C15.5645 14.7044 15.6641 14.5588 15.7696 14.421ZM18.653 13.1684L19.3985 13.9778L18.6936 14.7432L17.811 13.785L18.1177 13.4521C18.1878 13.3759 18.1908 13.2724 18.1614 13.1764C18.3269 13.1739 18.4905 13.1716 18.653 13.1684ZM17.4526 13.3956L17.2668 13.1938L17.6456 13.1861L17.4526 13.3956ZM22.2036 13.3978L21.5312 14.1278L20.8955 13.4376C20.796 13.3296 20.6356 13.3296 20.5359 13.4376C20.4362 13.5456 20.4364 13.7198 20.5359 13.828L21.1716 14.5182L20.8923 14.8215L20.1163 13.9791L20.1681 13.9228C20.2675 13.8148 20.2675 13.6407 20.1681 13.5324C20.0686 13.4244 19.9082 13.4244 19.8097 13.5324L19.7579 13.5887L19.3618 13.1587C20.284 13.1488 21.1015 13.152 21.5963 13.194C21.8481 13.2162 22.1112 13.2625 22.3762 13.3197C22.3143 13.3217 22.2513 13.3461 22.2036 13.3978ZM13.7253 18.0377C13.762 17.9571 13.7996 17.8758 13.837 17.7951L14.2575 18.2517L13.1627 19.4393L13.118 19.3908C13.121 19.3831 13.1251 19.3754 13.1281 19.3687C13.327 18.9188 13.5253 18.4757 13.7253 18.0377ZM6.47593 28.0498C7.03144 27.6595 7.59819 27.2526 8.14247 26.8214C9.45357 27.7719 10.9842 28.289 12.5045 28.289C14.5896 28.289 15.9403 27.4432 17.6568 26.3096C18.9069 25.4838 20.0881 24.703 21.4297 24.6005C23.657 24.4064 27.043 26.0009 27.4147 20.2196C27.4147 20.2186 27.4147 20.2186 27.4147 20.2186C27.5133 18.676 27.5568 17.0475 26.9303 15.6028C25.9217 13.2652 23.5564 12.2585 21.6776 12.0953C20.9993 12.0358 19.8119 12.0458 18.5568 12.0676C20.3837 11.1933 22.5563 11.0886 24.3406 11.0092C33.4557 10.5757 42.9018 10.2714 52.4191 10.106C60.1356 9.97138 61.5757 12.4603 61.6703 18.7817L61.6887 19.9407L60.3104 21.4371C60.2109 21.5451 60.2109 21.7192 60.3104 21.8262C60.409 21.9332 60.5694 21.9342 60.67 21.8262L61.129 21.3278L61.7201 21.9695L61.7556 24.3027L61.0761 23.5649L61.5017 23.1029C61.6011 22.9949 61.6011 22.8207 61.5017 22.7125C61.4022 22.6043 61.2418 22.6045 61.1421 22.7125L60.6993 23.1932C60.6028 23.1337 60.483 23.1303 60.4007 23.2208C60.3184 23.3102 60.3205 23.4403 60.3753 23.545L59.6694 24.3114C59.57 24.4194 59.57 24.5935 59.6694 24.7018C59.768 24.8088 59.9284 24.8098 60.029 24.7018L60.7177 23.9541L61.7262 25.0491C61.7375 25.0613 61.7547 25.0578 61.768 25.0678L61.7792 25.7879C61.7244 25.7946 61.6685 25.811 61.6268 25.8563L61.0378 26.4957L60.4873 25.8981C60.3879 25.7901 60.2272 25.7901 60.1278 25.8981C60.0283 26.0061 60.0283 26.1802 60.1278 26.2885L60.6782 26.8861L59.8525 27.7826C59.7531 27.8906 59.7531 28.065 59.8525 28.173C59.9499 28.2788 60.1115 28.2822 60.2121 28.173L61.0378 27.2765L61.6806 27.9745C61.7173 28.0143 61.767 28.024 61.8138 28.0352L61.8647 31.3531C61.8759 32.0842 61.878 32.9023 61.7936 33.694C61.7602 33.6808 61.5651 33.6124 61.5305 33.6002C61.6625 33.4778 61.6433 33.3046 61.5489 33.2021L59.8894 31.4004L60.5811 30.6495L61.0472 31.1556C61.1457 31.2626 61.3062 31.2636 61.4068 31.1556C61.5062 31.0476 61.5062 30.8732 61.4068 30.7652L60.9406 30.2591L61.4464 29.71C61.5459 29.602 61.5459 29.4275 61.4464 29.3196C61.347 29.2116 61.1865 29.2116 61.0868 29.3196L60.5811 29.8687L59.3878 28.5731L59.4366 28.5201C59.536 28.4121 59.536 28.2377 59.4366 28.1297C59.3371 28.0217 59.1767 28.0217 59.077 28.1297L59.0282 28.1827L58.9338 28.0802C58.8343 27.9722 58.6739 27.9722 58.5742 28.0802C58.4747 28.1882 58.4747 28.3624 58.5742 28.4694L58.6686 28.5719L57.977 29.3228L57.3768 28.6711L58.0196 27.9732C58.1191 27.8652 58.1191 27.6911 58.0196 27.5828C57.9201 27.4746 57.7595 27.4748 57.66 27.5828L55.0997 30.3626L54.4569 29.6647C54.3574 29.5567 54.197 29.5567 54.0973 29.6647C53.9978 29.7727 53.9978 29.9471 54.0973 30.0538L54.7401 30.7517L54.1855 31.3539L52.8552 29.9095L54.8742 27.7174C54.9737 27.6094 54.9737 27.4353 54.8742 27.327C54.7747 27.2188 54.6141 27.2191 54.5146 27.327L50.9427 31.2051L50.3455 30.5567C50.2461 30.4487 50.0854 30.4487 49.986 30.5567C49.8865 30.6647 49.8865 30.8388 49.986 30.9471L50.5832 31.5955L49.3594 32.9309C49.3482 32.8878 49.3443 32.8425 49.3126 32.8085L48.5642 31.9958L51.6688 28.6251C51.7682 28.5171 51.7682 28.3427 51.6688 28.2347C51.5693 28.1267 51.4087 28.1267 51.3092 28.2347L48.2046 31.6054L47.5159 30.8577C47.4165 30.7498 47.2558 30.7498 47.1564 30.8577C47.0569 30.9657 47.0569 31.1399 47.1564 31.2481L47.845 31.9958L47.7048 32.1481C47.6053 32.2561 47.6053 32.4303 47.7048 32.5385C47.8033 32.6455 47.9637 32.6465 48.0643 32.5385L48.2046 32.3862L48.9471 33.1924C48.489 33.1969 48.0169 33.2011 47.5446 33.2068C47.5487 33.1319 47.5283 33.0558 47.4756 32.9983L46.0974 31.5019L48.4159 28.9847C48.5154 28.8767 48.5154 28.7025 48.4159 28.5943C48.3164 28.486 48.1558 28.4863 48.0563 28.5943L45.7194 31.1314C45.623 31.072 45.5031 31.0685 45.4208 31.1591C45.3386 31.2484 45.3406 31.3785 45.3954 31.4833L44.4581 32.5009L43.4009 31.3541L44.057 30.6418C44.1565 30.5338 44.1565 30.3596 44.057 30.2514C43.9576 30.1434 43.7971 30.1434 43.6975 30.2514L43.0037 31.0045C42.9206 30.9836 42.8342 30.9914 42.7702 31.0608C42.7051 31.1314 42.6992 31.225 42.7184 31.3156L41.9457 32.1546L41.12 31.2593C41.0193 31.1501 40.8589 31.1523 40.7604 31.2593C40.6609 31.3673 40.6609 31.5417 40.7604 31.6497L41.5861 32.545L40.9433 33.2429C40.9371 33.2496 40.9391 33.2593 40.9341 33.266C40.8823 33.266 40.8305 33.267 40.7787 33.267L39.5641 31.9493L40.9788 30.4134C41.0782 30.3054 41.0782 30.1312 40.9788 30.023C40.8793 29.9147 40.7187 29.915 40.6192 30.023L39.2045 31.5589L39.2015 31.5557C39.1021 31.4464 38.9417 31.4477 38.842 31.5557C38.7425 31.6637 38.7425 31.8378 38.842 31.9461L38.845 31.9493L38.1989 32.6507L37.3732 31.7542C37.2737 31.6462 37.1131 31.6462 37.0136 31.7542C36.9142 31.8622 36.9142 32.0366 37.0136 32.1446L37.8393 33.0411L37.6088 33.2914C30.4345 33.3432 22.92 33.3862 16.9037 33.4203C4.19245 33.4875 3.61448 33.2946 2.1095 34.1745C1.85191 31.2354 4.55844 29.393 6.47593 28.0498ZM38.7842 33.2787L38.5617 33.0371L39.2077 32.3357L40.0681 33.2685C39.6416 33.2732 39.2148 33.2765 38.7842 33.2787ZM42.8761 33.2469C42.8681 33.1929 42.8568 33.1376 42.8181 33.0958L42.3062 32.5412L43.0425 31.7418L44.0997 32.8886L43.7756 33.2404C43.4795 33.2424 43.1768 33.2446 42.8761 33.2469ZM42.2434 33.2523C42.0442 33.2533 41.8473 33.2556 41.6473 33.2568L41.948 32.9304L42.2434 33.2523ZM44.822 32.8928L44.8179 32.8883L45.7371 31.8903L46.9538 33.2113C46.2621 33.218 45.5574 33.2245 44.8413 33.2299C44.9054 33.1232 44.9084 32.9854 44.822 32.8928ZM19.8901 46.1754C19.8892 46.1754 19.8892 46.1754 19.8892 46.1763C18.9143 47.4157 17.4517 48.2746 15.8775 48.5349C7.49071 49.8757 6.97667 36.8522 15.0568 36.3339C18.1504 36.1366 20.857 38.4598 21.2115 41.5374L21.2328 41.7877C21.3554 43.3406 20.865 44.9392 19.8901 46.1754ZM45.0739 41.725C45.4213 38.1194 48.7697 36.4631 50.7947 36.3319C53.7297 36.1411 56.5724 38.2506 56.9544 41.5949C56.9553 41.6071 56.9594 41.6544 56.9636 41.6865C57.8005 50.1858 43.9711 51.4836 45.0739 41.725ZM63.7042 39.4063C62.7119 41.261 59.8672 41.0592 57.9103 41.0736C57.9052 41.0428 57.8931 41.0152 57.8869 40.9843C57.2604 37.4745 54.1952 35.0058 50.7331 35.2329C48.0245 35.4071 44.7065 37.5143 44.1256 41.1189L22.1885 41.1873C21.6543 37.5959 18.5029 34.9881 14.995 35.2342C12.26 35.4106 8.92464 37.5342 8.36912 41.2294C5.10387 41.2381 1.32184 41.741 1.02735 38.2312C0.841491 36.007 2.50803 34.6873 4.5809 34.6079C5.0805 34.588 10.0428 34.5604 16.9113 34.5218C22.8038 34.4887 30.1325 34.4469 37.1727 34.3962C37.1807 34.3972 37.1878 34.4071 37.1961 34.4071C37.2052 34.4071 37.2112 34.3972 37.2204 34.3962C58.2323 34.2451 62.777 33.0861 63.8821 37.4847C64.0079 37.9749 64.0769 38.7094 63.7042 39.4063Z" fill="black"/>
<path d="M47.9013 41.1749C47.4565 42.3712 47.6799 43.9383 48.4204 44.8193C50.48 47.2727 54.7192 45.3849 54.3161 41.9667C53.8882 38.3024 49.057 38.0819 47.9013 41.1749ZM50.7165 40.1991L50.9104 40.4096L50.3904 40.9741L49.8979 40.4394C50.158 40.2939 50.4321 40.1914 50.6952 40.1429C50.7055 40.1605 50.7023 40.1837 50.7165 40.1991ZM49.4705 40.7316C49.4785 40.7437 49.4755 40.7602 49.4856 40.7714L50.031 41.3635L49.968 41.432C49.8685 41.54 49.8685 41.7141 49.968 41.8224C50.0686 41.9316 50.229 41.9281 50.3276 41.8224L50.3906 41.7539L50.8008 42.1993L50.1051 42.9557L49.0091 41.7659C48.9574 41.7096 48.8893 41.6865 48.8212 41.6887C48.8313 41.6566 48.8313 41.6203 48.8425 41.5895C48.9677 41.2543 49.1952 40.9654 49.4705 40.7316ZM48.7057 42.2157L49.7457 43.3449L49.1343 44.0097C49.1334 44.0107 49.1343 44.0119 49.1334 44.0119C48.8001 43.5743 48.6406 42.8719 48.7057 42.2157ZM52.7985 43.8776C52.4176 44.3615 51.8459 44.6947 51.2305 44.795C50.6079 44.892 49.9813 44.7288 49.5101 44.3804L50.1041 43.7355L50.1855 43.8238C50.284 43.9308 50.4445 43.9318 50.5451 43.8238C50.6445 43.7158 50.6445 43.5414 50.5451 43.4334L50.4637 43.3451L51.1909 42.5546C51.2782 42.5845 51.3382 42.6196 51.4427 42.5061C51.5129 42.43 51.5149 42.3275 51.4874 42.2327L51.5818 42.1301C51.6813 42.0222 51.6813 41.848 51.5818 41.7398C51.4824 41.6318 51.3217 41.6318 51.2223 41.7398L51.1592 41.8082L50.749 41.3628L51.269 40.7982L52.3851 42.0112C52.4857 42.1204 52.6461 42.117 52.7447 42.0112C52.8441 41.9032 52.8441 41.7291 52.7447 41.6208L51.6286 40.4091C51.6937 40.3384 51.7159 40.323 51.7313 40.2041C52.6514 40.4852 53.2099 41.276 53.3075 42.104C53.3795 42.7186 53.1895 43.3802 52.7985 43.8776Z" fill="black"/>
<path d="M12.1618 41.1749C11.716 42.3702 11.9392 43.937 12.6808 44.8193C14.7384 47.2704 18.9776 45.3906 18.5765 41.9667C18.1498 38.3046 13.3134 38.0809 12.1618 41.1749ZM16.0811 40.2366C16.079 40.2376 16.077 40.2376 16.076 40.2389L15.5084 40.8552L15.155 40.4715C15.2311 40.3645 15.2331 40.2145 15.1438 40.1165C15.16 40.1155 15.1763 40.111 15.1926 40.1098C15.4939 40.0889 15.7967 40.1361 16.0811 40.2366ZM14.1228 43.2182L13.0106 42.0107C13.0695 41.681 13.0746 41.5618 13.2888 41.2312L13.56 41.5255C13.5428 41.6138 13.5508 41.7052 13.6138 41.7748C13.7041 41.8729 13.76 41.8532 13.8434 41.8333L14.6215 42.678L14.1228 43.2182ZM13.3927 44.0109C13.15 43.69 13.0088 43.2324 12.9721 42.7484L13.7644 43.6086L13.3927 44.0109ZM13.6324 40.8243C13.8386 40.6303 14.0751 40.4703 14.3249 40.3514L14.4448 40.4815L13.881 41.0946L13.6324 40.8243ZM13.7706 44.3804L14.1239 43.9967C14.2275 44.106 14.3838 44.0983 14.4794 43.9958C14.5779 43.8888 14.5768 43.7178 14.4803 43.6098L15.1445 42.8888C15.2439 42.7808 15.2439 42.6064 15.1445 42.4984C15.1302 42.483 15.1089 42.4862 15.0917 42.4752C15.0796 42.4377 15.0775 42.3959 15.05 42.365L14.2397 41.4852L14.8034 40.8721L15.1477 41.2458L15.0198 41.3847C14.9203 41.4927 14.9203 41.6668 15.0198 41.7738C15.1183 41.8808 15.2787 41.8818 15.3794 41.7738L15.5072 41.635L15.8008 41.9537C15.9014 42.063 16.0618 42.0595 16.1604 41.9537C16.2598 41.8457 16.2598 41.6713 16.1604 41.5633L15.8668 41.2446L16.4356 40.6283C16.4833 40.5765 16.5046 40.5091 16.5067 40.4409C16.5951 40.4949 16.6845 40.5489 16.7636 40.6151C19.08 42.5377 16.1521 46.14 13.7706 44.3804Z" fill="black"/>
<path d="M43.8191 21.0701L45.8849 18.8273L48.4177 21.5784C48.5183 21.6877 48.6787 21.6842 48.7761 21.5784C48.8756 21.4704 48.8756 21.2963 48.7761 21.188L46.2433 18.4369L47.6449 16.9164L48.6819 18.0423L47.9518 18.835C47.8523 18.943 47.8523 19.1171 47.9518 19.2254C48.0503 19.3324 48.2107 19.3334 48.3102 19.2254L49.0403 18.4327L50.2591 19.7559C50.3597 19.8651 50.5201 19.8616 50.6187 19.7559C50.7181 19.6479 50.7181 19.4737 50.6187 19.3655L49.3999 18.0423L51.6068 15.6462C51.7063 15.5382 51.7063 15.364 51.6068 15.257C51.5074 15.149 51.3467 15.149 51.2473 15.257L49.0403 17.6531L48.0033 16.5272L49.5855 14.8094C49.685 14.7014 49.685 14.5272 49.5855 14.419C49.4861 14.311 49.3257 14.311 49.226 14.419L47.6438 16.1358L47.2161 15.6715C47.1167 15.5636 46.9562 15.5636 46.8566 15.6715C46.7569 15.7795 46.7571 15.9537 46.8566 16.0619L47.2842 16.5262L45.8837 18.0467L45.2743 17.3851C45.1758 17.2781 45.0154 17.2759 44.9148 17.3851C44.8153 17.4931 44.8153 17.6673 44.9148 17.7755L45.5241 18.4371L43.4584 20.68C43.3589 20.7879 43.3589 20.9621 43.4584 21.0704C43.559 21.1771 43.7196 21.1781 43.8191 21.0701Z" fill="black"/>
</svg>
