<svg width="271" height="271" viewBox="0 0 271 271" fill="none" xmlns="http://www.w3.org/2000/svg">
<path d="M95.2734 237.125C92.0301 237.125 90.9048 236.43 89.0455 235.002C84.5538 231.552 83.7108 225.113 87.1611 220.622L116.617 183.472C117.79 181.944 119.37 180.778 121.176 180.107L161.158 165.247C166.193 163.375 168.943 157.874 167.418 152.723L155.247 111.616C153.638 106.185 156.737 100.479 162.168 98.8712C167.597 97.2637 173.305 100.362 174.912 105.793L187.084 146.9C191.659 162.354 183.41 178.858 168.303 184.472L131.085 198.305L103.425 233.118C101.984 234.994 98.5168 237.125 95.2734 237.125ZM96.1673 34.9946C96.1673 18.0337 109.964 4.23438 126.922 4.23438C143.892 4.23438 157.698 18.0337 157.698 34.9946C157.698 51.9617 143.892 65.7651 126.922 65.7651C109.964 65.7651 96.1673 51.9617 96.1673 34.9946ZM116.678 34.9946C116.678 40.6519 121.273 45.2549 126.922 45.2549C132.583 45.2549 137.188 40.6519 137.188 34.9946C137.188 29.343 132.583 24.7446 126.922 24.7446C121.273 24.7446 116.678 29.343 116.678 34.9946ZM29.8756 73.2063L70.5669 101.017C72.7984 102.542 75.5427 103.124 78.1993 102.638L110.941 96.6479L121.835 138.064H83.3484C80.2206 138.064 77.2645 139.491 75.3191 141.94L45.5793 179.371C42.0561 183.805 42.7945 190.256 47.2293 193.78C49.1157 195.279 51.3662 196.006 53.6024 196.006C56.622 196.006 59.6139 194.678 61.6383 192.13L88.298 158.574H135.137C138.316 158.574 141.317 157.099 143.258 154.58C145.2 152.062 145.864 148.786 145.055 145.71L131.176 92.9453L205.733 79.3034L223.345 115.386C225.122 119.028 228.771 121.145 232.568 121.145C234.078 121.145 235.611 120.81 237.059 120.103C242.149 117.619 244.261 111.479 241.777 106.389L220.754 63.3177C218.736 59.1854 214.217 56.9001 209.692 57.7282L78.6577 81.7031L41.449 56.2725C36.7737 53.077 30.3919 54.2758 27.1959 58.9527C23.9999 63.629 25.1998 70.0102 29.8756 73.2063Z" fill="#FFF8E6"/>
<path d="M38.1094 256.18C38.1094 250.333 42.8489 245.594 48.6953 245.594H230.773C236.62 245.594 241.359 250.333 241.359 256.18C241.359 262.026 236.62 266.766 230.773 266.766H48.6953C42.8489 266.766 38.1094 262.026 38.1094 256.18Z" fill="#FFF8E6"/>
</svg>
