<svg width="28" height="12" viewBox="0 0 28 12" fill="none" xmlns="http://www.w3.org/2000/svg">
<path d="M1.8344 7.03664C2.06318 7.03664 2.24812 6.8517 2.24812 6.62292C2.24812 5.60766 2.97336 4.75002 3.97249 4.58288C4.19755 4.54523 4.3498 4.33216 4.31215 4.10669C4.27451 3.88163 4.06227 3.72772 3.83597 3.76703C2.43636 4.00078 1.42068 5.2018 1.42068 6.62292C1.42068 6.8517 1.60561 7.03664 1.8344 7.03664Z" fill="#434B52"/>
<path d="M1.82847 7.86358C2.05726 7.86358 2.24219 7.67864 2.24219 7.44986V6.62325C2.24219 6.39447 2.05726 6.20953 1.82847 6.20953C1.59968 6.20953 1.41475 6.39447 1.41475 6.62325V7.44986C1.41475 7.67864 1.59968 7.86358 1.82847 7.86358Z" fill="#434B52"/>
<path d="M1.41168 9.9306C1.64047 9.9306 1.8254 9.74567 1.8254 9.51688V7.86201H2.23911C2.4679 7.86201 2.65283 7.67708 2.65283 7.44829C2.65283 7.21951 2.4679 7.03458 2.23911 7.03458H1.41168C1.18289 7.03458 0.997962 7.21951 0.997962 7.44829V9.51688C0.997962 9.74567 1.18289 9.9306 1.41168 9.9306Z" fill="#434B52"/>
<path d="M9.2054 9.93046H19.2782C19.507 9.93046 19.6919 9.74553 19.6919 9.51674C19.6919 9.28796 19.507 9.10303 19.2782 9.10303H9.2054C8.97661 9.10303 8.79168 9.28796 8.79168 9.51674C8.79168 9.74553 8.97661 9.93046 9.2054 9.93046Z" fill="#434B52"/>
<path d="M25.4144 9.93155C25.5004 9.93155 25.5877 9.90466 25.6622 9.84881L27.3187 8.60765C27.5016 8.47071 27.5388 8.21173 27.4015 8.02886C27.2649 7.84683 27.006 7.80877 26.8227 7.94612L25.1662 9.18727C24.9833 9.32421 24.9461 9.5832 25.0834 9.76606C25.1645 9.87404 25.2882 9.93155 25.4144 9.93155Z" fill="#434B52"/>
<path d="M27.0707 8.69052C27.2994 8.69052 27.4844 8.50559 27.4844 8.2768V3.31054C27.4844 3.08175 27.2994 2.89682 27.0707 2.89682C26.8419 2.89682 26.6569 3.08175 26.6569 3.31054V8.2768C26.6569 8.50559 26.8419 8.69052 27.0707 8.69052Z" fill="#434B52"/>
<path d="M25.0012 3.72426H27.0707C27.2994 3.72426 27.4844 3.53932 27.4844 3.31054C27.4844 3.08175 27.2994 2.89682 27.0707 2.89682H25.0012C24.7725 2.89682 24.5875 3.08175 24.5875 3.31054C24.5875 3.53932 24.7725 3.72426 25.0012 3.72426Z" fill="#434B52"/>
<path d="M8.44919 4.13842C8.54642 4.13842 8.64488 4.10408 8.72349 4.03416C8.75948 4.00189 12.3899 0.827436 16.726 0.827436C21.0862 0.827436 24.7071 3.60886 24.7435 3.63699C24.9243 3.77683 25.1832 3.74497 25.3239 3.56459C25.4642 3.38421 25.4319 3.12481 25.2515 2.98415C25.0951 2.86251 21.3675 0 16.726 0C12.0692 0 8.33087 3.27623 8.17407 3.41565C8.00321 3.56707 7.9879 3.82854 8.13973 3.99941C8.22124 4.09125 8.33501 4.13842 8.44919 4.13842Z" fill="#434B52"/>
<path d="M3.89914 4.58946C3.91238 4.58946 3.92603 4.58863 3.9401 4.58739L8.49058 4.13892C8.71813 4.11658 8.88444 3.91386 8.86169 3.68673C8.83893 3.4596 8.64076 3.29535 8.40949 3.31563L3.85901 3.76409C3.63147 3.78644 3.46515 3.98916 3.48791 4.21629C3.50901 4.42977 3.68856 4.58946 3.89914 4.58946Z" fill="#434B52"/>
<path d="M8.45115 4.13957H17.5521C17.7809 4.13957 17.9658 3.95464 17.9658 3.72585C17.9658 3.49707 17.7809 3.31213 17.5521 3.31213H8.45115C8.22236 3.31213 8.03743 3.49707 8.03743 3.72585C8.03743 3.95464 8.22236 4.13957 8.45115 4.13957Z" fill="#434B52"/>
<path d="M17.5496 4.13915C17.6071 4.13915 17.6655 4.12715 17.7213 4.1015L22.273 2.02216C22.4807 1.92742 22.5721 1.68167 22.477 1.47398C22.3818 1.2663 22.1377 1.17445 21.9288 1.26961L17.3771 3.34936C17.1694 3.44411 17.078 3.68944 17.1731 3.89754C17.2426 4.04937 17.3924 4.13915 17.5496 4.13915Z" fill="#434B52"/>
<path d="M17.5521 4.13801C17.7809 4.13801 17.9658 3.95308 17.9658 3.72429V0.448477C17.9658 0.220105 17.7809 0.0347595 17.5521 0.0347595C17.3233 0.0347595 17.1384 0.220105 17.1384 0.448477V3.72429C17.1384 3.95308 17.3233 4.13801 17.5521 4.13801Z" fill="#434B52"/>
<path d="M21.8971 12.0001C23.6083 12.0001 25 10.6084 25 8.89725C25 7.18612 23.6083 5.79437 21.8971 5.79437C20.186 5.79437 18.7942 7.18612 18.7942 8.89725C18.7942 10.6084 20.186 12.0001 21.8971 12.0001ZM21.8971 6.62181C23.1515 6.62181 24.1726 7.64286 24.1726 8.89725C24.1726 10.1516 23.1515 11.1727 21.8971 11.1727C20.6427 11.1727 19.6217 10.1516 19.6217 8.89725C19.6217 7.64286 20.6427 6.62181 21.8971 6.62181Z" fill="#434B52"/>
<path d="M21.9001 10.3458C22.6986 10.3458 23.3481 9.69625 23.3481 8.89778C23.3481 8.0993 22.6986 7.44977 21.9001 7.44977C21.1017 7.44977 20.4521 8.0993 20.4521 8.89778C20.4521 9.69625 21.1017 10.3458 21.9001 10.3458ZM21.9001 8.2772C22.2423 8.2772 22.5207 8.55563 22.5207 8.89778C22.5207 9.23992 22.2423 9.51836 21.9001 9.51836C21.558 9.51836 21.2796 9.23992 21.2796 8.89778C21.2796 8.55563 21.558 8.2772 21.9001 8.2772Z" fill="#434B52"/>
<path d="M6.58413 12.0006C8.29527 12.0006 9.68701 10.6088 9.68701 8.89768C9.68701 7.18655 8.29527 5.7948 6.58413 5.7948C4.87299 5.7948 3.48125 7.18655 3.48125 8.89768C3.48125 10.6088 4.87299 12.0006 6.58413 12.0006ZM6.58413 6.62223C7.83852 6.62223 8.85958 7.64329 8.85958 8.89768C8.85958 10.1521 7.83852 11.1731 6.58413 11.1731C5.32974 11.1731 4.30868 10.1521 4.30868 8.89768C4.30868 7.64329 5.32974 6.62223 6.58413 6.62223Z" fill="#434B52"/>
<path d="M6.59105 10.3452C7.38953 10.3452 8.03906 9.69564 8.03906 8.89717C8.03906 8.09869 7.38953 7.44916 6.59105 7.44916C5.79258 7.44916 5.14304 8.09869 5.14304 8.89717C5.14304 9.69564 5.79258 10.3452 6.59105 10.3452ZM6.59105 8.27659C6.9332 8.27659 7.21163 8.55502 7.21163 8.89717C7.21163 9.23931 6.9332 9.51775 6.59105 9.51775C6.24891 9.51775 5.97047 9.23931 5.97047 8.89717C5.97047 8.55502 6.24891 8.27659 6.59105 8.27659Z" fill="#434B52"/>
<path d="M24.5113 9.9311H25.4095C25.6383 9.9311 25.8232 9.74617 25.8232 9.51739C25.8232 9.2886 25.6383 9.10367 25.4095 9.10367H24.5113C24.2826 9.10367 24.0976 9.2886 24.0976 9.51739C24.0976 9.74617 24.2826 9.9311 24.5113 9.9311Z" fill="#434B52"/>
<path d="M1.41984 9.93095H3.97495C4.20374 9.93095 4.38867 9.74602 4.38867 9.51723C4.38867 9.28845 4.20374 9.10352 3.97495 9.10352H1.41984C1.19105 9.10352 1.00612 9.28845 1.00612 9.51723C1.00612 9.74602 1.19105 9.93095 1.41984 9.93095Z" fill="#434B52"/>
</svg>
