<svg width="58" height="58" viewBox="0 0 58 58" fill="none" xmlns="http://www.w3.org/2000/svg">
<path d="M3.51234 44.1644C3.66261 49.4019 5.49928 50.5408 9.62606 50.4881L46.2214 50.0224C53.4767 49.9327 55.1947 47.6865 55.1947 42.1484V42.1467L55.0893 19.0161C55.0691 15.6732 54.2588 13.7768 50.77 13.5878C50.7955 10.9576 49.8807 10.5463 48.4465 10.5832C45.8725 10.6781 44.8136 10.5929 43.9348 11.2854C43.3768 11.7318 42.9761 12.4885 42.9787 13.5861C39.5602 13.5984 39.4767 13.6001 37.9063 13.5966C37.8879 12.2503 37.9099 9.36524 35.7718 8.10857C33.8085 6.9556 24.7649 7.65248 23.1058 8.67539C21.5442 9.63766 20.9457 11.8443 21.7076 13.4973C18.399 13.4718 21.2542 13.4938 16.8822 13.4604C16.8339 11.4603 16.4472 10.5358 14.5596 10.5841L12.4162 10.6632C10.3642 10.7353 9.17525 11.4093 9.08473 13.4279C6.89479 13.456 4.80152 14.1265 3.65909 15.9465C2.37519 17.9765 2.72494 18.4106 3.51234 44.1644ZM3.66964 20.445L5.40261 22.178L3.76982 23.8108C3.754 23.3019 3.68106 20.9547 3.66964 20.445ZM9.61464 49.6084C5.99579 49.6515 4.52822 48.923 4.39112 44.138L3.83661 25.9919C7.64 31.4061 14.6888 32.1838 25.6437 32.4782C25.7553 33.5873 26.0295 34.59 26.9065 35.344C26.8907 40.0051 26.925 44.7241 27.0067 49.387L9.61464 49.6084ZM31.6766 14.4455C31.4508 18.7208 31.282 23.055 31.1678 27.3408C30.2741 27.173 28.846 27.1396 27.8653 27.4234C27.9259 23.2176 28.0332 18.8509 28.1843 14.4227C29.3847 14.4306 30.5535 14.4385 31.6766 14.4455ZM33.0554 31.6794C33.0554 34.567 32.1597 34.4865 31.1678 34.8784C30.1759 35.2703 27.4326 35.2703 26.9065 34.3028C26.3805 33.3353 26.257 32.527 26.6489 30.1757C27.0408 27.8243 31.0123 28.0325 31.8928 28.4979C31.8928 28.4979 33.0554 28.7918 33.0554 31.6794ZM27.7862 35.8835C28.8258 36.2649 29.9401 36.0408 31.014 35.7737C30.9648 40.0762 30.9762 44.5071 31.0509 48.9696C31.0017 49.0908 31.021 49.1998 31.0325 49.336L27.8855 49.3764C27.8073 44.8955 27.7748 40.3654 27.7862 35.8835ZM46.2074 49.1436L34.2075 49.2965L35.0037 48.5003L35.3702 48.8667C35.4563 48.9529 35.5951 48.9529 35.6812 48.8667C35.7674 48.7806 35.7674 48.6418 35.6812 48.5557L35.3148 48.1892L36.6435 46.8605L38.0592 48.2762C38.1454 48.3623 38.2842 48.3623 38.3703 48.2762C38.4565 48.1901 38.4565 48.0512 38.3703 47.9651L36.9537 46.5494L39.5646 43.9394C39.6507 43.8533 39.6507 43.7144 39.5646 43.6283C39.4785 43.5422 39.3396 43.5422 39.2535 43.6283L36.6426 46.2392L36.4994 46.0959C36.4133 46.0098 36.2744 46.0098 36.1883 46.0959C36.1022 46.182 36.1022 46.3209 36.1883 46.407L36.3315 46.5503L35.0028 47.879L34.1144 46.9914C34.0282 46.9053 33.8894 46.9053 33.8033 46.9914C33.7172 47.0775 33.7172 47.2164 33.8033 47.3025L34.6917 48.1901L33.878 49.0038C33.7962 49.0856 33.7971 49.2147 33.8727 49.3009L31.935 49.3255C31.8524 44.6486 31.8383 40.0024 31.8928 35.5013C33.1407 35.0074 33.8657 34.1462 33.943 32.4633C36.9616 32.3693 40.0102 32.1759 43.0112 31.8745C46.3743 31.5432 51.7631 30.9166 54.243 26.6765L54.2773 34.2692L53.6718 34.8747L53.3422 34.5451C53.2561 34.459 53.1173 34.459 53.032 34.5451C52.9459 34.6313 52.9459 34.7701 53.032 34.8562L53.3607 35.1858L52.6585 35.8879C52.5724 35.9741 52.5724 36.1129 52.6585 36.199C52.7447 36.2851 52.8835 36.2851 52.9696 36.199L53.6718 35.4969L54.2861 36.1111L54.3133 42.1528C54.3151 47.0011 53.1753 49.0566 46.2074 49.1436ZM54.2852 35.4846L53.9846 35.184L54.2825 34.8861L54.2852 35.4846ZM44.4814 11.9726C45.173 11.4278 46.5132 11.5323 48.4729 11.4603C49.378 11.433 49.9071 11.4365 49.8921 13.5632C49.2075 13.5606 51.655 13.5535 43.8549 13.5817C43.8531 12.9674 44.013 12.347 44.4814 11.9726ZM43.4945 14.4622C43.5183 14.4525 50.2638 14.4473 50.2981 14.4481C53.5224 14.5193 54.1894 15.7944 54.2105 19.0196L54.236 24.6992C54.1569 24.7537 54.091 24.8293 54.0611 24.9286C52.7086 29.4499 47.3981 30.5563 42.926 30.9975C39.9478 31.2971 36.9247 31.4887 33.9298 31.5819C33.8305 29.7276 33.66 28.2934 32.0387 27.6115C32.152 23.2404 32.3252 18.8157 32.5563 14.4534C32.5563 14.4534 32.5554 14.4517 32.5563 14.4499C32.8577 14.4525 43.1949 14.5018 43.4945 14.4622ZM22.6189 13.3813C21.8351 12.0983 22.2876 10.2124 23.568 9.42324C24.982 8.5506 33.7189 7.92139 35.3271 8.86609C36.9739 9.83363 37.0073 12.1651 37.0275 13.594C33.3674 13.5817 27.875 13.543 22.6638 13.5035C22.6532 13.4621 22.6427 13.42 22.6189 13.3813ZM20.9624 14.3691L20.5441 14.7874L20.1197 14.3629C20.4 14.3647 20.6795 14.3673 20.9624 14.3691ZM12.4487 11.5394L14.5868 11.4611C15.5939 11.4365 15.9489 11.4937 16.0043 13.4534C13.4541 13.4384 11.3019 13.4217 9.9644 13.4217C10.04 11.7336 11.1885 11.5842 12.4487 11.5394ZM5.21455 15.5062L6.22252 16.5142L5.0054 17.7313L4.15473 16.8806C4.22767 16.7207 4.30852 16.5634 4.40343 16.4131C4.62488 16.0598 4.90346 15.7611 5.21455 15.5062ZM3.98337 17.3306L4.69431 18.0415L3.99215 18.7437C3.90603 18.8298 3.90603 18.9686 3.99215 19.0548C4.07828 19.1409 4.21712 19.1409 4.30237 19.0548L5.00452 18.3526L6.36225 19.7103C6.44837 19.7964 6.58721 19.7964 6.67246 19.7103C6.75858 19.6242 6.75858 19.4854 6.67246 19.3992L5.31561 18.0415L6.53273 16.8244L7.79731 18.089C7.88343 18.1751 8.02228 18.1751 8.1084 18.089C8.19452 18.0028 8.19452 17.864 8.1084 17.7779L6.84382 16.5133L7.32452 16.0335C7.41064 15.9474 7.41064 15.8085 7.32452 15.7224C7.2384 15.6363 7.09955 15.6363 7.01431 15.7224L6.53361 16.2031L5.57661 15.247C6.50109 14.6345 7.63561 14.3585 8.6014 14.3207C8.58118 14.3313 8.55658 14.3295 8.539 14.3462C8.45288 14.4323 8.45288 14.5712 8.539 14.6573L9.65067 15.769L8.1664 17.2532C8.08028 17.3394 8.08028 17.4782 8.1664 17.5643C8.25252 17.6504 8.39137 17.6504 8.47749 17.5643L9.96176 16.0801L10.7764 16.8947C10.8625 16.9808 11.0014 16.9808 11.0866 16.8947C11.1727 16.8086 11.1727 16.6697 11.0866 16.5836L10.2729 15.769L11.0506 14.9912C11.1367 14.9051 11.1367 14.7663 11.0506 14.6801C10.9645 14.594 10.8256 14.594 10.7395 14.6801L9.96176 15.4579L8.85009 14.3462C8.82812 14.3242 8.79824 14.3242 8.771 14.3137C9.55137 14.2908 14.8777 14.3251 15.6589 14.3304C15.6466 14.3383 15.6299 14.3357 15.6194 14.3471C15.5333 14.4332 15.5333 14.5721 15.6194 14.6582L16.8058 15.8445L16.6634 15.9869C16.5773 16.073 16.5773 16.2119 16.6634 16.298C16.7495 16.3841 16.8884 16.3841 16.9745 16.298L17.1713 16.1011C17.2232 16.0976 17.275 16.0818 17.3146 16.0423C17.3541 16.0027 17.3708 15.9509 17.3735 15.899L18.261 15.0115C18.3472 14.9253 18.3472 14.7865 18.261 14.7004C18.1749 14.6142 18.0361 14.6142 17.9499 14.7004L17.1169 15.5335L15.9305 14.3471C15.9199 14.3374 15.905 14.3401 15.8936 14.3321C16.6502 14.3365 18.7786 14.3532 19.4949 14.3585V14.3594L20.2339 15.0984L19.7181 15.6134C19.6319 15.6995 19.6319 15.8384 19.7181 15.9245C19.8042 16.0106 19.943 16.0106 20.0292 15.9245L20.5441 15.4087L20.9853 15.8498C21.0714 15.9359 21.2102 15.9359 21.2964 15.8498C21.3825 15.7637 21.3825 15.6248 21.2964 15.5387L20.8552 15.0976L21.3052 14.6476C21.3816 14.5712 21.379 14.4569 21.3192 14.3717C23.2868 14.3866 25.3186 14.4025 27.3064 14.4165C27.1491 18.9976 27.0392 23.5155 26.9795 27.8541C25.7659 28.7276 25.5673 30.5036 25.5796 31.5968C14.6519 31.2971 7.07494 30.5537 3.83573 24.3108C3.86912 24.3002 3.90428 24.2976 3.93064 24.2712L5.74446 22.4574C5.8174 22.475 5.86573 22.4961 5.94834 22.4135C6.00458 22.3572 6.00985 22.2817 5.99228 22.2096L6.85349 21.3484C6.93961 21.2623 6.93961 21.1234 6.85349 21.0373C6.76737 20.9512 6.62852 20.9512 6.54328 21.0373L5.71282 21.8678L3.85594 20.0109C3.80234 19.9573 3.73203 19.9494 3.66349 19.9617C3.65822 19.0714 3.71182 18.1575 3.98337 17.3306Z" fill="black"/>
<path d="M53.6846 43.1485C53.6459 43.1098 53.594 43.0931 53.5431 43.0896L52.1959 41.7424L52.5518 41.3865C52.6379 41.3004 52.6379 41.1616 52.5518 41.0754C52.4657 40.9893 52.3268 40.9893 52.2407 41.0754L51.8848 41.4313L50.81 40.3566C50.7239 40.2705 50.5851 40.2705 50.4998 40.3566C50.4137 40.4427 50.4137 40.5816 50.4998 40.6668L51.5746 41.7416L49.3882 43.928L47.7984 42.3383L49.3952 40.7415C49.4813 40.6554 49.4813 40.5165 49.3952 40.4304C49.3091 40.3443 49.1702 40.3443 49.0841 40.4304L45.7359 43.7786L45.2948 43.3374C45.2086 43.2513 45.0698 43.2513 44.9837 43.3374C44.8976 43.4236 44.8976 43.5624 44.9837 43.6485L45.4248 44.0897L43.9098 45.6047L42.9915 44.6864L44.6515 43.0272C44.7376 42.9411 44.7376 42.8023 44.6515 42.7161C44.5654 42.63 44.4265 42.63 44.3404 42.7161L42.6804 44.3753L41.7181 43.4121C41.632 43.326 41.4931 43.326 41.407 43.4121C41.3209 43.4983 41.3209 43.6371 41.407 43.7232L42.3693 44.6855L40.5924 46.4615L39.1828 45.0519C39.0967 44.9658 38.9578 44.9658 38.8717 45.0519C38.7856 45.1381 38.7856 45.2769 38.8717 45.363L40.2813 46.7726L38.797 48.2569C38.7109 48.343 38.7109 48.4819 38.797 48.568C38.8831 48.6541 39.022 48.6541 39.1081 48.568L40.5924 47.0837L41.5116 48.0029L41.4808 48.0337C41.3947 48.1198 41.3947 48.2586 41.4808 48.3448C41.567 48.4309 41.7058 48.4309 41.791 48.3448L41.8218 48.314L41.9273 48.4195C42.0134 48.5056 42.1522 48.5056 42.2383 48.4195C42.3245 48.3333 42.3245 48.1945 42.2383 48.1084L42.1329 48.0029L43.9089 46.2269L45.4986 47.8166L45.4301 47.8852C45.344 47.9713 45.344 48.1101 45.4301 48.1963C45.5162 48.2824 45.6551 48.2824 45.7412 48.1963L45.8097 48.1277L45.8809 48.1989C45.967 48.285 46.1059 48.285 46.192 48.1989C46.2781 48.1128 46.2781 47.9739 46.192 47.8878L46.1208 47.8166L47.6359 46.3016L49.781 48.4467C49.8671 48.5328 50.0059 48.5328 50.0921 48.4467C50.1782 48.3606 50.1782 48.2217 50.0921 48.1356L49.5499 47.5934L50.9902 46.1531L51.5939 46.7568C51.68 46.8429 51.8189 46.8429 51.905 46.7568C51.9911 46.6707 51.9911 46.5318 51.905 46.4466L51.3013 45.8429L53.5844 43.5598C53.6714 43.5273 53.7346 43.4965 53.7267 43.3576C53.7469 43.2838 53.7426 43.2056 53.6846 43.1485ZM47.4882 42.6493L49.0779 44.2391L47.6367 45.6803L46.047 44.0906L47.4882 42.6493ZM41.8236 47.6927L40.9043 46.7735L42.6813 44.9975L43.6005 45.9167L41.8236 47.6927ZM45.8115 47.5064L44.2218 45.9167L45.7368 44.4016L47.3265 45.9914L45.8115 47.5064ZM49.2396 47.2823L47.9478 45.9905L49.3882 44.5493L50.68 45.8411L49.2396 47.2823ZM49.6993 44.2391L51.8857 42.0526L53.1775 43.3445L50.9911 45.5309L49.6993 44.2391Z" fill="black"/>
<path d="M53.9786 37.7114C53.8925 37.6253 53.7536 37.6253 53.6675 37.7114L52.8907 38.4883L52.2263 37.8239C52.1402 37.7378 52.0014 37.7378 51.9152 37.8239C51.8291 37.91 51.8291 38.0489 51.9152 38.135L52.5796 38.7994L51.6173 39.7616C51.5312 39.8478 51.5312 39.9866 51.6173 40.0727C51.7034 40.1589 51.8423 40.1589 51.9284 40.0727L52.8916 39.1096L53.4065 39.6246C53.4926 39.7107 53.6315 39.7107 53.7176 39.6246C53.8037 39.5384 53.8037 39.3996 53.7176 39.3143L53.2018 38.7994L53.9786 38.0225C54.0647 37.9364 54.0647 37.7967 53.9786 37.7114Z" fill="black"/>
<path d="M12.2038 17.2656L13.6881 15.7813L14.3542 16.4474C14.4403 16.5335 14.5792 16.5335 14.6653 16.4474C14.7514 16.3613 14.7514 16.2225 14.6653 16.1363L13.9992 15.4702L14.4922 14.9772C14.5783 14.8911 14.5783 14.7523 14.4922 14.6661C14.4061 14.58 14.2672 14.58 14.1811 14.6661L13.6881 15.1591L13.0237 14.4948C12.9376 14.4086 12.7987 14.4086 12.7126 14.4948C12.6265 14.5809 12.6265 14.7197 12.7126 14.8059L13.377 15.4702L11.8927 16.9545C11.8066 17.0406 11.8066 17.1795 11.8927 17.2656C11.9788 17.3517 12.1186 17.3517 12.2038 17.2656Z" fill="black"/>
<path d="M38.3376 23.3046L38.7823 22.8599L39.6171 23.6948L38.7902 24.5217C38.7041 24.6078 38.7041 24.7467 38.7902 24.8328C38.8763 24.9189 39.0151 24.9189 39.1013 24.8328L39.9273 24.0059L41.9037 25.9823C41.9898 26.0684 42.1287 26.0684 42.2148 25.9823C42.3009 25.8962 42.3009 25.7573 42.2148 25.6712L40.2384 23.6948L41.728 22.2052L42.4828 22.9601C42.569 23.0462 42.7078 23.0462 42.7939 22.9601C42.8801 22.874 42.8801 22.7352 42.7939 22.649L42.0391 21.8941L43.4741 20.4591L44.28 21.2649C44.3661 21.3511 44.5049 21.3511 44.5911 21.2649C44.6772 21.1788 44.6772 21.04 44.5911 20.9538L42.6401 19.0021L43.765 17.8772C43.8511 17.7911 43.8511 17.6522 43.765 17.5661C43.6789 17.48 43.54 17.48 43.4539 17.5661L42.3291 18.691L41.7209 18.0828C41.6348 17.9967 41.496 17.9967 41.4098 18.0828C41.3237 18.169 41.3237 18.3078 41.4098 18.3939L42.018 19.0021L40.5829 20.4371L39.538 19.3922C39.4519 19.3061 39.3131 19.3061 39.2269 19.3922C39.1408 19.4784 39.1408 19.6172 39.2269 19.7033L40.2718 20.7482L38.0265 22.9935C37.9404 23.0796 37.9404 23.2185 38.0265 23.3037C38.1126 23.3907 38.2515 23.3907 38.3376 23.3046ZM42.3291 19.314L43.1639 20.1489L41.7288 21.5839L40.894 20.7491L42.3291 19.314ZM41.4178 21.895L39.9282 23.3846L39.0934 22.5497L40.5829 21.0602L41.4178 21.895Z" fill="black"/>
<path d="M13.7774 44.9214L13.7774 44.9214C13.7696 45.7658 14.4479 46.4441 15.2923 46.4362C16.1275 46.4284 16.8125 45.7475 16.8168 44.9105C16.8168 44.9101 16.8168 44.9096 16.8168 44.9092L16.8466 41.7169L19.6236 41.6911C20.4607 41.6833 21.1403 41.0036 21.1481 40.1665C21.156 39.3222 20.4776 38.6438 19.6333 38.6517L16.8749 38.6774L16.9003 35.9549C16.9082 35.1106 16.2298 34.4322 15.3855 34.4401C14.5484 34.4479 13.8687 35.1275 13.8609 35.9646L14.3598 35.9693L13.8609 35.9646L13.8354 38.7058L11.0699 38.7316C10.2328 38.7394 9.55317 39.419 9.54537 40.2561C9.5375 41.1004 10.2158 41.7788 11.0602 41.7709L13.8071 41.7453L13.7774 44.9214Z" stroke="black"/>
</svg>
