<svg width="26" height="14" viewBox="0 0 26 14" fill="none" xmlns="http://www.w3.org/2000/svg">
<path d="M24.6467 5.38542L22.5582 4.40874L20.7147 1.39686C20.4523 0.967085 20.0869 0.613158 19.6533 0.368687C19.2197 0.124216 18.7322 -0.00268235 18.2373 4.2989e-05H10.384C9.93402 -0.000622566 9.48993 0.104852 9.08617 0.308289C8.6824 0.511727 8.32981 0.807661 8.05573 1.17315L5.67418 4.36509L1.70492 5.47818C1.21464 5.6176 0.782476 5.91771 0.474567 6.33257C0.166658 6.74743 -3.4575e-05 7.25419 5.37919e-09 7.77528L5.37919e-09 9.33033C5.37919e-09 10.6453 1.02295 11.7311 2.30697 11.7311H2.64795C2.81253 12.3807 3.18304 12.9559 3.70134 13.3666C4.21963 13.7772 4.85638 14 5.51168 14C6.16697 14 6.80372 13.7772 7.32202 13.3666C7.84031 12.9559 8.21082 12.3807 8.3754 11.7311H17.3262C17.4908 12.3807 17.8613 12.9559 18.3796 13.3666C18.8979 13.7772 19.5346 14 20.1899 14C20.8452 14 21.482 13.7772 22.0003 13.3666C22.5186 12.9559 22.8891 12.3807 23.0537 11.7311H23.693C24.977 11.7311 26 10.6453 26 9.33033V7.55703C26.002 7.10017 25.8754 6.6524 25.6354 6.26728C25.3954 5.88216 25.0521 5.576 24.6467 5.38542ZM5.50901 12.8988C5.13493 12.8988 4.76925 12.7852 4.45821 12.5723C4.14717 12.3595 3.90475 12.057 3.76159 11.703C3.61844 11.3491 3.58098 10.9596 3.65396 10.5839C3.72694 10.2081 3.90708 9.863 4.1716 9.59211C4.43611 9.32121 4.77313 9.13673 5.14002 9.06199C5.50691 8.98726 5.88721 9.02561 6.23282 9.17222C6.57842 9.31883 6.87382 9.56709 7.08165 9.88563C7.28948 10.2042 7.4004 10.5787 7.4004 10.9618C7.40026 11.4754 7.20095 11.968 6.84627 12.3313C6.4916 12.6945 6.0106 12.8986 5.50901 12.8988ZM20.1873 12.8988C19.8132 12.8988 19.4475 12.7852 19.1365 12.5723C18.8254 12.3595 18.583 12.057 18.4399 11.703C18.2967 11.3491 18.2592 10.9596 18.3322 10.5839C18.4052 10.2081 18.5853 9.863 18.8499 9.59211C19.1144 9.32121 19.4514 9.13673 19.8183 9.06199C20.1852 8.98726 20.5655 9.02561 20.9111 9.17222C21.2567 9.31883 21.5521 9.56709 21.7599 9.88563C21.9677 10.2042 22.0787 10.5787 22.0787 10.9618C22.0785 11.4754 21.8792 11.968 21.5245 12.3313C21.1699 12.6945 20.6889 12.8986 20.1873 12.8988ZM23.693 10.6398H23.1283C23.0478 9.89866 22.7033 9.21388 22.1607 8.71654C21.6181 8.21919 20.9155 7.94421 20.1873 7.94421C19.4591 7.94421 18.7565 8.21919 18.2138 8.71654C17.6712 9.21388 17.3267 9.89866 17.2463 10.6398H8.44999C8.36954 9.89866 8.02505 9.21388 7.48244 8.71654C6.93983 8.21919 6.23721 7.94421 5.50901 7.94421C4.78082 7.94421 4.07819 8.21919 3.53558 8.71654C2.99297 9.21388 2.64848 9.89866 2.56803 10.6398H2.30164C1.60369 10.6398 1.06025 10.0451 1.06025 9.33033V7.77528C1.05805 7.49213 1.14722 7.21615 1.31388 6.99021C1.48055 6.76428 1.7154 6.60102 1.98197 6.52579L6.13237 5.36359C6.2454 5.33252 6.34489 5.26332 6.41475 5.16717L8.89753 1.83336C9.07385 1.60201 9.2994 1.41491 9.55699 1.28632C9.81459 1.15773 10.0974 1.09103 10.384 1.0913H18.2373C18.5521 1.08775 18.8625 1.16719 19.1387 1.32199C19.4149 1.47679 19.6476 1.70174 19.8143 1.97523L21.743 5.12897C21.7976 5.21982 21.8774 5.29199 21.9721 5.33631L24.1992 6.37847C24.4188 6.48196 24.6046 6.64826 24.7341 6.85736C24.8636 7.06646 24.9313 7.30943 24.9291 7.55703V9.33033H24.9344C24.9344 10.0451 24.391 10.6398 23.693 10.6398Z" fill="#434B52"/>
</svg>
