<svg width="271" height="271" viewBox="0 0 271 271" fill="none" xmlns="http://www.w3.org/2000/svg">
<g clip-path="url(#clip0_1010_51993)">
<path d="M100.677 267.815C104.778 263.65 104.727 256.949 100.562 252.847L79.5963 232.2C73.9187 226.511 70.4579 218.961 69.8509 210.938C69.4556 205.718 65.3026 201.57 60.0817 201.182C52.0403 200.585 44.4746 197.123 38.7721 191.433L18.1245 170.468C14.0229 166.303 7.32184 166.252 3.15719 170.353C-1.00694 174.455 -1.05827 181.156 3.04288 185.32L23.7222 206.318C23.7413 206.337 23.7603 206.356 23.7788 206.375C31.0392 213.635 40.1581 218.673 50.0537 220.993C52.3821 230.86 57.4141 239.953 64.6544 247.193C64.6734 247.212 64.6919 247.231 64.7115 247.25L85.7094 267.929C87.7711 269.959 90.4535 270.972 93.1349 270.972C95.8713 270.972 98.6056 269.918 100.677 267.815Z" fill="#FFF8E6"/>
<path d="M244.485 241.863C244.156 241.863 243.827 241.857 243.498 241.842C236.986 241.563 230.842 238.85 226.195 234.204L163.404 171.048C161.197 168.981 158.162 168.981 155.942 171.07L108.577 218.695C98.2779 228.257 84.0673 214.109 93.5693 203.769L140.954 156.123C150.825 145.835 168.528 145.831 178.393 156.103L241.183 219.258C242.077 220.151 243.168 220.642 244.407 220.695C245.042 220.716 246.148 220.41 247.158 219.443C251.528 215.21 250.02 202.388 246.306 196.063L191.316 116.282C188.411 112.067 188.939 106.377 192.57 102.769L241.093 54.5434C246.927 48.7102 249.774 42.2754 249.774 34.8922C249.774 22.6698 241.997 21.2563 236.147 21.2563C228.719 21.2563 222.261 24.1028 216.405 29.9587L168.203 78.4592C164.595 82.0899 158.906 82.6186 154.69 79.7128L74.9083 24.723C68.5999 21.0155 55.7672 19.4963 51.5285 23.871C50.5612 24.8812 50.2495 25.9845 50.277 26.6222C50.3304 27.861 50.821 28.9527 51.7359 29.8677L114.848 92.6137C125.138 102.486 125.141 120.188 114.869 130.054C114.85 130.073 114.831 130.092 114.812 130.111L66.6948 177.496C62.5302 181.597 55.8292 181.546 51.728 177.381C47.6263 173.216 47.6782 166.515 51.8428 162.414L99.9242 115.064C101.991 112.837 101.992 109.829 99.902 107.602L36.7892 44.8567C32.1213 40.1878 29.4087 34.0429 29.1288 27.5313C28.8446 20.9166 31.4371 14.2457 36.2426 9.22908C46.1007 -1.75354 68.4972 -3.23154 85.7951 6.56307C86.0475 6.70753 86.2931 6.86258 86.5328 7.02769L159.422 57.2671L201.415 15.0146C217.377 -2.17318 247.7 -5.40066 261.937 10.1663C276.941 26.3349 272.083 54.3693 256.038 69.534L213.763 111.549L264.002 184.439C264.167 184.678 264.322 184.924 264.467 185.176C274.261 202.445 272.777 224.899 261.801 234.728C257.034 239.295 250.773 241.863 244.485 241.863Z" fill="#FFF8E6"/>
</g>
<defs>
<clipPath id="clip0_1010_51993">
<rect width="271" height="271" fill="white"/>
</clipPath>
</defs>
</svg>
