<svg width="30" height="30" viewBox="0 0 30 30" fill="none" xmlns="http://www.w3.org/2000/svg">
<path d="M13.8994 30C11.6603 30 9.83691 28.1778 9.83691 25.9375C9.83691 25.489 10.2009 25.125 10.6494 25.125C11.0979 25.125 11.4619 25.489 11.4619 25.9375C11.4619 27.282 12.5561 28.375 13.8994 28.375C15.2427 28.375 16.3369 27.282 16.3369 25.9375C16.3369 25.489 16.7009 25.125 17.1494 25.125C17.5979 25.125 17.9619 25.489 17.9619 25.9375C17.9619 28.1778 16.1387 30 13.8994 30Z" fill="#363D44"/>
<path d="M22.8372 26.75H4.96217C3.91679 26.75 3.06641 25.8996 3.06641 24.8542C3.06641 24.2994 3.30801 23.7741 3.72934 23.4133C3.75652 23.3895 3.78567 23.3679 3.81602 23.3483C5.40631 21.9605 6.31641 19.964 6.31641 17.8557V14.8333C6.31641 10.6517 9.71915 7.25 13.8997 7.25C14.073 7.25 14.2605 7.25317 14.4339 7.28253C14.8768 7.35612 15.1759 7.77547 15.1022 8.21742C15.0286 8.65938 14.6017 8.95851 14.1673 8.88472C14.0806 8.87064 13.9854 8.875 13.8997 8.875C10.6152 8.875 7.94141 11.5476 7.94141 14.8333V17.8557C7.94141 20.4732 6.79407 22.9497 4.79654 24.6493C4.78027 24.6624 4.76619 24.6743 4.74873 24.6862C4.71957 24.7231 4.69141 24.7794 4.69141 24.8542C4.69141 25.0014 4.81499 25.125 4.96217 25.125H22.8372C22.9846 25.125 23.1081 25.0014 23.1081 24.8542C23.1081 24.7783 23.08 24.7231 23.0496 24.6862C23.0334 24.6743 23.0193 24.6624 23.003 24.6493C21.0043 22.9485 19.8581 20.4732 19.8581 17.8557V16.6751C19.8581 16.2266 20.2221 15.8626 20.6706 15.8626C21.1191 15.8626 21.4831 16.2266 21.4831 16.6751V17.8557C21.4831 19.9651 22.3942 21.9627 23.9867 23.3516C24.0159 23.3711 24.044 23.3917 24.07 23.4145C24.4915 23.7741 24.7331 24.2994 24.7331 24.8542C24.7331 25.8996 23.8828 26.75 22.8372 26.75Z" fill="#363D44"/>
<path d="M21.4831 14.8333C18.4964 14.8333 16.0664 12.4035 16.0664 9.41673C16.0664 6.42996 18.4964 4 21.4831 4C24.4699 4 26.8997 6.42996 26.8997 9.41673C26.8997 12.4035 24.4699 14.8333 21.4831 14.8333ZM21.4831 5.625C19.3922 5.625 17.6914 7.32578 17.6914 9.41673C17.6914 11.5075 19.3922 13.2083 21.4831 13.2083C23.5739 13.2083 25.2747 11.5075 25.2747 9.41673C25.2747 7.32578 23.5739 5.625 21.4831 5.625Z" fill="#ED5D2A"/>
<circle cx="21.5" cy="9.5" r="4.5" fill="#ED5D2A"/>
</svg>
