<svg width="225" height="121" viewBox="0 0 225 121" fill="none" xmlns="http://www.w3.org/2000/svg">
<g clip-path="url(#clip0)">
<path d="M156.659 114.437C161.457 114.437 165.346 110.561 165.346 105.78C165.346 100.999 161.457 97.1228 156.659 97.1228C151.861 97.1228 147.972 100.999 147.972 105.78C147.972 110.561 151.861 114.437 156.659 114.437Z" fill="#008B4E"/>
<path d="M38.071 119.258C42.8688 119.258 46.7582 115.383 46.7582 110.601C46.7582 105.82 42.8688 101.944 38.071 101.944C33.2732 101.944 29.3838 105.82 29.3838 110.601C29.3838 115.383 33.2732 119.258 38.071 119.258Z" fill="#008B4E"/>
<path d="M142.414 69.045L185.683 21.6682L195.405 31.1448L161.112 68.3022L142.414 69.045Z" fill="#626872"/>
<path d="M156.273 120.11C164.297 120.11 170.801 113.628 170.801 105.633C170.801 97.6368 164.297 91.155 156.273 91.155C148.25 91.155 141.745 97.6368 141.745 105.633C141.745 113.628 148.25 120.11 156.273 120.11Z" stroke="#008B4E" stroke-miterlimit="10"/>
<path d="M27.9893 116.659H24.359C24.0377 116.659 23.2923 117.613 23.3951 118.785C23.3878 119.034 23.4336 119.282 23.5294 119.512C23.6252 119.743 23.7688 119.95 23.9509 120.122C24.133 120.293 24.3494 120.424 24.5858 120.505C24.8223 120.587 25.0734 120.618 25.3228 120.597H49.8037C50.9796 120.597 52.798 120.705 53.2221 119.956C54.1152 118.4 53.1835 117.081 51.5322 116.755C50.5758 116.612 49.6018 116.636 48.6536 116.825C50.0286 116.575 51.5643 116.223 52.3161 115.039C52.5854 114.568 52.7641 114.051 52.843 113.515C54.0574 107.201 50.9732 100.222 45.0104 97.4493C39.6451 94.9457 32.5193 95.7781 28.0921 99.7544C26.0766 101.59 24.6185 103.953 23.8835 106.574C23.2409 108.764 22.6369 112.49 24.1662 114.45C24.9115 115.404 24.5903 115.621 25.7661 116.044C26.4923 116.299 27.2351 116.504 27.9893 116.659V116.659Z" stroke="#008B4E" stroke-miterlimit="10"/>
<path d="M0 120.577H86.8592" stroke="#008B4E" stroke-miterlimit="10"/>
<path d="M90.168 120.68H225" stroke="#008B4E" stroke-miterlimit="10"/>
<path d="M9.18885 120.366L0.970703 63.7239L1.18917 62.0207L2.89834 62.661L4.18343 63.4038L5.35929 63.1925L6.42591 62.3409L6.64438 61.0602L7.60177 60.2086L8.24432 60.9578L9.09889 62.661L9.74144 63.5126L11.4506 63.6215L12.196 62.7635L13.1598 62.4497L13.8859 63.5126C14.0337 64.7039 14.2853 65.8801 14.6376 67.028C15.0617 68.0909 15.383 70.2295 14.9589 70.9659C14.5348 71.7023 13.6738 72.9893 13.1405 73.732C12.6072 74.4748 14.6376 76.2933 14.6376 76.2933V77.7852L14.2071 80.6602L13.7831 82.1521L14.4256 83.4328C14.8124 83.9305 15.2424 84.3933 15.7107 84.8159C15.9871 85.1114 16.1894 85.468 16.301 85.8564C16.4127 86.2448 16.4306 86.654 16.3532 87.0506C16.1412 87.5884 15.6015 89.503 15.6015 89.503L15.8199 91.315L16.7773 93.1207C16.3035 94.01 15.7689 94.8657 15.1774 95.682C14.7469 96.111 14.6441 98.7683 14.6441 98.7683L14.7469 101.432L16.244 105.588L18.1716 109.097L19.8808 108.776L20.7225 116.659L21.153 119.22L21.6864 120.603L9.18885 120.366Z" fill="#626872"/>
<path d="M21.4672 120.257L19.8737 108.975L18.1517 109.34C16.8345 106.856 15.5108 104.333 14.939 101.579C14.3671 98.826 14.6755 95.7781 16.3911 93.5434C16.595 93.3306 16.7333 93.0639 16.7895 92.7751C16.7656 92.4657 16.6567 92.1688 16.4747 91.917C16.0827 91.1807 15.71 89.4582 16.1213 88.6386L16.8666 86.0774L15.2667 83.8427L14.0908 82.2419L14.5149 77.6637L14.8362 76.383L15.4787 74.5709L21.9941 69.4484L18.1389 67.9565C18.1389 67.9565 21.5636 66.7847 23.3756 66.7847C25.1876 66.7847 34.1639 66.4646 37.5116 66.4646C39.1165 66.493 40.7217 66.4225 42.3178 66.2533L65.7129 45.0653H93.9206C93.9206 45.0653 94.9872 48.2669 95.739 49.2209C96.4908 50.175 99.3694 52.9476 99.3694 52.9476V108.52H58.4328C58.1244 108.52 57.0771 108.7 56.8201 108.52C56.3767 108.168 56.2996 106.183 56.1197 105.575C55.2068 102.485 53.5053 99.6831 51.1814 97.4439C48.8574 95.2047 45.9904 93.6044 42.8603 92.7993C39.7303 91.9942 36.4442 92.0118 33.3231 92.8504C30.2019 93.689 27.3523 95.3199 25.0526 97.5838C22.9566 99.5394 21.4444 102.035 20.6833 104.794C19.4368 109.833 21.4929 115.071 21.4672 120.257Z" stroke="#008B4E" stroke-miterlimit="10"/>
<path d="M99.2795 108.546L138.089 104.493C138.318 101.658 139.204 98.9142 140.678 96.4786C142.152 94.043 144.174 91.9817 146.583 90.4571C148.992 88.9325 151.724 87.9862 154.563 87.6929C157.402 87.3996 160.271 87.7671 162.943 88.7667C166.174 89.9607 168.99 92.0597 171.052 94.811C173.114 97.5623 174.334 100.849 174.566 104.275L199.465 101.611L199.356 66.074L184.352 66.932L151.011 68.8529L116.493 70.8315L99.1445 71.8304L99.2795 108.546Z" stroke="#008B4E" stroke-miterlimit="10"/>
<path d="M199.137 89.17H194.119V97.4749H199.137V89.17Z" fill="#626872"/>
<path d="M33.226 30.9335C32.6156 32.5535 34.0549 33.8341 34.8452 35.0571C35.4253 35.962 35.7702 36.9966 35.8487 38.0675C35.9272 39.1384 35.7369 40.212 35.295 41.1913C34.9287 41.9533 34.4083 42.6448 34.0677 43.4196C32.3843 47.2615 35.8604 49.6434 36.0789 53.1844C36.2138 55.4255 34.6139 57.1543 33.9456 59.1713C33.5413 60.288 33.4897 61.5014 33.7979 62.6482" stroke="#626872" stroke-miterlimit="10"/>
<path d="M17.9591 37.4263C17.3551 38.6557 18.788 39.629 19.5783 40.551C20.1539 41.1685 20.5097 41.9575 20.591 42.7963C20.6722 43.6352 20.4745 44.4775 20.0281 45.1933C19.6619 45.776 19.1414 46.2946 18.8008 46.8837C17.1238 49.7843 20.6 51.5964 20.812 54.2793C20.9469 55.9761 19.347 57.2824 18.6852 58.8127C18.4846 59.219 18.3677 59.6611 18.3412 60.113C18.3147 60.565 18.3792 61.0177 18.531 61.4444" stroke="#626872" stroke-miterlimit="10"/>
<path d="M24.4809 45.411C23.8384 46.2306 25.3034 46.8837 26.0937 47.4984C27.2567 48.4077 27.4688 49.6243 26.5499 50.6039C26.1837 50.9881 25.6632 51.3403 25.3162 51.7309C23.6392 53.6518 27.1154 54.8812 27.3274 56.6741C27.4623 57.8075 25.8624 58.6783 25.2006 59.7028C25.0052 59.9494 24.8871 60.2479 24.8608 60.5611C24.8345 60.8742 24.9013 61.1881 25.0528 61.4636" stroke="#626872" stroke-miterlimit="10"/>
<path d="M23.8191 82.1394H18.8008V90.5531H23.8191V82.1394Z" fill="#626872"/>
<path d="M46.2565 79.9047L55.5862 74.0522C55.5862 74.0522 51.4161 67.6491 50.78 66.599C50.1439 65.5489 49.1736 65.5361 47.895 66.1764C46.176 67.1156 44.5326 68.186 42.9795 69.378C41.9129 70.2296 41.0518 71.4013 41.8036 72.7844C42.5554 74.1675 46.2565 79.9047 46.2565 79.9047Z" stroke="#008B4E" stroke-miterlimit="10"/>
<path d="M19.8672 71.3885C21.5185 71.3885 23.1956 71.8176 24.1787 73.2583C24.5008 73.7396 24.7161 74.2839 24.8103 74.8547C24.9045 75.4256 24.8754 76.01 24.7248 76.5687C24.5279 76.9885 24.4781 77.462 24.5835 77.9133C24.6857 78.1165 24.8303 78.2955 25.0075 78.4384L26.7039 80.0136" stroke="#626872" stroke-miterlimit="10"/>
<path d="M31.8115 74.3981C31.8115 74.3981 29.9931 74.9295 29.3505 74.7182C28.708 74.5069 28.6052 73.4376 27.6414 73.4376C26.6775 73.4376 24.1523 73.2839 24.1523 73.2839" stroke="#626872" stroke-miterlimit="10"/>
<path d="M16.8799 92.8967L18.4863 90.233V82.037L15.0615 76.4983" stroke="#626872" stroke-miterlimit="10"/>
<path d="M14.8486 100.561C14.8486 100.561 17.0911 97.1547 17.9457 96.9434C18.8003 96.7321 20.0854 97.1547 20.6187 96.9434C21.152 96.7321 22.3279 95.1313 23.2917 94.1708C24.2555 93.2104 24.6796 92.6853 24.6796 92.6853" stroke="#626872" stroke-miterlimit="10"/>
<path d="M26.6006 87.6781C26.6006 87.6781 28.0977 86.5063 28.0977 85.3345C28.0977 84.1627 27.9885 83.7401 28.631 83.849C29.2736 83.9578 30.6615 84.7006 31.9401 84.1692C33.2188 83.6377 34.0798 82.2482 35.0436 81.3966C35.3018 81.1568 35.6364 81.0151 35.9888 80.9964C36.3412 80.9777 36.689 81.0831 36.9713 81.2941C38.8989 82.7861 42.6257 83.3623 44.9838 83.6185" stroke="#626872" stroke-miterlimit="10"/>
<path d="M65.8096 96.5143C65.8096 96.5143 69.6648 97.2635 71.5925 96.1942C73.5201 95.1249 73.835 94.2732 75.12 94.8111C76.4051 95.349 77.2533 96.732 79.4958 95.8804C80.8982 95.3348 82.2276 94.6186 83.4539 93.7482" stroke="#626872" stroke-miterlimit="10"/>
<path d="M89.4229 78.2014H94.6596" stroke="#626872" stroke-miterlimit="10"/>
<path d="M173.288 19.1134C172.645 23.4547 171.874 27.7832 170.878 32.0541C169.311 38.7838 166.515 45.4495 163.637 51.731C157.635 64.8446 149.719 77.4459 139.522 87.7294C129.992 97.3394 118.705 105.044 106.27 110.428C100.031 113.143 93.5345 115.231 86.8784 116.659C81.4939 117.792 76.2314 118.964 70.7248 119.438C64.5307 119.969 62.5003 119.867 61.0867 119.969C59.6731 120.072 53.9287 120.078 53.9287 120.078C53.9287 120.078 59.5895 119.329 61.9412 118.586C64.293 117.843 67.8141 116.883 70.8084 115.18C73.8026 113.476 83.1966 107.618 87.7908 102.937C92.385 98.2561 101.573 86.9674 106.168 78.6625C110.762 70.3577 118.453 55.0286 121.871 45.8721C124.389 39.0272 127.558 32.4382 131.336 26.1953C135.037 20.1571 139.522 13.6835 145.132 9.25898C148.119 6.89622 152.842 4.05323 156.807 4.45663" stroke="#626872" stroke-miterlimit="10"/>
<path d="M42.415 66.599C53.9885 74.6546 66.8169 80.7512 80.383 84.6431C84.7543 85.9007 89.1926 86.914 93.6773 87.6781C108.828 90.2394 125.721 90.2394 140.384 85.2258C146.732 83.0423 152.933 80.1032 158.928 77.0938C165.549 73.7861 171.771 69.7366 177.472 65.0239C183.254 60.2599 188.003 54.5932 193.265 49.3426C196.793 45.8337 199.466 42.5297 199.466 42.5297" stroke="#626872" stroke-miterlimit="10"/>
<path d="M70.8339 2.72131C70.8339 2.72131 68.9063 5.16731 68.1609 4.95601C67.6624 4.83982 67.1401 4.87779 66.6638 5.06486L66.9851 6.87054L67.8396 9.43179L68.0517 10.0721L66.6638 10.5011L62.8085 8.36888L61.2021 11.6729L91.3311 44.6746L92.0764 45.3149H93.1495L94.1069 45.4174C94.1069 45.4174 94.2161 47.7609 94.9615 48.5037C95.7068 49.2465 96.9919 51.0649 98.1742 52.019L99.35 52.9795L106.617 61.3036L116.12 70.7802L133.437 69.9158L70.8339 2.72131Z" fill="#626872"/>
<path d="M216.345 57.5513C205.242 66.5926 193.175 74.5581 179.643 79.5781C169.105 83.484 157.886 85.2065 146.686 83.6889C140.329 82.8176 134.139 80.9934 128.329 78.2783C123.6 76.0692 119.603 72.9893 115.17 70.3256C115.17 70.3256 106.727 57.0199 108.744 52.2239C111.391 45.9745 117.174 43.9767 123.58 43.4388C129.787 42.9138 136.309 43.5157 141.7 46.6404C144.912 48.5324 147.571 51.2302 149.411 54.465C151.493 58.0956 152.579 62.2769 154.378 66.0611" stroke="#626872" stroke-miterlimit="10"/>
<path d="M142.626 14.4326L150.851 5.80762L215.491 64.153L207.478 72.6691L142.626 14.4326Z" stroke="#626872" stroke-miterlimit="10"/>
<path d="M156.73 4.74475L153.523 8.15122" stroke="#626872" stroke-miterlimit="10"/>
<path d="M173.076 19.2223L170.082 22.7376" stroke="#626872" stroke-miterlimit="10"/>
<path d="M216.024 57.974L212.927 61.4893" stroke="#626872" stroke-miterlimit="10"/>
<path d="M162.178 31.8876L162.923 52.3328L166.875 54.9965L169.657 55.8481L187.5 54.5675" stroke="#626872" stroke-miterlimit="10"/>
<path d="M159.679 6.62724C159.737 6.5632 159.801 6.51198 159.859 6.44795C160.433 5.67776 160.688 4.71778 160.572 3.76579C160.456 2.81379 159.978 1.94229 159.237 1.33081C158.496 0.719322 157.547 0.414433 156.587 0.478953C155.627 0.543473 154.729 0.972482 154.076 1.67761C154.025 1.74804 153.986 1.81848 153.941 1.88891L159.679 6.62724Z" stroke="#626872" stroke-miterlimit="10"/>
<path d="M176.539 21.5337C176.597 21.4697 176.661 21.4249 176.719 21.3545C177.046 20.9777 177.295 20.5397 177.449 20.0661C177.604 19.5924 177.663 19.0927 177.621 18.5963C177.579 18.0999 177.439 17.6168 177.207 17.1754C176.975 16.7339 176.658 16.343 176.272 16.0256C175.887 15.7082 175.442 15.4708 174.963 15.3271C174.485 15.1835 173.982 15.1366 173.485 15.1893C172.988 15.2419 172.506 15.3929 172.069 15.6336C171.631 15.8742 171.246 16.1996 170.936 16.5905C170.885 16.6558 170.838 16.7242 170.795 16.7954L176.539 21.5337Z" stroke="#626872" stroke-miterlimit="10"/>
<path d="M202.73 44.745L202.91 44.5657C203.483 43.7956 203.738 42.8356 203.622 41.8836C203.507 40.9316 203.029 40.0601 202.288 39.4486C201.546 38.8371 200.598 38.5322 199.638 38.5968C198.678 38.6613 197.779 39.0903 197.127 39.7954C197.075 39.8658 197.037 39.9363 196.985 40.0067L202.73 44.745Z" stroke="#626872" stroke-miterlimit="10"/>
<path d="M219.275 59.9653C219.333 59.9077 219.397 59.8565 219.455 59.7924C220.028 59.0222 220.283 58.0623 220.168 57.1103C220.052 56.1583 219.574 55.2868 218.833 54.6753C218.092 54.0638 217.143 53.7589 216.183 53.8234C215.223 53.888 214.324 54.317 213.672 55.0221C213.623 55.0901 213.578 55.1606 213.537 55.2334L219.275 59.9653Z" stroke="#626872" stroke-miterlimit="10"/>
<path d="M50.4268 66.17L67.5185 50.2006H94.3383V71.8175L54.4876 72.2401L50.4268 66.17Z" stroke="#008B4E" stroke-miterlimit="10"/>
<path d="M63.8887 58.0828L66.0219 58.7167L66.5617 60.6377L68.8041 61.3804L70.0828 61.7006L72.3253 60.5288L73.5012 58.9344L73.8224 57.6538L75.5316 58.0828L77.4592 57.6538L78.5259 57.7627" stroke="#626872" stroke-miterlimit="10"/>
<path d="M68.3728 53.5045C68.3728 53.5045 70.943 54.9965 70.943 56.2707C70.8875 57.1347 70.5515 57.9573 69.9856 58.6142C69.9856 58.6142 68.8098 59.5747 69.4459 60.6376C69.866 61.4326 70.1217 62.3036 70.1977 63.1989C70.0508 63.7887 69.7119 64.3134 69.2338 64.6908C68.7195 65.1377 68.2543 65.6379 67.8459 66.1827L67.4219 68.4174L67.5247 69.4803" stroke="#626872" stroke-miterlimit="10"/>
</g>
<defs>
<clipPath id="clip0">
<rect width="225" height="121" fill="white"/>
</clipPath>
</defs>
</svg>
