<svg width="26" height="26" viewBox="0 0 26 26" fill="none" xmlns="http://www.w3.org/2000/svg">
<path d="M11.8996 26C9.66049 26 7.83713 24.1778 7.83713 21.9375C7.83713 21.489 8.20113 21.125 8.64963 21.125C9.09813 21.125 9.46213 21.489 9.46213 21.9375C9.46213 23.282 10.5563 24.375 11.8996 24.375C13.243 24.375 14.3371 23.282 14.3371 21.9375C14.3371 21.489 14.7011 21.125 15.1496 21.125C15.5981 21.125 15.9621 21.489 15.9621 21.9375C15.9621 24.1778 14.139 26 11.8996 26Z" fill="#363D44"/>
<path d="M20.8372 22.75H2.96217C1.91679 22.75 1.06641 21.8996 1.06641 20.8542C1.06641 20.2994 1.30801 19.7741 1.72934 19.4133C1.75652 19.3895 1.78567 19.3679 1.81602 19.3483C3.40631 17.9605 4.31641 15.964 4.31641 13.8557V10.8333C4.31641 6.65175 7.71915 3.25 11.8997 3.25C12.073 3.25 12.2605 3.25317 12.4339 3.28253C12.8768 3.35612 13.1759 3.77547 13.1022 4.21742C13.0286 4.65938 12.6017 4.95851 12.1673 4.88472C12.0806 4.87064 11.9854 4.875 11.8997 4.875C8.61516 4.875 5.94141 7.54756 5.94141 10.8333V13.8557C5.94141 16.4732 4.79407 18.9497 2.79654 20.6493C2.78027 20.6624 2.76619 20.6743 2.74873 20.6862C2.71957 20.7231 2.69141 20.7794 2.69141 20.8542C2.69141 21.0014 2.81499 21.125 2.96217 21.125H20.8372C20.9846 21.125 21.1081 21.0014 21.1081 20.8542C21.1081 20.7783 21.08 20.7231 21.0496 20.6862C21.0334 20.6743 21.0193 20.6624 21.003 20.6493C19.0043 18.9485 17.8581 16.4732 17.8581 13.8557V12.6751C17.8581 12.2266 18.2221 11.8626 18.6706 11.8626C19.1191 11.8626 19.4831 12.2266 19.4831 12.6751V13.8557C19.4831 15.9651 20.3942 17.9627 21.9867 19.3516C22.0159 19.3711 22.044 19.3917 22.07 19.4145C22.4915 19.7741 22.7331 20.2994 22.7331 20.8542C22.7331 21.8996 21.8828 22.75 20.8372 22.75Z" fill="#363D44"/>
<circle cx="19" cy="6" r="4" fill="#ED5D2A"/>
</svg>
