<svg width="33" height="32" viewBox="0 0 33 32" fill="none" xmlns="http://www.w3.org/2000/svg">
<path fill-rule="evenodd" clip-rule="evenodd" d="M13.9366 29.0781H7.34375C6.00833 29.0781 4.92188 27.9917 4.92188 26.6562V5.34375C4.92188 4.00833 6.00833 2.92188 7.34375 2.92188H22.2316C23.567 2.92188 24.6534 4.00833 24.6534 5.34375V12.125C24.6534 12.7938 25.1956 13.3359 25.8644 13.3359C26.5332 13.3359 27.0753 12.7938 27.0753 12.125V5.34375C27.0753 2.67291 24.9024 0.5 22.2316 0.5H7.34375C4.67291 0.5 2.5 2.67291 2.5 5.34375V26.6562C2.5 29.3271 4.67291 31.5 7.34375 31.5H13.9366C14.6054 31.5 15.1475 30.9579 15.1475 30.2891C15.1475 29.6203 14.6054 29.0781 13.9366 29.0781ZM15.0265 12.6094C15.6953 12.6094 16.2374 13.1515 16.2374 13.8203C16.2374 14.4891 15.6953 15.0312 15.0265 15.0312H8.54794C7.87914 15.0312 7.33701 14.4891 7.33701 13.8203C7.33701 13.1515 7.87914 12.6094 8.54794 12.6094H15.0265ZM7.33701 18.6641C7.33701 17.9953 7.87914 17.4531 8.54794 17.4531H11.1515C11.8203 17.4531 12.3624 17.9953 12.3624 18.6641C12.3624 19.3329 11.8203 19.875 11.1515 19.875H8.54794C7.87914 19.875 7.33701 19.3329 7.33701 18.6641ZM21.0206 7.76562C21.6894 7.76562 22.2315 8.30776 22.2315 8.97656C22.2315 9.64536 21.6894 10.1875 21.0206 10.1875H8.54794C7.87914 10.1875 7.33701 9.64536 7.33701 8.97656C7.33701 8.30776 7.87914 7.76562 8.54794 7.76562H21.0206Z" fill="#868686"/>
<path d="M29.4461 18.0345L23.5024 15.3787C23.3055 15.2906 23.0978 15.2595 22.8975 15.2781C22.6972 15.2596 22.4893 15.2907 22.2925 15.3787L16.3488 18.0345C15.9127 18.2294 15.6318 18.6624 15.6318 19.1401V23.7514C15.6318 25.6453 16.3801 27.5784 17.6847 29.055C19.0777 30.6316 20.8999 31.4999 22.8157 31.4999H22.9791C24.895 31.4999 26.7171 30.6316 28.1101 29.055C29.4148 27.5784 30.163 25.6453 30.163 23.7514V19.1401C30.163 18.6624 29.8823 18.2294 29.4461 18.0345ZM27.7411 19.9253V23.7514C27.7411 26.2658 25.7046 29.078 22.9791 29.078H22.8157C20.0902 29.078 18.0536 26.2658 18.0536 23.7514V19.9253L22.8974 17.761L27.7411 19.9253H27.7411V19.9253Z" fill="#43B02A"/>
</svg>
