<svg width="24" height="24" viewBox="0 0 24 24" fill="none" xmlns="http://www.w3.org/2000/svg">
<path fill-rule="evenodd" clip-rule="evenodd" d="M21.4429 7.10995C19.5874 6.32691 16.6126 6.1821 14.452 6.63292C12.806 6.97639 10.5471 7.58568 10.5471 9.55581V21.0001C11.5186 24.6667 23.5294 24.5744 23.6249 20.4263V9.55586C23.6249 8.97608 23.3414 7.88739 21.4429 7.10995ZM17.086 21.8164C18.5843 21.831 21.2713 21.4337 21.8086 20.4263L21.8085 9.55572C21.8085 9.48956 21.621 9.1455 20.7545 8.79072C18.8914 7.98761 15.3477 8.01449 13.4709 8.79435C12.5676 9.15308 12.3634 9.50582 12.3634 9.55577C12.3634 9.60572 12.5676 9.95846 13.4709 10.3171C14.8726 10.8927 17.2313 11.062 18.9334 10.7916C19.4294 10.718 19.8913 11.0609 19.9647 11.5571C20.0381 12.0533 19.6953 12.515 19.1991 12.5884C17.0249 12.9245 14.1419 12.6854 12.3635 11.8118V13.2793C12.3635 13.3635 12.6137 13.6898 13.4192 13.9964C14.7942 14.5464 17.2543 14.6821 18.9576 14.4243C19.4537 14.3544 19.9135 14.7004 19.9834 15.1971C20.0532 15.6938 19.7072 16.1531 19.2105 16.2229C17.2025 16.5249 14.4318 16.3524 12.7731 15.694C12.627 15.6384 12.4914 15.5806 12.3635 15.5213V16.9121C12.3635 16.9962 12.6137 17.3226 13.4192 17.6291C14.7942 18.1791 17.2543 18.3149 18.9576 18.057C19.4537 17.9872 19.9135 18.3332 19.9834 18.8299C20.0532 19.3266 19.7072 19.7858 19.2105 19.8557C17.2025 20.1577 14.4318 19.9851 12.7731 19.3268C12.627 19.2712 12.4914 19.2133 12.3635 19.1541V20.4263C12.898 21.4324 15.5893 21.8317 17.086 21.8164Z" fill="#43B02A"/>
<path d="M13.5436 6.37506C14.0453 6.37506 14.4519 5.96836 14.4517 5.46669C14.4515 4.81151 14.4513 4.10699 14.4513 3.55963C14.504 1.17129 9.9002 0.31474 7.41337 0.380356C4.9314 0.312878 0.317064 1.17461 0.375551 3.55972V18.0612C0.375551 18.7827 0.789273 19.798 2.76034 20.5372C4.63965 21.2679 7.21227 21.4843 9.4194 21.1344C9.83418 21.0686 10.125 20.7015 10.125 20.2816V20.2816C10.125 19.6956 9.5709 19.2648 8.99037 19.3447C7.16404 19.596 5.05584 19.4404 3.52531 18.8827C2.48721 18.5181 2.20567 18.1332 2.19191 18.0612V16.759C2.3691 16.8408 2.56177 16.9201 2.77324 16.9958C4.0817 17.4728 6.00482 17.7254 7.79939 17.6794C9.00187 17.6049 8.95837 15.8798 7.75512 15.8636C6.02394 15.9044 3.00919 15.6132 2.19191 14.5498V13.1256C2.36906 13.2074 2.56164 13.2867 2.77306 13.3624C4.0916 13.8442 6.04655 14.0976 7.84771 14.0454C9.04982 13.9673 9.00096 12.2413 7.79757 12.2297C6.29122 12.2728 4.6421 12.0775 3.53897 11.7052C2.49784 11.3612 2.21353 10.9986 2.19191 10.9159V9.47475C2.37119 9.55599 2.56627 9.63446 2.78064 9.70911C4.08525 10.1736 6.04397 10.4173 7.84512 10.3679C8.34657 10.3555 8.74295 9.93893 8.73055 9.43752C8.71883 8.93575 8.29903 8.53892 7.80016 8.55213C6.05577 8.592 3.03689 8.3319 2.19191 7.28145V5.77823C2.36633 5.86069 2.55569 5.94088 2.7633 6.0179C4.68746 6.7414 7.56572 6.92313 9.86587 6.54864C10.3618 6.47353 10.7029 6.01058 10.6277 5.51467C10.5526 5.01876 10.0897 4.67751 9.59373 4.7528C7.64273 5.07021 5.20344 4.94029 3.556 4.37222C2.53048 4.02198 2.22847 3.65571 2.19364 3.55967C2.99861 2.52966 5.70453 2.19867 7.41341 2.19663C9.1089 2.19477 11.8607 2.53801 12.635 3.56499C12.635 4.17358 12.6352 4.86501 12.6355 5.46746C12.6357 5.96886 13.0422 6.37506 13.5436 6.37506V6.37506Z" fill="#868686"/>
</svg>
