<svg width="24" height="24" viewBox="0 0 24 24" fill="none" xmlns="http://www.w3.org/2000/svg">
<path fill-rule="evenodd" clip-rule="evenodd" d="M8.17025 21.8086H5.13281C4.13125 21.8086 3.31641 20.9938 3.31641 19.9922V4.00781C3.31641 3.00625 4.13125 2.19141 5.13281 2.19141H16.2987C17.3002 2.19141 18.1151 3.00625 18.1151 4.00781V9.59326C18.1151 10.0949 18.5217 10.5015 19.0233 10.5015C19.5249 10.5015 19.9315 10.0949 19.9315 9.59326V4.00781C19.9315 2.00468 18.3018 0.375 16.2987 0.375H5.13281C3.12968 0.375 1.5 2.00468 1.5 4.00781V19.9922C1.5 21.9953 3.12968 23.625 5.13281 23.625H8.17025C8.67185 23.625 9.07846 23.2184 9.07846 22.7168C9.07846 22.2152 8.67185 21.8086 8.17025 21.8086ZM15.3905 9.45703C15.8921 9.45703 16.2987 9.86363 16.2987 10.3652C16.2987 10.8668 15.8921 11.2734 15.3905 11.2734H6.03598C5.53438 11.2734 5.12778 10.8668 5.12778 10.3652C5.12778 9.86363 5.53438 9.45703 6.03598 9.45703H15.3905ZM5.12778 13.998C5.12778 13.4964 5.53438 13.0898 6.03598 13.0898H11.7173C12.2189 13.0898 12.6255 13.4964 12.6255 13.998C12.6255 14.4996 12.2189 14.9062 11.7173 14.9062H6.03598C5.53438 14.9062 5.12778 14.4996 5.12778 13.998ZM6.03598 5.82422H15.3905C15.8921 5.82422 16.2987 6.23082 16.2987 6.73242C16.2987 7.23402 15.8921 7.64062 15.3905 7.64062H6.03598C5.53438 7.64062 5.12778 7.23402 5.12778 6.73242C5.12778 6.23082 5.53438 5.82422 6.03598 5.82422Z" fill="#868686"/>
<path d="M21.5401 13.5245C20.4778 12.4622 18.7493 12.4621 17.6877 13.5238L12.7015 18.4989C12.5956 18.6046 12.5175 18.7347 12.474 18.8779L11.3881 22.4528C11.2918 22.7697 11.3757 23.1139 11.607 23.351C11.7803 23.5286 12.0157 23.625 12.2572 23.625C12.338 23.625 12.4195 23.6142 12.4996 23.592L16.1653 22.5766C16.3162 22.5348 16.4537 22.4547 16.5645 22.3441L21.5402 17.3777C22.6025 16.3154 22.6025 14.5869 21.5401 13.5245ZM15.4503 20.8899L13.6061 21.4007L14.1458 19.6239L17.5102 16.2669L18.7948 17.5516L15.4503 20.8899ZM20.2564 16.0928L20.0805 16.2684L18.796 14.984L18.9714 14.809C19.3255 14.4549 19.9017 14.4549 20.2558 14.809C20.6099 15.1631 20.6099 15.7393 20.2564 16.0928Z" fill="#43B02A"/>
</svg>
