<svg width="24" height="24" viewBox="0 0 24 24" fill="none" xmlns="http://www.w3.org/2000/svg">
<path d="M4.91602 7.64062C6.41845 7.64062 7.64062 6.41845 7.64062 4.91602C7.64062 3.41358 6.41845 2.19141 4.91602 2.19141C3.41358 2.19141 2.19141 3.41358 2.19141 4.91602C2.19141 6.41845 3.41358 7.64062 4.91602 7.64062ZM4.91602 4.00781C5.41677 4.00781 5.82422 4.41526 5.82422 4.91602C5.82422 5.41677 5.41677 5.82422 4.91602 5.82422C4.41526 5.82422 4.00781 5.41677 4.00781 4.91602C4.00781 4.41526 4.41526 4.00781 4.91602 4.00781ZM7.64062 19.5381V22.7168C7.64062 23.2184 7.23406 23.625 6.73242 23.625C6.23078 23.625 5.82422 23.2184 5.82422 22.7168V19.5381C5.82422 19.0364 6.23078 18.6299 6.73242 18.6299C7.23406 18.6299 7.64062 19.0364 7.64062 19.5381ZM5.7334 9.43433C5.7334 9.93597 5.32684 10.3425 4.8252 10.3425C2.19141 10.3425 2.19141 11.5796 2.19141 12.0454V15.9053C2.19141 16.3319 2.39504 16.7392 2.73633 16.9951C3.53242 17.5922 4.00781 18.543 4.00781 19.5381V22.7168C4.00781 23.2184 3.60125 23.625 3.09961 23.625C2.59797 23.625 2.19141 23.2184 2.19141 22.7168V19.5381C2.19141 19.1115 1.98777 18.7042 1.64648 18.4482C0.850388 17.8512 0.375 16.9004 0.375 15.9053V12.0454C0.375 10.8177 0.879124 9.84763 1.83274 9.24027C2.57668 8.7663 3.58351 8.52612 4.8252 8.52612C5.32684 8.52612 5.7334 8.93269 5.7334 9.43433ZM19.084 7.64062C20.5864 7.64062 21.8086 6.41845 21.8086 4.91602C21.8086 3.41358 20.5864 2.19141 19.084 2.19141C17.5815 2.19141 16.3594 3.41358 16.3594 4.91602C16.3594 6.41845 17.5815 7.64062 19.084 7.64062ZM19.084 4.00781C19.5847 4.00781 19.9922 4.41526 19.9922 4.91602C19.9922 5.41677 19.5847 5.82422 19.084 5.82422C18.5832 5.82422 18.1758 5.41677 18.1758 4.91602C18.1758 4.41526 18.5832 4.00781 19.084 4.00781ZM18.1758 19.5381V22.7168C18.1758 23.2184 17.7692 23.625 17.2676 23.625C16.7659 23.625 16.3594 23.2184 16.3594 22.7168V19.5381C16.3594 19.0364 16.7659 18.6299 17.2676 18.6299C17.7692 18.6299 18.1758 19.0364 18.1758 19.5381ZM23.625 12.0454V15.9053C23.625 16.9004 23.1496 17.8512 22.3535 18.4482C22.0122 18.7042 21.8086 19.1115 21.8086 19.5381V22.7168C21.8086 23.2184 21.402 23.625 20.9004 23.625C20.3988 23.625 19.9922 23.2184 19.9922 22.7168V19.5381C19.9922 18.543 20.4676 17.5922 21.2637 16.9951C21.605 16.7392 21.8086 16.3319 21.8086 15.9053V12.0454C21.8086 11.5796 21.8086 10.3425 19.1748 10.3425C18.6732 10.3425 18.2666 9.93597 18.2666 9.43433C18.2666 8.93269 18.6732 8.52612 19.1748 8.52612C20.4165 8.52612 21.4233 8.7663 22.1673 9.24027C23.1209 9.84763 23.625 10.8177 23.625 12.0454Z" fill="#868686"/>
<path d="M12 5.82422C13.5024 5.82422 14.7246 4.60205 14.7246 3.09961C14.7246 1.59717 13.5024 0.375 12 0.375C10.4976 0.375 9.27539 1.59717 9.27539 3.09961C9.27539 4.60205 10.4976 5.82422 12 5.82422ZM12 2.19141C12.5008 2.19141 12.9082 2.59886 12.9082 3.09961C12.9082 3.60036 12.5008 4.00781 12 4.00781C11.4992 4.00781 11.0918 3.60036 11.0918 3.09961C11.0918 2.59886 11.4992 2.19141 12 2.19141ZM16.9951 14.8197C16.9951 15.9298 16.4037 16.9742 15.4519 17.5454L15.3862 17.5847C14.9781 17.8297 14.7246 18.2772 14.7246 18.753V22.7168C14.7246 23.2184 14.318 23.625 13.8164 23.625C13.3148 23.625 12.9082 23.2184 12.9082 22.7168V18.753C12.9082 17.6429 13.4996 16.5985 14.4514 16.0273L14.5171 15.9879C14.9252 15.7431 15.1787 15.2954 15.1787 14.8197V10.7739C15.1787 8.89739 13.4377 8.50342 11.9773 8.50342C10.5169 8.50342 8.77588 8.89739 8.77588 10.7739V14.8066C8.77588 15.2873 9.03326 15.7371 9.44745 15.9808L9.52461 16.0262C10.4914 16.5949 11.0918 17.6447 11.0918 18.7661V22.7168C11.0918 23.2184 10.6852 23.625 10.1836 23.625C9.68195 23.625 9.27539 23.2184 9.27539 22.7168V18.7661C9.27539 18.2854 9.01801 17.8356 8.60382 17.592L8.52666 17.5466C7.55992 16.9779 6.95947 15.928 6.95947 14.8066V10.7739C6.95947 9.40577 7.51184 8.30297 8.55699 7.58493C9.41198 6.99743 10.5948 6.68701 11.9773 6.68701C13.3598 6.68701 14.5426 6.99743 15.3976 7.58493C16.4427 8.30297 16.9951 9.40577 16.9951 10.7739V14.8197Z" fill="#43B02A"/>
</svg>
