<svg width="24" height="24" viewBox="0 0 24 24" fill="none" xmlns="http://www.w3.org/2000/svg">
<path d="M23.625 9.91113C23.625 11.5674 23.1936 13.1989 22.3774 14.6297C22.1289 15.0654 21.5742 15.2172 21.1386 14.9685C20.7029 14.72 20.5511 14.1653 20.7996 13.7297C21.4596 12.5726 21.8086 11.2522 21.8086 9.91113C21.8086 5.65446 18.3455 2.19141 14.0888 2.19141C9.83216 2.19141 6.3691 5.65446 6.3691 9.91113C6.3691 14.1678 9.83216 17.6309 14.0888 17.6309C15.4135 17.6309 16.72 17.2899 17.8667 16.645C18.304 16.3991 18.8576 16.5541 19.1035 16.9914C19.3493 17.4286 19.1943 17.9823 18.757 18.2281C17.339 19.0258 15.7248 19.4473 14.0888 19.4473C11.7967 19.4473 9.69096 18.6341 8.04449 17.2814L1.92316 23.3612C1.74596 23.5372 1.51447 23.625 1.28316 23.625C1.04973 23.625 0.816291 23.5356 0.63873 23.3568C0.285382 23.001 0.287334 22.4259 0.643165 22.0724L6.75633 16.0009C5.3809 14.3478 4.5527 12.2246 4.5527 9.91113C4.5527 4.65296 8.83065 0.375 14.0888 0.375C19.347 0.375 23.625 4.65296 23.625 9.91113Z" fill="#868686"/>
</svg>
