<svg width="24" height="24" viewBox="0 0 24 24" fill="none" xmlns="http://www.w3.org/2000/svg">
<path d="M22.1959 18.613C21.66 21.5172 19.1246 23.625 16.1675 23.625C12.7873 23.625 10.0371 20.8748 10.0371 17.4946C10.0371 14.1144 12.7873 11.3643 16.1675 11.3643C16.728 11.3643 17.2839 11.4402 17.8195 11.5897C18.3026 11.7245 18.5849 12.2255 18.4499 12.7086C18.3151 13.1918 17.814 13.4741 17.3309 13.3391C16.9544 13.2341 16.5629 13.1807 16.1675 13.1807C13.7888 13.1807 11.8535 15.1159 11.8535 17.4946C11.8535 19.8733 13.7888 21.8086 16.1675 21.8086C18.2485 21.8086 20.0327 20.326 20.4096 18.2835C20.5008 17.7901 20.9744 17.4639 21.4675 17.5551C21.9608 17.6461 22.2869 18.1197 22.1959 18.613ZM14.9932 16.4438C14.6384 16.089 14.0635 16.089 13.7089 16.4438C13.3542 16.7984 13.3542 17.3735 13.7088 17.7281L15.0461 19.0654C15.3554 19.3747 15.7627 19.5294 16.17 19.5294C16.5746 19.5294 16.9792 19.3767 17.288 19.071L21.2566 15.1431C21.6132 14.7902 21.616 14.2152 21.2632 13.8586C20.9104 13.5021 20.3353 13.4991 19.9787 13.8521L16.1708 17.6213L14.9932 16.4438Z" fill="#43B02A"/>
<path d="M8.76562 21.8086H5.13281C4.13131 21.8086 3.31641 20.9937 3.31641 19.9922V8.04932H5.99561C7.74833 8.04932 9.17432 6.62333 9.17432 4.87061C9.17432 4.36897 8.76775 3.9624 8.26611 3.9624C7.76447 3.9624 7.35791 4.36897 7.35791 4.87061C7.35791 5.62182 6.74682 6.23291 5.99561 6.23291H3.47215C3.55623 6.04879 3.67277 5.87885 3.81947 5.73092L6.81849 2.70529C7.14203 2.37872 7.59152 2.19141 8.0513 2.19141H16.2986C17.3002 2.19141 18.115 3.00631 18.115 4.00781V8.82129C18.115 9.32293 18.5217 9.72949 19.0232 9.72949C19.5248 9.72949 19.9314 9.32293 19.9314 8.82129V4.00781C19.9314 2.00462 18.3018 0.375 16.2986 0.375H8.0513C7.11028 0.375 6.19073 0.758326 5.52838 1.42653L2.52936 4.45216C1.86559 5.12196 1.5 6.00994 1.5 6.95291V19.9922C1.5 21.9954 3.12962 23.625 5.13281 23.625H8.76562C9.26726 23.625 9.67383 23.2184 9.67383 22.7168C9.67383 22.2152 9.26726 21.8086 8.76562 21.8086Z" fill="#868686"/>
</svg>
