<svg width="24" height="24" viewBox="0 0 24 24" fill="none" xmlns="http://www.w3.org/2000/svg">
<path d="M11.5913 10.9556C9.2877 10.9556 7.41357 12.8297 7.41357 15.1333C7.41357 16.3751 7.95841 17.4919 8.82129 18.2577V22.716C8.82129 23.0207 8.97409 23.3052 9.22826 23.4733C9.48251 23.6416 9.80396 23.671 10.0844 23.5519L11.5457 22.9315L13.0071 23.5526C13.1211 23.6011 13.2419 23.625 13.3622 23.625C13.5379 23.625 13.7126 23.574 13.8634 23.4743C14.1176 23.3061 14.2705 23.0216 14.2705 22.7168V18.3361C15.1859 17.5691 15.769 16.4181 15.769 15.1333C15.769 12.8297 13.8949 10.9556 11.5913 10.9556ZM12.4541 21.344L11.9011 21.109C11.6743 21.0126 11.418 21.0125 11.1909 21.1089L10.6377 21.3438V19.2011C10.9441 19.2729 11.2633 19.311 11.5913 19.311C11.887 19.311 12.1756 19.2799 12.4541 19.2212V21.344ZM11.5913 17.4946C10.2893 17.4946 9.22998 16.4353 9.22998 15.1333C9.22998 13.8313 10.2893 12.772 11.5913 12.772C12.8934 12.772 13.9526 13.8313 13.9526 15.1333C13.9526 16.4353 12.8934 17.4946 11.5913 17.4946Z" fill="#43B02A"/>
<path d="M22.7168 14.1847H19.5381V3.29319C19.5381 1.68408 18.229 0.375 16.6199 0.375H4.00781C2.00468 0.375 0.375 2.00468 0.375 4.00781V5.86459C0.375 6.36619 0.781603 6.77279 1.2832 6.77279H3.55371V17.1313C3.55371 18.6048 4.43294 19.9221 5.7937 20.4873C5.90764 20.5346 6.02557 20.557 6.14173 20.557C6.49779 20.557 6.83568 20.3462 6.98082 19.997C7.17322 19.5338 6.95371 19.0022 6.49048 18.8098C5.80991 18.5272 5.37012 17.8683 5.37012 17.1313V6.77279H14.543C15.0446 6.77279 15.4512 6.36619 15.4512 5.86459V3.29319C15.4512 2.68565 15.9454 2.19141 16.553 2.19141H16.6199C17.2274 2.19141 17.7217 2.68565 17.7217 3.29319V17.846C17.7217 18.2358 17.7991 18.6076 17.9383 18.9478H16.9951C16.4935 18.9478 16.0869 19.3544 16.0869 19.856C16.0869 20.3576 16.4935 20.7642 16.9951 20.7642H20.7188C20.7228 20.7642 20.7267 20.7637 20.7308 20.7636C22.3289 20.7505 23.625 19.447 23.625 17.846V15.0929C23.625 14.5913 23.2184 14.1847 22.7168 14.1847ZM13.6348 3.29319V4.95638H2.19141V4.00781C2.19141 3.00625 3.00625 2.19141 4.00781 2.19141H13.8507C13.7115 2.53148 13.6348 2.90357 13.6348 3.29319ZM21.8086 17.846C21.8086 18.4535 21.3143 18.9478 20.7068 18.9478H20.6398C20.0323 18.9478 19.5381 18.4535 19.5381 17.846V16.0011H21.8086V17.846Z" fill="#868686"/>
</svg>
