<svg width="23" height="24" viewBox="0 0 23 24" fill="none" xmlns="http://www.w3.org/2000/svg">
<path fill-rule="evenodd" clip-rule="evenodd" d="M11.4992 19.5828C9.48813 19.5828 7.55941 18.7839 6.13736 17.3618C4.71531 15.9398 3.91641 14.011 3.91641 12C3.91641 9.98886 4.71531 8.06015 6.13736 6.63809C7.55941 5.21604 9.48813 4.41714 11.4992 4.41714C13.5103 4.41714 15.439 5.21604 16.8611 6.63809C18.2831 8.06015 19.082 9.98886 19.082 12C19.082 14.011 18.2831 15.9398 16.8611 17.3618C15.439 18.7839 13.5103 19.5828 11.4992 19.5828ZM11.4992 21.4875C14.0155 21.4875 16.4286 20.4879 18.2079 18.7086C19.9871 16.9294 20.9867 14.5162 20.9867 12C20.9867 9.48371 19.9871 7.07053 18.2079 5.29128C16.4286 3.51202 14.0155 2.51245 11.4992 2.51245C8.98298 2.51245 6.56979 3.51202 4.79054 5.29128C3.01129 7.07053 2.01172 9.48371 2.01172 12C2.01172 14.5162 3.01129 16.9294 4.79054 18.7086C6.56979 20.4879 8.98298 21.4875 11.4992 21.4875ZM17.1321 6.36704C17.3189 6.55378 17.4954 6.74884 17.6613 6.95134C17.4954 6.74885 17.3189 6.55379 17.1322 6.36706C17.1321 6.36705 17.1321 6.36704 17.1321 6.36704ZM18.8453 8.91873C19.2507 9.88525 19.4654 10.9315 19.4654 12C19.4654 14.1127 18.6261 16.1389 17.1321 17.6329C15.6382 19.1268 13.612 19.9661 11.4992 19.9661C10.7399 19.9661 9.99185 19.8577 9.27562 19.6495C9.99186 19.8577 10.74 19.9661 11.4992 19.9661C13.612 19.9661 15.6382 19.1268 17.1322 17.6329C18.6261 16.1389 19.4654 14.1127 19.4654 12C19.4654 10.9315 19.2507 9.88525 18.8453 8.91873ZM16.1196 4.15533C14.7312 3.33763 13.138 2.89581 11.4992 2.89581C9.08467 2.89581 6.76899 3.85499 5.06162 5.56236C3.35426 7.26972 2.39508 9.5854 2.39508 12C2.39508 14.1127 3.12944 16.1497 4.45682 17.7698C3.12943 16.1497 2.39505 14.1127 2.39505 12C2.39505 9.58538 3.35424 7.2697 5.0616 5.56233C6.76896 3.85497 9.08464 2.89578 11.4992 2.89578C13.138 2.89578 14.7312 3.33762 16.1196 4.15533Z" fill="white"/>
<path d="M10.0625 16.3134C10.0625 16.1247 10.0997 15.9379 10.1719 15.7636C10.2442 15.5893 10.3501 15.431 10.4835 15.2976C10.617 15.1642 10.7755 15.0583 10.9499 14.9862C11.1243 14.914 11.3112 14.8768 11.5 14.8768C11.6888 14.8768 11.8757 14.914 12.0501 14.9862C12.2245 15.0583 12.383 15.1642 12.5165 15.2976C12.65 15.431 12.7558 15.5893 12.8281 15.7636C12.9003 15.9379 12.9375 16.1247 12.9375 16.3134C12.9375 16.6944 12.786 17.0598 12.5165 17.3292C12.2469 17.5986 11.8812 17.75 11.5 17.75C11.1188 17.75 10.7531 17.5986 10.4835 17.3292C10.214 17.0598 10.0625 16.6944 10.0625 16.3134ZM10.2034 7.6866C10.1842 7.50536 10.2034 7.32212 10.2597 7.14878C10.316 6.97543 10.4082 6.81585 10.5301 6.68039C10.6521 6.54492 10.8013 6.43661 10.9679 6.36246C11.1344 6.28832 11.3148 6.25 11.4971 6.25C11.6795 6.25 11.8598 6.28832 12.0264 6.36246C12.193 6.43661 12.3421 6.54492 12.4641 6.68039C12.5861 6.81585 12.6782 6.97543 12.7345 7.14878C12.7908 7.32212 12.81 7.50536 12.7909 7.6866L12.2878 12.7248C12.2708 12.9227 12.1802 13.1071 12.0338 13.2414C11.8874 13.3758 11.6959 13.4503 11.4971 13.4503C11.2984 13.4503 11.1068 13.3758 10.9604 13.2414C10.814 13.1071 10.7234 12.9227 10.7065 12.7248L10.2034 7.6866Z" fill="white"/>
</svg>
