<svg width="23" height="24" viewBox="0 0 23 24" fill="none" xmlns="http://www.w3.org/2000/svg">
<path d="M16.0102 9.40584C16.3849 9.78055 16.3849 10.3863 16.0102 10.761L11.2186 15.5527C11.0317 15.7395 10.7863 15.8334 10.541 15.8334C10.2957 15.8334 10.0503 15.7395 9.86347 15.5527L6.98847 12.6777C6.61377 12.3029 6.61377 11.6972 6.98847 11.3225C7.36318 10.9478 7.96885 10.9478 8.34356 11.3225L10.541 13.5201L14.6551 9.40584C15.0298 9.03114 15.6355 9.03114 16.0102 9.40584ZM21.0827 12.0001C21.0827 17.2843 16.7836 21.5834 11.4993 21.5834C6.2151 21.5834 1.91602 17.2843 1.91602 12.0001C1.91602 6.71583 6.2151 2.41675 11.4993 2.41675C16.7836 2.41675 21.0827 6.71583 21.0827 12.0001ZM19.166 12.0001C19.166 7.77287 15.7266 4.33341 11.4993 4.33341C7.27214 4.33341 3.83268 7.77287 3.83268 12.0001C3.83268 16.2273 7.27214 19.6667 11.4993 19.6667C15.7266 19.6667 19.166 16.2273 19.166 12.0001Z" fill="white"/>
</svg>
