<svg width="150" height="43" viewBox="0 0 150 43" fill="none" xmlns="http://www.w3.org/2000/svg">
<path fill-rule="evenodd" clip-rule="evenodd" d="M54.4132 15.2453V5.36998H57.3544C61.0651 5.36998 62.7393 7.50915 62.7393 10.1482C62.7393 12.5601 61.2461 15.2449 57.3544 15.2449H54.4132V15.2453ZM47.9877 0.36438V32.2193H54.4132V20.2509H58.5314C66.6314 20.2509 69.5272 14.5172 69.5272 10.3303C69.5272 8.32787 68.8486 0.36438 57.3549 0.36438H47.9877Z" fill="#008B4E"/>
<path fill-rule="evenodd" clip-rule="evenodd" d="M90.9746 0.36438V6.00711H78.4855V13.1976H89.8435V18.431H78.4855V26.5765H90.9746V32.2193H72.0602V0.36438H90.9746Z" fill="#008B4E"/>
<path fill-rule="evenodd" clip-rule="evenodd" d="M117.492 31.2178C114.686 32.1737 111.835 32.5834 109.301 32.5834C101.428 32.5834 92.8302 28.0783 92.8302 16.474C92.8297 5.50643 100.522 0 110.478 0C112.966 0 115.093 0.318793 117.492 1.09223L117.22 6.55292C115.364 5.82477 113.328 5.36967 110.93 5.36967C103.826 5.36967 99.6173 9.87489 99.6173 16.3825C99.6173 24.073 104.776 27.2133 110.477 27.2133C113.282 27.2133 115.5 26.5305 117.084 25.8028L117.492 31.2178Z" fill="#008B4E"/>
<path fill-rule="evenodd" clip-rule="evenodd" d="M134.479 4.55095C136.877 4.55095 143.212 5.50643 143.212 16.292C143.212 27.0771 136.878 28.0326 134.479 28.0326C132.08 28.0326 125.745 27.0771 125.745 16.292C125.746 5.50643 132.08 4.55095 134.479 4.55095ZM134.479 0C126.65 0 118.958 4.733 118.958 16.292C118.958 27.8505 126.65 32.5834 134.479 32.5834C142.307 32.5834 150 27.8505 150 16.292C150 4.733 142.307 0 134.479 0Z" fill="#008B4E"/>
<path fill-rule="evenodd" clip-rule="evenodd" d="M51.621 36.868V37.9416H49.1549V42.9301H47.9392V36.868H51.621Z" fill="#008B4E"/>
<path fill-rule="evenodd" clip-rule="evenodd" d="M62.0167 40.5659L62.8475 38.0884H62.8646L63.7462 40.5659H62.0167ZM62.2135 36.868L59.8243 42.9305H61.1261L61.6313 41.5707H64.1061L64.6112 42.9305H65.9809L63.6003 36.868H62.2135Z" fill="#008B4E"/>
<path fill-rule="evenodd" clip-rule="evenodd" d="M75.9136 39.6996V37.8204H76.4697C77.1721 37.8204 77.4892 38.2274 77.4892 38.73C77.4892 39.1892 77.2064 39.7001 76.4697 39.7001H75.9136V39.6996ZM74.6975 36.868V42.9305H75.9136V40.6532H76.6921C78.2249 40.6532 78.7734 39.5619 78.7734 38.7649C78.7734 38.3837 78.6446 36.8685 76.4697 36.8685H74.6975V36.868Z" fill="#008B4E"/>
<path fill-rule="evenodd" clip-rule="evenodd" d="M89.4252 40.5659L90.2556 38.0884H90.2727L91.1547 40.5659H89.4252ZM89.6221 36.868L87.2328 42.9305H88.5341L89.0394 41.5707H91.5141L92.0193 42.9305H93.3895L91.0089 36.868H89.6221Z" fill="#008B4E"/>
<path fill-rule="evenodd" clip-rule="evenodd" d="M103.323 36.868V39.3101H105.755V36.868H106.971V42.9301H105.755V40.3059H103.323V42.9301H102.108V36.868H103.323Z" fill="#008B4E"/>
<path fill-rule="evenodd" clip-rule="evenodd" d="M120.363 36.868V37.9416H118.633V42.9301H117.417V37.9416H115.688V36.868H120.363Z" fill="#008B4E"/>
<path fill-rule="evenodd" clip-rule="evenodd" d="M130.296 36.868V39.9854L130.27 41.4579H130.296L130.724 40.5745L132.821 36.868H134.277V42.9301H133.061V39.8038L133.086 38.3397H133.061L132.65 39.258L130.535 42.9301H129.08V36.868H130.296Z" fill="#008B4E"/>
<path fill-rule="evenodd" clip-rule="evenodd" d="M146.513 39.7259H145.828C145.674 39.7259 144.699 39.7168 144.699 38.7731C144.699 38.4439 144.827 37.8204 145.819 37.8204H146.513V39.7259ZM147.729 36.868H145.785C145.366 36.868 143.413 36.8418 143.413 38.7387C143.413 39.8645 144.124 40.2892 144.595 40.4364L143.166 42.9305H144.621L145.785 40.6787H146.513V42.9305H147.729V36.868Z" fill="#008B4E"/>
<path d="M23.3603 21.5698V6.17538C20.5586 6.80164 18.2384 7.86987 16.3675 9.35153C13.9841 11.2389 12.2816 13.8363 11.1969 17.0751L6.88684 15.6241C8.25974 11.5242 10.4544 8.20586 13.5537 5.75107C16.6254 3.31802 20.5393 1.77113 25.373 1.19423L27.9203 0.890381V21.5698H23.3603Z" fill="#008B4E"/>
<path d="M20.3783 18.9775H5.25521C5.87794 21.7955 6.94015 24.1284 8.41391 26.01C10.2911 28.4068 12.8734 30.1189 16.0943 31.2098L14.6516 35.5443C10.5743 34.1631 7.27516 31.956 4.83374 28.8392C2.41394 25.7505 0.875793 21.814 0.302137 16.9533L0 14.3916H20.3783V18.9775Z" fill="#008B4E"/>
<path d="M17.9858 21.9977V37.1867C20.7875 36.5604 23.1077 35.4913 24.9782 34.0096C27.3615 32.1218 29.0641 29.5247 30.1487 26.2856L34.4588 27.7365C33.0859 31.8364 30.8918 35.1548 27.792 37.6096C24.7198 40.0426 20.8059 41.59 15.9726 42.1665L13.4254 42.4708V21.9977H17.9858Z" fill="#008B4E"/>
<path d="M21.1144 24.3828H36.0919C35.4697 21.5658 34.4061 19.2319 32.9328 17.3508C31.0556 14.954 28.4733 13.2418 25.2524 12.1509L26.6951 7.81641C30.7719 9.19754 34.0721 11.4042 36.513 14.5215C38.9323 17.6108 40.471 21.5467 41.0441 26.4078L41.3463 28.969H21.1144V24.3828Z" fill="#008B4E"/>
</svg>
