<svg width="66" height="66" viewBox="0 0 66 66" fill="none" xmlns="http://www.w3.org/2000/svg">
<path fill-rule="evenodd" clip-rule="evenodd" d="M33.6417 52.1318L33.6639 52.1316C33.6784 52.1315 33.6929 52.1313 33.7073 52.1312C33.6854 52.1314 33.6636 52.1316 33.6417 52.1318ZM31.1996 52.1526C31.2903 52.1517 31.3782 52.1508 31.4631 52.15L31.1996 52.1526Z" fill="black"/>
<path fill-rule="evenodd" clip-rule="evenodd" d="M48.1003 56.9485C49.0349 55.5465 49.035 54.758 49.5023 52.2751C49.9696 49.7923 49.9406 48.4202 49.5023 46.6671C49.035 44.7978 49.035 44.8742 48.1003 42.4611C47.1338 41.1356 46.231 39.4305 44.829 37.6337L44.3083 35.6159C44.4816 24.6287 39.9351 16.4059 32.5756 8.18983C32.3082 7.89187 31.88 7.97118 31.6896 8.24421C28.2002 13.2348 26.3569 16.4818 26.3569 16.4818C22.9105 22.2824 20.1847 28.5759 19.9547 35.301L19.5928 38.9921L16.7887 43.7912C15.8541 47.0608 15.8111 46.4598 15.8541 52.2751C16.3214 54.1445 16.7888 55.5465 17.2561 56.4812C17.468 56.9049 17.7235 57.4158 18.6582 57.8832C19.9547 56.0835 21.8604 50.7066 23.3456 51.639C24.8524 52.5799 24.1684 53.2336 25.6681 53.2098H33.7709C36.0616 53.2098 38.1712 53.2098 39.286 53.2098L41.2335 50.7598C42.7414 51.8701 43.1742 52.2751 44.2222 53.6771C45.2701 55.0792 45.2962 55.5465 45.7636 56.9485C46.231 58.3505 47.1657 58.3505 48.1003 56.9485ZM38.5711 49.4252L37.4597 48.315L36.4627 49.312L37.573 50.4234L38.5711 49.4252ZM37.1719 50.8233L36.0616 49.7119L34.5718 51.2017L35.3184 51.9483C35.3649 51.9947 35.3807 52.0571 35.3887 52.1171C36.4185 52.1126 37.454 52.1171 38.485 52.1375L37.573 51.2243L36.9045 51.8928C36.7935 52.0038 36.6145 52.0038 36.5035 51.8928C36.3925 51.7817 36.3925 51.6027 36.5035 51.4917L37.1719 50.8233ZM34.1708 51.6027L33.6417 52.1318L33.6639 52.1316L33.7073 52.1312C34.0353 52.128 34.3616 52.1249 34.6919 52.1228L34.1708 51.6027ZM47.1338 56.0835C49.6976 50.3826 48.5953 43.5906 44.0987 38.9921C43.7123 42.4044 42.712 46.0117 41.5269 48.7647C44.1043 50.6194 46.053 53.1719 47.1338 56.0835ZM27.6643 16.501C30.7629 17.7665 34.2569 18.018 37.8256 16.9293C36.1126 14.2386 34.2637 11.8277 32.2074 9.48251C30.6202 11.771 29.0771 14.1151 27.6643 16.501ZM38.434 17.9081C34.6251 19.2201 30.5907 18.9414 27.0956 17.4765C20.2663 29.1695 18.0491 42.2085 26.8033 52.1488C28.52 52.1803 30.0787 52.1642 31.1996 52.1526L31.4631 52.15V38.3112C31.4631 37.9985 31.7168 37.7447 32.0295 37.7447C32.3422 37.7447 32.596 37.9985 32.596 38.3112V52.1398L33.0469 52.1364C33.0231 52.0423 33.0288 51.9438 33.1024 51.8701L33.7708 51.2017L33.329 50.7598C33.218 50.6488 33.218 50.4698 33.329 50.3588C33.44 50.2478 33.619 50.2478 33.7301 50.3588L34.1719 50.8006L37.1107 47.8618C37.1028 47.7802 37.1209 47.6998 37.1832 47.6375C37.2456 47.5763 37.3271 47.557 37.4076 47.565L37.9117 47.0608C38.0227 46.9498 38.2017 46.9498 38.3128 47.0608C38.4238 47.1718 38.4238 47.3508 38.3128 47.4619L37.8596 47.915L38.971 49.0265L39.9442 48.0533C40.0552 47.9422 40.2342 47.9422 40.3453 48.0533C40.4563 48.1643 40.4563 48.3433 40.3453 48.4543L39.337 49.4626C39.3664 49.5601 39.363 49.6643 39.286 49.7413C39.1693 49.858 39.1024 49.8218 39.0073 49.7923L37.974 50.8256L38.7875 51.639C39.3789 50.6216 39.9249 49.5759 40.4008 48.4917C40.7033 47.8006 40.9797 47.0982 41.2335 46.3879C41.3479 46.0695 41.4453 45.7443 41.5496 45.4215C41.7082 44.9286 41.8589 44.4324 41.9948 43.9316C42.0821 43.611 42.1659 43.2893 42.2441 42.9653C42.4004 42.3104 42.5386 41.6499 42.6553 40.9826C42.6814 40.8319 42.7165 40.6835 42.7414 40.5317C42.8842 39.6503 42.9907 38.7587 43.0632 37.8603C43.1085 37.321 43.1493 36.7806 43.1697 36.2356C43.1697 36.2107 43.1731 36.1846 43.1742 36.1597V36.1586V36.1552C43.3793 29.7722 41.8827 23.6872 38.434 17.9081ZM18.2621 56.0869C19.2738 53.3622 21.0401 50.949 23.3456 49.1545C21.7946 46.372 20.7432 43.176 20.2572 40.1737C16.5049 44.8901 15.9792 51.0159 18.2621 56.0869Z" fill="black"/>
<path d="M29.4395 32.8901C30.2303 33.2843 31.1071 33.4758 31.9852 33.4758C33.4206 33.4758 34.8617 32.966 35.9448 31.9962C37.66 30.4611 38.3523 27.8496 37.6283 25.6449C36.9735 23.6544 34.7144 21.1823 32.1653 21.7114C29.12 22.347 27.22 23.7677 26.5176 25.9361C25.6691 28.5475 26.9799 31.6676 29.4395 32.8901ZM29.7601 31.7617L30.5271 30.9947L31.8605 32.3281C31.1921 32.3134 30.5316 32.1695 29.9436 31.8772C29.879 31.8444 29.8235 31.7979 29.7601 31.7617ZM36.5294 29.0256L34.7099 27.2061L35.6094 26.3066L36.4104 27.1076C36.5056 27.2027 36.62 27.2209 36.7605 27.1291C36.8047 27.7681 36.7242 28.4138 36.5294 29.0256ZM36.0898 29.387C36.0739 29.3972 36.0524 29.3938 36.0377 29.4086L34.6634 30.7839L34.1978 30.3172L35.6094 28.9055L36.0898 29.387ZM34.2635 31.185L34.0301 31.4184C33.9112 31.5373 33.8942 31.7469 34.1128 31.8534C33.6121 32.0902 33.0705 32.2386 32.5165 32.2987C32.5154 32.2273 32.4893 32.1559 32.4349 32.1015L32.3772 32.0438C32.4349 32.0358 32.495 32.0211 32.5403 31.9769L33.7979 30.7194L34.2635 31.185ZM32.1392 31.5747C32.0939 31.62 32.0803 31.679 32.0713 31.7379L30.927 30.5936L32.299 29.2216L33.3945 30.3172L32.1392 31.5747ZM35.0792 31.2348C35.0701 31.2201 35.0713 31.202 35.06 31.1884L35.8303 30.4169C35.64 30.6808 35.4316 30.9323 35.1891 31.1499C35.1551 31.1816 35.1143 31.2054 35.0792 31.2348ZM27.595 26.2851C28.1626 24.5324 29.7782 23.3666 32.3964 22.8194C32.5482 22.7877 32.7 22.773 32.8519 22.773C34.4991 22.773 36.0751 24.5494 36.5509 25.9984C36.6143 26.1933 36.6597 26.3927 36.6959 26.5932L36.0082 25.9055L36.2212 25.6925C36.3322 25.5815 36.3322 25.4025 36.2212 25.2915C36.1102 25.1804 35.9312 25.1804 35.8201 25.2915L35.6072 25.5045L35.0611 24.9573C34.9501 24.8462 34.7711 24.8462 34.66 24.9573C34.549 25.0683 34.549 25.2473 34.66 25.3583L35.2084 25.9067L34.3088 26.8062L34.1933 26.6906C34.0822 26.5796 33.9032 26.5796 33.7922 26.6906C33.6812 26.8017 33.6812 26.9807 33.7922 27.0917L33.9078 27.2061L33.7922 27.3217C33.6812 27.4327 33.6812 27.6117 33.7922 27.7227C33.9032 27.8338 34.0822 27.8338 34.1933 27.7227L34.3088 27.6072L35.2084 28.5067L33.7967 29.9184L32.7012 28.8206L32.8949 28.6268C33.0059 28.5158 33.0059 28.3368 32.8949 28.2258C32.7839 28.1147 32.6049 28.1147 32.4939 28.2258L32.3001 28.4195L32.0667 28.1861C31.9557 28.0751 31.7767 28.0751 31.6657 28.1861C31.5546 28.2971 31.5546 28.4761 31.6657 28.5872L31.8991 28.8206L30.5271 30.1925L29.6241 29.2896C29.5131 29.1786 29.3341 29.1786 29.2231 29.2896C29.112 29.4006 29.112 29.5796 29.2231 29.6895L30.126 30.5925L29.2661 31.4524C27.7378 30.2888 26.9957 28.1306 27.595 26.2851Z" fill="black"/>
<path d="M40.1243 47.8051C40.2353 47.9162 40.4143 47.9162 40.5253 47.8051C40.6363 47.6941 40.6363 47.5151 40.5253 47.4041L38.929 45.8078C38.9596 45.7942 38.9947 45.7953 39.0208 45.7704L39.9543 44.838L40.7791 45.6628C40.8901 45.7738 41.0691 45.7738 41.1802 45.6628C41.2912 45.5517 41.2912 45.3727 41.1802 45.2628L40.3554 44.4381L41.1382 43.6552C41.2493 43.5442 41.2493 43.3652 41.1382 43.2553C41.0272 43.1442 40.8482 43.1442 40.7372 43.2553L39.9543 44.0381L39.6258 43.7096C39.5147 43.5985 39.3357 43.5985 39.2247 43.7096C39.1137 43.8206 39.1137 43.9996 39.2247 44.1106L39.5533 44.4392L38.6197 45.3716C38.5857 45.4056 38.5823 45.4509 38.5699 45.4928C38.4622 45.435 38.3331 45.4328 38.2425 45.5234C38.1314 45.6344 38.1314 45.8134 38.2425 45.9245L40.1243 47.8051Z" fill="black"/>
<path d="M40.5915 41.9241L41.6055 42.9381C41.7165 43.0491 41.8955 43.0491 42.0066 42.9381C42.1176 42.827 42.1176 42.648 42.0066 42.537L40.9971 41.5276L41.8434 40.6813L42.0757 40.9135C42.1867 41.0245 42.3657 41.0245 42.4767 40.9135C42.5877 40.8025 42.5877 40.6235 42.4767 40.5125L42.2309 40.2666C42.3056 40.1567 42.309 40.0106 42.2116 39.9131C42.1142 39.8157 41.968 39.8191 41.8581 39.8939L41.439 39.4747C41.3279 39.3637 41.1489 39.3637 41.0379 39.4747C40.9269 39.5857 40.9269 39.7647 41.0379 39.8746L41.4423 40.2791L40.2063 41.5151C40.0953 41.6261 40.0953 41.8051 40.2063 41.9162C40.3038 42.0147 40.4601 42.0385 40.5915 41.9241Z" fill="black"/>
</svg>
