<svg width="40" height="52" viewBox="0 0 40 52" fill="none" xmlns="http://www.w3.org/2000/svg">
<path d="M0 34.7842V26.0927H20.6798V34.7842H0ZM0 43.9786V39.2378H24.5438V43.9786H0ZM5.29517 51.88V0.880005H23.8283C26.3089 0.880005 28.5271 1.35888 30.483 2.31662C32.4866 3.27437 34.1801 4.56733 35.5635 6.1955C36.9946 7.82366 38.0918 9.64339 38.8551 11.6547C39.6184 13.6659 40 15.7251 40 17.8321C40 20.7054 39.356 23.4349 38.068 26.0208C36.8277 28.6068 35.0388 30.7138 32.7013 32.342C30.3637 33.9701 27.5492 34.7842 24.2576 34.7842H15.0984V51.88H5.29517ZM15.0984 26.0927H23.6136C25.0924 26.0927 26.3089 25.7575 27.263 25.087C28.2171 24.4166 28.9088 23.4589 29.3381 22.2138C29.8151 20.9209 30.0537 19.4603 30.0537 17.8321C30.0537 16.0603 29.7674 14.5518 29.195 13.3068C28.6702 12.0617 27.8831 11.1279 26.8336 10.5054C25.8318 9.88282 24.6154 9.57155 23.1843 9.57155H15.0984V26.0927Z" fill="#292929"/>
</svg>
