<svg width="60" height="60" viewBox="0 0 60 60" fill="none" xmlns="http://www.w3.org/2000/svg">
<path d="M58.8717 4.86552C58.7326 4.78097 58.5599 4.77734 58.4172 4.85643C49.6535 9.67097 37.919 8.63097 30.3199 1.09097C30.1435 0.915517 29.8563 0.915517 29.6799 1.09097C22.079 8.63279 10.3499 9.67188 1.58264 4.85643C1.43991 4.77825 1.26718 4.78097 1.12809 4.86552C0.989001 4.94915 0.906274 5.10097 0.909001 5.2637C1.05809 13.0264 0.768092 20.1355 2.329 27.7782C5.79718 44.7637 16.1108 56.4483 29.9163 59.0337C29.9445 59.0383 29.9726 59.041 29.9999 59.041C30.0272 59.041 30.0563 59.0383 30.0835 59.0337C42.4808 56.711 53.8363 46.5592 57.6717 27.7782C58.9363 21.5864 58.9854 15.7564 59.0381 9.58461C59.0508 8.16006 59.0626 6.72188 59.0908 5.2637C59.0935 5.10097 59.0099 4.94915 58.8717 4.86552ZM3.219 27.5955C1.729 20.2973 1.94991 13.441 1.83173 6.01552C10.7281 10.5328 22.2926 9.4137 29.9999 2.04824C37.8199 9.52097 47.7872 8.68915 46.8781 8.68915C50.8345 8.68915 54.7199 7.76643 58.1681 6.01643C58.0781 11.8028 58.1763 17.1937 57.5435 22.7019L57.1781 23.0673C56.9881 22.8773 56.8172 22.6428 56.6245 22.8355C56.4317 23.0282 56.6672 23.1992 56.8563 23.3892L56.1236 24.121C55.9799 24.2646 56.0835 24.5092 56.2845 24.5092C56.4308 24.5092 57.0635 23.8246 57.1772 23.7101C57.2699 23.8028 57.2945 23.831 57.3863 23.9119C57.3245 24.371 57.2626 24.8301 57.189 25.291C57.0163 25.1346 56.8972 25.2755 56.7481 25.4246L56.3017 24.9782C56.0908 24.7673 55.7672 25.0864 55.9799 25.3001L56.4263 25.7464L55.4081 26.7646C55.1972 26.9755 55.5163 27.2992 55.7299 27.0864L56.7481 26.0682L57.0054 26.3255C56.8863 26.9901 56.9017 26.9919 56.7617 27.6764C56.589 27.661 56.1272 28.1901 55.999 28.3192C55.7672 28.0873 55.4881 27.6864 55.2672 27.9082C55.0463 28.1301 55.4463 28.4082 55.6781 28.6401L54.9108 29.4073C54.7672 29.551 54.8708 29.7955 55.0717 29.7955C55.2181 29.7955 55.8863 29.0755 55.9999 28.961C56.1035 29.0646 56.259 29.2564 56.3908 29.2773C56.3135 29.6055 56.2435 29.9401 56.1617 30.2637C56.0726 30.1755 55.929 30.1755 55.8408 30.2637L55.1436 30.961C54.9272 30.7446 54.6945 30.4101 54.4826 30.6219C54.2708 30.8337 54.6054 31.0655 54.8217 31.2828L53.3399 32.7646C53.1963 32.9083 53.2999 33.1528 53.5008 33.1528C53.6535 33.1528 55.0363 31.7119 55.1436 31.6037C55.249 31.7092 55.5317 32.0328 55.6681 32.0437C55.4299 32.8664 55.1781 33.6764 54.9063 34.4664C54.8463 34.3655 54.8072 34.3383 54.7154 34.2464C54.9526 34.0092 54.6326 33.6864 54.3935 33.9246L53.8754 33.4064C53.6645 33.1955 53.3408 33.5146 53.5536 33.7283L54.0717 34.2464L52.6563 35.6619C52.4563 35.5755 52.2926 35.7383 52.379 35.9392C52.2363 36.0819 52.1063 36.211 52.2672 36.3719C52.3563 36.461 52.4999 36.461 52.589 36.3719L52.6781 36.2828C52.7926 36.3973 53.4754 37.1328 53.6226 37.1328C53.8235 37.1328 53.9263 36.8883 53.7835 36.7446L52.9999 35.9583L54.3926 34.5655C54.5454 34.7183 54.6063 34.8392 54.7935 34.7737C54.4135 35.8555 54.0008 36.9046 53.5581 37.9219C53.4517 37.9919 52.3036 39.1537 52.2136 39.2428L51.6781 38.7073C51.9299 38.4555 52.4363 38.0964 52.2017 37.8619C51.9672 37.6273 51.6081 38.1346 51.3563 38.3855L50.8745 37.9037C50.6636 37.6928 50.3399 38.0119 50.5526 38.2255L51.0345 38.7073L49.3208 40.421C49.0835 40.1837 48.7608 40.5037 48.999 40.7428L47.4635 42.2783C47.299 42.1137 47.159 41.9401 46.9817 42.1173C46.8045 42.2946 46.9781 42.4346 47.1426 42.5992L46.6245 43.1173C46.4808 43.261 46.5845 43.5055 46.7854 43.5055C46.9317 43.5055 47.3563 43.0292 47.4645 42.921C47.5645 43.021 49.479 44.9792 49.619 44.9983C49.2054 45.5873 48.7817 46.1673 48.339 46.7237L47.2863 45.671L48.4472 44.5101C48.6581 44.2992 48.339 43.9755 48.1254 44.1883L46.9645 45.3492L45.6335 44.0183C45.6381 43.8846 45.5363 43.7828 45.4026 43.7873L45.1608 43.5455C45.0717 43.4564 44.9281 43.4564 44.839 43.5455C44.7499 43.6346 44.7499 43.7783 44.839 43.8673L45.0354 44.0637L43.2854 45.8137L42.1608 44.6892C42.0717 44.6001 41.9281 44.6001 41.839 44.6892C41.7499 44.7783 41.7499 44.9219 41.839 45.011L42.9635 46.1355L41.2135 47.8855L39.0908 45.761C39.0017 45.6719 38.8581 45.6719 38.769 45.761C38.6799 45.8501 38.6799 45.9937 38.769 46.0828L39.5272 46.8419C39.4472 46.8128 39.359 46.8146 39.2945 46.8783L37.1436 49.0292L36.4472 48.3328C36.3581 48.2437 36.2145 48.2437 36.1254 48.3328C36.0363 48.4219 36.0363 48.5655 36.1254 48.6546L36.8217 49.351L34.5008 51.6719L33.2863 50.4573L34.4199 49.3237C34.6308 49.1128 34.3117 48.7892 34.0981 49.0019L32.9645 50.1355C32.7999 49.971 32.6599 49.7964 32.4817 49.9746C32.3035 50.1528 32.4781 50.2928 32.6426 50.4573L30.7499 52.3501L29.6608 51.261C29.4499 51.0501 29.1263 51.3692 29.339 51.5828L30.4281 52.6719L28.4645 54.6355L26.929 53.1001L28.4545 51.5746C28.5435 51.4855 28.5435 51.3419 28.4545 51.2528C28.3654 51.1637 28.2217 51.1637 28.1326 51.2528L26.6072 52.7783L26.5181 52.6892C26.3072 52.4783 25.9835 52.7973 26.1963 53.011L26.2854 53.1001L25.1063 54.2792L23.749 52.9228L25.3372 51.3346C25.4263 51.2455 25.4263 51.1019 25.3372 51.0128C25.2481 50.9237 25.1045 50.9237 25.0154 51.0128L23.2672 52.7619L22.0354 53.9937L21.2317 53.1901C21.1426 53.101 20.999 53.101 20.9099 53.1901C20.8208 53.2792 20.8208 53.4228 20.9099 53.5119L21.7135 54.3155L21.139 54.8901C12.2654 49.9073 5.80627 40.2646 3.219 27.5955ZM57.1045 25.7773L57.0717 25.7446L57.1181 25.6982C57.1136 25.7246 57.109 25.751 57.1045 25.7773ZM56.4981 28.8137L56.3217 28.6373L56.6054 28.3537C56.5708 28.5092 56.5326 28.6601 56.4981 28.8137ZM55.7935 31.6092L55.4645 31.2801L56.0645 30.6801C55.9817 30.9973 55.8817 31.2973 55.7935 31.6092ZM47.7863 42.601L49.3217 41.0655L49.8572 41.601C49.6072 41.851 49.1054 42.2064 49.339 42.4401C49.5726 42.6737 49.9272 42.1728 50.1781 41.9219C50.2926 42.0364 50.859 42.6546 51.0054 42.6546C51.2063 42.6546 51.309 42.4101 51.1663 42.2664L50.4999 41.6001L52.2136 39.8864C52.4535 40.1264 52.7735 39.8037 52.5354 39.5646L53.0872 39.0128C52.1363 41.0473 51.0454 42.9337 49.8372 44.6919C49.7817 44.5737 47.8799 42.6937 47.7863 42.601ZM49.6436 40.7437L51.3572 39.0301L51.8926 39.5655L50.179 41.2792L49.6436 40.7437ZM33.7517 55.3501L32.609 54.2073L34.5017 52.3146L35.6445 53.4573L33.7517 55.3501ZM31.0735 52.6719L32.9663 50.7792L34.1808 51.9937L32.2881 53.8864L31.0735 52.6719ZM31.9663 54.2073L30.0017 56.1719L28.7872 54.9573L30.7508 52.9937L31.9663 54.2073ZM34.8235 51.9937L37.1445 49.6728L38.2872 50.8155L35.9663 53.1364L34.8235 51.9937ZM37.4654 49.351L39.6163 47.2001C39.6808 47.1355 39.6817 47.0473 39.6526 46.9673L40.8936 48.2083L38.6081 50.4937L37.4654 49.351ZM41.2154 48.5292L42.5008 49.8146L40.2154 52.1001L38.9299 50.8146L41.2154 48.5292ZM41.5372 48.2073L43.2872 46.4573L44.5735 47.7428L42.8235 49.4928L41.5372 48.2073ZM43.6081 46.1364L45.3581 44.3864L46.6445 45.6728L44.8945 47.4228L43.6081 46.1364ZM26.0799 57.0901C25.3108 56.8301 24.5545 56.5392 23.8126 56.2173L25.109 54.921L26.6454 56.4564C26.5472 56.5546 26.109 56.9564 26.0799 57.0901ZM23.4672 55.4219L22.3599 54.3146L23.4308 53.2437L24.7881 54.6001C24.6781 54.7101 23.4408 55.9019 23.4272 56.0437C22.7926 55.7573 22.1681 55.451 21.5554 55.1201L22.039 54.6364L23.1463 55.7437C23.1908 55.7883 23.249 55.8101 23.3072 55.8101C23.3654 55.8101 23.4235 55.7883 23.4681 55.7437C23.5563 55.6546 23.5563 55.511 23.4672 55.4219ZM26.9663 56.1355L25.4299 54.6001L26.609 53.421L28.1445 54.9564L26.9663 56.1355ZM29.9999 58.1237C28.809 57.8973 27.6463 57.5973 26.5117 57.2337L28.4663 55.2792L29.6808 56.4937C29.5317 56.6428 29.389 56.7737 29.5554 56.9401C29.6445 57.0292 29.7881 57.0292 29.8772 56.9401L30.0026 56.8146C30.1163 56.9283 30.6308 57.4955 30.7772 57.4955C30.9781 57.4955 31.0808 57.251 30.9381 57.1073L30.3245 56.4937L32.289 54.5292C32.3963 54.6364 33.6008 55.8973 33.7517 55.8973C33.8217 55.8973 33.8663 55.8783 33.9217 55.8083C34.0226 55.7319 35.8754 53.871 35.9672 53.7792L36.7581 54.5701C36.8472 54.6592 36.9908 54.6592 37.0799 54.5701C37.169 54.481 37.169 54.3373 37.0799 54.2483L36.289 53.4573L38.6099 51.1364L39.8954 52.4219L39.4845 52.8328C39.3408 52.9764 39.4445 53.221 39.6454 53.221C39.789 53.221 40.1108 52.8501 40.2163 52.7437L40.3299 52.8573C40.5408 53.0683 40.8645 52.7492 40.6517 52.5355L40.5381 52.4219L42.8235 50.1364C42.9281 50.241 43.2826 50.6473 43.4281 50.6473C43.629 50.6473 43.7317 50.4028 43.589 50.2592L43.1454 49.8155L44.8954 48.0655C45.0099 48.1801 45.6854 48.9073 45.8317 48.9073C46.0326 48.9073 46.1354 48.6628 45.9926 48.5192L45.2172 47.7437L46.9672 45.9937L48.049 47.0755C43.109 53.1192 36.5126 56.8819 29.9999 58.1237Z" fill="black"/>
<path d="M40.4736 35.5565C42.86 32.3138 43.58 28.1183 42.4018 24.3356C40.9791 19.7702 36.84 16.2611 32.1027 15.6038C22.6972 14.2983 14.0045 24.562 18.1009 33.4574C20.0463 37.6838 24.6254 40.6284 29.4954 40.7847C33.8081 40.932 37.8836 39.0756 40.4736 35.5565ZM33.6536 16.8793L33.5091 17.0238L33.2554 16.7702C33.3891 16.8056 33.5227 16.8393 33.6536 16.8793ZM31.9009 16.4965L31.4581 16.9393L30.9345 16.4156C31.2563 16.4293 31.5781 16.4538 31.9009 16.4965ZM29.8727 16.4229L28.95 17.3456L28.2354 16.6311C28.7727 16.5229 29.3191 16.4529 29.8727 16.4229ZM24.0027 18.5656L23.88 18.4429C24.3381 18.1429 24.8136 17.8729 25.3045 17.6329L26.1191 18.4474L25.0018 19.5647L24.2881 18.8511C24.3891 18.6647 24.1881 18.4656 24.0027 18.5656ZM22.2263 19.7174C22.6291 19.3538 23.0527 19.0147 23.4963 18.702L23.6636 18.8683L22.5363 19.9956C22.4391 19.8993 22.3363 19.7829 22.2263 19.7174ZM21.9291 19.992C21.9836 20.1047 22.1181 20.222 22.2145 20.3183C22.11 20.4229 21.0281 21.4493 21.0281 21.5974L20.7291 21.2983C21.0991 20.8374 21.5018 20.4011 21.9291 19.992ZM19.3263 33.8602L19.3391 33.8729L19.3354 33.8765C19.3327 33.8711 19.3291 33.8656 19.3263 33.8602ZM18.5472 32.1256C18.4254 31.7756 18.3254 31.4238 18.2436 31.072C18.26 31.062 18.2809 31.0647 18.2945 31.0511L18.5409 30.8047L19.2027 31.4665L18.55 32.1193C18.5481 32.1211 18.5491 32.1238 18.5472 32.1256ZM18.1372 30.5656C18.1254 30.5002 18.1172 30.4347 18.1063 30.3693L18.22 30.4829L18.1372 30.5656ZM18.0154 29.6356C17.9891 29.3311 17.9763 29.0274 17.9772 28.7238L18.5081 28.1929L19.5091 29.1938L18.5418 30.1611L18.0154 29.6356ZM17.9991 28.0593C18.0063 27.942 18.0127 27.8256 18.0236 27.7093L18.1863 27.872L17.9991 28.0593ZM18.2954 27.3383C18.2245 27.2674 18.1472 27.2683 18.0763 27.292C18.1481 26.7702 18.2572 26.2547 18.4018 25.7483L19.3563 26.7029L18.5081 27.5511L18.2954 27.3383ZM19.01 25.7138C19.0554 25.7083 19.1018 25.7011 19.1427 25.6593L20.2191 24.5829L20.8472 25.2111L19.6772 26.3811L19.01 25.7138ZM18.8218 25.3383C18.78 25.3802 18.7727 25.4265 18.7672 25.4711L18.55 25.2538C18.7381 24.6893 18.9718 24.1393 19.2418 23.6047L19.8981 24.2611L18.8218 25.3383ZM19.5491 23.2702C19.5136 23.2347 19.4754 23.2329 19.4372 23.2247C19.7354 22.6811 20.0772 22.1602 20.4509 21.662L21.4745 22.6856L20.2191 23.9411L19.5491 23.2702ZM21.2572 21.8247C21.4054 21.8256 22.4309 20.7438 22.5363 20.6393L23.0281 21.132L21.7963 22.3638L21.2572 21.8247ZM19.5763 34.2784L19.6609 34.1938L20.32 34.8529C20.4091 34.942 20.5527 34.942 20.6418 34.8529C20.7309 34.7638 20.7309 34.6202 20.6418 34.5311L19.9818 33.8729L21.6427 32.212C21.8554 31.9993 21.5327 31.6793 21.3209 31.8902L19.66 33.5511L18.7418 32.6329C18.7236 32.5874 18.7027 32.5411 18.6854 32.4956C18.7527 32.5038 18.82 32.4911 18.8718 32.4393L19.5245 31.7865L20.0754 32.3374C20.1645 32.4265 20.3081 32.4265 20.3972 32.3374C20.4863 32.2484 20.4863 32.1047 20.3972 32.0156L19.8463 31.4647L21.15 30.1611C21.3627 29.9483 21.04 29.6284 20.8281 29.8393L19.5245 31.1429L18.8627 30.4811L19.8463 29.4974C19.9327 29.5447 20.0372 29.5465 20.11 29.4738C20.1827 29.4011 20.1809 29.2956 20.1336 29.2102L21.4627 27.8811C21.6754 27.6683 21.3527 27.3483 21.1409 27.5593L19.8291 28.8711L18.8281 27.8702L19.6763 27.022L20.06 27.4056C20.1491 27.4947 20.2927 27.4947 20.3818 27.4056C20.4709 27.3165 20.4709 27.1729 20.3818 27.0838L19.9981 26.7002L21.33 25.3683C21.4727 25.2256 21.3691 25.0456 21.2245 25.0002C21.2136 24.9665 21.2109 24.9311 21.1845 24.9047L20.5391 24.2593L21.7945 23.0038L22.3609 23.5702C22.45 23.6593 22.5936 23.6593 22.6827 23.5702C22.9218 23.3311 22.3754 22.9411 22.1163 22.6829L23.3491 21.4502L23.8081 21.9093C23.8972 21.9983 24.0409 21.9983 24.13 21.9093C24.2191 21.8202 24.2191 21.6765 24.13 21.5874L22.8572 20.3147L23.9845 19.1874L24.68 19.8829L24.0754 20.4874C23.8627 20.7002 24.1854 21.0202 24.3972 20.8093L25.0018 20.2047L25.3927 20.5956C25.4818 20.6847 25.6254 20.6847 25.7145 20.5956C25.8036 20.5065 25.8036 20.3629 25.7145 20.2738L25.3236 19.8829L26.4409 18.7656L27.0891 19.4138C27.1781 19.5029 27.3218 19.5029 27.4109 19.4138C27.5 19.3247 27.5 19.1811 27.4109 19.092L26.7627 18.4438L27.2691 17.9374C27.4818 17.7247 27.1591 17.4047 26.9472 17.6156L26.4409 18.122L25.7391 17.4202C26.3745 17.1393 27.0354 16.9156 27.7109 16.7465L28.6281 17.6638L27.9072 18.3847C27.6945 18.5974 28.0172 18.9174 28.2291 18.7065L28.95 17.9856C29.2245 18.2602 29.5509 17.9438 29.2718 17.6638L30.4081 16.5274L31.1372 17.2565L30.6881 17.7056C30.4754 17.9183 30.7981 18.2383 31.01 18.0274L31.4591 17.5783L31.57 17.6893C31.6591 17.7783 31.8027 17.7783 31.8918 17.6893C31.9809 17.6002 31.9809 17.4565 31.8918 17.3674L31.7809 17.2565C31.8763 17.1611 32.3636 16.7038 32.4063 16.5765C32.4136 16.5774 32.4209 16.5793 32.4291 16.5802L33.19 17.3411L32.7236 17.8074C32.6345 17.8965 32.6345 18.0402 32.7236 18.1293C32.8127 18.2183 32.9563 18.2183 33.0454 18.1293L33.5118 17.6629L33.9472 18.0983C34.0363 18.1874 34.18 18.1874 34.2691 18.0983C34.3582 18.0093 34.3582 17.8656 34.2691 17.7765L33.8336 17.3411L34.1363 17.0383C34.3263 17.1065 34.5145 17.1802 34.7009 17.2583L34.9363 17.4938L34.4191 18.0111C34.33 18.1002 34.33 18.2438 34.4191 18.3329C34.5082 18.422 34.6518 18.422 34.7409 18.3329L35.2582 17.8156L35.5863 18.1438C35.6754 18.2329 35.8191 18.2329 35.9082 18.1438C35.9909 18.0611 35.9891 17.9338 35.9172 17.8447C38.5409 19.3083 40.65 21.7602 41.5363 24.6029C42.63 28.1102 41.96 32.0029 39.7445 35.0138C34.5663 42.0484 23.8045 41.1338 19.5763 34.2784Z" fill="black"/>
<path d="M35.37 22.152C34.7673 21.7165 34.8546 22.0901 27.1973 32.6938L24.1946 28.1047C23.8637 27.602 23.1055 28.101 23.4337 28.6029L26.7991 33.6892C26.8809 33.8147 27.0191 33.8392 27.1691 33.8392H27.1791C27.3246 33.8392 27.4618 33.8247 27.5473 33.7065C35.6227 22.5229 35.9727 22.5865 35.37 22.152Z" fill="black"/>
<path d="M14.4406 43.5029C14.6333 43.3329 14.8588 43.1865 14.6824 42.9865C14.5061 42.7865 14.3315 42.9929 14.1397 43.1629C13.6606 42.6356 13.2033 42.0901 12.7642 41.5301C13.0461 41.3138 13.3497 41.1247 13.6742 40.9774C13.7879 40.9256 13.8388 40.791 13.787 40.6765C13.6242 40.321 12.7942 40.9347 12.4842 41.1729C12.0906 40.6565 11.7124 40.1283 11.3533 39.5883C11.7142 39.3347 12.1079 39.1274 12.5261 38.9774C12.8061 38.8765 12.6588 38.4501 12.3724 38.5492C11.9188 38.7129 11.4906 38.9365 11.0988 39.212C10.7252 38.632 10.3761 38.0374 10.0415 37.4347C10.3288 37.251 10.8433 37.0356 10.6688 36.7629C10.4961 36.4947 10.1124 36.8501 9.82879 37.031C9.52879 36.471 9.24606 35.902 8.98061 35.3238C9.29606 35.1938 9.62515 35.0965 9.96334 35.042C10.087 35.022 10.1715 34.9056 10.1515 34.781C10.0906 34.3983 9.1497 34.761 8.79152 34.9092C8.52334 34.3047 8.27243 33.692 8.04334 33.072L8.36243 32.9574C8.64152 32.8574 8.49606 32.4292 8.20879 32.5292L7.88243 32.6456C7.57788 31.7856 7.32152 30.911 7.09152 30.0283C7.39334 29.9274 7.82152 29.8647 7.72606 29.5765C7.6297 29.291 7.26515 29.4901 6.97515 29.5874C6.79424 28.8474 6.63424 28.102 6.50697 27.3501L7.56515 27.0847C7.85697 27.011 7.74424 26.5683 7.45424 26.6438L6.44334 26.8974C6.32697 26.142 6.24152 25.3829 6.18152 24.6211C6.53152 24.5801 7.11152 24.6101 7.07424 24.2874C7.03515 23.9647 6.4897 24.1265 6.14424 24.1674C6.09515 23.3965 6.07061 22.6247 6.0797 21.852L6.81152 21.8029C7.10243 21.7829 7.0897 21.342 6.78152 21.3492L6.09788 21.3956C6.12697 20.372 6.19606 19.3492 6.33152 18.332C6.34788 18.2074 6.26061 18.0929 6.13606 18.0765C5.87788 18.0447 5.57334 19.3283 5.53697 21.4338L4.67333 21.492C4.54788 21.5001 4.45333 21.6083 4.46243 21.7347C4.48515 22.072 5.16606 21.9147 5.53515 21.8901C5.53606 22.5956 5.56788 23.3792 5.63697 24.2283L4.56152 24.3538C4.2797 24.3874 4.30515 24.8074 4.58788 24.8074C4.61243 24.8074 5.65152 24.6847 5.67606 24.682C5.74697 25.4183 5.85061 26.2001 5.98697 27.0138L5.76152 27.0701C5.50424 27.1347 5.55061 27.5183 5.81697 27.5183C5.86243 27.5183 6.01788 27.4756 6.06152 27.4638C6.19424 28.1956 6.35879 28.9538 6.55334 29.7301L6.05152 29.8974C5.80697 29.9792 5.86879 30.3401 6.12334 30.3401C6.18152 30.3401 6.61424 30.1892 6.6697 30.1701C6.89697 31.0274 7.16061 31.9029 7.47424 32.7929L6.57152 33.1156C6.33334 33.2001 6.39424 33.5565 6.64788 33.5565C6.71152 33.5565 7.57152 33.2401 7.63152 33.2183C7.86152 33.8429 8.1097 34.472 8.38788 35.1038C8.15152 35.2283 7.92152 35.3647 7.70788 35.5256C7.53515 35.6574 7.62788 35.9347 7.84515 35.9347C7.90424 35.9347 8.48697 35.5656 8.57788 35.5165C8.84515 36.1029 9.13243 36.6901 9.44425 37.2765L8.84243 37.662C8.65061 37.7838 8.7397 38.0801 8.96515 38.0801C9.06879 38.0801 9.56606 37.7374 9.66243 37.6765C9.99788 38.2847 10.3588 38.891 10.7461 39.4938C10.5024 39.6974 10.2697 39.9147 10.0642 40.1592C9.9397 40.3083 10.047 40.5329 10.2379 40.5329C10.3024 40.5329 10.367 40.5056 10.4115 40.452C10.5879 40.242 10.7861 40.0538 10.9933 39.8765C11.3497 40.4129 11.7333 40.9447 12.1352 41.472C11.9015 41.6865 11.6806 41.9156 11.4906 42.171C11.3106 42.412 11.677 42.682 11.8542 42.4429C12.0197 42.222 12.2097 42.0229 12.4106 41.8347C12.8442 42.3865 13.3088 42.9301 13.7961 43.4665L12.8342 44.3165C12.6079 44.5174 12.9124 44.8547 13.1352 44.6574L14.1042 43.801C14.2306 43.9365 15.4706 45.2701 15.657 45.2701C15.8624 45.2701 15.9624 45.0174 15.8124 44.8765C15.3379 44.4347 14.8824 43.9747 14.4406 43.5029Z" fill="black"/>
</svg>
