<svg width="24" height="24" viewBox="0 0 24 24" fill="none" xmlns="http://www.w3.org/2000/svg">
<path fill-rule="evenodd" clip-rule="evenodd" d="M4 6C4.55228 6 5 5.55228 5 5C5 4.44772 4.55228 4 4 4C3.44772 4 3 4.44772 3 5C3 5.55228 3.44772 6 4 6ZM8 4C7.448 4 7 4.447 7 5C7 5.553 7.448 6 8 6H20C20.552 6 21 5.553 21 5C21 4.447 20.552 4 20 4H8ZM8 11H20C20.552 11 21 11.447 21 12C21 12.553 20.552 13 20 13H8C7.448 13 7 12.553 7 12C7 11.447 7.448 11 8 11ZM8 18H20C20.552 18 21 18.447 21 19C21 19.553 20.552 20 20 20H8C7.448 20 7 19.553 7 19C7 18.447 7.448 18 8 18ZM5 12C5 12.5523 4.55228 13 4 13C3.44772 13 3 12.5523 3 12C3 11.4477 3.44772 11 4 11C4.55228 11 5 11.4477 5 12ZM4 20C4.55228 20 5 19.5523 5 19C5 18.4477 4.55228 18 4 18C3.44772 18 3 18.4477 3 19C3 19.5523 3.44772 20 4 20Z" fill="#686868"/>
</svg>
