<svg width="24" height="24" viewBox="0 0 24 24" fill="none" xmlns="http://www.w3.org/2000/svg">
<path d="M20.544 3.46008C19.656 2.91908 18.574 2.878 17.65 3.354L15.439 4.48901C15.161 4.63201 14.841 4.63201 14.563 4.48901L10.352 2.32703C9.93502 2.11303 9.47802 2.00703 9.02002 2.00403C9.01302 2.00403 9.00801 2 9.00101 2C8.99401 2 8.98903 2.00403 8.98203 2.00403C8.52402 2.00703 8.06702 2.11303 7.64902 2.32703L4.20203 4.09802C2.84403 4.79502 2 6.19204 2 7.74304V17.9199C2 19.0029 2.54501 19.982 3.45801 20.54C4.34601 21.081 5.42702 21.122 6.35202 20.646L8.56302 19.511C8.84102 19.368 9.16103 19.368 9.43903 19.511L13.65 21.6731C14.069 21.8881 14.529 21.996 14.989 21.998C14.993 21.998 14.997 22 15.001 22C15.005 22 15.009 21.998 15.013 21.998C15.473 21.996 15.933 21.8881 16.352 21.6731L19.799 19.9021C21.157 19.2051 22.001 17.8081 22.001 16.2571V6.08008C22.002 4.99708 21.457 4.01808 20.544 3.46008ZM5.44 18.865C5.007 19.087 4.64001 18.9151 4.50201 18.8311C4.19001 18.6401 4.00201 18.299 4.00201 17.918V7.74097C4.00201 6.94297 4.429 6.22798 5.117 5.87598L8.00201 4.39404V17.6001C7.88501 17.6421 7.763 17.672 7.651 17.73L5.44 18.865ZM10.353 17.73C10.241 17.672 10.119 17.6431 10.002 17.6001V4.39307L13.651 6.26697C13.763 6.32497 13.885 6.35397 14.002 6.39697V19.604L10.353 17.73ZM20.002 16.2571C20.002 17.0551 19.575 17.7701 18.887 18.1221L16.002 19.604V6.39697C16.119 6.35497 16.241 6.32497 16.353 6.26697L18.564 5.13208C18.996 4.90908 19.364 5.08202 19.502 5.16602C19.814 5.35702 20.002 5.69798 20.002 6.07898V16.2571Z" fill="white"/>
</svg>
