<svg width="70" height="6" viewBox="0 0 70 6" fill="none" xmlns="http://www.w3.org/2000/svg">
<path fill-rule="evenodd" clip-rule="evenodd" d="M3 6C4.65685 6 6 4.65685 6 3C6 1.34315 4.65685 0 3 0C1.34315 0 0 1.34315 0 3C0 4.65685 1.34315 6 3 6ZM19 6C20.6569 6 22 4.65685 22 3C22 1.34315 20.6569 0 19 0C17.3431 0 16 1.34315 16 3C16 4.65685 17.3431 6 19 6ZM38 3C38 4.65685 36.6569 6 35 6C33.3431 6 32 4.65685 32 3C32 1.34315 33.3431 0 35 0C36.6569 0 38 1.34315 38 3ZM54 3C54 4.65685 52.6569 6 51 6C49.3431 6 48 4.65685 48 3C48 1.34315 49.3431 0 51 0C52.6569 0 54 1.34315 54 3ZM70 3C70 4.65685 68.6569 6 67 6C65.3431 6 64 4.65685 64 3C64 1.34315 65.3431 0 67 0C68.6569 0 70 1.34315 70 3Z" fill="#DADADA"/>
</svg>
