<svg width="57" height="60" viewBox="0 0 57 60" fill="none" xmlns="http://www.w3.org/2000/svg">
<path d="M23.3827 27.9795C32.9466 34.1295 40.2736 22.1457 38.2063 14.4077C36.9269 9.612 31.826 6.17939 26.8429 6.77886C21.937 7.35518 17.7473 11.7123 17.3054 16.6943C16.9484 20.7385 19.5027 25.4835 23.3827 27.9795ZM37.1429 14.6909C38.9678 21.5275 32.6039 32.5945 23.9789 27.0516C22.1959 25.9056 20.7182 24.2482 19.7286 22.4201L20.8064 21.3424C20.9022 21.3743 20.9694 21.4085 21.0829 21.295C21.159 21.2189 21.1623 21.1142 21.1303 21.0184L22.6665 19.4822C22.7745 19.3743 22.7745 19.2001 22.6665 19.0922C22.5585 18.9842 22.3844 18.9842 22.2764 19.0922L20.7733 20.5952L18.414 18.237C18.4129 18.2359 18.4107 18.237 18.4096 18.2359C18.3203 17.2486 18.3975 16.5169 18.5859 15.6529L19.5964 16.6634L18.5727 17.6861C18.4647 17.794 18.4647 17.9682 18.5727 18.0761C18.6807 18.1841 18.8548 18.1841 18.9628 18.0761L19.9865 17.0535L20.6267 17.6938C20.7347 17.8018 20.9088 17.8018 21.0168 17.6938C21.1248 17.5858 21.1248 17.4117 21.0168 17.3048L20.3766 16.6645L21.8102 15.232C21.9182 15.124 21.9182 14.9499 21.8102 14.8419C21.7022 14.7339 21.5281 14.7339 21.4212 14.8419L19.9876 16.2744L18.7413 15.0292C19.0091 14.1135 19.4168 13.243 19.9325 12.4418L20.4152 12.9245C20.381 13.0215 20.3821 13.1283 20.4603 13.2055C20.5727 13.3179 20.6433 13.2848 20.7413 13.2507L22.7392 15.2485C22.8472 15.3565 23.0213 15.3565 23.1293 15.2485C23.2373 15.1405 23.2373 14.9664 23.1293 14.8584L21.1634 12.8925L22.1882 11.8677L24.077 13.7565C24.185 13.8645 24.3591 13.8645 24.4671 13.7565C24.5751 13.6485 24.5751 13.4744 24.4671 13.3675L22.5783 11.4787L23.396 10.6611C23.504 10.5531 23.504 10.379 23.396 10.2721C23.288 10.1641 23.1139 10.1641 23.0059 10.2721L22.1882 11.0897L21.5722 10.4737C21.9965 10.0748 22.4505 9.71338 22.9342 9.39271L24.8241 11.2826L23.9183 12.1873C23.8103 12.2953 23.8103 12.4694 23.9183 12.5774C24.0263 12.6854 24.2004 12.6854 24.3084 12.5774L25.2142 11.6716L25.4544 11.9118C25.5624 12.0198 25.7365 12.0198 25.8445 11.9118C25.9525 11.8038 25.9525 11.6297 25.8445 11.5217L25.6043 11.2815L26.7503 10.1354C26.8583 10.0274 26.8583 9.85333 26.7503 9.74533C26.6423 9.63734 26.4682 9.63734 26.3602 9.74533L25.2142 10.8914L23.4158 9.09297C24.11 8.68635 24.8494 8.36678 25.6219 8.1497L27.4181 9.94589L27.2991 10.0649C27.1911 10.1729 27.1911 10.347 27.2991 10.4539C27.4071 10.5619 27.5812 10.5619 27.6881 10.4539L27.8071 10.3349L27.9272 10.455C28.0352 10.563 28.2093 10.563 28.3173 10.455C28.4253 10.347 28.4253 10.1729 28.3173 10.0649L28.1972 9.94479L29.5361 8.60591L31.1405 10.2104C31.2485 10.3184 31.4226 10.3184 31.5306 10.2104C31.6386 10.1024 31.6386 9.92826 31.5306 9.82027L29.9063 8.19598C29.935 8.14419 29.9526 8.0946 29.946 8.0373C33.3059 8.78443 36.2547 11.3641 37.1429 14.6909ZM18.5429 19.145L20.3843 20.9853L19.4675 21.901C19.0333 21.0029 18.7192 20.0718 18.5429 19.145ZM26.9729 7.872C27.6099 7.79817 28.1939 7.79817 28.779 7.85107L29.146 8.21802L27.8071 9.5569L26.2434 7.99322C26.4837 7.94363 26.7272 7.90065 26.9729 7.872ZM21.1755 10.8561L21.7992 11.4798L20.7744 12.5046L20.2477 11.9779C20.532 11.5834 20.8394 11.2065 21.1755 10.8561Z" fill="black"/>
<path d="M9.89932 35.3251C8.28826 38.0613 6.63862 40.8437 4.98899 43.6251C3.33826 46.4075 1.68752 49.1911 0.0764576 51.9272C-0.0811226 52.195 0.0125439 52.5399 0.286932 52.6909C5.07384 55.2948 8.88001 57.3445 13.6383 59.933C13.7914 60.0156 13.9733 60.0222 14.1286 59.9506C19.2384 57.6332 24.5488 55.9185 29.7125 53.5912C38.4896 55.4689 47.1433 57.685 55.9645 59.5704C56.4262 59.6652 56.78 59.1858 56.5695 58.7792C52.3247 50.5344 47.1466 43.3639 41.1773 37.464C41.0572 37.345 40.8842 37.2822 40.72 37.3087C39.8285 37.4222 38.7023 37.5092 36.4025 37.7384C38.7618 34.61 41.1586 31.3713 42.9316 27.7756C45.0672 23.446 45.9367 19.285 45.5179 15.405C44.6959 7.79598 38.321 1.23822 30.6878 0.156101C23.1757 -0.905086 15.1612 3.54242 12.0349 10.509C9.37148 16.4453 10.0084 24.1865 13.7385 31.2181C14.6477 32.9306 15.6978 34.5405 16.8152 36.0667L10.4602 35.0607C10.2354 35.0254 10.0139 35.1301 9.89932 35.3251ZM13.0399 10.9608C15.9711 4.4273 23.4876 0.247564 30.5324 1.24704C37.6819 2.26195 43.6534 8.39986 44.4215 15.5251C44.8116 19.1407 43.9543 23.2102 41.9432 27.2907C41.6159 27.9541 41.26 28.6021 40.8919 29.2445C40.9283 29.1464 40.9283 29.0373 40.8489 28.9591L39.326 27.4373C39.412 27.3293 39.4142 27.175 39.315 27.0748C39.2147 26.9745 39.0616 26.9778 38.9525 27.0637L38.5018 26.613C38.3938 26.505 38.2197 26.505 38.1117 26.613C38.0037 26.721 38.0037 26.8951 38.1117 27.002L38.5547 27.4439L37.5816 28.418C37.4736 28.526 37.4736 28.7001 37.5816 28.8081C37.6896 28.9161 37.8637 28.9161 37.9706 28.8081L38.9448 27.834L40.4589 29.3481C40.5525 29.4418 40.6958 29.466 40.8258 29.3569C39.6765 31.3482 38.3596 33.2501 37.0009 35.0959L36.5182 34.6133L36.9227 34.2088C37.0307 34.1008 37.0307 33.9267 36.9227 33.8187C36.8147 33.7108 36.6406 33.7108 36.5326 33.8187L36.1282 34.2232L35.2433 33.3383L35.64 32.9416C35.748 32.8336 35.748 32.6595 35.64 32.5515C35.532 32.4435 35.3579 32.4435 35.2499 32.5515L34.8389 32.9625C34.732 32.8931 34.5931 32.8898 34.4995 32.9835C34.4058 33.0771 34.4091 33.216 34.4785 33.3229L32.1622 35.6392C32.1347 35.6667 32.1346 35.7053 32.1203 35.7395L31.3831 35.0023C31.2751 34.8943 31.101 34.8943 30.993 35.0023C30.885 35.1102 30.885 35.2844 30.993 35.3923L33.0427 37.442C33.046 37.507 33.068 37.5731 33.1176 37.6227C33.1672 37.6723 33.2333 37.6943 33.2983 37.6976L33.3876 37.7869C33.4956 37.8949 33.6697 37.8949 33.7777 37.7869C33.8857 37.6789 33.8857 37.5048 33.7777 37.3968L33.7545 37.3737L36.127 35.0011L36.6251 35.4992C36.6406 35.5147 36.6626 35.5114 36.6802 35.5224C36.1601 36.2243 35.6356 36.9197 35.1154 37.6084V37.6095C34.5303 38.3842 33.9584 39.2239 33.3777 40.0757C32.625 41.1798 31.8503 42.2972 31.0261 43.3165C31.0129 43.2769 31.0107 43.2339 30.9787 43.2019L30.5666 42.7898L31.8592 41.4972C31.8845 41.5049 31.9054 41.527 31.9319 41.527C32.0024 41.527 32.0729 41.5005 32.1269 41.4465C32.2008 41.3727 32.2052 41.2724 32.1776 41.1787L32.9887 40.3677C33.0967 40.2597 33.0967 40.0856 32.9887 39.9776C32.8807 39.8696 32.7066 39.8696 32.5986 39.9776L31.8239 40.7523L30.1952 39.1236L30.8894 38.4293C30.9974 38.3214 30.9974 38.1472 30.8894 38.0392C30.7814 37.9313 30.6073 37.9313 30.4993 38.0392L29.8051 38.7335L29.469 38.3974C29.361 38.2894 29.1869 38.2894 29.0789 38.3974C28.9709 38.5054 28.9709 38.6795 29.0789 38.7875L29.415 39.1236L28.1577 40.3809L27.7676 39.9908C27.6596 39.8828 27.4855 39.8828 27.3775 39.9908C27.2695 40.0988 27.2695 40.2729 27.3775 40.3809L27.7676 40.771L26.7229 41.8157L25.7488 40.8426C25.6408 40.7346 25.4667 40.7346 25.3587 40.8426C25.2507 40.9506 25.2507 41.1247 25.3587 41.2327L26.3328 42.2058L24.9344 43.6041C24.9278 43.6108 24.93 43.6207 24.9245 43.6273C24.9113 43.613 24.8992 43.6019 24.886 43.5887L24.6645 43.365C21.2297 39.9093 17.3607 35.7031 14.705 30.6969C11.1401 23.9672 10.5142 16.5885 13.0399 10.9608ZM32.4531 36.0723C32.4873 36.059 32.5258 36.059 32.5534 36.0304L34.8554 33.7284L35.7403 34.6133L33.3677 36.9858L32.4531 36.0723ZM29.4866 44.5772L27.1185 42.2091L28.1632 41.1644L29.7919 42.7931L28.9775 43.6075C28.8695 43.7154 28.8695 43.8896 28.9775 43.9975C29.0855 44.1055 29.2596 44.1055 29.3676 43.9975L30.182 43.1832L30.5941 43.5953C30.6393 43.6405 30.6988 43.6559 30.7572 43.6625C30.3902 44.0989 30.0145 44.5166 29.6211 44.8934C28.0662 46.3844 26.9587 45.6329 25.3113 44.0064C25.3179 44.0009 25.3267 44.0031 25.3323 43.9975L26.7306 42.5992L29.0987 44.9673C29.2067 45.0753 29.3809 45.0753 29.4888 44.9673C29.5946 44.8593 29.5946 44.6852 29.4866 44.5772ZM28.5522 40.7754L29.8095 39.5181L31.4382 41.1468L30.1809 42.4041L28.5522 40.7754ZM17.7739 37.334C19.753 39.8641 21.8908 42.1363 23.8898 44.1463C25.6353 45.9128 27.7466 48.2125 30.3814 45.6891C31.8536 44.2796 33.0934 42.4581 34.2923 40.6994C34.7033 40.0955 35.1121 39.5071 35.5232 38.9351C37.3524 38.7103 38.85 38.6453 40.5922 38.4371C46.1483 43.97 51.0068 50.628 55.0477 58.2481C46.599 56.4144 38.2042 54.2788 29.7665 52.4782C29.6508 52.4551 29.5307 52.4661 29.4238 52.5157C24.3383 54.8221 19.0511 56.5334 13.9248 58.8365C9.78361 56.5819 5.82207 54.4474 1.31506 51.9967C2.83356 49.4192 4.38512 46.8042 5.93668 44.1882C7.52239 41.5148 9.10811 38.8415 10.6597 36.2089L17.7739 37.334Z" fill="black"/>
<path d="M36.2009 30.0115C36.0929 30.1195 36.0929 30.2936 36.2009 30.4016L37.2809 31.4815L36.0952 32.6672C35.9872 32.7752 35.9872 32.9493 36.0952 33.0573C36.2031 33.1653 36.3773 33.1653 36.4852 33.0573L37.671 31.8716L38.0787 32.2793C38.1867 32.3873 38.3608 32.3873 38.4688 32.2793C38.5768 32.1713 38.5768 31.9972 38.4688 31.8892L38.061 31.4815L39.7459 29.7966C39.8539 29.6886 39.8539 29.5145 39.7459 29.4076C39.6379 29.2996 39.4638 29.2996 39.3558 29.4076L37.671 31.0914L36.591 30.0115C36.483 29.9035 36.3078 29.9035 36.2009 30.0115Z" fill="black"/>
<path d="M22.4751 36.2023L23.4118 35.2656C23.5198 35.1576 23.5198 34.9835 23.4118 34.8755C23.3038 34.7675 23.1297 34.7675 23.0217 34.8755L22.085 35.8122L20.6238 34.351L21.48 33.4947C21.588 33.3868 21.588 33.2126 21.48 33.1047C21.3721 32.9967 21.1979 32.9967 21.0899 33.1047L20.2337 33.9609L18.7031 32.4303L19.858 31.2743C19.966 31.1663 19.966 30.9922 19.858 30.8853C19.75 30.7773 19.5759 30.7773 19.469 30.8853L18.313 32.0402L16.9367 30.6627C16.8287 30.5547 16.6546 30.5547 16.5466 30.6627C16.4386 30.7707 16.4386 30.9448 16.5466 31.0528L17.9229 32.4303L17.3146 33.0385C17.2066 33.1465 17.2066 33.3206 17.3146 33.4286C17.4226 33.5366 17.5967 33.5366 17.7047 33.4286L18.313 32.8203L19.8436 34.351L19.1307 35.0639C19.0227 35.1719 19.0227 35.346 19.1307 35.4529C19.2387 35.5609 19.4128 35.5609 19.5208 35.4529L20.2337 34.74L21.6949 36.2012L20.8773 37.0188C20.7693 37.1268 20.7693 37.3009 20.8773 37.4089C20.9853 37.5169 21.1594 37.5169 21.2674 37.4089L22.085 36.5913L23.7787 38.285C23.8867 38.393 24.0608 38.393 24.1677 38.285C24.2757 38.177 24.2757 38.0029 24.1677 37.8949L22.4751 36.2023Z" fill="black"/>
<path d="M5.92822 47.6231L6.63347 48.3283L5.6946 50.1774C5.62518 50.3129 5.67917 50.4782 5.81471 50.5477C5.94805 50.616 6.11555 50.5642 6.18497 50.4275L7.0434 48.7382L8.0594 49.7553C8.1674 49.8633 8.3415 49.8633 8.4495 49.7553C8.55749 49.6474 8.55749 49.4733 8.4495 49.3653L7.30566 48.2214L8.23021 46.401L8.49027 46.661C8.59826 46.769 8.77237 46.769 8.87926 46.661C8.98725 46.5531 8.98725 46.3789 8.87926 46.271L8.49247 45.8842L9.49636 43.9083L9.55146 43.9635C9.65945 44.0714 9.83356 44.0714 9.94155 43.9635C10.0495 43.8555 10.0495 43.6813 9.94155 43.5734L9.75862 43.3904L10.5642 41.8036L10.9587 42.197C11.0666 42.305 11.2408 42.305 11.3488 42.197C11.4567 42.089 11.4567 41.9149 11.3488 41.8069L10.8275 41.2857L11.265 40.4251C11.3344 40.2895 11.2804 40.1231 11.1449 40.0548C11.0104 39.9854 10.843 40.0394 10.7746 40.1749L10.4187 40.8758L10.0782 40.5353C9.9702 40.4273 9.79609 40.4273 9.6881 40.5353C9.58011 40.6432 9.58011 40.8174 9.6881 40.9242L10.1564 41.3915L9.3509 42.9783L8.96301 42.5904C8.85502 42.4824 8.68091 42.4824 8.57292 42.5904C8.46492 42.6984 8.46492 42.8725 8.57292 42.9794L9.08863 43.4951L8.08475 45.4709L7.20098 44.5872C7.09299 44.4792 6.91888 44.4792 6.81088 44.5872C6.70289 44.6951 6.70289 44.8693 6.81088 44.9762L7.82248 45.9866L6.89794 47.8071L6.31941 47.2286C6.21142 47.1206 6.03731 47.1206 5.92932 47.2286C5.82022 47.341 5.82022 47.5151 5.92822 47.6231Z" fill="black"/>
<path d="M42.8899 46.8119C42.7059 46.9938 42.5373 47.1888 42.4039 47.4092C42.3257 47.5392 42.3665 47.7089 42.4976 47.7883C42.6298 47.8676 42.7984 47.8235 42.8756 47.6957C42.9736 47.5337 43.0937 47.3839 43.226 47.2461L44.329 48.6732L43.1147 49.9437C43.01 50.0539 43.0133 50.228 43.1235 50.3338C43.2337 50.4385 43.4078 50.4352 43.5136 50.325L44.6707 49.1139L45.7561 50.5189L44.5902 51.4501C44.4712 51.5449 44.4525 51.7179 44.5472 51.838C44.642 51.9559 44.8161 51.9757 44.9351 51.881L46.0933 50.9553L47.6559 52.9785L46.3963 54.1212C46.2828 54.2248 46.2751 54.3978 46.3776 54.5113C46.479 54.6237 46.6531 54.6325 46.7666 54.5301L47.9931 53.416L49.3992 55.2353C49.4939 55.3565 49.6669 55.3764 49.7859 55.2849C49.9061 55.1912 49.9281 55.0182 49.8355 54.897L48.403 53.0435L49.3077 52.2215C49.4212 52.119 49.4289 51.946 49.3264 51.8325C49.225 51.719 49.0498 51.7124 48.9374 51.8137L48.0647 52.6049L46.523 50.6093L46.8591 50.3404C46.9782 50.2456 46.998 50.0726 46.9032 49.9536C46.8085 49.8357 46.6354 49.8148 46.5164 49.9107L46.1869 50.174L45.0541 48.7117L45.128 48.6346C45.2327 48.5244 45.2293 48.3503 45.1191 48.2445C45.0101 48.1398 44.8359 48.1431 44.7291 48.2533L44.7125 48.2709L43.6469 46.8913C43.9301 46.6973 44.2475 46.553 44.5814 46.4814C44.7302 46.4505 44.8249 46.3039 44.793 46.1552C44.761 46.0042 44.6122 45.9138 44.4657 45.9436C44.0525 46.0318 43.6568 46.2103 43.3075 46.4538L42.8293 45.8345C42.7356 45.7144 42.5615 45.6912 42.4425 45.7849C42.3224 45.8786 42.3003 46.0516 42.3929 46.1728L42.8899 46.8119Z" fill="black"/>
</svg>
