<svg width="23" height="24" viewBox="0 0 23 24" fill="none" xmlns="http://www.w3.org/2000/svg">
<path d="M11.5 2.41663C9.6046 2.41663 7.75176 2.97868 6.17579 4.03171C4.59982 5.08474 3.3715 6.58145 2.64616 8.33258C1.92082 10.0837 1.73104 12.0106 2.10081 13.8696C2.47059 15.7286 3.38331 17.4361 4.72357 18.7764C6.06382 20.1167 7.77141 21.0294 9.63039 21.3992C11.4894 21.7689 13.4163 21.5791 15.1674 20.8538C16.9185 20.1285 18.4152 18.9001 19.4683 17.3242C20.5213 15.7482 21.0833 13.8954 21.0833 12C21.0833 10.7415 20.8355 9.49528 20.3539 8.33258C19.8722 7.16987 19.1663 6.11341 18.2764 5.22352C17.3866 4.33362 16.3301 3.62772 15.1674 3.14611C14.0047 2.66451 12.7585 2.41663 11.5 2.41663V2.41663ZM11.5 19.6666C9.98368 19.6666 8.50141 19.217 7.24063 18.3746C5.97986 17.5321 4.9972 16.3348 4.41693 14.9339C3.83666 13.533 3.68483 11.9915 3.98065 10.5043C4.27647 9.01708 5.00665 7.65101 6.07885 6.57881C7.15106 5.50661 8.51713 4.77643 10.0043 4.48061C11.4915 4.18479 13.033 4.33661 14.4339 4.91688C15.8348 5.49716 17.0322 6.47981 17.8746 7.74059C18.717 9.00136 19.1667 10.4836 19.1667 12C19.1667 14.0333 18.3589 15.9833 16.9212 17.4211C15.4834 18.8589 13.5333 19.6666 11.5 19.6666V19.6666ZM14.4708 12.6037L12.4583 11.4441V7.20829C12.4583 6.95413 12.3574 6.71037 12.1777 6.53065C11.9979 6.35093 11.7542 6.24996 11.5 6.24996C11.2458 6.24996 11.0021 6.35093 10.8224 6.53065C10.6426 6.71037 10.5417 6.95413 10.5417 7.20829V12C10.5417 12 10.5417 12.0766 10.5417 12.115C10.5473 12.181 10.5635 12.2457 10.5896 12.3066C10.6093 12.3635 10.635 12.4181 10.6663 12.4695C10.6925 12.524 10.7246 12.5754 10.7621 12.6229L10.9154 12.7475L11.0017 12.8337L13.4933 14.2712C13.6394 14.354 13.8046 14.397 13.9725 14.3958C14.1847 14.3973 14.3914 14.3283 14.5601 14.1997C14.7289 14.071 14.8502 13.89 14.905 13.685C14.9598 13.48 14.9451 13.2626 14.863 13.0669C14.781 12.8713 14.6363 12.7083 14.4517 12.6037H14.4708Z" fill="#EB5757"/>
</svg>
