<svg width="61" height="60" viewBox="0 0 61 60" fill="none" xmlns="http://www.w3.org/2000/svg">
<path d="M59.8445 30.1691C55.0773 16.1991 46.5314 5.40817 31.7313 4.40453V1.9318C31.7313 1.02271 30.8094 1.02271 30.8094 1.9318V4.3518C30.8094 4.33726 30.0258 4.32635 29.6469 4.32635C17.0095 4.32635 3.07508 12.8063 0.9243 29.0127C0.903096 29.1745 0.963941 29.3345 1.09577 29.4336C1.2276 29.5327 1.4 29.5518 1.55211 29.49C7.76015 26.8654 18.6828 26.2827 20.3256 30.8054C20.3265 30.8082 20.3283 30.8091 20.3293 30.8109C20.3947 30.9836 20.5911 31.1027 20.7478 31.1063L21.0889 31.1145C21.1968 31.1145 21.1193 31.0791 21.206 31.0054C23.7025 28.9036 27.1227 27.7209 29.8884 27.6291V54.6582C29.8884 59.2036 23.0747 59.2036 23.0747 54.6582C23.0747 53.7491 22.917 54.2036 22.6617 54.2036C22.4063 54.2036 22.2247 53.7491 22.2247 54.6582C22.2247 60.1127 30.8094 60.1127 30.8094 54.6582V27.6354C34.497 27.7563 37.5742 28.8445 40.0661 31.0836C40.1509 31.1591 40.4542 31.0227 40.5695 31.0227H40.9502V31.2909C40.9502 31.2909 43.491 29.4827 47.4892 28.8436C47.5897 28.9054 47.6413 28.94 47.7686 28.7982C51.776 28.23 54.8478 28.9563 58.021 30.3227C58.1887 30.3945 59.2803 30.8818 59.4554 30.8791C59.7357 30.8918 59.9256 30.6782 59.9256 30.4245C59.9247 30.33 59.8952 30.2418 59.8445 30.1691ZM55.0838 21.3954L54.7206 21.7536C54.503 21.5873 54.2412 21.8463 54.4099 22.06C54.1794 22.2873 53.7922 22.5527 54.0144 22.7709C54.1047 22.86 54.2504 22.86 54.3407 22.7709L54.7289 22.3882C54.845 22.5027 55.4544 23.1563 55.6028 23.1563C55.8066 23.1563 55.9107 22.9118 55.766 22.7682L55.0552 22.0673L55.3133 21.8127C56.1348 23.3654 56.9082 25.0427 57.6384 26.8582C57.5674 26.8463 57.4945 26.8563 57.4402 26.91L56.2094 28.1236L55.1142 27.0436L56.1799 25.9918C56.4519 26.26 56.7441 25.9054 56.5385 25.7027L55.5494 24.7263L55.7088 24.5691C55.9227 24.3582 55.5991 24.0345 55.3825 24.2473L55.2212 24.4063L54.9197 24.1091C54.7058 23.8982 54.3776 24.2173 54.5933 24.4309L54.8948 24.7282C54.6394 24.98 54.1232 25.34 54.361 25.5754C54.5878 25.7991 54.9842 25.2818 55.2202 25.05L55.8517 25.6727L54.7851 26.7245L53.4861 25.4445L54.2891 24.6527C54.503 24.4418 54.1794 24.1182 53.9628 24.3309L53.1598 25.1227L51.9595 23.9391C51.7456 23.7282 51.4174 24.0473 51.6331 24.2609L52.8334 25.4445L51.3031 26.9536L50.4688 26.1309L51.5889 25.0273C51.6792 24.9382 51.6792 24.7945 51.5889 24.7054C51.4985 24.6164 51.3529 24.6164 51.2625 24.7054L50.1434 25.8091L49.3487 25.0254C49.1348 24.8145 48.8066 25.1336 49.0223 25.3473L49.817 26.1309L48.6637 27.2682L47.8294 26.4454L48.6444 25.6418C48.7347 25.5527 48.7347 25.4091 48.6444 25.32C48.554 25.2309 48.4083 25.2309 48.318 25.32L47.503 26.1236L47.3758 25.9982C47.1619 25.7873 46.8338 26.1063 47.0495 26.32L47.1767 26.4454L46.3129 27.2973C46.2096 27.1954 45.5219 26.4727 45.3799 26.4573C45.6086 26.2318 45.9884 25.9709 45.768 25.7536C45.6777 25.6645 45.532 25.6645 45.4417 25.7536L43.9049 27.2691L43.7196 27.0863C43.5057 26.8754 43.1775 27.1945 43.3932 27.4082L43.5785 27.5909L42.947 28.2136L42.2695 27.5454C42.0556 27.3345 41.7274 27.6536 41.9431 27.8673L42.6207 28.5354L41.5946 29.5473C41.5117 29.6291 41.5144 29.7536 41.5836 29.8427C41.4158 29.93 41.2526 30.0254 41.0876 30.1182C41.4849 17.8827 35.6383 8.26362 33.7954 5.55089C42.2676 6.80908 49.9156 11.88 55.0838 21.3954ZM52.0572 27.7827C52.0498 27.6427 51.7373 27.3791 51.6304 27.2736L53.1607 25.7645L54.4597 27.0454L53.5129 27.9791C53.0317 27.8973 52.5477 27.8263 52.0572 27.7827ZM49.0666 27.7491C49.0611 27.67 49.0343 27.6309 48.991 27.5891L50.1443 26.4518L50.9786 27.2745L50.5324 27.7145C50.0171 27.7091 49.7976 27.7 49.0666 27.7491ZM46.784 28.0445C46.9232 27.8682 46.7923 27.7654 46.6411 27.6173L47.5049 26.7654L48.3392 27.5882L48.0765 27.8473C47.6423 27.8991 47.2108 27.9645 46.784 28.0445ZM43.6514 28.9218C43.5776 28.8209 43.3656 28.6209 43.2762 28.5327L43.9077 27.91C44.021 28.0218 44.5161 28.5618 44.6645 28.5618C44.8683 28.5618 44.9724 28.3173 44.8277 28.1736L44.234 27.5882L45.1375 26.6973C45.1531 26.8382 45.886 27.5154 45.9893 27.6173L45.1817 28.4136C44.6627 28.5591 44.1538 28.7327 43.6514 28.9218ZM43.1978 29.0973C42.8963 29.22 42.5995 29.3518 42.3045 29.49L42.9498 28.8536L43.1978 29.0973ZM46.3157 27.9391C46.4152 28.0373 46.4051 28.0382 46.5046 28.0927C46.3516 28.1236 46.2023 28.1663 46.0501 28.2009L46.3157 27.9391ZM51.3049 27.5954L51.4681 27.7563C51.3649 27.75 51.2607 27.7463 51.1565 27.7418L51.3049 27.5954ZM54.786 27.3664L56.0315 28.5945C55.3853 28.3882 54.7316 28.2109 54.0642 28.0782L54.786 27.3664ZM33.1962 26.9163L33.9291 26.1936L34.6767 26.93L34.4287 27.1745C34.0213 27.0727 33.611 26.9854 33.1962 26.9163ZM32.502 26.8245C32.5195 26.7509 32.514 26.6727 32.455 26.6154L31.8179 25.9873L33.1187 24.7045C33.3326 24.4936 33.009 24.17 32.7924 24.3827L31.4916 25.6654C31.2786 25.4554 31.0693 25.1663 30.8647 25.3682C30.6591 25.5709 30.9532 25.7763 31.1661 25.9863C31.0657 26.0854 30.5282 26.5909 30.4821 26.7109C29.8773 26.7182 29.2781 26.7691 28.6826 26.8482L28.9978 26.5373C29.2873 26.8227 29.6008 26.4891 29.3242 26.2154L30.8158 24.7445C31.0297 24.5336 30.7061 24.21 30.4895 24.4227L28.9978 25.8936L28.0004 24.91C27.9294 24.84 27.8289 24.8418 27.7431 24.8818C27.6537 24.8218 27.5348 24.8191 27.4555 24.8973L26.2128 26.1227L25.8127 25.7291C25.9906 25.5536 26.1833 25.4063 25.9989 25.2245C25.8081 25.0363 25.6422 25.2554 25.4559 25.4391C25.2715 25.39 25.1434 25.5163 25.1932 25.6982L24.1533 26.7236L23.4748 26.0545C23.2609 25.8436 22.9327 26.1627 23.1484 26.3763L23.8269 27.0454L22.905 27.9545L22.198 27.2563C21.9841 27.0454 21.6559 27.3645 21.8716 27.5782L22.5787 28.2764C22.4828 28.3709 21.3019 29.5073 21.2549 29.6327C21.4614 25.1609 22.7668 7.52453 30.5162 5.25726C30.6702 5.2618 30.8241 5.26362 30.9772 5.27089C31.1118 5.35089 31.2454 5.36908 31.4012 5.29908C31.7912 5.32362 32.1802 5.35453 32.5665 5.39453C32.9786 5.94726 36.054 10.2109 38.1735 16.6736L37.931 16.9127C37.7789 16.7627 37.6471 16.62 37.4774 16.7873C37.3078 16.9545 37.4525 17.0845 37.6047 17.2345L37.4774 17.36C37.3318 17.5036 37.4369 17.7482 37.6406 17.7482C37.7678 17.7482 37.8361 17.6491 37.931 17.5554C38.0324 17.6554 38.4943 18.1518 38.6335 18.1727C38.7875 18.7063 38.934 19.2518 39.0705 19.81C38.9737 19.7145 38.4159 19.1336 38.2859 19.0927L38.5745 18.8082C38.7884 18.5973 38.4648 18.2736 38.2481 18.4863L37.4774 19.2463C37.2636 19.4573 37.5871 19.7809 37.8038 19.5682L38.0177 19.3573C38.0592 19.4854 38.8142 20.1991 38.911 20.2945L37.884 21.3063C37.7365 21.4518 37.8388 21.7409 38.1025 21.6718L38.5044 22.0682C38.0426 22.5236 36.8727 23.4536 37.4857 23.5663C37.5125 23.7027 38.9276 25.0591 39.0271 25.1573C38.934 25.2491 38.8815 25.2954 38.804 25.3891C38.7884 25.1727 38.5459 25.1163 38.4169 25.2436L37.4664 26.18L36.7768 25.5L37.0727 25.2082C37.2866 24.9973 36.963 24.6736 36.7464 24.8863L36.4431 25.1854C36.2264 25.0191 35.9637 25.2782 36.1315 25.4927L34.9994 26.6091L34.2517 25.8727L35.4318 24.7091C35.5221 24.62 35.5221 24.4763 35.4318 24.3873C35.3414 24.2982 35.1958 24.2982 35.1054 24.3873L33.9254 25.5509L33.7401 25.3682C33.5262 25.1573 33.198 25.4763 33.4137 25.69L33.599 25.8727L32.6181 26.84C32.5813 26.8354 32.5416 26.8291 32.502 26.8245ZM31.9488 26.7591C31.6584 26.7354 31.3662 26.7282 31.074 26.7209L31.4916 26.3091L31.9488 26.7591ZM27.0591 27.1473C27.0858 27.0682 27.084 26.9818 27.0195 26.9191L26.5382 26.4445L27.721 25.2782L28.6715 26.2154L27.9155 26.9609C27.6279 27.0145 27.3421 27.0782 27.0591 27.1473ZM20.6907 23C20.7718 22.92 20.769 22.7982 20.7036 22.7091C21.0216 22.47 20.4113 22.0609 20.1274 21.7809L21.2567 20.6673C21.005 22.1663 20.8179 23.6036 20.6814 24.9009L19.7217 23.9545L20.6907 23ZM21.4475 19.5936L20.9396 19.0927L21.6946 18.3491C21.6061 18.7654 21.525 19.1809 21.4475 19.5936ZM21.2502 29.7654C21.2936 29.9109 21.2834 29.8527 21.3489 29.8891C21.3139 29.9163 21.277 29.9409 21.2419 29.9682C21.2438 29.9063 21.2466 29.8354 21.2502 29.7654ZM23.2314 28.2754L24.1533 27.3664C24.2584 27.47 24.4566 27.7027 24.5912 27.7209C24.5018 27.8091 24.4483 27.8654 24.5073 28.0109C24.145 28.17 23.791 28.3463 23.4416 28.5336C23.4001 28.4227 23.33 28.3727 23.2314 28.2754ZM23.0553 28.7445C22.7834 28.9009 22.516 29.0654 22.2533 29.2391L22.905 28.5963L23.0553 28.7445ZM25.4873 26.0509L25.8865 26.4445L24.8392 27.4773C24.8207 27.3436 24.5847 27.1491 24.4796 27.0454L25.4873 26.0509ZM26.2119 26.7654L26.6903 27.2373C26.2036 27.3691 25.726 27.53 25.255 27.7091L26.2119 26.7654ZM38.3975 17.3709L38.2583 17.2327L38.3311 17.1609C38.3523 17.2318 38.3754 17.3 38.3975 17.3709ZM39.3535 24.8354C39.2622 24.7454 37.9402 23.4373 37.8471 23.3591L38.8308 22.3891C39.0032 22.5591 39.5047 23.1536 39.7269 23.0618C39.808 23.5727 39.8781 24.0918 39.9389 24.6173C39.7508 24.3709 39.5665 24.6254 39.3535 24.8354ZM39.1571 22.0673C39.3895 21.8382 39.064 21.5163 38.8308 21.7463L38.4602 21.3809L39.2558 20.5973C39.3977 21.2309 39.524 21.88 39.6384 22.5418L39.1571 22.0673ZM36.4523 25.8218L37.1419 26.5018L35.9996 27.6273C35.9379 27.5154 35.4188 27.0209 35.3276 26.9309L36.4523 25.8218ZM35.0022 27.2518L35.1211 27.3691C35.0612 27.3509 35.0022 27.3291 34.9413 27.3118L35.0022 27.2518ZM37.4673 26.8227L38.5339 27.8745L38.0582 28.3436C37.99 28.4109 37.9909 28.5036 38.025 28.5863C37.5116 28.3054 36.9824 28.0554 36.4403 27.8354L37.4673 26.8227ZM38.8603 28.1964C38.9764 28.3109 39.6716 29.0491 39.8209 29.0491C40.0246 29.0491 40.1288 28.8045 39.9841 28.6609L39.1866 27.8745L40.0357 27.0373C40.2496 26.8263 39.926 26.5027 39.7094 26.7154L38.8603 27.5527L37.7936 26.5009C37.8831 26.4127 38.6722 25.64 38.7524 25.5436C38.7626 25.6836 38.8658 25.7554 38.9764 25.7554C39.1129 25.7554 39.2484 25.5809 39.3535 25.4773C39.4614 25.5836 39.6273 25.7891 39.7647 25.7891C39.9684 25.7891 40.0726 25.5445 39.9278 25.4009L39.6798 25.1563C39.7785 25.0591 39.9168 24.9427 39.9629 24.8291C40.1472 26.49 40.2284 28.2218 40.174 30.0118C39.5683 29.5309 38.934 29.0927 38.2675 28.7118C38.4012 28.6845 38.7589 28.2954 38.8603 28.1964ZM28.3774 5.26635C25.0143 7.45362 23.0489 12.4291 21.9029 17.4109L21.5489 17.0627C21.8015 16.8136 22.3086 16.46 22.0717 16.2263C21.8301 15.9882 21.4402 16.5282 21.1793 16.7845C21.0336 16.7745 20.9303 16.8773 20.9405 17.02L20.5957 17.36C20.45 17.5036 20.5551 17.7482 20.7589 17.7482C20.9008 17.7482 21.1138 17.4927 21.2226 17.3845L21.6494 17.8054C21.5204 17.8482 20.616 18.7691 20.5201 18.8645C20.4058 18.9 20.4159 18.8891 20.38 19.0018L20.1311 19.2473C19.9163 19.4591 20.2417 19.7809 20.4574 19.5691L20.6132 19.4154C20.7119 19.5118 21.1691 19.9973 21.3028 20.0327C21.1756 20.0791 19.8656 21.3982 19.7697 21.4927C19.5217 21.4273 19.3871 21.6964 19.5678 21.8745C19.6037 21.99 19.5954 21.9782 19.7079 22.0127L20.3781 22.6736C20.2906 22.7482 19.4443 23.5854 19.3631 23.6663C19.1787 23.6173 19.0506 23.7436 19.1004 23.9254C18.8644 24.1582 18.456 24.4391 18.6809 24.6609C18.9022 24.8791 19.1668 24.5036 19.3954 24.2782L20.4012 25.27C20.4961 25.3636 20.557 25.3363 20.6399 25.3054C20.616 25.54 20.5948 25.7691 20.5736 25.9927C20.5026 25.9809 20.4298 25.99 20.3744 26.0445L19.1345 27.2673L18.6487 26.7882L19.7476 25.7045C19.8379 25.6154 19.8379 25.4718 19.7476 25.3827C19.6572 25.2936 19.5115 25.2936 19.4212 25.3827L18.3223 26.4664L17.6724 25.8254C17.4585 25.6145 17.1303 25.9336 17.346 26.1473L17.996 26.7882L17.4613 27.3154C16.9201 27.1427 16.3107 26.9973 15.6525 26.8809L17.6705 24.8909C17.7609 24.8018 17.7609 24.6582 17.6705 24.5691C17.5802 24.48 17.4345 24.48 17.3442 24.5691L15.304 26.5809L14.4697 25.7582L15.7014 24.5445C15.9152 24.3336 15.5917 24.01 15.375 24.2227L14.1443 25.4363C13.9488 25.2427 13.7709 25.0036 13.5755 25.1963C13.38 25.3891 13.6225 25.5645 13.8188 25.7573L12.9753 26.5891C12.8462 26.5827 12.7163 26.5791 12.5854 26.5745C12.649 26.4854 12.6517 26.3664 12.5706 26.2873L11.9751 25.7009L13.6732 24.0264C13.7635 23.9373 13.7635 23.7936 13.6732 23.7045C13.5828 23.6154 13.4372 23.6154 13.3468 23.7045L11.6487 25.3791L11.5215 25.2536C11.3076 25.0427 10.9794 25.3618 11.1951 25.5754L11.3224 25.7009L10.418 26.5927C10.2769 26.6 10.1359 26.6127 9.9939 26.6218C10.0704 26.5327 10.0723 26.4009 9.98745 26.3163L9.36333 25.7009L10.6595 24.4227C10.8734 24.2118 10.5498 23.8882 10.3332 24.1009L9.01854 25.3973C8.81019 25.2954 8.62766 25.4754 8.73091 25.6809L7.80256 26.5963C7.85972 26.5082 7.86248 26.3945 7.78504 26.3173L7.101 25.6427L7.70299 25.0491C7.91687 24.8382 7.59329 24.5145 7.37664 24.7273L5.52732 26.5509C5.42591 26.4509 5.0507 26.0527 4.92532 26.0136L5.78822 25.1618C6.0021 24.9509 5.67851 24.6273 5.46187 24.84L3.23457 27.0363L2.99119 26.7963C2.77731 26.5854 2.44911 26.9045 2.66484 27.1182L2.90822 27.3582L1.94023 28.3127C4.29475 13.68 16.7025 5.78999 28.3774 5.26635ZM14.8256 26.7509C14.4273 26.6982 14.0115 26.66 13.5875 26.6282L14.1443 26.0791L14.8256 26.7509ZM5.43421 27.2891L5.55682 27.1682C5.7624 27.2354 5.88778 27.0809 5.82694 26.9018L6.77649 25.9654C6.98299 26.1691 7.50847 26.8073 7.74356 26.6582L7.50202 26.8963C6.80599 27.0027 6.11457 27.1309 5.43421 27.2891ZM3.56369 27.36L4.6589 26.28C4.69854 26.4036 5.10325 26.7745 5.20374 26.8736C5.10509 26.9709 4.66719 27.3827 4.6128 27.4973C4.36942 27.5618 4.12881 27.63 3.88819 27.7C3.81628 27.5991 3.65219 27.4473 3.56369 27.36ZM3.40512 27.8463C3.23918 27.8991 3.07232 27.9509 2.90822 28.0063L3.23733 27.6809L3.40512 27.8463ZM9.03882 26.0218C9.13285 26.1145 9.57721 26.5563 9.67677 26.6436C9.20476 26.68 8.73367 26.7263 8.26351 26.7863L9.03882 26.0218ZM11.091 26.5727L11.6496 26.0218L12.2018 26.5663C11.5833 26.5554 12.0276 26.5491 11.091 26.5727ZM17.9397 27.4863L18.2495 27.1091L18.8247 27.7482V27.3863H18.9722C19.1465 27.5945 19.9919 28.74 20.1698 28.5645C20.2601 28.4754 20.2601 28.3545 20.1698 28.2654L19.4599 27.5773L20.5238 26.5336C20.4371 27.56 20.3846 28.4363 20.3505 29.1218C19.648 28.3091 18.8635 27.8373 17.9397 27.4863ZM56.9091 28.8909C56.887 28.7591 56.6381 28.55 56.533 28.4464C56.6187 28.3618 57.6983 27.3036 57.773 27.21C58.0809 27.9882 58.3833 28.7854 58.6764 29.6145C56.875 28.8309 57.2576 29.0218 56.9091 28.8909Z" fill="black"/>
<path d="M28.167 9.39183L27.8876 9.19546C27.6461 9.02001 27.3695 9.3891 27.6203 9.56455L27.8784 9.74637C27.5318 10.2009 27.2395 10.7173 26.9805 11.2582C26.6689 11.1564 26.2586 10.9364 26.16 11.23C26.0632 11.5173 26.4909 11.5773 26.7878 11.6736C26.479 12.3691 26.4006 12.6046 26.1314 13.3373L25.5903 13.1655C25.2962 13.0773 25.1625 13.5064 25.4492 13.5991L25.9692 13.7646C25.7055 14.5146 25.4713 15.2591 25.263 16.0009C24.9219 15.9073 24.3881 15.6573 24.2978 15.9709C24.2083 16.2864 24.8057 16.3473 25.1459 16.4409C24.9541 17.1482 24.7716 17.8609 24.5983 18.5782C24.4296 18.5418 24.2646 18.4927 24.1125 18.4173C23.8368 18.2827 23.6368 18.69 23.905 18.8236C24.0913 18.9164 24.2885 18.9818 24.4895 19.0264C24.4895 19.0264 24.0645 20.7973 24.024 20.9673C23.952 21.2618 24.4019 21.3627 24.472 21.0736C24.4923 20.9882 24.9505 19.0791 24.9505 19.0791C25.2925 19.0909 25.8336 19.0909 25.7599 18.7609C25.7 18.4882 25.3607 18.6273 25.0611 18.6282C25.2307 17.9264 25.4068 17.2373 25.5893 16.5627L25.7451 16.6055C26.0447 16.6827 26.1581 16.2464 25.8696 16.1673L25.7064 16.1227C25.9138 15.3836 26.1462 14.6464 26.408 13.9036C26.4633 13.9209 26.6403 13.9836 26.6974 13.9836C26.9565 13.9836 27.0183 13.6209 26.7684 13.54L26.5712 13.4773C26.8367 12.7591 26.9215 12.5055 27.2285 11.8173C27.682 11.9655 27.7632 11.5127 27.423 11.4018C27.6654 10.9009 27.9374 10.4264 28.2564 10.0109C28.5228 10.1982 28.8547 10.5336 29.0372 10.2818C29.217 10.0336 28.8123 9.84455 28.5495 9.66001C28.9035 9.27819 29.3101 8.96819 29.795 8.77455C29.913 8.72728 29.9702 8.59546 29.9222 8.4791C29.7213 7.99183 28.5311 8.99001 28.167 9.39183Z" fill="black"/>
<path d="M8.64207 19.3455C8.89375 18.7909 9.17493 18.2509 9.48192 17.7273C9.62481 17.82 9.9991 18.0291 10.1697 18.0291C10.437 18.0291 10.4877 17.65 10.2296 17.5827C10.0489 17.5345 9.88387 17.4491 9.72991 17.3473C10.1411 16.6836 10.5974 16.0509 11.0915 15.4473C11.204 15.5882 11.4345 15.9473 11.6014 15.9473C11.7913 15.9473 11.9019 15.73 11.783 15.58L11.3856 15.0809C11.8346 14.56 12.3057 14.0591 12.8109 13.5918C13.046 13.8654 13.3013 13.9927 13.6563 13.95C13.9577 13.9136 13.9015 13.4636 13.5991 13.4991C13.4073 13.5173 13.282 13.4418 13.1584 13.2982C13.6941 12.8273 14.2583 12.3909 14.8464 11.9845C14.9709 12.13 15.336 12.5036 15.5296 12.5036C15.7637 12.5036 15.8485 12.1945 15.6448 12.0791C15.4844 11.9882 15.347 11.8627 15.2235 11.7254C15.8218 11.3336 16.4367 10.9673 17.0793 10.6473C17.1954 10.7773 17.6905 11.4009 17.8536 11.4009C18.0509 11.4009 18.157 11.1709 18.027 11.0236L17.5153 10.4473C17.9495 10.2454 18.3865 10.0473 18.8373 9.87999C19.1249 9.77272 18.9562 9.34817 18.6751 9.45363C18.1708 9.6409 17.6803 9.85908 17.1963 10.0882L16.8893 9.74272C16.6875 9.51817 16.3427 9.81635 16.5427 10.0427L16.7695 10.2973C16.1463 10.6127 15.5471 10.9682 14.9654 11.3491C14.8768 11.1773 14.8077 10.9973 14.7828 10.8064C14.7662 10.6818 14.6473 10.6 14.5247 10.61C14.1476 10.6573 14.4076 11.2827 14.5883 11.6091C13.9992 12.0164 13.4341 12.4527 12.8966 12.9227C12.6302 12.4927 12.3333 12.0136 12.03 12.4164L12.1969 12.5691L12.1185 12.6645C12.2863 12.7982 12.4311 13.0364 12.5445 13.22C12.0337 13.69 11.5516 14.1891 11.0962 14.7127L10.6223 14.1173C10.4352 13.8818 10.071 14.1609 10.2591 14.3982L10.8012 15.08C10.2858 15.7036 9.81196 16.3591 9.38143 17.0454C9.17308 16.8082 9.06522 16.41 8.80617 16.5327C8.47244 16.6809 8.8707 17.1791 9.12699 17.4373C8.79695 17.9954 8.49273 18.5691 8.22353 19.1618C8.17098 19.2764 8.22353 19.41 8.33969 19.4618C8.45216 19.5109 8.58952 19.4627 8.64207 19.3455Z" fill="black"/>
</svg>
