<svg width="40" height="40" viewBox="0 0 40 40" fill="none" xmlns="http://www.w3.org/2000/svg">
<g clip-path="url(#clip0_2146_11701)">
<path fill-rule="evenodd" clip-rule="evenodd" d="M20 40C31.0457 40 40 31.0457 40 20C40 8.9543 31.0457 0 20 0C8.9543 0 0 8.9543 0 20C0 31.0457 8.9543 40 20 40Z" fill="#545758"/>
<path d="M5.87891 16.9541V24H7.6709V21.9346H8.85742C10.4248 21.9346 11.5039 20.9531 11.5039 19.4541C11.5039 17.9404 10.4785 16.9541 8.96484 16.9541H5.87891ZM7.6709 18.3311H8.49121C9.24805 18.3311 9.69238 18.7168 9.69238 19.459C9.69238 20.1914 9.24316 20.582 8.48145 20.582H7.6709V18.3311Z" fill="white"/>
<path d="M19.1066 24V16.9541H17.3195V19.7178H14.5119V16.9541H12.7199V24H14.5119V21.1582H17.3195V24H19.1066Z" fill="white"/>
<path d="M22.4564 19.9033V16.9541H20.6645V24H22.4564V21.2559H22.7104L24.8539 24H26.9633L24.1996 20.4209L26.8168 16.9541H24.893L22.7006 19.9033H22.4564Z" fill="white"/>
<path d="M30.6891 16.7637C28.5699 16.7637 27.2125 18.1846 27.2125 20.4746C27.2125 22.7695 28.5602 24.1904 30.6891 24.1904C32.8082 24.1904 34.1607 22.7695 34.1607 20.4746C34.1607 18.1846 32.8033 16.7637 30.6891 16.7637ZM30.6891 18.248C31.6754 18.248 32.3346 19.1172 32.3346 20.4746C32.3346 21.8369 31.6754 22.7061 30.6891 22.7061C29.6881 22.7061 29.0387 21.8369 29.0387 20.4746C29.0387 19.1172 29.6979 18.248 30.6891 18.248Z" fill="white"/>
</g>
<defs>
<clipPath id="clip0_2146_11701">
<rect width="40" height="40" fill="white"/>
</clipPath>
</defs>
</svg>
