<svg width="40" height="40" viewBox="0 0 40 40" fill="none" xmlns="http://www.w3.org/2000/svg">
<g clip-path="url(#clip0_2146_11606)">
<path d="M20 40C31.0457 40 40 31.0457 40 20C40 8.9543 31.0457 0 20 0C8.9543 0 0 8.9543 0 20C0 31.0457 8.9543 40 20 40Z" fill="#F2F4F5"/>
<path d="M9.58789 28.158L11.1661 29.3849L12.7443 30.6096C12.7443 30.6096 13.0078 29.6761 13.6686 28.4491L10.5156 25.994C9.85247 27.2221 9.58905 28.1568 9.58905 28.1568L9.58789 28.158Z" fill="#C76300"/>
<path d="M10.7134 25.6381L13.8698 28.0921C14.213 27.4994 14.6451 26.857 15.18 26.2262L12.0247 23.7734C11.5329 24.3546 11.094 24.9787 10.7134 25.6381Z" fill="#D18212"/>
<path d="M12.2939 23.4707L15.4481 25.9235C15.9437 25.3805 16.5191 24.8559 17.1811 24.3892L14.027 21.9352C13.3942 22.3812 12.813 22.8962 12.2939 23.4707Z" fill="#D19429"/>
<path d="M24.6367 16.096L27.792 18.5488C28.3212 18.052 28.8411 17.4998 29.3483 16.8747L26.193 14.4219C25.6846 15.0458 25.1647 15.5992 24.6367 16.096Z" fill="#F5D145"/>
<path d="M17.0977 20.4182L20.2541 22.8711C21.0086 22.573 21.8254 22.2552 22.6792 21.8728L19.5228 19.42C18.6701 19.8024 17.8533 20.119 17.0977 20.4182Z" fill="#FADE6E"/>
<path d="M14.6486 21.532L14.3794 21.6995L17.5358 24.1535C17.6248 24.0969 17.7138 24.0379 17.805 23.9859C18.3816 23.644 19.0644 23.3493 19.82 23.0443L16.6647 20.5915C15.9079 20.8954 15.2251 21.19 14.6486 21.532Z" fill="#FAAB00"/>
<path d="M29.1691 9.4342L32.3233 11.8882C32.626 11.1996 32.9137 10.4625 33.1875 9.67567L30.0299 7.22284C29.7572 8.00849 29.4695 8.74561 29.168 9.4342H29.1691Z" fill="#E39105"/>
<path d="M27.9387 11.8743L31.0951 14.3271C31.4637 13.6917 31.8172 13.01 32.1546 12.2671L29.0004 9.81427C28.6608 10.5572 28.3061 11.24 27.9375 11.8743H27.9387Z" fill="#E3A30A"/>
<path d="M19.9355 19.2305L23.092 21.6845C23.8427 21.3336 24.5712 20.937 25.2733 20.4968L22.1192 18.0428C21.3809 18.5072 20.6484 18.8943 19.9355 19.2305Z" fill="#FFFABA"/>
<path d="M22.4772 17.8094L25.6314 20.2634C26.2845 19.8288 26.9057 19.3481 27.4904 18.825L24.3362 16.3721C23.7204 16.9209 23.0977 17.3958 22.4761 17.8106L22.4772 17.8094Z" fill="#FFDB7D"/>
<path d="M26.4435 14.1053L29.6 16.5593C30.0425 15.9897 30.4734 15.3635 30.8882 14.676L27.7306 12.2255C27.3147 12.9118 26.8849 13.538 26.4424 14.1065L26.4435 14.1053Z" fill="#EBB000"/>
<path d="M5 24.5926L6.57823 25.8173L8.15645 27.0454C8.15645 27.0454 8.41872 26.1119 9.0819 24.8803L5.92776 22.4274C5.26227 23.659 5 24.5926 5 24.5926Z" fill="#870012"/>
<path d="M6.12549 22.0727L9.28194 24.5255C9.62508 23.9328 10.0572 23.2904 10.5921 22.6608L7.43683 20.2068C6.94529 20.7884 6.50682 21.4129 6.12664 22.0727H6.12549Z" fill="#B20A1C"/>
<path d="M7.70361 19.9052L10.8601 22.3581C11.3805 21.7845 11.9625 21.27 12.5954 20.8237L9.43897 18.3698C8.80569 18.8161 8.22371 19.331 7.70361 19.9052Z" fill="#BA001C"/>
<path d="M20.0474 12.5294L23.205 14.9822C23.7341 14.4854 24.254 13.9332 24.7612 13.3093L21.6048 10.8564C21.0976 11.4803 20.5765 12.0338 20.0485 12.5294H20.0474Z" fill="#D93636"/>
<path d="M12.5112 16.8528L15.6677 19.3045C16.421 19.0075 17.239 18.6898 18.0916 18.3074L14.9352 15.8546C14.0825 16.2381 13.2657 16.5547 12.5112 16.8528Z" fill="#FA8C8C"/>
<path d="M10.0615 17.9654C9.96907 18.0197 9.88126 18.0763 9.79346 18.1341L12.9488 20.5869C13.0366 20.5303 13.1255 20.4737 13.2168 20.4194C13.7922 20.0785 14.4761 19.7828 15.2317 19.4777L12.0753 17.0261C11.3197 17.3311 10.6369 17.6269 10.0615 17.9654Z" fill="#E50000"/>
<path d="M23.3516 8.30886L26.508 10.7605C26.8743 10.1262 27.2278 9.44342 27.5663 8.70168L24.4122 6.25C24.0737 6.98943 23.719 7.67341 23.3516 8.30886Z" fill="#BD001C"/>
<path d="M15.3486 15.6638L18.5028 18.1178C19.2168 17.7828 19.947 17.3957 20.6864 16.9301L17.53 14.4761C16.7917 14.9406 16.0603 15.3288 15.3486 15.6638Z" fill="#FFCCCC"/>
<path d="M17.8882 14.2439L21.0446 16.6979C21.6662 16.2831 22.2878 15.8083 22.9025 15.2595L19.7483 12.8066C19.1337 13.3554 18.5109 13.8314 17.8882 14.2439Z" fill="#EB8A96"/>
<path d="M21.8569 10.5399L25.0111 12.9927C25.4547 12.4231 25.8845 11.7981 26.3005 11.1118L23.1463 8.65894C22.7524 9.30977 22.3219 9.93775 21.8569 10.5399Z" fill="#C90012"/>
<path d="M14.1772 31.7234L15.7532 32.9504L17.3325 34.1763C17.3325 34.1763 17.5937 33.2439 18.2568 32.0146L15.1027 29.5606C14.4384 30.7899 14.1772 31.7234 14.1772 31.7234Z" fill="#870012"/>
<path d="M15.3013 29.2059L18.4577 31.6576C18.837 30.9982 19.2751 30.3744 19.7667 29.794L16.6126 27.34C16.1208 27.9216 15.6819 28.5461 15.3013 29.2059Z" fill="#B20A1C"/>
<path d="M16.8794 27.0373L20.0335 29.4902C20.5303 28.9471 21.1057 28.4214 21.77 27.9558L18.6147 25.5042C17.9815 25.9501 17.3995 26.4646 16.8794 27.0385V27.0373Z" fill="#BA001C"/>
<path d="M29.2246 19.6614L32.3787 22.1143C32.9091 21.6175 33.429 21.0664 33.9362 20.4413L30.782 17.9885C30.2737 18.6124 29.7538 19.1658 29.2246 19.6614Z" fill="#D93636"/>
<path d="M21.6855 23.9848L24.8408 26.4376C25.5941 26.1384 26.4133 25.823 27.2671 25.4383L24.113 22.9866C23.258 23.3702 22.44 23.6856 21.6867 23.9848H21.6855Z" fill="#FA8C8C"/>
<path d="M19.2363 25.0985C19.145 25.154 19.0561 25.2118 18.9683 25.2661L22.1224 27.7189C22.2114 27.6623 22.3003 27.6057 22.3928 27.5525C22.9681 27.2106 23.6509 26.9148 24.4066 26.6109L21.2513 24.1581C20.4956 24.4631 19.8128 24.7577 19.2363 25.0985Z" fill="#E50000"/>
<path d="M24.5244 22.796L27.6786 25.25C28.3914 24.9149 29.1228 24.5267 29.8622 24.0623L26.7046 21.6094C25.9686 22.075 25.2338 22.4621 24.5244 22.796Z" fill="#FFCCCC"/>
<path d="M27.064 21.3772L30.2193 23.83C30.8724 23.3955 31.4936 22.9148 32.0782 22.3916L28.9241 19.9376C28.3083 20.4876 27.6855 20.9624 27.064 21.3772Z" fill="#EB8A96"/>
<path d="M31.0327 17.6719L34.1869 20.1247C34.6294 19.5563 35.0592 18.9301 35.4751 18.2426L32.3186 15.791C31.9039 16.4784 31.4752 17.1023 31.0327 17.6719Z" fill="#C90012"/>
</g>
<defs>
<clipPath id="clip0_2146_11606">
<rect width="40" height="40" fill="white"/>
</clipPath>
</defs>
</svg>
