<svg width="40" height="40" viewBox="0 0 40 40" fill="none" xmlns="http://www.w3.org/2000/svg">
<g clip-path="url(#clip0_2146_11620)">
<path d="M20 40C31.0457 40 40 31.0457 40 20C40 8.9543 31.0457 0 20 0C8.9543 0 0 8.9543 0 20C0 31.0457 8.9543 40 20 40Z" fill="url(#paint0_linear_2146_11620)"/>
<path fill-rule="evenodd" clip-rule="evenodd" d="M31.4301 18.1253C31.2824 18.2517 31.135 18.356 30.9886 18.485C29.9954 19.2413 28.4128 19.8551 26.2413 20.4265C21.728 21.6481 18.4545 21.8145 14.7408 22.726C14.0038 22.9142 13.2444 23.1459 12.5501 23.4412C13.2444 23.801 14.0038 24.1166 14.7636 24.413C16.2814 23.971 17.0018 23.7803 19.1926 23.4216C20.0367 23.2709 22.6107 22.8078 24.4671 22.4319C27.8235 21.7115 32.7385 20.1501 31.4301 18.1253ZM29.2584 13.9051C28.5379 13.5904 27.6521 13.2721 26.7056 13.0211C26.2804 13.3588 25.7985 13.6525 25.0777 13.9298C26.2624 14.1371 27.1486 14.4748 28.158 14.7508C28.3271 14.8359 29.1286 14.0999 29.2584 13.9051ZM12.8229 18.3997C17.2115 17.112 21.8111 16.7126 26.4735 15.4685C24.6593 14.9838 23.6433 14.7711 21.728 15.0045C18.9415 15.3422 15.8612 15.9298 13.2255 16.7122C12.1895 17.0297 6.76899 18.5684 8.33219 20.7197C8.33186 20.7418 9.25697 19.4351 12.8229 18.3997ZM9.80593 25.782C9.78459 26.1844 10.0394 26.5424 10.567 26.9862C10.629 26.773 10.7361 26.6071 10.8839 26.3957C10.5237 26.2033 10.1645 26.0154 9.80593 25.782ZM11.8537 25.5951C12.1895 25.3824 12.5891 25.1917 13.0323 25.0237C12.4217 24.748 11.768 24.4774 11.1346 24.181C10.8391 24.3707 10.5667 24.56 10.3559 24.748C10.8608 25.0447 11.3478 25.318 11.8537 25.5951ZM28.707 16.2706C27.8239 16.6922 26.5582 17.1123 24.7436 17.5569C23.2458 17.9356 19.6169 18.463 15.7151 19.306C14.4911 19.5807 11.135 20.3601 9.48943 21.7525C9.95368 22.1355 10.2488 22.2178 10.7551 22.5133C11.4301 22.0695 12.3586 21.6482 13.7317 21.2871C16.1126 20.6571 17.908 20.3838 20.0611 20.0268C22.1909 19.7054 26.2187 18.8637 28.4342 18.0607C29.174 17.8093 29.8476 17.4716 30.3319 17.0679C30.1835 16.902 28.7494 16.2059 28.707 16.2706ZM29.9954 15.4879C30.4369 15.6995 30.8409 15.8475 31.219 16.1222C31.4918 15.5935 31.3227 15.2558 30.7561 14.7715C30.523 15.0472 30.2681 15.2778 29.9954 15.4879ZM9.59617 23.3986C9.1936 23.1899 8.94114 23.021 8.60295 22.8083C8.43385 23.19 8.77476 23.6086 9.11057 23.801C9.25697 23.6527 9.44876 23.5263 9.59617 23.3986ZM28.2427 11.2923C28.158 11.5877 27.8452 11.946 27.6321 12.1794C28.2868 12.3484 28.9618 12.598 29.5932 12.8314C29.5098 12.2411 28.8347 11.6714 28.2427 11.2923ZM7.61143 15.0225C12.2109 12.0283 17.2959 10.2573 25.9021 11.7564C26.3665 11.4803 26.6396 11.206 26.7691 10.6579C24.6152 9.87826 22.2753 9.60357 19.2596 9.64455C16.5572 9.72957 11.6836 10.7403 9.07059 12.2834L9.8693 11.292C11.6836 10.2129 16.4294 8.80153 19.9967 8.73717C22.5054 8.67553 23.7923 8.82117 26.789 9.62288C26.5132 9.12024 25.9025 8.86487 24.995 8.44352C22.1065 7.15578 16.7263 7.02809 12.3183 8.98985C12.8649 8.61084 13.4139 8.2718 14.1329 7.96019C15.5857 7.28346 17.9713 6.62841 20.9446 6.69175C23.3305 6.73409 26.1574 7.5568 27.8859 9.26589C28.1797 9.62288 28.3502 9.98123 28.4132 10.2573C29.7849 10.9533 30.585 11.6067 31.0279 12.366C31.2193 12.7671 31.2827 13.1884 31.197 13.6731C31.7663 14.0094 32.0425 14.3062 32.3393 14.6892C32.5261 15.0049 32.6738 15.3605 32.7178 15.682C32.7795 16.1005 32.8215 16.5866 32.3786 17.1567C32.8429 17.39 33.2214 18.0407 33.2668 18.3181C33.4976 19.3477 32.8218 20.3607 31.9584 21.1435C30.9442 22.0275 28.708 23.0836 26.8933 23.549C23.3095 24.454 20.1225 24.8357 17.5935 25.2997C18.7314 25.573 20.2712 25.9338 22.7822 25.9338C28.1591 25.9338 32.9059 23.3996 32.9059 23.3996C32.9059 23.3996 32.8023 23.7193 32.6951 24.0147C29.2776 26.0807 23.8581 26.9442 21.5355 26.8388C19.1937 26.7318 17.2123 26.3748 15.2712 25.7831C14.6799 25.9531 14.0893 26.1438 13.5213 26.3748C16.4752 27.7242 18.71 28.0205 21.221 28.2088C23.7931 28.4009 28.0568 27.7862 31.6402 26.4815C31.4715 26.6518 31.3874 26.9031 31.2201 27.0515C29.3831 28.0205 25.504 28.9916 23.5416 29.0752C21.5989 29.1603 19.2377 29.0752 17.1695 28.6949C15.3976 28.3379 13.9401 27.7862 12.4223 27.1148C12.1499 27.3221 12.0235 27.5788 11.9581 27.8738C17.8886 30.974 23.4132 31.037 29.7232 29.0752L29.1506 29.6243C22.2106 32.4515 16.7897 31.353 12.5901 29.3293C12.4437 29.2649 12.2749 29.2003 12.1499 29.1166C12.5511 29.7933 15.7548 32.134 19.3413 32.429C21.8117 32.6404 24.8273 32.2177 26.6205 31.5028L25.567 32.0491C24.7002 32.4718 22.4023 33.4438 19.1937 33.2322C14.9123 32.9358 12.5057 31.037 11.4308 30.0473C10.9232 29.5802 10.6938 29.0546 10.5447 28.4012C9.57414 27.8946 8.96249 27.3658 8.45757 26.5641C8.16208 26.1221 8.22409 25.5965 8.28746 25.15L8.41725 24.7741C7.95165 24.4337 7.46605 24.0753 7.27662 23.7197C6.85303 22.9593 7.10888 22.3029 7.40302 21.7976C7.14819 21.5026 6.91607 21.2071 6.81372 20.9121C6.68747 20.5745 6.66598 20.2338 6.70529 19.8564C6.78966 19.2248 7.12888 18.6348 7.57212 18.1266C8.49858 17.0516 9.97876 16.2072 12.486 15.3848C14.9564 14.5612 15.9482 14.4335 17.8046 14.0104C19.9764 13.5068 22.5715 13.3391 24.7446 12.5798C18.6876 11.5254 12.4037 12.4947 7.27696 16.0149L7.61143 15.0225Z" fill="white"/>
</g>
<defs>
<linearGradient id="paint0_linear_2146_11620" x1="20" y1="0" x2="20" y2="40" gradientUnits="userSpaceOnUse">
<stop stop-color="#2571EB"/>
<stop offset="1" stop-color="#0026B2"/>
</linearGradient>
<clipPath id="clip0_2146_11620">
<rect width="40" height="40" fill="white"/>
</clipPath>
</defs>
</svg>
