<svg width="20" height="20" viewBox="0 0 20 20" fill="none" xmlns="http://www.w3.org/2000/svg">
<path fill-rule="evenodd" clip-rule="evenodd" d="M2.5 10C2.5 5.85786 5.85786 2.5 10 2.5C14.1421 2.5 17.5 5.85786 17.5 10C17.5 14.1421 14.1421 17.5 10 17.5C5.85786 17.5 2.5 14.1421 2.5 10ZM8.99162 12.7416C9.22496 12.9749 9.60829 12.9666 9.83329 12.7249L13.5166 8.7249C13.7166 8.4999 13.7 8.15824 13.4833 7.95824C13.2666 7.75824 12.9166 7.76657 12.7166 7.99157L9.39162 11.6082L7.39162 9.60824C7.18329 9.3999 6.83329 9.3999 6.62496 9.60824C6.41662 9.81657 6.41662 10.1666 6.62496 10.3749L8.99162 12.7416Z" fill="#43B02A"/>
</svg>
