<svg width="22" height="10" viewBox="0 0 22 10" fill="none" xmlns="http://www.w3.org/2000/svg">
<path fill-rule="evenodd" clip-rule="evenodd" d="M13.1354 3.41422C13.3031 3.05086 13.6666 2.81836 14.0668 2.81836H15.59V8.45937H13.7951V5.12611H13.667L12.4033 7.86351C12.2354 8.22687 11.8721 8.45937 11.4722 8.45937H9.94856V2.81836H11.7436V6.15161H11.8721L13.1354 3.41422Z" fill="#292929"/>
<path fill-rule="evenodd" clip-rule="evenodd" d="M16.3594 5.38288V8.46H18.1507V6.66507H20.0774C20.9143 6.66507 21.6243 6.12938 21.8887 5.38288H16.3594Z" fill="#292929"/>
<path fill-rule="evenodd" clip-rule="evenodd" d="M16.1023 2.81836C16.3437 4.1312 17.4924 5.12611 18.8748 5.12611H21.9614C21.9863 5.0017 21.9998 4.87314 21.9998 4.74136C21.9998 3.67946 21.1388 2.81836 20.0769 2.81836H16.1023Z" fill="#292929"/>
<path fill-rule="evenodd" clip-rule="evenodd" d="M6.40139 3.55988C6.52826 3.12078 6.93013 2.81836 7.38684 2.81836H9.17932V8.45971H7.38438V5.12604H7.25632L6.23069 8.45971H4.94857L3.923 5.12604H3.79451V8.45971H2V2.81836H3.79248C4.24919 2.81836 4.65106 3.12078 4.77793 3.55988L5.52563 6.15203H5.65369L6.40139 3.55988Z" fill="#292929"/>
</svg>
