<svg width="40" height="40" viewBox="0 0 40 40" fill="none" xmlns="http://www.w3.org/2000/svg">
<g clip-path="url(#clip0_2146_11738)">
<path d="M20 40C31.0457 40 40 31.0457 40 20C40 8.9543 31.0457 0 20 0C8.9543 0 0 8.9543 0 20C0 31.0457 8.9543 40 20 40Z" fill="#BB0032"/>
<path fill-rule="evenodd" clip-rule="evenodd" d="M15.2188 21.8611L22.0716 15.0125H34.196L29.3445 19.8701H24.0791L15.2938 28.7243L5 18.4347L8.36605 15L8.4347 15.0063H15.225L11.7945 18.4368L15.2188 21.8611ZM17.684 27.605L16.7041 28.5807H23.5901L26.4798 25.6786H29.3424L34.2001 20.8271H24.4619L17.684 27.605Z" fill="white"/>
</g>
<defs>
<clipPath id="clip0_2146_11738">
<rect width="40" height="40" fill="white"/>
</clipPath>
</defs>
</svg>
