<svg width="40" height="40" viewBox="0 0 40 40" fill="none" xmlns="http://www.w3.org/2000/svg">
<rect width="40" height="40" rx="20" fill="#FF0032"/>
<path d="M24.6539 8.13416V9.44053H27.4679V14.6345H29.0438V9.44053H31.8578V8.13416H24.6539ZM14.5188 8.15341L12.4608 12.4269L10.4028 8.15253H8.15576V14.6144H9.73076V9.99003L11.7433 13.896H13.1783L15.1908 9.99003V14.6144H16.7666V8.15253L14.5188 8.15341ZM30.2784 29.6915C30.249 29.9302 30.1402 30.1521 29.9695 30.3215C29.7928 30.4825 29.5749 30.5928 29.3395 30.6392C28.9964 30.7072 28.6471 30.7388 28.2974 30.7337C27.9247 30.7403 27.5535 30.6859 27.1984 30.5727C26.9072 30.478 26.6561 30.2886 26.4853 30.0345C26.3129 29.7808 26.2289 29.4133 26.2289 28.9469V28.2845C26.2289 27.8147 26.3155 27.4472 26.4853 27.1934C26.6559 26.9397 26.9053 26.7507 27.1966 26.6562C27.5517 26.5428 27.923 26.4884 28.2956 26.4952C28.6456 26.4899 28.9956 26.5214 29.3386 26.5897C29.5731 26.636 29.791 26.7463 29.9686 26.9073C30.1384 27.077 30.2478 27.2984 30.2766 27.5373H31.8534C31.8249 27.0403 31.6354 26.5661 31.3135 26.1863C30.9959 25.837 30.5847 25.5861 30.1288 25.4635C29.5311 25.306 28.9144 25.2324 28.2965 25.2448C27.5414 25.2448 26.886 25.3533 26.3496 25.5677C25.8189 25.7717 25.3742 26.1516 25.0896 26.6439C24.8114 27.1217 24.6661 27.7587 24.6556 28.5392V28.6109L24.7405 28.6144H24.6556V28.6853C24.6661 29.4658 24.8114 30.1028 25.0896 30.5805C25.3741 31.0729 25.8189 31.4528 26.3496 31.6568C26.8869 31.8712 27.5423 31.9805 28.2965 31.9805C28.9145 31.9929 29.5312 31.919 30.1288 31.7609C30.5849 31.6388 30.9962 31.3878 31.3135 31.0382C31.6355 30.6584 31.8254 30.1842 31.8534 29.6872L30.2784 29.6915Z" fill="white"/>
</svg>
