<svg width="40" height="40" viewBox="0 0 40 40" fill="none" xmlns="http://www.w3.org/2000/svg">
<circle cx="20" cy="20" r="20" fill="white"/>
<g clip-path="url(#clip0_2146_11683)">
<path d="M22.187 38.9755C19.8353 38.7161 18.4242 36.3674 18.7132 32.6775C18.8811 30.0323 20.5677 25.5126 22.187 21.8894C20.8499 22.2821 19.0491 22.9267 18.4309 23.1934C16.8922 26.8981 16.516 28.017 14.3188 31.7439C12.1216 35.4708 9.71606 38.7161 7.47182 40.9538H36.452C38.2729 40.9538 39.7646 39.4941 39.9595 37.6418V20.8817C38.9381 22.4451 35.7263 27.2242 31.7216 32.1588C27.717 37.0935 24.5388 39.2348 22.187 38.9755ZM13.8282 24.8828C13.8282 24.8828 9.04413 27.5724 6.57144 29.7359C5.14024 30.8474 -2.11657 37.2935 0.705523 40.4129C3.64856 42.8876 7.88842 35.2189 9.00381 33.7222C10.9927 30.9066 13.8282 24.8828 13.8282 24.8828ZM3.64856 3.80305C6.89397 0.898563 12.5919 -0.138754 15.6357 0.787421C18.6796 1.72101 18.0815 4.52176 21.1522 5.41089C24.2229 6.30001 27.0518 1.97293 27.932 0.9282C29.4841 -0.909331 31.09 -1.05011 31.09 -1.05011H3.54777C1.59919 -1.05011 0 0.624415 0 2.67682V8.64139C0 8.64139 0.974293 6.20369 3.64856 3.80305ZM32.1987 1.84697C30.9624 2.83242 28.315 4.79591 25.7146 8.87849C22.6439 13.702 20.823 17.5771 20.4198 18.5181C21.7234 18.0884 24.2229 17.2882 24.2229 17.2882C24.2229 17.2882 26.951 11.8941 30.1897 7.47811C33.3813 3.12879 37.4196 1.42463 39.852 1.68396C39.4286 0.113166 38.0714 -1.05011 36.452 -1.05011H32.1382C33.1865 -0.761143 33.6568 0.68369 32.1987 1.84697ZM15.7567 20C17.3021 17.0066 21.3202 10.2048 22.2676 8.72289C20.487 10.0714 18.525 9.34528 17.7859 8.74512C14.8361 6.46302 16.395 1.9507 10.2133 2.99542C6.3833 3.64004 2.15688 7.40402 2.92288 11.0568C3.38651 13.4575 5.17383 14.5096 6.69239 14.5096C9.70934 14.5096 10.65 12.9833 11.3556 11.7533C12.0611 10.516 13.4184 9.47865 14.8361 9.93062C16.2472 10.3826 16.8721 12.6647 15.1519 14.5615C14.2381 15.584 13.284 16.3323 12.3097 16.9251C9.99827 18.3255 7.41807 18.7552 4.82443 18.1699C2.77506 17.6364 1.20275 16.4435 0.00671926 14.4652V30.8548C3.28572 25.9423 10.8852 21.6301 15.7567 20ZM33.7173 7.54479C32.407 9.18227 29.3901 13.4649 28.1537 16.0063C30.1359 15.095 32.4608 13.665 34.8528 12.0201C37.2583 10.3678 41.001 7.05577 39.7512 5.37384C38.5081 3.69932 35.5449 5.25529 33.7173 7.54479ZM34.7655 15.7396C31.762 17.992 27.8984 19.874 26.3664 20.5261C25.4862 22.2821 24.1894 25.394 23.3696 28.7801C22.1937 33.6111 25.2376 34.3075 29.7798 29.6915C32.4406 26.9871 38.8441 19.0368 39.9595 17.5401V11.1087C38.5484 12.6647 36.2101 14.6578 34.7655 15.7396Z" fill="#00539B"/>
</g>
<defs>
<clipPath id="clip0_2146_11683">
<rect width="40" height="40" rx="20" fill="white"/>
</clipPath>
</defs>
</svg>
