<svg width="40" height="40" viewBox="0 0 40 40" fill="none" xmlns="http://www.w3.org/2000/svg">
<circle cx="20" cy="20" r="20" fill="#F2F4F5"/>
<path fill-rule="evenodd" clip-rule="evenodd" d="M14.2329 24.2972C13.7328 24.2972 13.3275 23.8918 13.3275 23.3918V18.6765C13.3275 18.1765 13.7328 17.7711 14.2329 17.7711C14.7329 17.7711 15.1383 18.1765 15.1383 18.6765V23.3918C15.1383 23.8918 14.7329 24.2972 14.2329 24.2972ZM25.7786 24.2966C26.2787 24.2966 26.684 23.8912 26.684 23.3912V18.6759C26.684 18.1758 26.2787 17.7705 25.7786 17.7705C25.2786 17.7705 24.8732 18.1758 24.8732 18.6759V23.3912C24.8732 23.8912 25.2786 24.2966 25.7786 24.2966ZM21.8942 24.2966C22.3942 24.2966 22.7996 23.8912 22.7996 23.3912V18.6759C22.7996 18.1758 22.3942 17.7705 21.8942 17.7705C21.3941 17.7705 20.9887 18.1758 20.9887 18.6759V23.3912C20.9887 23.8912 21.3941 24.2966 21.8942 24.2966ZM18.1114 24.2966C18.6111 24.2966 19.0161 23.8915 19.0161 23.3918V18.6752C19.0161 18.1755 18.6111 17.7705 18.1114 17.7705C17.6117 17.7705 17.2066 18.1755 17.2066 18.6752V23.3918C17.2066 23.8915 17.6117 24.2966 18.1114 24.2966Z" fill="#686868"/>
<path fill-rule="evenodd" clip-rule="evenodd" d="M29.5947 14.6054C29.8433 14.7304 30 14.9711 30 15.3788C30 15.7864 29.6711 16.117 29.2656 16.117H10.7345C10.3289 16.117 10 15.7864 10 15.3788C10 14.9711 10.1567 14.7304 10.4054 14.6054L19.5706 10C19.8405 9.86433 20.1595 9.86433 20.4294 10L29.5947 14.6054Z" fill="#686868"/>
<path fill-rule="evenodd" clip-rule="evenodd" d="M29.0408 25.8332C29.5704 25.8332 30 26.265 30 26.7973V29.2441C30 29.7764 29.5704 30.2082 29.0408 30.2082H10.9592C10.4296 30.2082 9.99999 29.7764 9.99999 29.2441V26.7973C9.99999 26.265 10.4296 25.8332 10.9592 25.8332H29.0408Z" fill="#686868"/>
</svg>
