<svg width="40" height="40" viewBox="0 0 40 40" fill="none" xmlns="http://www.w3.org/2000/svg">
<g clip-path="url(#clip0_2146_11692)">
<path d="M20 40C31.0457 40 40 31.0457 40 20C40 8.9543 31.0457 0 20 0C8.9543 0 0 8.9543 0 20C0 31.0457 8.9543 40 20 40Z" fill="#F2F4F5"/>
<path fill-rule="evenodd" clip-rule="evenodd" d="M7 20C7 12.8269 12.8129 7.00908 19.9851 7V11.6986C15.4068 11.7051 11.6989 15.4194 11.6989 20C11.6989 24.5858 15.4146 28.3014 20.0006 28.3014C24.5581 28.3014 28.3024 24.6195 28.3024 19.9663L33 19.9715C33 27.1796 27.1793 33 20.0006 33C12.8207 33 7 27.1796 7 20Z" fill="#005D44"/>
<path fill-rule="evenodd" clip-rule="evenodd" d="M14.3101 19.8354C14.3101 16.6515 16.8923 14.0694 20.0763 14.0694C23.2603 14.0694 25.8439 16.6515 25.8439 19.8354C25.8439 23.0192 23.2603 25.6013 20.0763 25.6013C16.8923 25.6013 14.3101 23.0192 14.3101 19.8354Z" fill="#6EB744"/>
<path fill-rule="evenodd" clip-rule="evenodd" d="M24.0312 12.6963C24.0312 10.8703 25.5111 9.39185 27.3359 9.39185C29.162 9.39185 30.6405 10.8703 30.6405 12.6963C30.6405 14.521 29.162 16.0021 27.3359 16.0021C25.5111 16.0021 24.0312 14.521 24.0312 12.6963Z" fill="#005D44"/>
</g>
<defs>
<clipPath id="clip0_2146_11692">
<rect width="40" height="40" fill="white"/>
</clipPath>
</defs>
</svg>
