<svg width="40" height="40" viewBox="0 0 40 40" fill="none" xmlns="http://www.w3.org/2000/svg">
<rect width="40" height="40" rx="20" fill="#005BFF"/>
<path d="M13.7515 16.0906C13.7515 17.7562 12.5175 18.9054 10.8342 18.9054C9.15019 18.9054 7.91699 17.7562 7.91699 16.0906C7.91699 14.425 9.15093 13.2758 10.8342 13.2758C12.5183 13.2758 13.7515 14.425 13.7515 16.0906ZM25.1209 16.0906C25.1209 17.7562 23.887 18.9054 22.2036 18.9054C20.5203 18.9054 19.2864 17.7562 19.2864 16.0906C19.2864 14.425 20.5203 13.2758 22.2036 13.2758C23.887 13.2758 25.1209 14.425 25.1209 16.0906ZM31.0562 15.4741V18.7224H29.6391V15.7742C29.6391 14.9251 29.2387 14.5747 28.5557 14.5747C27.8387 14.5747 27.3218 14.974 27.3218 16.1239V18.7224H25.9047V13.4418H27.3055V14.2412H27.3389C27.6889 13.6418 28.2895 13.2751 29.0563 13.2751C30.2057 13.2758 31.0562 13.9086 31.0562 15.4741ZM14.2683 13.4418V14.6413H17.0521L14.2016 17.5895V18.7224H18.9364V17.5228H15.9524L18.8029 14.5576V13.4418H14.2683ZM9.40083 16.0906C9.40083 17.0064 9.96737 17.6065 10.8342 17.6065C11.7011 17.6065 12.2676 17.0071 12.2676 16.0906C12.2676 15.1741 11.7011 14.5747 10.8342 14.5747C9.96737 14.5747 9.40083 15.1741 9.40083 16.0906ZM20.7702 16.0906C20.7702 17.0064 21.3368 17.6065 22.2036 17.6065C23.0705 17.6065 23.637 17.0071 23.637 16.0906C23.637 15.1741 23.0705 14.5747 22.2036 14.5747C21.3368 14.5747 20.7702 15.1741 20.7702 16.0906Z" fill="white"/>
<path d="M25.8668 22.0189V27.1319H24.4946V25.0672H22.2989V27.1319H20.9267V22.0189H22.2989V23.8734H24.4946V22.0189H25.8668ZM18.3928 22.0189V22.7607H18.3607C18.1188 22.2449 17.4725 21.8575 16.6497 21.8575C15.3099 21.8575 14.2119 22.8253 14.2119 24.5672C14.2119 26.3256 15.2775 27.3091 16.6497 27.3091C17.489 27.3091 18.0864 26.9217 18.3607 26.4382H18.3928V27.1319H19.765V22.0189H18.3928ZM11.1294 21.9708C10.29 21.9708 9.64456 22.3582 9.30565 22.9709H9.27332C9.32143 21.8417 9.70918 21.3581 11.0325 21.229L13.0824 21.0353V19.7289L10.8063 19.9061C8.57899 20.0833 7.91699 21.5999 7.91699 24.019C7.91699 26.1641 9.15989 27.3091 10.774 27.3091C12.3723 27.3091 13.5987 26.1641 13.5987 24.5672C13.5987 22.9709 12.485 21.9708 11.1294 21.9708ZM17.005 26.0673C16.1813 26.0673 15.6493 25.4546 15.6493 24.5994C15.6493 23.7285 16.1822 23.0993 17.005 23.0993C17.8279 23.0993 18.3928 23.712 18.3928 24.5829C18.3928 25.4381 17.8279 26.0673 17.005 26.0673ZM10.7575 26.0673C9.96695 26.0673 9.35303 25.4704 9.35303 24.5837C9.35303 23.6804 9.96622 23.1481 10.7575 23.1481C11.5488 23.1481 12.1619 23.6804 12.1619 24.5837C12.1619 25.4704 11.5488 26.0673 10.7575 26.0673ZM30.2574 27.1319L28.4016 24.6805V27.1319H27.0294V22.0189H28.4016V24.1317L30.1126 22.0189H31.8078L29.709 24.3412L32.0009 27.1312H30.2574V27.1319Z" fill="white"/>
</svg>
