<svg width="40" height="40" viewBox="0 0 40 40" fill="none" xmlns="http://www.w3.org/2000/svg">
<g clip-path="url(#clip0_2146_11726)">
<path d="M20 40C31.0457 40 40 31.0457 40 20C40 8.9543 31.0457 0 20 0C8.9543 0 0 8.9543 0 20C0 31.0457 8.9543 40 20 40Z" fill="#B62B35"/>
<path fill-rule="evenodd" clip-rule="evenodd" d="M27.5 13.75C27.5 17.8921 24.1421 21.25 20 21.25C15.8579 21.25 12.5 17.8921 12.5 13.75C12.5 9.60786 15.8579 6.25 20 6.25C24.1421 6.25 27.5 9.60786 27.5 13.75ZM27.5 26.875C27.5 28.6009 24.1421 30 20 30C15.8579 30 12.5 28.6009 12.5 26.875C12.5 25.1491 15.8579 23.75 20 23.75C24.1421 23.75 27.5 25.1491 27.5 26.875ZM20 33.75C24.1421 33.75 27.5 33.4702 27.5 33.125C27.5 32.7798 24.1421 32.5 20 32.5C15.8579 32.5 12.5 32.7798 12.5 33.125C12.5 33.4702 15.8579 33.75 20 33.75Z" fill="white"/>
</g>
<defs>
<clipPath id="clip0_2146_11726">
<rect width="40" height="40" fill="white"/>
</clipPath>
</defs>
</svg>
