<svg width="40" height="40" viewBox="0 0 40 40" fill="none" xmlns="http://www.w3.org/2000/svg">
<g clip-path="url(#clip0_2146_11705)">
<path d="M20 40C31.0457 40 40 31.0457 40 20C40 8.9543 31.0457 0 20 0C8.9543 0 0 8.9543 0 20C0 31.0457 8.9543 40 20 40Z" fill="#FFED00"/>
<path fill-rule="evenodd" clip-rule="evenodd" d="M20 23.2194L11.7148 31.25L8.42749 28.0673L16.7135 20.034L14.9851 18.3572V15.0467L13.7846 13.8818V16.7689L12.7397 17.7822L8.53908 13.7088L7.5 14.7158C7.50746 13.9562 7.66385 11.7578 9.58727 9.92501C11.6629 7.98927 13.9045 8.86144 14.671 9.60534L18.8696 13.6766L17.7987 14.7138L20 16.8485L22.2009 14.7138L21.1303 13.6766L25.328 9.60534C26.0945 8.86144 28.3362 7.98927 30.4119 9.92501C32.3356 11.7578 32.4921 13.9562 32.5 14.7158L31.4609 13.7088L27.2597 17.7822L26.2153 16.7689V13.8818L25.014 15.0467V18.3572L23.2856 20.034L31.572 28.0673L28.2852 31.25L20 23.2194Z" fill="black"/>
</g>
<defs>
<clipPath id="clip0_2146_11705">
<rect width="40" height="40" fill="white"/>
</clipPath>
</defs>
</svg>
