<svg width="40" height="40" viewBox="0 0 40 40" fill="none" xmlns="http://www.w3.org/2000/svg">
<path d="M20 40C31.0457 40 40 31.0457 40 20C40 8.9543 31.0457 0 20 0C8.9543 0 0 8.9543 0 20C0 31.0457 8.9543 40 20 40Z" fill="#F6F6F6"/>
<path d="M20.2068 33.1842C27.3193 33.1842 33.1473 27.2639 33.1473 20.0358C33.1473 12.7854 27.3426 6.88837 20.2057 6.88837C13.0932 6.88837 7.26514 12.7854 7.26514 20.0358C7.26514 27.2639 13.0932 33.1842 20.2057 33.1842H20.2068Z" fill="#008A52"/>
<path d="M20.2067 6.68155C12.9786 6.68155 7.08154 12.6708 7.08154 20.0358C7.08154 27.3784 12.9786 33.39 20.2056 33.39C27.4337 33.39 33.3307 27.3784 33.3307 20.0368C33.3307 12.6708 27.4337 6.68155 20.2056 6.68155H20.2067ZM17.7969 28.9163V32.7483C17.3473 32.6578 16.9029 32.5427 16.4659 32.4036V20.793H18.3707C18.8523 20.793 19.2192 20.8853 19.4027 21.0911C19.6095 21.2746 19.7008 21.6193 19.7008 22.1241V27.5852C19.7008 28.0667 19.6095 28.4114 19.4038 28.6172C19.1047 28.9163 18.5542 28.9163 18.0716 28.9163H17.7959H17.7969ZM20.2056 32.9774C19.5862 32.9774 18.9668 32.9318 18.3707 32.8395V29.4668C19.2426 29.4668 19.8164 29.1687 20.0911 28.5716V31.9444C20.0911 32.358 20.16 32.7016 20.2745 32.9774H20.2067H20.2056ZM23.8319 25.0387H22.5231V22.0552H21.9503V32.1522H22.5231V25.6114H23.8319V31.9677C23.8319 32.1512 23.8085 32.3347 23.7852 32.4959C22.8677 32.7716 21.9037 32.9541 20.9173 33.0007C20.6882 32.725 20.6649 32.3113 20.6649 31.9677V22.262C20.6649 21.7571 20.7571 21.4135 20.9629 21.2067C21.1464 20.9999 21.4911 20.9076 21.9726 20.9076C22.4552 20.9076 23.1891 20.8386 23.5561 21.2067C23.7396 21.4124 23.8319 21.7571 23.8319 22.262V25.0387ZM28.0308 30.2463C27.5949 30.591 27.1123 30.9124 26.6308 31.2115V25.6581H26.0337V31.5551C25.5755 31.7842 25.1163 32.0133 24.6337 32.1968V25.8416C24.6337 25.2678 24.7716 24.8085 25.3687 24.625L24.7259 21.0221H26.0337L26.2638 24.9464H26.424L26.6541 21.0221H28.0542L27.2958 24.625C27.9152 24.8541 28.0531 25.2222 28.0531 25.8416L28.0308 30.2463ZM24.4046 24.5794V22.3532L24.7949 24.3493C24.6478 24.3926 24.5137 24.4717 24.4046 24.5794ZM28.489 24.9464C28.3745 24.694 28.192 24.4649 27.8696 24.3493L28.489 21.1144V24.9464ZM32.8269 21.8261C32.8269 21.895 32.8036 21.9406 32.8036 22.0096H30.6696V22.5367H30.9899C31.6104 22.5144 32.2987 22.5144 32.6201 22.9503C32.3428 24.1445 31.9024 25.2947 31.3113 26.3687V23.5687H30.6696V27.4017C30.2136 28.0521 29.7072 28.6656 29.1551 29.2366V20.9532H32.8492L32.8259 21.8261H32.8269ZM24.0153 20.4261L24.1532 21.0688C23.8775 20.5406 23.3259 20.2882 22.5231 20.2882H21.9503C20.9852 20.2882 20.4124 20.6785 20.1833 21.4358C19.9765 20.6329 19.3804 20.2426 18.3697 20.2426H15.8921V32.2191C14.1309 31.5604 12.5338 30.5269 11.2116 29.1899C8.80325 26.7528 7.45823 23.461 7.47079 20.0347C7.47079 16.4785 8.89414 13.2202 11.2116 10.8795C13.529 8.53869 16.695 7.0708 20.2056 7.0708C21.8839 7.06896 23.5453 7.40526 25.0908 8.05963C26.6362 8.714 28.034 9.67303 29.2007 10.8795C31.6086 13.3168 32.9533 16.6086 32.9404 20.0347V20.4483H24.0153V20.425V20.4261ZM17.7969 27.792H18.3697V21.9406H17.7969V27.792Z" fill="white"/>
<path d="M9.23767 12.9911L9.261 13.4281L9.30661 13.8174L9.42115 14.2077L9.5357 14.5746L9.67358 14.9416L9.85707 15.2863L10.0406 15.6077L10.2474 15.9291L10.4542 16.226L10.7066 16.5251L11.2337 17.0989L11.7853 17.6504L12.358 18.1998L12.9318 18.7514L13.5056 19.3018L14.0104 19.8745L14.2629 20.1736L14.492 20.495L14.6988 20.793L14.8823 21.1377L15.0658 21.4814L15.2036 21.8484L15.3182 22.1931L15.4105 22.5834L15.4794 22.9959L15.5017 23.4096L15.4794 26.9425L15.4561 26.5289L15.4105 26.1163L15.2959 25.727L15.1803 25.359L15.0424 25.0154L14.86 24.6484L14.6754 24.327L14.4697 24.0056L14.2629 23.7076L13.9871 23.4085L13.4823 22.8358L12.9318 22.262L12.3591 21.7338L11.7853 21.1823L11.2115 20.6329L10.7066 20.0358L10.4542 19.76L10.224 19.4397L10.0183 19.1183L9.83479 18.797L9.67358 18.4523L9.51343 18.1086L9.39888 17.7183L9.30661 17.3513L9.23767 16.9377L9.21539 16.5251L9.23767 12.9911ZM8.6416 17.4659L8.68721 17.9251L8.73281 18.3388L8.84736 18.7514L8.96297 19.1406L9.14645 19.5309L9.32994 19.8979L9.5357 20.2426L9.76585 20.5639L9.99495 20.8853L10.2707 21.2067L10.8434 21.8261L11.4406 22.4221L12.0833 22.9959L12.7027 23.5687L13.2988 24.1658L13.8726 24.7629L14.1483 25.0843L14.4007 25.4057L14.6298 25.7493L14.8367 26.094L15.0201 26.461L15.1803 26.8279L15.2959 27.2183L15.4105 27.6319L15.4794 28.0667L15.5017 28.5027L15.4794 32.2657L15.4561 31.8075L15.3871 31.3939L15.2959 30.9803L15.158 30.591L14.9968 30.2007L14.8133 29.8337L14.6076 29.4901L14.3774 29.1454L14.125 28.824L13.8492 28.5027L13.2988 27.9066L12.6794 27.3095L12.06 26.7367L11.4406 26.1629L10.8212 25.5658L10.2696 24.9464L9.97267 24.6484L9.74252 24.3037L9.51343 23.96L9.30661 23.6153L9.12312 23.2484L8.96297 22.8814L8.82509 22.4678L8.73281 22.0785L8.66387 21.6649L8.6416 21.2067V17.4659Z" fill="white"/>
<path d="M32.7804 15.4242H24.497C24.4047 15.2174 24.2902 15.0795 24.1523 15.0795C24.0144 15.0795 23.8765 15.2174 23.7853 15.4242H23.4873C23.3961 15.2174 23.2805 15.0795 23.1203 15.0795C22.9824 15.0795 22.8445 15.2174 22.7533 15.4242H22.5232C22.7067 15.1718 22.7989 14.896 22.7989 14.5757C22.7989 13.7484 22.2029 13.0601 21.2844 13.0601C20.3892 13.0601 19.6553 13.7262 19.6553 14.5746C19.6553 14.965 19.931 15.3097 20.0456 15.561C19.8844 15.6077 19.7698 15.7222 19.7698 15.8824C19.7698 16.0659 19.9077 16.2038 20.0689 16.2271C19.9766 16.5485 19.6553 16.7786 19.6553 17.3057C19.6553 18.132 20.3892 18.8203 21.2844 18.8203C22.2029 18.8203 22.7989 18.1542 22.7989 17.3057C22.7989 16.9844 22.6844 16.7086 22.5232 16.4572H22.7533C22.8445 16.663 22.9591 16.8009 23.1203 16.8009C23.2582 16.8009 23.3961 16.663 23.4873 16.4562H23.7853C23.8776 16.663 23.9921 16.8009 24.1523 16.8009C24.2902 16.8009 24.428 16.663 24.497 16.4562H30.5775V16.8009H30.3017V17.4892H30.5775L30.8533 17.8562L30.3017 17.7639V18.6824H30.8533V18.2688H31.6784V18.6824H32.2299V17.7639L31.6784 17.8562L31.9542 17.4892H32.2299V16.7998H31.9542V16.4562H32.8027C32.9052 16.453 33.0026 16.4108 33.0751 16.3383C33.1476 16.2658 33.1898 16.1684 33.193 16.0659V15.8368C33.1707 15.6077 32.9872 15.4231 32.7793 15.4231L32.7804 15.4242ZM21.6057 15.3319C21.8582 15.3319 22.065 15.6077 22.065 15.9513C22.065 16.296 21.8582 16.5485 21.6057 16.5707L21.4679 16.9154C21.8348 16.9154 22.2485 16.961 22.2485 17.3747C22.2485 17.8795 21.9271 18.2921 21.33 18.2921C20.7339 18.2921 20.2747 17.8785 20.2747 17.3747C20.2747 16.9844 20.4126 16.9154 20.8262 16.7775L20.7106 16.5485L20.963 16.3183C20.8251 16.2504 20.7106 16.1125 20.7106 15.9513C20.7105 15.8718 20.7346 15.7941 20.7797 15.7286C20.8248 15.663 20.8887 15.6127 20.963 15.5844L20.7339 15.4242L20.8251 15.1718C20.4359 15.0339 20.2747 14.9883 20.2747 14.5746C20.2747 14.0698 20.7339 13.6572 21.33 13.6572C21.9271 13.6572 22.2485 14.0709 22.2485 14.5746C22.2485 14.9883 21.9038 15.0339 21.4679 15.0339L21.6057 15.3319Z" fill="#FFCA38"/>
<path d="M15.7085 17.8562V19.9212L18.8055 16.8921V14.8271L15.7085 17.8562Z" fill="#FFCA38"/>
<path d="M15.7085 10.2845V12.3495L18.8055 9.32036V7.25534L15.7085 10.2845Z" fill="#FFCA38"/>
<path d="M13.231 6.36125V2H13.5746V2.09121V2H13.7125V6.35913L13.231 6.36125Z" fill="white"/>
<path d="M15.7085 12.8077V14.8737L18.8055 11.8446V9.7796L15.7085 12.8077Z" fill="#FFCA38"/>
<path d="M14.2861 7.16306V2.00211H14.6075V2.09332V2.00211H14.7454V7.16412L14.2861 7.16306Z" fill="white"/>
<path d="M13.5745 2.09225H13.3677V6.24563H13.5745V2.09225ZM14.6065 2.09225H14.423V7.04851H14.6075L14.6065 2.09225Z" fill="#FFCA38"/>
<path d="M15.3184 7.71461V2.00107H15.6631V2.09228V2.00107H15.8009V7.71461H15.3184Z" fill="white"/>
<path d="M15.7085 15.3319V17.397L18.8055 14.3689V12.3028L15.7085 15.3319Z" fill="#FFCA38"/>
<path d="M15.6629 2.09225H15.4561V7.59897H15.6629V2.09225Z" fill="#FFCA38"/>
<path d="M16.3735 7.27869V2.00107H16.6949V2.09228V2.00107H16.8328V7.27869H16.3735Z" fill="white"/>
<path d="M15.4107 17.8562V19.9212L12.335 16.8921V14.8271L15.4107 17.8562Z" fill="#FFCA38"/>
<path d="M17.4067 6.45247V2.00107H17.7504V2.09228V2.00107H17.8883V6.45247H17.4067Z" fill="white"/>
<path d="M16.6963 2.09225H16.5117V7.16306H16.6952L16.6963 2.09225Z" fill="#FFCA38"/>
<path d="M18.3931 5.69519V2.00107H18.7144V2.09228V2.00107H18.8523V5.69519H18.3931Z" fill="white"/>
<path d="M17.7505 2.09225H17.5447V6.36123H17.7505V2.09225ZM18.7146 2.09225H18.5311V5.58062H18.7146V2.09225ZM15.4107 10.2845V12.3495L12.335 9.32035V7.25533L15.4107 10.2845Z" fill="#FFCA38"/>
<path d="M15.4107 12.8077V14.8737L12.335 11.8446V9.7796L15.4107 12.8077Z" fill="#FFCA38"/>
<path d="M15.4107 15.3319V17.397L12.335 14.3689V12.3028L15.4107 15.3319Z" fill="#FFCA38"/>
<path d="M12.2437 5.67184V2.00211H12.5884V2.09332V2.00211H12.7262V5.67184H12.2437Z" fill="white"/>
<path d="M12.5883 2.09225H12.4048V5.55729H12.5883V2.09225ZM15.7086 7.76019V9.82521L18.8056 6.79609V4.73107L15.7086 7.76019Z" fill="#FFCA38"/>
<path d="M15.4107 7.7602V9.82522L12.335 6.7961V4.73108L15.4107 7.7602Z" fill="#FFCA38"/>
</svg>
