<svg width="40" height="40" viewBox="0 0 40 40" fill="none" xmlns="http://www.w3.org/2000/svg">
<g clip-path="url(#clip0_2146_11728)">
<path d="M23.9861 0.423584V10.7939H19.9649C14.8857 10.7939 10.7939 14.8856 10.7939 19.9649C10.7939 25.0443 14.8857 29.136 19.9649 29.136H23.9861V39.5062C33.1572 37.7426 40.0002 29.7004 40.0002 19.9649C40.0002 10.3001 33.1572 2.25779 23.9861 0.423584Z" fill="#003791"/>
<path d="M19.9646 32.3807C13.1216 32.3807 7.54846 26.8076 7.54846 19.9646C7.54846 13.1216 13.1216 7.54846 19.9646 7.54846H20.7406V0C20.4585 0 20.1763 0 19.9646 0C8.95939 0 0 8.95939 0 19.9646C0 31.0404 8.95939 39.9997 19.9646 39.9997C20.2467 39.9997 20.529 39.9997 20.7406 39.9997V32.3807H19.9646Z" fill="#FF4B5F"/>
</g>
<defs>
<clipPath id="clip0_2146_11728">
<rect width="40" height="40" fill="white"/>
</clipPath>
</defs>
</svg>
