<svg width="40" height="40" viewBox="0 0 40 40" fill="none" xmlns="http://www.w3.org/2000/svg">
<g clip-path="url(#clip0_2146_11725)">
<path d="M20 40C31.0457 40 40 31.0457 40 20C40 8.9543 31.0457 0 20 0C8.9543 0 0 8.9543 0 20C0 31.0457 8.9543 40 20 40Z" fill="#FFDD2D"/>
<path d="M7 9H33V22.0761C33 25.4283 31.2117 28.5259 28.3089 30.2021L20 35L11.6912 30.2021C8.78823 28.5259 7 25.4283 7 22.0761V9Z" fill="white"/>
<path fill-rule="evenodd" clip-rule="evenodd" d="M14.9126 16.913V20.3484C15.4486 19.8179 16.4232 19.4589 17.5374 19.4589H18.7484V23.4525C18.7484 24.515 18.419 25.445 17.9303 25.9565H23.1975C22.7098 25.4445 22.3811 24.5156 22.3811 23.4545V19.4589H23.5921C24.7064 19.4589 25.6809 19.8179 26.2169 20.3484V16.913H14.9126Z" fill="#333333"/>
</g>
<defs>
<clipPath id="clip0_2146_11725">
<rect width="40" height="40" fill="white"/>
</clipPath>
</defs>
</svg>
