<svg width="40" height="40" viewBox="0 0 40 40" fill="none" xmlns="http://www.w3.org/2000/svg">
<g clip-path="url(#clip0_2146_11764)">
<path d="M20 40C31.0457 40 40 31.0457 40 20C40 8.9543 31.0457 0 20 0C8.9543 0 0 8.9543 0 20C0 31.0457 8.9543 40 20 40Z" fill="#163360"/>
<path fill-rule="evenodd" clip-rule="evenodd" d="M10.6721 25.5647C11.0413 28.3516 12.424 30.559 14.8739 32.1977C17.7969 28.2522 18.2595 23.6716 18.7236 19.0756C18.739 18.923 18.7544 18.7703 18.7699 18.6177C17.65 18.5005 17.5813 18.5584 17.394 19.4762C16.793 22.4126 15.7445 25.1577 13.94 27.5834C13.6657 27.9527 13.3566 28.2977 13.0361 28.6555C12.8969 28.8108 12.7556 28.9686 12.614 29.1319C12.5585 29.0537 12.5106 28.9884 12.4684 28.9309C12.3877 28.8208 12.328 28.7393 12.2757 28.6508C10.6626 25.9447 11.0467 22.7751 13.2703 20.4694C16.6838 16.9386 22.9988 16.8281 26.5214 20.247C28.0133 21.6943 28.8367 23.4422 28.7019 25.5499C28.6417 26.841 28.1694 28.0789 27.3543 29.082C27.291 29.0234 27.2327 28.9724 27.1788 28.9251C27.0764 28.8354 26.9895 28.7592 26.9136 28.671C26.8777 28.6304 26.8416 28.5897 26.8056 28.5491C26.5304 28.239 26.2531 27.9265 26.0053 27.5929C24.1981 25.1483 23.12 22.383 22.5082 19.4249C22.329 18.5598 22.1646 18.4533 21.1161 18.642C21.1795 19.1506 21.2377 19.6608 21.2961 20.1716C21.4201 21.2578 21.5444 22.3463 21.7185 23.426C22.1363 26.0499 22.7777 28.6171 24.1577 30.9336C24.3364 31.2404 24.5561 31.5264 24.781 31.8192C24.885 31.9547 24.9902 32.0916 25.093 32.2327C27.9337 30.311 29.3797 27.7115 29.4431 24.4165C29.5199 20.2713 26.7398 16.6165 22.705 15.4508C22.1511 15.2904 21.8964 15.0762 21.8964 14.463C21.8853 13.1665 21.8355 11.8715 21.7858 10.5764C21.7692 10.1443 21.7526 9.71222 21.7374 9.28005C21.7205 9.13848 21.6931 8.99838 21.6552 8.86094L21.011 8.91754V14.9967C20.4073 15.2069 20.3197 14.9212 20.3197 14.4495V7.2411V5H19.5852V6.01476C19.5825 8.82231 19.5776 11.6294 19.5704 14.436C19.5677 15.1099 19.561 15.1099 18.8427 14.9751V14.1921C18.8446 13.8095 18.8461 13.4268 18.8476 13.0442C18.8523 11.8326 18.8569 10.621 18.8764 9.40942C18.8858 8.91484 18.716 8.76391 18.2026 8.94718C18.2026 9.0324 18.2036 9.11654 18.2047 9.19993C18.2068 9.36447 18.2088 9.52604 18.2026 9.68703C18.1823 10.211 18.1609 10.7349 18.1396 11.2589C18.0941 12.3723 18.0487 13.4857 18.0139 14.5991C17.9991 15.095 17.7875 15.3228 17.3024 15.4575C12.8283 16.762 10.0589 20.9478 10.6721 25.5647ZM17.1865 33.2987C18.8413 33.8984 21.0663 33.9025 22.7265 33.2987C21.0779 29.4538 20.8237 25.4125 20.5693 21.3699C20.5083 20.3996 20.4472 19.4292 20.3669 18.4614C20.2253 18.4409 20.0826 18.4292 19.9397 18.4264C19.8037 18.4381 19.6686 18.4588 19.5354 18.4884C19.4648 19.4011 19.41 20.3155 19.3553 21.229C19.1089 25.3396 18.8635 29.4342 17.1865 33.2987Z" fill="white"/>
</g>
<defs>
<clipPath id="clip0_2146_11764">
<rect width="40" height="40" fill="white"/>
</clipPath>
</defs>
</svg>
