<svg width="40" height="40" viewBox="0 0 40 40" fill="none" xmlns="http://www.w3.org/2000/svg">
<rect width="40" height="40" rx="20" fill="#F2F4F5"/>
<g clip-path="url(#clip0_117122_407)">
<path d="M33.2624 16.2942H31.0196L29.6127 19.8804C28.8521 21.8318 29.5238 23.0862 30.8036 23.0862C31.9191 23.0862 32.6915 22.3383 33.1862 21.2991L33.1735 22.617L34.5803 22.4645L37.001 16.2934H34.7582L33.3387 19.9176C33.0473 20.6528 32.6797 21.1085 32.1605 21.1085C31.6413 21.1085 31.5396 20.6647 31.8437 19.8922L33.2633 16.2934M21.2995 23.9612L24.3156 16.2942H18.0809L14.7734 24.7091L17.1179 24.4431L19.6013 18.1322H21.3503L18.955 24.228L21.2995 23.962V23.9612ZM23.0613 20.5393C22.4912 22.1994 23.2764 23.7071 25.177 23.7071C27.8891 23.7071 29.5111 20.2725 29.5111 18.3592C29.5111 16.9269 28.7251 16.0655 27.1793 16.0655C25.5065 16.0655 24.4927 17.1556 23.8083 18.803H25.963C26.2671 18.144 26.5839 17.751 26.9769 17.751C27.3064 17.751 27.4207 18.0805 27.4207 18.4735C27.4207 18.6251 27.3953 18.803 27.3572 19.0054H26.052L25.482 20.4504H26.8888C26.5212 21.2872 25.9893 22.0216 25.4565 22.0216C24.9755 22.0216 24.9119 21.3245 25.2033 20.5393H23.0621H23.0613ZM35.7594 15.9012L36.2286 14.7103H33.0727L32.6035 15.9012H35.7585H35.7594Z" fill="#170023"/>
</g>
<rect x="3.00098" y="14.3331" width="11.3252" height="11.3252" rx="5.66259" fill="#F8604A"/>
<path d="M9.46193 23.3988H10.645V16.6037H8.92419C7.19364 16.6037 6.28436 17.4934 6.28436 18.8036C6.28436 19.8497 6.783 20.4657 7.67272 21.1012L6.12793 23.3988H7.40873L9.12951 20.8274L8.5331 20.4266C7.8096 19.9377 7.45762 19.5564 7.45762 18.7351C7.45762 18.0116 7.96603 17.5228 8.93396 17.5228H9.46193V23.3988Z" fill="white"/>
<defs>
<clipPath id="clip0_117122_407">
<rect width="22.2276" height="9.99874" fill="white" transform="translate(14.7734 14.7106)"/>
</clipPath>
</defs>
</svg>
