<svg width="82" height="66" viewBox="0 0 82 66" fill="none" xmlns="http://www.w3.org/2000/svg">
<path d="M3.75094 11.2963C5.92889 12.092 8.31859 11.6486 10.5449 11.3388C13.2976 10.9561 15.9898 10.9257 18.7667 10.8953C21.9853 10.865 25.1796 10.6888 28.3921 10.5491C29.0092 10.7313 29.6081 10.9439 30.201 11.1869C30.9754 11.2112 31.7498 11.2234 32.5302 11.2234C34.454 11.2294 36.384 11.0837 38.3078 10.9925C51.8293 10.3547 65.3387 11.9523 78.8843 11.4238C79.3018 11.4056 79.1989 9.5286 78.842 9.57112C65.4052 11.1748 51.7446 8.61744 38.2655 9.23703C31.7195 9.54075 25.2824 9.44356 18.7304 9.38282C15.9535 9.35852 13.2613 9.33422 10.5026 9.66831C8.30044 9.93559 5.86234 10.4033 3.70859 9.68654C3.47869 9.60757 3.3093 11.1322 3.75094 11.2963Z" fill="#474747"/>
<path d="M78.2859 11.1504C79.1995 11.0897 80.0223 11.4056 80.5486 12.1952C80.96 12.8148 80.7059 13.6409 80.6999 14.3213C80.6999 14.4671 80.8995 15.846 81.202 15.2567C81.5287 14.6189 81.4803 13.7199 81.4621 13.0214C81.444 12.3289 81.329 11.6425 81.0568 11.0047C80.5668 9.84444 79.2297 10.057 78.2618 10.3C78.0742 10.3486 78.1166 11.1626 78.2859 11.1504Z" fill="#474747"/>
<path d="M80.784 13.0274C80.6086 15.0867 80.7296 17.1459 80.8687 19.2051C81.0623 22.0965 80.9171 24.9697 81.0623 27.849C81.0744 28.0798 81.2983 29.1854 81.5342 28.4564C82.1694 26.4701 81.9879 24.2712 81.9153 22.2059C81.8125 19.1504 81.4979 16.0525 81.1591 13.0153C81.0986 12.42 80.8385 12.4443 80.784 13.0274Z" fill="#474747"/>
<path d="M4.40538 10.4701C3.26801 8.70242 1.4591 10.0995 0.80571 11.4966C0.418518 12.3288 0.230971 13.2582 0.134173 14.1694C0.0857745 14.6432 0.0736748 15.1231 0.0736748 15.5969C0.0736748 15.852 0.116024 16.1436 0.170473 16.3926C0.188622 16.4594 0.442717 17.1519 0.339869 16.8178C0.539515 17.4435 0.805709 16.6781 0.823859 16.423C0.757311 17.3524 0.878308 16.2711 0.890408 16.095C0.908557 15.8095 0.896458 15.524 0.908557 15.2385C0.932757 14.5703 1.0719 13.9143 1.34415 13.3007C1.60429 12.7115 2.03383 12.1891 2.63882 11.9462C3.23776 11.7032 3.86695 11.9036 4.39328 11.5027C4.61108 11.3326 4.53848 10.6766 4.40538 10.4701Z" fill="#474747"/>
<path d="M0.000142683 14.7465C0.193739 19.0897 0.0243422 23.4025 0.0969407 27.7397C0.11509 28.8209 0.962073 29.5559 0.998372 28.0616C1.11937 23.6212 1.62756 18.622 0.332886 14.3091C0.181639 13.7989 -0.00590719 14.5825 0.000142683 14.7465Z" fill="#474747"/>
<path d="M0.6415 29.0274C1.10734 33.5893 7.71985 34.622 11.253 35.3448C18.9303 36.912 26.6076 38.0601 34.4421 38.3334C34.9382 38.3517 34.914 36.2256 34.3937 36.2438C27.4545 36.4868 20.9872 35.4299 14.169 34.2879C10.2669 33.6318 2.43831 33.0608 0.895595 28.5962C0.750398 28.1831 0.6294 28.9059 0.6415 29.0274Z" fill="#474747"/>
<path d="M47.1285 38.1512C54.6485 39.2567 62.9005 37.2643 70.2329 35.6728C74.8066 34.6766 81.1046 33.1033 81.8608 27.6728C81.9031 27.3691 81.6611 25.3585 81.3163 26.379C80.1608 29.8171 79.3198 30.9651 76.1437 32.3137C73.8266 33.2977 71.2977 33.8262 68.8475 34.3486C61.624 35.8976 54.352 36.1831 47.1043 37.3676C46.9167 37.404 46.9349 38.1269 47.1285 38.1512Z" fill="#474747"/>
<path d="M3.0432 32.1254C2.88591 36.8755 2.9706 41.6318 2.97665 46.382C2.9827 50.6219 2.43821 55.2628 3.27915 59.4359C3.32755 59.6607 3.43644 59.6364 3.48484 59.4298C4.30158 55.6516 3.72079 51.3752 3.67844 47.5361C3.61794 42.4701 3.64819 37.3919 3.47879 32.3258C3.45459 31.6941 3.0795 31.202 3.0432 32.1254Z" fill="#474747"/>
<path d="M3.33391 59.4784C3.03746 60.7601 3.38231 61.9932 4.19904 63.0198C4.64068 63.5786 5.20937 63.9856 5.83856 64.3015C6.17735 64.4716 6.54639 64.5809 6.90938 64.672C7.39942 64.7996 8.01651 64.7206 8.47025 64.9393C9.14179 65.2552 9.07524 62.4184 8.4158 62.7647C7.48412 63.2567 5.85671 62.467 5.10652 61.9385C4.19299 61.3007 3.99334 60.2924 3.40046 59.442L3.33391 59.4784Z" fill="#474747"/>
<path d="M9.38985 64.909C20.0558 65.1033 30.7459 64.9697 41.4058 64.7753C46.9414 64.6721 52.4771 64.6964 58.0127 64.5809C60.7472 64.5202 63.4878 64.3987 66.2284 64.423C68.6726 64.4412 71.4858 64.8604 73.8271 64.1497C74.1296 64.0585 74.0933 62.9591 73.7968 62.868C71.7459 62.2544 69.4107 62.5703 67.275 62.5885C64.5708 62.6068 61.8665 62.7222 59.1622 62.8072C53.6326 62.9773 48.0969 63.196 42.5613 63.2749C31.4961 63.445 20.4248 63.3114 9.3596 63.5179C9.0208 63.5118 9.03895 64.9029 9.38985 64.909Z" fill="#474747"/>
<path d="M78.4007 31.7731C78.0014 36.8877 77.8259 42.0814 77.8683 47.2142C77.8985 50.5369 76.9185 55.111 78.4612 58.2332C78.558 58.4276 78.6245 57.9781 78.6245 57.9416C78.6245 54.3638 78.7637 50.7678 78.685 47.1899C78.5701 42.1178 79.169 37.0274 78.8605 31.9675C78.8242 31.3418 78.4733 30.8619 78.4007 31.7731Z" fill="#474747"/>
<path d="M78.2185 57.4374C77.795 58.792 77.9584 60.0434 76.8573 61.1246C75.7562 62.2058 74.1107 61.7138 72.9249 62.6493C72.7374 62.8011 72.7555 63.4936 72.9491 63.6333C74.395 64.6964 76.4459 63.4632 77.3534 62.1633C78.2064 60.9302 78.6904 58.9621 78.3335 57.4799C78.3153 57.401 78.2609 57.3159 78.2185 57.4374Z" fill="#474747"/>
<path d="M26.9945 4.80872C26.9582 5.47691 27.049 6.1451 27.049 6.81328C27.049 7.57258 26.9643 8.34403 26.9098 9.10333C26.8856 9.4435 26.8675 10.1178 27.17 10.3668C27.4543 10.6037 27.5511 9.74115 27.5571 9.63788C27.6055 8.59916 27.6539 7.55436 27.6297 6.51564C27.6176 6.01753 27.6539 4.77228 27.1881 4.43819C27.0369 4.33492 27.0006 4.74798 26.9945 4.80872Z" fill="#474747"/>
<path d="M27.2367 5.79281C27.2428 5.03351 27.5574 4.23776 28.0595 3.67891C28.2955 3.41771 28.5859 3.22333 28.9186 3.09577C29.2937 2.95606 29.6688 3.04717 30.0136 2.86494C30.2556 2.73738 30.1891 1.72903 29.9834 1.58324C29.1243 0.987947 27.993 2.04489 27.5574 2.7313C26.9887 3.63032 26.8737 4.76623 26.9282 5.80496C26.9584 6.35165 27.2307 6.35165 27.2367 5.79281Z" fill="#474747"/>
<path d="M29.3422 2.82242C33.1113 3.59994 37.4974 2.98035 41.3451 2.94998C45.701 2.91353 50.0691 2.66448 54.4068 3.08969C54.6912 3.12006 54.7517 1.38885 54.3645 1.35848C50.3716 1.05476 46.3726 1.19447 42.3736 1.19447C38.1871 1.19447 33.4017 0.605256 29.3059 1.46782C29.0215 1.53464 29.0518 2.76167 29.3422 2.82242Z" fill="#474747"/>
<path d="M52.6764 2.09345C52.9063 2.3182 53.1302 2.3668 53.4266 2.48221C53.8622 2.6523 54.2615 2.90135 54.6366 3.16862C55.2839 3.63635 55.9676 4.16483 56.0886 5.00309C56.1067 5.14281 56.2822 5.7138 56.4455 5.33719C56.6089 4.9545 56.5847 4.42603 56.506 4.03119C56.3306 3.16255 55.9373 2.48829 55.1932 1.99019C54.5942 1.58928 53.2209 1.34022 52.6704 1.88085L52.6764 2.09345Z" fill="#474747"/>
<path d="M56.2397 3.72747C55.9553 3.87325 56.0219 4.67508 55.9977 4.93627C55.8948 6.1876 55.7799 7.43893 55.7496 8.69633C55.7375 9.12154 55.6831 9.91729 56.0279 10.2453C56.3667 10.5673 56.4333 9.10332 56.4393 9.01828C56.4514 7.87021 56.4696 6.72215 56.4575 5.58016C56.4514 5.13066 56.5845 4.1223 56.2518 3.73962L56.2397 3.72747Z" fill="#474747"/>
<path d="M29.7169 6.51566C29.6988 6.3395 29.6504 5.64702 29.7169 6.51566C29.6927 6.16942 29.7048 6.5521 29.7048 6.61285C29.6927 6.8619 29.6444 7.11095 29.6081 7.36C29.5234 7.99781 29.4084 8.65992 29.4387 9.30381C29.4568 9.61968 29.4508 10.1846 29.723 10.4215C30.0315 10.6888 30.1223 9.69865 30.1344 9.60146C30.1949 8.97579 30.2493 8.34405 30.2735 7.71232C30.2917 7.11095 30.3945 6.19979 30.0315 5.67739C29.7411 5.25825 29.7048 6.40632 29.7169 6.51566Z" fill="#474747"/>
<path d="M29.7715 7.88845C29.7775 7.28101 30.1889 6.80721 30.7153 6.56423C30.9875 6.43667 31.29 6.37592 31.5864 6.3334C31.901 6.28481 32.2217 6.3334 32.4758 6.13295C32.6815 5.96894 32.6573 5.14282 32.4455 4.99096C31.8526 4.5536 30.6185 5.13067 30.1284 5.56195C29.4508 6.15724 29.3843 7.18989 29.4992 8.01601C29.5779 8.53841 29.7715 8.25899 29.7715 7.88845Z" fill="#474747"/>
<path d="M31.2658 6.14509C34.9925 6.75253 39.0217 6.32732 42.7968 6.36377C44.5997 6.38199 46.3965 6.30302 48.1994 6.40021C49.7965 6.48525 50.94 6.89224 52.3738 6.16331L52.3798 5.90819C50.9763 4.86946 49.9115 5.08207 48.1691 5.12459C46.3602 5.16711 44.5694 5.08814 42.7666 5.04562C39.0278 4.96665 34.9078 4.60219 31.2476 5.4526C31.0964 5.48905 31.1145 6.11472 31.2658 6.14509Z" fill="#474747"/>
<path d="M52.7366 6.58854C52.8697 6.65536 52.906 6.75255 53.0633 6.77077C53.1419 6.77684 53.1782 6.61284 53.1903 6.57639C53.2932 6.2423 53.2811 5.96895 53.1661 5.64093C53.154 5.59841 53.1117 5.44047 53.033 5.45262C52.8515 5.47692 52.9483 5.51944 52.7547 5.61663C52.5672 5.70167 52.543 6.49742 52.7366 6.58854Z" fill="#474747"/>
<path d="M52.5918 6.57639C52.4708 6.34556 52.7491 6.86189 52.7914 6.93478C52.858 7.03804 52.9063 7.15346 52.9305 7.27495C52.9305 7.00767 52.9245 6.98337 52.9003 7.19598C52.8338 7.63941 52.6886 8.05855 52.6341 8.50805C52.5857 8.94541 52.5857 9.41921 52.7128 9.84442C52.8277 10.221 53.0576 10.2332 53.1423 9.83227C53.3359 8.97578 53.469 8.10714 53.4448 7.22635C53.4327 6.77684 53.3359 5.40403 52.6462 5.44047C52.3679 5.4587 52.5192 6.4306 52.5918 6.57639Z" fill="#474747"/>
<path d="M34.4908 32.7875C34.2427 35.0411 34.152 37.5316 34.3577 39.7913C34.4908 41.2127 34.8719 42.4033 36.4691 42.5613C36.7413 42.5856 36.7837 41.1277 36.4328 41.1156C34.3819 41.0244 34.8174 38.4246 34.8114 36.9303C34.8053 35.5818 34.8356 34.2332 34.7025 32.8847C34.6904 32.66 34.5331 32.4231 34.4908 32.7875Z" fill="#474747"/>
<path d="M36.5712 42.3C36.9523 42.9864 40.0499 42.4761 40.8424 42.4883C42.5606 42.5126 44.2848 42.4579 45.9969 42.6098C46.3296 42.6402 46.3901 40.751 45.9485 40.7146C43.5164 40.4959 41.0058 40.5992 38.5798 40.7935C37.7086 40.8604 35.8634 41.0304 36.5712 42.3Z" fill="#474747"/>
<path d="M34.636 33.5589C34.4727 32.4838 35.84 32.095 36.6506 32.1011C36.941 32.1011 36.8805 30.625 36.6143 30.6554C35.8581 30.7404 35.0656 30.8984 34.6239 31.5848C34.146 32.3258 34.2549 33.2856 34.4606 34.0935C34.4787 34.1725 34.5513 34.2818 34.6058 34.1603C34.6905 33.9781 34.6663 33.7473 34.636 33.5589Z" fill="#474747"/>
<path d="M36.3778 31.6759C39.0034 33.4253 42.6152 31.3843 45.3981 32.5324C45.5494 32.5931 45.8821 30.619 45.3497 30.5886C44.043 30.5035 42.7846 30.5704 41.4839 30.6554C39.8504 30.7647 37.9205 30.4124 36.3838 30.953C36.2386 31.0016 36.2628 31.5969 36.3778 31.6759Z" fill="#474747"/>
<path d="M45.0293 31.9735C45.4649 32.1558 46.0033 32.4899 46.3118 32.8483C46.6627 33.2613 46.6083 33.7716 46.8321 34.2332C46.9047 34.3851 47.0136 34.3851 47.0802 34.2271C47.183 33.9781 47.1891 33.6805 47.183 33.4132C47.1649 32.6721 46.9773 31.8642 46.5054 31.275C46.3421 31.0685 46.1122 30.9409 45.8702 30.8498C45.5616 30.7404 45.2289 31.0138 44.9869 31.1535C44.8357 31.2446 44.872 31.9128 45.0293 31.9735Z" fill="#474747"/>
<path d="M46.8622 32.417C46.0455 34.3486 46.4327 36.8695 46.463 38.9105C46.463 39.0684 46.4811 39.9978 46.7775 39.9918C47.074 39.9857 47.0437 39.0563 47.0377 38.8984C46.9772 36.9363 46.838 35.0229 47.0437 33.0669C47.0498 32.9758 46.9711 32.1558 46.8622 32.417Z" fill="#474747"/>
<path d="M46.6935 39.5969C46.7298 39.8216 46.8266 39.1535 46.6572 39.4693C46.6149 39.5483 46.5181 39.6212 46.4455 39.6758C46.2942 39.7852 46.1974 39.9128 46.0159 39.9917C45.8163 40.0768 45.6953 40.1011 45.5622 40.2833C45.3686 40.5506 45.3746 40.9818 45.3807 41.2916C45.3867 41.5711 45.3867 42.0813 45.6106 42.2939C46.1732 42.8285 46.7843 41.6926 46.9113 41.2673C47.1291 40.5263 47.1472 39.6576 46.9053 38.9165C46.875 38.8254 46.7964 38.6675 46.7298 38.8315C46.633 39.0623 46.6572 39.36 46.6935 39.5969Z" fill="#474747"/>
<path d="M36.1421 34.4155C36.0272 35.8004 35.8275 37.1429 36.0272 38.5339C36.0393 38.6007 36.1421 39.3539 36.3599 39.1413C36.6382 38.868 36.5414 38.1755 36.4809 37.8414C36.5353 38.1634 36.7289 39.275 36.4809 37.8414C36.4143 37.4527 36.4022 37.0639 36.3841 36.6751C36.3538 35.9584 36.378 35.2355 36.3599 34.5187C36.3478 34.1968 36.1784 33.966 36.1421 34.4155Z" fill="#474747"/>
<path d="M36.3361 35.1626C36.3119 35.2416 36.2817 35.3144 36.2575 35.3934C36.2998 35.3387 36.3301 35.2719 36.3422 35.2051L36.3785 35.1322C36.4571 35.0229 36.5721 34.9439 36.6749 34.8589C36.7899 34.7556 36.929 34.6827 37.05 34.5916C37.1952 34.4823 37.2739 34.3304 37.4372 34.2393C37.5703 34.1664 37.5885 33.5468 37.4433 33.48C37.5159 33.7837 37.5401 33.8384 37.5098 33.6561L37.4433 33.48C37.3283 33.4253 37.2134 33.3706 37.0984 33.316C36.8685 33.2066 36.6023 33.322 36.4148 33.48C36.1788 33.6744 36.0699 33.9781 36.0215 34.2696C35.9671 34.5673 35.9187 35.199 36.1667 35.4481C36.2817 35.5453 36.3361 35.199 36.3361 35.1626Z" fill="#474747"/>
<path d="M37.0132 33.9477C38.0598 34.707 39.5481 34.4944 40.7943 34.464C42.0769 34.4337 43.3716 34.2939 44.6541 34.3425C44.8296 34.3486 44.8538 33.2856 44.6299 33.2492C44.0371 33.1641 43.4684 33.3038 42.8694 33.3524C42.1979 33.4071 41.4417 33.2492 40.7641 33.2249C39.5299 33.1823 38.0295 32.9333 37.0071 33.6926L37.0132 33.9477Z" fill="#474747"/>
<path d="M44.3997 34.2392C44.8172 34.3911 45.0471 34.707 45.1378 35.1261C45.1439 35.1625 45.2104 35.3691 45.2891 35.278C45.4101 35.1382 45.3859 34.8588 45.3859 34.6948C45.3859 34.1299 45.1439 33.1823 44.3876 33.4617C44.2303 33.5103 44.2485 34.1846 44.3997 34.2392Z" fill="#474747"/>
<path d="M44.993 34.2939C44.7933 35.6728 44.7691 37.1124 44.9446 38.4913C44.9688 38.7039 45.1382 38.9955 45.2108 38.6189C45.3257 37.9872 45.2592 37.3736 45.2229 36.7358C45.1866 35.9522 45.2531 35.1686 45.1684 34.385C45.1563 34.1724 45.0474 33.9537 44.993 34.2939Z" fill="#474747"/>
<path d="M36.1179 38.7769C36.1723 39.1049 36.2873 39.36 36.5837 39.5301C36.8076 39.6637 36.9709 39.8217 37.0616 39.4694C37.11 39.281 37.1585 38.6189 36.8741 38.546C36.6563 38.4914 36.4083 38.3942 36.2207 38.2788C36.0816 38.2059 36.1118 38.7283 36.1179 38.7769Z" fill="#474747"/>
<path d="M36.7774 39.7002C39.2518 40.6417 42.3796 38.6979 44.854 39.767L44.9145 39.7366C45.0173 39.5787 45.1202 39.4208 45.223 39.2628C45.3682 39.0442 45.3501 37.647 45.0839 37.8232C42.6518 39.4633 39.2457 37.6167 36.7532 38.7769C36.5596 38.868 36.5777 39.6273 36.7774 39.7002Z" fill="#474747"/>
<path d="M40.3528 35.8976C40.3044 36.5415 40.2923 37.1732 40.2258 37.8171C40.135 38.6129 39.9959 39.4815 40.3226 40.2469C40.4496 40.5384 40.6372 40.7025 40.8671 40.417C41.3813 39.8034 41.1877 38.0601 41.1575 37.2704C41.1333 36.663 41.1151 35.7883 40.6856 35.3145C40.4738 35.0897 40.3589 35.8429 40.3528 35.8976Z" fill="#474747"/>
<path d="M36.1968 25.7108C35.7491 27.1869 35.9911 29.1125 36.0698 30.6311C36.0758 30.7829 36.094 31.5544 36.3723 31.5483C36.7111 31.5422 36.6264 30.546 36.6143 30.3699C36.5054 28.8452 36.7171 27.1869 36.336 25.7047C36.3118 25.5711 36.2331 25.5954 36.1968 25.7108Z" fill="#474747"/>
<path d="M36.1784 26.1967C39.1489 26.9682 42.5792 26.4397 45.6163 26.3304C45.8038 26.3243 45.7857 25.4374 45.5921 25.3827C44.1038 24.9758 42.5187 25.3038 41.0002 25.3402C39.3788 25.3767 37.7575 25.1033 36.1603 25.4435C35.9909 25.4739 36.0151 26.1542 36.1784 26.1967Z" fill="#474747"/>
<path d="M45.3863 25.5407C45.0475 26.1907 44.9991 27.0957 44.9568 27.8125C44.9023 28.7844 44.9144 29.7442 45.0536 30.71C45.0657 30.7829 45.1867 31.3418 45.3682 31.1535C45.6162 30.8923 45.5557 30.2666 45.5255 29.9446C45.3984 28.6447 45.5678 27.3873 45.592 26.0874C45.592 26.0267 45.5255 25.2734 45.3863 25.5407Z" fill="#474747"/>
<path d="M36.0456 41.9234C35.7915 43.7943 35.7129 45.9143 35.8581 47.8034C35.8641 47.8885 35.9912 48.7024 36.2332 48.4716C36.4994 48.2165 36.4389 47.5908 36.4086 47.2749C36.4449 47.6273 36.5599 48.8664 36.4086 47.2749C36.3542 46.7039 36.4268 46.1269 36.4389 45.5498C36.4631 44.3774 36.457 43.1929 36.2997 42.0266C36.2634 41.7837 36.1001 41.5225 36.0456 41.9234Z" fill="#474747"/>
<path d="M35.9969 48.7389C37.4126 49.1884 39.0158 48.7632 40.4799 48.666C42.1678 48.5506 43.8557 48.4594 45.5436 48.4108C45.7372 48.4048 45.7191 47.4389 45.5194 47.4389C42.3735 47.4025 39.0944 47.5179 35.9788 47.9796C35.8094 48.0038 35.8396 48.6903 35.9969 48.7389Z" fill="#474747"/>
<path d="M45.1684 42.0327C44.993 43.7032 45.1079 45.3858 45.1805 47.0623C45.1866 47.2021 45.1926 48.0464 45.4648 48.0403C45.731 48.0343 45.7068 47.1899 45.7008 47.0502C45.6221 45.4101 45.5677 43.77 45.3922 42.136C45.362 41.9052 45.2108 41.65 45.1684 42.0327Z" fill="#474747"/>
<path d="M3.14613 38.5582C8.48212 40.1132 13.5822 42.3608 18.9908 43.6728C24.5324 45.0214 30.2738 45.0274 35.9304 45.2583C36.0695 45.2643 36.0574 44.7237 35.9183 44.7359C30.4129 45.2643 24.363 44.4382 18.9787 43.2659C13.558 42.0874 8.47607 39.682 3.13403 38.1998C3.06143 38.1816 3.03723 38.5278 3.14613 38.5582Z" fill="#474747"/>
<path d="M45.2652 45.0821C56.2941 45.8961 68.3938 43.0897 78.4427 38.6554C78.5758 38.5946 78.5274 38.0479 78.3701 38.1148C73.2035 40.3441 67.8796 41.9538 62.3742 43.0836C56.6934 44.2499 51.0065 44.4321 45.2591 44.9242L45.2652 45.0821Z" fill="#474747"/>
<path d="M8.45194 17.8626C6.70353 17.9173 6.29213 16.9636 7.21777 15.0016C7.62916 14.9105 8.0466 14.8619 8.47009 14.8558C9.25657 14.8072 10.0552 14.8983 10.8416 14.9226C13.9815 15.0077 17.1275 14.9955 20.2673 15.0866C26.4201 15.2689 32.5546 15.5058 38.7074 15.4815C44.7996 15.4572 50.9523 15.6516 57.0385 15.3357C62.4108 15.0563 67.8073 13.4222 73.1735 13.483C74.329 13.4344 74.8191 14.2241 74.6436 15.852C74.1475 16.1193 73.6333 16.3258 73.1009 16.4777C71.9091 16.8604 70.7173 17.1033 69.4831 17.2795C66.8574 17.6622 64.1471 17.5468 61.5033 17.4678C55.7499 17.2916 49.9843 17.2613 44.2248 17.243C38.0782 17.2188 31.9678 17.6622 25.8272 17.8566C19.2994 18.0631 12.7534 16.6174 6.25584 17.1459C6.11064 17.158 6.12274 17.6986 6.26793 17.7047C14.3445 17.9781 22.3364 18.707 30.4251 18.2635C38.4714 17.8201 46.4875 17.8323 54.5459 17.8748C61.0617 17.9112 67.9041 18.7556 74.1717 16.5627C76.755 15.6576 75.1579 13.2218 73.1675 12.9727C70.681 12.6569 67.5592 13.5984 65.103 13.9203C60.862 14.4731 56.6513 14.9712 52.368 15.0198C44.37 15.117 36.3661 15.0866 28.3681 14.8558C24.4962 14.7465 20.6243 14.5703 16.7463 14.4792C13.679 14.4063 10.2548 13.9689 7.21172 14.4853C4.50137 14.9408 6.10459 18.3182 8.46404 18.0874C8.51244 18.0752 8.50639 17.8687 8.45194 17.8626Z" fill="#474747"/>
<path d="M4.05928 32.7693C4.47067 32.1254 4.09558 33.0001 4.01693 33.2795C3.88383 33.7655 3.72049 34.2514 3.62974 34.7495C3.52689 35.3023 2.32296 37.6895 3.41194 38.0176C3.47849 38.0358 3.44219 37.7807 3.43009 37.7564C2.9582 36.8634 3.77493 35.9583 3.84753 35.0836C3.87778 34.6827 4.02903 34.2697 4.11978 33.8748C4.19843 33.5225 4.50092 32.7814 4.25892 32.4413L4.24682 32.4352C4.14398 32.4656 4.08348 32.6235 4.04113 32.7025L4.05928 32.7693Z" fill="#474747"/>
<path d="M5.94764 33.0973C5.66934 33.6197 3.76968 39.1292 4.85261 39.117C4.91916 39.117 4.89496 38.9044 4.85866 38.874C4.35047 38.4428 5.2277 36.262 5.3729 35.7518C5.60884 34.9317 5.91739 34.0996 6.01419 33.2491C6.02024 33.2248 5.98999 33.0183 5.94764 33.0973Z" fill="#474747"/>
<path d="M7.70761 33.5346C7.74996 34.9986 6.98768 36.5415 6.49764 37.89C6.21934 38.6554 5.693 39.6333 5.91685 40.4716C5.935 40.5384 5.97735 40.6781 6.04994 40.5749C6.15884 40.423 6.23144 40.2529 6.31614 40.0828C6.33429 40.0464 6.33429 39.7791 6.27379 39.8277C6.18304 39.9067 6.09229 39.9735 5.98945 40.0342C6.02575 40.1314 6.05599 40.2286 6.09229 40.3258C6.07414 39.8642 6.41899 39.2142 6.56418 38.7768C6.80618 38.0418 7.05422 37.3068 7.28412 36.5658C7.58661 35.5695 7.82256 34.5794 7.75601 33.5346C7.74996 33.4496 7.70761 33.4496 7.70761 33.5346Z" fill="#474747"/>
<path d="M9.96435 34.4215C8.64548 36.0676 7.84689 38.8862 8.14939 40.9818C8.14939 40.994 8.19174 41.1944 8.24014 41.1337C8.39743 40.9393 8.54868 40.7388 8.70598 40.5445L8.68178 40.3379C8.51843 40.4594 8.35508 40.587 8.19174 40.7146C8.22199 40.8057 8.25224 40.8907 8.28854 40.9818C8.40348 38.6371 9.19602 36.7176 10.0006 34.5551L9.96435 34.4215Z" fill="#474747"/>
<path d="M11.7128 34.9257C11.0291 36.9242 10.1822 39.0381 10.037 41.1641C10.0309 41.2431 10.1096 41.7108 10.2003 41.4435C10.3515 40.9879 10.5814 40.6296 10.7871 40.2104C10.8053 40.1679 10.7932 39.9553 10.7448 40.016C10.5149 40.3441 10.2789 40.6417 10.0733 40.9879C10.1156 41.1398 10.158 41.2917 10.2003 41.4435C10.775 39.3479 11.3982 37.155 11.7491 35.0107C11.7551 34.9925 11.737 34.8589 11.7128 34.9257Z" fill="#474747"/>
<path d="M13.9452 35.2233C13.6609 36.1405 10.9021 41.4921 12.5356 42.057C12.6082 42.0813 12.5719 41.7715 12.5537 41.7411C12.0274 40.7206 12.8078 39.0501 13.1345 38.0539C13.4249 37.1671 13.7153 36.2741 13.9936 35.3812C14.0118 35.3326 13.9755 35.1139 13.9452 35.2233Z" fill="#474747"/>
<path d="M16.3166 35.6667C15.881 36.2924 13.1404 41.8262 14.4593 42.1968C14.5259 42.215 14.5017 41.9416 14.4775 41.9113C14.1326 41.4374 14.9373 39.6819 15.1067 39.1778C15.4515 38.1694 15.8508 37.1125 16.4316 36.2134C16.5042 36.098 16.4316 35.5027 16.3166 35.6667Z" fill="#474747"/>
<path d="M18.5494 35.8125C17.6722 37.155 17.0672 38.71 16.6558 40.2651C16.5046 40.8482 16.0024 42.7495 16.674 43.1869C16.7466 43.2355 16.7405 42.9864 16.7405 42.9621C16.5106 40.7389 17.5149 38.2605 18.6644 36.3957C18.7491 36.262 18.6644 35.6364 18.5494 35.8125Z" fill="#474747"/>
<path d="M20.3037 36.2742C19.6625 37.6591 19.0817 39.0684 18.6945 40.5506C18.4888 41.3402 18.0955 42.7677 18.5735 43.5149C18.6219 43.5938 18.6582 43.4784 18.6703 43.4359C18.8215 42.3972 18.8276 41.4192 19.1119 40.3865C19.4447 39.1838 19.9347 38.0297 20.4308 36.8877C20.4973 36.7419 20.3884 36.0919 20.3037 36.2742Z" fill="#474747"/>
<path d="M22.3904 36.9241C21.2773 38.5521 20.0612 41.2491 20.4726 43.284C20.4908 43.3691 20.5513 43.448 20.5876 43.3265C20.8417 42.5187 20.8417 41.6136 21.0655 40.7814C21.3741 39.6272 21.8701 38.5217 22.5175 37.5194C22.5961 37.3918 22.5114 36.748 22.3904 36.9241Z" fill="#474747"/>
<path d="M24.1271 37.4526C23.4374 39.3903 22.1004 41.5285 22.2153 43.6485C22.2153 43.6728 22.2758 43.9947 22.3303 43.855C22.6751 43.0046 22.784 42.0509 23.0925 41.1701C23.4737 40.0889 23.9274 39.0441 24.2965 37.9568C24.3449 37.8231 24.242 37.1185 24.1271 37.4526Z" fill="#474747"/>
<path d="M26.5347 37.3554C25.5365 39.2628 24.8166 41.5346 24.4354 43.6485C24.4233 43.7153 24.4838 44.2863 24.5867 44.0859C25.0102 43.2415 25.1735 42.2393 25.4337 41.3342C25.7603 40.2043 26.1415 39.0988 26.6799 38.054C26.7646 37.896 26.6436 37.1489 26.5347 37.3554Z" fill="#474747"/>
<path d="M28.3136 37.4223C27.3517 39.6212 26.0631 42.1239 25.9058 44.5597C25.9058 44.5901 25.9421 44.9364 26.0086 44.8088C26.4442 44.0252 26.5652 43.0168 26.8435 42.1664C27.3033 40.7511 27.8599 39.3722 28.4286 37.9994C28.483 37.8597 28.3862 37.2583 28.3136 37.4223Z" fill="#474747"/>
<path d="M30.8543 37.3433C29.8258 39.4268 28.7732 41.6986 28.5856 44.0494C28.5796 44.1345 28.6824 44.6629 28.7611 44.3653C29.3479 42.1664 29.9892 40.1254 30.9935 38.0722C31.0842 37.9021 30.9572 37.1367 30.8543 37.3433Z" fill="#474747"/>
<path d="M32.7905 37.7321C32.0343 39.1109 31.3991 40.5445 30.909 42.0327C30.6791 42.7313 30.2435 43.9036 30.5823 44.6387L30.6307 44.6569C30.7699 44.5536 30.7578 44.2985 30.7759 44.1588C30.8546 43.527 31.0421 42.9196 31.2236 42.3122C31.6471 40.9333 32.2461 39.5969 32.9055 38.3213C32.9781 38.1876 32.8813 37.5559 32.7905 37.7321Z" fill="#474747"/>
<path d="M34.8593 38.4914C33.9518 40.4352 32.2518 42.9439 32.639 45.1975C32.6511 45.2704 32.6995 45.3372 32.7358 45.234C33.0564 44.2499 33.1895 43.2537 33.5828 42.2696C34.0063 41.2127 34.5266 40.2043 34.9984 39.1717C35.071 39.0138 34.95 38.2909 34.8593 38.4914Z" fill="#474747"/>
<path d="M35.6699 40.1618C34.7322 41.7229 33.3407 44.0677 33.7642 45.9932C33.7703 46.0175 33.8126 46.133 33.8368 46.054C34.1151 45.3251 34.1272 44.4989 34.3692 43.7457C34.708 42.6827 35.2283 41.6804 35.7788 40.7206C35.8575 40.5931 35.7728 39.9978 35.6699 40.1618Z" fill="#474747"/>
<path d="M36.3299 42.6463C35.6462 43.521 35.0352 44.5294 34.7266 45.6045C34.7145 45.641 34.7266 45.9933 34.7932 45.9265C35.1017 45.6288 35.2832 45.1975 35.4829 44.827C35.7551 44.3167 36.0576 43.8308 36.4085 43.3752C36.5356 43.2051 36.3783 42.5795 36.3299 42.6463Z" fill="#474747"/>
<path d="M47.546 37.4891C46.9108 39.8702 45.9307 42.379 45.6887 44.8391C45.6826 44.8877 45.7068 45.4162 45.846 45.3068C46.1666 45.0639 45.973 45.1975 46.3058 44.7844C46.3421 44.7419 46.3542 44.4078 46.2816 44.4321C46.1485 44.4807 45.9428 44.584 45.7976 44.5475C45.8339 44.7662 45.8641 44.9849 45.9004 45.2036C46.2816 43.6121 46.693 42.0388 47.1286 40.4655C47.3827 39.5422 47.7214 38.4913 47.5883 37.5255C47.5883 37.5012 47.5641 37.4222 47.546 37.4891Z" fill="#474747"/>
<path d="M49.9297 37.3798C48.5382 39.1474 46.8442 42.7617 47.6852 45.076C47.7336 45.2097 47.782 45.0457 47.782 44.991C47.9393 42.5005 48.514 40.1011 50.0023 38.0479C50.1112 37.89 49.9841 37.3069 49.9297 37.3798Z" fill="#474747"/>
<path d="M51.1462 37.6895C50.8074 39.3053 50.154 40.8482 49.7245 42.4397C49.543 43.1079 49.1679 44.2742 49.6277 44.9059C49.6942 44.9971 49.6942 44.7237 49.6882 44.6933C49.4764 43.6121 50.1903 42.0874 50.5049 41.073C50.8135 40.0707 51.1462 39.0745 51.3458 38.0479C51.3821 37.8718 51.243 37.2339 51.1462 37.6895Z" fill="#474747"/>
<path d="M52.9365 37.3858C51.9262 39.3782 50.3956 41.8019 50.5468 44.1345C50.5468 44.1527 50.5952 44.4078 50.6376 44.2985C51.0369 43.3084 51.176 42.221 51.5753 41.2127C52.0109 40.1254 52.5493 39.0806 53.0696 38.0297C53.1422 37.8778 53.0333 37.1975 52.9365 37.3858Z" fill="#474747"/>
<path d="M54.201 37.7746C53.3358 40.2469 51.8839 42.7131 51.654 45.3554C51.654 45.3919 51.7084 45.7442 51.7629 45.6106C52.265 44.3592 52.5614 43.0229 53.0454 41.7594C53.4931 40.5992 53.965 39.4572 54.3643 38.2787C54.4127 38.1451 54.3159 37.4466 54.201 37.7746Z" fill="#474747"/>
<path d="M55.5016 38.3517C54.6909 40.3988 53.4688 42.4641 53.0998 44.6509C53.0937 44.6995 53.124 45.1368 53.2087 44.991C53.7048 44.177 53.9286 43.1626 54.2916 42.2758C54.7393 41.1824 55.2052 40.095 55.6286 38.9895C55.6891 38.8376 55.5742 38.1755 55.5016 38.3517Z" fill="#474747"/>
<path d="M57.2562 38.0114C56.2701 40.0038 55.1085 42.2878 55.0117 44.5535C55.0117 44.5839 55.0722 44.9788 55.1267 44.833C55.4352 44.0372 55.5623 43.1747 55.8285 42.3607C56.2399 41.0972 56.8086 39.8884 57.3893 38.6978C57.468 38.5338 57.353 37.817 57.2562 38.0114Z" fill="#474747"/>
<path d="M59.1804 37.2096C57.8978 39.3721 56.839 41.9902 56.4579 44.4868C56.4519 44.5354 56.4942 44.9727 56.5668 44.827C57.081 43.7275 57.3049 42.4579 57.7163 41.3099C58.1398 40.1193 58.6722 38.9712 59.3134 37.8778C59.3981 37.732 59.2892 37.0213 59.1804 37.2096Z" fill="#474747"/>
<path d="M60.6196 37.7077C59.6335 39.7062 58.6231 41.9295 58.3751 44.1648C58.369 44.2134 58.4235 44.669 58.49 44.5172C58.8228 43.6971 58.9861 42.8042 59.2584 41.9598C59.6577 40.7207 60.184 39.524 60.7466 38.3516C60.8192 38.1998 60.7103 37.5255 60.6196 37.7077Z" fill="#474747"/>
<path d="M62.2288 37.4162C61.1156 39.524 60.0448 41.9963 59.8209 44.3896C59.8209 44.4261 59.8633 44.7784 59.9238 44.6447C60.2989 43.8125 60.432 42.8528 60.6982 41.9781C61.1156 40.5992 61.6843 39.2749 62.3377 37.9932C62.4042 37.8657 62.3135 37.2582 62.2288 37.4162Z" fill="#474747"/>
<path d="M63.9839 37.7199C63.6391 38.4549 63.4213 39.2203 63.2217 40.0039C62.9615 41.0426 62.5622 41.9963 62.2295 43.0107C62.2174 43.0533 62.2234 43.4542 62.3021 43.3934C62.8042 42.9804 62.9555 42.136 63.1309 41.5347C63.4455 40.4595 63.627 39.3722 64.0989 38.3456C64.1715 38.1937 64.0626 37.5498 63.9839 37.7199Z" fill="#474747"/>
<path d="M66.6996 36.0799C65.5803 38.2241 64.6366 40.7693 64.1465 43.1383C64.1344 43.1991 64.1526 43.7215 64.2494 43.5635C64.7939 42.6888 64.9996 41.5408 65.3141 40.5689C65.7316 39.2629 66.2095 37.9933 66.8327 36.7723C66.9053 36.6144 66.7964 35.8916 66.6996 36.0799Z" fill="#474747"/>
<path d="M68.7815 36.0859C68.116 37.8657 67.1178 39.6941 66.8516 41.5893C66.8455 41.6379 66.8758 42.1239 66.9665 41.9659C67.4021 41.2066 67.5776 40.259 67.8861 39.439C68.2189 38.546 68.5758 37.6652 68.9025 36.7662C68.963 36.6022 68.8481 35.9097 68.7815 36.0859Z" fill="#474747"/>
<path d="M70.2215 35.4542C69.3141 37.5741 68.0859 39.7974 67.977 42.1421C67.977 42.1725 68.0315 42.5491 68.0799 42.4094C68.4308 41.4435 68.6183 40.4291 68.9632 39.4572C69.3685 38.3213 69.8767 37.2218 70.3365 36.1102C70.403 35.9583 70.2941 35.278 70.2215 35.4542Z" fill="#474747"/>
<path d="M72.1507 35.1687C71.4005 37.3798 70.1723 39.6151 70.0574 41.9781C70.0574 42.0085 70.1118 42.3851 70.1602 42.2454C70.5656 41.1277 70.7894 39.9492 71.1887 38.8255C71.5578 37.7807 71.951 36.7541 72.2717 35.6911C72.308 35.5817 72.1991 35.0107 72.1507 35.1687Z" fill="#474747"/>
<path d="M73.8993 34.6402C72.7983 36.6143 72.157 39.032 71.8121 41.2552C71.8061 41.3099 71.8484 41.8019 71.9271 41.644C72.3203 40.8421 72.4474 39.8945 72.6591 39.032C72.9798 37.7381 73.3912 36.4868 74.0203 35.3083C74.105 35.1626 74.0022 34.4579 73.8993 34.6402Z" fill="#474747"/>
<path d="M75.3275 34.7191C74.904 36.9727 73.5367 39.1109 73.7484 41.4617C73.7545 41.5164 73.815 41.7047 73.8452 41.5528C74.2506 39.3782 75.1157 37.3372 75.4908 35.1625C75.515 35.0411 75.388 34.3911 75.3275 34.7191Z" fill="#474747"/>
<path d="M77.1057 33.8748C76.2768 35.8551 75.448 38.0054 75.1757 40.1436C75.1697 40.1922 75.2181 40.6538 75.2786 40.502C76.0832 38.5703 76.4341 36.4321 77.2145 34.4701C77.269 34.3365 77.1722 33.7169 77.1057 33.8748Z" fill="#474747"/>
<path d="M78.219 34.6281C77.4264 36.3471 77.1421 38.4793 76.9606 40.3502L77.0211 40.6175C77.3357 40.1315 77.3599 39.4876 77.4506 38.9288C77.6503 37.6957 77.8197 36.4747 78.346 35.3327C78.4186 35.1687 78.3037 34.4458 78.219 34.6281Z" fill="#474747"/>
<path d="M3.70897 54.8619C3.38227 65.4799 21.6287 61.2886 27.8843 60.9849C38.6772 60.4625 49.6638 59.6424 60.4508 60.5232C64.4981 60.8573 68.8903 61.4222 72.6897 59.6728C75.7449 58.2696 77.5538 54.868 78.9815 52.013C79.0481 51.8854 78.9634 51.2719 78.8484 51.4724C77.2634 54.1876 75.8779 56.9636 73.2039 58.7738C69.943 60.9788 65.212 60.3349 61.5337 60.0676C52.2774 59.3934 43.0392 59.8065 33.7708 60.1891C28.0053 60.4321 22.276 60.991 16.5166 61.2765C11.9791 61.5012 3.70292 61.4465 3.90256 54.9894C3.90861 54.7829 3.72107 54.5156 3.70897 54.8619Z" fill="#474747"/>
<path d="M4.33818 58.0752C4.05989 59.2536 3.5396 60.3713 3.36415 61.5741C3.3581 61.6348 3.41255 61.9811 3.4791 61.7988C3.87234 60.6811 4.27163 59.5452 4.54388 58.3911C4.58623 58.2149 4.43498 57.6804 4.33818 58.0752Z" fill="#474747"/>
<path d="M5.4815 59.4967C5.10036 60.5354 4.70106 61.6956 4.75551 62.8133C4.75551 62.874 4.80996 63.0988 4.87651 62.9469C5.03986 62.5521 5.08826 62.1147 5.17901 61.6956C5.30605 61.1246 5.48755 60.5718 5.68115 60.0251C5.74164 59.8611 5.60855 59.1383 5.4815 59.4967Z" fill="#474747"/>
<path d="M7.02432 59.8247C6.35279 60.9242 5.8567 62.4063 5.87485 63.7063C5.87485 63.7488 5.92325 64.0343 6.00795 63.9067C6.23784 63.5483 6.27414 63.0684 6.36489 62.6554C6.54033 61.89 6.78838 61.1489 7.17557 60.4686C7.26027 60.3046 7.15742 59.606 7.02432 59.8247Z" fill="#474747"/>
<path d="M8.6819 60.1224C8.02851 61.2704 7.36302 62.6979 7.27832 64.0282C7.27832 64.0525 7.30252 64.3684 7.38117 64.2894C7.72602 63.9371 7.79256 63.3053 7.93776 62.8498C8.17976 62.1026 8.45805 61.3737 8.81499 60.6751C8.88154 60.5415 8.79079 59.9341 8.6819 60.1224Z" fill="#474747"/>
<path d="M10.8841 60.5719C10.0674 61.7382 9.03287 62.947 9.05102 64.4656C9.05102 64.5081 9.08732 64.7511 9.16597 64.6417C9.52291 64.1315 9.63181 63.3175 9.88591 62.7404C10.1824 62.0601 10.5272 61.3555 10.9144 60.7237L10.8841 60.5719Z" fill="#474747"/>
<path d="M12.4083 61.0578C11.9122 61.4162 11.6036 62.218 11.3737 62.7587C11.1378 63.3175 10.9503 63.8885 11.0591 64.4959C11.0894 64.6721 11.1983 64.6478 11.2285 64.4899C11.1559 64.824 11.2588 64.3562 11.2709 64.2894C11.3374 63.9492 11.4584 63.6152 11.5794 63.2932C11.8396 62.5947 12.2328 61.9447 12.4446 61.2279L12.4083 61.0578Z" fill="#474747"/>
<path d="M14.0419 60.6751C13.6608 61.3676 13.2494 61.9993 12.9892 62.7586C12.8561 63.1535 12.602 63.9735 12.8985 64.3562L12.9711 64.3258C13.1223 63.8581 13.1586 63.36 13.322 62.8862C13.5458 62.2119 13.7999 61.5134 14.0903 60.8695C14.1145 60.833 14.0843 60.6083 14.0419 60.6751Z" fill="#474747"/>
<path d="M16.2137 60.5719C15.7116 61.1246 15.3123 61.6349 14.9856 62.3274C14.8344 62.6554 14.5379 63.3661 14.8041 63.7123C14.8586 63.7792 14.8828 63.6516 14.8828 63.6152C14.8949 63.3175 15.2397 62.7161 15.3789 62.4185C15.6329 61.8596 15.881 61.2218 16.2379 60.7237L16.2137 60.5719Z" fill="#474747"/>
<path d="M17.4721 60.833C17.0849 61.4344 16.7522 62.0357 16.4739 62.6979C16.3226 63.0623 16.1109 63.7123 16.3226 64.0889L16.365 64.101C16.6009 63.9674 16.7159 63.1413 16.8006 62.8983C17.0365 62.2484 17.3027 61.6227 17.5084 60.9606L17.4721 60.833Z" fill="#474747"/>
<path d="M19.8196 60.0798C19.263 61.1793 18.5613 62.4428 18.5613 63.7062C18.5613 63.7245 18.5915 63.9431 18.646 63.8824C18.9363 63.5665 18.9968 63.0138 19.136 62.6189C19.3659 61.9629 19.6563 61.3372 19.9588 60.7116C20.0374 60.5597 19.9225 59.8733 19.8196 60.0798Z" fill="#474747"/>
<path d="M21.7552 60.8573C21.2229 62.0783 20.4848 63.36 20.4545 64.7206C20.4545 64.7571 20.4969 65.0122 20.5695 64.8968C20.8478 64.4412 20.8962 63.8338 21.0595 63.3174C21.2834 62.6067 21.5375 61.8839 21.8339 61.2036C21.8702 61.1185 21.8036 60.748 21.7552 60.8573Z" fill="#474747"/>
<path d="M23.4614 60.505C23.044 61.726 22.4088 63.0198 22.4874 64.338C22.4874 64.3927 22.5419 64.6053 22.5963 64.4595C22.7959 63.9614 22.8746 63.4147 23.0258 62.9044C23.2134 62.2788 23.4554 61.6713 23.6671 61.0517C23.7276 60.8817 23.5885 60.1345 23.4614 60.505Z" fill="#474747"/>
<path d="M25.1069 60.1284C24.6955 61.4466 24.0179 62.7769 23.8667 64.1558C23.8606 64.2044 23.8909 64.5263 23.9877 64.3988C24.3083 63.9675 24.4172 63.3661 24.5927 62.8619C24.8407 62.133 25.0948 61.4041 25.3126 60.663C25.3671 60.499 25.2219 59.7579 25.1069 60.1284Z" fill="#474747"/>
<path d="M27.2849 60.0434C26.4742 61.2704 25.4821 62.7708 25.3913 64.2833C25.3913 64.3015 25.4216 64.6356 25.4942 64.5506C25.8753 64.1254 26.0024 63.4086 26.2383 62.8923C26.5771 62.1451 27.0006 61.4344 27.4483 60.748C27.5572 60.584 27.4362 59.8125 27.2849 60.0434Z" fill="#474747"/>
<path d="M28.6768 59.9097C28.0597 61.1793 27.4426 62.5521 27.0433 63.9067C27.0312 63.9553 27.0554 64.4291 27.1401 64.3258C27.4729 63.9492 27.6362 63.4754 27.8238 63.0137C28.1505 62.2119 28.459 61.404 28.8341 60.6265C28.9309 60.4443 28.7918 59.685 28.6768 59.9097Z" fill="#474747"/>
<path d="M30.5762 59.6486C29.8079 60.9546 29.0153 62.4306 28.8036 63.9553C28.7975 64.0039 28.8459 64.4656 28.9306 64.3015C29.2331 63.7366 29.4025 63.0927 29.6445 62.5035C29.9531 61.7685 30.3282 61.0639 30.7335 60.3775C30.8424 60.2013 30.7153 59.4177 30.5762 59.6486Z" fill="#474747"/>
<path d="M32.3549 60.177C31.5926 61.3494 30.7578 62.7951 30.5763 64.2044C30.5702 64.253 30.5944 64.7328 30.7094 64.5628C31.0724 64.0404 31.2236 63.3114 31.4837 62.7344C31.7741 62.0844 32.125 61.4648 32.5122 60.8695C32.6151 60.7055 32.5001 59.9584 32.3549 60.177Z" fill="#474747"/>
<path d="M34.2603 60.0798C33.7158 61.3919 32.8204 62.7101 32.7418 64.1558C32.7418 64.1861 32.7841 64.5263 32.8567 64.3927C33.1713 63.8035 33.3407 63.117 33.6129 62.5035C33.8852 61.8839 34.1756 61.2765 34.4297 60.6508C34.4841 60.5111 34.345 59.8855 34.2603 60.0798Z" fill="#474747"/>
<path d="M36.4084 59.4238C35.64 60.6265 35.1137 62.0904 35.023 63.524C35.023 63.5544 35.0774 63.8824 35.1319 63.7488C35.6521 62.5217 35.8336 61.2522 36.5596 60.098C36.6625 59.9401 36.5475 59.2051 36.4084 59.4238Z" fill="#474747"/>
<path d="M38.2054 60.0373C37.552 61.4101 36.5901 62.7222 36.2936 64.2347C36.2876 64.2651 36.3178 64.6052 36.3783 64.5323C36.7776 64.016 36.9833 63.3418 37.2616 62.7525C37.6185 62.0054 37.9694 61.2522 38.3082 60.4989C38.3627 60.3896 38.278 59.8915 38.2054 60.0373Z" fill="#474747"/>
<path d="M40.5222 60.0676C39.7115 61.3797 38.8887 62.71 38.5862 64.2468C38.5802 64.2833 38.5983 64.5991 38.677 64.4898C39.0581 63.9553 39.2517 63.281 39.4998 62.6796C39.8446 61.8596 40.1774 61.0152 40.5585 60.2073L40.5222 60.0676Z" fill="#474747"/>
<path d="M42.5487 59.8064C41.7017 61.2339 40.6249 62.6006 40.6067 64.3379C40.6067 64.3622 40.6491 64.5869 40.6974 64.4837C41.0362 63.7973 41.1875 63.0076 41.49 62.303C41.8288 61.5194 42.1978 60.7297 42.585 59.9643L42.5487 59.8064Z" fill="#474747"/>
<path d="M44.1343 59.7943C43.4628 60.9788 42.277 62.546 42.513 63.9978L42.5795 64.1011C42.6824 64.0039 42.6884 63.9249 42.7368 63.7791C42.8881 63.3357 43.0212 62.9044 43.2148 62.4731C43.5233 61.7867 43.9165 61.1368 44.2795 60.4807C44.3763 60.3228 44.2614 59.5817 44.1343 59.7943Z" fill="#474747"/>
<path d="M46.2881 59.6728C45.3927 60.9849 44.6728 62.5642 44.5276 64.1618C44.5276 64.1922 44.5578 64.4959 44.6304 64.3805C44.945 63.8277 45.0781 63.1717 45.2899 62.5764C45.5742 61.7928 45.9735 61.0517 46.4393 60.3592C46.5422 60.2013 46.4333 59.4541 46.2881 59.6728Z" fill="#474747"/>
<path d="M48.4714 59.8672C47.4671 61.0518 46.5838 62.6189 46.5535 64.2104C46.5535 64.2408 46.5898 64.4716 46.6503 64.3684C46.9649 63.8277 47.092 63.1596 47.3521 62.5825C47.6607 61.89 48.0781 61.2461 48.5621 60.663C48.7134 60.4868 48.55 59.7761 48.4714 59.8672Z" fill="#474747"/>
<path d="M49.8328 60.4078C49.1794 61.4587 48.526 62.6068 48.3264 63.8399C48.3203 63.8885 48.3385 64.2955 48.4353 64.1557C48.7438 63.7245 48.9132 63.1717 49.1371 62.6918C49.3912 62.1573 49.6816 61.647 49.9901 61.1428C50.093 60.9788 49.972 60.177 49.8328 60.4078Z" fill="#474747"/>
<path d="M52.622 59.6606C51.7387 60.9666 51.0006 62.5399 50.6195 64.0767C50.6134 64.1132 50.6255 64.4777 50.6921 64.3987C51.1155 63.931 51.3091 63.2749 51.5511 62.7039C51.896 61.89 52.2832 61.1064 52.7732 60.3714C52.8761 60.2073 52.7672 59.442 52.622 59.6606Z" fill="#474747"/>
<path d="M55.0234 60.2681C54.4789 61.3433 53.7468 62.382 53.5169 63.5908C53.5109 63.6212 53.5351 64.01 53.6137 63.9249C53.9344 63.5605 54.1098 63.0927 54.3276 62.6675C54.612 62.1208 54.9084 61.5863 55.1867 61.0396C55.2775 60.8452 55.1383 60.0373 55.0234 60.2681Z" fill="#474747"/>
<path d="M57.1711 59.77C56.3483 60.8998 55.6284 62.224 55.5316 63.6455C55.5316 63.6758 55.58 64.0342 55.6465 63.8945C55.9067 63.3478 56.07 62.7586 56.3181 62.2058C56.5903 61.6045 56.9473 61.0517 57.3284 60.5171C57.4615 60.3471 57.3466 59.5331 57.1711 59.77Z" fill="#474747"/>
<path d="M58.986 59.9036C58.1088 60.8087 57.4554 62.1936 57.3042 63.451C57.2981 63.4814 57.3163 63.9188 57.407 63.8277C57.7398 63.4814 57.8366 62.8193 58.0059 62.382C58.26 61.7381 58.5988 61.1489 59.0647 60.6386C59.2099 60.4807 59.0707 59.8125 58.986 59.9036Z" fill="#474747"/>
<path d="M60.6319 60.2803C60.0027 61.1793 59.4038 62.2302 59.2102 63.3236C59.2041 63.36 59.2344 63.7792 59.307 63.6941C59.6034 63.36 59.7305 62.8376 59.912 62.4306C60.1419 61.9204 60.4262 61.4405 60.7408 60.9849C60.8558 60.8209 60.6864 60.2074 60.6319 60.2803Z" fill="#474747"/>
<path d="M62.4956 60.2742C61.8543 61.2096 61.3038 62.3273 61.1102 63.4511C61.1041 63.4815 61.1283 63.9006 61.207 63.8156C61.4974 63.4997 61.6123 63.0198 61.7757 62.631C62.0116 62.0661 62.302 61.5316 62.6469 61.0335C62.7679 60.8634 62.6529 60.0494 62.4956 60.2742Z" fill="#474747"/>
<path d="M64.4315 60.7298C63.887 61.4223 63.403 62.1755 63.2638 63.0623C63.2578 63.0988 63.288 63.5362 63.3667 63.445C63.5482 63.2203 63.6571 62.9348 63.7962 62.6857C64.008 62.297 64.256 61.9325 64.5283 61.5863C64.6372 61.4466 64.6251 61.2036 64.6069 61.0396C64.6009 61.0153 64.5222 60.6083 64.4315 60.7298Z" fill="#474747"/>
<path d="M66.6756 59.8794C66.1433 60.7237 65.7077 61.8171 65.5383 62.8072C65.5322 62.8498 65.5322 63.275 65.6411 63.196C65.9134 63.0016 65.9981 62.5278 66.113 62.2241C66.3127 61.6835 66.5244 61.1489 66.8329 60.6569C66.9479 60.4807 66.8208 59.6485 66.6756 59.8794Z" fill="#474747"/>
<path d="M68.3274 59.6546C67.9402 60.5718 67.5409 61.5438 67.3352 62.5217C67.3291 62.5582 67.3352 62.9895 67.4138 62.9105C67.6437 62.6736 67.7526 62.3395 67.8615 62.0358C68.0612 61.4769 68.2548 60.9242 68.4786 60.3775C68.5512 60.2013 68.5452 59.9887 68.5089 59.8004C68.4968 59.7397 68.4 59.4785 68.3274 59.6546Z" fill="#474747"/>
<path d="M69.9668 59.8672C69.4466 60.8209 68.9928 61.9568 68.7206 63.0076C68.7085 63.0623 68.6843 63.5118 68.8113 63.445C69.1804 63.2324 69.3256 62.5946 69.4647 62.224C69.6643 61.6956 69.8579 61.1671 70.1302 60.669C70.227 60.4807 70.0939 59.6363 69.9668 59.8672Z" fill="#474747"/>
<path d="M71.8547 58.9682C71.4493 60.3957 70.7476 61.726 70.3725 63.1535C70.3604 63.196 70.3664 63.6394 70.4572 63.5604C70.929 63.1413 71.1287 62.3638 71.3404 61.7867C71.6066 61.0456 71.8426 60.2985 72.0483 59.5392C72.0846 59.3812 71.9636 58.5916 71.8547 58.9682Z" fill="#474747"/>
<path d="M74.0265 58.3729C73.2944 59.6667 72.7802 61.2036 72.393 62.6371C72.3809 62.6857 72.4172 63.1291 72.4777 63.0502C72.8407 62.5885 72.998 61.9932 73.1855 61.4405C73.4638 60.6326 73.7542 59.849 74.1717 59.1079C74.2685 58.9439 74.1475 58.1603 74.0265 58.3729Z" fill="#474747"/>
<path d="M75.8112 57.0183C75.0187 58.6158 74.3532 60.4382 74.2745 62.2362C74.2685 62.3091 74.335 62.7647 74.4197 62.5095C74.9703 60.8937 75.2002 59.2537 75.9382 57.6804C76.0048 57.5224 75.902 56.83 75.8112 57.0183Z" fill="#474747"/>
<path d="M77.5659 54.7769C77.2271 57.152 76.1139 59.2233 75.4363 61.4952C75.4181 61.562 75.4484 62.0176 75.5331 61.8779C76.7128 59.8855 77.4388 57.3646 77.7232 55.0745C77.7474 54.9348 77.6203 54.4003 77.5659 54.7769Z" fill="#474747"/>
</svg>
