<svg width="42" height="32" viewBox="0 0 42 32" fill="none" xmlns="http://www.w3.org/2000/svg">
<path d="M20.8457 5.56135C22.6141 4.93339 24.0707 3.37313 25.6913 2.43441C27.5627 1.34831 29.7556 0.899775 31.8906 1.29064C34.0095 1.6783 35.7459 3.2674 36.8777 5.00708C38.5497 7.57655 38.0963 10.1973 37.569 13.0038C37.5561 13.0711 37.5626 13.6927 37.7619 13.5421C39.3053 12.3727 38.8809 9.05352 38.5851 7.42597C38.1638 5.09679 36.8905 2.97906 35.0417 1.5053C30.4244 -2.18231 24.1511 1.62704 20.7974 5.20252C20.7396 5.26339 20.7106 5.6094 20.8457 5.56135Z" fill="#474747"/>
<path d="M36.2059 15.9098C34.7975 16.7075 33.685 18.4408 32.5274 19.591C31.2477 20.8629 29.8972 22.0643 28.55 23.2658C27.1931 24.4704 25.8298 25.6654 24.4922 26.8925C23.1288 28.1452 21.5468 29.4267 20.6112 31.0383C20.5243 31.1888 20.4568 32.182 20.8137 31.9706C22.296 31.0895 23.4536 29.4748 24.7012 28.2926C26.1577 26.9085 27.6593 25.5757 29.1448 24.2237C31.5725 22.0131 34.9197 19.4308 36.3313 16.4032C36.3666 16.3263 36.3763 15.8137 36.2059 15.9098Z" fill="#474747"/>
<path d="M20.9736 4.69235C19.5041 4.3976 18.6778 3.45247 17.6874 2.41443C16.6617 1.33794 15.263 0.735621 13.8579 0.325531C11.1119 -0.481834 8.43671 0.485722 6.27274 2.18375C4.38208 3.66712 3.03161 5.83612 2.54609 8.17491C2.1731 9.97546 2.45284 13.0672 4.13128 14.1949C4.43675 14.3999 4.37565 13.4068 4.32421 13.2914C3.79688 12.0868 3.07342 11.1064 2.98981 9.73838C2.90943 8.4216 3.52679 7.09522 4.18273 5.9931C5.26954 4.16692 7.06373 2.76685 8.99619 1.92424C11.3531 0.892609 14.0058 1.42444 16.1826 2.62908C17.7582 3.50052 18.9575 5.99951 20.9961 5.58622C21.2469 5.53175 21.2212 4.74361 20.9736 4.69235Z" fill="#474747"/>
<path d="M5.49535 16.6787C6.85225 18.2517 8.24131 19.8857 9.74933 21.3178C10.8651 22.3783 11.9262 23.49 12.9969 24.5985C13.6175 25.2393 14.1962 25.989 15.0612 26.2933C15.5853 26.476 16.0097 27.3794 16.3088 27.7959C16.7846 28.4591 17.4502 29.0326 18.0258 29.6093C18.5821 30.17 19.7139 31.6534 20.582 31.6982C20.6978 31.7046 20.7717 31.5604 20.8103 31.4771C21.119 30.8107 20.7685 30.3238 20.2219 29.9489C18.7557 28.9397 17.7268 27.3955 16.2702 26.3959C15.4953 25.864 15.1287 25.297 14.566 24.5633C13.6528 23.3747 12.2734 22.311 11.1963 21.2537C10.1802 20.2541 9.1159 19.3122 8.12877 18.2774C7.36028 17.4732 6.56929 16.5473 5.59181 15.9994C5.38281 15.8809 5.40532 16.5729 5.49535 16.6787Z" fill="#474747"/>
<path d="M0.189648 15.3748C3.32467 15.8874 6.63975 15.4997 9.80692 15.5574C10.9773 15.5798 11.5079 13.7344 11.9902 12.7829C12.7458 11.2931 13.4435 9.7969 14.3599 8.39362C14.5496 8.10207 14.331 6.84297 14.0673 7.24345C13.3503 8.33916 12.7619 9.49253 12.1928 10.6683C11.7265 11.6295 10.7715 14.7596 9.31497 14.4649C7.98379 14.1958 6.48541 14.372 5.14137 14.42C3.4983 14.4809 1.79414 14.3143 0.170356 14.5706C-0.0707994 14.6122 -0.0482916 15.3363 0.189648 15.3748Z" fill="#474747"/>
<path d="M14.2219 8.13402C14.3923 8.13402 14.3827 7.50928 14.2058 7.50928C14.0322 7.50928 14.0418 8.13402 14.2219 8.13402Z" fill="#474747"/>
<path d="M14.0935 7.74309C14.0002 8.41269 14.2446 9.05665 14.5179 9.65897C15.1545 11.0623 15.952 12.4079 16.6272 13.7951C18.2124 17.063 19.9391 20.3726 21.9133 23.4258C21.9905 23.5444 22.132 23.5251 22.2059 23.4194C24.6303 19.8375 25.9133 15.6213 28.0065 11.8568C28.1994 11.5108 27.9229 10.1556 27.6689 10.6105C26.6689 12.4207 25.894 14.3302 24.9937 16.1852C24.0065 18.226 23.2863 20.4943 21.8844 22.3013C22.0194 22.375 22.1513 22.4519 22.2863 22.5255C21.2445 19.6197 19.2767 16.9989 17.8265 14.2853C17.0966 12.9237 16.4278 11.5268 15.7044 10.1588C15.3732 9.53402 14.3443 8.51841 14.3346 7.81357C14.3314 7.54765 14.1417 7.39707 14.0935 7.74309Z" fill="#474747"/>
<path d="M27.6008 11.3121C27.7938 12.1451 28.1217 12.9813 28.4208 13.7823C28.6137 14.2917 28.9513 15.4451 29.5622 15.5925C29.977 15.6918 29.7744 14.4327 29.6748 14.2725C30.0188 14.8107 29.4593 14.013 29.35 13.8624C29.0735 13.4843 28.9095 13.007 28.7391 12.5745C28.5204 12.0234 28.3179 10.9789 27.797 10.6169C27.5494 10.4471 27.5815 11.2353 27.6008 11.3121Z" fill="#474747"/>
<path d="M29.5247 15.2274C31.2128 15.7912 33.4025 15.7144 35.1806 15.8778C36.4024 15.9899 37.6082 15.8617 38.8268 15.8073C40.0391 15.7528 40.9587 16.2622 41.9136 15.3523C42.0069 15.2658 42.068 14.7404 41.8654 14.75C40.8333 14.7981 39.8268 14.6186 38.7979 14.6571C37.5728 14.7019 36.3831 14.8557 35.1516 14.7724C33.4571 14.6603 31.1259 13.933 29.5054 14.561C29.3575 14.6219 29.3703 15.1761 29.5247 15.2274Z" fill="#474747"/>
<path d="M8.22225 2.15565C10.9779 0.355099 13.8396 4.35348 15.2865 6.24053C15.8749 7.00625 16.9746 8.17244 18.0807 7.64061C19.7109 6.85887 21.2157 5.30501 22.4569 4.02028L22.4408 3.89853C21.0549 4.99104 19.4022 6.98382 17.6402 7.3875C16.1418 7.73031 14.8331 5.26336 14.0068 4.33105C12.7045 2.8669 10.1997 0.377526 8.21582 2.10119L8.22225 2.15565Z" fill="#474747"/>
<path d="M9.20954 19.3956C11.8365 22.8782 16.0969 28.6867 21.2641 26.8381C23.6049 26.0019 25.3766 24.2494 27.0454 22.4777C28.9843 20.4144 31.563 18.4441 32.9264 15.9419C32.9714 15.8554 32.9071 15.4998 32.8396 15.6183C31.6016 17.8033 29.5148 19.402 27.83 21.241C26.1805 23.0384 24.5181 24.8646 22.3509 26.0468C16.8558 29.0456 12.2352 22.9871 9.24491 19.2514C9.1999 19.1938 9.18382 19.3572 9.20954 19.3956Z" fill="#474747"/>
<path d="M33.6556 14.8428C35.633 14.0771 36.334 10.3222 36.4915 8.50886C36.6652 6.52569 36.1893 2.80925 34.0157 1.96023C33.9546 1.9378 33.9675 2.13965 33.9932 2.16848C35.5655 4.15485 36.4465 5.72793 36.3308 8.39352C36.2761 9.66544 35.9224 10.9149 35.4305 12.0811C34.9899 13.1288 34.2311 13.8721 33.6523 14.8204L33.6556 14.8428Z" fill="#474747"/>
<path d="M11.3724 0.624277C11.2728 0.464086 11.1441 0.6435 11.0605 0.746023L11.0638 0.781265C11.1249 0.733208 11.2856 0.560201 11.366 0.656316L11.3724 0.624277Z" fill="#474747"/>
<path d="M11.7525 0.53772C11.4792 1.05674 11.0355 1.59178 10.9551 2.18769L10.9872 2.29342C11.1512 2.12361 11.2123 1.81925 11.3088 1.60459C11.4599 1.2714 11.611 0.944606 11.7718 0.614612L11.7525 0.53772Z" fill="#474747"/>
<path d="M12.7076 0.53772C12.505 0.951014 12.2638 1.33868 12.0934 1.76799C12.013 1.97304 11.8394 2.444 12.0098 2.64904C12.0356 2.67788 12.0484 2.63623 12.0516 2.6138C12.1867 1.91857 12.4728 1.26819 12.7301 0.608204L12.7076 0.53772Z" fill="#474747"/>
<path d="M13.8393 0.861328C13.3248 1.43802 12.8136 2.27742 12.7686 3.06236C12.7686 3.08158 12.7814 3.24498 12.8232 3.1809C13.0258 2.87654 13.103 2.46645 13.2605 2.13325C13.447 1.74238 13.6753 1.37394 13.8586 0.97987L13.8393 0.861328Z" fill="#474747"/>
<path d="M14.514 1.39965C14.0252 2.29031 13.3178 3.2002 13.1957 4.23504C13.1924 4.25746 13.2117 4.50736 13.2632 4.42086C13.4947 4.01397 13.6137 3.5366 13.8227 3.1137C14.0638 2.62671 14.3339 2.15575 14.5718 1.66236C14.5976 1.60149 14.559 1.31635 14.514 1.39965Z" fill="#474747"/>
<path d="M15.5715 1.92499C14.8127 2.70672 14.1149 3.84728 14.0635 4.96221C14.0635 4.97823 14.0956 5.18969 14.131 5.10639C14.3271 4.64183 14.43 4.15165 14.6423 3.6903C14.8931 3.14564 15.2307 2.64585 15.5972 2.17489C15.639 2.12362 15.6069 1.88974 15.5715 1.92499Z" fill="#474747"/>
<path d="M16.2508 2.68749C15.8199 3.69669 15.2315 4.71231 14.9453 5.76957C14.9357 5.80161 14.9485 6.05471 15.0032 5.97141C15.299 5.53569 15.4598 4.98784 15.6656 4.50726C15.8842 3.99465 16.0996 3.48524 16.3119 2.96942C16.3408 2.89894 16.2861 2.60098 16.2508 2.68749Z" fill="#474747"/>
<path d="M17.0297 3.11363C16.4605 4.15808 15.8528 5.43 15.8882 6.64425C15.8882 6.67629 15.9332 6.83648 15.9654 6.73075C16.2837 5.57097 16.5281 4.49768 17.0972 3.41479C17.1358 3.3411 17.0843 3.01752 17.0297 3.11363Z" fill="#474747"/>
<path d="M17.898 3.71258C17.2678 4.79548 16.6343 6.04176 16.4928 7.29767C16.4864 7.34252 16.5282 7.56679 16.5797 7.43543C16.7919 6.9068 16.9108 6.33652 17.1134 5.79827C17.3449 5.18314 17.6472 4.59684 17.9687 4.02656C18.0105 3.95287 17.9559 3.61006 17.898 3.71258Z" fill="#474747"/>
<path d="M18.7715 4.16466C18.1413 5.06814 17.4982 6.2856 17.5432 7.42296C17.5432 7.455 17.585 7.60878 17.6172 7.50626C17.7683 7.01928 17.8359 6.51307 18.0095 6.02929C18.2121 5.46862 18.5014 4.93679 18.8326 4.44019C18.8744 4.37932 18.8326 4.07816 18.7715 4.16466Z" fill="#474747"/>
<path d="M19.3761 4.83413C18.9581 5.59344 18.5369 6.4873 18.4115 7.34913C18.4083 7.37797 18.4275 7.64388 18.4854 7.54777C18.6623 7.25302 18.7234 6.88458 18.8327 6.56099C18.9967 6.07401 19.2057 5.60945 19.4468 5.15772C19.4886 5.07762 19.4308 4.73161 19.3761 4.83413Z" fill="#474747"/>
<path d="M20.1538 5.14166C19.9609 5.75038 19.5268 6.31746 19.4561 6.95823C19.4561 6.97104 19.4753 7.15686 19.5107 7.11201C19.6908 6.88454 19.7583 6.54493 19.8773 6.27902C20.0123 5.98106 20.1377 5.68631 20.231 5.37554C20.2535 5.30505 20.202 4.98467 20.1538 5.14166Z" fill="#474747"/>
<path d="M17.4914 26.8317C17.5203 27.1681 17.2631 27.4692 17.1956 27.7896C17.1891 27.8216 17.1345 28.126 17.2406 28.0812L17.2374 27.9979L17.2341 27.9882L17.2824 27.8921C17.3402 27.7608 17.3917 27.6326 17.4367 27.4949C17.5042 27.2866 17.546 27.0367 17.4978 26.8188L17.4914 26.8317Z" fill="#474747"/>
<path d="M19.3212 26.726C18.6685 27.2257 18.3083 28.0876 18.3115 28.911C18.3115 28.9334 18.3533 29.1224 18.3984 29.0359C18.4852 28.8725 18.572 28.7187 18.7199 28.6034L18.7103 28.5233C18.5688 28.5874 18.4884 28.7059 18.3501 28.77C18.3694 28.8501 18.3919 28.9334 18.4112 29.0135C18.6427 28.2446 18.7392 27.3699 19.3276 26.7612L19.3212 26.726Z" fill="#474747"/>
<path d="M20.2796 26.5657C19.9291 27.3826 19.5176 28.206 19.2828 29.0647C19.2732 29.1031 19.2893 29.3979 19.3568 29.2953C19.4307 29.1768 19.5111 29.0647 19.5979 28.9589L19.5787 28.85C19.4951 28.9173 19.405 28.9782 19.3053 29.0262C19.3214 29.1159 19.3375 29.2056 19.3568 29.2953C19.823 28.4752 19.9645 27.4531 20.2828 26.5721L20.2796 26.5657Z" fill="#474747"/>
<path d="M21.4953 26.287C20.55 27.341 20.0291 29.0967 20.1449 30.5032C20.1481 30.5385 20.177 30.6378 20.222 30.5801C20.4021 30.3526 20.3088 30.4776 20.4664 30.1668C20.476 30.1476 20.4696 30.0419 20.4439 30.0771C20.3731 30.1828 20.2831 30.2693 20.177 30.343C20.1995 30.3975 20.222 30.4488 20.2445 30.5032C20.4407 29.0102 20.7397 27.6518 21.5018 26.3286L21.4953 26.287Z" fill="#474747"/>
<path d="M23.0513 25.5629C22.0739 26.7547 21.5337 28.3791 21.4404 29.9073C21.4404 29.9233 21.4629 30.154 21.5176 30.0931C21.5851 30.0162 21.7009 29.8849 21.7684 29.84C21.7941 29.824 21.7973 29.6991 21.7588 29.7023C21.3665 29.7407 21.9099 29.6862 21.4951 29.792C21.5144 29.8689 21.5337 29.9457 21.5498 30.0194C21.8777 28.4816 22.1993 27.0046 23.0739 25.6654C23.0931 25.643 23.0803 25.5245 23.0513 25.5629Z" fill="#474747"/>
<path d="M23.8971 24.8646C23.5917 25.5342 23.3023 26.2134 23.074 26.9151C22.9743 27.2194 22.6914 27.9275 22.9582 28.219C23.0032 28.2703 23.0161 28.1517 23.0161 28.1261C23 27.6231 23.238 27.0785 23.3987 26.6139C23.5724 26.1109 23.7717 25.6143 23.9807 25.1273C24.0097 25.06 23.9421 24.7653 23.8971 24.8646Z" fill="#474747"/>
<path d="M25.1064 23.5125C24.9102 24.086 24.7269 24.6627 24.5404 25.2362C24.3765 25.7424 24.1482 26.2486 24.071 26.7772C24.0678 26.7997 24.0742 26.9823 24.1289 26.9182C24.4311 26.5626 24.5115 25.941 24.6466 25.5021C24.8266 24.9126 25.0067 24.3231 25.1932 23.7368C25.2157 23.6631 25.1578 23.3588 25.1064 23.5125Z" fill="#474747"/>
<path d="M26.2439 23.0288C25.7905 24.0251 25.3147 25.1689 25.2793 26.2742C25.2793 26.3095 25.3179 26.5145 25.3597 26.3928C25.5269 25.9218 25.588 25.4092 25.7295 24.9254C25.8838 24.384 26.0928 23.8585 26.3211 23.3459C26.3532 23.2658 26.2889 22.9262 26.2439 23.0288Z" fill="#474747"/>
<path d="M27.7206 21.5485C27.1547 22.782 26.6305 24.2044 26.5694 25.5725C26.5662 25.6173 26.6338 25.8833 26.6756 25.7263C27.0357 24.4223 27.2479 23.1344 27.8009 21.8817C27.8363 21.7984 27.7688 21.4395 27.7206 21.5485Z" fill="#474747"/>
<path d="M28.9281 20.2092C28.5551 21.558 28.1307 22.9517 28.0374 24.355C28.031 24.4511 28.1178 24.7138 28.1661 24.4928C28.4555 23.1439 28.6773 21.7919 29.0214 20.4495C29.0407 20.379 28.9731 20.0426 28.9281 20.2092Z" fill="#474747"/>
<path d="M30.3155 18.5496C29.965 19.7062 29.576 20.9878 29.5342 22.1988C29.5342 22.2372 29.5792 22.4775 29.6242 22.3398C29.9972 21.2088 30.0776 19.9689 30.4184 18.8188C30.4441 18.7387 30.3734 18.367 30.3155 18.5496Z" fill="#474747"/>
<path d="M31.3565 16.9542C31.1604 18.271 30.7874 19.5813 30.6652 20.9013C30.662 20.943 30.707 21.1608 30.752 21.0327C31.1797 19.8152 31.2986 18.3991 31.4626 17.1208C31.4755 17.0343 31.3919 16.7363 31.3565 16.9542Z" fill="#474747"/>
<path d="M32.3946 16.2525C32.1856 17.518 31.684 18.8187 31.7965 20.1131C31.803 20.1964 31.8737 20.2701 31.893 20.1451C32.0698 18.9053 32.3271 17.6814 32.5136 16.4415C32.5264 16.3422 32.4364 16.0122 32.3946 16.2525Z" fill="#474747"/>
<path d="M33.3533 15.8169C33.1443 17.1048 32.7198 18.4472 32.842 19.7608C32.8484 19.8409 32.9192 19.9146 32.9353 19.7928C33.1089 18.5305 33.2889 17.2682 33.469 16.0027C33.4819 15.9098 33.3918 15.5798 33.3533 15.8169Z" fill="#474747"/>
<path d="M34.8675 12.7636C34.5717 14.4937 34.1119 16.3391 34.2469 18.1044C34.2533 18.1845 34.3016 18.1749 34.3112 18.1044C34.5138 16.3519 34.8096 14.5738 34.9093 12.8117C34.9125 12.7764 34.8803 12.6899 34.8675 12.7636Z" fill="#474747"/>
<path d="M36.5052 5.68954C36.5438 8.56658 36.1901 11.4885 35.785 14.3335C35.6564 15.2434 35.2287 16.4192 35.4699 17.3387C35.4892 17.4091 35.5213 17.3643 35.5278 17.3162C36.0165 13.462 36.6628 9.57899 36.576 5.68313C36.576 5.55498 36.502 5.55819 36.5052 5.68954Z" fill="#474747"/>
<path d="M37.3977 5.42054C37.2434 8.46738 36.7032 11.7801 37.0215 14.8142C37.0312 14.9103 37.0858 14.9007 37.0987 14.811C37.4749 11.7866 37.5328 8.477 37.417 5.42695C37.4202 5.40132 37.401 5.3821 37.3977 5.42054Z" fill="#474747"/>
<path d="M38.1825 7.59581C38.1665 8.68831 38.0571 9.78082 37.9992 10.8733C37.996 10.9182 38.0282 10.9823 38.0378 10.9022C38.16 9.80004 38.205 8.70433 38.2018 7.59581C38.2018 7.56377 38.1825 7.56377 38.1825 7.59581Z" fill="#474747"/>
</svg>
