<svg width="35" height="56" viewBox="0 0 35 56" fill="none" xmlns="http://www.w3.org/2000/svg">
<path d="M5.00665 5.51821C9.87575 1.90183 14.5049 0.209769 20.5689 1.40891C27.2116 2.71706 32.4571 7.30981 34.0754 13.9975C35.1292 18.3485 33.5532 22.4057 31.1586 25.9794C29.7849 28.0317 28.2137 29.9039 27.9032 32.4538C27.508 35.6815 28.5618 40.4734 24.5489 41.4308C22.6389 41.8858 20.5172 41.2507 18.7013 42.0327C18.4943 42.1228 18.5272 42.8005 18.7671 42.8337C20.8418 43.0991 23.6739 43.0991 25.6356 42.3029C27.8985 41.3834 28.2889 38.7102 28.3548 36.4968C28.4301 33.762 28.5665 31.5011 30.1472 29.1597C31.3139 27.425 32.4994 25.8704 33.4215 23.9745C34.6964 21.3582 35.2374 18.4955 34.9034 15.5948C34.1507 9.07297 30.293 3.6413 24.0549 1.35677C17.0265 -1.23583 10.3321 -0.183624 4.95961 5.12482C4.88904 5.19591 4.92668 5.57983 5.00665 5.51821Z" fill="#474747"/>
<path d="M4.40952 5.75989C1.03174 8.42833 -0.0455787 12.9832 0.00146569 17.1019C0.057919 21.9554 2.70652 24.8513 4.85174 28.9322C6.72881 32.5059 5.21869 36.7621 6.53123 40.516C6.99226 41.8431 7.83436 42.7104 9.26451 42.7294C12.1342 42.7626 14.9945 42.7768 17.8689 42.8668C18.25 42.8763 18.2312 41.5919 17.8407 41.6061C15.6672 41.7056 13.475 41.7009 11.3062 41.8573C8.64352 42.0469 7.26042 41.0373 6.75234 38.4163C6.19251 35.5393 6.80408 32.5865 6.06078 29.7284C5.1246 26.1358 2.04319 23.5669 0.909422 20.0453C-0.751245 14.8885 1.67154 10.3574 4.49891 6.30022C4.56007 6.2149 4.52714 5.66984 4.40952 5.75989Z" fill="#474747"/>
<path d="M8.08818 42.5066C7.29313 43.137 7.10496 45.3362 8.57745 45.3647C10.2475 45.3978 12.2751 44.6727 13.8699 44.1797C15.5165 43.6726 17.2242 43.8385 18.7861 43.0233C18.8472 42.9901 18.8425 42.7152 18.7626 42.7152C17.1489 42.6583 15.4083 43.2176 13.8511 43.6347C12.835 43.9048 11.8611 44.1987 10.8732 44.5684C10.4592 44.7248 7.24139 45.0661 8.23402 43.3313C8.30929 43.2081 8.29988 42.3407 8.08818 42.5066Z" fill="#474747"/>
<path d="M9.16547 44.9048C7.44364 44.7816 7.15667 47.0377 8.50685 47.7724C9.94641 48.5544 12.8208 47.36 14.2557 46.995C16.2598 46.4832 18.6308 46.6159 20.442 45.6158C20.5502 45.5589 20.5455 45.0802 20.4044 45.0707C18.405 44.9191 16.2221 45.8101 14.2369 46.1514C13.216 46.3267 12.1904 46.7344 11.1837 46.9856C10.6756 47.0946 10.1581 47.1941 9.64532 47.2794C7.91879 47.5922 8.3516 45.9334 9.1984 45.303C9.26426 45.2556 9.27838 44.9143 9.16547 44.9048Z" fill="#474747"/>
<path d="M25.3723 42.7341C25.9792 42.6772 26.6755 43.0232 26.0027 43.6394C25.5558 44.047 24.8031 44.1323 24.2338 44.2224C23.1471 44.393 22.0557 44.4167 21.2089 45.2177C21.1524 45.2698 21.1242 45.6443 21.2371 45.6348C22.2392 45.5495 23.2836 45.2698 24.2527 44.9949C24.7843 44.8433 26.1909 44.5115 26.492 44.0043C27.0424 43.0706 26.6002 41.6819 25.3582 42.0516C25.1936 42.099 25.2218 42.7483 25.3723 42.7341Z" fill="#474747"/>
<path d="M8.82249 47.3506C7.75458 47.8672 7.33118 49.1943 8.29089 50.0901C9.10946 50.8485 10.3514 50.4977 11.2782 50.2228C12.5108 49.8531 13.7857 49.6446 15.0229 49.2938C15.2299 49.237 15.15 48.5355 15.0041 48.5734C13.7574 48.9099 12.4825 49.0948 11.2594 49.5261C10.5961 49.7583 9.97037 49.9574 9.26471 49.91C8.99655 49.8721 8.75192 49.7773 8.53081 49.6256C7.58522 49.0663 8.50259 48.3033 8.90717 48.0378C9.05301 47.9336 9.00126 47.2653 8.82249 47.3506Z" fill="#474747"/>
<path d="M15.8694 48.8815C17.8453 49.2275 19.8118 47.9809 21.7876 47.8103C23.1237 47.6918 24.2716 47.8293 25.5606 47.3269C26.8402 46.8292 27.4282 44.2034 25.5606 44.3219C25.3442 44.3361 25.3818 45.1087 25.5418 45.194C27.7152 46.3884 22.992 46.8813 22.3145 46.924C19.8964 47.0757 18.1087 47.8103 15.86 48.5687C15.7848 48.5924 15.7848 48.8673 15.8694 48.8815Z" fill="#474747"/>
<path d="M8.95845 50.1138C7.34482 50.4551 7.96581 52.6827 9.06665 53.2562C10.2098 53.8534 13.5453 52.422 14.6979 52.0903C17.0736 51.4077 19.5387 51.0001 21.9239 50.3555C22.0838 50.3129 22.0697 49.7109 21.9098 49.7062C19.8869 49.6683 17.4876 50.6067 15.5117 51.1234C14.4673 51.3983 13.4183 51.5168 12.3786 51.8343C11.8987 51.9907 11.4189 52.1471 10.939 52.2988C10.7414 52.3509 10.5391 52.3983 10.3415 52.4505C9.35362 52.7301 8.9114 52.1471 9.00549 50.6921C9.11839 50.6352 9.09017 50.0854 8.95845 50.1138Z" fill="#474747"/>
<path d="M25.1941 47.2889C25.5564 47.5828 26.055 47.6681 26.3373 48.0378C26.5866 48.3648 25.2788 48.8388 25.0859 48.8767C24.6061 48.9762 24.1121 48.9336 23.6322 49.0189C23.2088 49.0947 22.569 49.1421 22.3009 49.4881C22.2303 49.5782 22.2021 49.8768 22.3103 49.9526C22.602 50.1469 22.9078 49.9905 23.2465 50.0332C23.7498 50.0948 24.2062 50.0711 24.7096 50.0095C25.434 49.9147 26.2009 49.7014 26.6007 49.0521C27.25 47.9951 26.0127 45.5494 25.1941 47.2747V47.2889Z" fill="#474747"/>
<path d="M12.3506 52.9813C14.8346 53.2941 17.4267 53.2088 19.9248 53.1519C21.1761 53.1235 22.4134 53.0145 23.6648 53.0714C24.314 53.0998 25.2737 53.1709 25.8571 52.8154C27.3719 51.8864 27.3201 49.2844 25.1514 49.2986C24.9632 49.2986 24.9962 50.0143 25.1702 50.0759C26.017 50.2086 26.3698 50.8248 26.2287 51.9338C25.6877 52.3889 24.8644 52.3888 24.2058 52.4125C23.0814 52.4552 21.943 52.4315 20.8139 52.4505C19.3414 52.4789 17.8689 52.531 16.3964 52.4979C14.9475 52.4647 13.729 52.2277 12.3506 52.7917C12.3036 52.8154 12.2989 52.9766 12.3506 52.9813Z" fill="#474747"/>
<path d="M12.346 53.1283C14.0443 54.1046 15.5168 55.6308 17.5115 55.9721C19.1675 56.2564 21.7079 54.299 22.7899 53.3178C22.8557 53.2562 22.884 52.8344 22.7569 52.8439C20.9222 52.9813 19.7179 54.6781 17.9067 54.991C15.9449 55.3275 14.3219 53.1425 12.346 53.0572V53.1283Z" fill="#474747"/>
<path d="M13.8607 42.1226C14.0912 38.7385 13.8889 35.3733 13.9454 31.9892C13.9924 29.2307 12.5105 27.7614 11.8895 25.1878C11.4614 23.4199 11.3721 21.1306 12.7928 19.7893C14.5428 18.1399 15.7613 20.5903 16.1141 21.9695C16.3305 22.8085 16.3917 23.728 16.2506 24.5811C16.0577 26.2637 15.3802 26.1926 14.2182 24.3773C14.2323 23.818 14.3453 23.2824 14.5711 22.78C15.065 21.4576 15.9777 20.1637 17.1585 19.3959C18.6592 18.4195 19.4402 20.4197 19.7554 21.505C19.9812 22.2918 20.0847 23.126 20.1458 23.9412C20.2117 24.8276 19.4966 27.3349 18.5793 25.6333C17.008 22.7089 21.289 16.8791 23.0673 21.1875C24.2575 24.074 22.8509 26.0125 20.9926 27.9368C20.4469 28.5008 20.047 29.4298 20.0094 30.2166C19.84 33.8946 20.3999 37.5773 20.0988 41.2742C20.0376 42.0326 20.7574 42.862 20.8327 41.7103C21.035 38.6342 20.9032 35.5061 20.6915 32.4347C20.5363 30.1739 21.6183 29.0269 22.992 27.5861C23.66 26.8846 23.8529 25.9035 23.9941 24.984C24.3939 22.3819 23.2037 15.9786 19.586 19.121C17.5443 20.8936 16.7022 24.728 18.4475 27.041C19.1438 27.9652 20.0376 27.5861 20.414 26.5054C20.9127 25.074 20.7292 23.3867 20.4187 21.9316C20.127 20.5618 19.793 18.8366 18.5416 18.0309C17.1679 17.1493 15.5402 19.4291 14.9333 20.3343C14.11 21.5619 12.3694 27.7235 15.4038 27.4581C16.5328 27.3585 16.768 25.0361 16.848 24.2493C16.9892 22.7942 16.6316 20.8841 15.9542 19.595C15.1826 18.1257 14.0912 17.5853 12.6328 18.5333C11.1745 19.4765 11.0992 21.8605 11.1274 23.3914C11.1651 25.3063 11.692 27.1121 12.6422 28.7568C13.729 30.6289 13.3432 33.0462 13.3997 35.1269C13.4561 37.364 13.4702 39.6059 13.3856 41.843C13.362 42.317 13.8089 42.881 13.8607 42.1226Z" fill="#474747"/>
<path d="M6.3666 34.2833C7.87672 39.2742 12.4447 39.6818 16.9751 39.2837C22.2723 38.8192 27.0849 37.4778 28.7127 31.795C28.7268 31.7571 28.6845 31.5864 28.6468 31.6765C26.6192 36.8996 22.7192 38.3642 17.5255 38.9614C12.9952 39.4827 8.01785 39.35 6.43246 34.1743C6.39953 34.0558 6.35248 34.2264 6.3666 34.2833Z" fill="#474747"/>
<path d="M6.82764 35.9042C6.83234 36.6152 6.53596 37.3498 6.37601 38.0371C6.27722 38.4447 6.08904 39.0324 6.2584 39.4448L6.31956 39.4922C6.4654 39.3215 6.43717 38.9566 6.47481 38.7433C6.55008 38.2836 6.6771 37.8333 6.77589 37.3783C6.84175 37.0607 7.14754 36.1412 6.84646 35.8616L6.82764 35.9042Z" fill="#474747"/>
<path d="M8.2017 36.6247C7.82534 37.8191 7.38783 39.1035 7.32667 40.3643C7.32667 40.388 7.36901 40.6723 7.41605 40.5633C7.59012 40.1462 7.66069 39.6865 7.75477 39.2504C7.92884 38.4826 8.13113 37.7195 8.30519 36.9517C8.33342 36.8664 8.27226 36.4019 8.2017 36.6247Z" fill="#474747"/>
<path d="M9.1798 37.8143C8.82696 38.9566 8.26243 40.1794 8.31418 41.3975C8.31418 41.4449 8.36122 41.6677 8.41297 41.5207C8.58233 41.0231 8.62467 40.478 8.7611 39.9661C8.92105 39.3642 9.12805 38.7717 9.30211 38.1745C9.33034 38.0702 9.25036 37.5726 9.1798 37.8143Z" fill="#474747"/>
<path d="M10.9347 38.0893C10.3137 39.2268 9.69741 40.6819 9.82443 42.009C9.83855 42.1417 9.92323 42.2554 9.95616 42.0611C10.1679 40.8146 10.436 39.6865 11.0288 38.5585C11.0852 38.4495 11.01 37.9518 10.9347 38.0893Z" fill="#474747"/>
<path d="M12.6797 38.4163C12.1011 39.7007 11.3672 41.3217 11.5742 42.7673C11.5836 42.8242 11.6494 43.0185 11.6871 42.8574C11.8188 42.2839 11.8423 41.6962 11.9787 41.1179C12.1622 40.3453 12.4586 39.6012 12.7738 38.876C12.8208 38.7718 12.7362 38.2836 12.6797 38.4163Z" fill="#474747"/>
<path d="M14.3077 38.6248C13.7432 39.6818 13.3574 41.0136 13.3104 42.2175C13.3104 42.2459 13.3527 42.5872 13.4092 42.4545C13.5974 42.0232 13.6303 41.5207 13.7291 41.061C13.8749 40.3832 14.0866 39.7291 14.4018 39.113C14.4677 39.004 14.3877 38.4826 14.3077 38.6248Z" fill="#474747"/>
<path d="M15.9451 38.8476C15.4888 39.8666 14.9054 41.0136 14.9478 42.1606C14.9478 42.1796 15.0042 42.4687 15.0512 42.3407C15.1971 41.9426 15.2347 41.5113 15.3523 41.1036C15.5264 40.4922 15.7898 39.9045 16.0439 39.3263C16.0909 39.2125 16.0063 38.7101 15.9451 38.8476Z" fill="#474747"/>
<path d="M18.0098 38.3926C17.6146 39.1177 17.2994 39.8713 17.1018 40.6771C16.9842 41.1605 16.8384 41.8383 17.0548 42.3123C17.0783 42.3644 17.1112 42.3123 17.1159 42.2838C17.2335 41.7625 17.2241 41.2316 17.3653 40.7055C17.5346 40.0799 17.8075 39.4827 18.1086 38.9092C18.1791 38.7907 18.0945 38.2409 18.0098 38.3926Z" fill="#474747"/>
<path d="M19.7556 38.2883C19.1958 39.4353 18.6783 40.7766 18.5466 42.0516C18.5419 42.0895 18.5701 42.4924 18.6454 42.355C18.8853 41.9094 18.9512 41.3549 19.0876 40.8667C19.2852 40.1557 19.5392 39.4637 19.8544 38.7955C19.9109 38.677 19.8262 38.1461 19.7556 38.2883Z" fill="#474747"/>
<path d="M21.6136 37.985C21.0584 39.2173 20.4516 40.606 20.301 41.9568C20.2963 41.99 20.3245 42.3312 20.3857 42.2175C20.6444 41.7198 20.7338 41.1131 20.8985 40.5776C21.1243 39.8476 21.4019 39.1367 21.7029 38.44C21.75 38.3309 21.67 37.857 21.6136 37.985Z" fill="#474747"/>
<path d="M23.0347 37.6769C22.4654 39.023 21.7645 40.516 21.7127 41.9995C21.7127 42.0232 21.7551 42.336 21.8021 42.2175C22.0279 41.6487 22.0985 41.0231 22.2726 40.4354C22.5031 39.6344 22.8089 38.8571 23.1194 38.0845C23.1523 37.9897 23.0817 37.5631 23.0347 37.6769Z" fill="#474747"/>
<path d="M24.7608 36.7195C24.2763 38.3831 23.3777 39.9661 23.1049 41.6866C23.0907 41.772 23.1566 42.3075 23.246 42.0374C23.7964 40.3927 24.4174 38.7433 24.869 37.0702C24.8972 36.9754 24.8267 36.492 24.7608 36.7195Z" fill="#474747"/>
<path d="M27.1743 34.7051C26.2523 37.037 24.9538 39.44 24.8739 41.9995C24.8739 42.0469 24.9303 42.3644 24.9727 42.1843C25.5325 39.7292 26.3746 37.4778 27.259 35.1269C27.2919 35.0274 27.2167 34.5914 27.1743 34.7051Z" fill="#474747"/>
<path d="M28.2654 35.3734C27.5691 37.3072 26.6706 39.1983 26.0919 41.17C26.0778 41.2127 26.1014 41.5113 26.1531 41.4212C27.141 39.7149 27.7009 37.6342 28.3454 35.7763C28.3736 35.6815 28.303 35.2644 28.2654 35.3734Z" fill="#474747"/>
<path d="M14.7402 52.2087C14.505 52.9955 14.0533 53.9055 14.2133 54.7492C14.2227 54.8013 14.2556 54.8487 14.2791 54.7776C14.3873 54.4316 14.4015 54.0524 14.4955 53.7017C14.599 53.3083 14.7355 52.9244 14.8437 52.5357C14.8719 52.4457 14.806 51.9954 14.7402 52.2087Z" fill="#474747"/>
<path d="M16.1474 52.4978C15.898 53.242 15.5499 54.0619 15.5076 54.8487C15.5076 54.8677 15.517 55.1047 15.5781 55.0573C15.804 54.8819 15.8322 54.389 15.9075 54.1236C16.0251 53.7112 16.1474 53.3036 16.2791 52.896C16.312 52.7917 16.2321 52.2371 16.1474 52.4978Z" fill="#474747"/>
<path d="M17.5773 52.3272C17.1068 53.1567 16.5188 54.1709 16.5987 55.1615C16.5987 55.1758 16.627 55.3322 16.6693 55.2848C16.8857 55.0383 16.9186 54.479 17.0362 54.1662C17.2103 53.7112 17.4455 53.2752 17.6808 52.8486C17.7419 52.7348 17.6619 52.1803 17.5773 52.3272Z" fill="#474747"/>
<path d="M18.8854 52.6542C18.3302 53.5595 17.7469 54.6733 17.7845 55.7729C17.7845 55.7966 17.8269 56.0668 17.8786 55.9483C18.0574 55.5549 18.095 55.0857 18.2408 54.6733C18.429 54.1472 18.6972 53.6543 18.9841 53.1756C19.0547 53.0666 18.9747 52.5121 18.8854 52.6542Z" fill="#474747"/>
<path d="M20.2116 52.3083C19.5953 53.1946 19.0308 54.4222 19.219 55.5312C19.2284 55.5929 19.2707 55.6545 19.2942 55.5644C19.3977 55.19 19.4213 54.7966 19.5248 54.4174C19.68 53.8676 19.9482 53.3415 20.2681 52.8675C20.3621 52.7348 20.2398 52.2703 20.2116 52.3083Z" fill="#474747"/>
<path d="M21.4065 53.1377C21.0866 53.4742 20.8608 53.8533 20.9596 54.3368C20.9643 54.37 21.0019 54.4885 21.0396 54.4079C21.0913 54.2989 21.1196 54.1946 21.1948 54.0951C21.2795 53.9861 21.3783 53.8865 21.4771 53.7917C21.5665 53.7017 21.5477 53.4837 21.5335 53.3699C21.5288 53.3509 21.4865 53.0571 21.4065 53.1377Z" fill="#474747"/>
</svg>
