<svg width="58" height="36" viewBox="0 0 58 36" fill="none" xmlns="http://www.w3.org/2000/svg">
<path d="M0.390713 23.6041C0.878959 25.9637 1.70813 27.6467 4.3093 28.084C7.60917 28.6409 11.17 28.0758 14.5077 28.3233C15.64 28.4058 19.386 28.975 19.7353 27.2755C19.8027 26.9413 19.6511 26.4999 19.4744 26.2277C19.1124 25.679 18.6915 25.1716 18.3211 24.6271C17.0331 22.7419 17.0079 20.5267 17.2604 18.3651C17.2688 18.295 17.1973 18.1135 17.172 18.2661C16.8606 20.1802 16.8437 21.9416 17.5382 23.7732C17.8792 24.6725 18.5147 25.4233 19.1166 26.1617C20.8297 28.2614 16.8774 28.1995 15.9514 28.1789C13.2408 28.1211 10.526 27.9561 7.81541 27.8819C6.44327 27.8447 5.08797 27.919 3.72846 27.688C1.56924 27.3209 0.870541 25.3325 0.462266 23.4927C0.432803 23.3648 0.378086 23.5463 0.390713 23.6041Z" fill="#474747"/>
<path d="M17.8119 18.6538C19.2514 21.789 21.9326 23.2782 25.245 24.0537C30.0181 25.1716 35.1446 25.4026 40.0187 24.9984C47.477 24.3796 56.6443 20.8691 57.7302 12.594C57.7428 12.4991 57.6544 12.165 57.6123 12.4042C56.1602 20.7123 47.6033 23.8598 40.006 24.656C35.8518 25.0932 31.6385 24.7756 27.5221 24.1733C23.5025 23.5876 19.6723 22.3665 17.8582 18.5012C17.8203 18.4105 17.7909 18.6085 17.8119 18.6538Z" fill="#474747"/>
<path d="M2.06587 26.7268C1.97327 27.1765 1.72073 27.6014 1.70389 28.0675C1.70389 28.0799 1.71231 28.2284 1.7544 28.1954C1.88909 28.0881 1.93118 27.8406 1.97748 27.688C2.06166 27.424 2.129 27.16 2.16688 26.8836C2.17951 26.8011 2.10796 26.5288 2.06587 26.7268Z" fill="#474747"/>
<path d="M2.49125 27.127C2.35656 27.6343 2.08297 28.1252 2.01563 28.645C2.01142 28.6698 2.00721 28.8678 2.07455 28.8306C2.24291 28.744 2.30184 28.4635 2.36497 28.3026C2.46599 28.0304 2.55438 27.7498 2.62593 27.4693C2.6554 27.358 2.65961 27.2342 2.61752 27.127C2.58384 27.0403 2.5165 27.0321 2.49125 27.127Z" fill="#474747"/>
<path d="M3.05489 27.8076C2.85707 28.315 2.55823 28.8018 2.51614 29.3545C2.51614 29.3752 2.53297 29.536 2.57506 29.47C2.69712 29.2927 2.76868 29.0782 2.85707 28.8801C2.9665 28.6285 3.08435 28.3851 3.18116 28.1294C3.22325 28.0345 3.14328 27.589 3.05489 27.8076Z" fill="#474747"/>
<path d="M3.699 28.0138C3.36649 28.612 3.11395 29.272 2.95401 29.932C2.94559 29.9609 2.96664 30.1878 3.02135 30.1053C3.36649 29.5979 3.50118 28.9585 3.79581 28.4181C3.85053 28.315 3.77056 27.8777 3.699 28.0138Z" fill="#474747"/>
<path d="M4.4944 27.9272C4.17031 28.6821 3.77466 29.437 3.57684 30.2332C3.56842 30.2662 3.58526 30.5055 3.6526 30.4188C4.11138 29.8083 4.33867 28.9503 4.62909 28.2572C4.66697 28.1582 4.59121 27.7045 4.4944 27.9272Z" fill="#474747"/>
<path d="M5.18907 28.1211C4.86498 28.9173 4.4062 29.6969 4.19995 30.5343C4.19154 30.5715 4.221 30.8437 4.28414 30.7447C4.73029 30.0599 5.0165 29.1895 5.31534 28.4387C5.34901 28.3397 5.27325 27.9066 5.18907 28.1211Z" fill="#474747"/>
<path d="M6.02645 28.117C5.56766 29.1153 4.97419 30.0929 4.70903 31.1613C4.70061 31.1902 4.73007 31.4047 4.77216 31.3263C5.28566 30.4106 5.6771 29.3958 6.10221 28.4346C6.14009 28.3562 6.07274 28.0138 6.02645 28.117Z" fill="#474747"/>
<path d="M6.95268 28.0262C6.54861 29.0823 5.80783 30.0475 5.58475 31.1613C5.58054 31.1902 5.61 31.4212 5.6563 31.3387C6.15297 30.3528 6.67068 29.3215 7.05791 28.2902C7.08316 28.2077 7.02002 27.8488 6.95268 28.0262Z" fill="#474747"/>
<path d="M7.78173 28.249C7.08725 29.7464 6.15705 31.1944 5.97186 32.8609C5.96765 32.8857 6.00132 33.0218 6.02658 32.9434C6.47273 31.4089 7.2051 30.0104 7.85749 28.5543C7.89117 28.4759 7.82803 28.1459 7.78173 28.249Z" fill="#474747"/>
<path d="M8.62348 27.8983C8.13944 30.1919 6.72942 32.1184 5.95496 34.313C5.93813 34.3625 5.97601 34.6512 6.03073 34.5522C6.08965 34.4491 6.14437 34.3501 6.2033 34.247L6.17383 34.0943C6.68312 33.6282 7.3271 31.9039 7.73117 31.0046C8.17732 30.0104 8.493 29.0039 8.6361 27.9272L8.62348 27.8983Z" fill="#474747"/>
<path d="M9.7472 27.7044C9.3263 29.4411 8.02992 30.8272 7.65111 32.5721C7.6469 32.601 7.68058 32.8196 7.71846 32.7413C8.46766 31.1201 9.43573 29.5071 9.77246 27.7416C9.77666 27.7251 9.75983 27.6549 9.7472 27.7044Z" fill="#474747"/>
<path d="M10.6859 28.0716C10.3745 29.7052 9.12019 30.9427 8.60248 32.4979C8.59406 32.5268 8.60669 32.7413 8.65719 32.6712C9.57055 31.314 10.4923 29.7464 10.7154 28.117C10.7154 28.0922 10.6944 28.018 10.6859 28.0716Z" fill="#474747"/>
<path d="M11.7507 27.9726C11.0983 29.3174 10.0755 30.5426 9.78933 32.0318C9.78512 32.0524 9.80617 32.2298 9.83984 32.1638C10.568 30.8726 11.2372 29.4536 11.7802 28.0757C11.7886 28.0551 11.7676 27.9355 11.7507 27.9726Z" fill="#474747"/>
<path d="M12.441 28.2366C12.1717 28.8389 11.8939 29.404 11.5529 29.9733C11.2373 30.5013 10.9258 31.0087 10.7953 31.611C10.7911 31.6316 10.7995 31.776 10.8416 31.7265C11.2415 31.2109 11.5445 30.5673 11.8602 29.9981C12.159 29.4618 12.4074 28.9049 12.4705 28.2902L12.441 28.2366Z" fill="#474747"/>
<path d="M13.5395 27.9891C13.0765 29.173 12.2642 30.2249 11.9191 31.4542C11.9106 31.4831 11.9191 31.7017 11.9738 31.6316C12.7019 30.6416 13.1733 29.3421 13.6195 28.2036C13.6448 28.1376 13.5942 27.8447 13.5395 27.9891Z" fill="#474747"/>
<path d="M14.2844 28.2655C13.8256 29.3257 13.2321 30.3322 12.7986 31.3965C12.7902 31.4171 12.7902 31.611 12.8407 31.5739C13.2532 31.248 13.4763 30.687 13.6993 30.2291C13.9561 29.7052 14.1707 29.1648 14.3938 28.6244C14.4275 28.5377 14.3391 28.1376 14.2844 28.2655Z" fill="#474747"/>
<path d="M15.097 28.3067C14.634 29.3752 13.9774 30.3941 13.6786 31.5244C13.6702 31.5491 13.6786 31.743 13.7249 31.677C14.352 30.819 14.7813 29.7093 15.1938 28.7399C15.2443 28.6285 15.1559 28.1706 15.097 28.3067Z" fill="#474747"/>
<path d="M15.9683 28.4965C15.5768 29.4783 14.9286 30.3899 14.6172 31.3924C14.6087 31.413 14.613 31.611 14.6593 31.5697C15.0423 31.2232 15.2485 30.6292 15.4716 30.1754C15.6947 29.7217 15.8967 29.2597 16.0777 28.7935C16.1114 28.711 16.0482 28.3026 15.9683 28.4965Z" fill="#474747"/>
<path d="M17.336 27.9767C16.932 29.0534 16.2922 30.0145 15.8671 31.0747C15.8545 31.1036 15.8755 31.3305 15.9176 31.2851C16.6416 30.4683 17.1003 29.3421 17.4707 28.3356C17.5044 28.2325 17.4244 27.7374 17.336 27.9767Z" fill="#474747"/>
<path d="M17.9845 28.5212C17.6015 29.2101 17.2101 29.9114 16.9281 30.6457C16.9155 30.6746 16.9365 30.8973 16.9744 30.8519C17.4542 30.2868 17.7152 29.5401 18.0687 28.8925C18.1192 28.8059 18.0519 28.4016 17.9845 28.5212Z" fill="#474747"/>
<path d="M19.8069 26.8918C19.1292 28.5047 18.0475 30.0187 17.6056 31.7182C17.5929 31.7636 17.6182 32.1019 17.6855 31.9905C18.5779 30.5261 19.3018 28.7894 19.8911 27.1805C19.9163 27.1145 19.849 26.7887 19.8069 26.8918Z" fill="#474747"/>
<path d="M20.476 24.8664C20.3203 25.6914 19.9247 26.4215 19.6216 27.1971C19.609 27.2301 19.6342 27.4776 19.6721 27.4322C20.1982 26.7846 20.4592 25.8647 20.5897 25.0602C20.6065 24.9612 20.5223 24.6147 20.476 24.8664Z" fill="#474747"/>
<path d="M17.6646 19.8873C17.6183 20.6587 17.0963 21.2981 16.928 22.0365C16.9196 22.0695 16.928 22.3541 16.9911 22.2634C17.4162 21.6446 17.7487 20.7164 17.7656 19.9698C17.7656 19.8502 17.6772 19.6645 17.6646 19.8873Z" fill="#474747"/>
<path d="M18.0305 21.1124C17.8326 21.8055 17.5043 22.4655 17.357 23.1709C17.3486 23.2039 17.3696 23.4597 17.4286 23.3689C17.799 22.8285 17.9715 22.0653 18.1483 21.4424C18.1778 21.3476 18.0936 20.8897 18.0305 21.1124Z" fill="#474747"/>
<path d="M18.4264 21.9581C18.1486 22.5645 17.8203 23.1957 17.673 23.8474C17.6688 23.8681 17.6941 24.1073 17.7319 24.0578C17.8792 23.8722 17.955 23.637 18.0434 23.4225C18.1949 23.0513 18.3464 22.6841 18.5106 22.3211C18.5443 22.2304 18.4769 21.8467 18.4264 21.9581Z" fill="#474747"/>
<path d="M19.0998 23.1544C18.902 23.6576 18.6116 24.1238 18.4853 24.6477C18.4769 24.6765 18.4979 24.9117 18.5526 24.8333C18.8346 24.4249 19.0282 23.9134 19.2092 23.4555C19.2429 23.3689 19.1798 22.9564 19.0998 23.1544Z" fill="#474747"/>
<path d="M19.3606 23.5999C19.0912 24.1692 18.6914 24.7715 18.6661 25.415C18.6661 25.4439 18.683 25.6749 18.7461 25.5882C18.8892 25.3944 18.9439 25.1097 19.0365 24.8911C19.167 24.59 19.3143 24.2971 19.449 23.9959C19.4911 23.9011 19.4911 23.7814 19.4701 23.6783C19.4616 23.6412 19.4069 23.5009 19.3606 23.5999Z" fill="#474747"/>
<path d="M19.988 23.9547C19.6681 24.6395 19.3104 25.3655 19.1715 26.1121C19.1673 26.1328 19.1925 26.4009 19.2388 26.3432C19.3988 26.141 19.4703 25.8935 19.5587 25.6542C19.7186 25.2211 19.8912 24.7962 20.0806 24.3713C20.1227 24.2723 20.0469 23.8309 19.988 23.9547Z" fill="#474747"/>
<path d="M21.4274 25.1427C20.7918 27.2919 19.6427 29.2514 19.003 31.3965C18.9946 31.4254 19.0156 31.6316 19.0535 31.5615C20.0847 29.6433 20.9433 27.4899 21.52 25.3944C21.5368 25.3242 21.4779 24.9736 21.4274 25.1427Z" fill="#474747"/>
<path d="M22.1093 25.613C21.8778 27.5188 20.7834 29.0823 20.0553 30.819C20.0385 30.8602 20.0595 31.1366 20.1226 31.0458C21.217 29.5897 22.0462 27.5518 22.2187 25.7491C22.2271 25.6543 22.1345 25.4026 22.1093 25.613Z" fill="#474747"/>
<path d="M23.0561 26.1081C22.2269 27.7004 21.2167 29.2762 20.8043 31.0376C20.7958 31.0665 20.8295 31.2934 20.8716 31.215C21.6503 29.664 22.3574 28.0716 23.1445 26.5206C23.1992 26.4174 23.1192 25.9802 23.0561 26.1081Z" fill="#474747"/>
<path d="M23.4937 26.5948C22.774 28.1087 21.8564 29.668 21.6207 31.3429C21.6165 31.38 21.6418 31.6192 21.6965 31.4955C22.3278 29.9981 22.8961 28.4882 23.5863 27.0114C23.6326 26.9124 23.5527 26.471 23.4937 26.5948Z" fill="#474747"/>
<path d="M24.4326 26.3597C23.7844 27.9355 22.8163 29.4783 22.4964 31.1614C22.4922 31.1861 22.5175 31.4171 22.5638 31.3388C23.3635 29.9156 23.9401 28.2449 24.5378 26.7268C24.5715 26.6361 24.4873 26.2359 24.4326 26.3597Z" fill="#474747"/>
<path d="M25.1859 26.9743C24.6513 28.1624 23.8053 29.4288 23.738 30.7571C23.738 30.7777 23.7674 31.0211 23.8179 30.9262C24.1041 30.3858 24.222 29.7299 24.4661 29.1648C24.7229 28.5625 25.0175 27.9767 25.2742 27.3744C25.3163 27.2754 25.2406 26.8464 25.1859 26.9743Z" fill="#474747"/>
<path d="M25.7288 27.7251C25.3878 28.6656 24.6934 29.6433 24.7523 30.6746C24.7523 30.6911 24.7775 30.8479 24.8196 30.7819C25.0427 30.4147 25.11 29.9073 25.2784 29.5072C25.4762 29.0369 25.6951 28.579 25.8635 28.1005C25.8971 27.9891 25.8172 27.4776 25.7288 27.7251Z" fill="#474747"/>
<path d="M26.937 27.5766C26.7307 27.985 26.5455 28.4016 26.3645 28.8224C26.2046 29.1895 26.0152 29.536 25.9394 29.9321C25.9352 29.9486 25.931 30.159 25.9857 30.1383C26.2635 30.0311 26.3603 29.536 26.4655 29.2844C26.6465 28.8554 26.8233 28.4223 27.0296 28.0015C27.0801 27.8984 27.0043 27.4487 26.937 27.5766Z" fill="#474747"/>
<path d="M27.7954 27.721C27.5849 28.4717 27.1388 29.1111 26.8905 29.8454C26.882 29.8702 26.8778 30.1053 26.9368 30.0641C27.223 29.8619 27.3661 29.5195 27.5134 29.2184C27.686 28.8595 27.8249 28.4841 27.9259 28.1005C27.9553 27.9932 27.8669 27.4693 27.7954 27.721Z" fill="#474747"/>
<path d="M18.9565 20.6216C18.7545 21.0341 18.5104 21.4631 18.443 21.9169C18.443 21.9292 18.4515 22.0654 18.4809 22.0159C18.5777 21.8509 18.624 21.657 18.6872 21.4755C18.7756 21.2156 18.8808 20.9557 18.9818 20.6999L18.9565 20.6216Z" fill="#474747"/>
<path d="M19.4576 20.7618C19.3145 21.2527 19.0157 21.591 18.7673 22.0241L18.7884 22.1355C19.1714 21.855 19.3692 21.2486 19.4787 20.8113L19.4576 20.7618Z" fill="#474747"/>
<path d="M20.1394 21.1702C19.9332 21.69 19.4786 22.0819 19.3144 22.614C19.306 22.6388 19.2934 22.8203 19.3565 22.7914C19.5796 22.6841 19.6975 22.3459 19.8027 22.1437C19.95 21.8591 20.0552 21.558 20.1773 21.261C20.1857 21.2403 20.1647 21.1083 20.1394 21.1702Z" fill="#474747"/>
<path d="M20.4883 21.7353C20.4757 21.6899 20.2695 22.0035 20.2652 22.0076C20.1348 22.2303 20.0169 22.4572 19.8991 22.6841C19.7181 23.043 19.4529 23.4761 19.4992 23.8928L19.5413 23.9794L19.5539 23.9835L19.5708 23.9753C19.7223 23.8103 19.7896 23.5628 19.878 23.3606C20.0169 23.0347 20.16 22.713 20.3031 22.3871C20.3578 22.2551 20.5809 21.8591 20.4967 21.6982L20.4883 21.7353Z" fill="#474747"/>
<path d="M20.9306 21.9663C20.5349 22.8244 20.0846 23.6741 19.8026 24.5734C19.7942 24.6023 19.8068 24.8127 19.8531 24.7467C20.354 24.0124 20.6528 23.1173 21.0106 22.3087C21.0442 22.2262 20.9811 21.8591 20.9306 21.9663Z" fill="#474747"/>
<path d="M21.684 22.449C21.221 23.3442 20.7033 24.2517 20.5055 25.2417C20.5013 25.2665 20.5223 25.4892 20.5686 25.4109C21.0274 24.5941 21.3557 23.6948 21.7766 22.8533C21.8229 22.7543 21.7472 22.3211 21.684 22.449Z" fill="#474747"/>
<path d="M22.4377 22.9811C22.143 23.7154 21.7432 24.4373 21.5496 25.2046C21.5411 25.2376 21.558 25.5099 21.6127 25.4191C22.0168 24.7673 22.2693 23.9629 22.5387 23.2493C22.5639 23.175 22.5092 22.8037 22.4377 22.9811Z" fill="#474747"/>
<path d="M23.3931 23.3276C23.0816 24.066 22.6102 24.7591 22.3535 25.514C22.3408 25.547 22.3451 25.8399 22.4124 25.7821C22.6734 25.5594 22.8165 25.1881 22.9638 24.887C23.1532 24.5116 23.3258 24.1279 23.4815 23.736C23.5236 23.6412 23.4436 23.2039 23.3931 23.3276Z" fill="#474747"/>
<path d="M23.9062 23.4308C23.6831 24.1651 23.1991 24.788 22.9676 25.514C22.955 25.547 22.9718 25.844 23.0265 25.7863C23.2622 25.5388 23.3969 25.2005 23.5484 24.8994C23.7378 24.524 23.8978 24.1362 24.0114 23.732C24.0367 23.6495 23.9693 23.2246 23.9062 23.4308Z" fill="#474747"/>
<path d="M24.6262 23.7938C24.3148 24.3879 23.9107 24.9406 23.6834 25.5759C23.6708 25.6089 23.6961 25.8647 23.7381 25.8152C24.1296 25.3366 24.4326 24.755 24.7188 24.2064C24.7694 24.1115 24.7609 23.9795 24.7399 23.8763C24.7273 23.8351 24.6768 23.699 24.6262 23.7938Z" fill="#474747"/>
<path d="M25.2702 23.8639C24.8451 24.7426 24.3232 25.5511 24.0286 26.4875C24.0202 26.5164 24.037 26.7103 24.0749 26.6443C24.58 25.8234 24.8914 24.9034 25.3081 24.0413C25.3292 24 25.2955 23.8103 25.2702 23.8639Z" fill="#474747"/>
<path d="M25.9141 24.0496C25.4679 24.8829 24.9039 25.6914 24.7271 26.6361C24.7229 26.6608 24.744 26.8877 24.7903 26.8093C25.249 26.0585 25.6026 25.2005 25.994 24.4167C26.0361 24.326 25.973 23.9341 25.9141 24.0496Z" fill="#474747"/>
<path d="M26.5115 24.2187C26.0443 25.0726 25.434 26.0007 25.3078 26.9743C25.3078 26.9867 25.3204 27.1558 25.3498 27.1187C25.615 26.7887 25.7413 26.3308 25.9181 25.9512C26.1664 25.4191 26.3979 24.8952 26.5452 24.3259C26.5452 24.3094 26.5326 24.1733 26.5115 24.2187Z" fill="#474747"/>
<path d="M27.2737 24.4374C26.9706 25.2583 26.4319 25.9513 26.213 26.8176C26.2088 26.8423 26.2256 27.028 26.2551 26.9661C26.6718 26.1576 26.9959 25.3449 27.2905 24.491L27.2737 24.4374Z" fill="#474747"/>
<path d="M27.8922 24.425C28.0185 25.448 27.0504 26.4875 26.7305 27.4157C26.7221 27.4363 26.7263 27.6302 26.7726 27.5931C27.223 27.2012 27.4839 26.5082 27.686 25.9719C27.8754 25.4645 28.0269 24.9489 27.9048 24.4085L27.8922 24.425Z" fill="#474747"/>
<path d="M28.8394 24.4579C28.3175 25.3737 27.7282 26.3514 27.4799 27.3827C27.4715 27.4116 27.4925 27.6385 27.5472 27.5601C28.1407 26.702 28.5826 25.5594 28.8689 24.5611C28.8731 24.5404 28.8604 24.4167 28.8394 24.4579Z" fill="#474747"/>
<path d="M29.3991 24.8787C28.9613 25.7863 28.3931 26.6567 28.1574 27.6426C28.149 27.6715 28.1532 27.8942 28.2079 27.8241C28.4941 27.4446 28.6415 26.9496 28.8267 26.5164C29.0329 26.0379 29.2181 25.547 29.4412 25.0809C29.4664 25.0272 29.4285 24.8169 29.3991 24.8787Z" fill="#474747"/>
<path d="M30.2241 24.755C29.6853 25.58 29.1887 26.5494 29.054 27.5312C29.0498 27.5518 29.0582 27.7375 29.1045 27.6715C29.3276 27.3827 29.4328 26.9784 29.5675 26.6484C29.7737 26.1451 30.0262 25.6625 30.3167 25.2005C30.3882 25.0974 30.3167 24.6188 30.2241 24.755Z" fill="#474747"/>
<path d="M31.0324 24.8003C30.5568 25.7285 29.9928 26.6732 29.8076 27.7086C29.8034 27.7333 29.8244 27.9561 29.8707 27.8777C30.3463 27.0403 30.6915 26.1122 31.1292 25.25C31.1881 25.1386 31.104 24.6642 31.0324 24.8003Z" fill="#474747"/>
<path d="M31.8445 24.9117C31.4363 25.7945 30.9438 26.6691 30.6239 27.589C30.6155 27.6137 30.6239 27.8447 30.6702 27.7994C31.2974 27.1806 31.5836 26.1122 31.9329 25.3243C31.9792 25.2252 31.9035 24.788 31.8445 24.9117Z" fill="#474747"/>
<path d="M32.7453 24.9488C32.3454 25.7326 31.9077 26.5164 31.672 27.3662C31.6635 27.3951 31.6762 27.6054 31.7183 27.5394C32.1728 26.8753 32.4759 26.0915 32.8379 25.3779C32.8926 25.2747 32.8126 24.8168 32.7453 24.9488Z" fill="#474747"/>
<path d="M33.4988 24.9736C33.0442 25.8151 32.5307 26.6608 32.3708 27.6137C32.3666 27.6385 32.3876 27.8653 32.4339 27.787C32.8464 27.0238 33.1873 26.2153 33.5998 25.448C33.663 25.3325 33.5788 24.8292 33.4988 24.9736Z" fill="#474747"/>
<path d="M34.4962 24.7344C34.0543 25.6336 33.5029 26.5412 33.2209 27.5023C33.2125 27.5353 33.2293 27.8612 33.284 27.7994C33.5492 27.5023 33.6965 27.1063 33.8691 26.7516C34.1132 26.24 34.3573 25.7285 34.5973 25.217C34.6562 25.1015 34.5678 24.59 34.4962 24.7344Z" fill="#474747"/>
<path d="M35.2665 25.1015C34.7867 25.9389 34.2311 26.8217 33.9912 27.7622C33.9828 27.7911 33.9996 28.051 34.0417 28.0015C34.3068 27.6756 34.45 27.2466 34.6351 26.8712C34.8666 26.4092 35.1023 25.9554 35.3507 25.5057C35.4012 25.4109 35.3338 24.9818 35.2665 25.1015Z" fill="#474747"/>
<path d="M36.1592 24.8746C35.8056 25.6873 35.2711 26.4587 35.0227 27.3126C35.0101 27.3497 35.0312 27.6921 35.0901 27.6261C35.351 27.3415 35.4984 26.9454 35.6709 26.6031C35.8814 26.1947 36.0792 25.7821 36.2602 25.3573C36.3107 25.2417 36.2181 24.7385 36.1592 24.8746Z" fill="#474747"/>
<path d="M36.8366 25.2995C36.4326 26.1122 35.8265 26.9249 35.696 27.8365C35.6918 27.8654 35.7086 28.1253 35.7633 28.0345C35.9864 27.6839 36.1085 27.2508 36.2937 26.8795C36.4957 26.4752 36.7188 26.0875 36.9166 25.6791C36.9587 25.5883 36.8913 25.184 36.8366 25.2995Z" fill="#474747"/>
<path d="M37.7668 25.1304C37.5016 25.8976 37.0344 26.5865 36.7819 27.358C36.7692 27.3951 36.7819 27.7333 36.8492 27.6715C37.1102 27.424 37.2449 27.0444 37.3964 26.7268C37.59 26.3225 37.7499 25.8976 37.8846 25.4727C37.9141 25.382 37.8425 24.9035 37.7668 25.1304Z" fill="#474747"/>
<path d="M38.7095 24.7385C38.4907 25.5883 37.973 26.3102 37.7415 27.1558C37.7331 27.1888 37.7583 27.4405 37.792 27.3951C38.2844 26.7351 38.6422 25.9141 38.8358 25.1221C38.8611 25.019 38.7769 24.4868 38.7095 24.7385Z" fill="#474747"/>
<path d="M39.7744 24.6147C39.3535 25.3325 38.962 26.0503 38.6968 26.8382C38.6842 26.8753 38.7053 27.1187 38.7474 27.0444C39.1514 26.4009 39.4839 25.7161 39.8627 25.0602C39.9217 24.9612 39.8501 24.491 39.7744 24.6147Z" fill="#474747"/>
<path d="M40.574 24.722C40.271 25.3201 39.9132 25.9224 39.728 26.5701C39.7154 26.6072 39.7407 26.9289 39.787 26.8753C39.9764 26.6608 40.09 26.3803 40.2163 26.1245C40.3678 25.8234 40.5193 25.5264 40.6708 25.2294C40.7298 25.1139 40.7172 24.9447 40.6919 24.8251C40.6877 24.7797 40.633 24.6065 40.574 24.722Z" fill="#474747"/>
<path d="M41.2815 24.5652C41.0248 25.3737 40.6123 26.1369 40.3976 26.9537C40.3892 26.9867 40.406 27.2754 40.4523 27.2259C40.7091 26.9289 40.8311 26.5205 40.97 26.1616C41.13 25.7533 41.2689 25.3366 41.3952 24.92C41.4246 24.8292 41.3573 24.3342 41.2815 24.5652Z" fill="#474747"/>
<path d="M42.144 24.4745C41.782 25.4686 41.2054 26.4298 41.0117 27.4735C41.0075 27.5023 41.0244 27.7333 41.0791 27.655C41.319 27.2961 41.4453 26.8588 41.601 26.4587C41.8283 25.8894 42.0472 25.3201 42.2408 24.7385C42.266 24.6642 42.2113 24.2971 42.144 24.4745Z" fill="#474747"/>
<path d="M43.0406 24.2145C42.7123 25.316 42.1356 26.3143 41.7779 27.3992C41.7695 27.428 41.7905 27.6549 41.8242 27.6096C42.4808 26.7515 42.8554 25.5511 43.1458 24.5239C43.1711 24.4456 43.1037 24.0124 43.0406 24.2145Z" fill="#474747"/>
<path d="M43.7644 24.5859C43.3645 25.5883 42.8258 26.5494 42.5438 27.5972C42.5354 27.6261 42.5522 27.8489 42.5943 27.7787C43.1204 26.9042 43.495 25.9059 43.8654 24.9613C43.9033 24.8705 43.8107 24.4621 43.7644 24.5859Z" fill="#474747"/>
<path d="M44.5811 24.6725C44.2275 25.4562 43.8487 26.2565 43.6761 27.0981C43.6719 27.1269 43.7056 27.3703 43.7435 27.2878C44.0844 26.5453 44.3285 25.7574 44.6568 25.0107C44.6863 24.9241 44.6232 24.5734 44.5811 24.6725Z" fill="#474747"/>
<path d="M45.6124 23.7195C45.0484 24.9571 44.6022 26.2689 44.2487 27.5766C44.2402 27.6137 44.2655 27.886 44.3118 27.7993C44.9053 26.6525 45.1746 25.3614 45.7092 24.1898C45.7597 24.0743 45.6713 23.5834 45.6124 23.7195Z" fill="#474747"/>
<path d="M46.3236 23.7732C45.8269 25.2995 45.0188 26.7474 44.6736 28.315C44.6694 28.3439 44.6989 28.5501 44.7326 28.4759C45.3892 27.0568 45.9448 25.5305 46.4162 24.0413C46.4414 23.9671 46.3825 23.5958 46.3236 23.7732Z" fill="#474747"/>
<path d="M47.2751 23.2122C46.8079 25.0685 45.52 26.7144 45.4695 28.6656C45.4695 28.7316 45.52 28.942 45.5578 28.7729C45.9661 26.9372 46.9468 25.316 47.3677 23.4885C47.3845 23.4143 47.3214 23.0265 47.2751 23.2122Z" fill="#474747"/>
<path d="M48.1843 23.2493C47.3846 25.1592 46.3407 27.1146 46.0966 29.1937C46.0924 29.2308 46.1261 29.4824 46.1724 29.3545C46.8164 27.4157 47.4982 25.5305 48.2685 23.637C48.3021 23.538 48.2306 23.1379 48.1843 23.2493Z" fill="#474747"/>
<path d="M49.1649 22.5728C48.403 24.9241 47.0688 27.2713 46.9425 29.7794C46.9425 29.8166 46.9888 30.0682 47.0267 29.9238C47.6622 27.5353 48.5335 25.2706 49.2785 22.9152C49.308 22.8244 49.2364 22.3459 49.1649 22.5728Z" fill="#474747"/>
<path d="M50.3096 21.8962C49.6109 24.6064 48.2009 27.1063 47.6916 29.8619C47.6789 29.9197 47.7379 30.2662 47.7926 30.0888C48.6302 27.4528 49.7666 24.887 50.4064 22.1973C50.4274 22.119 50.3601 21.6982 50.3096 21.8962Z" fill="#474747"/>
<path d="M51.3113 21.4961C50.9956 23.2411 50.1748 24.8086 49.4804 26.4257C49.0005 27.5395 48.8027 28.7523 48.4071 29.8991C48.3818 29.9692 48.4407 30.3611 48.4997 30.2374C49.1731 28.8183 49.4214 27.2342 50.0486 25.7822C50.6294 24.4332 51.1724 23.1214 51.3997 21.6652C51.4165 21.5869 51.3492 21.2775 51.3113 21.4961Z" fill="#474747"/>
<path d="M50.4275 26.7021C49.8509 28.1954 49.1859 29.7258 48.8491 31.2892C48.8449 31.3181 48.866 31.545 48.9123 31.4666C49.6909 30.1259 49.9603 28.4057 50.4949 26.9537C50.5159 26.8918 50.457 26.6195 50.4275 26.7021Z" fill="#474747"/>
<path d="M52.2203 21.1908C51.6605 22.8698 50.6503 24.4332 50.2673 26.1575C50.2589 26.1905 50.2968 26.4628 50.3431 26.3679C51.1007 24.7962 51.7657 23.0719 52.3003 21.4136C52.3171 21.3517 52.2708 21.0464 52.2203 21.1908Z" fill="#474747"/>
<path d="M53.2264 20.4029C52.5319 22.0571 51.6859 23.7443 51.4754 25.5388C51.4712 25.5635 51.4923 25.7285 51.5217 25.6419C52.0942 23.9836 52.6329 22.3418 53.2895 20.7082C53.319 20.6381 53.2601 20.3163 53.2264 20.4029Z" fill="#474747"/>
<path d="M54.1144 18.9756C53.4662 21.0671 52.7591 23.1833 52.2287 25.3037C52.2203 25.3367 52.2414 25.5842 52.2834 25.5058C53.2936 23.6247 53.643 21.2899 54.2028 19.2479C54.2196 19.1819 54.1691 18.7983 54.1144 18.9756Z" fill="#474747"/>
<path d="M55.1751 18.035C54.4469 20.1183 53.5504 22.2633 53.2221 24.4538C53.2179 24.4786 53.2474 24.6972 53.2768 24.6229C54.0934 22.6016 54.5564 20.3823 55.2424 18.3114C55.2635 18.2413 55.2045 17.9484 55.1751 18.035Z" fill="#474747"/>
<path d="M56.2147 16.6284C55.6213 19.2809 54.6111 21.9416 53.824 24.5528C53.8114 24.5941 53.8409 24.9571 53.8956 24.8911C54.4975 24.161 54.5059 22.8079 54.7668 21.9169C55.2719 20.2008 55.9664 18.5837 56.2863 16.814C56.2947 16.7728 56.2484 16.4881 56.2147 16.6284Z" fill="#474747"/>
<path d="M57.2502 15.3042C57.0355 18.4187 54.7668 21.0093 54.7374 24.1403C54.7374 24.2063 54.7921 24.3466 54.8131 24.2063C55.213 21.1331 57.1702 18.5094 57.3385 15.3867C57.3428 15.2671 57.267 15.0814 57.2502 15.3042Z" fill="#474747"/>
<path d="M56.8043 19.285C56.253 20.7535 55.5837 22.2469 55.2723 23.7855C55.2681 23.8144 55.2891 24.0166 55.3144 23.9588C55.9205 22.5067 56.4887 20.9392 56.8296 19.4005C56.838 19.3757 56.8212 19.2437 56.8043 19.285Z" fill="#474747"/>
<path d="M18.1148 5.99781C20.7581 1.13011 29.416 1.38587 34.1722 1.15074C40.7803 0.820724 47.3717 1.5385 53.5673 3.77435C53.6599 3.80735 53.7315 2.87918 53.5757 2.75955C51.4207 1.11774 48.1082 0.899102 45.4986 0.544338C41.4496 -0.00431019 37.4258 -0.119815 33.343 0.11532C28.0313 0.424708 20.5561 0.338079 18.0938 5.90293L18.1148 5.99781Z" fill="#474747"/>
<path d="M54.1484 3.58048C54.7798 4.64477 55.731 5.37493 56.375 6.44747C57.3347 8.04804 57.3304 10.09 57.4188 11.8844C57.5114 13.8398 57.482 15.7869 57.221 17.7257C56.9937 19.4253 56.2698 20.9639 56.013 22.647C56.0046 22.7006 55.992 23.34 56.1435 23.2864C57.3936 22.8326 57.5661 19.8089 57.7387 18.6662C58.0796 16.4263 58.0249 14.1244 57.9197 11.8721C57.8397 10.1271 57.7135 8.40693 57.221 6.71973C56.8885 5.57706 55.6174 2.98645 54.1568 3.42785C54.119 3.44022 54.1316 3.55573 54.1484 3.58048Z" fill="#474747"/>
<path d="M18.3886 5.50693C16.7597 8.31617 16.6502 12.066 16.8186 15.2052C16.9533 17.7257 17.4542 22.6594 19.786 24.2517C20.0427 24.425 19.9964 23.4184 19.9459 23.3029C18.8137 20.6876 17.6688 18.4847 17.3405 15.5847C16.9701 12.3135 17.6225 9.13708 18.5275 6.0102C18.5485 5.92357 18.498 5.31717 18.3886 5.50693Z" fill="#474747"/>
<path d="M19.5377 24.1156C25.3251 29.9692 36.4032 28.909 43.79 27.6302C44.1225 27.5725 43.9921 26.2978 43.7564 26.3391C35.6708 27.8489 26.5163 28.3068 19.5924 23.2906C19.4325 23.175 19.3946 23.9712 19.5377 24.1156Z" fill="#474747"/>
<path d="M43.1584 27.2672C44.5852 28.2944 45.9279 29.305 47.2411 30.4931C47.7883 30.9881 49.7918 33.0589 50.4568 31.8956C50.541 31.7471 50.5788 31.2109 50.4063 31.1036C50.0191 30.852 49.535 30.885 49.1057 30.6498C48.3691 30.2456 47.7125 29.6598 47.0685 29.1318C46.2646 28.4718 44.3958 26.4257 43.1668 26.8547C43.0658 26.8918 43.0868 27.2177 43.1584 27.2672Z" fill="#474747"/>
<path d="M49.9898 32.2669C50.0614 31.578 50.0529 30.8891 50.0277 30.1961C49.9856 29.0616 49.8804 27.721 50.8148 26.8299C51.2483 26.4174 52.1869 26.306 52.7678 26.1823C54.847 25.7285 56.0045 24.4992 56.5348 22.5356C56.5517 22.4779 56.5054 22.0365 56.4549 22.1066C55.5794 23.2617 54.6155 24.1692 53.2476 24.7467C52.3426 25.1262 50.8106 25.151 50.2886 26.1575C49.3542 27.9767 49.632 30.2868 49.9183 32.2339C49.9225 32.304 49.9772 32.3865 49.9898 32.2669Z" fill="#474747"/>
<path d="M1.1313 16.2158C1.12709 16.1581 1.12709 16.1045 1.12288 16.0467C1.12288 16.0096 1.09763 15.9766 1.09342 16.0343C1.08921 16.088 1.08921 16.1416 1.085 16.1952C1.08079 16.2777 1.13551 16.319 1.1313 16.2158Z" fill="#474747"/>
<path d="M1.72504 14.9082C2.9667 13.485 5.87512 13.3942 7.64712 13.155C10.7618 12.7342 13.9648 12.2516 17.0921 12.7631C17.2731 12.792 17.3531 11.6328 17.0627 11.5874C13.7881 11.0553 10.4503 11.6204 7.20096 12.0948C4.97018 12.4207 2.99616 12.693 1.69137 14.673C1.65769 14.7184 1.69557 14.9371 1.72504 14.9082Z" fill="#474747"/>
<path d="M2.44891 13.7243C0.277057 15.9642 -0.0891271 19.318 0.0160982 22.2799C0.112905 25.0974 0.971544 29.5979 3.56429 31.3016C3.80842 31.4625 3.80842 30.3033 3.68636 30.1342C2.05326 27.9148 0.916826 25.9513 0.521179 23.1709C0.0792334 20.0811 0.828437 16.913 2.53309 14.2977C2.60043 14.1945 2.52046 13.65 2.44891 13.7243Z" fill="#474747"/>
<path d="M3.3791 30.8396C3.92207 31.6688 4.94906 31.6852 5.84979 31.809C6.06866 31.8379 6.1318 30.5797 5.81612 30.555C5.06271 30.4931 4.1241 30.5385 3.44645 30.1631C3.2865 30.0682 3.31597 30.7447 3.3791 30.8396Z" fill="#474747"/>
<path d="M10.3029 31.9988C14.394 32.2257 18.22 32.3659 22.2817 31.7224C24.9082 31.3057 28.2038 31.6729 28.4395 28.3645C28.4816 27.7787 28.0733 26.8836 28.027 27.9602C27.9386 30.0352 25.2196 30.1631 23.7465 30.3652C22.2481 30.5673 20.7623 30.852 19.2639 31.0582C16.2713 31.4708 13.2618 30.819 10.2818 31.2274C10.1177 31.248 10.1387 31.9864 10.3029 31.9988Z" fill="#474747"/>
<path d="M5.06715 31.5945C5.42492 31.6605 5.82478 31.7265 6.04785 32.0483C6.22884 32.3082 6.0689 32.7413 6.00997 33.0218C5.85424 33.7479 5.59749 34.4945 5.76164 35.2412C5.77006 35.2907 5.85845 35.6784 5.99314 35.5423C6.24147 35.2865 6.23726 34.6389 6.30039 34.3047C6.40562 33.7313 6.47717 33.1662 6.48559 32.5846C6.49822 31.7059 6.22042 30.4477 5.05453 30.9551C4.91563 31.0087 4.91142 31.5656 5.06715 31.5945Z" fill="#474747"/>
<path d="M5.7233 35.9672C6.33361 34.808 7.06177 33.7808 8.22766 33.1126C9.33463 32.4814 10.7657 32.6134 11.7843 31.8791C11.8853 31.8049 11.8685 31.3759 11.7506 31.3264C10.6478 30.8685 9.10735 31.5079 8.11823 32.0606C6.85132 32.7702 6.13579 34.0572 5.59703 35.3278C5.53811 35.468 5.62229 36.1569 5.7233 35.9672Z" fill="#474747"/>
<path d="M7.03647 20.6339C5.6475 19.5531 4.90671 21.558 4.95722 22.6346C4.99089 23.3359 5.20976 24.0867 5.90425 24.4085C6.82181 24.8292 7.84039 24.359 8.44649 23.6618C9.41035 22.5439 8.70324 19.8955 7.08277 19.7759C6.69133 19.747 6.23255 19.9986 6.14837 20.3823C6.09786 20.6009 6.05156 20.7989 6.09365 21.0217C6.161 21.3847 6.40091 21.3146 6.65345 21.1949C7.44054 20.8196 8.22762 21.4218 8.5475 22.1066C9.12835 23.34 5.92108 23.9258 5.31498 22.7831C5.09191 22.3582 5.37391 21.7766 5.62645 21.426C5.96317 20.9598 6.45984 20.6999 7.03226 20.8938C7.07014 20.8979 7.07856 20.6628 7.03647 20.6339Z" fill="#474747"/>
<path d="M15.0256 20.6917C14.6426 20.2915 14.1039 19.8336 13.502 20.0069C13.0222 20.1471 12.7149 20.6133 12.555 21.0506C12.1888 22.0736 12.3192 23.6618 13.4262 24.1857C14.7226 24.7962 16.2968 23.6205 16.3852 22.3087C16.4272 21.6858 16.3136 20.9639 15.9264 20.4524C15.4676 19.8501 14.4995 19.2932 13.9481 20.0853C13.8555 20.2214 13.8345 20.6339 13.965 20.7535C14.5627 21.3104 16.2168 20.9639 16.1873 22.2303C16.1579 23.604 14.2343 23.439 13.3883 23.0265C12.6686 22.6759 12.5423 22.0488 12.9422 21.4259C13.4136 20.6917 14.3312 20.6834 15.0004 21.1537C15.0677 21.2032 15.1014 20.77 15.0256 20.6917Z" fill="#474747"/>
<path d="M28.8521 14.2935C28.3513 12.7631 26.3857 12.9776 25.4849 13.9841C24.4874 15.0938 25.1103 16.8676 26.3604 17.4699C27.5558 18.0433 28.6712 17.0285 29.0037 15.9395C29.172 15.3867 29.1468 14.7019 28.9279 14.1698C28.6964 13.6046 27.9725 12.7053 27.2822 13.0189C27.097 13.1055 27.1475 13.7201 27.2738 13.8439C27.8672 14.4255 29.2604 14.5658 28.7259 15.6796C28.3471 16.4634 27.4 16.7274 26.5835 16.517C26.0574 16.3809 25.5649 15.9601 25.3292 15.4857C25.1524 15.1351 25.9311 14.5617 26.1836 14.4008C26.5919 14.1409 27.1096 14.0048 27.5936 14.0048C27.8041 14.0048 28.0356 14.0419 28.2376 14.0831C28.4902 14.1327 28.6164 14.4255 28.8437 14.4585L28.8521 14.2935Z" fill="#474747"/>
<path d="M38.722 13.4149C36.8027 11.7029 34.1721 14.9453 35.8473 16.5912C36.3439 17.078 37.2278 17.177 37.8802 17.111C38.5495 17.045 39.063 16.5087 39.3197 15.9271C39.5554 15.3949 39.526 14.7885 39.3913 14.2358C39.2566 13.6912 38.621 12.7012 37.9939 13.1715C37.8887 13.2499 37.9392 13.6087 38.0065 13.6995C38.3306 14.1409 38.8862 14.3059 39.1766 14.772C39.4544 15.2217 39.0293 15.7868 38.5958 15.9518C37.754 16.2736 36.5081 16.2406 35.8262 15.593C35.5484 15.3289 35.6116 15.2506 35.801 14.8917C35.9693 14.574 36.2556 14.31 36.546 14.1038C37.211 13.6294 38.0486 13.617 38.6884 14.1326C38.7599 14.1904 38.8609 13.5427 38.722 13.4149Z" fill="#474747"/>
<path d="M49.27 13.6211C48.7607 13.0023 48.1714 12.4578 47.3423 13.0106C46.7488 13.4066 46.4752 13.947 46.4457 14.64C46.3868 15.9848 47.3002 17.507 48.8617 17.2183C50.1455 16.979 50.478 15.036 50.276 14.013C50.1581 13.4148 49.9939 12.9198 49.4173 12.6228C48.6849 12.2392 47.881 12.4784 47.2665 12.9198C47.1739 12.9858 47.195 13.4231 47.3002 13.4726C47.759 13.6912 48.0578 13.7284 48.5671 13.7284C48.9459 13.7284 49.3037 13.7284 49.6446 13.9222C50.2044 14.2358 50.1455 14.9494 49.914 15.4609C49.7119 15.9188 49.3037 16.088 48.8323 16.1828C47.9778 16.352 46.9845 15.6342 46.7235 14.8628C46.5931 14.4791 47.4896 13.9264 47.7337 13.8026C48.142 13.5964 48.9122 13.5097 49.2616 13.7655L49.27 13.6211Z" fill="#474747"/>
</svg>
