<svg width="44" height="48" viewBox="0 0 44 48" fill="none" xmlns="http://www.w3.org/2000/svg">
<path d="M0.627284 34.1293C2.29226 33.3505 3.59059 31.7276 4.85442 30.4223C6.33391 28.8951 8.08084 27.6768 9.63798 26.2366C9.9356 25.9625 9.62935 24.8574 9.48701 25.014C8.15417 26.4803 6.51939 27.6029 5.12616 29.0039C3.60353 30.5311 2.11541 32.0583 0.549642 33.5419C0.450434 33.6377 0.441807 34.2163 0.627284 34.1293Z" fill="#474747"/>
<path d="M8.99026 26.2975C9.46042 26.3062 9.90902 25.9842 10.3878 25.9233C10.9874 25.845 11.3928 26.2105 11.8328 26.5455C12.0528 26.7152 12.0873 25.6971 11.9579 25.5317C11.1125 24.4788 9.59414 24.7616 8.94281 25.8842C8.90399 25.9494 8.86517 26.2975 8.99026 26.2975Z" fill="#474747"/>
<path d="M11.9326 26.3453C12.2605 27.3243 13.011 28.0118 13.7184 28.734C14.4689 29.4998 15.2367 30.2656 16.0563 30.9574C16.2719 31.1401 16.41 29.8653 16.1511 29.6086C15.461 28.9298 14.7234 28.2989 14.029 27.6245C13.6753 27.2808 13.3259 26.9284 12.9894 26.5716C12.7134 26.2801 12.433 25.8406 11.9973 25.8624C11.8421 25.8667 11.9068 26.267 11.9326 26.3453Z" fill="#474747"/>
<path d="M16.2415 31.014C17.0524 32.1409 19.4593 31.8711 19.5715 30.296C19.5801 30.1655 19.6146 29.9045 19.4895 29.8174C19.373 29.7304 18.5794 30.3961 18.4155 30.457C18.0531 30.5963 17.6391 30.5702 17.2638 30.518C16.9273 30.4701 16.5693 30.2917 16.2501 30.4222C16.1121 30.4831 16.1725 30.9182 16.2415 31.014Z" fill="#474747"/>
<path d="M18.9716 30.9443C20.9774 29.6869 22.7933 27.6202 24.6006 26.0625C26.9169 24.0654 28.8407 21.655 31.1139 19.61C31.3899 19.362 31.1484 18.1612 30.9672 18.3265C28.8536 20.2322 27.0291 22.4208 24.9586 24.37C22.9055 26.3018 20.8092 28.064 18.8768 30.1351C18.7473 30.2656 18.7689 31.0705 18.9716 30.9443Z" fill="#474747"/>
<path d="M30.5962 19.5883C31.2604 19.4882 31.929 18.5092 32.1102 17.9045C32.369 17.0343 32.162 15.7942 31.2346 15.4505C31.1656 15.4636 31.1181 15.5071 31.0922 15.5723C30.9283 15.9291 30.8636 16.2554 30.9801 16.6383C31.131 17.143 31.3553 17.2126 31.7349 17.5259C31.7479 17.1169 31.7263 17.0343 31.6616 17.2692C31.6271 17.3562 31.584 17.4432 31.5365 17.5259C31.4416 17.7043 31.3122 17.8653 31.1828 18.0176C30.9628 18.283 30.6997 18.5005 30.5013 18.7877C30.4366 18.8921 30.3891 19.6187 30.5962 19.5883Z" fill="#474747"/>
<path d="M27.0899 12.7616C27.4048 13.0053 27.78 13.1532 28.0992 13.4099C28.4874 13.7232 28.8411 14.0887 29.1776 14.4542C29.5658 14.8718 29.9195 15.32 30.2732 15.7681C30.5104 16.0727 30.7951 16.6383 31.1531 16.7993C31.5198 16.9603 31.4249 15.8073 31.3515 15.6463C31.4249 16.1945 31.4464 16.2946 31.4205 15.9465C31.4076 15.8421 31.386 15.742 31.3515 15.6463C31.2264 15.3679 31.0755 15.159 30.8814 14.9241C30.5061 14.4629 30.1222 14.0104 29.7254 13.5666C29.2337 13.014 27.9871 11.4694 27.1115 11.7087C26.8311 11.7826 26.9001 12.6137 27.0899 12.7616Z" fill="#474747"/>
<path d="M27.0813 9.47662C26.3221 9.20251 26.4127 10.8515 26.5076 11.2344C26.6241 11.7 27.2323 13.1837 27.9008 12.8312C28.0949 12.7312 28.0259 12.1655 27.9569 12.0176C28.0691 12.2569 27.8706 11.7957 27.8232 11.7435C27.6636 11.5564 27.504 11.3824 27.3315 11.2083C27.1503 11.0256 26.9907 10.7863 26.8915 10.5426C26.8742 10.7297 26.8872 10.7167 26.9303 10.4948C26.9821 10.2946 27.0683 10.0945 27.1287 9.89867C27.1503 9.8247 27.1891 9.51578 27.0813 9.47662Z" fill="#474747"/>
<path d="M26.5593 10.5165C29.9367 7.67964 32.7447 4.20321 36.2428 1.48385C36.5232 1.2663 36.3636 -0.0694493 36.0833 0.113292C34.0344 1.42729 32.4039 3.35912 30.6656 5.0473C29.1818 6.48747 27.5082 7.88414 26.4169 9.67239C26.335 9.80727 26.3738 10.6731 26.5593 10.5165Z" fill="#474747"/>
<path d="M35.5313 1.72318C35.9928 1.63181 36.3638 1.35335 36.8598 1.30984C37.3473 1.26633 37.8994 1.36205 38.2358 1.73624C38.4127 1.93203 38.5119 1.27503 38.5119 1.22717C38.5291 0.966114 38.5334 0.54407 38.3264 0.348276C37.9296 -0.0302592 37.3343 -0.0389611 36.8253 0.0393564C36.1913 0.135078 35.6564 0.422242 35.4148 1.03138C35.389 1.1097 35.3502 1.75799 35.5313 1.72318Z" fill="#474747"/>
<path d="M37.7352 1.44041C39.5986 3.70727 41.6302 5.76093 42.2902 8.73265C43.0493 12.1525 41.6604 15.5898 40.0515 18.518C38.6842 21.0111 36.9113 23.2736 35.0048 25.3664C33.1716 27.3766 30.9287 28.9429 29.1472 30.9922C29.0911 31.0575 29.0523 31.5579 29.186 31.5187C32.2917 30.6311 34.9401 27.3113 36.9502 24.9183C39.0767 22.3817 40.8322 19.4839 42.0486 16.3991C43.0924 13.745 43.2175 10.7123 42.7215 7.92772C42.1909 4.9386 39.9997 2.35412 37.8042 0.417931C37.636 0.269998 37.5799 1.24897 37.7352 1.44041Z" fill="#474747"/>
<path d="M0.596714 33.2721C-0.0589227 33.6942 -0.0416691 34.6601 0.0402855 35.3519C0.143807 36.2308 0.674355 37.0401 1.23078 37.6927C1.57586 38.093 1.63193 36.7224 1.45939 36.4614C1.50253 36.6006 1.54566 36.7398 1.5888 36.8834C1.57586 36.7747 1.54998 36.6746 1.51547 36.5745C1.42057 36.3265 1.20922 36.1046 1.05393 35.8871C0.924533 35.7043 0.808071 35.5085 0.695922 35.3127C0.441432 34.8646 0.613968 34.4599 0.777877 34.0205C0.812384 33.9248 0.833951 33.1198 0.596714 33.2721Z" fill="#474747"/>
<path d="M1.32588 37.8015C2.27914 38.6108 3.12025 39.5549 4.12096 40.3033C5.23382 41.1343 6.99368 41.304 8.30927 41.4824C11.8894 41.9697 15.4178 41.7478 18.8167 40.4817C24.9762 38.1844 29.9798 32.2583 33.9567 27.233C34.043 27.1242 34.0215 26.4933 33.8791 26.5977C28.936 30.3439 25.5974 35.6565 19.9641 38.6064C16.729 40.299 13.0842 40.5861 9.51702 40.3251C7.86499 40.2032 6.23453 39.9596 4.66876 39.394C3.3618 38.924 2.69322 37.4708 1.39058 36.9835C1.13609 36.8921 1.18353 37.6753 1.32588 37.8015Z" fill="#474747"/>
<path d="M28.5989 12.196C28.5126 12.209 28.4652 12.2569 28.4609 12.3439C28.4609 12.37 28.4824 12.4005 28.4868 12.3613C28.4911 12.283 28.5385 12.2656 28.6032 12.2569L28.5989 12.196Z" fill="#474747"/>
<path d="M28.599 12.3352C28.5084 12.3613 28.4178 12.3874 28.3316 12.4135C27.7492 12.5788 28.2108 14.0973 28.4998 13.7101C31.4243 9.82466 35.2632 6.70066 38.9943 3.63757C39.3695 3.32865 39.0978 1.81886 38.7872 2.07557C34.9742 5.23003 31.1223 8.47586 28.1935 12.5136C28.3359 12.7094 28.4782 12.9095 28.6206 13.1053C28.6162 12.8529 28.6076 12.6049 28.6033 12.3526L28.599 12.3352Z" fill="#474747"/>
<path d="M1.43815 37.9538C4.0952 36.3527 6.01466 33.6159 8.49056 31.7406C9.49127 30.9836 10.3367 30.0786 11.3633 29.3302C12.3252 28.6297 12.8514 27.9422 13.093 26.7936C13.1102 26.6978 13.1016 25.8276 12.8428 26.0234C11.0527 27.3505 9.53009 29.1518 7.77885 30.5572C5.45824 32.4194 3.39212 34.7733 1.28718 36.8835C1.10601 37.0662 1.11895 38.1453 1.43815 37.9538Z" fill="#474747"/>
<path d="M4.40125 39.7073C8.15822 41.6652 13.0324 39.9857 14.9561 36.2395C16.0819 34.0466 16.5737 29.6782 13.9296 28.3207C13.8605 28.2859 13.8692 28.5122 13.8994 28.547C16.3709 31.4143 15.9784 35.4955 13.2437 38.08C10.8325 40.3599 7.38612 40.5949 4.4185 39.5071C4.3538 39.481 4.34949 39.6811 4.40125 39.7073Z" fill="#474747"/>
<path d="M29.0997 13.9146C34.5475 19.8755 45.6071 11.1517 41.2333 4.43818C41.1513 4.312 41.1255 4.70359 41.1557 4.76886C42.8983 8.69344 41.0004 12.3265 37.5583 14.4367C34.8063 16.1249 31.4807 15.9726 29.1256 13.7101C29.0954 13.671 29.0652 13.8711 29.0997 13.9146Z" fill="#474747"/>
<path d="M13.231 30.4832C13.2267 30.0263 12.8816 29.6565 12.446 29.5738C11.9801 29.4868 11.5488 29.8131 11.3072 30.1786C10.7508 31.0053 11.1476 32.3758 12.0793 32.7326C12.8299 33.0198 13.7572 32.5673 14.0462 31.8233C14.1886 31.4491 14.1498 30.9879 13.96 30.6398C13.7098 30.1786 13.0671 29.6173 12.5193 29.7217C12.433 29.7392 12.4718 29.9393 12.5107 29.9785C12.9161 30.3831 14.2705 30.8138 13.8133 31.6144C13.5157 32.1365 12.8385 32.3802 12.2691 32.2845C11.937 32.2279 11.6609 32.0104 11.4711 31.7363C11.1563 31.2837 11.1994 30.7703 11.566 30.3744C11.7903 30.1307 12.1225 29.9785 12.4546 29.9872C12.6271 29.9915 12.7738 30.0698 12.9032 30.1742C13.0067 30.2569 13.0887 30.4788 13.2181 30.5049L13.231 30.4832Z" fill="#474747"/>
<path d="M40.0556 6.03064C39.7149 4.85153 38.5632 4.73405 37.8083 5.64776C37.0794 6.531 37.3296 7.75363 38.1017 8.49765C38.9514 9.31563 39.9737 8.84137 40.2238 7.77103C40.3446 7.25327 40.3317 6.7181 40.198 6.20468C40.0901 5.77829 39.7019 4.85153 39.1714 4.87763C39.1024 4.88198 39.1326 5.09953 39.1541 5.13434C39.3914 5.52158 39.7364 5.80439 39.9478 6.21338C40.185 6.67459 40.185 7.20106 40.0168 7.68401C39.7192 8.5281 38.8953 8.61947 38.244 8.13216C37.3296 7.45341 37.3899 6.39612 38.244 5.71737C38.9341 5.1735 39.6502 5.48677 40.0168 6.21338C40.0513 6.2743 40.0642 6.0611 40.0556 6.03064Z" fill="#474747"/>
<path d="M11.5229 39.5201C11.4409 39.8508 11.346 40.1815 11.3115 40.5252C11.3115 40.5426 11.3374 40.6906 11.3676 40.6253C11.5056 40.3338 11.5617 40.0031 11.6393 39.6898C11.6652 39.5898 11.5746 39.3026 11.5229 39.5201Z" fill="#474747"/>
<path d="M12.549 38.9458C12.3894 39.4288 12.1996 39.9291 12.1651 40.4425C12.1608 40.473 12.2039 40.6383 12.2341 40.5383C12.3765 40.0814 12.4886 39.6159 12.6396 39.159C12.6612 39.0937 12.6008 38.7935 12.549 38.9458Z" fill="#474747"/>
<path d="M13.5411 37.6187C13.3772 38.5629 13.0408 39.494 12.9459 40.4425C12.9459 40.4599 12.9718 40.6296 13.0063 40.56C13.4031 39.7507 13.5239 38.6978 13.6748 37.8189C13.6921 37.7057 13.5843 37.362 13.5411 37.6187Z" fill="#474747"/>
<path d="M15.3099 33.9248C14.8009 36.2874 14.072 38.7413 14.1151 41.1779C14.1151 41.2649 14.1798 41.3171 14.1927 41.204C14.486 38.7718 15.008 36.3875 15.3358 33.9596C15.3358 33.9422 15.3185 33.8813 15.3099 33.9248Z" fill="#474747"/>
<path d="M16.6426 31.2751C16.8497 32.5542 16.138 34.1598 15.8964 35.4128C15.5168 37.3751 15.0553 39.3287 15.12 41.3389C15.1243 41.4346 15.1933 41.4955 15.2063 41.365C15.4306 38.8414 15.849 36.3744 16.3925 33.903C16.5564 33.1547 16.9532 32.0365 16.6469 31.2664L16.6426 31.2751Z" fill="#474747"/>
<path d="M17.574 30.7921C17.3367 33.9814 16.0901 37.0097 15.9909 40.212C15.9909 40.2859 16.0427 40.386 16.06 40.2598C16.4482 37.088 17.5006 34.0118 17.5955 30.8095C17.5955 30.7834 17.574 30.7486 17.574 30.7921Z" fill="#474747"/>
<path d="M18.4587 31.1793C18.4458 31.114 18.4372 31.0531 18.4242 30.9878C18.4199 30.9487 18.3897 30.9139 18.3768 30.9704C17.8247 33.9422 16.9447 37.04 16.9663 40.077C16.9663 40.1771 17.0612 40.3555 17.0957 40.164C17.1475 39.8247 17.2122 39.4896 17.2855 39.1546C17.2898 39.1372 17.2682 39.0458 17.251 39.0937C16.7938 40.6644 17.3933 37.3055 17.3329 37.7406C17.4537 36.9008 17.6219 36.0654 17.7729 35.2257C17.9239 34.3816 18.0705 33.5375 18.187 32.6847C18.2387 32.3018 18.5191 31.6013 18.4199 31.2097C18.4415 31.2707 18.463 31.2054 18.4587 31.1793Z" fill="#474747"/>
<path d="M19.4422 29.6129C19.2826 32.9632 18.0835 36.1307 17.8851 39.4679C17.8721 39.6593 18.0145 39.9073 18.0533 39.5897C18.1353 39.0806 18.2215 38.5759 18.3035 38.0669C18.3078 38.0321 18.2776 37.9146 18.2604 38.0016C17.8247 39.9378 18.2905 37.5796 18.4286 36.8225C18.6011 35.8696 18.8211 34.9211 19.0195 33.9726C19.3171 32.5324 19.5156 31.0966 19.4638 29.626L19.4422 29.6129Z" fill="#474747"/>
<path d="M20.4557 28.5861C20.3565 32.2018 19.0883 35.6347 18.9977 39.2373C18.9934 39.333 19.0926 39.6202 19.1315 39.3809C19.1789 39.0415 19.2436 38.7065 19.3213 38.3714C19.3256 38.3497 19.2997 38.2453 19.2867 38.3018C18.8985 39.6593 19.3816 36.9574 19.4463 36.5353C19.5973 35.5825 19.8087 34.6339 19.9941 33.6898C20.3306 32.0016 20.5808 30.3221 20.4816 28.5948C20.4772 28.5687 20.4557 28.5469 20.4557 28.5861Z" fill="#474747"/>
<path d="M21.6072 27.0807C21.4304 30.8834 20.0458 34.7732 20.2097 38.576C20.2097 38.589 20.2356 38.7718 20.283 38.7195C20.3218 38.6804 20.3607 38.6369 20.3995 38.5977C20.4254 38.5716 20.4426 38.4063 20.3865 38.415C20.4038 38.415 20.93 33.7638 21.0508 32.9415C21.3398 30.9966 21.6676 29.0778 21.6633 27.1068C21.6676 27.0285 21.6115 26.9806 21.6072 27.0807Z" fill="#474747"/>
<path d="M22.608 27.072C22.4268 29.6434 21.9394 32.1713 21.5771 34.7166C21.3916 36.0306 21.1069 37.4186 21.4434 38.7239C21.4822 38.8718 21.534 38.6891 21.5253 38.6238C21.1113 34.8385 22.5606 30.9226 22.69 27.1285C22.6943 27.0372 22.6209 26.9066 22.608 27.072Z" fill="#474747"/>
<path d="M23.7599 26.3497C23.4925 29.8914 22.5004 33.3635 22.4141 36.9095C22.4141 36.9661 22.4659 37.1575 22.522 37.0226C22.5478 36.9617 22.5737 36.8965 22.5996 36.8356C22.6082 36.8138 22.6125 36.6528 22.5608 36.6833C22.6168 36.6485 23.0137 32.8153 23.0999 32.2583C23.3976 30.3178 23.7383 28.3947 23.8764 26.4367C23.8893 26.3018 23.7772 26.1191 23.7599 26.3497Z" fill="#474747"/>
<path d="M24.5493 25.2967C24.5234 28.1205 23.8677 30.8703 23.5701 33.668C23.527 34.0683 23.0223 36.2003 23.5011 36.4874C23.5572 36.5179 23.5442 36.3526 23.5399 36.3308C23.3286 35.2909 23.734 33.8116 23.8548 32.7587C24.1395 30.2612 24.7089 27.8246 24.6485 25.2967C24.6442 25.127 24.5493 25.1314 24.5493 25.2967Z" fill="#474747"/>
<path d="M25.6403 24.0307C25.0365 27.9944 23.9883 32.0321 24.0789 36.0655C24.0832 36.1873 24.1781 36.2656 24.1867 36.1003C24.3981 32.08 25.1831 28.1684 25.7439 24.196C25.7525 24.109 25.6705 23.8218 25.6403 24.0307Z" fill="#474747"/>
<path d="M26.6409 23.043C26.2872 27.1024 25.2693 31.1227 25.1744 35.2039C25.1701 35.3171 25.252 35.3867 25.2693 35.2388C25.7308 31.2098 26.4296 27.1895 26.766 23.1474C26.7833 22.9864 26.6625 22.7689 26.6409 23.043Z" fill="#474747"/>
<path d="M27.4257 22.1031C27.3308 26.1582 26.2136 30.122 26.2783 34.1814C26.2783 34.2641 26.3431 34.3163 26.3474 34.2075C26.5587 30.1655 27.4947 26.2017 27.5422 22.151C27.5422 21.9987 27.43 21.8986 27.4257 22.1031Z" fill="#474747"/>
<path d="M28.0428 21.7551C28.0385 25.6535 26.9731 29.4998 27.1241 33.3939C27.1284 33.4983 27.2017 33.5723 27.2146 33.4244C27.495 29.539 28.1981 25.6535 28.1679 21.7507C28.1679 21.5245 28.0428 21.5288 28.0428 21.7551Z" fill="#474747"/>
<path d="M29.1382 20.5759C29.1339 24.4266 28.09 28.2119 28.2194 32.0538C28.2237 32.1582 28.2971 32.2322 28.3057 32.0843C28.5602 28.2467 29.2848 24.4222 29.2589 20.5716C29.2546 20.3584 29.1382 20.3627 29.1382 20.5759Z" fill="#474747"/>
<path d="M30.1525 19.1619C30.0964 22.9429 29.3675 26.7022 29.4667 30.4832C29.471 30.5876 29.5443 30.6659 29.5529 30.5136C29.7427 26.7283 30.2388 22.9473 30.2733 19.1576C30.2733 18.94 30.1568 18.9487 30.1525 19.1619Z" fill="#474747"/>
<path d="M30.786 18.4527C30.842 22.1859 30.3201 25.8929 30.3762 29.6174C30.3805 29.787 30.5056 29.9045 30.5142 29.6696C30.6393 25.9364 31.0491 22.1902 30.8852 18.4484C30.8722 18.2787 30.786 18.2831 30.786 18.4527Z" fill="#474747"/>
<path d="M31.4849 18.4222C31.7652 22.0118 31.2519 25.5622 31.3123 29.1474C31.3166 29.3171 31.4417 29.4346 31.4504 29.1996C31.5841 25.5839 31.9593 21.9378 31.5884 18.3265C31.5625 18.0959 31.4762 18.2917 31.4849 18.4222Z" fill="#474747"/>
<path d="M32.7316 16.5905C32.5073 20.4324 32.3607 24.4919 32.5073 28.3643C32.5116 28.46 32.5807 28.5252 32.585 28.3947C32.7705 24.4788 33.0896 20.4194 32.7316 16.4991C32.723 16.3947 32.6756 16.4513 32.6756 16.5253V16.5731C32.6756 16.6384 32.7273 16.6862 32.7316 16.5905Z" fill="#474747"/>
<path d="M33.3787 16.0683C33.2321 19.9233 32.7749 23.9697 33.4478 27.7986C33.4779 27.9552 33.534 27.7594 33.5297 27.6941C33.2062 23.8131 33.5297 19.9755 33.4391 16.0944C33.4348 16.0118 33.3831 15.9509 33.3787 16.0683Z" fill="#474747"/>
<path d="M34.0856 15.7855C34.5342 17.3867 34.1287 19.101 34.1158 20.7369C34.1028 22.5078 34.0425 24.2743 34.3142 26.0277C34.3358 26.1583 34.3789 26.0495 34.3746 25.9755C34.2064 23.5607 34.215 21.1372 34.3573 18.7224C34.4177 17.6869 34.4781 16.6122 34.133 15.6202C34.0942 15.5071 34.0727 15.7464 34.0856 15.7855Z" fill="#474747"/>
<path d="M34.9142 15.581C34.8581 18.705 34.6554 21.8986 35.0047 25.0139C35.022 25.1619 35.0867 25.0836 35.0824 24.9791C35.0091 21.8595 35.0479 18.7442 35.0134 15.6245C35.0177 15.4853 34.9185 15.3896 34.9142 15.581Z" fill="#474747"/>
<path d="M35.7635 15.8595C35.7505 18.8486 35.5262 21.9117 36.0309 24.8704C36.0525 24.9922 36.0913 24.8399 36.087 24.7921C35.8842 21.8029 35.8799 18.8486 35.8842 15.8551C35.8842 15.6158 35.7635 15.6202 35.7635 15.8595Z" fill="#474747"/>
<path d="M36.5534 14.6543C36.769 17.365 36.6957 20.067 36.8122 22.7776C36.8165 22.8472 36.8596 22.8994 36.8639 22.7994C36.9804 20.0583 36.8769 17.2823 36.6569 14.5499C36.6353 14.2932 36.5404 14.5108 36.5534 14.6543Z" fill="#474747"/>
<path d="M37.2521 14.602C37.2521 17.0125 37.2909 19.4882 37.6489 21.8769C37.6748 22.0553 37.7481 21.9639 37.7395 21.8334C37.6403 19.4186 37.3815 17.0212 37.3556 14.602C37.3556 14.3888 37.2521 14.3932 37.2521 14.602Z" fill="#474747"/>
<path d="M38.2745 13.9624C37.9898 16.3859 38.1365 18.9008 38.4427 21.3156C38.46 21.4461 38.5117 21.3765 38.5074 21.2851C38.4686 18.8921 38.102 16.5426 38.3651 14.1452C38.3737 14.0582 38.3004 13.7362 38.2745 13.9624Z" fill="#474747"/>
<path d="M38.9688 13.4012C38.6755 15.2939 38.7402 17.365 39.1414 19.2359C39.1716 19.3838 39.2233 19.2359 39.219 19.1619C39.1112 17.2867 38.8006 15.4897 39.0724 13.6057C39.0853 13.51 39.0077 13.1445 38.9688 13.4012Z" fill="#474747"/>
<path d="M39.5944 12.8747C39.5815 14.7152 39.3874 16.7558 39.9352 18.5397C39.9697 18.6484 39.9956 18.4483 39.9912 18.4178C39.7756 16.5556 39.7022 14.7413 39.6979 12.8703C39.6936 12.6572 39.5944 12.6615 39.5944 12.8747Z" fill="#474747"/>
<path d="M40.2932 11.8522C40.2846 13.7319 40.1854 15.7725 40.7116 17.5999C40.7418 17.7086 40.772 17.5085 40.7677 17.478C40.5477 15.5941 40.4053 13.7493 40.3967 11.8522C40.3967 11.626 40.2932 11.6303 40.2932 11.8522Z" fill="#474747"/>
<path d="M41.0777 10.7515C41.1252 12.4179 40.7585 14.6543 41.5004 16.2033C41.5349 16.2729 41.5479 16.051 41.5436 16.0292C41.2804 14.2584 41.2589 12.5311 41.1726 10.7472C41.1597 10.5557 41.0734 10.5557 41.0777 10.7515Z" fill="#474747"/>
<path d="M41.699 10.2772C41.6904 11.4389 41.5524 12.7007 41.8802 13.8319C41.9147 13.9494 41.9406 13.7319 41.9363 13.7014C41.7983 12.5528 41.7939 11.4302 41.7939 10.2772C41.7939 10.0727 41.7034 10.077 41.699 10.2772Z" fill="#474747"/>
<path d="M42.1648 9.33739C42.1734 10.5296 42.3287 11.7217 42.4149 12.9095C42.4236 13.0227 42.4796 13.0183 42.4839 12.9095C42.5357 11.713 42.2898 10.5296 42.264 9.33739C42.2597 9.11984 42.1648 9.11984 42.1648 9.33739Z" fill="#474747"/>
<path d="M6.54456 40.782C5.15134 41.687 5.38426 44.1627 5.90618 45.5071C6.98453 48.2874 11.7595 47.3824 13.9809 47.452C15.5596 47.5042 18.7903 47.9219 19.3812 45.7812C19.6142 44.9415 19.929 43.3882 19.3165 42.6529L19.282 42.6398C17.8629 43.1532 18.4927 47.6478 19.9765 47.7653C21.6242 47.8958 23.2331 43.5492 21.7795 42.6659H21.7148C20.4768 43.7928 20.9729 47.6565 22.8622 47.6565C24.1821 47.6565 24.8593 43.7189 23.9578 42.8008H23.8931C22.8449 43.4535 23.1166 46.0771 23.7076 46.9647C25.5322 49.6927 26.5846 46.3381 27.1411 44.8153C27.1885 44.6891 27.1238 43.9712 27.016 44.1714C26.6838 44.7892 26.4509 45.4375 26.0109 45.9901C25.5623 46.5513 24.8636 46.2468 24.3848 45.977C22.1979 44.7413 24.773 43.5927 23.6127 45.2678C23.4402 45.5202 23.2288 45.6681 22.9527 45.7986C22.75 45.8378 22.5516 45.8769 22.3489 45.9161C21.6975 43.7537 21.456 43.3925 21.6285 44.8414C21.3827 45.4375 20.9901 45.9422 20.3561 46.1467C18.8032 46.6471 19.4201 42.183 19.3036 44.3715C19.1613 47.0213 15.2231 46.1859 13.5452 46.1772C10.06 46.1598 5.05213 46.5339 6.63083 41.1866C6.64809 41.1431 6.66103 40.708 6.54456 40.782Z" fill="#474747"/>
<path d="M27.2575 44.2714C27.2964 44.0104 27.2921 43.7754 27.2274 43.5187C27.154 43.2228 26.727 43.014 26.5329 42.7964C26.4811 42.7355 26.4164 42.8138 26.3992 42.8573C25.8945 44.1104 25.6918 46.5644 27.0893 47.3302C28.8794 48.3135 29.0649 45.568 29.2331 44.4367C29.2374 44.4063 29.2374 44.0974 29.1641 44.1496C28.9139 44.3367 28.9053 44.824 28.7586 45.0894C28.5257 45.5071 28.5041 45.742 27.9908 45.8378C27.4689 45.9335 26.7744 45.5071 26.5803 45.0154C26.5113 44.837 26.5458 44.6499 26.5545 44.4629C26.5631 44.3062 26.5933 44.1452 26.6149 43.993C26.6623 43.684 27.1497 43.6971 27.1152 44.006C27.1066 44.1278 27.2058 44.6064 27.2575 44.2714Z" fill="#474747"/>
<path d="M29.3366 43.9885C29.3452 43.8798 29.1037 42.2438 28.737 43.0574C28.2151 44.2192 28.5214 45.8638 29.0303 46.969C30.0311 49.1532 31.6098 46.7775 31.8599 45.6115C32.0325 44.7978 32.3474 43.2054 31.6486 42.5571L31.6054 42.5353C30.0569 43.3316 31.1784 47.2561 32.4983 47.8305C34.3099 48.6136 35.5867 43.4925 33.857 42.5092C33.7621 42.457 33.7276 42.5919 33.7104 42.6659C33.4041 44.2453 32.9124 46.3381 34.1158 47.6608C34.5299 48.1133 35.2373 47.726 35.7161 47.6564C36.7513 47.4998 37.7995 47.6303 38.8347 47.6695C40.284 47.7217 42.7038 48.3743 43.9073 47.465C44.041 47.3649 44.0367 46.4512 43.8512 46.4294C43.1524 46.3511 42.3803 46.5991 41.6384 46.6035C40.6938 46.6122 39.7491 46.5687 38.8088 46.5469C37.9677 46.5252 37.1525 46.473 36.32 46.3555C34.7456 46.1379 33.5465 46.808 33.8441 44.2017C34.2668 43.4621 34.3919 43.7405 34.215 45.0284C34.077 45.3983 33.8657 45.7159 33.5853 45.9769C32.6665 46.9646 31.5235 45.3765 31.4329 44.5846C31.3768 44.341 31.4545 44.1234 31.6658 43.945C31.6313 44.4106 31.5192 44.8544 31.3208 45.2808C31.118 45.7768 30.7514 46.0248 30.2165 46.0248C29.1597 45.8856 28.8319 45.172 29.2374 43.8841C29.2244 44.0364 29.3193 44.2583 29.3366 43.9885Z" fill="#474747"/>
</svg>
