    <svg
      xmlns="http://www.w3.org/2000/svg"
    >
      <symbol
        id="profile"
        viewBox="0 0 64 64"
      >
            <path d="M62.2554 27.3508L56.9442 22.2321V7.2962C56.9442 6.65387 56.689 6.03785 56.2348 5.58366C55.7806 5.12946 55.1646 4.8743 54.5223 4.8743H44.8347C44.1923 4.8743 43.5763 5.12946 43.1221 5.58366C42.6679 6.03785 42.4128 6.65387 42.4128 7.2962V8.1802L37.0325 2.92951L36.9598 2.86049C35.6303 1.66618 33.9072 1.00381 32.12 1.00002C30.3328 0.996219 28.6069 1.65126 27.2722 2.8399L27.2044 2.90166L1.74293 27.3471C0.178384 28.8512 1.25008 31.5152 3.4201 31.5152H7.05296V53.3124C7.05584 55.8808 8.07743 58.3432 9.89358 60.1594C11.7097 61.9755 14.1721 62.9971 16.7406 63H47.2566C49.825 62.9971 52.2874 61.9755 54.1036 60.1594C55.9197 58.3432 56.9413 55.8808 56.9442 53.3124V31.5152H60.577C61.0597 31.515 61.5314 31.3706 61.9314 31.1004C62.3314 30.8302 62.6416 30.4467 62.8221 29.999C63.0026 29.5513 63.0452 29.0599 62.9445 28.5878C62.8437 28.1158 62.6042 27.6846 62.2566 27.3496L62.2554 27.3508ZM9.43975 26.6714L30.5236 6.43279C30.9637 6.05239 31.5259 5.84305 32.1076 5.84305C32.6892 5.84305 33.2515 6.05239 33.6915 6.43279L43.1369 15.6578C43.4777 15.9919 43.9096 16.2178 44.3784 16.3072C44.8472 16.3967 45.3319 16.3456 45.7718 16.1605C46.2116 15.9754 46.587 15.6644 46.8507 15.2667C47.1144 14.869 47.2548 14.4022 47.2541 13.925V9.71811H52.098V23.2614C52.0979 23.5869 52.1636 23.9091 52.2909 24.2088C52.4182 24.5084 52.6047 24.7792 52.8391 25.0052L54.5707 26.6714H9.43975ZM47.2566 58.1562H16.7406C15.4559 58.1562 14.2239 57.6459 13.3155 56.7375C12.4071 55.8291 11.8968 54.597 11.8968 53.3124V31.5152H52.1004V53.3124C52.1004 54.597 51.59 55.8291 50.6817 56.7375C49.7733 57.6459 48.5412 58.1562 47.2566 58.1562Z" fill="var(--svg-menu-color)"/>
      </symbol>
      <symbol
        id="customization"
        viewBox="0 0 24 24"
      >
        <path d="M18.277 14.082C18.6124 14.082 18.9447 14.148 19.2546 14.2764C19.5643 14.4047 19.8457 14.593 20.0827 14.8301C20.3198 15.0673 20.5082 15.3493 20.6364 15.6592C20.7647 15.9691 20.8309 16.3013 20.8307 16.6367V17.2637C20.8307 18.2627 20.4731 19.2295 19.8239 19.9883C18.0864 22.0168 15.4497 23.0107 11.9997 23.0107C8.65662 23.0107 6.07885 22.0785 4.3454 20.1738L4.18036 19.9863C3.53265 19.2282 3.17709 18.2638 3.17645 17.2666V16.6357C3.17645 16.3003 3.24239 15.9681 3.37079 15.6582C3.49915 15.3484 3.68736 15.0672 3.9245 14.8301C4.16173 14.593 4.44367 14.4046 4.7536 14.2764C5.06329 14.1483 5.39503 14.0819 5.73016 14.082H18.277ZM5.72919 15.9189C5.63505 15.919 5.54174 15.9376 5.45477 15.9736C5.36785 16.0097 5.28887 16.0623 5.22235 16.1289C5.15575 16.1956 5.10306 16.2752 5.06708 16.3623C5.03117 16.4493 5.01226 16.5426 5.01239 16.6367V17.2666C5.0125 17.8261 5.2137 18.3681 5.57782 18.7939L5.83856 19.0801C7.18661 20.4643 9.21619 21.1738 11.9997 21.1738C14.9692 21.1738 17.0838 20.3665 18.4284 18.7949C18.7932 18.3683 18.993 17.825 18.9929 17.2637V16.6357C18.9929 16.4458 18.918 16.2633 18.7839 16.1289C18.6832 16.0281 18.5553 15.9603 18.4177 15.9326L18.277 15.9189H5.72919ZM11.9997 0.99707C12.7291 0.99707 13.4518 1.14078 14.1257 1.41992C14.7995 1.69906 15.4117 2.10827 15.9274 2.62402C16.4432 3.13979 16.8524 3.75191 17.1315 4.42578C17.4106 5.09953 17.5543 5.82152 17.5544 6.55078C17.5544 7.28021 17.4107 8.00285 17.1315 8.67676C16.8524 9.35065 16.4432 9.96274 15.9274 10.4785C15.4117 10.9943 14.7995 11.4035 14.1257 11.6826C13.4518 11.9618 12.7291 12.1055 11.9997 12.1055C10.5267 12.1054 9.11355 11.5201 8.07196 10.4785C7.03053 9.43688 6.44598 8.02375 6.44598 6.55078C6.4461 5.078 7.03067 3.66555 8.07196 2.62402C9.11355 1.58243 10.5267 0.997168 11.9997 0.99707ZM11.9997 2.83301C11.5115 2.83306 11.0278 2.9294 10.5768 3.11621C10.1259 3.30306 9.71596 3.57671 9.37079 3.92188C9.02563 4.26703 8.75198 4.67699 8.56512 5.12793C8.37832 5.5789 8.28198 6.06265 8.28192 6.55078C8.28192 7.03894 8.37836 7.52262 8.56512 7.97363C8.75198 8.42474 9.02552 8.8354 9.37079 9.18066C9.71596 9.52581 10.1259 9.79949 10.5768 9.98633C11.0278 10.1731 11.5115 10.2695 11.9997 10.2695C12.9858 10.2695 13.9323 9.87796 14.6296 9.18066C15.3268 8.48337 15.7184 7.53689 15.7184 6.55078C15.7183 5.56486 15.3267 4.61906 14.6296 3.92188C13.9323 3.22458 12.9858 2.83301 11.9997 2.83301Z" fill="var(--svg-menu-color)" stroke="var(--svg-menu-color)" stroke-width="0.2"/>
      </symbol>
      <symbol
        id="notifications"
        viewBox="0 0 64 64"
      >
        <path d="M31.75 1.36108C32.9385 1.36108 34.1005 1.71627 35.0859 2.38062C36.0712 3.04491 36.8355 3.9881 37.2812 5.0896L37.3184 5.1814L37.4141 5.20776C41.9312 6.45011 45.916 9.14085 48.7559 12.8669C51.5956 16.5931 53.1336 21.1488 53.1338 25.8337V40.3767L53.167 40.4265L58.8164 48.9001C59.106 49.3343 59.2725 49.8389 59.2979 50.3601C59.3232 50.8814 59.2062 51.3999 58.96 51.8601C58.7137 52.3203 58.3471 52.7052 57.8994 52.9734C57.4516 53.2416 56.939 53.3836 56.417 53.3835H42.2607L42.2363 53.5544C41.872 56.0756 40.6113 58.3811 38.6855 60.0486C36.7598 61.716 34.2973 62.6345 31.75 62.6345C29.2028 62.6344 26.7411 61.7159 24.8154 60.0486C22.8897 58.3811 21.629 56.0756 21.2646 53.5544L21.2402 53.3835H7.08398C6.56198 53.3836 6.04938 53.2416 5.60156 52.9734C5.15383 52.7052 4.78725 52.3203 4.54102 51.8601C4.2948 51.3999 4.1778 50.8815 4.20312 50.3601C4.22844 49.8389 4.39501 49.3343 4.68457 48.9001L10.334 40.4265L10.3672 40.3767V25.8337C10.3672 15.9854 17.0265 7.68824 26.0869 5.20776L26.1826 5.1814L26.2197 5.0896C26.6654 3.98809 27.4298 3.0449 28.415 2.38062C29.4004 1.71636 30.5617 1.36118 31.75 1.36108ZM27.3877 53.3835V53.5847L27.2021 53.6501C27.5344 54.5913 28.1501 55.4066 28.9648 55.9832C29.7797 56.5597 30.7537 56.8689 31.752 56.8689C32.7502 56.8689 33.7242 56.5597 34.5391 55.9832C35.3539 55.4066 35.9695 54.5914 36.3018 53.6501L36.3965 53.3835H27.3877ZM31.75 10.2166C27.6084 10.2167 23.6366 11.8622 20.708 14.7908C17.7793 17.7195 16.1338 21.6919 16.1338 25.8337V41.2498C16.1339 41.7481 16.0047 42.2369 15.7607 42.6687L15.6494 42.8503L12.6797 47.3054L12.4727 47.6169H51.0254L50.8174 47.3054L47.8486 42.8503C47.5338 42.3763 47.3663 41.8198 47.3672 41.2507V25.8337C47.3672 21.6919 45.7217 17.7195 42.793 14.7908C39.8643 11.8621 35.8918 10.2166 31.75 10.2166Z" fill="var(--svg-menu-color)" stroke="white" stroke-width="0.4"/>
      </symbol>
            <symbol
        id="mypolicies"
        viewBox="0 0 24 24"
      >
        <path fill-rule="evenodd" clip-rule="evenodd" d="M10.0775 21.8086H5.13281C4.13125 21.8086 3.31641 20.9938 3.31641 19.9922V4.00781C3.31641 3.00625 4.13125 2.19141 5.13281 2.19141H16.2987C17.3002 2.19141 18.1151 3.00625 18.1151 4.00781V9.09375C18.1151 9.59535 18.5217 10.002 19.0233 10.002C19.5249 10.002 19.9315 9.59535 19.9315 9.09375V4.00781C19.9315 2.00468 18.3018 0.375 16.2987 0.375H5.13281C3.12968 0.375 1.5 2.00468 1.5 4.00781V19.9922C1.5 21.9953 3.12968 23.625 5.13281 23.625H10.0774C10.579 23.625 10.9856 23.2184 10.9856 22.7168C10.9856 22.2152 10.579 21.8086 10.0775 21.8086ZM10.8948 9.45703C11.3964 9.45703 11.803 9.86363 11.803 10.3652C11.803 10.8668 11.3964 11.2734 10.8948 11.2734H6.03596C5.53436 11.2734 5.12775 10.8668 5.12775 10.3652C5.12775 9.86363 5.53436 9.45703 6.03596 9.45703H10.8948ZM5.12775 13.998C5.12775 13.4964 5.53436 13.0898 6.03596 13.0898H7.98859C8.49019 13.0898 8.8968 13.4964 8.8968 13.998C8.8968 14.4996 8.49019 14.9062 7.98859 14.9062H6.03596C5.53436 14.9062 5.12775 14.4996 5.12775 13.998ZM15.3904 5.82422C15.892 5.82422 16.2987 6.23082 16.2987 6.73242C16.2987 7.23402 15.892 7.64062 15.3904 7.64062H6.03596C5.53436 7.64062 5.12775 7.23402 5.12775 6.73242C5.12775 6.23082 5.53436 5.82422 6.03596 5.82422H15.3904Z" fill="var(--svg-menu-color)"/>
        <path d="M21.7097 13.5262L17.2519 11.5344C17.1043 11.4683 16.9484 11.445 16.7982 11.459C16.648 11.445 16.4921 11.4684 16.3444 11.5344L11.8867 13.5262C11.5596 13.6724 11.349 13.9971 11.349 14.3554V17.8139C11.349 19.2344 11.9101 20.6842 12.8886 21.7916C13.9334 22.9741 15.3 23.6253 16.7369 23.6253H16.8594C18.2963 23.6253 19.6629 22.9741 20.7077 21.7916C21.6862 20.6842 22.2474 19.2343 22.2474 17.8139V14.3554C22.2474 13.9972 22.0368 13.6724 21.7097 13.5262ZM20.4309 14.9443V17.8139C20.4309 19.6997 18.9035 21.8089 16.8594 21.8089H16.7368C14.6927 21.8089 13.1653 19.6997 13.1653 17.8139V14.9443L16.7981 13.3211L20.431 14.9443H20.4309Z" fill="var(--svg-menu-color)"/>
      </symbol>
            <symbol
        id="paypolicies"
        viewBox="0 0 24 24"
      >
            <path d="M11.8652 22.7168C11.8652 23.2184 11.4587 23.625 10.957 23.625H5.13281C3.12962 23.625 1.5 21.9954 1.5 19.9922V4.00781C1.5 2.00462 3.12962 0.375 5.13281 0.375H17.7568C19.76 0.375 21.3896 2.00462 21.3896 4.00781V10.0474C21.3896 10.549 20.9831 10.9556 20.4814 10.9556C19.9798 10.9556 19.5732 10.549 19.5732 10.0474V4.00781C19.5732 3.00631 18.7583 2.19141 17.7568 2.19141H5.13281C4.13131 2.19141 3.31641 3.00631 3.31641 4.00781V19.9922C3.31641 20.9937 4.13131 21.8086 5.13281 21.8086H10.957C11.4587 21.8086 11.8652 22.2152 11.8652 22.7168ZM6.99835 12.1816C6.99835 11.68 6.54265 11.2734 6.04101 11.2734C5.53937 11.2734 5.13281 11.68 5.13281 12.1816C5.13281 12.6833 5.53937 13.0898 6.04101 13.0898C6.54265 13.0898 6.99835 12.6833 6.99835 12.1816ZM10.582 12.1816C10.582 11.68 10.1755 11.2734 9.67383 11.2734C9.17219 11.2734 8.76562 11.68 8.76562 12.1816C8.76562 12.6833 9.17219 13.0898 9.67383 13.0898C10.1755 13.0898 10.582 12.6833 10.582 12.1816ZM6.99463 15.6328C6.99463 15.1312 6.54265 14.7246 6.04101 14.7246C5.53937 14.7246 5.13281 15.1312 5.13281 15.6328C5.13281 16.1345 5.53937 16.541 6.04101 16.541C6.54265 16.541 6.99463 16.1345 6.99463 15.6328ZM10.582 15.6328C10.582 15.1312 10.1755 14.7246 9.67383 14.7246C9.17219 14.7246 8.76562 15.1312 8.76562 15.6328C8.76562 16.1345 9.17219 16.541 9.67383 16.541C10.1755 16.541 10.582 16.1345 10.582 15.6328ZM6.04101 18.1758C5.53937 18.1758 5.13281 18.5823 5.13281 19.084C5.13281 19.5856 5.53937 19.9922 6.04101 19.9922C6.54265 19.9922 6.94922 19.5856 6.94922 19.084C6.94922 18.5823 6.54265 18.1758 6.04101 18.1758ZM9.62842 18.1758C9.12678 18.1758 8.72021 18.5823 8.72021 19.084C8.72021 19.5856 9.12678 19.9922 9.62842 19.9922C10.1301 19.9922 10.5366 19.5856 10.5366 19.084C10.5366 18.5823 10.1301 18.1758 9.62842 18.1758ZM16.8486 9.45703H6.04101C5.53937 9.45703 5.13281 9.05047 5.13281 8.54883V4.91602C5.13281 4.41438 5.53937 4.00781 6.04101 4.00781H16.8486C17.3503 4.00781 17.7568 4.41438 17.7568 4.91602V8.54883C17.7568 9.05047 17.3503 9.45703 16.8486 9.45703ZM15.9404 5.82422H6.94922V7.64062H15.9404V5.82422Z" fill="var(--svg-menu-color)"/>
            <path d="M22.4597 13.5262L18.0019 11.5344C17.8543 11.4683 17.6984 11.445 17.5482 11.459C17.398 11.445 17.2421 11.4684 17.0944 11.5344L12.6367 13.5262C12.3096 13.6724 12.099 13.9971 12.099 14.3554V17.8139C12.099 19.2344 12.6601 20.6842 13.6386 21.7916C14.6834 22.9741 16.05 23.6253 17.4869 23.6253H17.6094C19.0463 23.6253 20.4129 22.9741 21.4577 21.7916C22.4362 20.6842 22.9974 19.2343 22.9974 17.8139V14.3554C22.9974 13.9972 22.7868 13.6724 22.4597 13.5262ZM21.1809 14.9443V17.8139C21.1809 19.6997 19.6535 21.8089 17.6094 21.8089H17.4868C15.4427 21.8089 13.9153 19.6997 13.9153 17.8139V14.9443L17.5481 13.3211L21.181 14.9443H21.1809Z" fill="var(--svg-menu-color)"/>


      </symbol>
            <symbol
        id="buypolicies"
        viewBox="0 0 24 24">
               <path d="M22.0589 11.7647C21.2491 11.3597 20.1926 11.1367 19.084 11.1367C17.9753 11.1367 16.9188 11.3597 16.1091 11.7647C15.0991 12.2695 14.543 13.0141 14.543 13.8613C14.543 13.8883 14.5435 13.9151 14.5446 13.9419C14.5435 13.9603 14.543 13.9788 14.543 13.9976V15.1197C13.7664 14.7759 12.8115 14.5879 11.8184 14.5879C10.7097 14.5879 9.65322 14.8109 8.84346 15.2158C7.83344 15.7207 7.27734 16.4653 7.27734 17.3125C7.27734 17.3233 7.27788 17.334 7.27805 17.3448C7.27788 17.3492 7.27734 17.3535 7.27734 17.3579V20.8999C7.27734 21.7471 7.83344 22.4917 8.84346 22.9966C9.65322 23.4015 10.7097 23.6245 11.8184 23.6245C12.927 23.6245 13.9835 23.4015 14.7933 22.9966C15.0404 22.8731 15.26 22.7351 15.4512 22.585C15.6424 22.7351 15.862 22.8731 16.1091 22.9966C16.9188 23.4015 17.9753 23.6245 19.084 23.6245C20.1926 23.6245 21.2491 23.4015 22.0589 22.9966C23.0689 22.4917 23.625 21.7471 23.625 20.8999V13.8613C23.625 13.0141 23.0689 12.2695 22.0589 11.7647ZM13.981 21.3719C13.4267 21.6492 12.6384 21.8081 11.8184 21.8081C10.9983 21.8081 10.21 21.6492 9.6557 21.3719C9.19149 21.1399 9.09375 20.9313 9.09375 20.8999V19.5245C9.86537 19.8558 10.8204 20.0371 11.8184 20.0371C11.8522 20.0371 11.8861 20.0369 11.9198 20.0366C12.4215 20.0305 12.8232 19.6194 12.8174 19.1177C12.8115 18.6163 12.3991 18.2148 11.8985 18.2202C11.8719 18.2205 11.8451 18.2207 11.8184 18.2207C10.9983 18.2207 10.2102 18.0618 9.65588 17.7845C9.19149 17.5525 9.09375 17.3439 9.09375 17.3125C9.09375 17.2811 9.19149 17.0725 9.6557 16.8405C10.21 16.5632 10.9983 16.4043 11.8184 16.4043C12.6288 16.4043 13.413 16.5694 13.9698 16.8575C14.4071 17.0837 14.543 17.3035 14.543 17.3579V20.8999C14.543 20.9313 14.4452 21.1399 13.981 21.3719ZM21.8086 20.8999C21.8086 20.9313 21.7109 21.1399 21.2466 21.3719C20.6923 21.6492 19.904 21.8081 19.084 21.8081C18.2639 21.8081 17.4756 21.6492 16.9213 21.3719C16.4571 21.1399 16.3594 20.9313 16.3594 20.8999V19.5245C17.131 19.8558 18.086 20.0371 19.084 20.0371C19.1182 20.0371 19.1523 20.0369 19.1862 20.0364C19.6876 20.0302 20.0892 19.6185 20.083 19.117C20.0766 18.6154 19.6669 18.2134 19.1635 18.2202C19.137 18.2205 19.1106 18.2207 19.084 18.2207C18.2639 18.2207 17.4756 18.0618 16.9213 17.7845C16.4571 17.5525 16.3594 17.3439 16.3594 17.3125V16.0742C17.1308 16.4054 18.0864 16.5859 19.084 16.5859C19.1182 16.5859 19.1523 16.5858 19.1862 16.5852C19.6876 16.579 20.0892 16.1673 20.083 15.6658C20.0768 15.1681 19.6713 14.769 19.1752 14.769C19.1713 14.769 19.1674 14.769 19.1635 14.769C19.137 14.7694 19.1106 14.7695 19.084 14.7695C18.2639 14.7695 17.4758 14.6106 16.9215 14.3333C16.4571 14.1013 16.3594 13.8927 16.3594 13.8613C16.3594 13.8299 16.4571 13.6213 16.9213 13.3893C17.4756 13.1121 18.2639 12.9531 19.084 12.9531C19.904 12.9531 20.6923 13.1121 21.2466 13.3893C21.7109 13.6213 21.8086 13.8299 21.8086 13.8613V20.8999Z" fill="var(--svg-menu-color)"/>
                <path d="M23.625 4.00781V9.09375C23.625 9.59539 23.2184 10.002 22.7168 10.002C22.2152 10.002 21.8086 9.59539 21.8086 9.09375V4.00781C21.8086 3.00631 20.9937 2.19141 19.9922 2.19141H4.00781C3.00631 2.19141 2.19141 3.00631 2.19141 4.00781V13.3623C2.19141 14.3638 3.00631 15.1787 4.00781 15.1787H4.68896C5.19061 15.1787 5.59717 15.5853 5.59717 16.0869C5.59717 16.5886 5.19061 16.9951 4.68896 16.9951H4.00781C2.00462 16.9951 0.375 15.3655 0.375 13.3623V4.00781C0.375 2.00462 2.00462 0.375 4.00781 0.375H19.9922C21.9954 0.375 23.625 2.00462 23.625 4.00781ZM14.5414 8.78422C14.5424 8.74945 14.543 8.7145 14.543 8.67956C14.543 7.10209 13.4022 5.81872 12 5.81872C10.5978 5.81872 9.45703 7.10209 9.45703 8.67956C9.45703 9.74794 9.98173 10.7204 10.8263 11.2172C11.2585 11.4716 11.4028 12.0282 11.1486 12.4605C10.9793 12.7482 10.6762 12.9084 10.3649 12.9084C10.2084 12.9084 10.0498 12.8679 9.90528 12.7828C8.50838 11.9612 7.64062 10.3888 7.64062 8.67956C7.64062 6.10058 9.59628 4.00231 12 4.00231C14.4037 4.00231 16.3594 6.10058 16.3594 8.67956C16.3594 8.73402 16.3585 8.7883 16.3567 8.84222C16.3519 8.99353 16.3402 9.1459 16.3219 9.29508C16.2607 9.793 15.8077 10.1471 15.31 10.086C14.8121 10.0248 14.458 9.5718 14.519 9.07388C14.5307 8.97881 14.5382 8.88124 14.5414 8.78422ZM4.77979 7.50439C5.28143 7.50439 5.68799 7.91096 5.68799 8.4126C5.68799 8.91424 5.28143 9.3208 4.77979 9.3208C4.27814 9.3208 3.87158 8.91424 3.87158 8.4126C3.87158 7.91096 4.27814 7.50439 4.77979 7.50439ZM19.311 9.3208C18.8094 9.3208 18.4028 8.91424 18.4028 8.4126C18.4028 7.91096 18.8094 7.50439 19.311 7.50439C19.8127 7.50439 20.2192 7.91096 20.2192 8.4126C20.2192 8.91424 19.8127 9.3208 19.311 9.3208Z" fill="var(--svg-menu-color)"/>

      </symbol>
      <symbol
        id="osop"
        viewBox="0 0 64 64"
      >
        <path d="M24.375 58.1562H16.6875C14.0168 58.1562 11.8437 55.9832 11.8437 53.3125V21.4648H18.9883C23.6622 21.4648 27.4648 17.6622 27.4648 12.9883C27.4648 11.6506 26.3807 10.5664 25.043 10.5664C23.7053 10.5664 22.6211 11.6506 22.6211 12.9883C22.6211 14.9915 20.9915 16.6211 18.9883 16.6211H12.2591C12.4833 16.1301 12.7941 15.6769 13.1852 15.2824L21.1826 7.2141C22.0454 6.34326 23.2441 5.84375 24.4701 5.84375H46.4628C49.134 5.84375 51.3066 8.01682 51.3066 10.6875V23.5234C51.3066 24.8611 52.3912 25.9453 53.7285 25.9453C55.0662 25.9453 56.1503 24.8611 56.1503 23.5234V10.6875C56.1503 5.34566 51.8047 1 46.4628 1H24.4701C21.9608 1 19.5086 2.0222 17.7423 3.80408L9.74495 11.8724C7.9749 13.6586 7 16.0265 7 18.5411V53.3125C7 58.6543 11.3457 63 16.6875 63H24.375C25.7127 63 26.7969 61.9158 26.7969 60.5781C26.7969 59.2404 25.7127 58.1562 24.375 58.1562Z" fill="var(--svg-menu-color)"/>
        <path fill-rule="evenodd" clip-rule="evenodd" d="M56.5 34.5783V44.8097C56.4999 48.8855 54.8999 53.0556 52.1035 56.2433C49.1198 59.6439 45.2395 61.4971 41.1807 61.4972H40.8193C36.8846 61.4971 33.1226 59.7583 30.1787 56.5607L29.8965 56.2462C27.1015 53.0584 25.5001 48.8868 25.5 44.8126V34.5812C25.4998 34.1584 25.6215 33.745 25.8496 33.3908C26.0777 33.0365 26.4034 32.7566 26.7852 32.5851L39.874 26.6925L40.0859 26.6105C40.3016 26.5395 40.5272 26.5023 40.7549 26.5021H41.0361L41.0708 26.4975L41.0827 26.4976L41.1045 26.4982L41.135 26.4991L41.1621 26.5001L41.1904 26.5012L41.2193 26.5019L41.2461 26.5021C41.5507 26.5023 41.8576 26.568 42.1338 26.6925L55.2168 32.5822C55.5983 32.7539 55.9225 33.0337 56.1504 33.3878C56.3783 33.7421 56.5001 34.1555 56.5 34.5783ZM48.4424 52.9767C50.4531 50.6877 51.6122 47.7122 51.6123 44.8097V36.3624L41.2061 31.6779L41.001 31.5851L40.7959 31.6779L30.3877 36.3624V44.8097C30.3878 47.7125 31.5486 50.6865 33.5576 52.9767C35.569 55.2694 38.1482 56.5664 40.8193 56.5665H41.1807C43.8566 56.5664 46.43 55.2674 48.4424 52.9767Z" fill="var(--svg-menu-color)"/>
      </symbol>
      <symbol
        id="insuredevents"
        viewBox="0 0 24 24"
      >

<path d="M23.3322 13.6343C23.1619 13.1624 22.6413 12.9182 22.1696 13.0883C21.6978 13.2587 21.4533 13.7792 21.6236 14.251C21.7464 14.5911 21.8086 14.949 21.8086 15.315V18.6299H18.9607L16.0479 15.7171C15.8776 15.5468 15.6467 15.4512 15.4058 15.4512H8.59426C8.35337 15.4512 8.12242 15.5468 7.95213 15.7171L5.03931 18.6299H2.19141V15.315C2.19141 13.5873 3.597 12.1817 5.32472 12.1817H11.8741C12.3757 12.1817 12.7823 11.7751 12.7823 11.2735C12.7823 10.7718 12.3757 10.3653 11.8741 10.3653H5.32472C5.03434 10.3653 4.75 10.3906 4.4731 10.4389L5.89856 7.61278C6.45998 6.50946 7.57785 5.82422 8.81581 5.82422H10.742C11.2436 5.82422 11.6502 5.41766 11.6502 4.91602C11.6502 4.41438 11.2436 4.00781 10.742 4.00781H8.81581C6.89084 4.00781 5.15266 5.07353 4.27815 6.79203L1.6974 11.9088C1.68392 11.9355 1.67221 11.9622 1.66174 11.9894C0.862628 12.8687 0.375 14.036 0.375 15.315V22.7168C0.375 23.2185 0.781564 23.625 1.28321 23.625H4.91603C5.41767 23.625 5.82423 23.2185 5.82423 22.7168V20.4463H18.1758V22.7168C18.1758 23.2185 18.5824 23.625 19.084 23.625H22.7169C23.2185 23.625 23.6251 23.2185 23.6251 22.7168V15.315C23.6251 14.7381 23.5264 14.1726 23.3322 13.6343ZM8.97049 17.2676H15.0296L16.3919 18.6299H7.60818L8.97049 17.2676ZM4.00782 21.8086H2.19141V20.4463H4.00782V21.8086ZM21.8086 21.8086H19.9922V20.4463H21.8086V21.8086ZM19.084 14.543C19.5857 14.543 19.9922 14.9496 19.9922 15.4512C19.9922 15.9528 19.5857 16.3594 19.084 16.3594C18.5824 16.3594 18.1758 15.9528 18.1758 15.4512C18.1758 14.9496 18.5824 14.543 19.084 14.543ZM4.91603 14.543C5.41767 14.543 5.82423 14.9496 5.82423 15.4512C5.82423 15.9528 5.41767 16.3594 4.91603 16.3594C4.41439 16.3594 4.00782 15.9528 4.00782 15.4512C4.00782 14.9496 4.41439 14.543 4.91603 14.543Z" fill="var(--svg-menu-color)"/>
<path d="M23.2097 2.65123L18.7519 0.659355C18.6043 0.593329 18.4484 0.569988 18.2982 0.583974C18.148 0.570033 17.9921 0.59342 17.8444 0.659355L13.3867 2.65123C13.0596 2.7974 12.849 3.12213 12.849 3.48042V6.9389C12.849 8.35937 13.4101 9.80918 14.3886 10.9166C15.4334 12.0991 16.8 12.7503 18.2369 12.7503H18.3594C19.7963 12.7503 21.1629 12.0991 22.2077 10.9166C23.1862 9.80918 23.7474 8.35933 23.7474 6.9389V3.48042C23.7474 3.12218 23.5368 2.7974 23.2097 2.65123ZM21.9309 4.06934V6.9389C21.9309 8.82474 20.4035 10.9339 18.3594 10.9339H18.2368C16.1927 10.9339 14.6653 8.82469 14.6653 6.9389V4.06934L18.2981 2.44611L21.931 4.06934H21.9309Z" fill="var(--svg-menu-color)"/>

      </symbol>
            <symbol
        id="dms3"
        viewBox="0 0 24 24"
      >
<path d="M18.6533 10.6915C17.0992 10.6915 15.6888 11.8274 15.2998 13.3923C15.2931 13.419 14.9727 15.4514 14.9727 15.4514C14.959 15.4909 14.93 15.5329 14.8386 15.529C14.7305 15.5248 14.7143 15.4639 14.7065 15.4192L13.9589 10.3248C13.958 10.3188 13.9571 10.3128 13.9561 10.3068C13.7964 9.34841 13.0072 8.69717 12.0353 8.72239C11.0803 8.74747 10.3349 9.41685 10.2063 10.3569C10.2063 10.3569 9.49504 13.8059 9.49307 13.8177C9.48557 13.8627 9.47423 13.9673 9.35962 13.9718C9.24524 13.9772 9.22832 13.8729 9.2173 13.8285C9.21004 13.7993 9.05066 13.3445 9.05066 13.3445C8.65372 11.853 7.11822 10.6915 5.53126 10.6915C5.01347 10.6915 4.59375 11.1112 4.59375 11.629C4.59375 12.1468 5.01347 12.5665 5.53126 12.5665C6.27404 12.5665 7.07411 13.1638 7.24333 13.8447C7.2506 13.874 7.41077 14.331 7.41077 14.331C7.65349 15.2143 8.46195 15.8001 9.37504 15.8C10.3335 15.7624 11.1725 15.0888 11.3391 14.1463C11.3391 14.1463 12.0651 10.6034 12.066 10.599C12.0771 10.5965 12.0918 10.5961 12.103 10.598C12.1038 10.6012 12.8546 15.7138 12.8556 15.7198C13.0145 16.6727 13.8282 17.3937 14.8126 17.3937C15.7501 17.3937 16.5742 16.7853 16.8006 15.8746C16.8072 15.848 17.1286 13.8092 17.1286 13.8092C17.322 13.0983 17.9713 12.5665 18.6533 12.5665C19.8968 12.5172 19.8965 10.7407 18.6533 10.6915Z" fill="var(--svg-menu-color)"/>
<path d="M12.0006 23.0122C10.6699 23.0123 9.33945 22.5815 8.22817 21.7197C8.22696 21.7187 8.22569 21.7178 8.22442 21.7168C5.7989 19.8319 3.87458 17.8037 2.50479 15.6887C0.842772 13.1223 0 10.4285 0 7.68224C0 3.9902 2.90191 0.98647 6.4688 0.98647C8.60275 0.972032 10.7411 2.0609 11.9812 3.81085C15.7377 -1.34942 23.9349 0.973251 24 7.70048C23.8754 14.0995 19.4589 18.8546 15.7758 21.7168C14.6645 22.5804 13.3325 23.0121 12.0006 23.0122ZM9.37306 20.2348L9.37339 20.235C10.9199 21.437 13.0794 21.4375 14.6253 20.2363C17.9841 17.626 22.0107 13.3281 22.1252 7.67334C22.1206 5.01916 20.0616 2.86149 17.5314 2.86149C14.9022 2.86149 12.9376 4.84131 12.9376 6.61151C12.9376 7.1293 12.5179 7.54902 12.0001 7.54902C11.4823 7.54902 11.0626 7.1293 11.0626 6.61151C11.0346 4.56231 8.5076 2.77561 6.4688 2.86153C3.9358 2.86148 1.87501 5.02408 1.87501 7.68224C1.87501 13.2401 5.952 17.5758 9.37306 20.2348Z" fill="var(--svg-menu-color)"/>


      </symbol>
            <symbol
        id="payfr"
        viewBox="0 0 24 24"
      >
        <path fill-rule="evenodd" clip-rule="evenodd" d="M21.2202 14.2365C21.791 14.4581 22.5 14.0772 22.5 13.4649L22.5 4.21875C22.5 1.8888 20.6112 0 18.2813 0L4.21875 0C1.8888 0 0 1.8888 0 4.21875L0 18.2812C0 20.6112 1.8888 22.5 4.21875 22.5L12.7768 22.5C13.3636 22.5 13.747 21.8617 13.5783 21.2997C13.4721 20.9458 13.1591 20.6719 12.7896 20.6719L4.21875 20.6719C2.89845 20.6719 1.82813 19.6016 1.82813 18.2812L1.82813 4.21875C1.82813 2.89844 2.89845 1.82812 4.21875 1.82812L18.2813 1.82812C19.6016 1.82812 20.6719 2.89844 20.6719 4.21875L20.6719 13.4827C20.6719 13.8207 20.9051 14.1142 21.2202 14.2365ZM11.2868 11.25C11.2868 10.7452 10.8775 10.336 10.3727 10.336L6.56996 10.336C6.06514 10.336 5.6559 10.7452 5.6559 11.25C5.6559 11.7549 6.06514 12.1641 6.56996 12.1641L10.3727 12.1641C10.8775 12.1641 11.2868 11.7548 11.2868 11.25ZM16.8846 6.3142C16.8846 5.80937 16.4753 5.40014 15.9705 5.40014L6.57039 5.40013C6.06556 5.40014 5.65632 5.80937 5.65632 6.31419C5.65632 6.81902 6.06556 7.22825 6.57039 7.22825L15.9705 7.22826C16.4753 7.22826 16.8846 6.81902 16.8846 6.3142Z" fill="var(--svg-menu-color)"/>
      </symbol>
            <symbol
        id="inspections"
        viewBox="0 0 64 64"
      >

<path d="M24.375 58.1562H14.6875C12.0168 58.1562 9.84375 55.9832 9.84375 53.3125V21.4648H16.9883C21.6622 21.4648 25.4648 17.6622 25.4648 12.9883C25.4648 11.6506 24.3807 10.5664 23.043 10.5664C21.7053 10.5664 20.6211 11.6506 20.6211 12.9883C20.6211 14.9915 18.9915 16.6211 16.9883 16.6211H10.2591C10.4833 16.1301 10.7941 15.6769 11.1852 15.2824L19.1826 7.2141C20.0454 6.34326 21.2441 5.84375 22.4701 5.84375H44.4628C47.134 5.84375 49.3066 8.01682 49.3066 10.6875V27C49.3066 28.3377 50.3912 29.4219 51.7285 29.4219C53.0662 29.4219 54.1503 28.3377 54.1503 27V10.6875C54.1503 5.34566 49.8047 1 44.4628 1H22.4701C19.9608 1 17.5086 2.0222 15.7423 3.80408L7.74495 11.8724C5.9749 13.6586 5 16.0265 5 18.5411V53.3125C5 58.6543 9.34566 63 14.6875 63H24.375C25.7127 63 26.7969 61.9158 26.7969 60.5781C26.7969 59.2404 25.7127 58.1562 24.375 58.1562Z" fill="var(--svg-menu-color)"/>
<path fill-rule="evenodd" clip-rule="evenodd" d="M39.2442 35V38.0425C38.0103 38.1972 36.8704 38.4898 35.8213 38.8812C35.7824 38.7962 35.7384 38.7126 35.6892 38.631L35.5467 38.4191L33.907 36.2326L33.743 36.0363C32.8842 35.1045 31.4426 34.9559 30.407 35.7326C29.3713 36.5093 29.1101 37.9353 29.7644 39.0206L29.907 39.2326L31.491 41.3449C30.8776 41.8306 30.3193 42.3398 29.8144 42.8526L27.728 41.6006L27.5025 41.4795C26.3556 40.9408 24.9643 41.3481 24.2983 42.4581C23.6324 43.5679 23.928 44.9867 24.9429 45.7452L25.1558 45.8877L26.7546 46.8472C26.6867 46.9618 26.6223 47.073 26.5613 47.1803C26.2736 47.6868 26.059 48.1133 25.9138 48.4206C25.8412 48.5742 25.7859 48.6988 25.7468 48.7887C25.7324 48.8221 25.7204 48.8511 25.7105 48.875L25.7009 48.8981C25.698 48.9052 25.6951 48.9115 25.6925 48.9173C25.6901 48.9224 25.688 48.9271 25.6863 48.9313L25.6823 48.9421C25.4664 49.4809 25.4954 50.1039 25.7615 50.6198L25.7673 50.6305L25.7728 50.6411L25.783 50.6608C25.796 50.6851 25.8137 50.7176 25.8357 50.7575C25.8797 50.8372 25.9419 50.9471 26.0222 51.0827C26.1828 51.3537 26.4168 51.7294 26.7263 52.1754C27.3435 53.0648 28.2709 54.2495 29.5213 55.4459C32.0198 57.8367 35.8984 60.3507 41.2 60.4938C46.5493 60.638 50.6997 58.1045 53.4236 55.6842C54.7938 54.4667 55.8427 53.2454 56.5505 52.3268C56.9055 51.8661 57.1777 51.4773 57.365 51.1979C57.4587 51.0581 57.5316 50.9451 57.5828 50.8639C57.6083 50.8234 57.6284 50.7906 57.6433 50.7663L57.6619 50.736L57.6707 50.7204C58.0197 50.1343 58.0436 49.4014 57.7381 48.7917L57.7322 48.7809L57.7156 48.7487C57.7067 48.7316 57.6957 48.7106 57.6826 48.6859L57.6599 48.6432C57.613 48.5554 57.5463 48.4331 57.4597 48.2819C57.2864 47.9792 57.0325 47.5569 56.698 47.0563C56.6496 46.9838 56.5994 46.9096 56.5475 46.8338L58.0005 45.7442C59.1047 44.9158 59.3287 43.3486 58.5005 42.2442C57.6721 41.1397 56.105 40.916 55.0005 41.7442L53.3053 43.0154C52.7981 42.5331 52.2424 42.0506 51.6385 41.5852L53.1786 39.0187C53.8889 37.8348 53.505 36.2994 52.3212 35.589C51.1372 34.8786 49.6019 35.2625 48.8915 36.4464L47.3078 39.0856C46.3544 38.7033 45.3332 38.396 44.2442 38.1928V35C44.2442 33.6193 43.1249 32.5 41.7442 32.5C40.3635 32.5 39.2442 33.6193 39.2442 35ZM34.4672 44.107C34.2243 44.8532 34.0931 45.6498 34.0931 46.4769L34.1028 46.8705C34.3012 50.7828 37.4385 53.9194 41.3509 54.1176L41.7444 54.1283C45.8379 54.1282 49.1801 50.9131 49.3851 46.8705L49.3958 46.4769C49.3958 45.8853 49.3286 45.3093 49.2015 44.7561C49.806 45.2227 50.3607 45.7192 50.866 46.2233C51.9762 47.331 52.8137 48.4437 53.3718 49.279C53.4266 49.361 53.4772 49.4411 53.5256 49.5177L53.5584 49.5696L53.5847 49.611C53.5623 49.6412 53.5396 49.6723 53.5165 49.704C53.4736 49.7628 53.4291 49.8237 53.3816 49.8854C52.788 50.6558 51.907 51.6805 50.7664 52.694C48.468 54.7361 45.2685 56.6025 41.3084 56.4958C37.3007 56.3877 34.3196 54.5023 32.2859 52.5563C31.2702 51.5844 30.513 50.6164 30.0125 49.8952L29.8054 49.5856C29.8749 49.4541 29.9523 49.3099 30.0398 49.1559C30.5076 48.3323 31.2223 47.2363 32.2048 46.1471C32.8509 45.4309 33.602 44.7279 34.4672 44.107ZM41.7444 42.8256C43.7608 42.8257 45.3958 44.4605 45.3958 46.4769C45.3957 48.4933 43.7608 50.1282 41.7444 50.1283C39.728 50.1283 38.0932 48.4933 38.0931 46.4769C38.0931 44.4605 39.728 42.8256 41.7444 42.8256Z" fill="var(--svg-menu-color)"/>


      </symbol>
            <symbol
        id="mynotes"
        viewBox="0 0 24 24"
      >

<path d="M18.5146 3C19.3513 3.00005 20.1535 3.32834 20.7451 3.91211C21.3367 4.49594 21.6689 5.28767 21.6689 6.11328V8.4375C21.6687 8.74238 21.3395 8.94021 21.0537 8.82422C20.7377 8.69593 20.4104 8.58851 20.0742 8.50391C19.8854 8.45625 19.7482 8.2919 19.748 8.09961V6.11328L19.7422 5.99316C19.7142 5.71454 19.589 5.45269 19.3867 5.25293C19.1554 5.02468 18.8417 4.89653 18.5146 4.89648H8.50391V6.11328C8.50385 6.63679 8.07349 7.06152 7.54297 7.06152C7.01266 7.06129 6.58307 6.63664 6.58301 6.11328V4.89648H3.15527C2.82816 4.89652 2.51353 5.02467 2.28223 5.25293C2.05122 5.48116 1.92188 5.79068 1.92188 6.11328V8.56152C2.39632 8.71131 2.83262 8.97116 3.19141 9.3252C3.78297 9.909 4.1152 10.7008 4.11523 11.5264C4.1152 12.3519 3.78289 13.1437 3.19141 13.7275C2.83266 14.0815 2.39625 14.3414 1.92188 14.4912V16.9395C1.92195 17.2622 2.05101 17.5726 2.28223 17.8008C2.51353 18.029 2.82819 18.1572 3.15527 18.1572H6.58301V16.9395C6.58314 16.4162 7.0127 15.9924 7.54297 15.9922C8.07344 15.9922 8.50377 16.416 8.50391 16.9395V18.1572H11.0215C11.1928 18.1572 11.3456 18.2621 11.4121 18.418C11.5531 18.7487 11.7175 19.0673 11.9043 19.3711C12.0816 19.6594 11.8828 20.0526 11.541 20.0527H3.15527C2.31863 20.0527 1.51544 19.7244 0.923828 19.1406C0.332499 18.5569 7.07839e-05 17.7649 0 16.9395V13.6924C4.63825e-08 13.1688 0.430384 12.7441 0.960938 12.7441C1.28801 12.7441 1.60171 12.6149 1.83301 12.3867C2.06415 12.1585 2.1943 11.849 2.19434 11.5264C2.1943 11.2037 2.06416 10.8942 1.83301 10.666C1.60171 10.4378 1.28801 10.3096 0.960938 10.3096C0.430461 10.3096 0.000124527 9.88478 0 9.36133V6.11328C9.46495e-06 5.28776 0.332397 4.49592 0.923828 3.91211C1.51545 3.32829 2.3186 3.00004 3.15527 3H18.5146ZM7.54297 9.49609C8.07352 9.49609 8.50391 9.92078 8.50391 10.4443V12.6094C8.50371 13.1328 8.0734 13.5566 7.54297 13.5566C7.01274 13.5564 6.58321 13.1326 6.58301 12.6094V10.4443C6.58301 9.92093 7.01262 9.49633 7.54297 9.49609Z" fill="var(--svg-menu-color)"/>
<path d="M17.8965 8.9541C18.6979 8.9541 19.492 9.11045 20.2324 9.41309C20.9728 9.71576 21.6462 10.1596 22.2129 10.7188C22.7795 11.2779 23.2285 11.9423 23.5352 12.6729C23.8418 13.4035 24 14.1867 24 14.9775C24 15.7683 23.8418 16.5516 23.5352 17.2822C23.2285 18.0128 22.7795 18.6772 22.2129 19.2363C21.6462 19.7956 20.9729 20.2393 20.2324 20.542C19.492 20.8446 18.6979 21 17.8965 21C17.0952 21 16.3018 20.8445 15.5615 20.542C14.8211 20.2393 14.1478 19.7955 13.5811 19.2363C13.0144 18.6771 12.5645 18.0129 12.2578 17.2822C11.9512 16.5516 11.793 15.7683 11.793 14.9775C11.793 14.1867 11.9512 13.4035 12.2578 12.6729C12.5645 11.9422 13.0143 11.278 13.5811 10.7188C14.1478 10.1595 14.821 9.71576 15.5615 9.41309C16.3019 9.11053 17.0952 8.95413 17.8965 8.9541ZM17.8965 10.8506C17.3476 10.8506 16.804 10.9569 16.2969 11.1641C15.7895 11.3715 15.3278 11.6764 14.9395 12.0596C14.5512 12.4427 14.2433 12.8979 14.0332 13.3984C13.8231 13.899 13.7148 14.4357 13.7148 14.9775C13.7149 15.5193 13.8231 16.0561 14.0332 16.5566C14.2434 17.0572 14.5512 17.5124 14.9395 17.8955C15.3278 18.2787 15.7895 18.5826 16.2969 18.79C16.8041 18.9973 17.3475 19.1045 17.8965 19.1045C18.4456 19.1045 18.9897 18.9974 19.4971 18.79C20.0043 18.5827 20.4653 18.2786 20.8535 17.8955C21.2418 17.5123 21.5506 17.0573 21.7607 16.5566C21.9708 16.0561 22.0791 15.5193 22.0791 14.9775C22.0791 14.4358 21.9708 13.899 21.7607 13.3984C21.5506 12.8978 21.2418 12.4428 20.8535 12.0596C20.4652 11.6764 20.0045 11.3715 19.4971 11.1641C18.9897 10.9567 18.4456 10.8506 17.8965 10.8506ZM17.6914 12.2021C18.2218 12.2024 18.6514 12.627 18.6514 13.1504V14.6729L19.458 15.2041C19.8991 15.4945 20.0185 16.0821 19.7246 16.5176C19.4304 16.9531 18.834 17.0714 18.3926 16.7812L17.1631 15.9717C17.0816 15.9186 17.0079 15.8546 16.9463 15.7803C16.9 15.7243 16.8618 15.6632 16.8301 15.5996C16.7667 15.4732 16.7305 15.3312 16.7305 15.1807V13.1504C16.7305 12.6268 17.1609 12.2021 17.6914 12.2021Z" fill="var(--svg-menu-color)"/>

      </symbol>
            <symbol
        id="bso"
        viewBox="0 0 24 24"
      >
<path d="M10.7739 22.3417C10.7739 22.8433 10.3673 23.2499 9.86569 23.2499H4.0078C2.00479 23.2499 0.375 21.6203 0.375 19.6171V3.6328C0.375 1.62962 2.00479 0 4.0078 0H15.1737C17.1769 0 18.8065 1.62962 18.8065 3.6328V10.6259C18.8065 11.1276 18.3999 11.5341 17.8983 11.5341C17.3966 11.5341 16.9901 11.1276 16.9901 10.6259V3.6328C16.9901 2.6313 16.1752 1.8164 15.1737 1.8164H4.0078C3.0063 1.8164 2.1914 2.6313 2.1914 3.6328V19.6171C2.1914 20.6186 3.0063 21.4335 4.0078 21.4335H9.86569C10.3673 21.4335 10.7739 21.8401 10.7739 22.3417ZM15.1787 6.76609C15.1787 7.26772 14.7721 7.67429 14.2705 7.67429H11.5913C11.0896 7.67429 10.6831 7.26772 10.6831 6.76609C10.6831 6.26445 11.0896 5.85789 11.5913 5.85789H14.2705C14.7721 5.85789 15.1787 6.26445 15.1787 6.76609ZM9.7032 4.89239L7.58348 7.45788C7.30712 7.79863 6.89807 8.01043 6.46011 8.03969C6.42535 8.042 6.3904 8.04324 6.35564 8.04324C5.95156 8.04324 5.55848 7.88732 5.2642 7.60706C5.25586 7.59925 5.2477 7.59109 5.23954 7.58276L4.26536 6.58232C3.91538 6.22294 3.92319 5.64804 4.28239 5.29807C4.64176 4.94809 5.21666 4.95572 5.56664 5.3151L6.34091 6.11013L8.30277 3.7355C8.62223 3.34881 9.19482 3.29435 9.58134 3.61382C9.96803 3.93328 10.0225 4.5057 9.7032 4.89239ZM14.2705 13.2597H11.5913C11.0896 13.2597 10.6831 12.8532 10.6831 12.3515C10.6831 11.8499 11.0896 11.4433 11.5913 11.4433H14.2705C14.7721 11.4433 15.1787 11.8499 15.1787 12.3515C15.1787 12.8532 14.7721 13.2597 14.2705 13.2597ZM9.7032 10.4721L7.58348 13.0378C7.30712 13.3784 6.89807 13.5904 6.46011 13.6194C6.42535 13.6218 6.3904 13.623 6.35564 13.623C5.95138 13.623 5.55848 13.4671 5.26402 13.1868C5.2564 13.1795 5.24877 13.1721 5.24132 13.1645L4.26713 12.1695C3.91627 11.8112 3.9223 11.2361 4.28061 10.8853C4.63893 10.5342 5.214 10.5403 5.56486 10.8987L6.34038 11.6906L8.30277 9.31525C8.62223 8.92856 9.19482 8.87428 9.58134 9.19357C9.96803 9.51303 10.0225 10.0854 9.7032 10.4721ZM9.7032 15.9668L7.58348 18.5324C7.30712 18.873 6.89807 19.085 6.46011 19.1141C6.42535 19.1164 6.3904 19.1176 6.35564 19.1176C5.95138 19.1176 5.55848 18.9617 5.26402 18.6814C5.2564 18.6741 5.24877 18.6667 5.24132 18.6591L4.26713 17.6641C3.91627 17.3058 3.9223 16.7307 4.28061 16.3799C4.63893 16.0288 5.214 16.0349 5.56486 16.3934L6.34038 17.1852L8.30277 14.8099C8.62223 14.4232 9.19482 14.3689 9.58134 14.6882C9.96803 15.0076 10.0225 15.5801 9.7032 15.9668Z" fill="var(--svg-menu-color)"/>
<path fill-rule="evenodd" clip-rule="evenodd" d="M18.9745 13.1487C20.0362 12.087 21.7648 12.087 22.8271 13.1494C23.8893 14.2117 23.8893 15.9401 22.8271 17.0027L17.8514 21.969C17.7405 22.0795 17.603 22.1595 17.4522 22.2014L13.7865 23.2167C13.7065 23.2391 13.6249 23.2499 13.5441 23.2499C13.3026 23.2499 13.0672 23.1534 12.8939 22.9759C12.6627 22.7387 12.5787 22.3946 12.675 22.0776L13.7609 18.5028C13.8044 18.3596 13.8824 18.2295 13.9883 18.1237L18.9745 13.1487ZM16.7372 20.5147L14.893 21.0255L15.4327 19.2487L18.797 15.8917L20.0818 17.1763L16.7372 20.5147ZM21.3673 15.8931L21.5432 15.7175C21.8967 15.364 21.8967 14.7879 21.5427 14.4336C21.1885 14.0796 20.6123 14.0796 20.2583 14.4336L20.0828 14.6087L21.3673 15.8931Z" fill="var(--svg-menu-color)"/>

      </symbol>

      <symbol
        id="insuredevent"
        viewBox="0 0 24 24"
      >
<path fill-rule="evenodd" clip-rule="evenodd" d="M6.08643 21.8086H5.13281C4.13125 21.8086 3.31641 20.9938 3.31641 19.9922V4.00781C3.31641 3.00625 4.13125 2.19141 5.13281 2.19141H16.2987C17.3002 2.19141 18.1151 3.00625 18.1151 4.00781V10.0928C18.1151 10.5944 18.5217 11.001 19.0233 11.001C19.5249 11.001 19.9315 10.5944 19.9315 10.0928V4.00781C19.9315 2.00468 18.3018 0.375 16.2987 0.375H5.13281C3.12968 0.375 1.5 2.00468 1.5 4.00781V19.9922C1.5 21.9953 3.12968 23.625 5.13281 23.625H6.08643C6.58803 23.625 6.99463 23.2184 6.99463 22.7168C6.99463 22.2152 6.58803 21.8086 6.08643 21.8086ZM11.7576 9.45703C12.2592 9.45703 12.6658 9.86363 12.6658 10.3652C12.6658 10.8668 12.2592 11.2734 11.7576 11.2734H6.03596C5.53436 11.2734 5.12775 10.8668 5.12775 10.3652C5.12775 9.86363 5.53436 9.45703 6.03596 9.45703H11.7576ZM5.12775 13.998C5.12775 13.4964 5.53436 13.0898 6.03596 13.0898H9.26512C9.76672 13.0898 10.1733 13.4964 10.1733 13.998C10.1733 14.4996 9.76672 14.9062 9.26512 14.9062H6.03596C5.53436 14.9062 5.12775 14.4996 5.12775 13.998ZM15.3904 5.82422C15.892 5.82422 16.2987 6.23082 16.2987 6.73242C16.2987 7.23402 15.892 7.64062 15.3904 7.64062H6.03596C5.53436 7.64062 5.12775 7.23402 5.12775 6.73242C5.12775 6.23082 5.53436 5.82422 6.03596 5.82422H15.3904Z" fill="var(--svg-menu-color)"/>
<path fill-rule="evenodd" clip-rule="evenodd" d="M22.1644 20.1577L22.1368 20.0886L20.8032 17.8804L17.493 12.5207C17.0279 11.7678 16.2221 11.3184 15.3375 11.3184C14.453 11.3184 13.6472 11.7678 13.1822 12.5207L8.71272 19.7571C8.22274 20.5505 8.20135 21.5104 8.65564 22.3248C9.10951 23.1386 9.93661 23.6245 10.8682 23.6245H12.126C12.6276 23.6245 13.0342 23.2179 13.0342 22.7163C13.0342 22.2147 12.6276 21.8081 12.126 21.8081H10.8682C10.4883 21.8081 10.3037 21.5507 10.242 21.4401C10.1801 21.3291 10.0578 21.036 10.2581 20.7116L14.7276 13.4753C14.9174 13.168 15.2174 13.1348 15.3376 13.1348C15.4577 13.1348 15.7578 13.1679 15.9476 13.4753L19.2507 18.8233L20.4969 20.8867C20.558 21.0891 20.5229 21.3127 20.3989 21.4957C20.3198 21.6124 20.1378 21.8081 19.807 21.8081H18.5743C18.0727 21.8081 17.6661 22.2147 17.6661 22.7163C17.6661 23.2179 18.0727 23.6245 18.5743 23.6245H19.807C20.6483 23.6245 21.4317 23.2096 21.9026 22.5146C22.3764 21.8153 22.4743 20.9342 22.1644 20.1577ZM16.2131 22.7163C16.2131 22.2147 15.8065 21.8081 15.3049 21.8081H15.3045C14.8029 21.8081 14.3965 22.2147 14.3965 22.7163C14.3965 23.2179 14.8033 23.6245 15.3049 23.6245C15.8065 23.6245 16.2131 23.2179 16.2131 22.7163ZM16.2129 19.9917C16.2129 20.4933 15.8063 20.8999 15.3047 20.8999C14.8031 20.8999 14.3965 20.4933 14.3965 19.9917V16.5859C14.3965 16.0843 14.8031 15.6777 15.3047 15.6777C15.8063 15.6777 16.2129 16.0843 16.2129 16.5859V19.9917Z" fill="var(--svg-menu-color)"/>


      </symbol>
      <symbol
        id="agents"
        viewBox="0 0 24 24"
      >
<path d="M4.91602 7.64062C6.41845 7.64062 7.64062 6.41845 7.64062 4.91602C7.64062 3.41358 6.41845 2.19141 4.91602 2.19141C3.41358 2.19141 2.19141 3.41358 2.19141 4.91602C2.19141 6.41845 3.41358 7.64062 4.91602 7.64062ZM4.91602 4.00781C5.41677 4.00781 5.82422 4.41526 5.82422 4.91602C5.82422 5.41677 5.41677 5.82422 4.91602 5.82422C4.41526 5.82422 4.00781 5.41677 4.00781 4.91602C4.00781 4.41526 4.41526 4.00781 4.91602 4.00781ZM7.64062 19.5381V22.7168C7.64062 23.2184 7.23406 23.625 6.73242 23.625C6.23078 23.625 5.82422 23.2184 5.82422 22.7168V19.5381C5.82422 19.0364 6.23078 18.6299 6.73242 18.6299C7.23406 18.6299 7.64062 19.0364 7.64062 19.5381ZM5.7334 9.43433C5.7334 9.93597 5.32684 10.3425 4.8252 10.3425C2.19141 10.3425 2.19141 11.5796 2.19141 12.0454V15.9053C2.19141 16.3319 2.39504 16.7392 2.73633 16.9951C3.53242 17.5922 4.00781 18.543 4.00781 19.5381V22.7168C4.00781 23.2184 3.60125 23.625 3.09961 23.625C2.59797 23.625 2.19141 23.2184 2.19141 22.7168V19.5381C2.19141 19.1115 1.98777 18.7042 1.64648 18.4482C0.850388 17.8512 0.375 16.9004 0.375 15.9053V12.0454C0.375 10.8177 0.879124 9.84763 1.83274 9.24027C2.57668 8.7663 3.58351 8.52612 4.8252 8.52612C5.32684 8.52612 5.7334 8.93269 5.7334 9.43433ZM19.084 7.64062C20.5864 7.64062 21.8086 6.41845 21.8086 4.91602C21.8086 3.41358 20.5864 2.19141 19.084 2.19141C17.5815 2.19141 16.3594 3.41358 16.3594 4.91602C16.3594 6.41845 17.5815 7.64062 19.084 7.64062ZM19.084 4.00781C19.5847 4.00781 19.9922 4.41526 19.9922 4.91602C19.9922 5.41677 19.5847 5.82422 19.084 5.82422C18.5832 5.82422 18.1758 5.41677 18.1758 4.91602C18.1758 4.41526 18.5832 4.00781 19.084 4.00781ZM18.1758 19.5381V22.7168C18.1758 23.2184 17.7692 23.625 17.2676 23.625C16.7659 23.625 16.3594 23.2184 16.3594 22.7168V19.5381C16.3594 19.0364 16.7659 18.6299 17.2676 18.6299C17.7692 18.6299 18.1758 19.0364 18.1758 19.5381ZM23.625 12.0454V15.9053C23.625 16.9004 23.1496 17.8512 22.3535 18.4482C22.0122 18.7042 21.8086 19.1115 21.8086 19.5381V22.7168C21.8086 23.2184 21.402 23.625 20.9004 23.625C20.3988 23.625 19.9922 23.2184 19.9922 22.7168V19.5381C19.9922 18.543 20.4676 17.5922 21.2637 16.9951C21.605 16.7392 21.8086 16.3319 21.8086 15.9053V12.0454C21.8086 11.5796 21.8086 10.3425 19.1748 10.3425C18.6732 10.3425 18.2666 9.93597 18.2666 9.43433C18.2666 8.93269 18.6732 8.52612 19.1748 8.52612C20.4165 8.52612 21.4233 8.7663 22.1673 9.24027C23.1209 9.84763 23.625 10.8177 23.625 12.0454Z" fill="var(--svg-menu-color)"/>
<path d="M12 5.82422C13.5024 5.82422 14.7246 4.60205 14.7246 3.09961C14.7246 1.59717 13.5024 0.375 12 0.375C10.4976 0.375 9.27539 1.59717 9.27539 3.09961C9.27539 4.60205 10.4976 5.82422 12 5.82422ZM12 2.19141C12.5008 2.19141 12.9082 2.59886 12.9082 3.09961C12.9082 3.60036 12.5008 4.00781 12 4.00781C11.4992 4.00781 11.0918 3.60036 11.0918 3.09961C11.0918 2.59886 11.4992 2.19141 12 2.19141ZM16.9951 14.8197C16.9951 15.9298 16.4037 16.9742 15.4519 17.5454L15.3862 17.5847C14.9781 17.8297 14.7246 18.2772 14.7246 18.753V22.7168C14.7246 23.2184 14.318 23.625 13.8164 23.625C13.3148 23.625 12.9082 23.2184 12.9082 22.7168V18.753C12.9082 17.6429 13.4996 16.5985 14.4514 16.0273L14.5171 15.9879C14.9252 15.7431 15.1787 15.2954 15.1787 14.8197V10.7739C15.1787 8.89739 13.4377 8.50342 11.9773 8.50342C10.5169 8.50342 8.77588 8.89739 8.77588 10.7739V14.8066C8.77588 15.2873 9.03326 15.7371 9.44745 15.9808L9.52461 16.0262C10.4914 16.5949 11.0918 17.6447 11.0918 18.7661V22.7168C11.0918 23.2184 10.6852 23.625 10.1836 23.625C9.68195 23.625 9.27539 23.2184 9.27539 22.7168V18.7661C9.27539 18.2854 9.01801 17.8356 8.60382 17.592L8.52666 17.5466C7.55992 16.9779 6.95947 15.928 6.95947 14.8066V10.7739C6.95947 9.40577 7.51184 8.30297 8.55699 7.58493C9.41198 6.99743 10.5948 6.68701 11.9773 6.68701C13.3598 6.68701 14.5426 6.99743 15.3976 7.58493C16.4427 8.30297 16.9951 9.40577 16.9951 10.7739V14.8197Z" fill="var(--svg-menu-color)"/>

      </symbol>
      <symbol
        id="poffers"
        viewBox="0 0 24 24"
      >
<path d="M6.44864 10.8646C6.4485 10.8584 6.44864 10.8707 6.44864 10.8646V10.8646ZM17.6195 10.8646C17.5743 13.0904 16.2984 15.1923 13.93 16.9576C12.8137 17.7897 11.2545 17.7897 10.1382 16.9576C7.76975 15.1923 6.49382 13.0904 6.44864 10.8646C6.4574 7.937 10.0269 6.48901 12.0341 8.59877C14.0423 6.48811 17.6112 7.93864 17.6195 10.8646ZM15.8031 10.8299C15.7068 8.93158 13.0133 8.95378 12.9423 10.8646C12.9423 11.3662 12.5357 11.7728 12.0341 11.7728C11.5325 11.7728 11.1259 11.3662 11.1259 10.8646C11.0548 8.95292 8.36049 8.93267 8.26504 10.8299C8.31204 12.9028 9.89926 14.514 11.2237 15.5012C11.7008 15.8569 12.3673 15.8569 12.8444 15.5012C14.1689 14.514 15.7561 12.9028 15.8031 10.8299ZM17.6195 10.8646C17.6195 10.8707 17.6197 10.8584 17.6195 10.8646V10.8646Z" fill="var(--svg-menu-color)"/>
<path d="M23.6136 12C23.6033 22.3188 11.0715 27.5093 3.76852 20.22C-0.740744 15.8929 -0.741471 8.10689 3.7687 3.77985C11.0724 -3.50933 23.6039 1.68173 23.6136 12ZM21.7972 12C21.7972 6.59151 17.3971 2.19141 11.9887 2.19141C-1.02374 2.7302 -1.01997 21.2717 11.9887 21.8086C17.3971 21.8086 21.7972 17.4084 21.7972 12Z" fill="var(--svg-menu-color)"/>

      </symbol>
      <symbol
        id="undefined"
        viewBox="0 0 64 64"
      >
 
<path d="M61.652 43.8296L40.2117 7.64804C39.3402 6.22595 38.1289 5.05338 36.6915 4.24052C35.2542 3.42766 33.638 3.00119 31.9948 3.00119C30.3516 3.00119 28.7354 3.42766 27.298 4.24052C25.8606 5.05338 24.6493 6.22595 23.7778 7.64804L2.34861 43.8296C1.49892 45.1969 1.03221 46.7757 0.999087 48.3946C0.965967 50.0135 1.36771 51.6108 2.16073 53.0132C3.00171 54.5301 4.22282 55.7914 5.69881 56.6677C7.17481 57.544 8.85256 58.0038 10.56 57.9998H53.4295C55.1384 58.0035 56.8176 57.5437 58.2953 56.6675C59.773 55.7913 60.9962 54.5302 61.8399 53.0132C62.627 51.6088 63.0253 50.0124 62.9923 48.3948C62.9592 46.7772 62.4959 45.1992 61.652 43.8296ZM56.8556 50.407C56.491 51.0085 55.9793 51.5027 55.3708 51.841C54.7624 52.1793 54.0781 52.35 53.3853 52.3363H10.56C9.87306 52.343 9.19598 52.169 8.59399 51.8311C7.992 51.4932 7.48538 51.0028 7.12294 50.407C6.79001 49.8601 6.61358 49.2289 6.61358 48.585C6.61358 47.941 6.79001 47.3099 7.12294 46.7629L28.5632 10.5814C28.9399 9.99242 29.4545 9.50862 30.0604 9.17376C30.6663 8.8389 31.3444 8.66354 32.0335 8.66354C32.7225 8.66354 33.4006 8.8389 34.0065 9.17376C34.6124 9.50862 35.127 9.99242 35.5037 10.5814L56.8556 46.7629C57.2142 47.3233 57.4062 47.9777 57.4081 48.647C57.3762 49.2726 57.1858 49.879 56.8556 50.407Z" fill="#EB5757"/>
<path d="M32.0004 41H31.9987C30.0659 41 28.5 42.567 28.5 44.5C28.5 46.433 30.0676 48 32.0004 48C33.9332 48 35.5 46.433 35.5 44.5C35.5 42.567 33.9332 41 32.0004 41Z" fill="#686868"/>
<path d="M32 38C33.933 38 35.5 36.4428 35.5 34.5217V21.4783C35.5 19.5572 33.933 18 32 18C30.067 18 28.5 19.5572 28.5 21.4783V34.5217C28.5 36.4428 30.067 38 32 38Z" fill="#686868"/>

      </symbol>


      

    </svg>


